G04 #@! TF.GenerationSoftware,KiCad,Pcbnew,9.0.1*
G04 #@! TF.CreationDate,2026-04-29T13:57:15+03:00*
G04 #@! TF.ProjectId,BLDC_motor_driver_testing,424c4443-5f6d-46f7-946f-725f64726976,rev?*
G04 #@! TF.SameCoordinates,Original*
G04 #@! TF.FileFunction,Paste,Top*
G04 #@! TF.FilePolarity,Positive*
%FSLAX46Y46*%
G04 Gerber Fmt 4.6, Leading zero omitted, Abs format (unit mm)*
G04 Created by KiCad (PCBNEW 9.0.1) date 2026-04-29 13:57:15*
%MOMM*%
%LPD*%
G01*
G04 APERTURE LIST*
G04 Aperture macros list*
%AMRoundRect*
0 Rectangle with rounded corners*
0 $1 Rounding radius*
0 $2 $3 $4 $5 $6 $7 $8 $9 X,Y pos of 4 corners*
0 Add a 4 corners polygon primitive as box body*
4,1,4,$2,$3,$4,$5,$6,$7,$8,$9,$2,$3,0*
0 Add four circle primitives for the rounded corners*
1,1,$1+$1,$2,$3*
1,1,$1+$1,$4,$5*
1,1,$1+$1,$6,$7*
1,1,$1+$1,$8,$9*
0 Add four rect primitives between the rounded corners*
20,1,$1+$1,$2,$3,$4,$5,0*
20,1,$1+$1,$4,$5,$6,$7,0*
20,1,$1+$1,$6,$7,$8,$9,0*
20,1,$1+$1,$8,$9,$2,$3,0*%
G04 Aperture macros list end*
%ADD10RoundRect,0.087500X0.537500X0.087500X-0.537500X0.087500X-0.537500X-0.087500X0.537500X-0.087500X0*%
%ADD11RoundRect,0.250000X0.445000X-0.545000X0.445000X0.545000X-0.445000X0.545000X-0.445000X-0.545000X0*%
%ADD12RoundRect,0.250000X-1.000000X1.500000X-1.000000X-1.500000X1.000000X-1.500000X1.000000X1.500000X0*%
%ADD13RoundRect,0.250000X-1.425000X0.362500X-1.425000X-0.362500X1.425000X-0.362500X1.425000X0.362500X0*%
%ADD14RoundRect,0.250000X0.450000X-0.350000X0.450000X0.350000X-0.450000X0.350000X-0.450000X-0.350000X0*%
%ADD15RoundRect,0.250000X0.475000X-0.337500X0.475000X0.337500X-0.475000X0.337500X-0.475000X-0.337500X0*%
%ADD16RoundRect,0.225000X-0.375000X0.225000X-0.375000X-0.225000X0.375000X-0.225000X0.375000X0.225000X0*%
%ADD17RoundRect,0.250000X0.337500X0.475000X-0.337500X0.475000X-0.337500X-0.475000X0.337500X-0.475000X0*%
%ADD18RoundRect,0.150000X-0.825000X-0.150000X0.825000X-0.150000X0.825000X0.150000X-0.825000X0.150000X0*%
%ADD19RoundRect,0.250000X-0.475000X0.337500X-0.475000X-0.337500X0.475000X-0.337500X0.475000X0.337500X0*%
%ADD20RoundRect,0.250000X-0.350000X-0.450000X0.350000X-0.450000X0.350000X0.450000X-0.350000X0.450000X0*%
%ADD21RoundRect,0.225000X0.375000X-0.225000X0.375000X0.225000X-0.375000X0.225000X-0.375000X-0.225000X0*%
%ADD22RoundRect,0.250000X0.450000X-0.325000X0.450000X0.325000X-0.450000X0.325000X-0.450000X-0.325000X0*%
%ADD23RoundRect,0.250000X-0.450000X0.350000X-0.450000X-0.350000X0.450000X-0.350000X0.450000X0.350000X0*%
%ADD24RoundRect,0.250000X-0.545000X-0.445000X0.545000X-0.445000X0.545000X0.445000X-0.545000X0.445000X0*%
%ADD25RoundRect,0.375000X0.625000X0.375000X-0.625000X0.375000X-0.625000X-0.375000X0.625000X-0.375000X0*%
%ADD26RoundRect,0.500000X0.500000X1.400000X-0.500000X1.400000X-0.500000X-1.400000X0.500000X-1.400000X0*%
G04 APERTURE END LIST*
D10*
X39400000Y-59250000D03*
X39400000Y-58750000D03*
X39400000Y-58250000D03*
X39400000Y-57750000D03*
X36600000Y-57750000D03*
X36600000Y-58250000D03*
X36600000Y-58750000D03*
X36600000Y-59250000D03*
X65400000Y-59250000D03*
X65400000Y-58750000D03*
X65400000Y-58250000D03*
X65400000Y-57750000D03*
X62600000Y-57750000D03*
X62600000Y-58250000D03*
X62600000Y-58750000D03*
X62600000Y-59250000D03*
X91400000Y-59250000D03*
X91400000Y-58750000D03*
X91400000Y-58250000D03*
X91400000Y-57750000D03*
X88600000Y-57750000D03*
X88600000Y-58250000D03*
X88600000Y-58750000D03*
X88600000Y-59250000D03*
D11*
X23000000Y-49560000D03*
X23000000Y-52440000D03*
X49000000Y-49560000D03*
X49000000Y-52440000D03*
X75000000Y-49560000D03*
X75000000Y-52440000D03*
D12*
X25500000Y-64750000D03*
X25500000Y-71250000D03*
D13*
X94000000Y-40037500D03*
X94000000Y-45962500D03*
X42000000Y-40037500D03*
X42000000Y-45962500D03*
D14*
X60000000Y-46000000D03*
X60000000Y-44000000D03*
D15*
X71000000Y-55037500D03*
X71000000Y-52962500D03*
D16*
X75000000Y-55350000D03*
X75000000Y-58650000D03*
D17*
X45037500Y-50000000D03*
X42962500Y-50000000D03*
D18*
X37525000Y-52095000D03*
X37525000Y-53365000D03*
X37525000Y-54635000D03*
X37525000Y-55905000D03*
X42475000Y-55905000D03*
X42475000Y-54635000D03*
X42475000Y-53365000D03*
X42475000Y-52095000D03*
D19*
X89000000Y-60962500D03*
X89000000Y-63037500D03*
D20*
X58000000Y-61000000D03*
X60000000Y-61000000D03*
D15*
X99500000Y-58037500D03*
X99500000Y-55962500D03*
X45000000Y-55037500D03*
X45000000Y-52962500D03*
D14*
X43500000Y-61000000D03*
X43500000Y-59000000D03*
D19*
X37000000Y-60962500D03*
X37000000Y-63037500D03*
D20*
X32000000Y-61000000D03*
X34000000Y-61000000D03*
D14*
X54000000Y-46000000D03*
X54000000Y-44000000D03*
D19*
X63000000Y-60962500D03*
X63000000Y-63037500D03*
D12*
X77500000Y-64750000D03*
X77500000Y-71250000D03*
D14*
X80000000Y-46000000D03*
X80000000Y-44000000D03*
D21*
X37000000Y-46650000D03*
X37000000Y-43350000D03*
D18*
X63525000Y-52095000D03*
X63525000Y-53365000D03*
X63525000Y-54635000D03*
X63525000Y-55905000D03*
X68475000Y-55905000D03*
X68475000Y-54635000D03*
X68475000Y-53365000D03*
X68475000Y-52095000D03*
D21*
X25000000Y-46650000D03*
X25000000Y-43350000D03*
D15*
X107500000Y-58037500D03*
X107500000Y-55962500D03*
X97000000Y-55037500D03*
X97000000Y-52962500D03*
D22*
X99000000Y-62025000D03*
X99000000Y-59975000D03*
D14*
X95500000Y-61000000D03*
X95500000Y-59000000D03*
D16*
X49000000Y-55350000D03*
X49000000Y-58650000D03*
D21*
X89000000Y-46650000D03*
X89000000Y-43350000D03*
D20*
X84000000Y-61000000D03*
X86000000Y-61000000D03*
D21*
X77000000Y-46650000D03*
X77000000Y-43350000D03*
D14*
X69500000Y-61000000D03*
X69500000Y-59000000D03*
D19*
X106000000Y-41962500D03*
X106000000Y-44037500D03*
D23*
X99000000Y-64000000D03*
X99000000Y-66000000D03*
D24*
X23560000Y-61000000D03*
X26440000Y-61000000D03*
D23*
X93500000Y-59000000D03*
X93500000Y-61000000D03*
D18*
X89525000Y-52095000D03*
X89525000Y-53365000D03*
X89525000Y-54635000D03*
X89525000Y-55905000D03*
X94475000Y-55905000D03*
X94475000Y-54635000D03*
X94475000Y-53365000D03*
X94475000Y-52095000D03*
D14*
X28000000Y-46000000D03*
X28000000Y-44000000D03*
X86000000Y-46000000D03*
X86000000Y-44000000D03*
D17*
X71037500Y-50000000D03*
X68962500Y-50000000D03*
D23*
X41500000Y-59000000D03*
X41500000Y-61000000D03*
D21*
X63000000Y-46650000D03*
X63000000Y-43350000D03*
D13*
X68000000Y-40037500D03*
X68000000Y-45962500D03*
D15*
X102000000Y-58037500D03*
X102000000Y-55962500D03*
D24*
X49560000Y-61000000D03*
X52440000Y-61000000D03*
D15*
X105000000Y-58037500D03*
X105000000Y-55962500D03*
D17*
X97037500Y-50000000D03*
X94962500Y-50000000D03*
D23*
X67500000Y-59000000D03*
X67500000Y-61000000D03*
D12*
X51500000Y-64750000D03*
X51500000Y-71250000D03*
D16*
X23000000Y-55350000D03*
X23000000Y-58650000D03*
D21*
X51000000Y-46650000D03*
X51000000Y-43350000D03*
D24*
X75560000Y-61000000D03*
X78440000Y-61000000D03*
D14*
X34000000Y-46000000D03*
X34000000Y-44000000D03*
D25*
X108150000Y-64800000D03*
X108150000Y-62500000D03*
D26*
X101850000Y-62500000D03*
D25*
X108150000Y-60200000D03*
M02*
