G04 #@! TF.GenerationSoftware,KiCad,Pcbnew,9.0.1*
G04 #@! TF.CreationDate,2026-04-29T13:57:15+03:00*
G04 #@! TF.ProjectId,BLDC_motor_driver_testing,424c4443-5f6d-46f7-946f-725f64726976,rev?*
G04 #@! TF.SameCoordinates,Original*
G04 #@! TF.FileFunction,Copper,L1,Top*
G04 #@! TF.FilePolarity,Positive*
%FSLAX46Y46*%
G04 Gerber Fmt 4.6, Leading zero omitted, Abs format (unit mm)*
G04 Created by KiCad (PCBNEW 9.0.1) date 2026-04-29 13:57:15*
%MOMM*%
%LPD*%
G01*
G04 APERTURE LIST*
G04 Aperture macros list*
%AMRoundRect*
0 Rectangle with rounded corners*
0 $1 Rounding radius*
0 $2 $3 $4 $5 $6 $7 $8 $9 X,Y pos of 4 corners*
0 Add a 4 corners polygon primitive as box body*
4,1,4,$2,$3,$4,$5,$6,$7,$8,$9,$2,$3,0*
0 Add four circle primitives for the rounded corners*
1,1,$1+$1,$2,$3*
1,1,$1+$1,$4,$5*
1,1,$1+$1,$6,$7*
1,1,$1+$1,$8,$9*
0 Add four rect primitives between the rounded corners*
20,1,$1+$1,$2,$3,$4,$5,0*
20,1,$1+$1,$4,$5,$6,$7,0*
20,1,$1+$1,$6,$7,$8,$9,0*
20,1,$1+$1,$8,$9,$2,$3,0*%
G04 Aperture macros list end*
G04 #@! TA.AperFunction,SMDPad,CuDef*
%ADD10RoundRect,0.087500X0.537500X0.087500X-0.537500X0.087500X-0.537500X-0.087500X0.537500X-0.087500X0*%
G04 #@! TD*
G04 #@! TA.AperFunction,SMDPad,CuDef*
%ADD11RoundRect,0.250000X0.445000X-0.545000X0.445000X0.545000X-0.445000X0.545000X-0.445000X-0.545000X0*%
G04 #@! TD*
G04 #@! TA.AperFunction,SMDPad,CuDef*
%ADD12RoundRect,0.250000X-1.000000X1.500000X-1.000000X-1.500000X1.000000X-1.500000X1.000000X1.500000X0*%
G04 #@! TD*
G04 #@! TA.AperFunction,SMDPad,CuDef*
%ADD13RoundRect,0.250000X-1.425000X0.362500X-1.425000X-0.362500X1.425000X-0.362500X1.425000X0.362500X0*%
G04 #@! TD*
G04 #@! TA.AperFunction,SMDPad,CuDef*
%ADD14RoundRect,0.250000X0.450000X-0.350000X0.450000X0.350000X-0.450000X0.350000X-0.450000X-0.350000X0*%
G04 #@! TD*
G04 #@! TA.AperFunction,SMDPad,CuDef*
%ADD15RoundRect,0.250000X0.475000X-0.337500X0.475000X0.337500X-0.475000X0.337500X-0.475000X-0.337500X0*%
G04 #@! TD*
G04 #@! TA.AperFunction,SMDPad,CuDef*
%ADD16RoundRect,0.225000X-0.375000X0.225000X-0.375000X-0.225000X0.375000X-0.225000X0.375000X0.225000X0*%
G04 #@! TD*
G04 #@! TA.AperFunction,SMDPad,CuDef*
%ADD17RoundRect,0.250000X0.337500X0.475000X-0.337500X0.475000X-0.337500X-0.475000X0.337500X-0.475000X0*%
G04 #@! TD*
G04 #@! TA.AperFunction,SMDPad,CuDef*
%ADD18RoundRect,0.150000X-0.825000X-0.150000X0.825000X-0.150000X0.825000X0.150000X-0.825000X0.150000X0*%
G04 #@! TD*
G04 #@! TA.AperFunction,SMDPad,CuDef*
%ADD19RoundRect,0.250000X-0.475000X0.337500X-0.475000X-0.337500X0.475000X-0.337500X0.475000X0.337500X0*%
G04 #@! TD*
G04 #@! TA.AperFunction,ComponentPad*
%ADD20C,2.600000*%
G04 #@! TD*
G04 #@! TA.AperFunction,ConnectorPad*
%ADD21C,4.400000*%
G04 #@! TD*
G04 #@! TA.AperFunction,SMDPad,CuDef*
%ADD22RoundRect,0.250000X-0.350000X-0.450000X0.350000X-0.450000X0.350000X0.450000X-0.350000X0.450000X0*%
G04 #@! TD*
G04 #@! TA.AperFunction,ComponentPad*
%ADD23RoundRect,0.250000X-0.750000X-0.750000X0.750000X-0.750000X0.750000X0.750000X-0.750000X0.750000X0*%
G04 #@! TD*
G04 #@! TA.AperFunction,ComponentPad*
%ADD24C,2.000000*%
G04 #@! TD*
G04 #@! TA.AperFunction,ComponentPad*
%ADD25R,1.905000X2.000000*%
G04 #@! TD*
G04 #@! TA.AperFunction,ComponentPad*
%ADD26O,1.905000X2.000000*%
G04 #@! TD*
G04 #@! TA.AperFunction,ComponentPad*
%ADD27RoundRect,0.250000X0.550000X-0.950000X0.550000X0.950000X-0.550000X0.950000X-0.550000X-0.950000X0*%
G04 #@! TD*
G04 #@! TA.AperFunction,ComponentPad*
%ADD28O,1.600000X2.400000*%
G04 #@! TD*
G04 #@! TA.AperFunction,ComponentPad*
%ADD29RoundRect,0.250000X0.750000X-0.750000X0.750000X0.750000X-0.750000X0.750000X-0.750000X-0.750000X0*%
G04 #@! TD*
G04 #@! TA.AperFunction,SMDPad,CuDef*
%ADD30RoundRect,0.225000X0.375000X-0.225000X0.375000X0.225000X-0.375000X0.225000X-0.375000X-0.225000X0*%
G04 #@! TD*
G04 #@! TA.AperFunction,SMDPad,CuDef*
%ADD31RoundRect,0.250000X0.450000X-0.325000X0.450000X0.325000X-0.450000X0.325000X-0.450000X-0.325000X0*%
G04 #@! TD*
G04 #@! TA.AperFunction,SMDPad,CuDef*
%ADD32RoundRect,0.250000X-0.450000X0.350000X-0.450000X-0.350000X0.450000X-0.350000X0.450000X0.350000X0*%
G04 #@! TD*
G04 #@! TA.AperFunction,SMDPad,CuDef*
%ADD33RoundRect,0.250000X-0.545000X-0.445000X0.545000X-0.445000X0.545000X0.445000X-0.545000X0.445000X0*%
G04 #@! TD*
G04 #@! TA.AperFunction,SMDPad,CuDef*
%ADD34RoundRect,0.375000X0.625000X0.375000X-0.625000X0.375000X-0.625000X-0.375000X0.625000X-0.375000X0*%
G04 #@! TD*
G04 #@! TA.AperFunction,SMDPad,CuDef*
%ADD35RoundRect,0.500000X0.500000X1.400000X-0.500000X1.400000X-0.500000X-1.400000X0.500000X-1.400000X0*%
G04 #@! TD*
G04 #@! TA.AperFunction,ViaPad*
%ADD36C,0.600000*%
G04 #@! TD*
G04 #@! TA.AperFunction,Conductor*
%ADD37C,0.200000*%
G04 #@! TD*
G04 #@! TA.AperFunction,Conductor*
%ADD38C,1.500000*%
G04 #@! TD*
G04 #@! TA.AperFunction,Conductor*
%ADD39C,2.000000*%
G04 #@! TD*
G04 APERTURE END LIST*
D10*
X39400000Y-59250000D03*
X39400000Y-58750000D03*
X39400000Y-58250000D03*
X39400000Y-57750000D03*
X36600000Y-57750000D03*
X36600000Y-58250000D03*
X36600000Y-58750000D03*
X36600000Y-59250000D03*
X65400000Y-59250000D03*
X65400000Y-58750000D03*
X65400000Y-58250000D03*
X65400000Y-57750000D03*
X62600000Y-57750000D03*
X62600000Y-58250000D03*
X62600000Y-58750000D03*
X62600000Y-59250000D03*
X91400000Y-59250000D03*
X91400000Y-58750000D03*
X91400000Y-58250000D03*
X91400000Y-57750000D03*
X88600000Y-57750000D03*
X88600000Y-58250000D03*
X88600000Y-58750000D03*
X88600000Y-59250000D03*
D11*
X23000000Y-49560000D03*
X23000000Y-52440000D03*
X49000000Y-49560000D03*
X49000000Y-52440000D03*
X75000000Y-49560000D03*
X75000000Y-52440000D03*
D12*
X25500000Y-64750000D03*
X25500000Y-71250000D03*
D13*
X94000000Y-40037500D03*
X94000000Y-45962500D03*
X42000000Y-40037500D03*
X42000000Y-45962500D03*
D14*
X60000000Y-46000000D03*
X60000000Y-44000000D03*
D15*
X71000000Y-55037500D03*
X71000000Y-52962500D03*
D16*
X75000000Y-55350000D03*
X75000000Y-58650000D03*
D17*
X45037500Y-50000000D03*
X42962500Y-50000000D03*
D18*
X37525000Y-52095000D03*
X37525000Y-53365000D03*
X37525000Y-54635000D03*
X37525000Y-55905000D03*
X42475000Y-55905000D03*
X42475000Y-54635000D03*
X42475000Y-53365000D03*
X42475000Y-52095000D03*
D19*
X89000000Y-60962500D03*
X89000000Y-63037500D03*
D20*
X65000000Y-25000000D03*
D21*
X65000000Y-25000000D03*
D22*
X58000000Y-61000000D03*
X60000000Y-61000000D03*
D23*
X87500000Y-77000000D03*
D24*
X90040000Y-77000000D03*
X92580000Y-77000000D03*
D15*
X99500000Y-58037500D03*
X99500000Y-55962500D03*
X45000000Y-55037500D03*
X45000000Y-52962500D03*
D14*
X43500000Y-61000000D03*
X43500000Y-59000000D03*
D19*
X37000000Y-60962500D03*
X37000000Y-63037500D03*
D22*
X32000000Y-61000000D03*
X34000000Y-61000000D03*
D14*
X54000000Y-46000000D03*
X54000000Y-44000000D03*
D19*
X63000000Y-60962500D03*
X63000000Y-63037500D03*
D25*
X25000000Y-34000000D03*
D26*
X27540000Y-34000000D03*
X30080000Y-34000000D03*
D27*
X78000000Y-58000000D03*
D28*
X80540000Y-58000000D03*
X83080000Y-58000000D03*
X85620000Y-58000000D03*
X85620000Y-50380000D03*
X83080000Y-50380000D03*
X80540000Y-50380000D03*
X78000000Y-50380000D03*
D12*
X77500000Y-64750000D03*
X77500000Y-71250000D03*
D29*
X104500000Y-71000000D03*
D24*
X104500000Y-68460000D03*
D25*
X77000000Y-34000000D03*
D26*
X79540000Y-34000000D03*
X82080000Y-34000000D03*
D14*
X80000000Y-46000000D03*
X80000000Y-44000000D03*
D23*
X61500000Y-77000000D03*
D24*
X64040000Y-77000000D03*
X66580000Y-77000000D03*
D25*
X63000000Y-34000000D03*
D26*
X65540000Y-34000000D03*
X68080000Y-34000000D03*
D25*
X37000000Y-34000000D03*
D26*
X39540000Y-34000000D03*
X42080000Y-34000000D03*
D23*
X35500000Y-77000000D03*
D24*
X38040000Y-77000000D03*
X40580000Y-77000000D03*
D27*
X52000000Y-58000000D03*
D28*
X54540000Y-58000000D03*
X57080000Y-58000000D03*
X59620000Y-58000000D03*
X59620000Y-50380000D03*
X57080000Y-50380000D03*
X54540000Y-50380000D03*
X52000000Y-50380000D03*
D30*
X37000000Y-46650000D03*
X37000000Y-43350000D03*
D18*
X63525000Y-52095000D03*
X63525000Y-53365000D03*
X63525000Y-54635000D03*
X63525000Y-55905000D03*
X68475000Y-55905000D03*
X68475000Y-54635000D03*
X68475000Y-53365000D03*
X68475000Y-52095000D03*
D20*
X106000000Y-50000000D03*
D21*
X106000000Y-50000000D03*
D30*
X25000000Y-46650000D03*
X25000000Y-43350000D03*
D15*
X107500000Y-58037500D03*
X107500000Y-55962500D03*
X97000000Y-55037500D03*
X97000000Y-52962500D03*
D31*
X99000000Y-62025000D03*
X99000000Y-59975000D03*
D14*
X95500000Y-61000000D03*
X95500000Y-59000000D03*
D20*
X45000000Y-25000000D03*
D21*
X45000000Y-25000000D03*
D16*
X49000000Y-55350000D03*
X49000000Y-58650000D03*
D30*
X89000000Y-46650000D03*
X89000000Y-43350000D03*
D22*
X84000000Y-61000000D03*
X86000000Y-61000000D03*
D30*
X77000000Y-46650000D03*
X77000000Y-43350000D03*
D14*
X69500000Y-61000000D03*
X69500000Y-59000000D03*
D19*
X106000000Y-41962500D03*
X106000000Y-44037500D03*
D32*
X99000000Y-64000000D03*
X99000000Y-66000000D03*
D33*
X23560000Y-61000000D03*
X26440000Y-61000000D03*
D32*
X93500000Y-59000000D03*
X93500000Y-61000000D03*
D27*
X26000000Y-58000000D03*
D28*
X28540000Y-58000000D03*
X31080000Y-58000000D03*
X33620000Y-58000000D03*
X33620000Y-50380000D03*
X31080000Y-50380000D03*
X28540000Y-50380000D03*
X26000000Y-50380000D03*
D18*
X89525000Y-52095000D03*
X89525000Y-53365000D03*
X89525000Y-54635000D03*
X89525000Y-55905000D03*
X94475000Y-55905000D03*
X94475000Y-54635000D03*
X94475000Y-53365000D03*
X94475000Y-52095000D03*
D25*
X51000000Y-34000000D03*
D26*
X53540000Y-34000000D03*
X56080000Y-34000000D03*
D14*
X28000000Y-46000000D03*
X28000000Y-44000000D03*
D25*
X89000000Y-34000000D03*
D26*
X91540000Y-34000000D03*
X94080000Y-34000000D03*
D14*
X86000000Y-46000000D03*
X86000000Y-44000000D03*
D17*
X71037500Y-50000000D03*
X68962500Y-50000000D03*
D32*
X41500000Y-59000000D03*
X41500000Y-61000000D03*
D30*
X63000000Y-46650000D03*
X63000000Y-43350000D03*
D13*
X68000000Y-40037500D03*
X68000000Y-45962500D03*
D15*
X102000000Y-58037500D03*
X102000000Y-55962500D03*
D33*
X49560000Y-61000000D03*
X52440000Y-61000000D03*
D15*
X105000000Y-58037500D03*
X105000000Y-55962500D03*
D17*
X97037500Y-50000000D03*
X94962500Y-50000000D03*
D32*
X67500000Y-59000000D03*
X67500000Y-61000000D03*
D12*
X51500000Y-64750000D03*
X51500000Y-71250000D03*
D20*
X85000000Y-25000000D03*
D21*
X85000000Y-25000000D03*
D16*
X23000000Y-55350000D03*
X23000000Y-58650000D03*
D30*
X51000000Y-46650000D03*
X51000000Y-43350000D03*
D33*
X75560000Y-61000000D03*
X78440000Y-61000000D03*
D14*
X34000000Y-46000000D03*
X34000000Y-44000000D03*
D20*
X106000000Y-36000000D03*
D21*
X106000000Y-36000000D03*
D34*
X108150000Y-64800000D03*
X108150000Y-62500000D03*
D35*
X101850000Y-62500000D03*
D34*
X108150000Y-60200000D03*
D36*
X67200000Y-50700000D03*
X67200000Y-49700000D03*
X67200000Y-48700000D03*
X93100000Y-50600000D03*
X93100000Y-49600000D03*
X93100000Y-48600000D03*
X43400000Y-48400000D03*
X42600000Y-48400000D03*
X41800000Y-50800000D03*
X41800000Y-50000000D03*
X41800000Y-49200000D03*
X41800000Y-48400000D03*
X41000000Y-50800000D03*
X41000000Y-50000000D03*
X41000000Y-49200000D03*
X41000000Y-48400000D03*
X40200000Y-48400000D03*
X40200000Y-49200000D03*
X102300000Y-59900000D03*
X106600000Y-62500000D03*
X97500000Y-66000000D03*
X66200000Y-57000000D03*
X92200000Y-57000000D03*
X95500000Y-62300000D03*
X89000000Y-64400000D03*
X43500000Y-62300000D03*
X37000000Y-64300000D03*
X69500000Y-62300000D03*
X63000000Y-64400000D03*
X40200000Y-50000000D03*
X40200000Y-50800000D03*
X66200000Y-50700000D03*
X66200000Y-49700000D03*
X64200000Y-48700000D03*
X65200000Y-48700000D03*
X62200000Y-48700000D03*
X66200000Y-48700000D03*
X63200000Y-48700000D03*
X62200000Y-50700000D03*
X63200000Y-50700000D03*
X62200000Y-49700000D03*
X63200000Y-49700000D03*
X64200000Y-49700000D03*
X64200000Y-50700000D03*
X65200000Y-50700000D03*
X65200000Y-49700000D03*
X92100000Y-48600000D03*
X88100000Y-48600000D03*
X89100000Y-48600000D03*
X90100000Y-48600000D03*
X91100000Y-48600000D03*
X92100000Y-50600000D03*
X92100000Y-49600000D03*
X90100000Y-50600000D03*
X91100000Y-50600000D03*
X90100000Y-49600000D03*
X91100000Y-49600000D03*
X106300000Y-53100000D03*
X107300000Y-54100000D03*
X106300000Y-54100000D03*
X107300000Y-53100000D03*
X104300000Y-53100000D03*
X104300000Y-54100000D03*
X105300000Y-53100000D03*
X105300000Y-54100000D03*
X104400000Y-45900000D03*
X105400000Y-46900000D03*
X104400000Y-46900000D03*
X105400000Y-45900000D03*
X106400000Y-45900000D03*
X107400000Y-46900000D03*
X106400000Y-46900000D03*
X107400000Y-45900000D03*
X102000000Y-50800000D03*
X103000000Y-51800000D03*
X102000000Y-51800000D03*
X103000000Y-50800000D03*
X99000000Y-51800000D03*
X99000000Y-50800000D03*
X100000000Y-50800000D03*
X100000000Y-51800000D03*
X101000000Y-50800000D03*
X101000000Y-51800000D03*
X99000000Y-48800000D03*
X99000000Y-49800000D03*
X100000000Y-48800000D03*
X101000000Y-49800000D03*
X100000000Y-49800000D03*
X101000000Y-48800000D03*
X102000000Y-49800000D03*
X103000000Y-49800000D03*
X103000000Y-48800000D03*
X102000000Y-48800000D03*
X89100000Y-50600000D03*
X88100000Y-50600000D03*
X91900000Y-53400000D03*
X91900000Y-52235000D03*
X91900000Y-54535000D03*
X89100000Y-49600000D03*
X88100000Y-49600000D03*
X81810000Y-53190000D03*
X78510000Y-53190000D03*
X80710000Y-53190000D03*
X79610000Y-53190000D03*
X78510000Y-54190000D03*
X80710000Y-54190000D03*
X81810000Y-54190000D03*
X79610000Y-54190000D03*
X65900000Y-53400000D03*
X65900000Y-54535000D03*
X65900000Y-52235000D03*
X55810000Y-54190000D03*
X54710000Y-54190000D03*
X53610000Y-54190000D03*
X52510000Y-54190000D03*
X55810000Y-53190000D03*
X54710000Y-53190000D03*
X53610000Y-53190000D03*
X52510000Y-53190000D03*
X40200000Y-51800000D03*
X40200000Y-52700000D03*
X40200000Y-55100000D03*
X40200000Y-54200000D03*
X27800000Y-38700000D03*
X27800000Y-41700000D03*
X27800000Y-40200000D03*
X29000000Y-40200000D03*
X29000000Y-37200000D03*
X29000000Y-38700000D03*
X29000000Y-41700000D03*
X27800000Y-37200000D03*
X33100000Y-38600000D03*
X33100000Y-41600000D03*
X33100000Y-40100000D03*
X34300000Y-40100000D03*
X34300000Y-37100000D03*
X34300000Y-38600000D03*
X34300000Y-41600000D03*
X33100000Y-37100000D03*
X59100000Y-38600000D03*
X59100000Y-41600000D03*
X59100000Y-40100000D03*
X60300000Y-40100000D03*
X60300000Y-37100000D03*
X60300000Y-38600000D03*
X60300000Y-41600000D03*
X59100000Y-37100000D03*
X53800000Y-38700000D03*
X53800000Y-41700000D03*
X53800000Y-40200000D03*
X55000000Y-40200000D03*
X55000000Y-37200000D03*
X55000000Y-38700000D03*
X55000000Y-41700000D03*
X53800000Y-37200000D03*
X85100000Y-38700000D03*
X85100000Y-41700000D03*
X85100000Y-40200000D03*
X86300000Y-40200000D03*
X86300000Y-37200000D03*
X86300000Y-38700000D03*
X86300000Y-41700000D03*
X85100000Y-37200000D03*
X81000000Y-40100000D03*
X81000000Y-37100000D03*
X81000000Y-38600000D03*
X81000000Y-41600000D03*
X79800000Y-40100000D03*
X79800000Y-37100000D03*
X79800000Y-38600000D03*
X79800000Y-41600000D03*
X103000000Y-39000000D03*
X103000000Y-40000000D03*
X21500000Y-60000000D03*
X47500000Y-60000000D03*
X100000000Y-33000000D03*
X73500000Y-58000000D03*
X100000000Y-39000000D03*
X102000000Y-33000000D03*
X101000000Y-32000000D03*
X101000000Y-37000000D03*
X104000000Y-40000000D03*
X47500000Y-61000000D03*
X101000000Y-39000000D03*
X50500000Y-58500000D03*
X102000000Y-37000000D03*
X23000000Y-39000000D03*
X102000000Y-34000000D03*
X107000000Y-40000000D03*
X101000000Y-40000000D03*
X102000000Y-32000000D03*
X106000000Y-32000000D03*
X107000000Y-39000000D03*
X21500000Y-39000000D03*
X100000000Y-36000000D03*
X47500000Y-58000000D03*
X21500000Y-40500000D03*
X23000000Y-42000000D03*
X100000000Y-40000000D03*
X23000000Y-37500000D03*
X105000000Y-33000000D03*
X100000000Y-38000000D03*
X103000000Y-35000000D03*
X21500000Y-37500000D03*
X103000000Y-37000000D03*
X21500000Y-58000000D03*
X103000000Y-32000000D03*
X100000000Y-35000000D03*
X103000000Y-33000000D03*
X102000000Y-40000000D03*
X101000000Y-38000000D03*
X105000000Y-32000000D03*
X21500000Y-59000000D03*
X100000000Y-37000000D03*
X24500000Y-57500000D03*
X101000000Y-35000000D03*
X50500000Y-57500000D03*
X24500000Y-58500000D03*
X101000000Y-34000000D03*
X106000000Y-40000000D03*
X47500000Y-59000000D03*
X103000000Y-36000000D03*
X104000000Y-33000000D03*
X76500000Y-58500000D03*
X101000000Y-33000000D03*
X105000000Y-40000000D03*
X105000000Y-39000000D03*
X102000000Y-38000000D03*
X73500000Y-61000000D03*
X106000000Y-33000000D03*
X102000000Y-39000000D03*
X76500000Y-57500000D03*
X107000000Y-32000000D03*
X102000000Y-35000000D03*
X104000000Y-32000000D03*
X101000000Y-36000000D03*
X103000000Y-38000000D03*
X73500000Y-60000000D03*
X106000000Y-39000000D03*
X107000000Y-33000000D03*
X104000000Y-39000000D03*
X73500000Y-59000000D03*
X100000000Y-32000000D03*
X100000000Y-34000000D03*
X103000000Y-34000000D03*
X102000000Y-36000000D03*
X23000000Y-40500000D03*
X21500000Y-42000000D03*
X21500000Y-61000000D03*
X60000000Y-23500000D03*
X68000000Y-26500000D03*
X72000000Y-26500000D03*
X48500000Y-47250000D03*
X69000000Y-23500000D03*
X71000000Y-26500000D03*
X48500000Y-48000000D03*
X60000000Y-25500000D03*
X62000000Y-26500000D03*
X70000000Y-25500000D03*
X58000000Y-23500000D03*
X58000000Y-26500000D03*
X72000000Y-24500000D03*
X61000000Y-24500000D03*
X49400000Y-47250000D03*
X72000000Y-25500000D03*
X48500000Y-46500000D03*
X71000000Y-24500000D03*
X61000000Y-26500000D03*
X61000000Y-23500000D03*
X70000000Y-26500000D03*
X68000000Y-23500000D03*
X72000000Y-23500000D03*
X59000000Y-23500000D03*
X71000000Y-25500000D03*
X59000000Y-25500000D03*
X59000000Y-26500000D03*
X69000000Y-24500000D03*
X62000000Y-23500000D03*
X49400000Y-46500000D03*
X58000000Y-25500000D03*
X61000000Y-25500000D03*
X70000000Y-23500000D03*
X69000000Y-26500000D03*
X62000000Y-24500000D03*
X62000000Y-25500000D03*
X68000000Y-24500000D03*
X60000000Y-26500000D03*
X68000000Y-25500000D03*
X59000000Y-24500000D03*
X70000000Y-24500000D03*
X71000000Y-23500000D03*
X49400000Y-48000000D03*
X69000000Y-25500000D03*
X60000000Y-24500000D03*
X58000000Y-24500000D03*
X93000000Y-62500000D03*
X97000000Y-69000000D03*
X98000000Y-69000000D03*
X93000000Y-64000000D03*
X96000000Y-69000000D03*
X68000000Y-64000000D03*
X94000000Y-64000000D03*
X97000000Y-68000000D03*
X99000000Y-68000000D03*
X41000000Y-62500000D03*
X94000000Y-62500000D03*
X68000000Y-62500000D03*
X42000000Y-62500000D03*
X41000000Y-64000000D03*
X67000000Y-64000000D03*
X99000000Y-69000000D03*
X67000000Y-62500000D03*
X96000000Y-68000000D03*
X98000000Y-68000000D03*
X42000000Y-64000000D03*
X93000000Y-24500000D03*
X75400000Y-47250000D03*
X89000000Y-26500000D03*
X88000000Y-26500000D03*
X92000000Y-25500000D03*
X88000000Y-25500000D03*
X92000000Y-23500000D03*
X90000000Y-26500000D03*
X75400000Y-46500000D03*
X89000000Y-23500000D03*
X74500000Y-47250000D03*
X93000000Y-26500000D03*
X90000000Y-25500000D03*
X75400000Y-48000000D03*
X74500000Y-46500000D03*
X92000000Y-24500000D03*
X90000000Y-24500000D03*
X91000000Y-25500000D03*
X89000000Y-25500000D03*
X92000000Y-26500000D03*
X93000000Y-25500000D03*
X91000000Y-26500000D03*
X90000000Y-23500000D03*
X94000000Y-25500000D03*
X88000000Y-24500000D03*
X89000000Y-24500000D03*
X91000000Y-23500000D03*
X88000000Y-23500000D03*
X94000000Y-26500000D03*
X94000000Y-24500000D03*
X94000000Y-23500000D03*
X74500000Y-48000000D03*
X91000000Y-24500000D03*
X93000000Y-23500000D03*
X37000000Y-24500000D03*
X41000000Y-25500000D03*
X39000000Y-25500000D03*
X37000000Y-25500000D03*
X23400000Y-46500000D03*
X39000000Y-23500000D03*
X36000000Y-26500000D03*
X38000000Y-24500000D03*
X42000000Y-25500000D03*
X42000000Y-24500000D03*
X39000000Y-24500000D03*
X38000000Y-25500000D03*
X40000000Y-25500000D03*
X38000000Y-26500000D03*
X42000000Y-26500000D03*
X42000000Y-23500000D03*
X41000000Y-26500000D03*
X36000000Y-25500000D03*
X41000000Y-24500000D03*
X36000000Y-24500000D03*
X40000000Y-23500000D03*
X23400000Y-47250000D03*
X37000000Y-26500000D03*
X39000000Y-26500000D03*
X40000000Y-26500000D03*
X23400000Y-48000000D03*
X22500000Y-48000000D03*
X38000000Y-23500000D03*
X36000000Y-23500000D03*
X22500000Y-47250000D03*
X41000000Y-23500000D03*
X40000000Y-24500000D03*
X37000000Y-23500000D03*
X22500000Y-46500000D03*
X95100000Y-36000000D03*
X95100000Y-35200000D03*
X96000000Y-36000000D03*
X92400000Y-38400000D03*
X94200000Y-36000000D03*
X92400000Y-37600000D03*
X94200000Y-38400000D03*
X94200000Y-36800000D03*
X93300000Y-37600000D03*
X95100000Y-37600000D03*
X94200000Y-37600000D03*
X96000000Y-37600000D03*
X95100000Y-36800000D03*
X96000000Y-36800000D03*
X91500000Y-38400000D03*
X93300000Y-38400000D03*
X96000000Y-35200000D03*
X91500000Y-37600000D03*
X95100000Y-38400000D03*
X91500000Y-36800000D03*
X96000000Y-38400000D03*
X93300000Y-36800000D03*
X92400000Y-36800000D03*
X43100000Y-35900000D03*
X42200000Y-37600000D03*
X44900000Y-38400000D03*
X44000000Y-38400000D03*
X44900000Y-36800000D03*
X43100000Y-37600000D03*
X44900000Y-34300000D03*
X42200000Y-38400000D03*
X41300000Y-37600000D03*
X39500000Y-38400000D03*
X40400000Y-38400000D03*
X39500000Y-37600000D03*
X44000000Y-34300000D03*
X43100000Y-35100000D03*
X44900000Y-35100000D03*
X43100000Y-38400000D03*
X44900000Y-35900000D03*
X44900000Y-37600000D03*
X44000000Y-35100000D03*
X41300000Y-38400000D03*
X39500000Y-36800000D03*
X42200000Y-35900000D03*
X41300000Y-36800000D03*
X44000000Y-36800000D03*
X43100000Y-36800000D03*
X44000000Y-37600000D03*
X40400000Y-36800000D03*
X40400000Y-37600000D03*
X42200000Y-36800000D03*
X44000000Y-35900000D03*
X70900000Y-38500000D03*
X65500000Y-38500000D03*
X70000000Y-36000000D03*
X70000000Y-36900000D03*
X70000000Y-37700000D03*
X68200000Y-38500000D03*
X66400000Y-36900000D03*
X65500000Y-36900000D03*
X70000000Y-35200000D03*
X66400000Y-37700000D03*
X70900000Y-37700000D03*
X66400000Y-38500000D03*
X70900000Y-34400000D03*
X69100000Y-37700000D03*
X68200000Y-36900000D03*
X70000000Y-34400000D03*
X70000000Y-38500000D03*
X70900000Y-36900000D03*
X69100000Y-38500000D03*
X69100000Y-36900000D03*
X65500000Y-37700000D03*
X67300000Y-36900000D03*
X68200000Y-36000000D03*
X70900000Y-36000000D03*
X68200000Y-37700000D03*
X69100000Y-35200000D03*
X67300000Y-38500000D03*
X67300000Y-37700000D03*
X70900000Y-35200000D03*
X69100000Y-36000000D03*
D37*
X68500000Y-41700000D02*
X68000000Y-41200000D01*
X68000000Y-41200000D02*
X68000000Y-40037500D01*
X71037500Y-50000000D02*
X71500000Y-49537500D01*
X71500000Y-49537500D02*
X71500000Y-42800000D01*
X71500000Y-42800000D02*
X70400000Y-41700000D01*
X70400000Y-41700000D02*
X68500000Y-41700000D01*
X44400000Y-41800000D02*
X45500000Y-42900000D01*
X42600000Y-41800000D02*
X44400000Y-41800000D01*
X45500000Y-49537500D02*
X45037500Y-50000000D01*
X42000000Y-41200000D02*
X42600000Y-41800000D01*
X45500000Y-42900000D02*
X45500000Y-49537500D01*
X42000000Y-40037500D02*
X42000000Y-41200000D01*
X97037500Y-50962500D02*
X97037500Y-50000000D01*
X95905000Y-52095000D02*
X97037500Y-50962500D01*
X94475000Y-52095000D02*
X95905000Y-52095000D01*
X71037500Y-50662500D02*
X71037500Y-50000000D01*
X69605000Y-52095000D02*
X71037500Y-50662500D01*
X68475000Y-52095000D02*
X69605000Y-52095000D01*
X43505000Y-52095000D02*
X45037500Y-50562500D01*
X42475000Y-52095000D02*
X43505000Y-52095000D01*
X45037500Y-50562500D02*
X45037500Y-50000000D01*
D38*
X104700000Y-68260000D02*
X104500000Y-68460000D01*
X104700000Y-60500000D02*
X104700000Y-68260000D01*
X108150000Y-60200000D02*
X105000000Y-60200000D01*
X105000000Y-60200000D02*
X104700000Y-60500000D01*
D37*
X97500000Y-66000000D02*
X99000000Y-66000000D01*
X65450000Y-57750000D02*
X66200000Y-57000000D01*
X65400000Y-57750000D02*
X65450000Y-57750000D01*
X91450000Y-57750000D02*
X92200000Y-57000000D01*
X91400000Y-57750000D02*
X91450000Y-57750000D01*
X89000000Y-64400000D02*
X89000000Y-63037500D01*
X95500000Y-62300000D02*
X95500000Y-61000000D01*
X69500000Y-62300000D02*
X69500000Y-61000000D01*
X63000000Y-64400000D02*
X63000000Y-63037500D01*
X43500000Y-62300000D02*
X43500000Y-61000000D01*
X37000000Y-64300000D02*
X37000000Y-63037500D01*
X65800000Y-53365000D02*
X63525000Y-53365000D01*
X25000000Y-35500000D02*
X25000000Y-34000000D01*
X26600000Y-37100000D02*
X25000000Y-35500000D01*
X26600000Y-42600000D02*
X26600000Y-37100000D01*
X28000000Y-44000000D02*
X26600000Y-42600000D01*
X61400000Y-37100000D02*
X63000000Y-35500000D01*
X63000000Y-35500000D02*
X63000000Y-34000000D01*
X61400000Y-42600000D02*
X61400000Y-37100000D01*
X60000000Y-44000000D02*
X61400000Y-42600000D01*
X51000000Y-35500000D02*
X51000000Y-34000000D01*
X52700000Y-37200000D02*
X51000000Y-35500000D01*
X54000000Y-44000000D02*
X52700000Y-42700000D01*
X52700000Y-42700000D02*
X52700000Y-37200000D01*
X87400000Y-37100000D02*
X89000000Y-35500000D01*
X87400000Y-42600000D02*
X87400000Y-37100000D01*
X86000000Y-44000000D02*
X87400000Y-42600000D01*
X89000000Y-35500000D02*
X89000000Y-34000000D01*
X77000000Y-35500000D02*
X77000000Y-34000000D01*
X78600000Y-37100000D02*
X77000000Y-35500000D01*
X78600000Y-42600000D02*
X78600000Y-37100000D01*
X80000000Y-44000000D02*
X78600000Y-42600000D01*
D39*
X65540000Y-34000000D02*
X65540000Y-25540000D01*
X57080000Y-50380000D02*
X57080000Y-35000000D01*
D37*
X65540000Y-25540000D02*
X65000000Y-25000000D01*
D39*
X57080000Y-35000000D02*
X56080000Y-34000000D01*
D37*
X96597500Y-53365000D02*
X97000000Y-52962500D01*
X63525000Y-54635000D02*
X63525000Y-53365000D01*
X70597500Y-53365000D02*
X71000000Y-52962500D01*
X63525000Y-53365000D02*
X63525000Y-52095000D01*
X89525000Y-53365000D02*
X89525000Y-54635000D01*
X37525000Y-55905000D02*
X37525000Y-54635000D01*
X89525000Y-53365000D02*
X94475000Y-53365000D01*
X63525000Y-55905000D02*
X63525000Y-54635000D01*
X42475000Y-53365000D02*
X44597500Y-53365000D01*
X68475000Y-53365000D02*
X70597500Y-53365000D01*
X37525000Y-54635000D02*
X37525000Y-53365000D01*
X94475000Y-53365000D02*
X96597500Y-53365000D01*
X89525000Y-54635000D02*
X89525000Y-55905000D01*
X44597500Y-53365000D02*
X45000000Y-52962500D01*
X37525000Y-53365000D02*
X42475000Y-53365000D01*
X68475000Y-53365000D02*
X65800000Y-53365000D01*
X89525000Y-53365000D02*
X89525000Y-52095000D01*
X37525000Y-53365000D02*
X37525000Y-52095000D01*
X97000000Y-55037500D02*
X97000000Y-55900000D01*
X70597500Y-54635000D02*
X71000000Y-55037500D01*
X37000000Y-60962500D02*
X41462500Y-60962500D01*
X68475000Y-54635000D02*
X70597500Y-54635000D01*
X67365000Y-54635000D02*
X65400000Y-56600000D01*
X88600000Y-60562500D02*
X89000000Y-60962500D01*
X98400000Y-57700000D02*
X98737500Y-58037500D01*
X44597500Y-54635000D02*
X45000000Y-55037500D01*
X77500000Y-55500000D02*
X76000000Y-57000000D01*
X65400000Y-56600000D02*
X61100000Y-56600000D01*
X87100000Y-56600000D02*
X86000000Y-55500000D01*
X41462500Y-60962500D02*
X41500000Y-61000000D01*
X61100000Y-56600000D02*
X60000000Y-55500000D01*
X62600000Y-60562500D02*
X63000000Y-60962500D01*
X36962500Y-61000000D02*
X37000000Y-60962500D01*
X36600000Y-59250000D02*
X36600000Y-60562500D01*
X34000000Y-61000000D02*
X36962500Y-61000000D01*
X67462500Y-60962500D02*
X67500000Y-61000000D01*
X60037500Y-60962500D02*
X60000000Y-61000000D01*
X76000000Y-57000000D02*
X72962500Y-57000000D01*
X68475000Y-54635000D02*
X67365000Y-54635000D01*
X86100000Y-61000000D02*
X86137500Y-60962500D01*
X96597500Y-54635000D02*
X97000000Y-55037500D01*
X89000000Y-60962500D02*
X93462500Y-60962500D01*
X63000000Y-60962500D02*
X60037500Y-60962500D01*
X86000000Y-55500000D02*
X77500000Y-55500000D01*
X86137500Y-60962500D02*
X89000000Y-60962500D01*
X94475000Y-54635000D02*
X96597500Y-54635000D01*
X60000000Y-55500000D02*
X51000000Y-55500000D01*
X88600000Y-59250000D02*
X88600000Y-60562500D01*
X93462500Y-60962500D02*
X93500000Y-61000000D01*
X98737500Y-58037500D02*
X99500000Y-58037500D01*
X72962500Y-57000000D02*
X71000000Y-55037500D01*
X63000000Y-60962500D02*
X67462500Y-60962500D01*
X51000000Y-55500000D02*
X49500000Y-57000000D01*
X46962500Y-57000000D02*
X45000000Y-55037500D01*
X49500000Y-57000000D02*
X46962500Y-57000000D01*
X36600000Y-60562500D02*
X37000000Y-60962500D01*
X86000000Y-61000000D02*
X86100000Y-61000000D01*
X91400000Y-56600000D02*
X87100000Y-56600000D01*
X98400000Y-57300000D02*
X98400000Y-57700000D01*
X62600000Y-59250000D02*
X62600000Y-60562500D01*
X97000000Y-55900000D02*
X98400000Y-57300000D01*
X93365000Y-54635000D02*
X91400000Y-56600000D01*
X42475000Y-54635000D02*
X44597500Y-54635000D01*
X94475000Y-54635000D02*
X93365000Y-54635000D01*
X23000000Y-52440000D02*
X23940000Y-52440000D01*
X23000000Y-55350000D02*
X23000000Y-52440000D01*
X23940000Y-52440000D02*
X26000000Y-50380000D01*
X49000000Y-55350000D02*
X49000000Y-52440000D01*
X49940000Y-52440000D02*
X52000000Y-50380000D01*
X49000000Y-52440000D02*
X49940000Y-52440000D01*
X51650000Y-44000000D02*
X51000000Y-43350000D01*
X54000000Y-44000000D02*
X51650000Y-44000000D01*
X25650000Y-46000000D02*
X25000000Y-46650000D01*
X28000000Y-46000000D02*
X25650000Y-46000000D01*
X28540000Y-50380000D02*
X28540000Y-46540000D01*
X28540000Y-46540000D02*
X28000000Y-46000000D01*
X54540000Y-46540000D02*
X54000000Y-46000000D01*
X54000000Y-46000000D02*
X51650000Y-46000000D01*
X54540000Y-50380000D02*
X54540000Y-46540000D01*
X51650000Y-46000000D02*
X51000000Y-46650000D01*
D39*
X83080000Y-50380000D02*
X83080000Y-35000000D01*
X83080000Y-35000000D02*
X82080000Y-34000000D01*
X31080000Y-35000000D02*
X30080000Y-34000000D01*
X31080000Y-50380000D02*
X31080000Y-35000000D01*
D37*
X75940000Y-52440000D02*
X78000000Y-50380000D01*
X75000000Y-55350000D02*
X75000000Y-52440000D01*
X75000000Y-52440000D02*
X75940000Y-52440000D01*
X99000000Y-64000000D02*
X99000000Y-62025000D01*
X25650000Y-44000000D02*
X25000000Y-43350000D01*
X28000000Y-44000000D02*
X25650000Y-44000000D01*
X33620000Y-46380000D02*
X34000000Y-46000000D01*
X34000000Y-46000000D02*
X36350000Y-46000000D01*
X36350000Y-46000000D02*
X37000000Y-46650000D01*
X33620000Y-50380000D02*
X33620000Y-46380000D01*
X36350000Y-44000000D02*
X37000000Y-43350000D01*
X34000000Y-44000000D02*
X36350000Y-44000000D01*
X62350000Y-44000000D02*
X63000000Y-43350000D01*
X60000000Y-44000000D02*
X62350000Y-44000000D01*
X60000000Y-46000000D02*
X62350000Y-46000000D01*
X62350000Y-46000000D02*
X63000000Y-46650000D01*
X59620000Y-46380000D02*
X60000000Y-46000000D01*
X59620000Y-50380000D02*
X59620000Y-46380000D01*
X80000000Y-46500000D02*
X80540000Y-47040000D01*
X80000000Y-46000000D02*
X80000000Y-46500000D01*
X80540000Y-47040000D02*
X80540000Y-50380000D01*
X77650000Y-46000000D02*
X77000000Y-46650000D01*
X80000000Y-46000000D02*
X77650000Y-46000000D01*
X77650000Y-44000000D02*
X77000000Y-43350000D01*
X80000000Y-44000000D02*
X77650000Y-44000000D01*
X86000000Y-46500000D02*
X85620000Y-46880000D01*
X85620000Y-46880000D02*
X85620000Y-50380000D01*
X86000000Y-46000000D02*
X86000000Y-46500000D01*
X86000000Y-46000000D02*
X88350000Y-46000000D01*
X88350000Y-46000000D02*
X89000000Y-46650000D01*
X86000000Y-44000000D02*
X88350000Y-44000000D01*
X88350000Y-44000000D02*
X89000000Y-43350000D01*
X54540000Y-58000000D02*
X54540000Y-62040000D01*
X61500000Y-69000000D02*
X61500000Y-77000000D01*
X54540000Y-62040000D02*
X61500000Y-69000000D01*
X28540000Y-61540000D02*
X35500000Y-68500000D01*
X28540000Y-58000000D02*
X28540000Y-61540000D01*
X35500000Y-68500000D02*
X35500000Y-77000000D01*
X43500000Y-59000000D02*
X41500000Y-59000000D01*
X41500000Y-59000000D02*
X41250000Y-58750000D01*
X41250000Y-58750000D02*
X39400000Y-58750000D01*
X67250000Y-58750000D02*
X65400000Y-58750000D01*
X69500000Y-59000000D02*
X67500000Y-59000000D01*
X67500000Y-59000000D02*
X67250000Y-58750000D01*
X95500000Y-59000000D02*
X93500000Y-59000000D01*
X93250000Y-58750000D02*
X93500000Y-59000000D01*
X91400000Y-58750000D02*
X93250000Y-58750000D01*
X80540000Y-58000000D02*
X80540000Y-61540000D01*
X87500000Y-68500000D02*
X87500000Y-77000000D01*
X80540000Y-61540000D02*
X87500000Y-68500000D01*
X43905000Y-55905000D02*
X45000000Y-57000000D01*
X45000000Y-65700000D02*
X40580000Y-70120000D01*
X45000000Y-57000000D02*
X45000000Y-65700000D01*
X42475000Y-55905000D02*
X43905000Y-55905000D01*
X39400000Y-58250000D02*
X40130000Y-58250000D01*
X40580000Y-70120000D02*
X40580000Y-77000000D01*
X40130000Y-58250000D02*
X42475000Y-55905000D01*
X66580000Y-70020000D02*
X66580000Y-77000000D01*
X69905000Y-55905000D02*
X71000000Y-57000000D01*
X71000000Y-65600000D02*
X66580000Y-70020000D01*
X68475000Y-55905000D02*
X66130000Y-58250000D01*
X68475000Y-55905000D02*
X69905000Y-55905000D01*
X71000000Y-57000000D02*
X71000000Y-65600000D01*
X66130000Y-58250000D02*
X65400000Y-58250000D01*
X92130000Y-58250000D02*
X91400000Y-58250000D01*
X95905000Y-55905000D02*
X94475000Y-55905000D01*
X92580000Y-68920000D02*
X97250000Y-64250000D01*
X97250000Y-57250000D02*
X95905000Y-55905000D01*
X97250000Y-64250000D02*
X97250000Y-57250000D01*
X94475000Y-55905000D02*
X92130000Y-58250000D01*
X92580000Y-77000000D02*
X92580000Y-68920000D01*
X34600000Y-59700000D02*
X33300000Y-59700000D01*
X31080000Y-60080000D02*
X32000000Y-61000000D01*
X35100000Y-59200000D02*
X34600000Y-59700000D01*
X37400000Y-57200000D02*
X35800000Y-57200000D01*
X32000000Y-62500000D02*
X32000000Y-61000000D01*
X39400000Y-59250000D02*
X38450000Y-59250000D01*
X38100000Y-58900000D02*
X38100000Y-57900000D01*
X31080000Y-58000000D02*
X31080000Y-60080000D01*
X35800000Y-57200000D02*
X35100000Y-57900000D01*
X33300000Y-59700000D02*
X32000000Y-61000000D01*
X38040000Y-77000000D02*
X38040000Y-68540000D01*
X38040000Y-68540000D02*
X32000000Y-62500000D01*
X35100000Y-57900000D02*
X35100000Y-59200000D01*
X38100000Y-57900000D02*
X37400000Y-57200000D01*
X38450000Y-59250000D02*
X38100000Y-58900000D01*
X63400000Y-57200000D02*
X61800000Y-57200000D01*
X58000000Y-62600000D02*
X64040000Y-68640000D01*
X57080000Y-60080000D02*
X58000000Y-61000000D01*
X61800000Y-57200000D02*
X61100000Y-57900000D01*
X64000000Y-57800000D02*
X63400000Y-57200000D01*
X60500000Y-59700000D02*
X59300000Y-59700000D01*
X57080000Y-58000000D02*
X57080000Y-60080000D01*
X61100000Y-59100000D02*
X60500000Y-59700000D01*
X59300000Y-59700000D02*
X58000000Y-61000000D01*
X65400000Y-59250000D02*
X64550000Y-59250000D01*
X58000000Y-61000000D02*
X58000000Y-62600000D01*
X64550000Y-59250000D02*
X64000000Y-58700000D01*
X61100000Y-57900000D02*
X61100000Y-59100000D01*
X64000000Y-58700000D02*
X64000000Y-57800000D01*
X64040000Y-68640000D02*
X64040000Y-77000000D01*
X90040000Y-68440000D02*
X90040000Y-77000000D01*
X87800000Y-57200000D02*
X87100000Y-57900000D01*
X85200000Y-59700000D02*
X84000000Y-60900000D01*
X87100000Y-57900000D02*
X87100000Y-59100000D01*
X84000000Y-61000000D02*
X84000000Y-62400000D01*
X84000000Y-62400000D02*
X90040000Y-68440000D01*
X90000000Y-57800000D02*
X89400000Y-57200000D01*
X86500000Y-59700000D02*
X85200000Y-59700000D01*
X90550000Y-59250000D02*
X90000000Y-58700000D01*
X90000000Y-58700000D02*
X90000000Y-57800000D01*
X89400000Y-57200000D02*
X87800000Y-57200000D01*
X91400000Y-59250000D02*
X90550000Y-59250000D01*
X84000000Y-60900000D02*
X84000000Y-61000000D01*
X83080000Y-60080000D02*
X84000000Y-61000000D01*
X83080000Y-58000000D02*
X83080000Y-60080000D01*
X87100000Y-59100000D02*
X86500000Y-59700000D01*
X106600000Y-62500000D02*
X108150000Y-62500000D01*
X37000000Y-35500000D02*
X37000000Y-34000000D01*
X35400000Y-37100000D02*
X37000000Y-35500000D01*
X35400000Y-42600000D02*
X35400000Y-37100000D01*
X34000000Y-44000000D02*
X35400000Y-42600000D01*
X94000000Y-41200000D02*
X94000000Y-40037500D01*
X97037500Y-50000000D02*
X97500000Y-49537500D01*
X94500000Y-41700000D02*
X94000000Y-41200000D01*
X97500000Y-49537500D02*
X97500000Y-43100000D01*
X97500000Y-43100000D02*
X96100000Y-41700000D01*
X96100000Y-41700000D02*
X94500000Y-41700000D01*
G04 #@! TA.AperFunction,Conductor*
G36*
X50500000Y-63000000D02*
G01*
X52876000Y-63000000D01*
X52943039Y-63019685D01*
X52988794Y-63072489D01*
X53000000Y-63124000D01*
X53000000Y-66376000D01*
X52980315Y-66443039D01*
X52927511Y-66488794D01*
X52876000Y-66500000D01*
X47124000Y-66500000D01*
X47056961Y-66480315D01*
X47011206Y-66427511D01*
X47000000Y-66376000D01*
X47000000Y-62000000D01*
X50500000Y-62000000D01*
X50500000Y-63000000D01*
G37*
G04 #@! TD.AperFunction*
G04 #@! TA.AperFunction,Conductor*
G36*
X51443039Y-20270185D02*
G01*
X51488794Y-20322989D01*
X51500000Y-20374500D01*
X51500000Y-30876000D01*
X51480315Y-30943039D01*
X51427511Y-30988794D01*
X51376000Y-31000000D01*
X41812500Y-31000000D01*
X40537051Y-32457655D01*
X40478092Y-32495145D01*
X40443732Y-32500000D01*
X38011667Y-32500000D01*
X38003688Y-32499572D01*
X38003683Y-32499678D01*
X38000379Y-32499500D01*
X38000373Y-32499500D01*
X38000366Y-32499500D01*
X35999629Y-32499500D01*
X35996304Y-32499679D01*
X35996298Y-32499573D01*
X35988337Y-32500000D01*
X34500000Y-32500000D01*
X34500000Y-34876000D01*
X34480315Y-34943039D01*
X34427511Y-34988794D01*
X34376000Y-35000000D01*
X29124000Y-35000000D01*
X29056961Y-34980315D01*
X29011206Y-34927511D01*
X29000000Y-34876000D01*
X29000000Y-20374500D01*
X29019685Y-20307461D01*
X29072489Y-20261706D01*
X29124000Y-20250500D01*
X51376000Y-20250500D01*
X51443039Y-20270185D01*
G37*
G04 #@! TD.AperFunction*
G04 #@! TA.AperFunction,Conductor*
G36*
X76500000Y-63000000D02*
G01*
X78876000Y-63000000D01*
X78943039Y-63019685D01*
X78988794Y-63072489D01*
X79000000Y-63124000D01*
X79000000Y-66376000D01*
X78980315Y-66443039D01*
X78927511Y-66488794D01*
X78876000Y-66500000D01*
X73124000Y-66500000D01*
X73056961Y-66480315D01*
X73011206Y-66427511D01*
X73000000Y-66376000D01*
X73000000Y-62000000D01*
X76500000Y-62000000D01*
X76500000Y-63000000D01*
G37*
G04 #@! TD.AperFunction*
G04 #@! TA.AperFunction,Conductor*
G36*
X77443039Y-20270185D02*
G01*
X77488794Y-20322989D01*
X77500000Y-20374500D01*
X77500000Y-30376000D01*
X77480315Y-30443039D01*
X77427511Y-30488794D01*
X77376000Y-30500000D01*
X75499999Y-30500000D01*
X74036319Y-31963681D01*
X73974996Y-31997166D01*
X73948638Y-32000000D01*
X60500000Y-32000000D01*
X60500000Y-34876000D01*
X60480315Y-34943039D01*
X60427511Y-34988794D01*
X60376000Y-35000000D01*
X55124000Y-35000000D01*
X55056961Y-34980315D01*
X55011206Y-34927511D01*
X55000000Y-34876000D01*
X55000000Y-32000000D01*
X52624000Y-32000000D01*
X52556961Y-31980315D01*
X52511206Y-31927511D01*
X52500000Y-31876000D01*
X52500000Y-20374500D01*
X52519685Y-20307461D01*
X52572489Y-20261706D01*
X52624000Y-20250500D01*
X77376000Y-20250500D01*
X77443039Y-20270185D01*
G37*
G04 #@! TD.AperFunction*
G04 #@! TA.AperFunction,Conductor*
G36*
X49443039Y-46019685D02*
G01*
X49488794Y-46072489D01*
X49500000Y-46124000D01*
X49500000Y-48500000D01*
X49876000Y-48500000D01*
X49943039Y-48519685D01*
X49988794Y-48572489D01*
X50000000Y-48624000D01*
X50000000Y-49876000D01*
X49980315Y-49943039D01*
X49927511Y-49988794D01*
X49876000Y-50000000D01*
X47624000Y-50000000D01*
X47556961Y-49980315D01*
X47511206Y-49927511D01*
X47500000Y-49876000D01*
X47500000Y-46124000D01*
X47519685Y-46056961D01*
X47572489Y-46011206D01*
X47624000Y-46000000D01*
X49376000Y-46000000D01*
X49443039Y-46019685D01*
G37*
G04 #@! TD.AperFunction*
G04 #@! TA.AperFunction,Conductor*
G36*
X23443039Y-46019685D02*
G01*
X23488794Y-46072489D01*
X23500000Y-46124000D01*
X23500000Y-48500000D01*
X23876000Y-48500000D01*
X23943039Y-48519685D01*
X23988794Y-48572489D01*
X24000000Y-48624000D01*
X24000000Y-49876000D01*
X23980315Y-49943039D01*
X23927511Y-49988794D01*
X23876000Y-50000000D01*
X21624000Y-50000000D01*
X21556961Y-49980315D01*
X21511206Y-49927511D01*
X21500000Y-49876000D01*
X21500000Y-46124000D01*
X21519685Y-46056961D01*
X21572489Y-46011206D01*
X21624000Y-46000000D01*
X23376000Y-46000000D01*
X23443039Y-46019685D01*
G37*
G04 #@! TD.AperFunction*
G04 #@! TA.AperFunction,Conductor*
G36*
X109692539Y-29019685D02*
G01*
X109738294Y-29072489D01*
X109749500Y-29124000D01*
X109749500Y-42376000D01*
X109729815Y-42443039D01*
X109677011Y-42488794D01*
X109625500Y-42500000D01*
X98124000Y-42500000D01*
X98056961Y-42480315D01*
X98011206Y-42427511D01*
X98000000Y-42376000D01*
X98000000Y-29124000D01*
X98019685Y-29056961D01*
X98072489Y-29011206D01*
X98124000Y-29000000D01*
X109625500Y-29000000D01*
X109692539Y-29019685D01*
G37*
G04 #@! TD.AperFunction*
G04 #@! TA.AperFunction,Conductor*
G36*
X52443039Y-56519685D02*
G01*
X52488794Y-56572489D01*
X52500000Y-56624000D01*
X52500000Y-59376000D01*
X52480315Y-59443039D01*
X52427511Y-59488794D01*
X52376000Y-59500000D01*
X50500000Y-59500000D01*
X50500000Y-62000000D01*
X47000000Y-62000000D01*
X47000000Y-57724500D01*
X47019685Y-57657461D01*
X47072489Y-57611706D01*
X47124000Y-57600500D01*
X49413331Y-57600500D01*
X49413347Y-57600501D01*
X49420943Y-57600501D01*
X49579054Y-57600501D01*
X49579057Y-57600501D01*
X49731785Y-57559577D01*
X49781904Y-57530639D01*
X49806206Y-57516608D01*
X49806270Y-57516593D01*
X49868199Y-57500000D01*
X49999999Y-57500000D01*
X50000000Y-57500000D01*
X50141770Y-57216458D01*
X50164988Y-57184245D01*
X50700624Y-56648609D01*
X50812916Y-56536319D01*
X50874239Y-56502834D01*
X50900597Y-56500000D01*
X52376000Y-56500000D01*
X52443039Y-56519685D01*
G37*
G04 #@! TD.AperFunction*
G04 #@! TA.AperFunction,Conductor*
G36*
X75443039Y-46019685D02*
G01*
X75488794Y-46072489D01*
X75500000Y-46124000D01*
X75500000Y-48500000D01*
X75876000Y-48500000D01*
X75943039Y-48519685D01*
X75988794Y-48572489D01*
X76000000Y-48624000D01*
X76000000Y-49876000D01*
X75980315Y-49943039D01*
X75927511Y-49988794D01*
X75876000Y-50000000D01*
X73624000Y-50000000D01*
X73556961Y-49980315D01*
X73511206Y-49927511D01*
X73500000Y-49876000D01*
X73500000Y-46124000D01*
X73519685Y-46056961D01*
X73572489Y-46011206D01*
X73624000Y-46000000D01*
X75376000Y-46000000D01*
X75443039Y-46019685D01*
G37*
G04 #@! TD.AperFunction*
G04 #@! TA.AperFunction,Conductor*
G36*
X102943039Y-57519685D02*
G01*
X102988794Y-57572489D01*
X103000000Y-57624000D01*
X103000000Y-62376000D01*
X102980315Y-62443039D01*
X102927511Y-62488794D01*
X102876000Y-62500000D01*
X100500000Y-62500000D01*
X100500000Y-60500000D01*
X98124000Y-60500000D01*
X98056961Y-60480315D01*
X98011206Y-60427511D01*
X98000000Y-60376000D01*
X98000000Y-57624000D01*
X98019685Y-57556961D01*
X98072489Y-57511206D01*
X98124000Y-57500000D01*
X102876000Y-57500000D01*
X102943039Y-57519685D01*
G37*
G04 #@! TD.AperFunction*
G04 #@! TA.AperFunction,Conductor*
G36*
X68148488Y-60519685D02*
G01*
X68194243Y-60572489D01*
X68205449Y-60624000D01*
X68205449Y-64376000D01*
X68185764Y-64443039D01*
X68132960Y-64488794D01*
X68081449Y-64500000D01*
X66624000Y-64500000D01*
X66556961Y-64480315D01*
X66511206Y-64427511D01*
X66500000Y-64376000D01*
X66500000Y-60624000D01*
X66519685Y-60556961D01*
X66572489Y-60511206D01*
X66624000Y-60500000D01*
X68081449Y-60500000D01*
X68148488Y-60519685D01*
G37*
G04 #@! TD.AperFunction*
G04 #@! TA.AperFunction,Conductor*
G36*
X42148488Y-60519685D02*
G01*
X42194243Y-60572489D01*
X42205449Y-60624000D01*
X42205449Y-64376000D01*
X42185764Y-64443039D01*
X42132960Y-64488794D01*
X42081449Y-64500000D01*
X40624000Y-64500000D01*
X40556961Y-64480315D01*
X40511206Y-64427511D01*
X40500000Y-64376000D01*
X40500000Y-60624000D01*
X40519685Y-60556961D01*
X40572489Y-60511206D01*
X40624000Y-60500000D01*
X42081449Y-60500000D01*
X42148488Y-60519685D01*
G37*
G04 #@! TD.AperFunction*
G04 #@! TA.AperFunction,Conductor*
G36*
X99943039Y-20270185D02*
G01*
X99988794Y-20322989D01*
X100000000Y-20374500D01*
X100000000Y-27876000D01*
X99980315Y-27943039D01*
X99927511Y-27988794D01*
X99876000Y-28000000D01*
X97000000Y-28000000D01*
X97000000Y-32376000D01*
X96980315Y-32443039D01*
X96927511Y-32488794D01*
X96876000Y-32500000D01*
X94205583Y-32500000D01*
X94195860Y-32499618D01*
X94194360Y-32499500D01*
X94194354Y-32499500D01*
X93965646Y-32499500D01*
X93965640Y-32499500D01*
X93964140Y-32499618D01*
X93954417Y-32500000D01*
X90011667Y-32500000D01*
X90003688Y-32499572D01*
X90003683Y-32499678D01*
X90000379Y-32499500D01*
X90000373Y-32499500D01*
X90000366Y-32499500D01*
X87999629Y-32499500D01*
X87996304Y-32499679D01*
X87996298Y-32499573D01*
X87988337Y-32500000D01*
X86500000Y-32500000D01*
X86500000Y-34876000D01*
X86480315Y-34943039D01*
X86427511Y-34988794D01*
X86376000Y-35000000D01*
X81124000Y-35000000D01*
X81056961Y-34980315D01*
X81011206Y-34927511D01*
X81000000Y-34876000D01*
X81000000Y-32500000D01*
X79665583Y-32500000D01*
X79655860Y-32499618D01*
X79654360Y-32499500D01*
X79654354Y-32499500D01*
X79425646Y-32499500D01*
X79425640Y-32499500D01*
X79424140Y-32499618D01*
X79414417Y-32500000D01*
X78624000Y-32500000D01*
X78556961Y-32480315D01*
X78511206Y-32427511D01*
X78500000Y-32376000D01*
X78500000Y-20374500D01*
X78519685Y-20307461D01*
X78572489Y-20261706D01*
X78624000Y-20250500D01*
X99876000Y-20250500D01*
X99943039Y-20270185D01*
G37*
G04 #@! TD.AperFunction*
G04 #@! TA.AperFunction,Conductor*
G36*
X109692539Y-57519685D02*
G01*
X109738294Y-57572489D01*
X109749500Y-57624000D01*
X109749500Y-60876000D01*
X109729815Y-60943039D01*
X109677011Y-60988794D01*
X109625500Y-61000000D01*
X104124000Y-61000000D01*
X104056961Y-60980315D01*
X104011206Y-60927511D01*
X104000000Y-60876000D01*
X104000000Y-57624000D01*
X104019685Y-57556961D01*
X104072489Y-57511206D01*
X104124000Y-57500000D01*
X109625500Y-57500000D01*
X109692539Y-57519685D01*
G37*
G04 #@! TD.AperFunction*
G04 #@! TA.AperFunction,Conductor*
G36*
X109749500Y-56500000D02*
G01*
X99000000Y-56500000D01*
X99000000Y-53500000D01*
X96300000Y-53500000D01*
X96300000Y-52549236D01*
X96385520Y-52463716D01*
X96385520Y-52463714D01*
X96395728Y-52453507D01*
X96395730Y-52453504D01*
X97396006Y-51453228D01*
X97396011Y-51453224D01*
X97406214Y-51443020D01*
X97406216Y-51443020D01*
X97518020Y-51331216D01*
X97536042Y-51300000D01*
X98600000Y-51300000D01*
X98600000Y-43500000D01*
X109749500Y-43500000D01*
X109749500Y-56500000D01*
G37*
G04 #@! TD.AperFunction*
G04 #@! TA.AperFunction,Conductor*
G36*
X102400000Y-69376000D02*
G01*
X102380315Y-69443039D01*
X102327511Y-69488794D01*
X102276000Y-69500000D01*
X95524000Y-69500000D01*
X95456961Y-69480315D01*
X95411206Y-69427511D01*
X95400000Y-69376000D01*
X95400000Y-67424000D01*
X95419685Y-67356961D01*
X95472489Y-67311206D01*
X95524000Y-67300000D01*
X100500000Y-67300000D01*
X100500000Y-62500000D01*
X102400000Y-62500000D01*
X102400000Y-69376000D01*
G37*
G04 #@! TD.AperFunction*
G04 #@! TA.AperFunction,Conductor*
G36*
X26443039Y-56519685D02*
G01*
X26488794Y-56572489D01*
X26500000Y-56624000D01*
X26500000Y-59376000D01*
X26480315Y-59443039D01*
X26427511Y-59488794D01*
X26376000Y-59500000D01*
X24500000Y-59500000D01*
X24500000Y-62000000D01*
X21000000Y-62000000D01*
X21000000Y-57624000D01*
X21019685Y-57556961D01*
X21072489Y-57511206D01*
X21124000Y-57500000D01*
X23999999Y-57500000D01*
X24000000Y-57500000D01*
X24465727Y-56568546D01*
X24513314Y-56517387D01*
X24576636Y-56500000D01*
X26376000Y-56500000D01*
X26443039Y-56519685D01*
G37*
G04 #@! TD.AperFunction*
G04 #@! TA.AperFunction,Conductor*
G36*
X78443039Y-56519685D02*
G01*
X78488794Y-56572489D01*
X78500000Y-56624000D01*
X78500000Y-59376000D01*
X78480315Y-59443039D01*
X78427511Y-59488794D01*
X78376000Y-59500000D01*
X76500000Y-59500000D01*
X76500000Y-62000000D01*
X73000000Y-62000000D01*
X73000000Y-57724500D01*
X73019685Y-57657461D01*
X73072489Y-57611706D01*
X73124000Y-57600500D01*
X75913331Y-57600500D01*
X75913347Y-57600501D01*
X75920943Y-57600501D01*
X76079054Y-57600501D01*
X76079057Y-57600501D01*
X76231785Y-57559577D01*
X76281904Y-57530639D01*
X76368716Y-57480520D01*
X76480520Y-57368716D01*
X76480520Y-57368714D01*
X76490728Y-57358507D01*
X76490729Y-57358504D01*
X77060877Y-56788356D01*
X77312916Y-56536319D01*
X77374239Y-56502834D01*
X77400597Y-56500000D01*
X78376000Y-56500000D01*
X78443039Y-56519685D01*
G37*
G04 #@! TD.AperFunction*
G04 #@! TA.AperFunction,Conductor*
G36*
X46243039Y-33019685D02*
G01*
X46288794Y-33072489D01*
X46300000Y-33124000D01*
X46300000Y-40626000D01*
X46280315Y-40693039D01*
X46227511Y-40738794D01*
X46176000Y-40750000D01*
X38624000Y-40750000D01*
X38556961Y-40730315D01*
X38511206Y-40677511D01*
X38500000Y-40626000D01*
X38500000Y-36124000D01*
X38519685Y-36056961D01*
X38572489Y-36011206D01*
X38624000Y-36000000D01*
X41000000Y-36000000D01*
X41000000Y-33124000D01*
X41019685Y-33056961D01*
X41072489Y-33011206D01*
X41124000Y-33000000D01*
X46176000Y-33000000D01*
X46243039Y-33019685D01*
G37*
G04 #@! TD.AperFunction*
G04 #@! TA.AperFunction,Conductor*
G36*
X71843039Y-33019685D02*
G01*
X71888794Y-33072489D01*
X71900000Y-33124000D01*
X71900000Y-40626000D01*
X71880315Y-40693039D01*
X71827511Y-40738794D01*
X71776000Y-40750000D01*
X64624000Y-40750000D01*
X64556961Y-40730315D01*
X64511206Y-40677511D01*
X64500000Y-40626000D01*
X64500000Y-36124000D01*
X64519685Y-36056961D01*
X64572489Y-36011206D01*
X64624000Y-36000000D01*
X67000000Y-36000000D01*
X67000000Y-34380843D01*
X67002916Y-34356200D01*
X67002791Y-34356181D01*
X67003298Y-34352977D01*
X67003427Y-34351891D01*
X67003548Y-34351381D01*
X67003553Y-34351368D01*
X67016466Y-34269837D01*
X67040500Y-34118097D01*
X67040500Y-33124000D01*
X67060185Y-33056961D01*
X67112989Y-33011206D01*
X67164500Y-33000000D01*
X71776000Y-33000000D01*
X71843039Y-33019685D01*
G37*
G04 #@! TD.AperFunction*
G04 #@! TA.AperFunction,Conductor*
G36*
X94148488Y-60519685D02*
G01*
X94194243Y-60572489D01*
X94205449Y-60624000D01*
X94205449Y-64376000D01*
X94185764Y-64443039D01*
X94132960Y-64488794D01*
X94081449Y-64500000D01*
X92624000Y-64500000D01*
X92556961Y-64480315D01*
X92511206Y-64427511D01*
X92500000Y-64376000D01*
X92500000Y-60624000D01*
X92519685Y-60556961D01*
X92572489Y-60511206D01*
X92624000Y-60500000D01*
X94081449Y-60500000D01*
X94148488Y-60519685D01*
G37*
G04 #@! TD.AperFunction*
G04 #@! TA.AperFunction,Conductor*
G36*
X24500000Y-63000000D02*
G01*
X26876000Y-63000000D01*
X26943039Y-63019685D01*
X26988794Y-63072489D01*
X27000000Y-63124000D01*
X27000000Y-66376000D01*
X26980315Y-66443039D01*
X26927511Y-66488794D01*
X26876000Y-66500000D01*
X21124000Y-66500000D01*
X21056961Y-66480315D01*
X21011206Y-66427511D01*
X21000000Y-66376000D01*
X21000000Y-62000000D01*
X24500000Y-62000000D01*
X24500000Y-63000000D01*
G37*
G04 #@! TD.AperFunction*
G04 #@! TA.AperFunction,Conductor*
G36*
X97143039Y-33019685D02*
G01*
X97188794Y-33072489D01*
X97200000Y-33124000D01*
X97200000Y-40626000D01*
X97180315Y-40693039D01*
X97127511Y-40738794D01*
X97076000Y-40750000D01*
X90624000Y-40750000D01*
X90556961Y-40730315D01*
X90511206Y-40677511D01*
X90500000Y-40626000D01*
X90500000Y-36124000D01*
X90519685Y-36056961D01*
X90572489Y-36011206D01*
X90624000Y-36000000D01*
X93000000Y-36000000D01*
X93000000Y-33124000D01*
X93019685Y-33056961D01*
X93072489Y-33011206D01*
X93124000Y-33000000D01*
X97076000Y-33000000D01*
X97143039Y-33019685D01*
G37*
G04 #@! TD.AperFunction*
G04 #@! TA.AperFunction,Conductor*
G36*
X71735482Y-56631861D02*
G01*
X71768982Y-56655717D01*
X72481978Y-57368713D01*
X72481980Y-57368716D01*
X72503896Y-57390632D01*
X72521415Y-57422717D01*
X72537378Y-57451950D01*
X72537377Y-57451951D01*
X72537379Y-57451954D01*
X72535189Y-57513246D01*
X72514976Y-57582080D01*
X72502549Y-57668514D01*
X72494500Y-57724500D01*
X72494500Y-62000000D01*
X72494500Y-66376000D01*
X72494501Y-66376009D01*
X72506052Y-66483450D01*
X72506054Y-66483462D01*
X72517260Y-66534972D01*
X72551383Y-66637497D01*
X72551386Y-66637503D01*
X72629171Y-66758537D01*
X72629179Y-66758548D01*
X72674923Y-66811340D01*
X72674926Y-66811343D01*
X72674930Y-66811347D01*
X72783664Y-66905567D01*
X72783667Y-66905568D01*
X72783668Y-66905569D01*
X72877925Y-66948616D01*
X72914541Y-66965338D01*
X72981580Y-66985023D01*
X72981584Y-66985024D01*
X73124000Y-67005500D01*
X73124003Y-67005500D01*
X78875990Y-67005500D01*
X78876000Y-67005500D01*
X78983456Y-66993947D01*
X79034967Y-66982741D01*
X79069197Y-66971347D01*
X79137497Y-66948616D01*
X79137501Y-66948613D01*
X79137504Y-66948613D01*
X79258543Y-66870825D01*
X79311347Y-66825070D01*
X79405567Y-66716336D01*
X79465338Y-66585459D01*
X79485023Y-66518420D01*
X79485024Y-66518416D01*
X79505500Y-66376000D01*
X79505500Y-63124000D01*
X79493947Y-63016544D01*
X79482741Y-62965033D01*
X79475312Y-62942712D01*
X79448616Y-62862502D01*
X79448613Y-62862496D01*
X79388344Y-62768717D01*
X79370825Y-62741457D01*
X79362444Y-62731785D01*
X79325076Y-62688659D01*
X79325072Y-62688656D01*
X79325070Y-62688653D01*
X79216336Y-62594433D01*
X79216333Y-62594431D01*
X79216331Y-62594430D01*
X79085465Y-62534664D01*
X79085460Y-62534662D01*
X79085459Y-62534662D01*
X79018420Y-62514977D01*
X79018422Y-62514977D01*
X79018417Y-62514976D01*
X78970944Y-62508150D01*
X78876000Y-62494500D01*
X78875998Y-62494500D01*
X77129500Y-62494500D01*
X77062461Y-62474815D01*
X77016706Y-62422011D01*
X77005500Y-62370500D01*
X77005500Y-60129500D01*
X77025185Y-60062461D01*
X77077989Y-60016706D01*
X77129500Y-60005500D01*
X78375990Y-60005500D01*
X78376000Y-60005500D01*
X78483456Y-59993947D01*
X78534967Y-59982741D01*
X78569197Y-59971347D01*
X78637497Y-59948616D01*
X78637501Y-59948613D01*
X78637504Y-59948613D01*
X78758543Y-59870825D01*
X78811347Y-59825070D01*
X78905567Y-59716336D01*
X78950151Y-59618713D01*
X78955963Y-59605987D01*
X79001718Y-59553183D01*
X79003560Y-59552022D01*
X79018656Y-59542712D01*
X79142712Y-59418656D01*
X79234814Y-59269334D01*
X79261955Y-59187427D01*
X79301726Y-59129984D01*
X79366242Y-59103161D01*
X79435018Y-59115476D01*
X79479977Y-59153547D01*
X79548034Y-59247219D01*
X79692781Y-59391966D01*
X79858390Y-59512287D01*
X79871793Y-59519116D01*
X79922589Y-59567088D01*
X79939500Y-59629601D01*
X79939500Y-61453330D01*
X79939499Y-61453348D01*
X79939499Y-61619054D01*
X79939498Y-61619054D01*
X79941909Y-61628051D01*
X79980423Y-61771785D01*
X79980424Y-61771786D01*
X79996423Y-61799499D01*
X79996424Y-61799500D01*
X80059475Y-61908709D01*
X80059481Y-61908717D01*
X80178349Y-62027585D01*
X80178355Y-62027590D01*
X86863181Y-68712416D01*
X86896666Y-68773739D01*
X86899500Y-68800097D01*
X86899500Y-75375500D01*
X86879815Y-75442539D01*
X86827011Y-75488294D01*
X86775502Y-75499500D01*
X86699999Y-75499500D01*
X86699980Y-75499501D01*
X86597203Y-75510000D01*
X86597200Y-75510001D01*
X86430668Y-75565185D01*
X86430663Y-75565187D01*
X86281342Y-75657289D01*
X86157289Y-75781342D01*
X86065187Y-75930663D01*
X86065186Y-75930666D01*
X86010001Y-76097203D01*
X86010001Y-76097204D01*
X86010000Y-76097204D01*
X85999500Y-76199983D01*
X85999500Y-77800001D01*
X85999501Y-77800018D01*
X86010000Y-77902796D01*
X86010001Y-77902799D01*
X86065185Y-78069331D01*
X86065187Y-78069336D01*
X86091746Y-78112395D01*
X86157288Y-78218656D01*
X86281344Y-78342712D01*
X86430666Y-78434814D01*
X86597203Y-78489999D01*
X86699991Y-78500500D01*
X88300008Y-78500499D01*
X88402797Y-78489999D01*
X88569334Y-78434814D01*
X88718656Y-78342712D01*
X88842712Y-78218656D01*
X88872512Y-78170341D01*
X88924458Y-78123618D01*
X88993420Y-78112395D01*
X89057503Y-78140238D01*
X89058758Y-78141385D01*
X89058786Y-78141353D01*
X89062481Y-78144508D01*
X89062490Y-78144517D01*
X89253567Y-78283343D01*
X89352991Y-78334002D01*
X89464003Y-78390566D01*
X89464005Y-78390566D01*
X89464008Y-78390568D01*
X89519314Y-78408538D01*
X89688631Y-78463553D01*
X89921903Y-78500500D01*
X89921908Y-78500500D01*
X90158097Y-78500500D01*
X90391368Y-78463553D01*
X90615992Y-78390568D01*
X90826433Y-78283343D01*
X91017510Y-78144517D01*
X91184517Y-77977510D01*
X91209682Y-77942872D01*
X91265011Y-77900207D01*
X91334625Y-77894228D01*
X91396420Y-77926833D01*
X91410315Y-77942870D01*
X91435483Y-77977510D01*
X91602490Y-78144517D01*
X91793567Y-78283343D01*
X91892991Y-78334002D01*
X92004003Y-78390566D01*
X92004005Y-78390566D01*
X92004008Y-78390568D01*
X92059314Y-78408538D01*
X92228631Y-78463553D01*
X92461903Y-78500500D01*
X92461908Y-78500500D01*
X92698097Y-78500500D01*
X92931368Y-78463553D01*
X93155992Y-78390568D01*
X93366433Y-78283343D01*
X93557510Y-78144517D01*
X93724517Y-77977510D01*
X93779686Y-77901577D01*
X103749500Y-77901577D01*
X103749500Y-78098422D01*
X103780290Y-78292826D01*
X103841117Y-78480029D01*
X103851548Y-78500500D01*
X103930476Y-78655405D01*
X104046172Y-78814646D01*
X104185354Y-78953828D01*
X104344595Y-79069524D01*
X104427455Y-79111743D01*
X104519970Y-79158882D01*
X104519972Y-79158882D01*
X104519975Y-79158884D01*
X104620317Y-79191487D01*
X104707173Y-79219709D01*
X104901578Y-79250500D01*
X104901583Y-79250500D01*
X105098422Y-79250500D01*
X105292826Y-79219709D01*
X105480025Y-79158884D01*
X105655405Y-79069524D01*
X105814646Y-78953828D01*
X105953828Y-78814646D01*
X106069524Y-78655405D01*
X106158884Y-78480025D01*
X106219709Y-78292826D01*
X106231456Y-78218657D01*
X106250500Y-78098422D01*
X106250500Y-77901577D01*
X106219709Y-77707173D01*
X106158882Y-77519970D01*
X106069523Y-77344594D01*
X105953828Y-77185354D01*
X105814646Y-77046172D01*
X105655405Y-76930476D01*
X105480029Y-76841117D01*
X105292826Y-76780290D01*
X105098422Y-76749500D01*
X105098417Y-76749500D01*
X104901583Y-76749500D01*
X104901578Y-76749500D01*
X104707173Y-76780290D01*
X104519970Y-76841117D01*
X104344594Y-76930476D01*
X104253741Y-76996485D01*
X104185354Y-77046172D01*
X104185352Y-77046174D01*
X104185351Y-77046174D01*
X104046174Y-77185351D01*
X104046174Y-77185352D01*
X104046172Y-77185354D01*
X103996485Y-77253741D01*
X103930476Y-77344594D01*
X103841117Y-77519970D01*
X103780290Y-77707173D01*
X103749500Y-77901577D01*
X93779686Y-77901577D01*
X93863343Y-77786433D01*
X93970568Y-77575992D01*
X94043553Y-77351368D01*
X94069847Y-77185354D01*
X94080500Y-77118097D01*
X94080500Y-76881902D01*
X94043553Y-76648631D01*
X93970566Y-76424003D01*
X93863342Y-76213566D01*
X93853479Y-76199991D01*
X93724517Y-76022490D01*
X93557510Y-75855483D01*
X93455464Y-75781342D01*
X93366431Y-75716655D01*
X93248204Y-75656415D01*
X93197409Y-75608441D01*
X93180500Y-75545931D01*
X93180500Y-69220097D01*
X93200185Y-69153058D01*
X93216819Y-69132416D01*
X94682819Y-67666416D01*
X94744142Y-67632931D01*
X94813834Y-67637915D01*
X94869767Y-67679787D01*
X94894184Y-67745251D01*
X94894500Y-67754097D01*
X94894500Y-69376000D01*
X94894501Y-69376009D01*
X94906052Y-69483450D01*
X94906054Y-69483462D01*
X94917260Y-69534972D01*
X94951383Y-69637497D01*
X94951386Y-69637503D01*
X95029171Y-69758537D01*
X95029179Y-69758548D01*
X95074923Y-69811340D01*
X95074926Y-69811343D01*
X95074930Y-69811347D01*
X95183664Y-69905567D01*
X95183667Y-69905568D01*
X95183668Y-69905569D01*
X95303947Y-69960500D01*
X95314541Y-69965338D01*
X95381580Y-69985023D01*
X95381584Y-69985024D01*
X95524000Y-70005500D01*
X95524003Y-70005500D01*
X102275990Y-70005500D01*
X102276000Y-70005500D01*
X102383456Y-69993947D01*
X102434967Y-69982741D01*
X102469197Y-69971347D01*
X102537497Y-69948616D01*
X102537501Y-69948613D01*
X102537504Y-69948613D01*
X102658543Y-69870825D01*
X102711347Y-69825070D01*
X102805567Y-69716336D01*
X102865338Y-69585459D01*
X102885023Y-69518420D01*
X102885024Y-69518416D01*
X102905500Y-69376000D01*
X102905500Y-69152250D01*
X102925185Y-69085211D01*
X102977989Y-69039456D01*
X103047147Y-69029512D01*
X103110703Y-69058537D01*
X103139984Y-69095953D01*
X103216657Y-69246433D01*
X103355483Y-69437510D01*
X103522490Y-69604517D01*
X103713567Y-69743343D01*
X103743399Y-69758543D01*
X103924003Y-69850566D01*
X103924005Y-69850566D01*
X103924008Y-69850568D01*
X103986362Y-69870828D01*
X104148631Y-69923553D01*
X104381903Y-69960500D01*
X104381908Y-69960500D01*
X104618097Y-69960500D01*
X104851368Y-69923553D01*
X105075992Y-69850568D01*
X105286433Y-69743343D01*
X105477510Y-69604517D01*
X105644517Y-69437510D01*
X105783343Y-69246433D01*
X105890568Y-69035992D01*
X105963553Y-68811368D01*
X105974841Y-68740097D01*
X106000500Y-68578097D01*
X106000500Y-68341902D01*
X105963553Y-68108631D01*
X105956569Y-68087137D01*
X105950500Y-68048818D01*
X105950500Y-63260759D01*
X105970185Y-63193720D01*
X106022989Y-63147965D01*
X106092147Y-63138021D01*
X106143391Y-63157657D01*
X106220821Y-63209394D01*
X106220823Y-63209395D01*
X106220827Y-63209397D01*
X106344828Y-63260759D01*
X106366503Y-63269737D01*
X106521153Y-63300499D01*
X106521156Y-63300500D01*
X106684327Y-63300500D01*
X106751366Y-63320185D01*
X106780974Y-63346813D01*
X106902277Y-63497721D01*
X106902278Y-63497722D01*
X107050704Y-63617030D01*
X107050707Y-63617032D01*
X107221302Y-63701639D01*
X107221303Y-63701639D01*
X107221307Y-63701641D01*
X107406111Y-63747600D01*
X107448877Y-63750500D01*
X108851122Y-63750499D01*
X108893889Y-63747600D01*
X109078693Y-63701641D01*
X109249296Y-63617030D01*
X109397722Y-63497722D01*
X109517030Y-63349296D01*
X109517032Y-63349291D01*
X109520654Y-63343627D01*
X109523099Y-63345190D01*
X109561777Y-63303295D01*
X109629403Y-63285730D01*
X109695790Y-63307516D01*
X109739860Y-63361734D01*
X109749500Y-63409669D01*
X109749500Y-77997293D01*
X109749382Y-78002702D01*
X109731663Y-78408539D01*
X109730720Y-78419316D01*
X109678051Y-78819370D01*
X109676173Y-78830022D01*
X109588837Y-79223974D01*
X109586037Y-79234424D01*
X109464697Y-79619264D01*
X109460997Y-79629429D01*
X109306579Y-80002226D01*
X109302007Y-80012030D01*
X109115690Y-80369942D01*
X109110282Y-80379310D01*
X108893469Y-80719638D01*
X108887264Y-80728499D01*
X108641621Y-81048627D01*
X108634667Y-81056914D01*
X108362061Y-81354412D01*
X108354412Y-81362061D01*
X108056914Y-81634667D01*
X108048627Y-81641621D01*
X107728499Y-81887264D01*
X107719638Y-81893469D01*
X107379310Y-82110282D01*
X107369942Y-82115690D01*
X107012030Y-82302007D01*
X107002226Y-82306579D01*
X106629429Y-82460997D01*
X106619264Y-82464697D01*
X106234424Y-82586037D01*
X106223974Y-82588837D01*
X105830022Y-82676173D01*
X105819370Y-82678051D01*
X105419316Y-82730720D01*
X105408539Y-82731663D01*
X105002703Y-82749382D01*
X104997294Y-82749500D01*
X25002706Y-82749500D01*
X24997297Y-82749382D01*
X24591460Y-82731663D01*
X24580685Y-82730720D01*
X24380656Y-82704385D01*
X24180629Y-82678051D01*
X24169977Y-82676173D01*
X23915393Y-82619733D01*
X23776022Y-82588836D01*
X23765579Y-82586038D01*
X23380733Y-82464696D01*
X23370570Y-82460997D01*
X22997773Y-82306579D01*
X22987969Y-82302007D01*
X22630057Y-82115690D01*
X22620689Y-82110282D01*
X22280361Y-81893469D01*
X22271500Y-81887264D01*
X21951372Y-81641621D01*
X21943085Y-81634667D01*
X21645587Y-81362061D01*
X21637938Y-81354412D01*
X21365332Y-81056914D01*
X21358378Y-81048627D01*
X21112735Y-80728499D01*
X21106530Y-80719638D01*
X20889717Y-80379310D01*
X20884309Y-80369942D01*
X20697992Y-80012030D01*
X20693420Y-80002226D01*
X20655314Y-79910230D01*
X20538996Y-79629414D01*
X20535307Y-79619279D01*
X20413956Y-79234405D01*
X20411167Y-79223993D01*
X20323823Y-78830010D01*
X20321950Y-78819386D01*
X20269277Y-78419293D01*
X20268337Y-78408558D01*
X20250618Y-78002701D01*
X20250500Y-77997293D01*
X20250500Y-77901577D01*
X23749500Y-77901577D01*
X23749500Y-78098422D01*
X23780290Y-78292826D01*
X23841117Y-78480029D01*
X23851548Y-78500500D01*
X23930476Y-78655405D01*
X24046172Y-78814646D01*
X24185354Y-78953828D01*
X24344595Y-79069524D01*
X24427455Y-79111743D01*
X24519970Y-79158882D01*
X24519972Y-79158882D01*
X24519975Y-79158884D01*
X24620317Y-79191487D01*
X24707173Y-79219709D01*
X24901578Y-79250500D01*
X24901583Y-79250500D01*
X25098422Y-79250500D01*
X25292826Y-79219709D01*
X25480025Y-79158884D01*
X25655405Y-79069524D01*
X25814646Y-78953828D01*
X25953828Y-78814646D01*
X26069524Y-78655405D01*
X26158884Y-78480025D01*
X26219709Y-78292826D01*
X26231456Y-78218657D01*
X26250500Y-78098422D01*
X26250500Y-77901577D01*
X26219709Y-77707173D01*
X26158882Y-77519970D01*
X26069523Y-77344594D01*
X25953828Y-77185354D01*
X25814646Y-77046172D01*
X25655405Y-76930476D01*
X25480029Y-76841117D01*
X25292826Y-76780290D01*
X25098422Y-76749500D01*
X25098417Y-76749500D01*
X24901583Y-76749500D01*
X24901578Y-76749500D01*
X24707173Y-76780290D01*
X24519970Y-76841117D01*
X24344594Y-76930476D01*
X24253741Y-76996485D01*
X24185354Y-77046172D01*
X24185352Y-77046174D01*
X24185351Y-77046174D01*
X24046174Y-77185351D01*
X24046174Y-77185352D01*
X24046172Y-77185354D01*
X23996485Y-77253741D01*
X23930476Y-77344594D01*
X23841117Y-77519970D01*
X23780290Y-77707173D01*
X23749500Y-77901577D01*
X20250500Y-77901577D01*
X20250500Y-66419846D01*
X20270185Y-66352807D01*
X20322989Y-66307052D01*
X20392147Y-66297108D01*
X20455703Y-66326133D01*
X20493477Y-66384911D01*
X20497789Y-66406591D01*
X20506052Y-66483450D01*
X20506054Y-66483462D01*
X20517260Y-66534972D01*
X20551383Y-66637497D01*
X20551386Y-66637503D01*
X20629171Y-66758537D01*
X20629179Y-66758548D01*
X20674923Y-66811340D01*
X20674926Y-66811343D01*
X20674930Y-66811347D01*
X20783664Y-66905567D01*
X20783667Y-66905568D01*
X20783668Y-66905569D01*
X20877925Y-66948616D01*
X20914541Y-66965338D01*
X20981580Y-66985023D01*
X20981584Y-66985024D01*
X21124000Y-67005500D01*
X21124003Y-67005500D01*
X26875990Y-67005500D01*
X26876000Y-67005500D01*
X26983456Y-66993947D01*
X27034967Y-66982741D01*
X27069197Y-66971347D01*
X27137497Y-66948616D01*
X27137501Y-66948613D01*
X27137504Y-66948613D01*
X27258543Y-66870825D01*
X27311347Y-66825070D01*
X27405567Y-66716336D01*
X27465338Y-66585459D01*
X27485023Y-66518420D01*
X27485024Y-66518416D01*
X27505500Y-66376000D01*
X27505500Y-63124000D01*
X27493947Y-63016544D01*
X27482741Y-62965033D01*
X27475312Y-62942712D01*
X27448616Y-62862502D01*
X27448613Y-62862496D01*
X27388344Y-62768717D01*
X27370825Y-62741457D01*
X27362444Y-62731785D01*
X27325076Y-62688659D01*
X27325072Y-62688656D01*
X27325070Y-62688653D01*
X27216336Y-62594433D01*
X27216333Y-62594431D01*
X27216331Y-62594430D01*
X27085465Y-62534664D01*
X27085460Y-62534662D01*
X27085459Y-62534662D01*
X27018420Y-62514977D01*
X27018422Y-62514977D01*
X27018417Y-62514976D01*
X26970944Y-62508150D01*
X26876000Y-62494500D01*
X26875998Y-62494500D01*
X25129500Y-62494500D01*
X25062461Y-62474815D01*
X25016706Y-62422011D01*
X25005500Y-62370500D01*
X25005500Y-60129500D01*
X25025185Y-60062461D01*
X25077989Y-60016706D01*
X25129500Y-60005500D01*
X26375990Y-60005500D01*
X26376000Y-60005500D01*
X26483456Y-59993947D01*
X26534967Y-59982741D01*
X26569197Y-59971347D01*
X26637497Y-59948616D01*
X26637501Y-59948613D01*
X26637504Y-59948613D01*
X26758543Y-59870825D01*
X26811347Y-59825070D01*
X26905567Y-59716336D01*
X26950151Y-59618713D01*
X26955963Y-59605987D01*
X27001718Y-59553183D01*
X27003560Y-59552022D01*
X27018656Y-59542712D01*
X27142712Y-59418656D01*
X27234814Y-59269334D01*
X27261955Y-59187427D01*
X27301726Y-59129984D01*
X27366242Y-59103161D01*
X27435018Y-59115476D01*
X27479977Y-59153547D01*
X27548034Y-59247219D01*
X27692781Y-59391966D01*
X27858390Y-59512287D01*
X27871793Y-59519116D01*
X27922589Y-59567088D01*
X27939500Y-59629601D01*
X27939500Y-61453330D01*
X27939499Y-61453348D01*
X27939499Y-61619054D01*
X27939498Y-61619054D01*
X27941909Y-61628051D01*
X27980423Y-61771785D01*
X27980424Y-61771786D01*
X27996423Y-61799499D01*
X27996424Y-61799500D01*
X28059475Y-61908709D01*
X28059481Y-61908717D01*
X28178349Y-62027585D01*
X28178355Y-62027590D01*
X34863181Y-68712416D01*
X34896666Y-68773739D01*
X34899500Y-68800097D01*
X34899500Y-75375500D01*
X34879815Y-75442539D01*
X34827011Y-75488294D01*
X34775502Y-75499500D01*
X34699999Y-75499500D01*
X34699980Y-75499501D01*
X34597203Y-75510000D01*
X34597200Y-75510001D01*
X34430668Y-75565185D01*
X34430663Y-75565187D01*
X34281342Y-75657289D01*
X34157289Y-75781342D01*
X34065187Y-75930663D01*
X34065186Y-75930666D01*
X34010001Y-76097203D01*
X34010001Y-76097204D01*
X34010000Y-76097204D01*
X33999500Y-76199983D01*
X33999500Y-77800001D01*
X33999501Y-77800018D01*
X34010000Y-77902796D01*
X34010001Y-77902799D01*
X34065185Y-78069331D01*
X34065187Y-78069336D01*
X34091746Y-78112395D01*
X34157288Y-78218656D01*
X34281344Y-78342712D01*
X34430666Y-78434814D01*
X34597203Y-78489999D01*
X34699991Y-78500500D01*
X36300008Y-78500499D01*
X36402797Y-78489999D01*
X36569334Y-78434814D01*
X36718656Y-78342712D01*
X36842712Y-78218656D01*
X36872512Y-78170341D01*
X36924458Y-78123618D01*
X36993420Y-78112395D01*
X37057503Y-78140238D01*
X37058758Y-78141385D01*
X37058786Y-78141353D01*
X37062481Y-78144508D01*
X37062490Y-78144517D01*
X37253567Y-78283343D01*
X37352991Y-78334002D01*
X37464003Y-78390566D01*
X37464005Y-78390566D01*
X37464008Y-78390568D01*
X37519314Y-78408538D01*
X37688631Y-78463553D01*
X37921903Y-78500500D01*
X37921908Y-78500500D01*
X38158097Y-78500500D01*
X38391368Y-78463553D01*
X38615992Y-78390568D01*
X38826433Y-78283343D01*
X39017510Y-78144517D01*
X39184517Y-77977510D01*
X39209682Y-77942872D01*
X39265011Y-77900207D01*
X39334625Y-77894228D01*
X39396420Y-77926833D01*
X39410315Y-77942870D01*
X39435483Y-77977510D01*
X39602490Y-78144517D01*
X39793567Y-78283343D01*
X39892991Y-78334002D01*
X40004003Y-78390566D01*
X40004005Y-78390566D01*
X40004008Y-78390568D01*
X40059314Y-78408538D01*
X40228631Y-78463553D01*
X40461903Y-78500500D01*
X40461908Y-78500500D01*
X40698097Y-78500500D01*
X40931368Y-78463553D01*
X41155992Y-78390568D01*
X41366433Y-78283343D01*
X41557510Y-78144517D01*
X41724517Y-77977510D01*
X41863343Y-77786433D01*
X41970568Y-77575992D01*
X42043553Y-77351368D01*
X42069847Y-77185354D01*
X42080500Y-77118097D01*
X42080500Y-76881902D01*
X42043553Y-76648631D01*
X41970566Y-76424003D01*
X41863342Y-76213566D01*
X41853479Y-76199991D01*
X41724517Y-76022490D01*
X41557510Y-75855483D01*
X41455464Y-75781342D01*
X41366431Y-75716655D01*
X41248204Y-75656415D01*
X41197409Y-75608441D01*
X41180500Y-75545931D01*
X41180500Y-70420096D01*
X41200185Y-70353057D01*
X41216814Y-70332420D01*
X45368713Y-66180521D01*
X45368716Y-66180520D01*
X45480520Y-66068716D01*
X45530639Y-65981904D01*
X45559577Y-65931785D01*
X45600501Y-65779057D01*
X45600501Y-65620943D01*
X45600501Y-65613348D01*
X45600500Y-65613330D01*
X45600500Y-57089059D01*
X45600501Y-57089046D01*
X45600501Y-56920945D01*
X45600501Y-56920943D01*
X45561526Y-56775488D01*
X45563189Y-56705642D01*
X45602351Y-56647780D01*
X45666579Y-56620275D01*
X45735482Y-56631861D01*
X45768982Y-56655717D01*
X46481978Y-57368713D01*
X46481980Y-57368716D01*
X46503896Y-57390632D01*
X46521415Y-57422717D01*
X46537378Y-57451950D01*
X46537377Y-57451952D01*
X46537379Y-57451954D01*
X46537376Y-57451985D01*
X46535189Y-57513246D01*
X46514976Y-57582080D01*
X46502549Y-57668514D01*
X46494500Y-57724500D01*
X46494500Y-62000000D01*
X46494500Y-66376000D01*
X46494501Y-66376009D01*
X46506052Y-66483450D01*
X46506054Y-66483462D01*
X46517260Y-66534972D01*
X46551383Y-66637497D01*
X46551386Y-66637503D01*
X46629171Y-66758537D01*
X46629179Y-66758548D01*
X46674923Y-66811340D01*
X46674926Y-66811343D01*
X46674930Y-66811347D01*
X46783664Y-66905567D01*
X46783667Y-66905568D01*
X46783668Y-66905569D01*
X46877925Y-66948616D01*
X46914541Y-66965338D01*
X46981580Y-66985023D01*
X46981584Y-66985024D01*
X47124000Y-67005500D01*
X47124003Y-67005500D01*
X52875990Y-67005500D01*
X52876000Y-67005500D01*
X52983456Y-66993947D01*
X53034967Y-66982741D01*
X53069197Y-66971347D01*
X53137497Y-66948616D01*
X53137501Y-66948613D01*
X53137504Y-66948613D01*
X53258543Y-66870825D01*
X53311347Y-66825070D01*
X53405567Y-66716336D01*
X53465338Y-66585459D01*
X53485023Y-66518420D01*
X53485024Y-66518416D01*
X53505500Y-66376000D01*
X53505500Y-63124000D01*
X53493947Y-63016544D01*
X53482741Y-62965033D01*
X53475312Y-62942712D01*
X53448616Y-62862502D01*
X53448613Y-62862496D01*
X53388344Y-62768717D01*
X53370825Y-62741457D01*
X53362444Y-62731785D01*
X53325076Y-62688659D01*
X53325072Y-62688656D01*
X53325070Y-62688653D01*
X53216336Y-62594433D01*
X53216333Y-62594431D01*
X53216331Y-62594430D01*
X53085465Y-62534664D01*
X53085460Y-62534662D01*
X53085459Y-62534662D01*
X53018420Y-62514977D01*
X53018422Y-62514977D01*
X53018417Y-62514976D01*
X52970944Y-62508150D01*
X52876000Y-62494500D01*
X52875998Y-62494500D01*
X51129500Y-62494500D01*
X51062461Y-62474815D01*
X51016706Y-62422011D01*
X51005500Y-62370500D01*
X51005500Y-60129500D01*
X51025185Y-60062461D01*
X51077989Y-60016706D01*
X51129500Y-60005500D01*
X52375990Y-60005500D01*
X52376000Y-60005500D01*
X52483456Y-59993947D01*
X52534967Y-59982741D01*
X52569197Y-59971347D01*
X52637497Y-59948616D01*
X52637501Y-59948613D01*
X52637504Y-59948613D01*
X52758543Y-59870825D01*
X52811347Y-59825070D01*
X52905567Y-59716336D01*
X52950151Y-59618713D01*
X52955963Y-59605987D01*
X53001718Y-59553183D01*
X53003560Y-59552022D01*
X53018656Y-59542712D01*
X53142712Y-59418656D01*
X53234814Y-59269334D01*
X53261955Y-59187427D01*
X53301726Y-59129984D01*
X53366242Y-59103161D01*
X53435018Y-59115476D01*
X53479977Y-59153547D01*
X53548034Y-59247219D01*
X53692781Y-59391966D01*
X53858390Y-59512287D01*
X53871793Y-59519116D01*
X53922589Y-59567088D01*
X53939500Y-59629601D01*
X53939500Y-61953330D01*
X53939499Y-61953348D01*
X53939499Y-62119054D01*
X53939498Y-62119054D01*
X53943721Y-62134814D01*
X53978698Y-62265349D01*
X53980423Y-62271784D01*
X53980424Y-62271788D01*
X54008804Y-62320944D01*
X54008805Y-62320944D01*
X54059477Y-62408712D01*
X54059481Y-62408717D01*
X54178349Y-62527585D01*
X54178355Y-62527590D01*
X60863181Y-69212416D01*
X60896666Y-69273739D01*
X60899500Y-69300097D01*
X60899500Y-75375500D01*
X60879815Y-75442539D01*
X60827011Y-75488294D01*
X60775502Y-75499500D01*
X60699999Y-75499500D01*
X60699980Y-75499501D01*
X60597203Y-75510000D01*
X60597200Y-75510001D01*
X60430668Y-75565185D01*
X60430663Y-75565187D01*
X60281342Y-75657289D01*
X60157289Y-75781342D01*
X60065187Y-75930663D01*
X60065186Y-75930666D01*
X60010001Y-76097203D01*
X60010001Y-76097204D01*
X60010000Y-76097204D01*
X59999500Y-76199983D01*
X59999500Y-77800001D01*
X59999501Y-77800018D01*
X60010000Y-77902796D01*
X60010001Y-77902799D01*
X60065185Y-78069331D01*
X60065187Y-78069336D01*
X60091746Y-78112395D01*
X60157288Y-78218656D01*
X60281344Y-78342712D01*
X60430666Y-78434814D01*
X60597203Y-78489999D01*
X60699991Y-78500500D01*
X62300008Y-78500499D01*
X62402797Y-78489999D01*
X62569334Y-78434814D01*
X62718656Y-78342712D01*
X62842712Y-78218656D01*
X62872512Y-78170341D01*
X62924458Y-78123618D01*
X62993420Y-78112395D01*
X63057503Y-78140238D01*
X63058758Y-78141385D01*
X63058786Y-78141353D01*
X63062481Y-78144508D01*
X63062490Y-78144517D01*
X63253567Y-78283343D01*
X63352991Y-78334002D01*
X63464003Y-78390566D01*
X63464005Y-78390566D01*
X63464008Y-78390568D01*
X63519314Y-78408538D01*
X63688631Y-78463553D01*
X63921903Y-78500500D01*
X63921908Y-78500500D01*
X64158097Y-78500500D01*
X64391368Y-78463553D01*
X64615992Y-78390568D01*
X64826433Y-78283343D01*
X65017510Y-78144517D01*
X65184517Y-77977510D01*
X65209682Y-77942872D01*
X65265011Y-77900207D01*
X65334625Y-77894228D01*
X65396420Y-77926833D01*
X65410315Y-77942870D01*
X65435483Y-77977510D01*
X65602490Y-78144517D01*
X65793567Y-78283343D01*
X65892991Y-78334002D01*
X66004003Y-78390566D01*
X66004005Y-78390566D01*
X66004008Y-78390568D01*
X66059314Y-78408538D01*
X66228631Y-78463553D01*
X66461903Y-78500500D01*
X66461908Y-78500500D01*
X66698097Y-78500500D01*
X66931368Y-78463553D01*
X67155992Y-78390568D01*
X67366433Y-78283343D01*
X67557510Y-78144517D01*
X67724517Y-77977510D01*
X67863343Y-77786433D01*
X67970568Y-77575992D01*
X68043553Y-77351368D01*
X68069847Y-77185354D01*
X68080500Y-77118097D01*
X68080500Y-76881902D01*
X68043553Y-76648631D01*
X67970566Y-76424003D01*
X67863342Y-76213566D01*
X67853479Y-76199991D01*
X67724517Y-76022490D01*
X67557510Y-75855483D01*
X67455464Y-75781342D01*
X67366431Y-75716655D01*
X67248204Y-75656415D01*
X67197409Y-75608441D01*
X67180500Y-75545931D01*
X67180500Y-70320096D01*
X67200185Y-70253057D01*
X67216814Y-70232420D01*
X71368713Y-66080521D01*
X71368716Y-66080520D01*
X71480520Y-65968716D01*
X71530639Y-65881904D01*
X71559577Y-65831785D01*
X71600501Y-65679057D01*
X71600501Y-65520943D01*
X71600501Y-65513348D01*
X71600500Y-65513330D01*
X71600500Y-57089059D01*
X71600501Y-57089046D01*
X71600501Y-56920945D01*
X71600501Y-56920943D01*
X71561526Y-56775488D01*
X71563189Y-56705642D01*
X71602351Y-56647780D01*
X71666579Y-56620275D01*
X71735482Y-56631861D01*
G37*
G04 #@! TD.AperFunction*
G04 #@! TA.AperFunction,Conductor*
G36*
X42681852Y-60015643D02*
G01*
X42682086Y-60015615D01*
X42683117Y-60016115D01*
X42726711Y-60032375D01*
X42730657Y-60034809D01*
X42730660Y-60034810D01*
X42730666Y-60034814D01*
X42897203Y-60089999D01*
X42999991Y-60100500D01*
X44000008Y-60100499D01*
X44000016Y-60100498D01*
X44000019Y-60100498D01*
X44056302Y-60094748D01*
X44102797Y-60089999D01*
X44236497Y-60045694D01*
X44306324Y-60043293D01*
X44366366Y-60079024D01*
X44397559Y-60141545D01*
X44399500Y-60163401D01*
X44399500Y-65399902D01*
X44379815Y-65466941D01*
X44363181Y-65487583D01*
X40099481Y-69751282D01*
X40099479Y-69751284D01*
X40078159Y-69788213D01*
X40064803Y-69811347D01*
X40020423Y-69888215D01*
X39979499Y-70040943D01*
X39979499Y-70040945D01*
X39979499Y-70209046D01*
X39979500Y-70209059D01*
X39979500Y-75545931D01*
X39959815Y-75612970D01*
X39911796Y-75656415D01*
X39793568Y-75716655D01*
X39659896Y-75813774D01*
X39602490Y-75855483D01*
X39602488Y-75855485D01*
X39602487Y-75855485D01*
X39435484Y-76022488D01*
X39410318Y-76057127D01*
X39354987Y-76099792D01*
X39285374Y-76105771D01*
X39223579Y-76073165D01*
X39209682Y-76057127D01*
X39184517Y-76022490D01*
X39017510Y-75855483D01*
X38915464Y-75781342D01*
X38826431Y-75716655D01*
X38708204Y-75656415D01*
X38657409Y-75608441D01*
X38640500Y-75545931D01*
X38640500Y-68629059D01*
X38640501Y-68629046D01*
X38640501Y-68460945D01*
X38640501Y-68460943D01*
X38599577Y-68308215D01*
X38554571Y-68230263D01*
X38520520Y-68171284D01*
X38408716Y-68059480D01*
X38408715Y-68059479D01*
X38404385Y-68055149D01*
X38404374Y-68055139D01*
X32665625Y-62316390D01*
X32632140Y-62255067D01*
X32637124Y-62185375D01*
X32678996Y-62129442D01*
X32688190Y-62123183D01*
X32818656Y-62042712D01*
X32912319Y-61949049D01*
X32973642Y-61915564D01*
X33043334Y-61920548D01*
X33087681Y-61949049D01*
X33181344Y-62042712D01*
X33330666Y-62134814D01*
X33497203Y-62189999D01*
X33599991Y-62200500D01*
X34400008Y-62200499D01*
X34400016Y-62200498D01*
X34400019Y-62200498D01*
X34456302Y-62194748D01*
X34502797Y-62189999D01*
X34669334Y-62134814D01*
X34818656Y-62042712D01*
X34942712Y-61918656D01*
X35034814Y-61769334D01*
X35062595Y-61685495D01*
X35102368Y-61628051D01*
X35166884Y-61601228D01*
X35180301Y-61600500D01*
X35759362Y-61600500D01*
X35826401Y-61620185D01*
X35864899Y-61659401D01*
X35932288Y-61768656D01*
X36056344Y-61892712D01*
X36205666Y-61984814D01*
X36372203Y-62039999D01*
X36474991Y-62050500D01*
X37525008Y-62050499D01*
X37525016Y-62050498D01*
X37525019Y-62050498D01*
X37601248Y-62042711D01*
X37627797Y-62039999D01*
X37794334Y-61984814D01*
X37943656Y-61892712D01*
X38067712Y-61768656D01*
X38158229Y-61621902D01*
X38210177Y-61575179D01*
X38263768Y-61563000D01*
X39870500Y-61563000D01*
X39937539Y-61582685D01*
X39983294Y-61635489D01*
X39994500Y-61687000D01*
X39994500Y-64376000D01*
X39994501Y-64376009D01*
X40006052Y-64483450D01*
X40006054Y-64483462D01*
X40017260Y-64534972D01*
X40051383Y-64637497D01*
X40051386Y-64637503D01*
X40129171Y-64758537D01*
X40129179Y-64758548D01*
X40174923Y-64811340D01*
X40174926Y-64811343D01*
X40174930Y-64811347D01*
X40283664Y-64905567D01*
X40283667Y-64905568D01*
X40283668Y-64905569D01*
X40377925Y-64948616D01*
X40414541Y-64965338D01*
X40481580Y-64985023D01*
X40481584Y-64985024D01*
X40624000Y-65005500D01*
X40624003Y-65005500D01*
X42081439Y-65005500D01*
X42081449Y-65005500D01*
X42188905Y-64993947D01*
X42240416Y-64982741D01*
X42274646Y-64971347D01*
X42342946Y-64948616D01*
X42342950Y-64948613D01*
X42342953Y-64948613D01*
X42463992Y-64870825D01*
X42516796Y-64825070D01*
X42611016Y-64716336D01*
X42670787Y-64585459D01*
X42690472Y-64518420D01*
X42690473Y-64518416D01*
X42708860Y-64390525D01*
X42717032Y-64360737D01*
X42769737Y-64233497D01*
X42800500Y-64078842D01*
X42800500Y-63921158D01*
X42800500Y-63921155D01*
X42800499Y-63921153D01*
X42769739Y-63766511D01*
X42769736Y-63766501D01*
X42763107Y-63750498D01*
X42720387Y-63647362D01*
X42710949Y-63599911D01*
X42710949Y-62900089D01*
X42720388Y-62852636D01*
X42769737Y-62733497D01*
X42800500Y-62578842D01*
X42800500Y-62421158D01*
X42800500Y-62421155D01*
X42800499Y-62421153D01*
X42769739Y-62266511D01*
X42769736Y-62266501D01*
X42756811Y-62235298D01*
X42720387Y-62147362D01*
X42710949Y-62099911D01*
X42710949Y-60624010D01*
X42710949Y-60624000D01*
X42699396Y-60516544D01*
X42688190Y-60465033D01*
X42688036Y-60464571D01*
X42654064Y-60362500D01*
X42654059Y-60362491D01*
X42642535Y-60344558D01*
X42641018Y-60342137D01*
X42635763Y-60333530D01*
X42634814Y-60330666D01*
X42555922Y-60202761D01*
X42555781Y-60202530D01*
X42546807Y-60169139D01*
X42537635Y-60135617D01*
X42537722Y-60135336D01*
X42537647Y-60135054D01*
X42548182Y-60102011D01*
X42558558Y-60068954D01*
X42558782Y-60068766D01*
X42558872Y-60068486D01*
X42585692Y-60046308D01*
X42612200Y-60024184D01*
X42612491Y-60024147D01*
X42612717Y-60023961D01*
X42647071Y-60019827D01*
X42681530Y-60015523D01*
X42681852Y-60015643D01*
G37*
G04 #@! TD.AperFunction*
G04 #@! TA.AperFunction,Conductor*
G36*
X68681852Y-60015643D02*
G01*
X68682086Y-60015615D01*
X68683117Y-60016115D01*
X68726711Y-60032375D01*
X68730657Y-60034809D01*
X68730660Y-60034810D01*
X68730666Y-60034814D01*
X68897203Y-60089999D01*
X68999991Y-60100500D01*
X70000008Y-60100499D01*
X70000016Y-60100498D01*
X70000019Y-60100498D01*
X70056302Y-60094748D01*
X70102797Y-60089999D01*
X70236497Y-60045694D01*
X70306324Y-60043293D01*
X70366366Y-60079024D01*
X70397559Y-60141545D01*
X70399500Y-60163401D01*
X70399500Y-65299902D01*
X70379815Y-65366941D01*
X70363181Y-65387583D01*
X66099481Y-69651282D01*
X66099479Y-69651284D01*
X66075449Y-69692906D01*
X66065292Y-69710500D01*
X66020423Y-69788215D01*
X65979499Y-69940943D01*
X65979499Y-69940945D01*
X65979499Y-70109046D01*
X65979500Y-70109059D01*
X65979500Y-75545931D01*
X65959815Y-75612970D01*
X65911796Y-75656415D01*
X65793568Y-75716655D01*
X65659896Y-75813774D01*
X65602490Y-75855483D01*
X65602488Y-75855485D01*
X65602487Y-75855485D01*
X65435484Y-76022488D01*
X65410318Y-76057127D01*
X65354987Y-76099792D01*
X65285374Y-76105771D01*
X65223579Y-76073165D01*
X65209682Y-76057127D01*
X65184517Y-76022490D01*
X65017510Y-75855483D01*
X64915464Y-75781342D01*
X64826431Y-75716655D01*
X64708204Y-75656415D01*
X64657409Y-75608441D01*
X64640500Y-75545931D01*
X64640500Y-68729059D01*
X64640501Y-68729046D01*
X64640501Y-68560945D01*
X64640501Y-68560943D01*
X64599577Y-68408215D01*
X64548357Y-68319500D01*
X64520520Y-68271284D01*
X64408716Y-68159480D01*
X64408715Y-68159479D01*
X64404385Y-68155149D01*
X64404374Y-68155139D01*
X58636819Y-62387584D01*
X58622115Y-62360656D01*
X58605523Y-62334838D01*
X58604631Y-62328637D01*
X58603334Y-62326261D01*
X58600500Y-62299903D01*
X58600500Y-62245908D01*
X58620185Y-62178869D01*
X58664271Y-62140363D01*
X58663187Y-62138605D01*
X58669332Y-62134814D01*
X58669334Y-62134814D01*
X58818656Y-62042712D01*
X58912319Y-61949049D01*
X58973642Y-61915564D01*
X59043334Y-61920548D01*
X59087681Y-61949049D01*
X59181344Y-62042712D01*
X59330666Y-62134814D01*
X59497203Y-62189999D01*
X59599991Y-62200500D01*
X60400008Y-62200499D01*
X60400016Y-62200498D01*
X60400019Y-62200498D01*
X60456302Y-62194748D01*
X60502797Y-62189999D01*
X60669334Y-62134814D01*
X60818656Y-62042712D01*
X60942712Y-61918656D01*
X61034814Y-61769334D01*
X61075021Y-61647994D01*
X61114794Y-61590551D01*
X61179309Y-61563728D01*
X61192727Y-61563000D01*
X61736232Y-61563000D01*
X61803271Y-61582685D01*
X61841769Y-61621901D01*
X61932288Y-61768656D01*
X62056344Y-61892712D01*
X62205666Y-61984814D01*
X62372203Y-62039999D01*
X62474991Y-62050500D01*
X63525008Y-62050499D01*
X63525016Y-62050498D01*
X63525019Y-62050498D01*
X63601248Y-62042711D01*
X63627797Y-62039999D01*
X63794334Y-61984814D01*
X63943656Y-61892712D01*
X64067712Y-61768656D01*
X64158229Y-61621902D01*
X64210177Y-61575179D01*
X64263768Y-61563000D01*
X65870500Y-61563000D01*
X65937539Y-61582685D01*
X65983294Y-61635489D01*
X65994500Y-61687000D01*
X65994500Y-64376000D01*
X65994501Y-64376009D01*
X66006052Y-64483450D01*
X66006054Y-64483462D01*
X66017260Y-64534972D01*
X66051383Y-64637497D01*
X66051386Y-64637503D01*
X66129171Y-64758537D01*
X66129179Y-64758548D01*
X66174923Y-64811340D01*
X66174926Y-64811343D01*
X66174930Y-64811347D01*
X66283664Y-64905567D01*
X66283667Y-64905568D01*
X66283668Y-64905569D01*
X66377925Y-64948616D01*
X66414541Y-64965338D01*
X66481580Y-64985023D01*
X66481584Y-64985024D01*
X66624000Y-65005500D01*
X66624003Y-65005500D01*
X68081439Y-65005500D01*
X68081449Y-65005500D01*
X68188905Y-64993947D01*
X68240416Y-64982741D01*
X68274646Y-64971347D01*
X68342946Y-64948616D01*
X68342950Y-64948613D01*
X68342953Y-64948613D01*
X68463992Y-64870825D01*
X68516796Y-64825070D01*
X68611016Y-64716336D01*
X68670787Y-64585459D01*
X68690472Y-64518420D01*
X68690473Y-64518416D01*
X68708860Y-64390525D01*
X68717032Y-64360737D01*
X68769737Y-64233497D01*
X68800500Y-64078842D01*
X68800500Y-63921158D01*
X68800500Y-63921155D01*
X68800499Y-63921153D01*
X68769739Y-63766511D01*
X68769736Y-63766501D01*
X68763107Y-63750498D01*
X68720387Y-63647362D01*
X68710949Y-63599911D01*
X68710949Y-62900089D01*
X68720388Y-62852636D01*
X68769737Y-62733497D01*
X68800500Y-62578842D01*
X68800500Y-62421158D01*
X68800500Y-62421155D01*
X68800499Y-62421153D01*
X68769739Y-62266511D01*
X68769736Y-62266501D01*
X68756811Y-62235298D01*
X68720387Y-62147362D01*
X68710949Y-62099911D01*
X68710949Y-60624010D01*
X68710949Y-60624000D01*
X68699396Y-60516544D01*
X68688190Y-60465033D01*
X68688036Y-60464571D01*
X68654064Y-60362500D01*
X68654059Y-60362491D01*
X68642535Y-60344558D01*
X68641018Y-60342137D01*
X68635763Y-60333530D01*
X68634814Y-60330666D01*
X68555922Y-60202761D01*
X68555781Y-60202530D01*
X68546807Y-60169139D01*
X68537635Y-60135617D01*
X68537722Y-60135336D01*
X68537647Y-60135054D01*
X68548182Y-60102011D01*
X68558558Y-60068954D01*
X68558782Y-60068766D01*
X68558872Y-60068486D01*
X68585692Y-60046308D01*
X68612200Y-60024184D01*
X68612491Y-60024147D01*
X68612717Y-60023961D01*
X68647071Y-60019827D01*
X68681530Y-60015523D01*
X68681852Y-60015643D01*
G37*
G04 #@! TD.AperFunction*
G04 #@! TA.AperFunction,Conductor*
G36*
X96568834Y-59895048D02*
G01*
X96624767Y-59936920D01*
X96649184Y-60002384D01*
X96649500Y-60011230D01*
X96649500Y-63949902D01*
X96629815Y-64016941D01*
X96613181Y-64037583D01*
X92099481Y-68551282D01*
X92099479Y-68551285D01*
X92060353Y-68619055D01*
X92060352Y-68619057D01*
X92020423Y-68688214D01*
X92013938Y-68712416D01*
X91986789Y-68813739D01*
X91979499Y-68840944D01*
X91979499Y-69009046D01*
X91979500Y-69009059D01*
X91979500Y-75545931D01*
X91959815Y-75612970D01*
X91911796Y-75656415D01*
X91793568Y-75716655D01*
X91659896Y-75813774D01*
X91602490Y-75855483D01*
X91602488Y-75855485D01*
X91602487Y-75855485D01*
X91435484Y-76022488D01*
X91410318Y-76057127D01*
X91354987Y-76099792D01*
X91285374Y-76105771D01*
X91223579Y-76073165D01*
X91209682Y-76057127D01*
X91184517Y-76022490D01*
X91017510Y-75855483D01*
X90915464Y-75781342D01*
X90826431Y-75716655D01*
X90708204Y-75656415D01*
X90657409Y-75608441D01*
X90640500Y-75545931D01*
X90640500Y-68529059D01*
X90640501Y-68529046D01*
X90640501Y-68360945D01*
X90640501Y-68360943D01*
X90599577Y-68208215D01*
X90570639Y-68158095D01*
X90520520Y-68071284D01*
X90408716Y-67959480D01*
X90408715Y-67959479D01*
X90404385Y-67955149D01*
X90404374Y-67955139D01*
X84727476Y-62278241D01*
X84720436Y-62265349D01*
X84709527Y-62255509D01*
X84704027Y-62235298D01*
X84693991Y-62216918D01*
X84695038Y-62202264D01*
X84691182Y-62188090D01*
X84697480Y-62168117D01*
X84698975Y-62147226D01*
X84708149Y-62134288D01*
X84712197Y-62121456D01*
X84728110Y-62106143D01*
X84735837Y-62095248D01*
X84742582Y-62089634D01*
X84818656Y-62042712D01*
X84916329Y-61945038D01*
X84920680Y-61941418D01*
X84947755Y-61929699D01*
X84973642Y-61915564D01*
X84979453Y-61915979D01*
X84984801Y-61913665D01*
X85013909Y-61918443D01*
X85043334Y-61920548D01*
X85049031Y-61924209D01*
X85053748Y-61924984D01*
X85062451Y-61932834D01*
X85087681Y-61949049D01*
X85181344Y-62042712D01*
X85330666Y-62134814D01*
X85497203Y-62189999D01*
X85599991Y-62200500D01*
X86400008Y-62200499D01*
X86400016Y-62200498D01*
X86400019Y-62200498D01*
X86456302Y-62194748D01*
X86502797Y-62189999D01*
X86669334Y-62134814D01*
X86818656Y-62042712D01*
X86942712Y-61918656D01*
X87034814Y-61769334D01*
X87075021Y-61647994D01*
X87114794Y-61590551D01*
X87179309Y-61563728D01*
X87192727Y-61563000D01*
X87736232Y-61563000D01*
X87803271Y-61582685D01*
X87841769Y-61621901D01*
X87932288Y-61768656D01*
X88056344Y-61892712D01*
X88205666Y-61984814D01*
X88372203Y-62039999D01*
X88474991Y-62050500D01*
X89525008Y-62050499D01*
X89525016Y-62050498D01*
X89525019Y-62050498D01*
X89601248Y-62042711D01*
X89627797Y-62039999D01*
X89794334Y-61984814D01*
X89943656Y-61892712D01*
X90067712Y-61768656D01*
X90158229Y-61621902D01*
X90210177Y-61575179D01*
X90263768Y-61563000D01*
X91870500Y-61563000D01*
X91937539Y-61582685D01*
X91983294Y-61635489D01*
X91994500Y-61687000D01*
X91994500Y-64376000D01*
X91994501Y-64376009D01*
X92006052Y-64483450D01*
X92006054Y-64483462D01*
X92017260Y-64534972D01*
X92051383Y-64637497D01*
X92051386Y-64637503D01*
X92129171Y-64758537D01*
X92129179Y-64758548D01*
X92174923Y-64811340D01*
X92174926Y-64811343D01*
X92174930Y-64811347D01*
X92283664Y-64905567D01*
X92283667Y-64905568D01*
X92283668Y-64905569D01*
X92377925Y-64948616D01*
X92414541Y-64965338D01*
X92481580Y-64985023D01*
X92481584Y-64985024D01*
X92624000Y-65005500D01*
X92624003Y-65005500D01*
X94081439Y-65005500D01*
X94081449Y-65005500D01*
X94188905Y-64993947D01*
X94240416Y-64982741D01*
X94274646Y-64971347D01*
X94342946Y-64948616D01*
X94342950Y-64948613D01*
X94342953Y-64948613D01*
X94463992Y-64870825D01*
X94516796Y-64825070D01*
X94611016Y-64716336D01*
X94670787Y-64585459D01*
X94690472Y-64518420D01*
X94690473Y-64518416D01*
X94708860Y-64390525D01*
X94717032Y-64360737D01*
X94769737Y-64233497D01*
X94800500Y-64078842D01*
X94800500Y-63921158D01*
X94800500Y-63921155D01*
X94800499Y-63921153D01*
X94769739Y-63766511D01*
X94769736Y-63766501D01*
X94763107Y-63750498D01*
X94720387Y-63647362D01*
X94710949Y-63599911D01*
X94710949Y-62900089D01*
X94720388Y-62852636D01*
X94769737Y-62733497D01*
X94800500Y-62578842D01*
X94800500Y-62421158D01*
X94800500Y-62421155D01*
X94800499Y-62421153D01*
X94769739Y-62266511D01*
X94769736Y-62266501D01*
X94756811Y-62235298D01*
X94720387Y-62147362D01*
X94710949Y-62099911D01*
X94710949Y-60624010D01*
X94710949Y-60624000D01*
X94699396Y-60516544D01*
X94688190Y-60465033D01*
X94688036Y-60464571D01*
X94654064Y-60362500D01*
X94654059Y-60362491D01*
X94642535Y-60344558D01*
X94641018Y-60342137D01*
X94635763Y-60333530D01*
X94634814Y-60330666D01*
X94555922Y-60202761D01*
X94555781Y-60202530D01*
X94546807Y-60169139D01*
X94537635Y-60135617D01*
X94537722Y-60135336D01*
X94537647Y-60135054D01*
X94548182Y-60102011D01*
X94558558Y-60068954D01*
X94558782Y-60068766D01*
X94558872Y-60068486D01*
X94585692Y-60046308D01*
X94612200Y-60024184D01*
X94612491Y-60024147D01*
X94612717Y-60023961D01*
X94647071Y-60019827D01*
X94681530Y-60015523D01*
X94681852Y-60015643D01*
X94682086Y-60015615D01*
X94683117Y-60016115D01*
X94726711Y-60032375D01*
X94730657Y-60034809D01*
X94730660Y-60034810D01*
X94730666Y-60034814D01*
X94897203Y-60089999D01*
X94999991Y-60100500D01*
X96000008Y-60100499D01*
X96000016Y-60100498D01*
X96000019Y-60100498D01*
X96056302Y-60094748D01*
X96102797Y-60089999D01*
X96269334Y-60034814D01*
X96418656Y-59942712D01*
X96437819Y-59923549D01*
X96499142Y-59890064D01*
X96568834Y-59895048D01*
G37*
G04 #@! TD.AperFunction*
G04 #@! TA.AperFunction,Conductor*
G36*
X97785794Y-64635063D02*
G01*
X97814623Y-64637125D01*
X97814624Y-64637125D01*
X97814625Y-64637126D01*
X97824471Y-64644497D01*
X97870557Y-64678996D01*
X97876826Y-64688205D01*
X97957288Y-64818656D01*
X98081344Y-64942712D01*
X98230666Y-65034814D01*
X98397203Y-65089999D01*
X98499991Y-65100500D01*
X99500008Y-65100499D01*
X99500016Y-65100498D01*
X99500019Y-65100498D01*
X99556302Y-65094748D01*
X99602797Y-65089999D01*
X99769334Y-65034814D01*
X99805404Y-65012565D01*
X99872796Y-64994126D01*
X99939459Y-65015049D01*
X99984229Y-65068691D01*
X99994500Y-65118105D01*
X99994500Y-66670500D01*
X99974815Y-66737539D01*
X99922011Y-66783294D01*
X99870500Y-66794500D01*
X95854097Y-66794500D01*
X95787058Y-66774815D01*
X95741303Y-66722011D01*
X95731359Y-66652853D01*
X95760384Y-66589297D01*
X95766416Y-66582819D01*
X96168715Y-66180520D01*
X97618713Y-64730521D01*
X97618716Y-64730520D01*
X97683612Y-64665623D01*
X97744931Y-64632141D01*
X97744932Y-64632141D01*
X97744934Y-64632140D01*
X97785794Y-64635063D01*
G37*
G04 #@! TD.AperFunction*
G04 #@! TA.AperFunction,Conductor*
G36*
X23490039Y-33019685D02*
G01*
X23535794Y-33072489D01*
X23547000Y-33124000D01*
X23547000Y-35047870D01*
X23547001Y-35047876D01*
X23553408Y-35107483D01*
X23603702Y-35242328D01*
X23603706Y-35242335D01*
X23689952Y-35357544D01*
X23689955Y-35357547D01*
X23805164Y-35443793D01*
X23805171Y-35443797D01*
X23805174Y-35443798D01*
X23940017Y-35494091D01*
X23999627Y-35500500D01*
X24283301Y-35500499D01*
X24306129Y-35507201D01*
X24329804Y-35509549D01*
X24339036Y-35516864D01*
X24350340Y-35520183D01*
X24365920Y-35538163D01*
X24384568Y-35552938D01*
X24391463Y-35567641D01*
X24396095Y-35572987D01*
X24400627Y-35584367D01*
X24401987Y-35588345D01*
X24440423Y-35731785D01*
X24460468Y-35766503D01*
X24500571Y-35835964D01*
X24519479Y-35868715D01*
X24638349Y-35987585D01*
X24638355Y-35987590D01*
X25963181Y-37312416D01*
X25996666Y-37373739D01*
X25999500Y-37400097D01*
X25999500Y-42435612D01*
X25979815Y-42502651D01*
X25927011Y-42548406D01*
X25857853Y-42558350D01*
X25810403Y-42541150D01*
X25683705Y-42463001D01*
X25683699Y-42462998D01*
X25683697Y-42462997D01*
X25604790Y-42436850D01*
X25522709Y-42409651D01*
X25423346Y-42399500D01*
X24576662Y-42399500D01*
X24576644Y-42399501D01*
X24477292Y-42409650D01*
X24477289Y-42409651D01*
X24316305Y-42462996D01*
X24316294Y-42463001D01*
X24171959Y-42552029D01*
X24171955Y-42552032D01*
X24052032Y-42671955D01*
X24052029Y-42671959D01*
X23963001Y-42816294D01*
X23962996Y-42816305D01*
X23909651Y-42977290D01*
X23899500Y-43076647D01*
X23899500Y-43623337D01*
X23899501Y-43623355D01*
X23909650Y-43722707D01*
X23909651Y-43722710D01*
X23962996Y-43883694D01*
X23963001Y-43883705D01*
X24052029Y-44028040D01*
X24052032Y-44028044D01*
X24171955Y-44147967D01*
X24171959Y-44147970D01*
X24316294Y-44236998D01*
X24316297Y-44236999D01*
X24316303Y-44237003D01*
X24477292Y-44290349D01*
X24576655Y-44300500D01*
X25049902Y-44300499D01*
X25079348Y-44309145D01*
X25109329Y-44315667D01*
X25114342Y-44319419D01*
X25116941Y-44320183D01*
X25137583Y-44336818D01*
X25165139Y-44364374D01*
X25165149Y-44364385D01*
X25169479Y-44368715D01*
X25169480Y-44368716D01*
X25281284Y-44480520D01*
X25368095Y-44530639D01*
X25368097Y-44530641D01*
X25383665Y-44539629D01*
X25418215Y-44559577D01*
X25570943Y-44600501D01*
X25570946Y-44600501D01*
X25736653Y-44600501D01*
X25736669Y-44600500D01*
X26754092Y-44600500D01*
X26821131Y-44620185D01*
X26859636Y-44664271D01*
X26861395Y-44663187D01*
X26865185Y-44669331D01*
X26865186Y-44669334D01*
X26957288Y-44818656D01*
X26957289Y-44818657D01*
X27050951Y-44912319D01*
X27084436Y-44973642D01*
X27079452Y-45043334D01*
X27050951Y-45087681D01*
X26957289Y-45181342D01*
X26861395Y-45336813D01*
X26859600Y-45335706D01*
X26820313Y-45380337D01*
X26754092Y-45399500D01*
X25736669Y-45399500D01*
X25736653Y-45399499D01*
X25729057Y-45399499D01*
X25570943Y-45399499D01*
X25463587Y-45428265D01*
X25418210Y-45440424D01*
X25418209Y-45440425D01*
X25368096Y-45469359D01*
X25368095Y-45469360D01*
X25341383Y-45484782D01*
X25281285Y-45519479D01*
X25281282Y-45519481D01*
X25169479Y-45631284D01*
X25169478Y-45631286D01*
X25137583Y-45663181D01*
X25137581Y-45663183D01*
X25076257Y-45696667D01*
X25049901Y-45699500D01*
X24576662Y-45699500D01*
X24576644Y-45699501D01*
X24477292Y-45709650D01*
X24477289Y-45709651D01*
X24316305Y-45762996D01*
X24316294Y-45763001D01*
X24171959Y-45852029D01*
X24171954Y-45852032D01*
X24140702Y-45883285D01*
X24079378Y-45916770D01*
X24009687Y-45911784D01*
X23953754Y-45869912D01*
X23948707Y-45862642D01*
X23870833Y-45741468D01*
X23870820Y-45741451D01*
X23825076Y-45688659D01*
X23825072Y-45688656D01*
X23825070Y-45688653D01*
X23716336Y-45594433D01*
X23716333Y-45594431D01*
X23716331Y-45594430D01*
X23585465Y-45534664D01*
X23585460Y-45534662D01*
X23585459Y-45534662D01*
X23518420Y-45514977D01*
X23518422Y-45514977D01*
X23518417Y-45514976D01*
X23456347Y-45506052D01*
X23376000Y-45494500D01*
X21624000Y-45494500D01*
X21623991Y-45494500D01*
X21623990Y-45494501D01*
X21516549Y-45506052D01*
X21516537Y-45506054D01*
X21465027Y-45517260D01*
X21362502Y-45551383D01*
X21362496Y-45551386D01*
X21241462Y-45629171D01*
X21241451Y-45629179D01*
X21188659Y-45674923D01*
X21094433Y-45783664D01*
X21094430Y-45783668D01*
X21034664Y-45914534D01*
X21014976Y-45981582D01*
X21011649Y-46004723D01*
X20994500Y-46124000D01*
X20994500Y-49876000D01*
X20994501Y-49876009D01*
X21006052Y-49983450D01*
X21006054Y-49983462D01*
X21017260Y-50034972D01*
X21051383Y-50137497D01*
X21051386Y-50137503D01*
X21129171Y-50258537D01*
X21129179Y-50258548D01*
X21174923Y-50311340D01*
X21174926Y-50311343D01*
X21174930Y-50311347D01*
X21283664Y-50405567D01*
X21283667Y-50405568D01*
X21283668Y-50405569D01*
X21389806Y-50454042D01*
X21414541Y-50465338D01*
X21481580Y-50485023D01*
X21481584Y-50485024D01*
X21624000Y-50505500D01*
X21851042Y-50505500D01*
X21918081Y-50525185D01*
X21956580Y-50564402D01*
X21962288Y-50573656D01*
X22086344Y-50697712D01*
X22235666Y-50789814D01*
X22402203Y-50844999D01*
X22504991Y-50855500D01*
X23495008Y-50855499D01*
X23495016Y-50855498D01*
X23495019Y-50855498D01*
X23551302Y-50849748D01*
X23597797Y-50844999D01*
X23764334Y-50789814D01*
X23913656Y-50697712D01*
X24037712Y-50573656D01*
X24086212Y-50495022D01*
X24131772Y-50454042D01*
X24130978Y-50452807D01*
X24137504Y-50448613D01*
X24258543Y-50370825D01*
X24311347Y-50325070D01*
X24405567Y-50216336D01*
X24441570Y-50137503D01*
X24462706Y-50091223D01*
X24508461Y-50038419D01*
X24575501Y-50018735D01*
X24642540Y-50038420D01*
X24688295Y-50091224D01*
X24699500Y-50142735D01*
X24699500Y-50779902D01*
X24679815Y-50846941D01*
X24663181Y-50867583D01*
X24158747Y-51372017D01*
X24097424Y-51405502D01*
X24027732Y-51400518D01*
X23983385Y-51372017D01*
X23913657Y-51302289D01*
X23913656Y-51302288D01*
X23793755Y-51228333D01*
X23764336Y-51210187D01*
X23764331Y-51210185D01*
X23762862Y-51209698D01*
X23597797Y-51155001D01*
X23597795Y-51155000D01*
X23495010Y-51144500D01*
X22504998Y-51144500D01*
X22504980Y-51144501D01*
X22402203Y-51155000D01*
X22402200Y-51155001D01*
X22235668Y-51210185D01*
X22235663Y-51210187D01*
X22086342Y-51302289D01*
X21962289Y-51426342D01*
X21870187Y-51575663D01*
X21870186Y-51575666D01*
X21815001Y-51742203D01*
X21815001Y-51742204D01*
X21815000Y-51742204D01*
X21804500Y-51844983D01*
X21804500Y-53035001D01*
X21804501Y-53035018D01*
X21815000Y-53137796D01*
X21815001Y-53137799D01*
X21870185Y-53304331D01*
X21870186Y-53304334D01*
X21962288Y-53453656D01*
X22086344Y-53577712D01*
X22235666Y-53669814D01*
X22314505Y-53695938D01*
X22371948Y-53735709D01*
X22398772Y-53800224D01*
X22399500Y-53813643D01*
X22399500Y-54345887D01*
X22379815Y-54412926D01*
X22327011Y-54458681D01*
X22317807Y-54462295D01*
X22316297Y-54462999D01*
X22171956Y-54552031D01*
X22052032Y-54671955D01*
X22052029Y-54671959D01*
X21963001Y-54816294D01*
X21962996Y-54816305D01*
X21909651Y-54977290D01*
X21899500Y-55076647D01*
X21899500Y-55623337D01*
X21899501Y-55623355D01*
X21909650Y-55722707D01*
X21909651Y-55722710D01*
X21962996Y-55883694D01*
X21963001Y-55883705D01*
X22052029Y-56028040D01*
X22052032Y-56028044D01*
X22171955Y-56147967D01*
X22171959Y-56147970D01*
X22316294Y-56236998D01*
X22316297Y-56236999D01*
X22316303Y-56237003D01*
X22477292Y-56290349D01*
X22576655Y-56300500D01*
X23423344Y-56300499D01*
X23423352Y-56300498D01*
X23423355Y-56300498D01*
X23477760Y-56294940D01*
X23522708Y-56290349D01*
X23683697Y-56237003D01*
X23828044Y-56147968D01*
X23947968Y-56028044D01*
X24037003Y-55883697D01*
X24090349Y-55722708D01*
X24100500Y-55623345D01*
X24100499Y-55076656D01*
X24097305Y-55045393D01*
X24090349Y-54977292D01*
X24090348Y-54977289D01*
X24078132Y-54940423D01*
X24037003Y-54816303D01*
X24036999Y-54816297D01*
X24036998Y-54816294D01*
X23947970Y-54671959D01*
X23947967Y-54671955D01*
X23828043Y-54552031D01*
X23683702Y-54462999D01*
X23677155Y-54459947D01*
X23677904Y-54458338D01*
X23628047Y-54423816D01*
X23601227Y-54359299D01*
X23600500Y-54345887D01*
X23600500Y-53813643D01*
X23620185Y-53746604D01*
X23672989Y-53700849D01*
X23685482Y-53695942D01*
X23764334Y-53669814D01*
X23913656Y-53577712D01*
X24037712Y-53453656D01*
X24129814Y-53304334D01*
X24184999Y-53137797D01*
X24194389Y-53045883D01*
X24220783Y-52981194D01*
X24255744Y-52951102D01*
X24308716Y-52920520D01*
X24420520Y-52808716D01*
X24420520Y-52808714D01*
X24430728Y-52798507D01*
X24430730Y-52798504D01*
X25266980Y-51962253D01*
X25328301Y-51928770D01*
X25397993Y-51933754D01*
X25410954Y-51939451D01*
X25500776Y-51985218D01*
X25500778Y-51985218D01*
X25500781Y-51985220D01*
X25605137Y-52019127D01*
X25695465Y-52048477D01*
X25796557Y-52064488D01*
X25897648Y-52080500D01*
X25897649Y-52080500D01*
X26102351Y-52080500D01*
X26102352Y-52080500D01*
X26304534Y-52048477D01*
X26499219Y-51985220D01*
X26681610Y-51892287D01*
X26774590Y-51824732D01*
X26847213Y-51771971D01*
X26847215Y-51771968D01*
X26847219Y-51771966D01*
X26991966Y-51627219D01*
X26991968Y-51627215D01*
X26991971Y-51627213D01*
X27112284Y-51461614D01*
X27112286Y-51461611D01*
X27112287Y-51461610D01*
X27159516Y-51368917D01*
X27207489Y-51318123D01*
X27275310Y-51301328D01*
X27341445Y-51323865D01*
X27380483Y-51368917D01*
X27396585Y-51400518D01*
X27427715Y-51461614D01*
X27548028Y-51627213D01*
X27692786Y-51771971D01*
X27840512Y-51879298D01*
X27858390Y-51892287D01*
X27974607Y-51951503D01*
X28040776Y-51985218D01*
X28040778Y-51985218D01*
X28040781Y-51985220D01*
X28145137Y-52019127D01*
X28235465Y-52048477D01*
X28336557Y-52064488D01*
X28437648Y-52080500D01*
X28437649Y-52080500D01*
X28642351Y-52080500D01*
X28642352Y-52080500D01*
X28844534Y-52048477D01*
X29039219Y-51985220D01*
X29221610Y-51892287D01*
X29314590Y-51824732D01*
X29387213Y-51771971D01*
X29387215Y-51771968D01*
X29387219Y-51771966D01*
X29531966Y-51627219D01*
X29531968Y-51627215D01*
X29531971Y-51627213D01*
X29652284Y-51461614D01*
X29652286Y-51461611D01*
X29652287Y-51461610D01*
X29699516Y-51368917D01*
X29747489Y-51318123D01*
X29815310Y-51301328D01*
X29881445Y-51323865D01*
X29920483Y-51368917D01*
X29936585Y-51400518D01*
X29967715Y-51461614D01*
X30088028Y-51627213D01*
X30232786Y-51771971D01*
X30380512Y-51879298D01*
X30398390Y-51892287D01*
X30514607Y-51951503D01*
X30580776Y-51985218D01*
X30580778Y-51985218D01*
X30580781Y-51985220D01*
X30685137Y-52019127D01*
X30775465Y-52048477D01*
X30876557Y-52064488D01*
X30977648Y-52080500D01*
X30977649Y-52080500D01*
X31182351Y-52080500D01*
X31182352Y-52080500D01*
X31384534Y-52048477D01*
X31579219Y-51985220D01*
X31761610Y-51892287D01*
X31854590Y-51824732D01*
X31927213Y-51771971D01*
X31927215Y-51771968D01*
X31927219Y-51771966D01*
X32071966Y-51627219D01*
X32071968Y-51627215D01*
X32071971Y-51627213D01*
X32192286Y-51461611D01*
X32192288Y-51461608D01*
X32239516Y-51368917D01*
X32287487Y-51318124D01*
X32355308Y-51301328D01*
X32421443Y-51323865D01*
X32460483Y-51368919D01*
X32507711Y-51461608D01*
X32507712Y-51461610D01*
X32628028Y-51627213D01*
X32772786Y-51771971D01*
X32920512Y-51879298D01*
X32938390Y-51892287D01*
X33054607Y-51951503D01*
X33120776Y-51985218D01*
X33120778Y-51985218D01*
X33120781Y-51985220D01*
X33225137Y-52019127D01*
X33315465Y-52048477D01*
X33416557Y-52064488D01*
X33517648Y-52080500D01*
X33517649Y-52080500D01*
X33722351Y-52080500D01*
X33722352Y-52080500D01*
X33924534Y-52048477D01*
X34119219Y-51985220D01*
X34301610Y-51892287D01*
X34394590Y-51824732D01*
X34467213Y-51771971D01*
X34467215Y-51771968D01*
X34467219Y-51771966D01*
X34611966Y-51627219D01*
X34611968Y-51627215D01*
X34611971Y-51627213D01*
X34673060Y-51543129D01*
X34732287Y-51461610D01*
X34825220Y-51279219D01*
X34888477Y-51084534D01*
X34920500Y-50882352D01*
X34920500Y-49877648D01*
X34888477Y-49675466D01*
X34825220Y-49480781D01*
X34825218Y-49480778D01*
X34825218Y-49480776D01*
X34769897Y-49372204D01*
X34732287Y-49298390D01*
X34724556Y-49287749D01*
X34611971Y-49132786D01*
X34467213Y-48988028D01*
X34301610Y-48867712D01*
X34288200Y-48860879D01*
X34237406Y-48812903D01*
X34220500Y-48750397D01*
X34220500Y-47224499D01*
X34240185Y-47157460D01*
X34292989Y-47111705D01*
X34344500Y-47100499D01*
X34500002Y-47100499D01*
X34500008Y-47100499D01*
X34602797Y-47089999D01*
X34769334Y-47034814D01*
X34918656Y-46942712D01*
X35042712Y-46818656D01*
X35134814Y-46669334D01*
X35134815Y-46669331D01*
X35138605Y-46663187D01*
X35140399Y-46664293D01*
X35179687Y-46619663D01*
X35245908Y-46600500D01*
X35775500Y-46600500D01*
X35842539Y-46620185D01*
X35888294Y-46672989D01*
X35899500Y-46724499D01*
X35899500Y-46923336D01*
X35899501Y-46923344D01*
X35909650Y-47022707D01*
X35909651Y-47022710D01*
X35962996Y-47183694D01*
X35963001Y-47183705D01*
X36052029Y-47328040D01*
X36052032Y-47328044D01*
X36171955Y-47447967D01*
X36171959Y-47447970D01*
X36316294Y-47536998D01*
X36316297Y-47536999D01*
X36316303Y-47537003D01*
X36477292Y-47590349D01*
X36576655Y-47600500D01*
X37423344Y-47600499D01*
X37423352Y-47600498D01*
X37423355Y-47600498D01*
X37477760Y-47594940D01*
X37522708Y-47590349D01*
X37683697Y-47537003D01*
X37828044Y-47447968D01*
X37947968Y-47328044D01*
X38037003Y-47183697D01*
X38090349Y-47022708D01*
X38100500Y-46923345D01*
X38100499Y-46376656D01*
X38090349Y-46277292D01*
X38037003Y-46116303D01*
X38036999Y-46116297D01*
X38036998Y-46116294D01*
X37947970Y-45971959D01*
X37947967Y-45971955D01*
X37828044Y-45852032D01*
X37828040Y-45852029D01*
X37683705Y-45763001D01*
X37683699Y-45762998D01*
X37683697Y-45762997D01*
X37683694Y-45762996D01*
X37522709Y-45709651D01*
X37423352Y-45699500D01*
X37423345Y-45699500D01*
X36950097Y-45699500D01*
X36920656Y-45690855D01*
X36890670Y-45684332D01*
X36885654Y-45680577D01*
X36883058Y-45679815D01*
X36862416Y-45663181D01*
X36837590Y-45638355D01*
X36837588Y-45638352D01*
X36718717Y-45519481D01*
X36718716Y-45519480D01*
X36631904Y-45469360D01*
X36631904Y-45469359D01*
X36631900Y-45469358D01*
X36581785Y-45440423D01*
X36429057Y-45399499D01*
X36270943Y-45399499D01*
X36263347Y-45399499D01*
X36263331Y-45399500D01*
X35245908Y-45399500D01*
X35178869Y-45379815D01*
X35140363Y-45335728D01*
X35138605Y-45336813D01*
X35134812Y-45330663D01*
X35042712Y-45181344D01*
X34949049Y-45087681D01*
X34915564Y-45026358D01*
X34920548Y-44956666D01*
X34949049Y-44912319D01*
X35042712Y-44818656D01*
X35134814Y-44669334D01*
X35134815Y-44669331D01*
X35138605Y-44663187D01*
X35140399Y-44664293D01*
X35179687Y-44619663D01*
X35245908Y-44600500D01*
X36263331Y-44600500D01*
X36263347Y-44600501D01*
X36270943Y-44600501D01*
X36429054Y-44600501D01*
X36429057Y-44600501D01*
X36581785Y-44559577D01*
X36631904Y-44530639D01*
X36718716Y-44480520D01*
X36830520Y-44368716D01*
X36830520Y-44368714D01*
X36840728Y-44358507D01*
X36840731Y-44358503D01*
X36862418Y-44336816D01*
X36923742Y-44303332D01*
X36950097Y-44300499D01*
X37423338Y-44300499D01*
X37423344Y-44300499D01*
X37423352Y-44300498D01*
X37423355Y-44300498D01*
X37477760Y-44294940D01*
X37522708Y-44290349D01*
X37683697Y-44237003D01*
X37828044Y-44147968D01*
X37947968Y-44028044D01*
X38037003Y-43883697D01*
X38090349Y-43722708D01*
X38100500Y-43623345D01*
X38100499Y-43076656D01*
X38096754Y-43039999D01*
X38090349Y-42977292D01*
X38090348Y-42977289D01*
X38086338Y-42965187D01*
X38037003Y-42816303D01*
X38036999Y-42816297D01*
X38036998Y-42816294D01*
X37947970Y-42671959D01*
X37947967Y-42671955D01*
X37828044Y-42552032D01*
X37828040Y-42552029D01*
X37683705Y-42463001D01*
X37683699Y-42462998D01*
X37683697Y-42462997D01*
X37604790Y-42436850D01*
X37522709Y-42409651D01*
X37423346Y-42399500D01*
X36576662Y-42399500D01*
X36576644Y-42399501D01*
X36477292Y-42409650D01*
X36477289Y-42409651D01*
X36316305Y-42462996D01*
X36316294Y-42463001D01*
X36189597Y-42541150D01*
X36122205Y-42559591D01*
X36055541Y-42538669D01*
X36010771Y-42485027D01*
X36000500Y-42435612D01*
X36000500Y-37400097D01*
X36020185Y-37333058D01*
X36036819Y-37312416D01*
X36740494Y-36608741D01*
X37480520Y-35868716D01*
X37559577Y-35731784D01*
X37596924Y-35592404D01*
X37633290Y-35532744D01*
X37696137Y-35502216D01*
X37716699Y-35500499D01*
X38000371Y-35500499D01*
X38000372Y-35500499D01*
X38059983Y-35494091D01*
X38059986Y-35494089D01*
X38061313Y-35493947D01*
X38130072Y-35506353D01*
X38181210Y-35553963D01*
X38198489Y-35621663D01*
X38176424Y-35687957D01*
X38168281Y-35698440D01*
X38094432Y-35783664D01*
X38094430Y-35783668D01*
X38034664Y-35914534D01*
X38034662Y-35914541D01*
X38014977Y-35981580D01*
X38014976Y-35981584D01*
X37994500Y-36124000D01*
X37994500Y-40626000D01*
X37994501Y-40626009D01*
X38006052Y-40733450D01*
X38006054Y-40733462D01*
X38017260Y-40784972D01*
X38051383Y-40887497D01*
X38051386Y-40887503D01*
X38129171Y-41008537D01*
X38129179Y-41008548D01*
X38174923Y-41061340D01*
X38174926Y-41061343D01*
X38174930Y-41061347D01*
X38283664Y-41155567D01*
X38283667Y-41155568D01*
X38283668Y-41155569D01*
X38401525Y-41209394D01*
X38414541Y-41215338D01*
X38481580Y-41235023D01*
X38481584Y-41235024D01*
X38624000Y-41255500D01*
X41298039Y-41255500D01*
X41319466Y-41261791D01*
X41341737Y-41263455D01*
X41352340Y-41271444D01*
X41365078Y-41275185D01*
X41379701Y-41292061D01*
X41397539Y-41305502D01*
X41405367Y-41321681D01*
X41410833Y-41327989D01*
X41414356Y-41336532D01*
X41416335Y-41341890D01*
X41440423Y-41431785D01*
X41460468Y-41466503D01*
X41473865Y-41489707D01*
X41519479Y-41568715D01*
X41638349Y-41687585D01*
X41638355Y-41687590D01*
X42115139Y-42164374D01*
X42115149Y-42164385D01*
X42119479Y-42168715D01*
X42119480Y-42168716D01*
X42231284Y-42280520D01*
X42302765Y-42321789D01*
X42306691Y-42324056D01*
X42368215Y-42359577D01*
X42520943Y-42400500D01*
X42679057Y-42400500D01*
X44099903Y-42400500D01*
X44166942Y-42420185D01*
X44187584Y-42436819D01*
X44863181Y-43112416D01*
X44896666Y-43173739D01*
X44899500Y-43200097D01*
X44899500Y-48650500D01*
X44879815Y-48717539D01*
X44827011Y-48763294D01*
X44775501Y-48774500D01*
X44649999Y-48774500D01*
X44649980Y-48774501D01*
X44547203Y-48785000D01*
X44547200Y-48785001D01*
X44380668Y-48840185D01*
X44380663Y-48840187D01*
X44231342Y-48932289D01*
X44107289Y-49056342D01*
X44015187Y-49205663D01*
X44015186Y-49205666D01*
X43960001Y-49372203D01*
X43960001Y-49372204D01*
X43960000Y-49372204D01*
X43949500Y-49474983D01*
X43949500Y-50525001D01*
X43949501Y-50525019D01*
X43960000Y-50627796D01*
X43960003Y-50627806D01*
X43976503Y-50677602D01*
X43978904Y-50747430D01*
X43946478Y-50804285D01*
X43490078Y-51260685D01*
X43428755Y-51294170D01*
X43392672Y-51296622D01*
X43365709Y-51294500D01*
X43365694Y-51294500D01*
X41584306Y-51294500D01*
X41584298Y-51294500D01*
X41547432Y-51297401D01*
X41547426Y-51297402D01*
X41389606Y-51343254D01*
X41389603Y-51343255D01*
X41248137Y-51426917D01*
X41248129Y-51426923D01*
X41131923Y-51543129D01*
X41131917Y-51543137D01*
X41048255Y-51684603D01*
X41048254Y-51684606D01*
X41002402Y-51842426D01*
X41002401Y-51842432D01*
X40999500Y-51879298D01*
X40999500Y-52310701D01*
X41002401Y-52347567D01*
X41002402Y-52347573D01*
X41048254Y-52505393D01*
X41048255Y-52505396D01*
X41131917Y-52646862D01*
X41131923Y-52646870D01*
X41248129Y-52763076D01*
X41248133Y-52763079D01*
X41248135Y-52763081D01*
X41389602Y-52846744D01*
X41431224Y-52858836D01*
X41547426Y-52892597D01*
X41547429Y-52892597D01*
X41547431Y-52892598D01*
X41584306Y-52895500D01*
X41584314Y-52895500D01*
X43365686Y-52895500D01*
X43365694Y-52895500D01*
X43402569Y-52892598D01*
X43402571Y-52892597D01*
X43402573Y-52892597D01*
X43444191Y-52880505D01*
X43560398Y-52846744D01*
X43701865Y-52763081D01*
X43818081Y-52646865D01*
X43836895Y-52615051D01*
X43856834Y-52589612D01*
X43867625Y-52579036D01*
X43873716Y-52575520D01*
X43985520Y-52463716D01*
X43985521Y-52463713D01*
X45187416Y-51261818D01*
X45248739Y-51228333D01*
X45275097Y-51225499D01*
X45425002Y-51225499D01*
X45425008Y-51225499D01*
X45527797Y-51214999D01*
X45694334Y-51159814D01*
X45843656Y-51067712D01*
X45967712Y-50943656D01*
X46059814Y-50794334D01*
X46114999Y-50627797D01*
X46125500Y-50525009D01*
X46125499Y-49474992D01*
X46114999Y-49372203D01*
X46106794Y-49347441D01*
X46100500Y-49308437D01*
X46100500Y-42989059D01*
X46100501Y-42989046D01*
X46100501Y-42820945D01*
X46100501Y-42820943D01*
X46059577Y-42668215D01*
X46030639Y-42618095D01*
X45980520Y-42531284D01*
X45868716Y-42419480D01*
X45868715Y-42419479D01*
X45864385Y-42415149D01*
X45864374Y-42415139D01*
X44916416Y-41467181D01*
X44882931Y-41405858D01*
X44887915Y-41336166D01*
X44929787Y-41280233D01*
X44995251Y-41255816D01*
X45004097Y-41255500D01*
X46175990Y-41255500D01*
X46176000Y-41255500D01*
X46283456Y-41243947D01*
X46334967Y-41232741D01*
X46369197Y-41221347D01*
X46437497Y-41198616D01*
X46437501Y-41198613D01*
X46437504Y-41198613D01*
X46558543Y-41120825D01*
X46611347Y-41075070D01*
X46705567Y-40966336D01*
X46765338Y-40835459D01*
X46785023Y-40768420D01*
X46785024Y-40768416D01*
X46805500Y-40626000D01*
X46805500Y-33124000D01*
X46825185Y-33056961D01*
X46877989Y-33011206D01*
X46929500Y-33000000D01*
X49423000Y-33000000D01*
X49490039Y-33019685D01*
X49535794Y-33072489D01*
X49547000Y-33124000D01*
X49547000Y-35047870D01*
X49547001Y-35047876D01*
X49553408Y-35107483D01*
X49603702Y-35242328D01*
X49603706Y-35242335D01*
X49689952Y-35357544D01*
X49689955Y-35357547D01*
X49805164Y-35443793D01*
X49805171Y-35443797D01*
X49805174Y-35443798D01*
X49940017Y-35494091D01*
X49999627Y-35500500D01*
X50283301Y-35500499D01*
X50306129Y-35507201D01*
X50329804Y-35509549D01*
X50339036Y-35516864D01*
X50350340Y-35520183D01*
X50365920Y-35538163D01*
X50384568Y-35552938D01*
X50391463Y-35567641D01*
X50396095Y-35572987D01*
X50400627Y-35584367D01*
X50401987Y-35588345D01*
X50440423Y-35731785D01*
X50460468Y-35766503D01*
X50500571Y-35835964D01*
X50519479Y-35868715D01*
X50638349Y-35987585D01*
X50638355Y-35987590D01*
X52063181Y-37412416D01*
X52096666Y-37473739D01*
X52099500Y-37500097D01*
X52099500Y-42524126D01*
X52079815Y-42591165D01*
X52027011Y-42636920D01*
X51957853Y-42646864D01*
X51894297Y-42617839D01*
X51887819Y-42611807D01*
X51828044Y-42552032D01*
X51828040Y-42552029D01*
X51683705Y-42463001D01*
X51683699Y-42462998D01*
X51683697Y-42462997D01*
X51604790Y-42436850D01*
X51522709Y-42409651D01*
X51423346Y-42399500D01*
X50576662Y-42399500D01*
X50576644Y-42399501D01*
X50477292Y-42409650D01*
X50477289Y-42409651D01*
X50316305Y-42462996D01*
X50316294Y-42463001D01*
X50171959Y-42552029D01*
X50171955Y-42552032D01*
X50052032Y-42671955D01*
X50052029Y-42671959D01*
X49963001Y-42816294D01*
X49962996Y-42816305D01*
X49909651Y-42977290D01*
X49899500Y-43076647D01*
X49899500Y-43623337D01*
X49899501Y-43623355D01*
X49909650Y-43722707D01*
X49909651Y-43722710D01*
X49962996Y-43883694D01*
X49963001Y-43883705D01*
X50052029Y-44028040D01*
X50052032Y-44028044D01*
X50171955Y-44147967D01*
X50171959Y-44147970D01*
X50316294Y-44236998D01*
X50316297Y-44236999D01*
X50316303Y-44237003D01*
X50477292Y-44290349D01*
X50576655Y-44300500D01*
X51049902Y-44300499D01*
X51079348Y-44309145D01*
X51109329Y-44315667D01*
X51114342Y-44319419D01*
X51116941Y-44320183D01*
X51137583Y-44336818D01*
X51165139Y-44364374D01*
X51165149Y-44364385D01*
X51169479Y-44368715D01*
X51169480Y-44368716D01*
X51281284Y-44480520D01*
X51368095Y-44530639D01*
X51368097Y-44530641D01*
X51383665Y-44539629D01*
X51418215Y-44559577D01*
X51570943Y-44600501D01*
X51570946Y-44600501D01*
X51736653Y-44600501D01*
X51736669Y-44600500D01*
X52754092Y-44600500D01*
X52821131Y-44620185D01*
X52859636Y-44664271D01*
X52861395Y-44663187D01*
X52865185Y-44669331D01*
X52865186Y-44669334D01*
X52957288Y-44818656D01*
X52957289Y-44818657D01*
X53050951Y-44912319D01*
X53084436Y-44973642D01*
X53079452Y-45043334D01*
X53050951Y-45087681D01*
X52957289Y-45181342D01*
X52861395Y-45336813D01*
X52859600Y-45335706D01*
X52820313Y-45380337D01*
X52754092Y-45399500D01*
X51736669Y-45399500D01*
X51736653Y-45399499D01*
X51729057Y-45399499D01*
X51570943Y-45399499D01*
X51463587Y-45428265D01*
X51418210Y-45440424D01*
X51418209Y-45440425D01*
X51368096Y-45469359D01*
X51368095Y-45469360D01*
X51341383Y-45484782D01*
X51281285Y-45519479D01*
X51281282Y-45519481D01*
X51169479Y-45631284D01*
X51169478Y-45631286D01*
X51137583Y-45663181D01*
X51137581Y-45663183D01*
X51076257Y-45696667D01*
X51049901Y-45699500D01*
X50576662Y-45699500D01*
X50576644Y-45699501D01*
X50477292Y-45709650D01*
X50477289Y-45709651D01*
X50316305Y-45762996D01*
X50316294Y-45763001D01*
X50171959Y-45852029D01*
X50171954Y-45852032D01*
X50140702Y-45883285D01*
X50079378Y-45916770D01*
X50009687Y-45911784D01*
X49953754Y-45869912D01*
X49948707Y-45862642D01*
X49870833Y-45741468D01*
X49870820Y-45741451D01*
X49825076Y-45688659D01*
X49825072Y-45688656D01*
X49825070Y-45688653D01*
X49716336Y-45594433D01*
X49716333Y-45594431D01*
X49716331Y-45594430D01*
X49585465Y-45534664D01*
X49585460Y-45534662D01*
X49585459Y-45534662D01*
X49518420Y-45514977D01*
X49518422Y-45514977D01*
X49518417Y-45514976D01*
X49456347Y-45506052D01*
X49376000Y-45494500D01*
X47624000Y-45494500D01*
X47623991Y-45494500D01*
X47623990Y-45494501D01*
X47516549Y-45506052D01*
X47516537Y-45506054D01*
X47465027Y-45517260D01*
X47362502Y-45551383D01*
X47362496Y-45551386D01*
X47241462Y-45629171D01*
X47241451Y-45629179D01*
X47188659Y-45674923D01*
X47094433Y-45783664D01*
X47094430Y-45783668D01*
X47034664Y-45914534D01*
X47014976Y-45981582D01*
X47011649Y-46004723D01*
X46994500Y-46124000D01*
X46994500Y-49876000D01*
X46994501Y-49876009D01*
X47006052Y-49983450D01*
X47006054Y-49983462D01*
X47017260Y-50034972D01*
X47051383Y-50137497D01*
X47051386Y-50137503D01*
X47129171Y-50258537D01*
X47129179Y-50258548D01*
X47174923Y-50311340D01*
X47174926Y-50311343D01*
X47174930Y-50311347D01*
X47283664Y-50405567D01*
X47283667Y-50405568D01*
X47283668Y-50405569D01*
X47389806Y-50454042D01*
X47414541Y-50465338D01*
X47481580Y-50485023D01*
X47481584Y-50485024D01*
X47624000Y-50505500D01*
X47851042Y-50505500D01*
X47918081Y-50525185D01*
X47956580Y-50564402D01*
X47962288Y-50573656D01*
X48086344Y-50697712D01*
X48235666Y-50789814D01*
X48402203Y-50844999D01*
X48504991Y-50855500D01*
X49495008Y-50855499D01*
X49495016Y-50855498D01*
X49495019Y-50855498D01*
X49551302Y-50849748D01*
X49597797Y-50844999D01*
X49764334Y-50789814D01*
X49913656Y-50697712D01*
X50037712Y-50573656D01*
X50086212Y-50495022D01*
X50131772Y-50454042D01*
X50130978Y-50452807D01*
X50137504Y-50448613D01*
X50258543Y-50370825D01*
X50311347Y-50325070D01*
X50405567Y-50216336D01*
X50441570Y-50137503D01*
X50462706Y-50091223D01*
X50508461Y-50038419D01*
X50575501Y-50018735D01*
X50642540Y-50038420D01*
X50688295Y-50091224D01*
X50699500Y-50142735D01*
X50699500Y-50779902D01*
X50679815Y-50846941D01*
X50663181Y-50867583D01*
X50158747Y-51372017D01*
X50097424Y-51405502D01*
X50027732Y-51400518D01*
X49983385Y-51372017D01*
X49913657Y-51302289D01*
X49913656Y-51302288D01*
X49793755Y-51228333D01*
X49764336Y-51210187D01*
X49764331Y-51210185D01*
X49762862Y-51209698D01*
X49597797Y-51155001D01*
X49597795Y-51155000D01*
X49495010Y-51144500D01*
X48504998Y-51144500D01*
X48504980Y-51144501D01*
X48402203Y-51155000D01*
X48402200Y-51155001D01*
X48235668Y-51210185D01*
X48235663Y-51210187D01*
X48086342Y-51302289D01*
X47962289Y-51426342D01*
X47870187Y-51575663D01*
X47870186Y-51575666D01*
X47815001Y-51742203D01*
X47815001Y-51742204D01*
X47815000Y-51742204D01*
X47804500Y-51844983D01*
X47804500Y-53035001D01*
X47804501Y-53035018D01*
X47815000Y-53137796D01*
X47815001Y-53137799D01*
X47870185Y-53304331D01*
X47870186Y-53304334D01*
X47962288Y-53453656D01*
X48086344Y-53577712D01*
X48235666Y-53669814D01*
X48314505Y-53695938D01*
X48371948Y-53735709D01*
X48398772Y-53800224D01*
X48399500Y-53813643D01*
X48399500Y-54345887D01*
X48379815Y-54412926D01*
X48327011Y-54458681D01*
X48317807Y-54462295D01*
X48316297Y-54462999D01*
X48171956Y-54552031D01*
X48052032Y-54671955D01*
X48052029Y-54671959D01*
X47963001Y-54816294D01*
X47962996Y-54816305D01*
X47909651Y-54977290D01*
X47899500Y-55076647D01*
X47899500Y-55623337D01*
X47899501Y-55623355D01*
X47909650Y-55722707D01*
X47909651Y-55722710D01*
X47962996Y-55883694D01*
X47963001Y-55883705D01*
X48052029Y-56028040D01*
X48052032Y-56028044D01*
X48171956Y-56147968D01*
X48207614Y-56169962D01*
X48254337Y-56221909D01*
X48265560Y-56290872D01*
X48237716Y-56354954D01*
X48179647Y-56393810D01*
X48142516Y-56399500D01*
X47262597Y-56399500D01*
X47195558Y-56379815D01*
X47174916Y-56363181D01*
X46261818Y-55450083D01*
X46228333Y-55388760D01*
X46225499Y-55362402D01*
X46225499Y-54649998D01*
X46225498Y-54649981D01*
X46214999Y-54547203D01*
X46214998Y-54547200D01*
X46159814Y-54380666D01*
X46067712Y-54231344D01*
X45943656Y-54107288D01*
X45825647Y-54034500D01*
X45794336Y-54015187D01*
X45794331Y-54015185D01*
X45743013Y-53998180D01*
X45627797Y-53960001D01*
X45627795Y-53960000D01*
X45525010Y-53949500D01*
X44474998Y-53949500D01*
X44474980Y-53949501D01*
X44372203Y-53960000D01*
X44372200Y-53960001D01*
X44205668Y-54015185D01*
X44205661Y-54015188D01*
X44204285Y-54016038D01*
X44203150Y-54016359D01*
X44199118Y-54018240D01*
X44198814Y-54017589D01*
X44139187Y-54034500D01*
X43820808Y-54034500D01*
X43753769Y-54014815D01*
X43733126Y-53998180D01*
X43701870Y-53966923D01*
X43701862Y-53966917D01*
X43560396Y-53883255D01*
X43560393Y-53883254D01*
X43402573Y-53837402D01*
X43402567Y-53837401D01*
X43365701Y-53834500D01*
X43365694Y-53834500D01*
X41584306Y-53834500D01*
X41584298Y-53834500D01*
X41547432Y-53837401D01*
X41547426Y-53837402D01*
X41389606Y-53883254D01*
X41389603Y-53883255D01*
X41248137Y-53966917D01*
X41248129Y-53966923D01*
X41131923Y-54083129D01*
X41131917Y-54083137D01*
X41048255Y-54224603D01*
X41048254Y-54224606D01*
X41002402Y-54382426D01*
X41002401Y-54382432D01*
X40999500Y-54419298D01*
X40999500Y-54850701D01*
X41002401Y-54887567D01*
X41002402Y-54887573D01*
X41048254Y-55045393D01*
X41048255Y-55045396D01*
X41131917Y-55186862D01*
X41136702Y-55193031D01*
X41134256Y-55194927D01*
X41160857Y-55243642D01*
X41155873Y-55313334D01*
X41135069Y-55345703D01*
X41136702Y-55346969D01*
X41131917Y-55353137D01*
X41048255Y-55494603D01*
X41048254Y-55494606D01*
X41002402Y-55652426D01*
X41002401Y-55652432D01*
X40999500Y-55689298D01*
X40999500Y-56120701D01*
X41002401Y-56157567D01*
X41002402Y-56157573D01*
X41048253Y-56315393D01*
X41061397Y-56337618D01*
X41078577Y-56405343D01*
X41056416Y-56471605D01*
X41042344Y-56488418D01*
X39917584Y-57613181D01*
X39856261Y-57646666D01*
X39829903Y-57649500D01*
X39320943Y-57649500D01*
X39168216Y-57690423D01*
X39168209Y-57690426D01*
X39031290Y-57769475D01*
X39031282Y-57769481D01*
X38913733Y-57887031D01*
X38912139Y-57885437D01*
X38908503Y-57888091D01*
X38898994Y-57901197D01*
X38880869Y-57908266D01*
X38865154Y-57919740D01*
X38848988Y-57920701D01*
X38833901Y-57926587D01*
X38814828Y-57922734D01*
X38795407Y-57923890D01*
X38781287Y-57915959D01*
X38765414Y-57912753D01*
X38751452Y-57899201D01*
X38734489Y-57889673D01*
X38726368Y-57874853D01*
X38715279Y-57864089D01*
X38707143Y-57839767D01*
X38702454Y-57831208D01*
X38700500Y-57822829D01*
X38700500Y-57820943D01*
X38697636Y-57810256D01*
X38689277Y-57779057D01*
X38659577Y-57668216D01*
X38659573Y-57668209D01*
X38580524Y-57531290D01*
X38580521Y-57531286D01*
X38580520Y-57531284D01*
X38468716Y-57419480D01*
X38468715Y-57419479D01*
X38464385Y-57415149D01*
X38464374Y-57415139D01*
X37887590Y-56838355D01*
X37887588Y-56838352D01*
X37768717Y-56719481D01*
X37768716Y-56719480D01*
X37660054Y-56656744D01*
X37660052Y-56656743D01*
X37631785Y-56640423D01*
X37631784Y-56640422D01*
X37631783Y-56640422D01*
X37575881Y-56625443D01*
X37479057Y-56599499D01*
X37320943Y-56599499D01*
X37313347Y-56599499D01*
X37313331Y-56599500D01*
X35720940Y-56599500D01*
X35680019Y-56610464D01*
X35680019Y-56610465D01*
X35667297Y-56613874D01*
X35568214Y-56640423D01*
X35568209Y-56640426D01*
X35431290Y-56719475D01*
X35431282Y-56719481D01*
X34619481Y-57531282D01*
X34619479Y-57531285D01*
X34608618Y-57550097D01*
X34579518Y-57600501D01*
X34540423Y-57668215D01*
X34499499Y-57820943D01*
X34499499Y-57820945D01*
X34499499Y-57989046D01*
X34499500Y-57989059D01*
X34499500Y-58899901D01*
X34490856Y-58929337D01*
X34484333Y-58959327D01*
X34480577Y-58964344D01*
X34479815Y-58966940D01*
X34463182Y-58987582D01*
X34387584Y-59063181D01*
X34326261Y-59096666D01*
X34299902Y-59099500D01*
X33386670Y-59099500D01*
X33386654Y-59099499D01*
X33379058Y-59099499D01*
X33220943Y-59099499D01*
X33144579Y-59119961D01*
X33068214Y-59140423D01*
X33068209Y-59140426D01*
X32931290Y-59219475D01*
X32931282Y-59219481D01*
X32387583Y-59763181D01*
X32326260Y-59796666D01*
X32299902Y-59799500D01*
X31804500Y-59799500D01*
X31795814Y-59796949D01*
X31786853Y-59798238D01*
X31762812Y-59787259D01*
X31737461Y-59779815D01*
X31731533Y-59772974D01*
X31723297Y-59769213D01*
X31709007Y-59746978D01*
X31691706Y-59727011D01*
X31689418Y-59716496D01*
X31685523Y-59710435D01*
X31680500Y-59675500D01*
X31680500Y-59629601D01*
X31700185Y-59562562D01*
X31748206Y-59519116D01*
X31761610Y-59512287D01*
X31927219Y-59391966D01*
X32071966Y-59247219D01*
X32071968Y-59247215D01*
X32071971Y-59247213D01*
X32149555Y-59140426D01*
X32192287Y-59081610D01*
X32285220Y-58899219D01*
X32348477Y-58704534D01*
X32380500Y-58502352D01*
X32380500Y-57497648D01*
X32377956Y-57481582D01*
X32348477Y-57295465D01*
X32304324Y-57159577D01*
X32285220Y-57100781D01*
X32285218Y-57100778D01*
X32285218Y-57100776D01*
X32242663Y-57017259D01*
X32192287Y-56918390D01*
X32134139Y-56838355D01*
X32071971Y-56752786D01*
X31927213Y-56608028D01*
X31761613Y-56487715D01*
X31761612Y-56487714D01*
X31761610Y-56487713D01*
X31689665Y-56451055D01*
X31579223Y-56394781D01*
X31384534Y-56331522D01*
X31209995Y-56303878D01*
X31182352Y-56299500D01*
X30977648Y-56299500D01*
X30953329Y-56303351D01*
X30775465Y-56331522D01*
X30580776Y-56394781D01*
X30398386Y-56487715D01*
X30232786Y-56608028D01*
X30088028Y-56752786D01*
X29967715Y-56918386D01*
X29920485Y-57011080D01*
X29872510Y-57061876D01*
X29804689Y-57078671D01*
X29738554Y-57056134D01*
X29699515Y-57011080D01*
X29693865Y-56999992D01*
X29652287Y-56918390D01*
X29594139Y-56838355D01*
X29531971Y-56752786D01*
X29387213Y-56608028D01*
X29221613Y-56487715D01*
X29221612Y-56487714D01*
X29221610Y-56487713D01*
X29149665Y-56451055D01*
X29039223Y-56394781D01*
X28844534Y-56331522D01*
X28669995Y-56303878D01*
X28642352Y-56299500D01*
X28437648Y-56299500D01*
X28413329Y-56303351D01*
X28235465Y-56331522D01*
X28040776Y-56394781D01*
X27858386Y-56487715D01*
X27692786Y-56608028D01*
X27548032Y-56752782D01*
X27548028Y-56752787D01*
X27479978Y-56846451D01*
X27424648Y-56889117D01*
X27355035Y-56895096D01*
X27293240Y-56862490D01*
X27261954Y-56812570D01*
X27234814Y-56730666D01*
X27142712Y-56581344D01*
X27018656Y-56457288D01*
X27018655Y-56457287D01*
X27008551Y-56451055D01*
X26961827Y-56399106D01*
X26955994Y-56384673D01*
X26948613Y-56362497D01*
X26948614Y-56362497D01*
X26878901Y-56254024D01*
X26870825Y-56241457D01*
X26853887Y-56221909D01*
X26825076Y-56188659D01*
X26825072Y-56188656D01*
X26825070Y-56188653D01*
X26716336Y-56094433D01*
X26716333Y-56094431D01*
X26716331Y-56094430D01*
X26585465Y-56034664D01*
X26585460Y-56034662D01*
X26585459Y-56034662D01*
X26518420Y-56014977D01*
X26518422Y-56014977D01*
X26518417Y-56014976D01*
X26465890Y-56007424D01*
X26376000Y-55994500D01*
X24576636Y-55994500D01*
X24560737Y-55996642D01*
X24442789Y-56012541D01*
X24442788Y-56012541D01*
X24379474Y-56029926D01*
X24379461Y-56029930D01*
X24255175Y-56082766D01*
X24148073Y-56169154D01*
X24148065Y-56169162D01*
X24143184Y-56173100D01*
X24095597Y-56224259D01*
X24082185Y-56243593D01*
X24082181Y-56243599D01*
X24013593Y-56342481D01*
X24013592Y-56342483D01*
X23721857Y-56925954D01*
X23674270Y-56977113D01*
X23610948Y-56994500D01*
X21124000Y-56994500D01*
X21123991Y-56994500D01*
X21123990Y-56994501D01*
X21016549Y-57006052D01*
X21016537Y-57006054D01*
X20965027Y-57017260D01*
X20862502Y-57051383D01*
X20862496Y-57051386D01*
X20741462Y-57129171D01*
X20741451Y-57129179D01*
X20688659Y-57174923D01*
X20594433Y-57283664D01*
X20594430Y-57283668D01*
X20534664Y-57414534D01*
X20514976Y-57481582D01*
X20508915Y-57523739D01*
X20497879Y-57600502D01*
X20497238Y-57604958D01*
X20468213Y-57668513D01*
X20409435Y-57706288D01*
X20339566Y-57706288D01*
X20280787Y-57668514D01*
X20251762Y-57604958D01*
X20250500Y-57587311D01*
X20250500Y-37421153D01*
X20699500Y-37421153D01*
X20699500Y-37578846D01*
X20730261Y-37733489D01*
X20730264Y-37733501D01*
X20790602Y-37879172D01*
X20790609Y-37879185D01*
X20878210Y-38010288D01*
X20878213Y-38010292D01*
X20989707Y-38121786D01*
X20989710Y-38121788D01*
X20989711Y-38121789D01*
X21015219Y-38138833D01*
X21027289Y-38146898D01*
X21072093Y-38200511D01*
X21080800Y-38269836D01*
X21050645Y-38332863D01*
X21027289Y-38353102D01*
X20989707Y-38378213D01*
X20878213Y-38489707D01*
X20878210Y-38489711D01*
X20790609Y-38620814D01*
X20790602Y-38620827D01*
X20730264Y-38766498D01*
X20730261Y-38766510D01*
X20699500Y-38921153D01*
X20699500Y-39078846D01*
X20730261Y-39233489D01*
X20730264Y-39233501D01*
X20790602Y-39379172D01*
X20790609Y-39379185D01*
X20878210Y-39510288D01*
X20878213Y-39510292D01*
X20989707Y-39621786D01*
X20989710Y-39621788D01*
X20989711Y-39621789D01*
X21015219Y-39638833D01*
X21027289Y-39646898D01*
X21072093Y-39700511D01*
X21080800Y-39769836D01*
X21050645Y-39832863D01*
X21027289Y-39853102D01*
X20989707Y-39878213D01*
X20878213Y-39989707D01*
X20878210Y-39989711D01*
X20790609Y-40120814D01*
X20790602Y-40120827D01*
X20730264Y-40266498D01*
X20730261Y-40266510D01*
X20699500Y-40421153D01*
X20699500Y-40578846D01*
X20730261Y-40733489D01*
X20730264Y-40733501D01*
X20790602Y-40879172D01*
X20790609Y-40879185D01*
X20878210Y-41010288D01*
X20878213Y-41010292D01*
X20989707Y-41121786D01*
X20989710Y-41121788D01*
X20989711Y-41121789D01*
X21015219Y-41138833D01*
X21027289Y-41146898D01*
X21072093Y-41200511D01*
X21080800Y-41269836D01*
X21050645Y-41332863D01*
X21027289Y-41353102D01*
X20989707Y-41378213D01*
X20878213Y-41489707D01*
X20878210Y-41489711D01*
X20790609Y-41620814D01*
X20790602Y-41620827D01*
X20730264Y-41766498D01*
X20730261Y-41766510D01*
X20699500Y-41921153D01*
X20699500Y-42078846D01*
X20730261Y-42233489D01*
X20730264Y-42233501D01*
X20790602Y-42379172D01*
X20790609Y-42379185D01*
X20878210Y-42510288D01*
X20878213Y-42510292D01*
X20989707Y-42621786D01*
X20989711Y-42621789D01*
X21120814Y-42709390D01*
X21120827Y-42709397D01*
X21266498Y-42769735D01*
X21266503Y-42769737D01*
X21421153Y-42800499D01*
X21421156Y-42800500D01*
X21421158Y-42800500D01*
X21578844Y-42800500D01*
X21578845Y-42800499D01*
X21733497Y-42769737D01*
X21879179Y-42709394D01*
X22010289Y-42621789D01*
X22121789Y-42510289D01*
X22129145Y-42499279D01*
X22146898Y-42472712D01*
X22200510Y-42427906D01*
X22269835Y-42419199D01*
X22332862Y-42449353D01*
X22353102Y-42472712D01*
X22378207Y-42510284D01*
X22378213Y-42510292D01*
X22489707Y-42621786D01*
X22489711Y-42621789D01*
X22620814Y-42709390D01*
X22620827Y-42709397D01*
X22766498Y-42769735D01*
X22766503Y-42769737D01*
X22921153Y-42800499D01*
X22921156Y-42800500D01*
X22921158Y-42800500D01*
X23078844Y-42800500D01*
X23078845Y-42800499D01*
X23233497Y-42769737D01*
X23379179Y-42709394D01*
X23510289Y-42621789D01*
X23621789Y-42510289D01*
X23709394Y-42379179D01*
X23709945Y-42377850D01*
X23730180Y-42328997D01*
X23769737Y-42233497D01*
X23800500Y-42078842D01*
X23800500Y-41921158D01*
X23800500Y-41921155D01*
X23800499Y-41921153D01*
X23769738Y-41766510D01*
X23769737Y-41766503D01*
X23750000Y-41718853D01*
X23709397Y-41620827D01*
X23709390Y-41620814D01*
X23621789Y-41489711D01*
X23621786Y-41489707D01*
X23510292Y-41378213D01*
X23510284Y-41378207D01*
X23472712Y-41353102D01*
X23427906Y-41299490D01*
X23419199Y-41230165D01*
X23449353Y-41167138D01*
X23472712Y-41146898D01*
X23499279Y-41129145D01*
X23510289Y-41121789D01*
X23621789Y-41010289D01*
X23709394Y-40879179D01*
X23769737Y-40733497D01*
X23800500Y-40578842D01*
X23800500Y-40421158D01*
X23800500Y-40421155D01*
X23800499Y-40421153D01*
X23769738Y-40266510D01*
X23769737Y-40266503D01*
X23750000Y-40218853D01*
X23709397Y-40120827D01*
X23709390Y-40120814D01*
X23621789Y-39989711D01*
X23621786Y-39989707D01*
X23510292Y-39878213D01*
X23510284Y-39878207D01*
X23472712Y-39853102D01*
X23427906Y-39799490D01*
X23419199Y-39730165D01*
X23449353Y-39667138D01*
X23472712Y-39646898D01*
X23499279Y-39629145D01*
X23510289Y-39621789D01*
X23621789Y-39510289D01*
X23709394Y-39379179D01*
X23769737Y-39233497D01*
X23800500Y-39078842D01*
X23800500Y-38921158D01*
X23800500Y-38921155D01*
X23800499Y-38921153D01*
X23769738Y-38766510D01*
X23769737Y-38766503D01*
X23750000Y-38718853D01*
X23709397Y-38620827D01*
X23709390Y-38620814D01*
X23621789Y-38489711D01*
X23621786Y-38489707D01*
X23510292Y-38378213D01*
X23510284Y-38378207D01*
X23472712Y-38353102D01*
X23427906Y-38299490D01*
X23419199Y-38230165D01*
X23449353Y-38167138D01*
X23472712Y-38146898D01*
X23499279Y-38129145D01*
X23510289Y-38121789D01*
X23621789Y-38010289D01*
X23709394Y-37879179D01*
X23769737Y-37733497D01*
X23800500Y-37578842D01*
X23800500Y-37421158D01*
X23800500Y-37421155D01*
X23800499Y-37421153D01*
X23786094Y-37348735D01*
X23769737Y-37266503D01*
X23750000Y-37218853D01*
X23709397Y-37120827D01*
X23709390Y-37120814D01*
X23621789Y-36989711D01*
X23621786Y-36989707D01*
X23510292Y-36878213D01*
X23510288Y-36878210D01*
X23379185Y-36790609D01*
X23379172Y-36790602D01*
X23233501Y-36730264D01*
X23233489Y-36730261D01*
X23078845Y-36699500D01*
X23078842Y-36699500D01*
X22921158Y-36699500D01*
X22921155Y-36699500D01*
X22766510Y-36730261D01*
X22766498Y-36730264D01*
X22620827Y-36790602D01*
X22620814Y-36790609D01*
X22489711Y-36878210D01*
X22489707Y-36878213D01*
X22378213Y-36989707D01*
X22353102Y-37027289D01*
X22299489Y-37072093D01*
X22230164Y-37080800D01*
X22167137Y-37050645D01*
X22146898Y-37027289D01*
X22121786Y-36989707D01*
X22010292Y-36878213D01*
X22010288Y-36878210D01*
X21879185Y-36790609D01*
X21879172Y-36790602D01*
X21733501Y-36730264D01*
X21733489Y-36730261D01*
X21578845Y-36699500D01*
X21578842Y-36699500D01*
X21421158Y-36699500D01*
X21421155Y-36699500D01*
X21266510Y-36730261D01*
X21266498Y-36730264D01*
X21120827Y-36790602D01*
X21120814Y-36790609D01*
X20989711Y-36878210D01*
X20989707Y-36878213D01*
X20878213Y-36989707D01*
X20878210Y-36989711D01*
X20790609Y-37120814D01*
X20790602Y-37120827D01*
X20730264Y-37266498D01*
X20730261Y-37266510D01*
X20699500Y-37421153D01*
X20250500Y-37421153D01*
X20250500Y-33124000D01*
X20270185Y-33056961D01*
X20322989Y-33011206D01*
X20374500Y-33000000D01*
X23423000Y-33000000D01*
X23490039Y-33019685D01*
G37*
G04 #@! TD.AperFunction*
G04 #@! TA.AperFunction,Conductor*
G36*
X59766942Y-56120185D02*
G01*
X59787584Y-56136819D01*
X60615139Y-56964374D01*
X60615149Y-56964385D01*
X60619479Y-56968715D01*
X60619480Y-56968716D01*
X60731284Y-57080520D01*
X60806226Y-57123787D01*
X60823477Y-57141879D01*
X60843494Y-57156863D01*
X60847174Y-57166730D01*
X60854442Y-57174352D01*
X60859174Y-57198902D01*
X60867911Y-57222327D01*
X60865672Y-57232616D01*
X60867666Y-57242959D01*
X60858372Y-57266173D01*
X60853059Y-57290600D01*
X60843461Y-57303421D01*
X60841699Y-57307824D01*
X60831909Y-57318855D01*
X60731286Y-57419478D01*
X60731285Y-57419478D01*
X60731284Y-57419479D01*
X60619481Y-57531282D01*
X60619479Y-57531285D01*
X60608618Y-57550097D01*
X60579518Y-57600501D01*
X60540423Y-57668215D01*
X60499499Y-57820943D01*
X60499499Y-57820945D01*
X60499499Y-57989046D01*
X60499500Y-57989059D01*
X60499500Y-58799903D01*
X60490855Y-58829343D01*
X60484332Y-58859330D01*
X60480577Y-58864345D01*
X60479815Y-58866942D01*
X60463181Y-58887584D01*
X60287584Y-59063181D01*
X60226261Y-59096666D01*
X60199903Y-59099500D01*
X59386670Y-59099500D01*
X59386654Y-59099499D01*
X59379058Y-59099499D01*
X59220943Y-59099499D01*
X59144579Y-59119961D01*
X59068214Y-59140423D01*
X59068209Y-59140426D01*
X58931290Y-59219475D01*
X58931282Y-59219481D01*
X58387583Y-59763181D01*
X58326260Y-59796666D01*
X58299902Y-59799500D01*
X57804500Y-59799500D01*
X57795814Y-59796949D01*
X57786853Y-59798238D01*
X57762812Y-59787259D01*
X57737461Y-59779815D01*
X57731533Y-59772974D01*
X57723297Y-59769213D01*
X57709007Y-59746978D01*
X57691706Y-59727011D01*
X57689418Y-59716496D01*
X57685523Y-59710435D01*
X57680500Y-59675500D01*
X57680500Y-59629601D01*
X57700185Y-59562562D01*
X57748206Y-59519116D01*
X57761610Y-59512287D01*
X57927219Y-59391966D01*
X58071966Y-59247219D01*
X58071968Y-59247215D01*
X58071971Y-59247213D01*
X58149555Y-59140426D01*
X58192287Y-59081610D01*
X58285220Y-58899219D01*
X58348477Y-58704534D01*
X58380500Y-58502352D01*
X58380500Y-57497648D01*
X58377956Y-57481582D01*
X58348477Y-57295465D01*
X58304324Y-57159577D01*
X58285220Y-57100781D01*
X58285218Y-57100778D01*
X58285218Y-57100776D01*
X58242663Y-57017259D01*
X58192287Y-56918390D01*
X58134139Y-56838355D01*
X58071971Y-56752786D01*
X57927213Y-56608028D01*
X57761613Y-56487715D01*
X57761612Y-56487714D01*
X57761610Y-56487713D01*
X57689665Y-56451055D01*
X57579223Y-56394781D01*
X57418106Y-56342431D01*
X57360431Y-56302993D01*
X57333233Y-56238634D01*
X57345148Y-56169788D01*
X57392392Y-56118312D01*
X57456425Y-56100500D01*
X59699903Y-56100500D01*
X59766942Y-56120185D01*
G37*
G04 #@! TD.AperFunction*
G04 #@! TA.AperFunction,Conductor*
G36*
X85766942Y-56120185D02*
G01*
X85787584Y-56136819D01*
X86615139Y-56964374D01*
X86615149Y-56964385D01*
X86619479Y-56968715D01*
X86619480Y-56968716D01*
X86731284Y-57080520D01*
X86806226Y-57123787D01*
X86823477Y-57141879D01*
X86843494Y-57156863D01*
X86847174Y-57166730D01*
X86854442Y-57174352D01*
X86859174Y-57198902D01*
X86867911Y-57222327D01*
X86865672Y-57232616D01*
X86867666Y-57242959D01*
X86858372Y-57266173D01*
X86853059Y-57290600D01*
X86843461Y-57303421D01*
X86841699Y-57307824D01*
X86831909Y-57318855D01*
X86731286Y-57419478D01*
X86731285Y-57419478D01*
X86731284Y-57419479D01*
X86619481Y-57531282D01*
X86619479Y-57531285D01*
X86608618Y-57550097D01*
X86579518Y-57600501D01*
X86540423Y-57668215D01*
X86499499Y-57820943D01*
X86499499Y-57820945D01*
X86499499Y-57989046D01*
X86499500Y-57989059D01*
X86499500Y-58799903D01*
X86490855Y-58829343D01*
X86484332Y-58859330D01*
X86480577Y-58864345D01*
X86479815Y-58866942D01*
X86463181Y-58887584D01*
X86287584Y-59063181D01*
X86226261Y-59096666D01*
X86199903Y-59099500D01*
X85279057Y-59099500D01*
X85120942Y-59099500D01*
X84968215Y-59140423D01*
X84968214Y-59140423D01*
X84968212Y-59140424D01*
X84968209Y-59140425D01*
X84918096Y-59169359D01*
X84918095Y-59169360D01*
X84874689Y-59194420D01*
X84831285Y-59219479D01*
X84831282Y-59219481D01*
X84287583Y-59763181D01*
X84226260Y-59796666D01*
X84199902Y-59799500D01*
X83804500Y-59799500D01*
X83795814Y-59796949D01*
X83786853Y-59798238D01*
X83762812Y-59787259D01*
X83737461Y-59779815D01*
X83731533Y-59772974D01*
X83723297Y-59769213D01*
X83709007Y-59746978D01*
X83691706Y-59727011D01*
X83689418Y-59716496D01*
X83685523Y-59710435D01*
X83680500Y-59675500D01*
X83680500Y-59629601D01*
X83700185Y-59562562D01*
X83748206Y-59519116D01*
X83761610Y-59512287D01*
X83927219Y-59391966D01*
X84071966Y-59247219D01*
X84071968Y-59247215D01*
X84071971Y-59247213D01*
X84149555Y-59140426D01*
X84192287Y-59081610D01*
X84285220Y-58899219D01*
X84348477Y-58704534D01*
X84380500Y-58502352D01*
X84380500Y-57497648D01*
X84377956Y-57481582D01*
X84348477Y-57295465D01*
X84304324Y-57159577D01*
X84285220Y-57100781D01*
X84285218Y-57100778D01*
X84285218Y-57100776D01*
X84242663Y-57017259D01*
X84192287Y-56918390D01*
X84134139Y-56838355D01*
X84071971Y-56752786D01*
X83927213Y-56608028D01*
X83761613Y-56487715D01*
X83761612Y-56487714D01*
X83761610Y-56487713D01*
X83689665Y-56451055D01*
X83579223Y-56394781D01*
X83418106Y-56342431D01*
X83360431Y-56302993D01*
X83333233Y-56238634D01*
X83345148Y-56169788D01*
X83392392Y-56118312D01*
X83456425Y-56100500D01*
X85699903Y-56100500D01*
X85766942Y-56120185D01*
G37*
G04 #@! TD.AperFunction*
G04 #@! TA.AperFunction,Conductor*
G36*
X66920550Y-56031198D02*
G01*
X66976483Y-56073070D01*
X67000834Y-56137649D01*
X67002401Y-56157568D01*
X67002402Y-56157573D01*
X67048253Y-56315393D01*
X67061397Y-56337618D01*
X67078577Y-56405343D01*
X67056416Y-56471605D01*
X67042344Y-56488418D01*
X65917584Y-57613181D01*
X65856261Y-57646666D01*
X65829903Y-57649500D01*
X65320943Y-57649500D01*
X65168216Y-57690423D01*
X65168209Y-57690426D01*
X65031290Y-57769475D01*
X65031282Y-57769481D01*
X64919479Y-57881284D01*
X64896566Y-57920972D01*
X64876304Y-57940291D01*
X64858426Y-57961835D01*
X64850055Y-57965319D01*
X64845999Y-57969187D01*
X64826641Y-57977177D01*
X64820092Y-57979252D01*
X64789146Y-57985408D01*
X64778749Y-57992354D01*
X64761962Y-57997675D01*
X64743923Y-57998059D01*
X64726709Y-58003449D01*
X64709720Y-57998787D01*
X64692108Y-57999163D01*
X64676726Y-57989735D01*
X64659330Y-57984962D01*
X64647558Y-57971856D01*
X64632538Y-57962650D01*
X64624695Y-57946402D01*
X64612641Y-57932982D01*
X64607694Y-57911181D01*
X64602166Y-57899727D01*
X64603191Y-57891330D01*
X64600500Y-57879469D01*
X64600500Y-57720945D01*
X64600500Y-57720943D01*
X64573705Y-57620943D01*
X64559577Y-57568215D01*
X64518835Y-57497648D01*
X64480520Y-57431284D01*
X64461417Y-57412181D01*
X64427932Y-57350858D01*
X64432916Y-57281166D01*
X64474788Y-57225233D01*
X64540252Y-57200816D01*
X64549098Y-57200500D01*
X65313331Y-57200500D01*
X65313347Y-57200501D01*
X65320943Y-57200501D01*
X65479054Y-57200501D01*
X65479057Y-57200501D01*
X65631785Y-57159577D01*
X65684442Y-57129175D01*
X65768716Y-57080520D01*
X65880520Y-56968716D01*
X65880520Y-56968714D01*
X65890724Y-56958511D01*
X65890727Y-56958506D01*
X66789536Y-56059698D01*
X66850858Y-56026214D01*
X66920550Y-56031198D01*
G37*
G04 #@! TD.AperFunction*
G04 #@! TA.AperFunction,Conductor*
G36*
X92902332Y-56029895D02*
G01*
X92920550Y-56031198D01*
X92934475Y-56041622D01*
X92950814Y-56047584D01*
X92961862Y-56062124D01*
X92976483Y-56073070D01*
X92982693Y-56089541D01*
X92993085Y-56103217D01*
X93000834Y-56137649D01*
X93002401Y-56157568D01*
X93002402Y-56157573D01*
X93048253Y-56315393D01*
X93061397Y-56337618D01*
X93078577Y-56405343D01*
X93056416Y-56471605D01*
X93042344Y-56488418D01*
X91917584Y-57613181D01*
X91856261Y-57646666D01*
X91829903Y-57649500D01*
X91320943Y-57649500D01*
X91168216Y-57690423D01*
X91168209Y-57690426D01*
X91031290Y-57769475D01*
X91031282Y-57769481D01*
X90919479Y-57881284D01*
X90896566Y-57920972D01*
X90876304Y-57940291D01*
X90858426Y-57961835D01*
X90850055Y-57965319D01*
X90845999Y-57969187D01*
X90826641Y-57977177D01*
X90820092Y-57979252D01*
X90789146Y-57985408D01*
X90778749Y-57992354D01*
X90761962Y-57997675D01*
X90743923Y-57998059D01*
X90726709Y-58003449D01*
X90709720Y-57998787D01*
X90692108Y-57999163D01*
X90676726Y-57989735D01*
X90659330Y-57984962D01*
X90647558Y-57971856D01*
X90632538Y-57962650D01*
X90624695Y-57946402D01*
X90612641Y-57932982D01*
X90607694Y-57911181D01*
X90602166Y-57899727D01*
X90603191Y-57891330D01*
X90600500Y-57879469D01*
X90600500Y-57720945D01*
X90600500Y-57720943D01*
X90573705Y-57620943D01*
X90559577Y-57568215D01*
X90518835Y-57497648D01*
X90480520Y-57431284D01*
X90461417Y-57412181D01*
X90427932Y-57350858D01*
X90432916Y-57281166D01*
X90474788Y-57225233D01*
X90540252Y-57200816D01*
X90549098Y-57200500D01*
X91313331Y-57200500D01*
X91313347Y-57200501D01*
X91320943Y-57200501D01*
X91479054Y-57200501D01*
X91479057Y-57200501D01*
X91631785Y-57159577D01*
X91684442Y-57129175D01*
X91768716Y-57080520D01*
X91880520Y-56968716D01*
X91880520Y-56968714D01*
X91890724Y-56958511D01*
X91890727Y-56958506D01*
X92789536Y-56059698D01*
X92804800Y-56051363D01*
X92817012Y-56038976D01*
X92834829Y-56034966D01*
X92850858Y-56026214D01*
X92868207Y-56027454D01*
X92885177Y-56023636D01*
X92902332Y-56029895D01*
G37*
G04 #@! TD.AperFunction*
G04 #@! TA.AperFunction,Conductor*
G36*
X90085217Y-35498260D02*
G01*
X90109503Y-35498260D01*
X90118982Y-35504352D01*
X90130072Y-35506353D01*
X90147850Y-35522904D01*
X90168281Y-35536035D01*
X90172961Y-35546283D01*
X90181210Y-35553963D01*
X90187216Y-35577498D01*
X90197306Y-35599590D01*
X90195702Y-35610744D01*
X90198489Y-35621663D01*
X90190818Y-35644708D01*
X90187362Y-35668749D01*
X90177934Y-35683418D01*
X90176424Y-35687957D01*
X90168281Y-35698440D01*
X90094432Y-35783664D01*
X90094430Y-35783668D01*
X90034664Y-35914534D01*
X90034662Y-35914541D01*
X90014977Y-35981580D01*
X90014976Y-35981584D01*
X89994500Y-36124000D01*
X89994500Y-40626000D01*
X89994501Y-40626009D01*
X90006052Y-40733450D01*
X90006054Y-40733462D01*
X90017260Y-40784972D01*
X90051383Y-40887497D01*
X90051386Y-40887503D01*
X90129171Y-41008537D01*
X90129179Y-41008548D01*
X90174923Y-41061340D01*
X90174926Y-41061343D01*
X90174930Y-41061347D01*
X90283664Y-41155567D01*
X90283667Y-41155568D01*
X90283668Y-41155569D01*
X90401525Y-41209394D01*
X90414541Y-41215338D01*
X90481580Y-41235023D01*
X90481584Y-41235024D01*
X90624000Y-41255500D01*
X93298039Y-41255500D01*
X93319466Y-41261791D01*
X93341737Y-41263455D01*
X93352340Y-41271444D01*
X93365078Y-41275185D01*
X93379701Y-41292061D01*
X93397539Y-41305502D01*
X93405367Y-41321681D01*
X93410833Y-41327989D01*
X93414356Y-41336532D01*
X93416335Y-41341890D01*
X93440423Y-41431785D01*
X93460468Y-41466503D01*
X93519480Y-41568716D01*
X93631284Y-41680520D01*
X93631285Y-41680521D01*
X94131284Y-42180520D01*
X94131286Y-42180521D01*
X94131290Y-42180524D01*
X94256093Y-42252578D01*
X94268216Y-42259577D01*
X94420943Y-42300501D01*
X94420945Y-42300501D01*
X94586654Y-42300501D01*
X94586670Y-42300500D01*
X95799903Y-42300500D01*
X95866942Y-42320185D01*
X95887584Y-42336819D01*
X96863181Y-43312416D01*
X96896666Y-43373739D01*
X96899500Y-43400097D01*
X96899500Y-48650500D01*
X96879815Y-48717539D01*
X96827011Y-48763294D01*
X96775501Y-48774500D01*
X96649999Y-48774500D01*
X96649980Y-48774501D01*
X96547203Y-48785000D01*
X96547200Y-48785001D01*
X96380668Y-48840185D01*
X96380663Y-48840187D01*
X96231342Y-48932289D01*
X96107289Y-49056342D01*
X96015187Y-49205663D01*
X96015186Y-49205666D01*
X95960001Y-49372203D01*
X95960001Y-49372204D01*
X95960000Y-49372204D01*
X95949500Y-49474983D01*
X95949500Y-50525001D01*
X95949501Y-50525019D01*
X95960000Y-50627796D01*
X95960001Y-50627799D01*
X96015185Y-50794331D01*
X96015189Y-50794340D01*
X96093897Y-50921947D01*
X96112337Y-50989339D01*
X96091414Y-51056003D01*
X96076039Y-51074724D01*
X95783689Y-51367074D01*
X95722366Y-51400559D01*
X95652674Y-51395575D01*
X95632888Y-51386126D01*
X95600672Y-51367074D01*
X95560398Y-51343256D01*
X95560396Y-51343255D01*
X95560394Y-51343254D01*
X95402573Y-51297402D01*
X95402567Y-51297401D01*
X95365701Y-51294500D01*
X95365694Y-51294500D01*
X93584306Y-51294500D01*
X93584298Y-51294500D01*
X93547432Y-51297401D01*
X93547426Y-51297402D01*
X93389606Y-51343254D01*
X93389603Y-51343255D01*
X93248137Y-51426917D01*
X93248129Y-51426923D01*
X93131923Y-51543129D01*
X93131917Y-51543137D01*
X93048255Y-51684603D01*
X93048254Y-51684606D01*
X93002402Y-51842426D01*
X93002401Y-51842432D01*
X92999500Y-51879298D01*
X92999500Y-52310701D01*
X93002401Y-52347567D01*
X93002402Y-52347573D01*
X93048254Y-52505393D01*
X93048255Y-52505396D01*
X93131917Y-52646862D01*
X93131923Y-52646870D01*
X93248129Y-52763076D01*
X93248133Y-52763079D01*
X93248135Y-52763081D01*
X93389602Y-52846744D01*
X93431224Y-52858836D01*
X93547426Y-52892597D01*
X93547429Y-52892597D01*
X93547431Y-52892598D01*
X93584306Y-52895500D01*
X93584314Y-52895500D01*
X95365686Y-52895500D01*
X95365694Y-52895500D01*
X95402569Y-52892598D01*
X95402571Y-52892597D01*
X95402573Y-52892597D01*
X95444191Y-52880505D01*
X95560398Y-52846744D01*
X95701865Y-52763081D01*
X95733125Y-52731821D01*
X95794447Y-52698335D01*
X95820807Y-52695501D01*
X95984054Y-52695501D01*
X95984057Y-52695501D01*
X96136785Y-52654577D01*
X96186904Y-52625639D01*
X96273716Y-52575520D01*
X96300000Y-52549236D01*
X96300000Y-53500000D01*
X99000000Y-53500000D01*
X99000000Y-56500000D01*
X109749500Y-56500000D01*
X109749500Y-56870500D01*
X109729815Y-56937539D01*
X109677011Y-56983294D01*
X109625500Y-56994500D01*
X108251918Y-56994500D01*
X108212915Y-56988206D01*
X108127799Y-56960001D01*
X108127795Y-56960000D01*
X108025010Y-56949500D01*
X106974998Y-56949500D01*
X106974980Y-56949501D01*
X106872203Y-56960000D01*
X106872200Y-56960001D01*
X106787086Y-56988206D01*
X106748082Y-56994500D01*
X105751918Y-56994500D01*
X105712915Y-56988206D01*
X105627799Y-56960001D01*
X105627795Y-56960000D01*
X105525010Y-56949500D01*
X104474998Y-56949500D01*
X104474980Y-56949501D01*
X104372203Y-56960000D01*
X104372200Y-56960001D01*
X104287086Y-56988206D01*
X104248082Y-56994500D01*
X104124000Y-56994500D01*
X104123991Y-56994500D01*
X104123990Y-56994501D01*
X104016549Y-57006052D01*
X104016537Y-57006054D01*
X103965027Y-57017260D01*
X103862502Y-57051383D01*
X103862496Y-57051386D01*
X103741462Y-57129171D01*
X103741451Y-57129179D01*
X103688659Y-57174923D01*
X103590093Y-57288672D01*
X103531314Y-57326446D01*
X103461445Y-57326445D01*
X103402667Y-57288670D01*
X103392065Y-57274507D01*
X103391571Y-57273739D01*
X103384277Y-57262389D01*
X103370826Y-57241458D01*
X103370820Y-57241451D01*
X103325076Y-57188659D01*
X103325072Y-57188656D01*
X103325070Y-57188653D01*
X103216336Y-57094433D01*
X103216333Y-57094431D01*
X103216331Y-57094430D01*
X103085465Y-57034664D01*
X103085460Y-57034662D01*
X103085459Y-57034662D01*
X103018420Y-57014977D01*
X103018422Y-57014977D01*
X103018417Y-57014976D01*
X102956347Y-57006052D01*
X102876000Y-56994500D01*
X102875998Y-56994500D01*
X102751918Y-56994500D01*
X102712915Y-56988206D01*
X102627799Y-56960001D01*
X102627795Y-56960000D01*
X102525010Y-56949500D01*
X101474998Y-56949500D01*
X101474980Y-56949501D01*
X101372203Y-56960000D01*
X101372200Y-56960001D01*
X101287086Y-56988206D01*
X101248082Y-56994500D01*
X100251918Y-56994500D01*
X100212915Y-56988206D01*
X100127799Y-56960001D01*
X100127795Y-56960000D01*
X100025010Y-56949500D01*
X98974998Y-56949500D01*
X98974987Y-56949501D01*
X98964416Y-56950581D01*
X98962495Y-56950223D01*
X98960667Y-56950906D01*
X98928313Y-56943867D01*
X98895724Y-56937808D01*
X98893695Y-56936337D01*
X98892394Y-56936054D01*
X98864141Y-56914905D01*
X98768716Y-56819480D01*
X98768713Y-56819478D01*
X98017982Y-56068747D01*
X97984497Y-56007424D01*
X97989481Y-55937732D01*
X98017981Y-55893386D01*
X98067712Y-55843656D01*
X98159814Y-55694334D01*
X98214999Y-55527797D01*
X98225500Y-55425009D01*
X98225499Y-54649992D01*
X98214999Y-54547203D01*
X98159814Y-54380666D01*
X98067712Y-54231344D01*
X97943656Y-54107288D01*
X97825647Y-54034500D01*
X97794336Y-54015187D01*
X97794331Y-54015185D01*
X97743013Y-53998180D01*
X97627797Y-53960001D01*
X97627795Y-53960000D01*
X97525010Y-53949500D01*
X96474998Y-53949500D01*
X96474980Y-53949501D01*
X96372203Y-53960000D01*
X96372200Y-53960001D01*
X96205668Y-54015185D01*
X96205661Y-54015188D01*
X96204285Y-54016038D01*
X96203150Y-54016359D01*
X96199118Y-54018240D01*
X96198814Y-54017589D01*
X96139187Y-54034500D01*
X95820808Y-54034500D01*
X95753769Y-54014815D01*
X95733126Y-53998180D01*
X95701870Y-53966923D01*
X95701862Y-53966917D01*
X95560396Y-53883255D01*
X95560393Y-53883254D01*
X95402573Y-53837402D01*
X95402567Y-53837401D01*
X95365701Y-53834500D01*
X95365694Y-53834500D01*
X93584306Y-53834500D01*
X93584298Y-53834500D01*
X93547432Y-53837401D01*
X93547426Y-53837402D01*
X93389606Y-53883254D01*
X93389603Y-53883255D01*
X93248140Y-53966915D01*
X93248134Y-53966919D01*
X93159932Y-54055120D01*
X93134252Y-54074824D01*
X92996287Y-54154477D01*
X92996282Y-54154481D01*
X91187584Y-55963181D01*
X91126261Y-55996666D01*
X91099903Y-55999500D01*
X87400097Y-55999500D01*
X87333058Y-55979815D01*
X87312416Y-55963181D01*
X86487590Y-55138355D01*
X86487588Y-55138352D01*
X86368717Y-55019481D01*
X86368716Y-55019480D01*
X86262996Y-54958443D01*
X86262995Y-54958442D01*
X86231783Y-54940422D01*
X86175881Y-54925443D01*
X86079057Y-54899499D01*
X85920943Y-54899499D01*
X85913347Y-54899499D01*
X85913331Y-54899500D01*
X77420940Y-54899500D01*
X77380019Y-54910464D01*
X77380019Y-54910465D01*
X77342751Y-54920451D01*
X77268214Y-54940423D01*
X77268209Y-54940426D01*
X77131290Y-55019475D01*
X77131282Y-55019481D01*
X76292943Y-55857821D01*
X76231620Y-55891306D01*
X76161928Y-55886322D01*
X76105995Y-55844450D01*
X76081578Y-55778986D01*
X76087556Y-55731134D01*
X76090349Y-55722708D01*
X76100500Y-55623345D01*
X76100499Y-55076656D01*
X76097305Y-55045393D01*
X76090349Y-54977292D01*
X76090348Y-54977289D01*
X76078132Y-54940423D01*
X76037003Y-54816303D01*
X76036999Y-54816297D01*
X76036998Y-54816294D01*
X75947970Y-54671959D01*
X75947967Y-54671955D01*
X75828043Y-54552031D01*
X75683702Y-54462999D01*
X75677155Y-54459947D01*
X75677904Y-54458338D01*
X75628047Y-54423816D01*
X75601227Y-54359299D01*
X75600500Y-54345887D01*
X75600500Y-53813643D01*
X75620185Y-53746604D01*
X75672989Y-53700849D01*
X75685482Y-53695942D01*
X75764334Y-53669814D01*
X75913656Y-53577712D01*
X76037712Y-53453656D01*
X76129814Y-53304334D01*
X76184999Y-53137797D01*
X76194389Y-53045883D01*
X76220783Y-52981194D01*
X76255744Y-52951102D01*
X76308716Y-52920520D01*
X76420520Y-52808716D01*
X76420520Y-52808714D01*
X76430728Y-52798507D01*
X76430730Y-52798504D01*
X77266980Y-51962253D01*
X77328301Y-51928770D01*
X77397993Y-51933754D01*
X77410954Y-51939451D01*
X77500776Y-51985218D01*
X77500778Y-51985218D01*
X77500781Y-51985220D01*
X77605137Y-52019127D01*
X77695465Y-52048477D01*
X77796557Y-52064488D01*
X77897648Y-52080500D01*
X77897649Y-52080500D01*
X78102351Y-52080500D01*
X78102352Y-52080500D01*
X78304534Y-52048477D01*
X78499219Y-51985220D01*
X78681610Y-51892287D01*
X78774590Y-51824732D01*
X78847213Y-51771971D01*
X78847215Y-51771968D01*
X78847219Y-51771966D01*
X78991966Y-51627219D01*
X78991968Y-51627215D01*
X78991971Y-51627213D01*
X79112284Y-51461614D01*
X79112286Y-51461611D01*
X79112287Y-51461610D01*
X79159516Y-51368917D01*
X79207489Y-51318123D01*
X79275310Y-51301328D01*
X79341445Y-51323865D01*
X79380483Y-51368917D01*
X79396585Y-51400518D01*
X79427715Y-51461614D01*
X79548028Y-51627213D01*
X79692786Y-51771971D01*
X79840512Y-51879298D01*
X79858390Y-51892287D01*
X79974607Y-51951503D01*
X80040776Y-51985218D01*
X80040778Y-51985218D01*
X80040781Y-51985220D01*
X80145137Y-52019127D01*
X80235465Y-52048477D01*
X80336557Y-52064488D01*
X80437648Y-52080500D01*
X80437649Y-52080500D01*
X80642351Y-52080500D01*
X80642352Y-52080500D01*
X80844534Y-52048477D01*
X81039219Y-51985220D01*
X81221610Y-51892287D01*
X81314590Y-51824732D01*
X81387213Y-51771971D01*
X81387215Y-51771968D01*
X81387219Y-51771966D01*
X81531966Y-51627219D01*
X81531968Y-51627215D01*
X81531971Y-51627213D01*
X81652284Y-51461614D01*
X81652286Y-51461611D01*
X81652287Y-51461610D01*
X81699516Y-51368917D01*
X81747489Y-51318123D01*
X81815310Y-51301328D01*
X81881445Y-51323865D01*
X81920483Y-51368917D01*
X81936585Y-51400518D01*
X81967715Y-51461614D01*
X82088028Y-51627213D01*
X82232786Y-51771971D01*
X82380512Y-51879298D01*
X82398390Y-51892287D01*
X82514607Y-51951503D01*
X82580776Y-51985218D01*
X82580778Y-51985218D01*
X82580781Y-51985220D01*
X82685137Y-52019127D01*
X82775465Y-52048477D01*
X82876557Y-52064488D01*
X82977648Y-52080500D01*
X82977649Y-52080500D01*
X83182351Y-52080500D01*
X83182352Y-52080500D01*
X83384534Y-52048477D01*
X83579219Y-51985220D01*
X83761610Y-51892287D01*
X83854590Y-51824732D01*
X83927213Y-51771971D01*
X83927215Y-51771968D01*
X83927219Y-51771966D01*
X84071966Y-51627219D01*
X84071968Y-51627215D01*
X84071971Y-51627213D01*
X84192286Y-51461611D01*
X84192288Y-51461608D01*
X84239516Y-51368917D01*
X84287487Y-51318124D01*
X84355308Y-51301328D01*
X84421443Y-51323865D01*
X84460483Y-51368919D01*
X84507711Y-51461608D01*
X84507712Y-51461610D01*
X84628028Y-51627213D01*
X84772786Y-51771971D01*
X84920512Y-51879298D01*
X84938390Y-51892287D01*
X85054607Y-51951503D01*
X85120776Y-51985218D01*
X85120778Y-51985218D01*
X85120781Y-51985220D01*
X85225137Y-52019127D01*
X85315465Y-52048477D01*
X85416557Y-52064488D01*
X85517648Y-52080500D01*
X85517649Y-52080500D01*
X85722351Y-52080500D01*
X85722352Y-52080500D01*
X85924534Y-52048477D01*
X86119219Y-51985220D01*
X86301610Y-51892287D01*
X86394590Y-51824732D01*
X86467213Y-51771971D01*
X86467215Y-51771968D01*
X86467219Y-51771966D01*
X86611966Y-51627219D01*
X86611968Y-51627215D01*
X86611971Y-51627213D01*
X86673060Y-51543129D01*
X86732287Y-51461610D01*
X86825220Y-51279219D01*
X86888477Y-51084534D01*
X86920500Y-50882352D01*
X86920500Y-49877648D01*
X86888477Y-49675466D01*
X86825220Y-49480781D01*
X86825218Y-49480778D01*
X86825218Y-49480776D01*
X86769897Y-49372204D01*
X86732287Y-49298390D01*
X86724556Y-49287749D01*
X86611971Y-49132786D01*
X86467213Y-48988028D01*
X86301610Y-48867712D01*
X86288200Y-48860879D01*
X86237406Y-48812903D01*
X86220500Y-48750397D01*
X86220500Y-47224499D01*
X86240185Y-47157460D01*
X86292989Y-47111705D01*
X86344500Y-47100499D01*
X86500002Y-47100499D01*
X86500008Y-47100499D01*
X86602797Y-47089999D01*
X86769334Y-47034814D01*
X86918656Y-46942712D01*
X87042712Y-46818656D01*
X87134814Y-46669334D01*
X87134815Y-46669331D01*
X87138605Y-46663187D01*
X87140399Y-46664293D01*
X87179687Y-46619663D01*
X87245908Y-46600500D01*
X87775500Y-46600500D01*
X87842539Y-46620185D01*
X87888294Y-46672989D01*
X87899500Y-46724499D01*
X87899500Y-46923336D01*
X87899501Y-46923344D01*
X87909650Y-47022707D01*
X87909651Y-47022710D01*
X87962996Y-47183694D01*
X87963001Y-47183705D01*
X88052029Y-47328040D01*
X88052032Y-47328044D01*
X88171955Y-47447967D01*
X88171959Y-47447970D01*
X88316294Y-47536998D01*
X88316297Y-47536999D01*
X88316303Y-47537003D01*
X88477292Y-47590349D01*
X88576655Y-47600500D01*
X89423344Y-47600499D01*
X89423352Y-47600498D01*
X89423355Y-47600498D01*
X89477760Y-47594940D01*
X89522708Y-47590349D01*
X89683697Y-47537003D01*
X89828044Y-47447968D01*
X89947968Y-47328044D01*
X90037003Y-47183697D01*
X90090349Y-47022708D01*
X90100500Y-46923345D01*
X90100499Y-46376656D01*
X90090349Y-46277292D01*
X90037003Y-46116303D01*
X90036999Y-46116297D01*
X90036998Y-46116294D01*
X89947970Y-45971959D01*
X89947967Y-45971955D01*
X89828044Y-45852032D01*
X89828040Y-45852029D01*
X89683705Y-45763001D01*
X89683699Y-45762998D01*
X89683697Y-45762997D01*
X89683694Y-45762996D01*
X89522709Y-45709651D01*
X89423352Y-45699500D01*
X89423345Y-45699500D01*
X88950097Y-45699500D01*
X88920656Y-45690855D01*
X88890670Y-45684332D01*
X88885654Y-45680577D01*
X88883058Y-45679815D01*
X88862416Y-45663181D01*
X88837590Y-45638355D01*
X88837588Y-45638352D01*
X88718717Y-45519481D01*
X88718716Y-45519480D01*
X88631904Y-45469360D01*
X88631904Y-45469359D01*
X88631900Y-45469358D01*
X88581785Y-45440423D01*
X88429057Y-45399499D01*
X88270943Y-45399499D01*
X88263347Y-45399499D01*
X88263331Y-45399500D01*
X87245908Y-45399500D01*
X87178869Y-45379815D01*
X87140363Y-45335728D01*
X87138605Y-45336813D01*
X87134812Y-45330663D01*
X87042712Y-45181344D01*
X86949049Y-45087681D01*
X86915564Y-45026358D01*
X86920548Y-44956666D01*
X86949049Y-44912319D01*
X87042712Y-44818656D01*
X87134814Y-44669334D01*
X87134815Y-44669331D01*
X87138605Y-44663187D01*
X87140399Y-44664293D01*
X87179687Y-44619663D01*
X87245908Y-44600500D01*
X88263331Y-44600500D01*
X88263347Y-44600501D01*
X88270943Y-44600501D01*
X88429054Y-44600501D01*
X88429057Y-44600501D01*
X88581785Y-44559577D01*
X88631904Y-44530639D01*
X88718716Y-44480520D01*
X88830520Y-44368716D01*
X88830520Y-44368714D01*
X88840728Y-44358507D01*
X88840731Y-44358503D01*
X88862418Y-44336816D01*
X88923742Y-44303332D01*
X88950097Y-44300499D01*
X89423338Y-44300499D01*
X89423344Y-44300499D01*
X89423352Y-44300498D01*
X89423355Y-44300498D01*
X89477760Y-44294940D01*
X89522708Y-44290349D01*
X89683697Y-44237003D01*
X89828044Y-44147968D01*
X89947968Y-44028044D01*
X90037003Y-43883697D01*
X90090349Y-43722708D01*
X90100500Y-43623345D01*
X90100499Y-43076656D01*
X90096754Y-43039999D01*
X90090349Y-42977292D01*
X90090348Y-42977289D01*
X90086338Y-42965187D01*
X90037003Y-42816303D01*
X90036999Y-42816297D01*
X90036998Y-42816294D01*
X89947970Y-42671959D01*
X89947967Y-42671955D01*
X89828044Y-42552032D01*
X89828040Y-42552029D01*
X89683705Y-42463001D01*
X89683699Y-42462998D01*
X89683697Y-42462997D01*
X89604790Y-42436850D01*
X89522709Y-42409651D01*
X89423346Y-42399500D01*
X88576662Y-42399500D01*
X88576644Y-42399501D01*
X88477292Y-42409650D01*
X88477289Y-42409651D01*
X88316305Y-42462996D01*
X88316294Y-42463001D01*
X88189597Y-42541150D01*
X88122205Y-42559591D01*
X88055541Y-42538669D01*
X88010771Y-42485027D01*
X88000500Y-42435612D01*
X88000500Y-37400097D01*
X88020185Y-37333058D01*
X88036819Y-37312416D01*
X88740494Y-36608741D01*
X89480520Y-35868716D01*
X89559577Y-35731784D01*
X89596924Y-35592404D01*
X89633290Y-35532744D01*
X89696137Y-35502216D01*
X89716699Y-35500499D01*
X90000371Y-35500499D01*
X90000372Y-35500499D01*
X90059983Y-35494091D01*
X90059986Y-35494089D01*
X90061313Y-35493947D01*
X90085217Y-35498260D01*
G37*
G04 #@! TD.AperFunction*
G04 #@! TA.AperFunction,Conductor*
G36*
X75490039Y-33019685D02*
G01*
X75535794Y-33072489D01*
X75547000Y-33124000D01*
X75547000Y-35047870D01*
X75547001Y-35047876D01*
X75553408Y-35107483D01*
X75603702Y-35242328D01*
X75603706Y-35242335D01*
X75689952Y-35357544D01*
X75689955Y-35357547D01*
X75805164Y-35443793D01*
X75805171Y-35443797D01*
X75805174Y-35443798D01*
X75940017Y-35494091D01*
X75999627Y-35500500D01*
X76283301Y-35500499D01*
X76306129Y-35507201D01*
X76329804Y-35509549D01*
X76339036Y-35516864D01*
X76350340Y-35520183D01*
X76365920Y-35538163D01*
X76384568Y-35552938D01*
X76391463Y-35567641D01*
X76396095Y-35572987D01*
X76400627Y-35584367D01*
X76401987Y-35588345D01*
X76440423Y-35731785D01*
X76460468Y-35766503D01*
X76500571Y-35835964D01*
X76519479Y-35868715D01*
X76638349Y-35987585D01*
X76638355Y-35987590D01*
X77963181Y-37312416D01*
X77996666Y-37373739D01*
X77999500Y-37400097D01*
X77999500Y-42435612D01*
X77979815Y-42502651D01*
X77927011Y-42548406D01*
X77857853Y-42558350D01*
X77810403Y-42541150D01*
X77683705Y-42463001D01*
X77683699Y-42462998D01*
X77683697Y-42462997D01*
X77604790Y-42436850D01*
X77522709Y-42409651D01*
X77423346Y-42399500D01*
X76576662Y-42399500D01*
X76576644Y-42399501D01*
X76477292Y-42409650D01*
X76477289Y-42409651D01*
X76316305Y-42462996D01*
X76316294Y-42463001D01*
X76171959Y-42552029D01*
X76171955Y-42552032D01*
X76052032Y-42671955D01*
X76052029Y-42671959D01*
X75963001Y-42816294D01*
X75962996Y-42816305D01*
X75909651Y-42977290D01*
X75899500Y-43076647D01*
X75899500Y-43623337D01*
X75899501Y-43623355D01*
X75909650Y-43722707D01*
X75909651Y-43722710D01*
X75962996Y-43883694D01*
X75963001Y-43883705D01*
X76052029Y-44028040D01*
X76052032Y-44028044D01*
X76171955Y-44147967D01*
X76171959Y-44147970D01*
X76316294Y-44236998D01*
X76316297Y-44236999D01*
X76316303Y-44237003D01*
X76477292Y-44290349D01*
X76576655Y-44300500D01*
X77049902Y-44300499D01*
X77079348Y-44309145D01*
X77109329Y-44315667D01*
X77114342Y-44319419D01*
X77116941Y-44320183D01*
X77137583Y-44336818D01*
X77165139Y-44364374D01*
X77165149Y-44364385D01*
X77169479Y-44368715D01*
X77169480Y-44368716D01*
X77281284Y-44480520D01*
X77368095Y-44530639D01*
X77368097Y-44530641D01*
X77383665Y-44539629D01*
X77418215Y-44559577D01*
X77570943Y-44600501D01*
X77570946Y-44600501D01*
X77736653Y-44600501D01*
X77736669Y-44600500D01*
X78754092Y-44600500D01*
X78821131Y-44620185D01*
X78859636Y-44664271D01*
X78861395Y-44663187D01*
X78865185Y-44669331D01*
X78865186Y-44669334D01*
X78957288Y-44818656D01*
X78957289Y-44818657D01*
X79050951Y-44912319D01*
X79084436Y-44973642D01*
X79079452Y-45043334D01*
X79050951Y-45087681D01*
X78957289Y-45181342D01*
X78861395Y-45336813D01*
X78859600Y-45335706D01*
X78820313Y-45380337D01*
X78754092Y-45399500D01*
X77736669Y-45399500D01*
X77736653Y-45399499D01*
X77729057Y-45399499D01*
X77570943Y-45399499D01*
X77463587Y-45428265D01*
X77418210Y-45440424D01*
X77418209Y-45440425D01*
X77368096Y-45469359D01*
X77368095Y-45469360D01*
X77341383Y-45484782D01*
X77281285Y-45519479D01*
X77281282Y-45519481D01*
X77169479Y-45631284D01*
X77169478Y-45631286D01*
X77137583Y-45663181D01*
X77137581Y-45663183D01*
X77076257Y-45696667D01*
X77049901Y-45699500D01*
X76576662Y-45699500D01*
X76576644Y-45699501D01*
X76477292Y-45709650D01*
X76477289Y-45709651D01*
X76316305Y-45762996D01*
X76316294Y-45763001D01*
X76171959Y-45852029D01*
X76171954Y-45852032D01*
X76140702Y-45883285D01*
X76079378Y-45916770D01*
X76009687Y-45911784D01*
X75953754Y-45869912D01*
X75948707Y-45862642D01*
X75870833Y-45741468D01*
X75870820Y-45741451D01*
X75825076Y-45688659D01*
X75825072Y-45688656D01*
X75825070Y-45688653D01*
X75716336Y-45594433D01*
X75716333Y-45594431D01*
X75716331Y-45594430D01*
X75585465Y-45534664D01*
X75585460Y-45534662D01*
X75585459Y-45534662D01*
X75518420Y-45514977D01*
X75518422Y-45514977D01*
X75518417Y-45514976D01*
X75456347Y-45506052D01*
X75376000Y-45494500D01*
X73624000Y-45494500D01*
X73623991Y-45494500D01*
X73623990Y-45494501D01*
X73516549Y-45506052D01*
X73516537Y-45506054D01*
X73465027Y-45517260D01*
X73362502Y-45551383D01*
X73362496Y-45551386D01*
X73241462Y-45629171D01*
X73241451Y-45629179D01*
X73188659Y-45674923D01*
X73094433Y-45783664D01*
X73094430Y-45783668D01*
X73034664Y-45914534D01*
X73014976Y-45981582D01*
X73011649Y-46004723D01*
X72994500Y-46124000D01*
X72994500Y-49876000D01*
X72994501Y-49876009D01*
X73006052Y-49983450D01*
X73006054Y-49983462D01*
X73017260Y-50034972D01*
X73051383Y-50137497D01*
X73051386Y-50137503D01*
X73129171Y-50258537D01*
X73129179Y-50258548D01*
X73174923Y-50311340D01*
X73174926Y-50311343D01*
X73174930Y-50311347D01*
X73283664Y-50405567D01*
X73283667Y-50405568D01*
X73283668Y-50405569D01*
X73389806Y-50454042D01*
X73414541Y-50465338D01*
X73481580Y-50485023D01*
X73481584Y-50485024D01*
X73624000Y-50505500D01*
X73851042Y-50505500D01*
X73918081Y-50525185D01*
X73956580Y-50564402D01*
X73962288Y-50573656D01*
X74086344Y-50697712D01*
X74235666Y-50789814D01*
X74402203Y-50844999D01*
X74504991Y-50855500D01*
X75495008Y-50855499D01*
X75495016Y-50855498D01*
X75495019Y-50855498D01*
X75551302Y-50849748D01*
X75597797Y-50844999D01*
X75764334Y-50789814D01*
X75913656Y-50697712D01*
X76037712Y-50573656D01*
X76086212Y-50495022D01*
X76131772Y-50454042D01*
X76130978Y-50452807D01*
X76137504Y-50448613D01*
X76258543Y-50370825D01*
X76311347Y-50325070D01*
X76405567Y-50216336D01*
X76441570Y-50137503D01*
X76462706Y-50091223D01*
X76508461Y-50038419D01*
X76575501Y-50018735D01*
X76642540Y-50038420D01*
X76688295Y-50091224D01*
X76699500Y-50142735D01*
X76699500Y-50779902D01*
X76679815Y-50846941D01*
X76663181Y-50867583D01*
X76158747Y-51372017D01*
X76097424Y-51405502D01*
X76027732Y-51400518D01*
X75983385Y-51372017D01*
X75913657Y-51302289D01*
X75913656Y-51302288D01*
X75793755Y-51228333D01*
X75764336Y-51210187D01*
X75764331Y-51210185D01*
X75762862Y-51209698D01*
X75597797Y-51155001D01*
X75597795Y-51155000D01*
X75495010Y-51144500D01*
X74504998Y-51144500D01*
X74504980Y-51144501D01*
X74402203Y-51155000D01*
X74402200Y-51155001D01*
X74235668Y-51210185D01*
X74235663Y-51210187D01*
X74086342Y-51302289D01*
X73962289Y-51426342D01*
X73870187Y-51575663D01*
X73870186Y-51575666D01*
X73815001Y-51742203D01*
X73815001Y-51742204D01*
X73815000Y-51742204D01*
X73804500Y-51844983D01*
X73804500Y-53035001D01*
X73804501Y-53035018D01*
X73815000Y-53137796D01*
X73815001Y-53137799D01*
X73870185Y-53304331D01*
X73870186Y-53304334D01*
X73962288Y-53453656D01*
X74086344Y-53577712D01*
X74235666Y-53669814D01*
X74314505Y-53695938D01*
X74371948Y-53735709D01*
X74398772Y-53800224D01*
X74399500Y-53813643D01*
X74399500Y-54345887D01*
X74379815Y-54412926D01*
X74327011Y-54458681D01*
X74317807Y-54462295D01*
X74316297Y-54462999D01*
X74171956Y-54552031D01*
X74052032Y-54671955D01*
X74052029Y-54671959D01*
X73963001Y-54816294D01*
X73962996Y-54816305D01*
X73909651Y-54977290D01*
X73899500Y-55076647D01*
X73899500Y-55623337D01*
X73899501Y-55623355D01*
X73909650Y-55722707D01*
X73909651Y-55722710D01*
X73962996Y-55883694D01*
X73963001Y-55883705D01*
X74052029Y-56028040D01*
X74052032Y-56028044D01*
X74171956Y-56147968D01*
X74207614Y-56169962D01*
X74254337Y-56221909D01*
X74265560Y-56290872D01*
X74237716Y-56354954D01*
X74179647Y-56393810D01*
X74142516Y-56399500D01*
X73262597Y-56399500D01*
X73195558Y-56379815D01*
X73174916Y-56363181D01*
X72261818Y-55450083D01*
X72228333Y-55388760D01*
X72225499Y-55362402D01*
X72225499Y-54649998D01*
X72225498Y-54649981D01*
X72214999Y-54547203D01*
X72214998Y-54547200D01*
X72159814Y-54380666D01*
X72067712Y-54231344D01*
X71943656Y-54107288D01*
X71825647Y-54034500D01*
X71794336Y-54015187D01*
X71794331Y-54015185D01*
X71743013Y-53998180D01*
X71627797Y-53960001D01*
X71627795Y-53960000D01*
X71525010Y-53949500D01*
X70474998Y-53949500D01*
X70474980Y-53949501D01*
X70372203Y-53960000D01*
X70372200Y-53960001D01*
X70205668Y-54015185D01*
X70205661Y-54015188D01*
X70204285Y-54016038D01*
X70203150Y-54016359D01*
X70199118Y-54018240D01*
X70198814Y-54017589D01*
X70139187Y-54034500D01*
X69820808Y-54034500D01*
X69753769Y-54014815D01*
X69733126Y-53998180D01*
X69701870Y-53966923D01*
X69701862Y-53966917D01*
X69560396Y-53883255D01*
X69560393Y-53883254D01*
X69402573Y-53837402D01*
X69402567Y-53837401D01*
X69365701Y-53834500D01*
X69365694Y-53834500D01*
X67584306Y-53834500D01*
X67584298Y-53834500D01*
X67547432Y-53837401D01*
X67547426Y-53837402D01*
X67389606Y-53883254D01*
X67389603Y-53883255D01*
X67248140Y-53966915D01*
X67248134Y-53966919D01*
X67159932Y-54055120D01*
X67134252Y-54074824D01*
X66996287Y-54154477D01*
X66996282Y-54154481D01*
X65187584Y-55963181D01*
X65126261Y-55996666D01*
X65099903Y-55999500D01*
X61400097Y-55999500D01*
X61333058Y-55979815D01*
X61312416Y-55963181D01*
X60487590Y-55138355D01*
X60487588Y-55138352D01*
X60368717Y-55019481D01*
X60368716Y-55019480D01*
X60262996Y-54958443D01*
X60262995Y-54958442D01*
X60231783Y-54940422D01*
X60175881Y-54925443D01*
X60079057Y-54899499D01*
X59920943Y-54899499D01*
X59913347Y-54899499D01*
X59913331Y-54899500D01*
X50920940Y-54899500D01*
X50880019Y-54910464D01*
X50880019Y-54910465D01*
X50842751Y-54920451D01*
X50768214Y-54940423D01*
X50768209Y-54940426D01*
X50631290Y-55019475D01*
X50631282Y-55019481D01*
X50312180Y-55338584D01*
X50250857Y-55372069D01*
X50181165Y-55367085D01*
X50125232Y-55325213D01*
X50100815Y-55259749D01*
X50100499Y-55250903D01*
X50100499Y-55076662D01*
X50100498Y-55076644D01*
X50090349Y-54977292D01*
X50090348Y-54977289D01*
X50078132Y-54940423D01*
X50037003Y-54816303D01*
X50036999Y-54816297D01*
X50036998Y-54816294D01*
X49947970Y-54671959D01*
X49947967Y-54671955D01*
X49828043Y-54552031D01*
X49683702Y-54462999D01*
X49677155Y-54459947D01*
X49677904Y-54458338D01*
X49628047Y-54423816D01*
X49601227Y-54359299D01*
X49600500Y-54345887D01*
X49600500Y-53813643D01*
X49620185Y-53746604D01*
X49672989Y-53700849D01*
X49685482Y-53695942D01*
X49764334Y-53669814D01*
X49913656Y-53577712D01*
X50037712Y-53453656D01*
X50129814Y-53304334D01*
X50184999Y-53137797D01*
X50194389Y-53045883D01*
X50220783Y-52981194D01*
X50255744Y-52951102D01*
X50308716Y-52920520D01*
X50420520Y-52808716D01*
X50420520Y-52808714D01*
X50430728Y-52798507D01*
X50430730Y-52798504D01*
X51266980Y-51962253D01*
X51328301Y-51928770D01*
X51397993Y-51933754D01*
X51410954Y-51939451D01*
X51500776Y-51985218D01*
X51500778Y-51985218D01*
X51500781Y-51985220D01*
X51605137Y-52019127D01*
X51695465Y-52048477D01*
X51796557Y-52064488D01*
X51897648Y-52080500D01*
X51897649Y-52080500D01*
X52102351Y-52080500D01*
X52102352Y-52080500D01*
X52304534Y-52048477D01*
X52499219Y-51985220D01*
X52681610Y-51892287D01*
X52774590Y-51824732D01*
X52847213Y-51771971D01*
X52847215Y-51771968D01*
X52847219Y-51771966D01*
X52991966Y-51627219D01*
X52991968Y-51627215D01*
X52991971Y-51627213D01*
X53112284Y-51461614D01*
X53112286Y-51461611D01*
X53112287Y-51461610D01*
X53159516Y-51368917D01*
X53207489Y-51318123D01*
X53275310Y-51301328D01*
X53341445Y-51323865D01*
X53380483Y-51368917D01*
X53396585Y-51400518D01*
X53427715Y-51461614D01*
X53548028Y-51627213D01*
X53692786Y-51771971D01*
X53840512Y-51879298D01*
X53858390Y-51892287D01*
X53974607Y-51951503D01*
X54040776Y-51985218D01*
X54040778Y-51985218D01*
X54040781Y-51985220D01*
X54145137Y-52019127D01*
X54235465Y-52048477D01*
X54336557Y-52064488D01*
X54437648Y-52080500D01*
X54437649Y-52080500D01*
X54642351Y-52080500D01*
X54642352Y-52080500D01*
X54844534Y-52048477D01*
X55039219Y-51985220D01*
X55221610Y-51892287D01*
X55314590Y-51824732D01*
X55387213Y-51771971D01*
X55387215Y-51771968D01*
X55387219Y-51771966D01*
X55531966Y-51627219D01*
X55531968Y-51627215D01*
X55531971Y-51627213D01*
X55652284Y-51461614D01*
X55652286Y-51461611D01*
X55652287Y-51461610D01*
X55699516Y-51368917D01*
X55747489Y-51318123D01*
X55815310Y-51301328D01*
X55881445Y-51323865D01*
X55920483Y-51368917D01*
X55936585Y-51400518D01*
X55967715Y-51461614D01*
X56088028Y-51627213D01*
X56232786Y-51771971D01*
X56380512Y-51879298D01*
X56398390Y-51892287D01*
X56514607Y-51951503D01*
X56580776Y-51985218D01*
X56580778Y-51985218D01*
X56580781Y-51985220D01*
X56685137Y-52019127D01*
X56775465Y-52048477D01*
X56876557Y-52064488D01*
X56977648Y-52080500D01*
X56977649Y-52080500D01*
X57182351Y-52080500D01*
X57182352Y-52080500D01*
X57384534Y-52048477D01*
X57579219Y-51985220D01*
X57761610Y-51892287D01*
X57854590Y-51824732D01*
X57927213Y-51771971D01*
X57927215Y-51771968D01*
X57927219Y-51771966D01*
X58071966Y-51627219D01*
X58071968Y-51627215D01*
X58071971Y-51627213D01*
X58192286Y-51461611D01*
X58192288Y-51461608D01*
X58239516Y-51368917D01*
X58287487Y-51318124D01*
X58355308Y-51301328D01*
X58421443Y-51323865D01*
X58460483Y-51368919D01*
X58507711Y-51461608D01*
X58507712Y-51461610D01*
X58628028Y-51627213D01*
X58772786Y-51771971D01*
X58920512Y-51879298D01*
X58938390Y-51892287D01*
X59054607Y-51951503D01*
X59120776Y-51985218D01*
X59120778Y-51985218D01*
X59120781Y-51985220D01*
X59225137Y-52019127D01*
X59315465Y-52048477D01*
X59416557Y-52064488D01*
X59517648Y-52080500D01*
X59517649Y-52080500D01*
X59722351Y-52080500D01*
X59722352Y-52080500D01*
X59924534Y-52048477D01*
X60119219Y-51985220D01*
X60301610Y-51892287D01*
X60394590Y-51824732D01*
X60467213Y-51771971D01*
X60467215Y-51771968D01*
X60467219Y-51771966D01*
X60611966Y-51627219D01*
X60611968Y-51627215D01*
X60611971Y-51627213D01*
X60673060Y-51543129D01*
X60732287Y-51461610D01*
X60825220Y-51279219D01*
X60888477Y-51084534D01*
X60920500Y-50882352D01*
X60920500Y-49877648D01*
X60888477Y-49675466D01*
X60825220Y-49480781D01*
X60825218Y-49480778D01*
X60825218Y-49480776D01*
X60769897Y-49372204D01*
X60732287Y-49298390D01*
X60724556Y-49287749D01*
X60611971Y-49132786D01*
X60467213Y-48988028D01*
X60301610Y-48867712D01*
X60288200Y-48860879D01*
X60237406Y-48812903D01*
X60220500Y-48750397D01*
X60220500Y-47224499D01*
X60240185Y-47157460D01*
X60292989Y-47111705D01*
X60344500Y-47100499D01*
X60500002Y-47100499D01*
X60500008Y-47100499D01*
X60602797Y-47089999D01*
X60769334Y-47034814D01*
X60918656Y-46942712D01*
X61042712Y-46818656D01*
X61134814Y-46669334D01*
X61134815Y-46669331D01*
X61138605Y-46663187D01*
X61140399Y-46664293D01*
X61179687Y-46619663D01*
X61245908Y-46600500D01*
X61775500Y-46600500D01*
X61842539Y-46620185D01*
X61888294Y-46672989D01*
X61899500Y-46724499D01*
X61899500Y-46923336D01*
X61899501Y-46923344D01*
X61909650Y-47022707D01*
X61909651Y-47022710D01*
X61962996Y-47183694D01*
X61963001Y-47183705D01*
X62052029Y-47328040D01*
X62052032Y-47328044D01*
X62171955Y-47447967D01*
X62171959Y-47447970D01*
X62316294Y-47536998D01*
X62316297Y-47536999D01*
X62316303Y-47537003D01*
X62477292Y-47590349D01*
X62576655Y-47600500D01*
X63423344Y-47600499D01*
X63423352Y-47600498D01*
X63423355Y-47600498D01*
X63477760Y-47594940D01*
X63522708Y-47590349D01*
X63683697Y-47537003D01*
X63828044Y-47447968D01*
X63947968Y-47328044D01*
X64037003Y-47183697D01*
X64090349Y-47022708D01*
X64100500Y-46923345D01*
X64100499Y-46376656D01*
X64090349Y-46277292D01*
X64037003Y-46116303D01*
X64036999Y-46116297D01*
X64036998Y-46116294D01*
X63947970Y-45971959D01*
X63947967Y-45971955D01*
X63828044Y-45852032D01*
X63828040Y-45852029D01*
X63683705Y-45763001D01*
X63683699Y-45762998D01*
X63683697Y-45762997D01*
X63683694Y-45762996D01*
X63522709Y-45709651D01*
X63423352Y-45699500D01*
X63423345Y-45699500D01*
X62950097Y-45699500D01*
X62920656Y-45690855D01*
X62890670Y-45684332D01*
X62885654Y-45680577D01*
X62883058Y-45679815D01*
X62862416Y-45663181D01*
X62837590Y-45638355D01*
X62837588Y-45638352D01*
X62718717Y-45519481D01*
X62718716Y-45519480D01*
X62631904Y-45469360D01*
X62631904Y-45469359D01*
X62631900Y-45469358D01*
X62581785Y-45440423D01*
X62429057Y-45399499D01*
X62270943Y-45399499D01*
X62263347Y-45399499D01*
X62263331Y-45399500D01*
X61245908Y-45399500D01*
X61178869Y-45379815D01*
X61140363Y-45335728D01*
X61138605Y-45336813D01*
X61134812Y-45330663D01*
X61042712Y-45181344D01*
X60949049Y-45087681D01*
X60915564Y-45026358D01*
X60920548Y-44956666D01*
X60949049Y-44912319D01*
X61042712Y-44818656D01*
X61134814Y-44669334D01*
X61134815Y-44669331D01*
X61138605Y-44663187D01*
X61140399Y-44664293D01*
X61179687Y-44619663D01*
X61245908Y-44600500D01*
X62263331Y-44600500D01*
X62263347Y-44600501D01*
X62270943Y-44600501D01*
X62429054Y-44600501D01*
X62429057Y-44600501D01*
X62581785Y-44559577D01*
X62631904Y-44530639D01*
X62718716Y-44480520D01*
X62830520Y-44368716D01*
X62830520Y-44368714D01*
X62840728Y-44358507D01*
X62840731Y-44358503D01*
X62862418Y-44336816D01*
X62923742Y-44303332D01*
X62950097Y-44300499D01*
X63423338Y-44300499D01*
X63423344Y-44300499D01*
X63423352Y-44300498D01*
X63423355Y-44300498D01*
X63477760Y-44294940D01*
X63522708Y-44290349D01*
X63683697Y-44237003D01*
X63828044Y-44147968D01*
X63947968Y-44028044D01*
X64037003Y-43883697D01*
X64090349Y-43722708D01*
X64100500Y-43623345D01*
X64100499Y-43076656D01*
X64096754Y-43039999D01*
X64090349Y-42977292D01*
X64090348Y-42977289D01*
X64086338Y-42965187D01*
X64037003Y-42816303D01*
X64036999Y-42816297D01*
X64036998Y-42816294D01*
X63947970Y-42671959D01*
X63947967Y-42671955D01*
X63828044Y-42552032D01*
X63828040Y-42552029D01*
X63683705Y-42463001D01*
X63683699Y-42462998D01*
X63683697Y-42462997D01*
X63604790Y-42436850D01*
X63522709Y-42409651D01*
X63423346Y-42399500D01*
X62576662Y-42399500D01*
X62576644Y-42399501D01*
X62477292Y-42409650D01*
X62477289Y-42409651D01*
X62316305Y-42462996D01*
X62316294Y-42463001D01*
X62189597Y-42541150D01*
X62122205Y-42559591D01*
X62055541Y-42538669D01*
X62010771Y-42485027D01*
X62000500Y-42435612D01*
X62000500Y-37400097D01*
X62020185Y-37333058D01*
X62036819Y-37312416D01*
X62740494Y-36608741D01*
X63480520Y-35868716D01*
X63559577Y-35731784D01*
X63596924Y-35592404D01*
X63633290Y-35532744D01*
X63696137Y-35502216D01*
X63716699Y-35500499D01*
X64000371Y-35500499D01*
X64000372Y-35500499D01*
X64059983Y-35494091D01*
X64059986Y-35494089D01*
X64061313Y-35493947D01*
X64130072Y-35506353D01*
X64181210Y-35553963D01*
X64198489Y-35621663D01*
X64176424Y-35687957D01*
X64168281Y-35698440D01*
X64094432Y-35783664D01*
X64094430Y-35783668D01*
X64034664Y-35914534D01*
X64034662Y-35914541D01*
X64014977Y-35981580D01*
X64014976Y-35981584D01*
X63994500Y-36124000D01*
X63994500Y-40626000D01*
X63994501Y-40626009D01*
X64006052Y-40733450D01*
X64006054Y-40733462D01*
X64017260Y-40784972D01*
X64051383Y-40887497D01*
X64051386Y-40887503D01*
X64129171Y-41008537D01*
X64129179Y-41008548D01*
X64174923Y-41061340D01*
X64174926Y-41061343D01*
X64174930Y-41061347D01*
X64283664Y-41155567D01*
X64283667Y-41155568D01*
X64283668Y-41155569D01*
X64401525Y-41209394D01*
X64414541Y-41215338D01*
X64481580Y-41235023D01*
X64481584Y-41235024D01*
X64624000Y-41255500D01*
X67298039Y-41255500D01*
X67319466Y-41261791D01*
X67341737Y-41263455D01*
X67352340Y-41271444D01*
X67365078Y-41275185D01*
X67379701Y-41292061D01*
X67397539Y-41305502D01*
X67405367Y-41321681D01*
X67410833Y-41327989D01*
X67414356Y-41336532D01*
X67416335Y-41341890D01*
X67440423Y-41431785D01*
X67460468Y-41466503D01*
X67519480Y-41568716D01*
X67631284Y-41680520D01*
X67631285Y-41680521D01*
X68131284Y-42180520D01*
X68131286Y-42180521D01*
X68131290Y-42180524D01*
X68256093Y-42252578D01*
X68268216Y-42259577D01*
X68420943Y-42300501D01*
X68420945Y-42300501D01*
X68586654Y-42300501D01*
X68586670Y-42300500D01*
X70099903Y-42300500D01*
X70166942Y-42320185D01*
X70187584Y-42336819D01*
X70863181Y-43012416D01*
X70896666Y-43073739D01*
X70899500Y-43100097D01*
X70899500Y-48650500D01*
X70879815Y-48717539D01*
X70827011Y-48763294D01*
X70775501Y-48774500D01*
X70649999Y-48774500D01*
X70649980Y-48774501D01*
X70547203Y-48785000D01*
X70547200Y-48785001D01*
X70380668Y-48840185D01*
X70380663Y-48840187D01*
X70231342Y-48932289D01*
X70107289Y-49056342D01*
X70015187Y-49205663D01*
X70015186Y-49205666D01*
X69960001Y-49372203D01*
X69960001Y-49372204D01*
X69960000Y-49372204D01*
X69949500Y-49474983D01*
X69949500Y-50525001D01*
X69949501Y-50525019D01*
X69960000Y-50627796D01*
X69960001Y-50627799D01*
X70001393Y-50752710D01*
X70003795Y-50822538D01*
X69971368Y-50879395D01*
X69571269Y-51279494D01*
X69509946Y-51312979D01*
X69448993Y-51310889D01*
X69402573Y-51297402D01*
X69402567Y-51297401D01*
X69365701Y-51294500D01*
X69365694Y-51294500D01*
X67584306Y-51294500D01*
X67584298Y-51294500D01*
X67547432Y-51297401D01*
X67547426Y-51297402D01*
X67389606Y-51343254D01*
X67389603Y-51343255D01*
X67248137Y-51426917D01*
X67248129Y-51426923D01*
X67131923Y-51543129D01*
X67131917Y-51543137D01*
X67048255Y-51684603D01*
X67048254Y-51684606D01*
X67002402Y-51842426D01*
X67002401Y-51842432D01*
X66999500Y-51879298D01*
X66999500Y-52310701D01*
X67002401Y-52347567D01*
X67002402Y-52347573D01*
X67048254Y-52505393D01*
X67048255Y-52505396D01*
X67131917Y-52646862D01*
X67131923Y-52646870D01*
X67248129Y-52763076D01*
X67248133Y-52763079D01*
X67248135Y-52763081D01*
X67389602Y-52846744D01*
X67431224Y-52858836D01*
X67547426Y-52892597D01*
X67547429Y-52892597D01*
X67547431Y-52892598D01*
X67584306Y-52895500D01*
X67584314Y-52895500D01*
X69365686Y-52895500D01*
X69365694Y-52895500D01*
X69402569Y-52892598D01*
X69402571Y-52892597D01*
X69402573Y-52892597D01*
X69444191Y-52880505D01*
X69560398Y-52846744D01*
X69701865Y-52763081D01*
X69777208Y-52687736D01*
X69809025Y-52664716D01*
X69820437Y-52658957D01*
X69836785Y-52654577D01*
X69886904Y-52625639D01*
X69973716Y-52575520D01*
X70085520Y-52463716D01*
X70085520Y-52463714D01*
X70095728Y-52453507D01*
X70095730Y-52453504D01*
X71287416Y-51261818D01*
X71348739Y-51228333D01*
X71375097Y-51225499D01*
X71425002Y-51225499D01*
X71425008Y-51225499D01*
X71527797Y-51214999D01*
X71694334Y-51159814D01*
X71843656Y-51067712D01*
X71967712Y-50943656D01*
X72059814Y-50794334D01*
X72114999Y-50627797D01*
X72125500Y-50525009D01*
X72125499Y-49474992D01*
X72114999Y-49372203D01*
X72106794Y-49347441D01*
X72100500Y-49308437D01*
X72100500Y-42889059D01*
X72100501Y-42889046D01*
X72100501Y-42720945D01*
X72100501Y-42720943D01*
X72059577Y-42568215D01*
X72023239Y-42505276D01*
X71980520Y-42431284D01*
X71868716Y-42319480D01*
X71868715Y-42319479D01*
X71864385Y-42315149D01*
X71864374Y-42315139D01*
X71016416Y-41467181D01*
X70982931Y-41405858D01*
X70987915Y-41336166D01*
X71029787Y-41280233D01*
X71095251Y-41255816D01*
X71104097Y-41255500D01*
X71775990Y-41255500D01*
X71776000Y-41255500D01*
X71883456Y-41243947D01*
X71934967Y-41232741D01*
X71969197Y-41221347D01*
X72037497Y-41198616D01*
X72037501Y-41198613D01*
X72037504Y-41198613D01*
X72158543Y-41120825D01*
X72211347Y-41075070D01*
X72305567Y-40966336D01*
X72365338Y-40835459D01*
X72385023Y-40768420D01*
X72385024Y-40768416D01*
X72405500Y-40626000D01*
X72405500Y-33124000D01*
X72425185Y-33056961D01*
X72477989Y-33011206D01*
X72529500Y-33000000D01*
X75423000Y-33000000D01*
X75490039Y-33019685D01*
G37*
G04 #@! TD.AperFunction*
G04 #@! TA.AperFunction,Conductor*
G36*
X105287085Y-43011794D02*
G01*
X105327497Y-43025185D01*
X105372203Y-43039999D01*
X105474991Y-43050500D01*
X106525008Y-43050499D01*
X106525016Y-43050498D01*
X106525019Y-43050498D01*
X106581302Y-43044748D01*
X106627797Y-43039999D01*
X106712914Y-43011794D01*
X106751918Y-43005500D01*
X109625500Y-43005500D01*
X109692539Y-43025185D01*
X109738294Y-43077989D01*
X109749500Y-43129500D01*
X109749500Y-43500000D01*
X98600000Y-43500000D01*
X98600000Y-51300000D01*
X97536042Y-51300000D01*
X97575087Y-51232371D01*
X97625650Y-51184159D01*
X97643464Y-51176670D01*
X97694334Y-51159814D01*
X97843656Y-51067712D01*
X97967712Y-50943656D01*
X98059814Y-50794334D01*
X98114999Y-50627797D01*
X98125500Y-50525009D01*
X98125499Y-49474992D01*
X98114999Y-49372203D01*
X98106794Y-49347441D01*
X98100500Y-49308437D01*
X98100500Y-43189057D01*
X98100500Y-43179059D01*
X98100501Y-43179057D01*
X98100501Y-43129498D01*
X98115096Y-43079796D01*
X98120186Y-43062461D01*
X98120186Y-43062460D01*
X98120187Y-43062459D01*
X98172991Y-43016705D01*
X98173001Y-43016703D01*
X98224501Y-43005500D01*
X105248082Y-43005500D01*
X105287085Y-43011794D01*
G37*
G04 #@! TD.AperFunction*
M02*
