G04 #@! TF.GenerationSoftware,KiCad,Pcbnew,9.0.1*
G04 #@! TF.CreationDate,2026-04-29T13:57:15+03:00*
G04 #@! TF.ProjectId,BLDC_motor_driver_testing,424c4443-5f6d-46f7-946f-725f64726976,rev?*
G04 #@! TF.SameCoordinates,Original*
G04 #@! TF.FileFunction,Soldermask,Top*
G04 #@! TF.FilePolarity,Negative*
%FSLAX46Y46*%
G04 Gerber Fmt 4.6, Leading zero omitted, Abs format (unit mm)*
G04 Created by KiCad (PCBNEW 9.0.1) date 2026-04-29 13:57:15*
%MOMM*%
%LPD*%
G01*
G04 APERTURE LIST*
G04 Aperture macros list*
%AMRoundRect*
0 Rectangle with rounded corners*
0 $1 Rounding radius*
0 $2 $3 $4 $5 $6 $7 $8 $9 X,Y pos of 4 corners*
0 Add a 4 corners polygon primitive as box body*
4,1,4,$2,$3,$4,$5,$6,$7,$8,$9,$2,$3,0*
0 Add four circle primitives for the rounded corners*
1,1,$1+$1,$2,$3*
1,1,$1+$1,$4,$5*
1,1,$1+$1,$6,$7*
1,1,$1+$1,$8,$9*
0 Add four rect primitives between the rounded corners*
20,1,$1+$1,$2,$3,$4,$5,0*
20,1,$1+$1,$4,$5,$6,$7,0*
20,1,$1+$1,$6,$7,$8,$9,0*
20,1,$1+$1,$8,$9,$2,$3,0*%
G04 Aperture macros list end*
%ADD10C,2.200000*%
%ADD11RoundRect,0.087500X0.537500X0.087500X-0.537500X0.087500X-0.537500X-0.087500X0.537500X-0.087500X0*%
%ADD12RoundRect,0.250000X0.445000X-0.545000X0.445000X0.545000X-0.445000X0.545000X-0.445000X-0.545000X0*%
%ADD13RoundRect,0.250000X-1.000000X1.500000X-1.000000X-1.500000X1.000000X-1.500000X1.000000X1.500000X0*%
%ADD14RoundRect,0.250000X-1.425000X0.362500X-1.425000X-0.362500X1.425000X-0.362500X1.425000X0.362500X0*%
%ADD15RoundRect,0.250000X0.450000X-0.350000X0.450000X0.350000X-0.450000X0.350000X-0.450000X-0.350000X0*%
%ADD16RoundRect,0.250000X0.475000X-0.337500X0.475000X0.337500X-0.475000X0.337500X-0.475000X-0.337500X0*%
%ADD17RoundRect,0.225000X-0.375000X0.225000X-0.375000X-0.225000X0.375000X-0.225000X0.375000X0.225000X0*%
%ADD18RoundRect,0.250000X0.337500X0.475000X-0.337500X0.475000X-0.337500X-0.475000X0.337500X-0.475000X0*%
%ADD19RoundRect,0.150000X-0.825000X-0.150000X0.825000X-0.150000X0.825000X0.150000X-0.825000X0.150000X0*%
%ADD20RoundRect,0.250000X-0.475000X0.337500X-0.475000X-0.337500X0.475000X-0.337500X0.475000X0.337500X0*%
%ADD21C,2.600000*%
%ADD22C,4.400000*%
%ADD23RoundRect,0.250000X-0.350000X-0.450000X0.350000X-0.450000X0.350000X0.450000X-0.350000X0.450000X0*%
%ADD24RoundRect,0.250000X-0.750000X-0.750000X0.750000X-0.750000X0.750000X0.750000X-0.750000X0.750000X0*%
%ADD25C,2.000000*%
%ADD26R,1.905000X2.000000*%
%ADD27O,1.905000X2.000000*%
%ADD28RoundRect,0.250000X0.550000X-0.950000X0.550000X0.950000X-0.550000X0.950000X-0.550000X-0.950000X0*%
%ADD29O,1.600000X2.400000*%
%ADD30RoundRect,0.250000X0.750000X-0.750000X0.750000X0.750000X-0.750000X0.750000X-0.750000X-0.750000X0*%
%ADD31RoundRect,0.225000X0.375000X-0.225000X0.375000X0.225000X-0.375000X0.225000X-0.375000X-0.225000X0*%
%ADD32RoundRect,0.250000X0.450000X-0.325000X0.450000X0.325000X-0.450000X0.325000X-0.450000X-0.325000X0*%
%ADD33RoundRect,0.250000X-0.450000X0.350000X-0.450000X-0.350000X0.450000X-0.350000X0.450000X0.350000X0*%
%ADD34RoundRect,0.250000X-0.545000X-0.445000X0.545000X-0.445000X0.545000X0.445000X-0.545000X0.445000X0*%
%ADD35RoundRect,0.375000X0.625000X0.375000X-0.625000X0.375000X-0.625000X-0.375000X0.625000X-0.375000X0*%
%ADD36RoundRect,0.500000X0.500000X1.400000X-0.500000X1.400000X-0.500000X-1.400000X0.500000X-1.400000X0*%
G04 APERTURE END LIST*
D10*
X25000000Y-25000000D03*
X105000000Y-25000000D03*
X25000000Y-78000000D03*
X105000000Y-78000000D03*
D11*
X39400000Y-59250000D03*
X39400000Y-58750000D03*
X39400000Y-58250000D03*
X39400000Y-57750000D03*
X36600000Y-57750000D03*
X36600000Y-58250000D03*
X36600000Y-58750000D03*
X36600000Y-59250000D03*
X65400000Y-59250000D03*
X65400000Y-58750000D03*
X65400000Y-58250000D03*
X65400000Y-57750000D03*
X62600000Y-57750000D03*
X62600000Y-58250000D03*
X62600000Y-58750000D03*
X62600000Y-59250000D03*
X91400000Y-59250000D03*
X91400000Y-58750000D03*
X91400000Y-58250000D03*
X91400000Y-57750000D03*
X88600000Y-57750000D03*
X88600000Y-58250000D03*
X88600000Y-58750000D03*
X88600000Y-59250000D03*
D12*
X23000000Y-49560000D03*
X23000000Y-52440000D03*
X49000000Y-49560000D03*
X49000000Y-52440000D03*
X75000000Y-49560000D03*
X75000000Y-52440000D03*
D13*
X25500000Y-64750000D03*
X25500000Y-71250000D03*
D14*
X94000000Y-40037500D03*
X94000000Y-45962500D03*
X42000000Y-40037500D03*
X42000000Y-45962500D03*
D15*
X60000000Y-46000000D03*
X60000000Y-44000000D03*
D16*
X71000000Y-55037500D03*
X71000000Y-52962500D03*
D17*
X75000000Y-55350000D03*
X75000000Y-58650000D03*
D18*
X45037500Y-50000000D03*
X42962500Y-50000000D03*
D19*
X37525000Y-52095000D03*
X37525000Y-53365000D03*
X37525000Y-54635000D03*
X37525000Y-55905000D03*
X42475000Y-55905000D03*
X42475000Y-54635000D03*
X42475000Y-53365000D03*
X42475000Y-52095000D03*
D20*
X89000000Y-60962500D03*
X89000000Y-63037500D03*
D21*
X65000000Y-25000000D03*
D22*
X65000000Y-25000000D03*
D23*
X58000000Y-61000000D03*
X60000000Y-61000000D03*
D24*
X87500000Y-77000000D03*
D25*
X90040000Y-77000000D03*
X92580000Y-77000000D03*
D16*
X99500000Y-58037500D03*
X99500000Y-55962500D03*
X45000000Y-55037500D03*
X45000000Y-52962500D03*
D15*
X43500000Y-61000000D03*
X43500000Y-59000000D03*
D20*
X37000000Y-60962500D03*
X37000000Y-63037500D03*
D23*
X32000000Y-61000000D03*
X34000000Y-61000000D03*
D15*
X54000000Y-46000000D03*
X54000000Y-44000000D03*
D20*
X63000000Y-60962500D03*
X63000000Y-63037500D03*
D26*
X25000000Y-34000000D03*
D27*
X27540000Y-34000000D03*
X30080000Y-34000000D03*
D28*
X78000000Y-58000000D03*
D29*
X80540000Y-58000000D03*
X83080000Y-58000000D03*
X85620000Y-58000000D03*
X85620000Y-50380000D03*
X83080000Y-50380000D03*
X80540000Y-50380000D03*
X78000000Y-50380000D03*
D13*
X77500000Y-64750000D03*
X77500000Y-71250000D03*
D30*
X104500000Y-71000000D03*
D25*
X104500000Y-68460000D03*
D26*
X77000000Y-34000000D03*
D27*
X79540000Y-34000000D03*
X82080000Y-34000000D03*
D15*
X80000000Y-46000000D03*
X80000000Y-44000000D03*
D24*
X61500000Y-77000000D03*
D25*
X64040000Y-77000000D03*
X66580000Y-77000000D03*
D26*
X63000000Y-34000000D03*
D27*
X65540000Y-34000000D03*
X68080000Y-34000000D03*
D26*
X37000000Y-34000000D03*
D27*
X39540000Y-34000000D03*
X42080000Y-34000000D03*
D24*
X35500000Y-77000000D03*
D25*
X38040000Y-77000000D03*
X40580000Y-77000000D03*
D28*
X52000000Y-58000000D03*
D29*
X54540000Y-58000000D03*
X57080000Y-58000000D03*
X59620000Y-58000000D03*
X59620000Y-50380000D03*
X57080000Y-50380000D03*
X54540000Y-50380000D03*
X52000000Y-50380000D03*
D31*
X37000000Y-46650000D03*
X37000000Y-43350000D03*
D19*
X63525000Y-52095000D03*
X63525000Y-53365000D03*
X63525000Y-54635000D03*
X63525000Y-55905000D03*
X68475000Y-55905000D03*
X68475000Y-54635000D03*
X68475000Y-53365000D03*
X68475000Y-52095000D03*
D21*
X106000000Y-50000000D03*
D22*
X106000000Y-50000000D03*
D31*
X25000000Y-46650000D03*
X25000000Y-43350000D03*
D16*
X107500000Y-58037500D03*
X107500000Y-55962500D03*
X97000000Y-55037500D03*
X97000000Y-52962500D03*
D32*
X99000000Y-62025000D03*
X99000000Y-59975000D03*
D15*
X95500000Y-61000000D03*
X95500000Y-59000000D03*
D21*
X45000000Y-25000000D03*
D22*
X45000000Y-25000000D03*
D17*
X49000000Y-55350000D03*
X49000000Y-58650000D03*
D31*
X89000000Y-46650000D03*
X89000000Y-43350000D03*
D23*
X84000000Y-61000000D03*
X86000000Y-61000000D03*
D31*
X77000000Y-46650000D03*
X77000000Y-43350000D03*
D15*
X69500000Y-61000000D03*
X69500000Y-59000000D03*
D20*
X106000000Y-41962500D03*
X106000000Y-44037500D03*
D33*
X99000000Y-64000000D03*
X99000000Y-66000000D03*
D34*
X23560000Y-61000000D03*
X26440000Y-61000000D03*
D33*
X93500000Y-59000000D03*
X93500000Y-61000000D03*
D28*
X26000000Y-58000000D03*
D29*
X28540000Y-58000000D03*
X31080000Y-58000000D03*
X33620000Y-58000000D03*
X33620000Y-50380000D03*
X31080000Y-50380000D03*
X28540000Y-50380000D03*
X26000000Y-50380000D03*
D19*
X89525000Y-52095000D03*
X89525000Y-53365000D03*
X89525000Y-54635000D03*
X89525000Y-55905000D03*
X94475000Y-55905000D03*
X94475000Y-54635000D03*
X94475000Y-53365000D03*
X94475000Y-52095000D03*
D26*
X51000000Y-34000000D03*
D27*
X53540000Y-34000000D03*
X56080000Y-34000000D03*
D15*
X28000000Y-46000000D03*
X28000000Y-44000000D03*
D26*
X89000000Y-34000000D03*
D27*
X91540000Y-34000000D03*
X94080000Y-34000000D03*
D15*
X86000000Y-46000000D03*
X86000000Y-44000000D03*
D18*
X71037500Y-50000000D03*
X68962500Y-50000000D03*
D33*
X41500000Y-59000000D03*
X41500000Y-61000000D03*
D31*
X63000000Y-46650000D03*
X63000000Y-43350000D03*
D14*
X68000000Y-40037500D03*
X68000000Y-45962500D03*
D16*
X102000000Y-58037500D03*
X102000000Y-55962500D03*
D34*
X49560000Y-61000000D03*
X52440000Y-61000000D03*
D16*
X105000000Y-58037500D03*
X105000000Y-55962500D03*
D18*
X97037500Y-50000000D03*
X94962500Y-50000000D03*
D33*
X67500000Y-59000000D03*
X67500000Y-61000000D03*
D13*
X51500000Y-64750000D03*
X51500000Y-71250000D03*
D21*
X85000000Y-25000000D03*
D22*
X85000000Y-25000000D03*
D17*
X23000000Y-55350000D03*
X23000000Y-58650000D03*
D31*
X51000000Y-46650000D03*
X51000000Y-43350000D03*
D34*
X75560000Y-61000000D03*
X78440000Y-61000000D03*
D15*
X34000000Y-46000000D03*
X34000000Y-44000000D03*
D21*
X106000000Y-36000000D03*
D22*
X106000000Y-36000000D03*
D35*
X108150000Y-64800000D03*
X108150000Y-62500000D03*
D36*
X101850000Y-62500000D03*
D35*
X108150000Y-60200000D03*
G36*
X73443039Y-22519685D02*
G01*
X73488794Y-22572489D01*
X73500000Y-22624000D01*
X73500000Y-27376000D01*
X73480315Y-27443039D01*
X73427511Y-27488794D01*
X73376000Y-27500000D01*
X56624000Y-27500000D01*
X56556961Y-27480315D01*
X56511206Y-27427511D01*
X56500000Y-27376000D01*
X56500000Y-22624000D01*
X56519685Y-22556961D01*
X56572489Y-22511206D01*
X56624000Y-22500000D01*
X73376000Y-22500000D01*
X73443039Y-22519685D01*
G37*
G36*
X95443039Y-22519685D02*
G01*
X95488794Y-22572489D01*
X95500000Y-22624000D01*
X95500000Y-27376000D01*
X95480315Y-27443039D01*
X95427511Y-27488794D01*
X95376000Y-27500000D01*
X81124000Y-27500000D01*
X81056961Y-27480315D01*
X81011206Y-27427511D01*
X81000000Y-27376000D01*
X81000000Y-22624000D01*
X81019685Y-22556961D01*
X81072489Y-22511206D01*
X81124000Y-22500000D01*
X95376000Y-22500000D01*
X95443039Y-22519685D01*
G37*
G36*
X48943039Y-22519685D02*
G01*
X48988794Y-22572489D01*
X49000000Y-22624000D01*
X49000000Y-27376000D01*
X48980315Y-27443039D01*
X48927511Y-27488794D01*
X48876000Y-27500000D01*
X34124000Y-27500000D01*
X34056961Y-27480315D01*
X34011206Y-27427511D01*
X34000000Y-27376000D01*
X34000000Y-22624000D01*
X34019685Y-22556961D01*
X34072489Y-22511206D01*
X34124000Y-22500000D01*
X48876000Y-22500000D01*
X48943039Y-22519685D01*
G37*
G36*
X107943039Y-31019685D02*
G01*
X107988794Y-31072489D01*
X108000000Y-31124000D01*
X108000000Y-40876000D01*
X107980315Y-40943039D01*
X107927511Y-40988794D01*
X107876000Y-41000000D01*
X102524000Y-41000000D01*
X102456961Y-40980315D01*
X102411206Y-40927511D01*
X102400000Y-40876000D01*
X102400000Y-31124000D01*
X102419685Y-31056961D01*
X102472489Y-31011206D01*
X102524000Y-31000000D01*
X107876000Y-31000000D01*
X107943039Y-31019685D01*
G37*
G36*
X107943039Y-46319685D02*
G01*
X107988794Y-46372489D01*
X108000000Y-46424000D01*
X108000000Y-53576000D01*
X107980315Y-53643039D01*
X107927511Y-53688794D01*
X107876000Y-53700000D01*
X102524000Y-53700000D01*
X102456961Y-53680315D01*
X102411206Y-53627511D01*
X102400000Y-53576000D01*
X102400000Y-46424000D01*
X102419685Y-46356961D01*
X102472489Y-46311206D01*
X102524000Y-46300000D01*
X107876000Y-46300000D01*
X107943039Y-46319685D01*
G37*
M02*
