%TF.GenerationSoftware,KiCad,Pcbnew,9.0.1*%
%TF.CreationDate,2026-04-29T13:54:34+03:00*%
%TF.ProjectId,BLDC_motor_driver_testing,424c4443-5f6d-46f7-946f-725f64726976,rev?*%
%TF.SameCoordinates,Original*%
%TF.FileFunction,Drillmap*%
%TF.FilePolarity,Positive*%
%FSLAX45Y45*%
G04 Gerber Fmt 4.5, Leading zero omitted, Abs format (unit mm)*
G04 Created by KiCad (PCBNEW 9.0.1) date 2026-04-29 13:54:34*
%MOMM*%
%LPD*%
G01*
G04 APERTURE LIST*
%ADD10C,0.050000*%
%ADD11C,0.200000*%
%ADD12C,0.220000*%
G04 APERTURE END LIST*
D10*
X2000000Y-7800000D02*
X2000000Y-2500000D01*
X11000000Y-7800000D02*
G75*
G02*
X10500000Y-8300000I-500000J0D01*
G01*
X10500000Y-2000000D02*
G75*
G02*
X11000000Y-2500000I0J-500000D01*
G01*
X11000000Y-2500000D02*
X11000000Y-7800000D01*
X2000000Y-2500000D02*
G75*
G02*
X2500000Y-2000000I500000J0D01*
G01*
X10500000Y-8300000D02*
X2500000Y-8300000D01*
X2500000Y-2000000D02*
X10500000Y-2000000D01*
X2500000Y-8300000D02*
G75*
G02*
X2000000Y-7800000I0J500000D01*
G01*
D11*
D12*
X2390000Y-2390000D02*
X2610000Y-2610000D01*
X2610000Y-2390000D02*
X2390000Y-2610000D01*
X2390000Y-7690000D02*
X2610000Y-7910000D01*
X2610000Y-7690000D02*
X2390000Y-7910000D01*
X10390000Y-2390000D02*
X10610000Y-2610000D01*
X10610000Y-2390000D02*
X10390000Y-2610000D01*
X10390000Y-7690000D02*
X10610000Y-7910000D01*
X10610000Y-7690000D02*
X10390000Y-7910000D01*
D11*
X2258277Y-8613984D02*
X2258277Y-8413984D01*
X2258277Y-8413984D02*
X2305896Y-8413984D01*
X2305896Y-8413984D02*
X2334467Y-8423508D01*
X2334467Y-8423508D02*
X2353515Y-8442555D01*
X2353515Y-8442555D02*
X2363039Y-8461603D01*
X2363039Y-8461603D02*
X2372563Y-8499698D01*
X2372563Y-8499698D02*
X2372563Y-8528270D01*
X2372563Y-8528270D02*
X2363039Y-8566365D01*
X2363039Y-8566365D02*
X2353515Y-8585412D01*
X2353515Y-8585412D02*
X2334467Y-8604460D01*
X2334467Y-8604460D02*
X2305896Y-8613984D01*
X2305896Y-8613984D02*
X2258277Y-8613984D01*
X2458277Y-8613984D02*
X2458277Y-8480650D01*
X2458277Y-8518746D02*
X2467801Y-8499698D01*
X2467801Y-8499698D02*
X2477324Y-8490174D01*
X2477324Y-8490174D02*
X2496372Y-8480650D01*
X2496372Y-8480650D02*
X2515420Y-8480650D01*
X2582086Y-8613984D02*
X2582086Y-8480650D01*
X2582086Y-8413984D02*
X2572563Y-8423508D01*
X2572563Y-8423508D02*
X2582086Y-8433031D01*
X2582086Y-8433031D02*
X2591610Y-8423508D01*
X2591610Y-8423508D02*
X2582086Y-8413984D01*
X2582086Y-8413984D02*
X2582086Y-8433031D01*
X2705896Y-8613984D02*
X2686848Y-8604460D01*
X2686848Y-8604460D02*
X2677324Y-8585412D01*
X2677324Y-8585412D02*
X2677324Y-8413984D01*
X2810658Y-8613984D02*
X2791610Y-8604460D01*
X2791610Y-8604460D02*
X2782086Y-8585412D01*
X2782086Y-8585412D02*
X2782086Y-8413984D01*
X3039229Y-8613984D02*
X3039229Y-8413984D01*
X3039229Y-8413984D02*
X3105896Y-8556841D01*
X3105896Y-8556841D02*
X3172562Y-8413984D01*
X3172562Y-8413984D02*
X3172562Y-8613984D01*
X3353515Y-8613984D02*
X3353515Y-8509222D01*
X3353515Y-8509222D02*
X3343991Y-8490174D01*
X3343991Y-8490174D02*
X3324943Y-8480650D01*
X3324943Y-8480650D02*
X3286848Y-8480650D01*
X3286848Y-8480650D02*
X3267801Y-8490174D01*
X3353515Y-8604460D02*
X3334467Y-8613984D01*
X3334467Y-8613984D02*
X3286848Y-8613984D01*
X3286848Y-8613984D02*
X3267801Y-8604460D01*
X3267801Y-8604460D02*
X3258277Y-8585412D01*
X3258277Y-8585412D02*
X3258277Y-8566365D01*
X3258277Y-8566365D02*
X3267801Y-8547317D01*
X3267801Y-8547317D02*
X3286848Y-8537793D01*
X3286848Y-8537793D02*
X3334467Y-8537793D01*
X3334467Y-8537793D02*
X3353515Y-8528270D01*
X3448753Y-8480650D02*
X3448753Y-8680650D01*
X3448753Y-8490174D02*
X3467801Y-8480650D01*
X3467801Y-8480650D02*
X3505896Y-8480650D01*
X3505896Y-8480650D02*
X3524943Y-8490174D01*
X3524943Y-8490174D02*
X3534467Y-8499698D01*
X3534467Y-8499698D02*
X3543991Y-8518746D01*
X3543991Y-8518746D02*
X3543991Y-8575889D01*
X3543991Y-8575889D02*
X3534467Y-8594936D01*
X3534467Y-8594936D02*
X3524943Y-8604460D01*
X3524943Y-8604460D02*
X3505896Y-8613984D01*
X3505896Y-8613984D02*
X3467801Y-8613984D01*
X3467801Y-8613984D02*
X3448753Y-8604460D01*
X3629705Y-8594936D02*
X3639229Y-8604460D01*
X3639229Y-8604460D02*
X3629705Y-8613984D01*
X3629705Y-8613984D02*
X3620182Y-8604460D01*
X3620182Y-8604460D02*
X3629705Y-8594936D01*
X3629705Y-8594936D02*
X3629705Y-8613984D01*
X3629705Y-8490174D02*
X3639229Y-8499698D01*
X3639229Y-8499698D02*
X3629705Y-8509222D01*
X3629705Y-8509222D02*
X3620182Y-8499698D01*
X3620182Y-8499698D02*
X3629705Y-8490174D01*
X3629705Y-8490174D02*
X3629705Y-8509222D01*
X1797500Y-8842500D02*
X1997500Y-9042500D01*
X1997500Y-8842500D02*
X1797500Y-9042500D01*
X2248753Y-8853031D02*
X2258277Y-8843508D01*
X2258277Y-8843508D02*
X2277324Y-8833984D01*
X2277324Y-8833984D02*
X2324944Y-8833984D01*
X2324944Y-8833984D02*
X2343991Y-8843508D01*
X2343991Y-8843508D02*
X2353515Y-8853031D01*
X2353515Y-8853031D02*
X2363039Y-8872079D01*
X2363039Y-8872079D02*
X2363039Y-8891127D01*
X2363039Y-8891127D02*
X2353515Y-8919698D01*
X2353515Y-8919698D02*
X2239229Y-9033984D01*
X2239229Y-9033984D02*
X2363039Y-9033984D01*
X2448753Y-9014936D02*
X2458277Y-9024460D01*
X2458277Y-9024460D02*
X2448753Y-9033984D01*
X2448753Y-9033984D02*
X2439229Y-9024460D01*
X2439229Y-9024460D02*
X2448753Y-9014936D01*
X2448753Y-9014936D02*
X2448753Y-9033984D01*
X2534467Y-8853031D02*
X2543991Y-8843508D01*
X2543991Y-8843508D02*
X2563039Y-8833984D01*
X2563039Y-8833984D02*
X2610658Y-8833984D01*
X2610658Y-8833984D02*
X2629705Y-8843508D01*
X2629705Y-8843508D02*
X2639229Y-8853031D01*
X2639229Y-8853031D02*
X2648753Y-8872079D01*
X2648753Y-8872079D02*
X2648753Y-8891127D01*
X2648753Y-8891127D02*
X2639229Y-8919698D01*
X2639229Y-8919698D02*
X2524944Y-9033984D01*
X2524944Y-9033984D02*
X2648753Y-9033984D01*
X2772563Y-8833984D02*
X2791610Y-8833984D01*
X2791610Y-8833984D02*
X2810658Y-8843508D01*
X2810658Y-8843508D02*
X2820182Y-8853031D01*
X2820182Y-8853031D02*
X2829705Y-8872079D01*
X2829705Y-8872079D02*
X2839229Y-8910174D01*
X2839229Y-8910174D02*
X2839229Y-8957793D01*
X2839229Y-8957793D02*
X2829705Y-8995889D01*
X2829705Y-8995889D02*
X2820182Y-9014936D01*
X2820182Y-9014936D02*
X2810658Y-9024460D01*
X2810658Y-9024460D02*
X2791610Y-9033984D01*
X2791610Y-9033984D02*
X2772563Y-9033984D01*
X2772563Y-9033984D02*
X2753515Y-9024460D01*
X2753515Y-9024460D02*
X2743991Y-9014936D01*
X2743991Y-9014936D02*
X2734467Y-8995889D01*
X2734467Y-8995889D02*
X2724944Y-8957793D01*
X2724944Y-8957793D02*
X2724944Y-8910174D01*
X2724944Y-8910174D02*
X2734467Y-8872079D01*
X2734467Y-8872079D02*
X2743991Y-8853031D01*
X2743991Y-8853031D02*
X2753515Y-8843508D01*
X2753515Y-8843508D02*
X2772563Y-8833984D01*
X2963039Y-8833984D02*
X2982086Y-8833984D01*
X2982086Y-8833984D02*
X3001134Y-8843508D01*
X3001134Y-8843508D02*
X3010658Y-8853031D01*
X3010658Y-8853031D02*
X3020182Y-8872079D01*
X3020182Y-8872079D02*
X3029705Y-8910174D01*
X3029705Y-8910174D02*
X3029705Y-8957793D01*
X3029705Y-8957793D02*
X3020182Y-8995889D01*
X3020182Y-8995889D02*
X3010658Y-9014936D01*
X3010658Y-9014936D02*
X3001134Y-9024460D01*
X3001134Y-9024460D02*
X2982086Y-9033984D01*
X2982086Y-9033984D02*
X2963039Y-9033984D01*
X2963039Y-9033984D02*
X2943991Y-9024460D01*
X2943991Y-9024460D02*
X2934467Y-9014936D01*
X2934467Y-9014936D02*
X2924943Y-8995889D01*
X2924943Y-8995889D02*
X2915420Y-8957793D01*
X2915420Y-8957793D02*
X2915420Y-8910174D01*
X2915420Y-8910174D02*
X2924943Y-8872079D01*
X2924943Y-8872079D02*
X2934467Y-8853031D01*
X2934467Y-8853031D02*
X2943991Y-8843508D01*
X2943991Y-8843508D02*
X2963039Y-8833984D01*
X3115420Y-9033984D02*
X3115420Y-8900650D01*
X3115420Y-8919698D02*
X3124943Y-8910174D01*
X3124943Y-8910174D02*
X3143991Y-8900650D01*
X3143991Y-8900650D02*
X3172563Y-8900650D01*
X3172563Y-8900650D02*
X3191610Y-8910174D01*
X3191610Y-8910174D02*
X3201134Y-8929222D01*
X3201134Y-8929222D02*
X3201134Y-9033984D01*
X3201134Y-8929222D02*
X3210658Y-8910174D01*
X3210658Y-8910174D02*
X3229705Y-8900650D01*
X3229705Y-8900650D02*
X3258277Y-8900650D01*
X3258277Y-8900650D02*
X3277324Y-8910174D01*
X3277324Y-8910174D02*
X3286848Y-8929222D01*
X3286848Y-8929222D02*
X3286848Y-9033984D01*
X3382086Y-9033984D02*
X3382086Y-8900650D01*
X3382086Y-8919698D02*
X3391610Y-8910174D01*
X3391610Y-8910174D02*
X3410658Y-8900650D01*
X3410658Y-8900650D02*
X3439229Y-8900650D01*
X3439229Y-8900650D02*
X3458277Y-8910174D01*
X3458277Y-8910174D02*
X3467801Y-8929222D01*
X3467801Y-8929222D02*
X3467801Y-9033984D01*
X3467801Y-8929222D02*
X3477324Y-8910174D01*
X3477324Y-8910174D02*
X3496372Y-8900650D01*
X3496372Y-8900650D02*
X3524943Y-8900650D01*
X3524943Y-8900650D02*
X3543991Y-8910174D01*
X3543991Y-8910174D02*
X3553515Y-8929222D01*
X3553515Y-8929222D02*
X3553515Y-9033984D01*
X3943991Y-8824460D02*
X3772563Y-9081603D01*
X4201134Y-8833984D02*
X4220182Y-8833984D01*
X4220182Y-8833984D02*
X4239229Y-8843508D01*
X4239229Y-8843508D02*
X4248753Y-8853031D01*
X4248753Y-8853031D02*
X4258277Y-8872079D01*
X4258277Y-8872079D02*
X4267801Y-8910174D01*
X4267801Y-8910174D02*
X4267801Y-8957793D01*
X4267801Y-8957793D02*
X4258277Y-8995889D01*
X4258277Y-8995889D02*
X4248753Y-9014936D01*
X4248753Y-9014936D02*
X4239229Y-9024460D01*
X4239229Y-9024460D02*
X4220182Y-9033984D01*
X4220182Y-9033984D02*
X4201134Y-9033984D01*
X4201134Y-9033984D02*
X4182086Y-9024460D01*
X4182086Y-9024460D02*
X4172563Y-9014936D01*
X4172563Y-9014936D02*
X4163039Y-8995889D01*
X4163039Y-8995889D02*
X4153515Y-8957793D01*
X4153515Y-8957793D02*
X4153515Y-8910174D01*
X4153515Y-8910174D02*
X4163039Y-8872079D01*
X4163039Y-8872079D02*
X4172563Y-8853031D01*
X4172563Y-8853031D02*
X4182086Y-8843508D01*
X4182086Y-8843508D02*
X4201134Y-8833984D01*
X4353515Y-9014936D02*
X4363039Y-9024460D01*
X4363039Y-9024460D02*
X4353515Y-9033984D01*
X4353515Y-9033984D02*
X4343991Y-9024460D01*
X4343991Y-9024460D02*
X4353515Y-9014936D01*
X4353515Y-9014936D02*
X4353515Y-9033984D01*
X4486848Y-8833984D02*
X4505896Y-8833984D01*
X4505896Y-8833984D02*
X4524944Y-8843508D01*
X4524944Y-8843508D02*
X4534468Y-8853031D01*
X4534468Y-8853031D02*
X4543991Y-8872079D01*
X4543991Y-8872079D02*
X4553515Y-8910174D01*
X4553515Y-8910174D02*
X4553515Y-8957793D01*
X4553515Y-8957793D02*
X4543991Y-8995889D01*
X4543991Y-8995889D02*
X4534468Y-9014936D01*
X4534468Y-9014936D02*
X4524944Y-9024460D01*
X4524944Y-9024460D02*
X4505896Y-9033984D01*
X4505896Y-9033984D02*
X4486848Y-9033984D01*
X4486848Y-9033984D02*
X4467801Y-9024460D01*
X4467801Y-9024460D02*
X4458277Y-9014936D01*
X4458277Y-9014936D02*
X4448753Y-8995889D01*
X4448753Y-8995889D02*
X4439229Y-8957793D01*
X4439229Y-8957793D02*
X4439229Y-8910174D01*
X4439229Y-8910174D02*
X4448753Y-8872079D01*
X4448753Y-8872079D02*
X4458277Y-8853031D01*
X4458277Y-8853031D02*
X4467801Y-8843508D01*
X4467801Y-8843508D02*
X4486848Y-8833984D01*
X4667801Y-8919698D02*
X4648753Y-8910174D01*
X4648753Y-8910174D02*
X4639229Y-8900650D01*
X4639229Y-8900650D02*
X4629706Y-8881603D01*
X4629706Y-8881603D02*
X4629706Y-8872079D01*
X4629706Y-8872079D02*
X4639229Y-8853031D01*
X4639229Y-8853031D02*
X4648753Y-8843508D01*
X4648753Y-8843508D02*
X4667801Y-8833984D01*
X4667801Y-8833984D02*
X4705896Y-8833984D01*
X4705896Y-8833984D02*
X4724944Y-8843508D01*
X4724944Y-8843508D02*
X4734468Y-8853031D01*
X4734468Y-8853031D02*
X4743991Y-8872079D01*
X4743991Y-8872079D02*
X4743991Y-8881603D01*
X4743991Y-8881603D02*
X4734468Y-8900650D01*
X4734468Y-8900650D02*
X4724944Y-8910174D01*
X4724944Y-8910174D02*
X4705896Y-8919698D01*
X4705896Y-8919698D02*
X4667801Y-8919698D01*
X4667801Y-8919698D02*
X4648753Y-8929222D01*
X4648753Y-8929222D02*
X4639229Y-8938746D01*
X4639229Y-8938746D02*
X4629706Y-8957793D01*
X4629706Y-8957793D02*
X4629706Y-8995889D01*
X4629706Y-8995889D02*
X4639229Y-9014936D01*
X4639229Y-9014936D02*
X4648753Y-9024460D01*
X4648753Y-9024460D02*
X4667801Y-9033984D01*
X4667801Y-9033984D02*
X4705896Y-9033984D01*
X4705896Y-9033984D02*
X4724944Y-9024460D01*
X4724944Y-9024460D02*
X4734468Y-9014936D01*
X4734468Y-9014936D02*
X4743991Y-8995889D01*
X4743991Y-8995889D02*
X4743991Y-8957793D01*
X4743991Y-8957793D02*
X4734468Y-8938746D01*
X4734468Y-8938746D02*
X4724944Y-8929222D01*
X4724944Y-8929222D02*
X4705896Y-8919698D01*
X4915420Y-8833984D02*
X4877325Y-8833984D01*
X4877325Y-8833984D02*
X4858277Y-8843508D01*
X4858277Y-8843508D02*
X4848753Y-8853031D01*
X4848753Y-8853031D02*
X4829706Y-8881603D01*
X4829706Y-8881603D02*
X4820182Y-8919698D01*
X4820182Y-8919698D02*
X4820182Y-8995889D01*
X4820182Y-8995889D02*
X4829706Y-9014936D01*
X4829706Y-9014936D02*
X4839229Y-9024460D01*
X4839229Y-9024460D02*
X4858277Y-9033984D01*
X4858277Y-9033984D02*
X4896372Y-9033984D01*
X4896372Y-9033984D02*
X4915420Y-9024460D01*
X4915420Y-9024460D02*
X4924944Y-9014936D01*
X4924944Y-9014936D02*
X4934468Y-8995889D01*
X4934468Y-8995889D02*
X4934468Y-8948270D01*
X4934468Y-8948270D02*
X4924944Y-8929222D01*
X4924944Y-8929222D02*
X4915420Y-8919698D01*
X4915420Y-8919698D02*
X4896372Y-8910174D01*
X4896372Y-8910174D02*
X4858277Y-8910174D01*
X4858277Y-8910174D02*
X4839229Y-8919698D01*
X4839229Y-8919698D02*
X4829706Y-8929222D01*
X4829706Y-8929222D02*
X4820182Y-8948270D01*
X5105896Y-8833984D02*
X5067801Y-8833984D01*
X5067801Y-8833984D02*
X5048753Y-8843508D01*
X5048753Y-8843508D02*
X5039229Y-8853031D01*
X5039229Y-8853031D02*
X5020182Y-8881603D01*
X5020182Y-8881603D02*
X5010658Y-8919698D01*
X5010658Y-8919698D02*
X5010658Y-8995889D01*
X5010658Y-8995889D02*
X5020182Y-9014936D01*
X5020182Y-9014936D02*
X5029706Y-9024460D01*
X5029706Y-9024460D02*
X5048753Y-9033984D01*
X5048753Y-9033984D02*
X5086849Y-9033984D01*
X5086849Y-9033984D02*
X5105896Y-9024460D01*
X5105896Y-9024460D02*
X5115420Y-9014936D01*
X5115420Y-9014936D02*
X5124944Y-8995889D01*
X5124944Y-8995889D02*
X5124944Y-8948270D01*
X5124944Y-8948270D02*
X5115420Y-8929222D01*
X5115420Y-8929222D02*
X5105896Y-8919698D01*
X5105896Y-8919698D02*
X5086849Y-8910174D01*
X5086849Y-8910174D02*
X5048753Y-8910174D01*
X5048753Y-8910174D02*
X5029706Y-8919698D01*
X5029706Y-8919698D02*
X5020182Y-8929222D01*
X5020182Y-8929222D02*
X5010658Y-8948270D01*
X5201134Y-8833984D02*
X5201134Y-8872079D01*
X5277325Y-8833984D02*
X5277325Y-8872079D01*
X5572563Y-9110174D02*
X5563039Y-9100650D01*
X5563039Y-9100650D02*
X5543991Y-9072079D01*
X5543991Y-9072079D02*
X5534468Y-9053031D01*
X5534468Y-9053031D02*
X5524944Y-9024460D01*
X5524944Y-9024460D02*
X5515420Y-8976841D01*
X5515420Y-8976841D02*
X5515420Y-8938746D01*
X5515420Y-8938746D02*
X5524944Y-8891127D01*
X5524944Y-8891127D02*
X5534468Y-8862555D01*
X5534468Y-8862555D02*
X5543991Y-8843508D01*
X5543991Y-8843508D02*
X5563039Y-8814936D01*
X5563039Y-8814936D02*
X5572563Y-8805412D01*
X5734468Y-8900650D02*
X5734468Y-9033984D01*
X5686848Y-8824460D02*
X5639229Y-8967317D01*
X5639229Y-8967317D02*
X5763039Y-8967317D01*
X5991610Y-9033984D02*
X5991610Y-8833984D01*
X6077325Y-9033984D02*
X6077325Y-8929222D01*
X6077325Y-8929222D02*
X6067801Y-8910174D01*
X6067801Y-8910174D02*
X6048753Y-8900650D01*
X6048753Y-8900650D02*
X6020182Y-8900650D01*
X6020182Y-8900650D02*
X6001134Y-8910174D01*
X6001134Y-8910174D02*
X5991610Y-8919698D01*
X6201134Y-9033984D02*
X6182087Y-9024460D01*
X6182087Y-9024460D02*
X6172563Y-9014936D01*
X6172563Y-9014936D02*
X6163039Y-8995889D01*
X6163039Y-8995889D02*
X6163039Y-8938746D01*
X6163039Y-8938746D02*
X6172563Y-8919698D01*
X6172563Y-8919698D02*
X6182087Y-8910174D01*
X6182087Y-8910174D02*
X6201134Y-8900650D01*
X6201134Y-8900650D02*
X6229706Y-8900650D01*
X6229706Y-8900650D02*
X6248753Y-8910174D01*
X6248753Y-8910174D02*
X6258277Y-8919698D01*
X6258277Y-8919698D02*
X6267801Y-8938746D01*
X6267801Y-8938746D02*
X6267801Y-8995889D01*
X6267801Y-8995889D02*
X6258277Y-9014936D01*
X6258277Y-9014936D02*
X6248753Y-9024460D01*
X6248753Y-9024460D02*
X6229706Y-9033984D01*
X6229706Y-9033984D02*
X6201134Y-9033984D01*
X6382087Y-9033984D02*
X6363039Y-9024460D01*
X6363039Y-9024460D02*
X6353515Y-9005412D01*
X6353515Y-9005412D02*
X6353515Y-8833984D01*
X6534468Y-9024460D02*
X6515420Y-9033984D01*
X6515420Y-9033984D02*
X6477325Y-9033984D01*
X6477325Y-9033984D02*
X6458277Y-9024460D01*
X6458277Y-9024460D02*
X6448753Y-9005412D01*
X6448753Y-9005412D02*
X6448753Y-8929222D01*
X6448753Y-8929222D02*
X6458277Y-8910174D01*
X6458277Y-8910174D02*
X6477325Y-8900650D01*
X6477325Y-8900650D02*
X6515420Y-8900650D01*
X6515420Y-8900650D02*
X6534468Y-8910174D01*
X6534468Y-8910174D02*
X6543991Y-8929222D01*
X6543991Y-8929222D02*
X6543991Y-8948270D01*
X6543991Y-8948270D02*
X6448753Y-8967317D01*
X6620182Y-9024460D02*
X6639230Y-9033984D01*
X6639230Y-9033984D02*
X6677325Y-9033984D01*
X6677325Y-9033984D02*
X6696372Y-9024460D01*
X6696372Y-9024460D02*
X6705896Y-9005412D01*
X6705896Y-9005412D02*
X6705896Y-8995889D01*
X6705896Y-8995889D02*
X6696372Y-8976841D01*
X6696372Y-8976841D02*
X6677325Y-8967317D01*
X6677325Y-8967317D02*
X6648753Y-8967317D01*
X6648753Y-8967317D02*
X6629706Y-8957793D01*
X6629706Y-8957793D02*
X6620182Y-8938746D01*
X6620182Y-8938746D02*
X6620182Y-8929222D01*
X6620182Y-8929222D02*
X6629706Y-8910174D01*
X6629706Y-8910174D02*
X6648753Y-8900650D01*
X6648753Y-8900650D02*
X6677325Y-8900650D01*
X6677325Y-8900650D02*
X6696372Y-8910174D01*
X6772563Y-9110174D02*
X6782087Y-9100650D01*
X6782087Y-9100650D02*
X6801134Y-9072079D01*
X6801134Y-9072079D02*
X6810658Y-9053031D01*
X6810658Y-9053031D02*
X6820182Y-9024460D01*
X6820182Y-9024460D02*
X6829706Y-8976841D01*
X6829706Y-8976841D02*
X6829706Y-8938746D01*
X6829706Y-8938746D02*
X6820182Y-8891127D01*
X6820182Y-8891127D02*
X6810658Y-8862555D01*
X6810658Y-8862555D02*
X6801134Y-8843508D01*
X6801134Y-8843508D02*
X6782087Y-8814936D01*
X6782087Y-8814936D02*
X6772563Y-8805412D01*
X7134468Y-9110174D02*
X7124944Y-9100650D01*
X7124944Y-9100650D02*
X7105896Y-9072079D01*
X7105896Y-9072079D02*
X7096372Y-9053031D01*
X7096372Y-9053031D02*
X7086849Y-9024460D01*
X7086849Y-9024460D02*
X7077325Y-8976841D01*
X7077325Y-8976841D02*
X7077325Y-8938746D01*
X7077325Y-8938746D02*
X7086849Y-8891127D01*
X7086849Y-8891127D02*
X7096372Y-8862555D01*
X7096372Y-8862555D02*
X7105896Y-8843508D01*
X7105896Y-8843508D02*
X7124944Y-8814936D01*
X7124944Y-8814936D02*
X7134468Y-8805412D01*
X7210658Y-8900650D02*
X7210658Y-9033984D01*
X7210658Y-8919698D02*
X7220182Y-8910174D01*
X7220182Y-8910174D02*
X7239230Y-8900650D01*
X7239230Y-8900650D02*
X7267801Y-8900650D01*
X7267801Y-8900650D02*
X7286849Y-8910174D01*
X7286849Y-8910174D02*
X7296372Y-8929222D01*
X7296372Y-8929222D02*
X7296372Y-9033984D01*
X7420182Y-9033984D02*
X7401134Y-9024460D01*
X7401134Y-9024460D02*
X7391611Y-9014936D01*
X7391611Y-9014936D02*
X7382087Y-8995889D01*
X7382087Y-8995889D02*
X7382087Y-8938746D01*
X7382087Y-8938746D02*
X7391611Y-8919698D01*
X7391611Y-8919698D02*
X7401134Y-8910174D01*
X7401134Y-8910174D02*
X7420182Y-8900650D01*
X7420182Y-8900650D02*
X7448753Y-8900650D01*
X7448753Y-8900650D02*
X7467801Y-8910174D01*
X7467801Y-8910174D02*
X7477325Y-8919698D01*
X7477325Y-8919698D02*
X7486849Y-8938746D01*
X7486849Y-8938746D02*
X7486849Y-8995889D01*
X7486849Y-8995889D02*
X7477325Y-9014936D01*
X7477325Y-9014936D02*
X7467801Y-9024460D01*
X7467801Y-9024460D02*
X7448753Y-9033984D01*
X7448753Y-9033984D02*
X7420182Y-9033984D01*
X7543992Y-8900650D02*
X7620182Y-8900650D01*
X7572563Y-8833984D02*
X7572563Y-9005412D01*
X7572563Y-9005412D02*
X7582087Y-9024460D01*
X7582087Y-9024460D02*
X7601134Y-9033984D01*
X7601134Y-9033984D02*
X7620182Y-9033984D01*
X7839230Y-8900650D02*
X7839230Y-9100650D01*
X7839230Y-8910174D02*
X7858277Y-8900650D01*
X7858277Y-8900650D02*
X7896373Y-8900650D01*
X7896373Y-8900650D02*
X7915420Y-8910174D01*
X7915420Y-8910174D02*
X7924944Y-8919698D01*
X7924944Y-8919698D02*
X7934468Y-8938746D01*
X7934468Y-8938746D02*
X7934468Y-8995889D01*
X7934468Y-8995889D02*
X7924944Y-9014936D01*
X7924944Y-9014936D02*
X7915420Y-9024460D01*
X7915420Y-9024460D02*
X7896373Y-9033984D01*
X7896373Y-9033984D02*
X7858277Y-9033984D01*
X7858277Y-9033984D02*
X7839230Y-9024460D01*
X8048753Y-9033984D02*
X8029706Y-9024460D01*
X8029706Y-9024460D02*
X8020182Y-9005412D01*
X8020182Y-9005412D02*
X8020182Y-8833984D01*
X8210658Y-9033984D02*
X8210658Y-8929222D01*
X8210658Y-8929222D02*
X8201134Y-8910174D01*
X8201134Y-8910174D02*
X8182087Y-8900650D01*
X8182087Y-8900650D02*
X8143992Y-8900650D01*
X8143992Y-8900650D02*
X8124944Y-8910174D01*
X8210658Y-9024460D02*
X8191611Y-9033984D01*
X8191611Y-9033984D02*
X8143992Y-9033984D01*
X8143992Y-9033984D02*
X8124944Y-9024460D01*
X8124944Y-9024460D02*
X8115420Y-9005412D01*
X8115420Y-9005412D02*
X8115420Y-8986365D01*
X8115420Y-8986365D02*
X8124944Y-8967317D01*
X8124944Y-8967317D02*
X8143992Y-8957793D01*
X8143992Y-8957793D02*
X8191611Y-8957793D01*
X8191611Y-8957793D02*
X8210658Y-8948270D01*
X8277325Y-8900650D02*
X8353515Y-8900650D01*
X8305896Y-8833984D02*
X8305896Y-9005412D01*
X8305896Y-9005412D02*
X8315420Y-9024460D01*
X8315420Y-9024460D02*
X8334468Y-9033984D01*
X8334468Y-9033984D02*
X8353515Y-9033984D01*
X8496373Y-9024460D02*
X8477325Y-9033984D01*
X8477325Y-9033984D02*
X8439230Y-9033984D01*
X8439230Y-9033984D02*
X8420182Y-9024460D01*
X8420182Y-9024460D02*
X8410658Y-9005412D01*
X8410658Y-9005412D02*
X8410658Y-8929222D01*
X8410658Y-8929222D02*
X8420182Y-8910174D01*
X8420182Y-8910174D02*
X8439230Y-8900650D01*
X8439230Y-8900650D02*
X8477325Y-8900650D01*
X8477325Y-8900650D02*
X8496373Y-8910174D01*
X8496373Y-8910174D02*
X8505896Y-8929222D01*
X8505896Y-8929222D02*
X8505896Y-8948270D01*
X8505896Y-8948270D02*
X8410658Y-8967317D01*
X8677325Y-9033984D02*
X8677325Y-8833984D01*
X8677325Y-9024460D02*
X8658277Y-9033984D01*
X8658277Y-9033984D02*
X8620182Y-9033984D01*
X8620182Y-9033984D02*
X8601135Y-9024460D01*
X8601135Y-9024460D02*
X8591611Y-9014936D01*
X8591611Y-9014936D02*
X8582087Y-8995889D01*
X8582087Y-8995889D02*
X8582087Y-8938746D01*
X8582087Y-8938746D02*
X8591611Y-8919698D01*
X8591611Y-8919698D02*
X8601135Y-8910174D01*
X8601135Y-8910174D02*
X8620182Y-8900650D01*
X8620182Y-8900650D02*
X8658277Y-8900650D01*
X8658277Y-8900650D02*
X8677325Y-8910174D01*
X8753516Y-9110174D02*
X8763039Y-9100650D01*
X8763039Y-9100650D02*
X8782087Y-9072079D01*
X8782087Y-9072079D02*
X8791611Y-9053031D01*
X8791611Y-9053031D02*
X8801135Y-9024460D01*
X8801135Y-9024460D02*
X8810658Y-8976841D01*
X8810658Y-8976841D02*
X8810658Y-8938746D01*
X8810658Y-8938746D02*
X8801135Y-8891127D01*
X8801135Y-8891127D02*
X8791611Y-8862555D01*
X8791611Y-8862555D02*
X8782087Y-8843508D01*
X8782087Y-8843508D02*
X8763039Y-8814936D01*
X8763039Y-8814936D02*
X8753516Y-8805412D01*
M02*
