G04 #@! TF.GenerationSoftware,KiCad,Pcbnew,9.0.1*
G04 #@! TF.CreationDate,2026-04-29T13:57:15+03:00*
G04 #@! TF.ProjectId,BLDC_motor_driver_testing,424c4443-5f6d-46f7-946f-725f64726976,rev?*
G04 #@! TF.SameCoordinates,Original*
G04 #@! TF.FileFunction,Copper,L3,Inr*
G04 #@! TF.FilePolarity,Positive*
%FSLAX46Y46*%
G04 Gerber Fmt 4.6, Leading zero omitted, Abs format (unit mm)*
G04 Created by KiCad (PCBNEW 9.0.1) date 2026-04-29 13:57:15*
%MOMM*%
%LPD*%
G01*
G04 APERTURE LIST*
G04 Aperture macros list*
%AMRoundRect*
0 Rectangle with rounded corners*
0 $1 Rounding radius*
0 $2 $3 $4 $5 $6 $7 $8 $9 X,Y pos of 4 corners*
0 Add a 4 corners polygon primitive as box body*
4,1,4,$2,$3,$4,$5,$6,$7,$8,$9,$2,$3,0*
0 Add four circle primitives for the rounded corners*
1,1,$1+$1,$2,$3*
1,1,$1+$1,$4,$5*
1,1,$1+$1,$6,$7*
1,1,$1+$1,$8,$9*
0 Add four rect primitives between the rounded corners*
20,1,$1+$1,$2,$3,$4,$5,0*
20,1,$1+$1,$4,$5,$6,$7,0*
20,1,$1+$1,$6,$7,$8,$9,0*
20,1,$1+$1,$8,$9,$2,$3,0*%
G04 Aperture macros list end*
G04 #@! TA.AperFunction,ComponentPad*
%ADD10C,2.600000*%
G04 #@! TD*
G04 #@! TA.AperFunction,ComponentPad*
%ADD11RoundRect,0.250000X-0.750000X-0.750000X0.750000X-0.750000X0.750000X0.750000X-0.750000X0.750000X0*%
G04 #@! TD*
G04 #@! TA.AperFunction,ComponentPad*
%ADD12C,2.000000*%
G04 #@! TD*
G04 #@! TA.AperFunction,ComponentPad*
%ADD13R,1.905000X2.000000*%
G04 #@! TD*
G04 #@! TA.AperFunction,ComponentPad*
%ADD14O,1.905000X2.000000*%
G04 #@! TD*
G04 #@! TA.AperFunction,ComponentPad*
%ADD15RoundRect,0.250000X0.550000X-0.950000X0.550000X0.950000X-0.550000X0.950000X-0.550000X-0.950000X0*%
G04 #@! TD*
G04 #@! TA.AperFunction,ComponentPad*
%ADD16O,1.600000X2.400000*%
G04 #@! TD*
G04 #@! TA.AperFunction,ComponentPad*
%ADD17RoundRect,0.250000X0.750000X-0.750000X0.750000X0.750000X-0.750000X0.750000X-0.750000X-0.750000X0*%
G04 #@! TD*
G04 #@! TA.AperFunction,ViaPad*
%ADD18C,0.600000*%
G04 #@! TD*
G04 #@! TA.AperFunction,Conductor*
%ADD19C,2.000000*%
G04 #@! TD*
G04 APERTURE END LIST*
D10*
X65000000Y-25000000D03*
D11*
X87500000Y-77000000D03*
D12*
X90040000Y-77000000D03*
X92580000Y-77000000D03*
D13*
X25000000Y-34000000D03*
D14*
X27540000Y-34000000D03*
X30080000Y-34000000D03*
D15*
X78000000Y-58000000D03*
D16*
X80540000Y-58000000D03*
X83080000Y-58000000D03*
X85620000Y-58000000D03*
X85620000Y-50380000D03*
X83080000Y-50380000D03*
X80540000Y-50380000D03*
X78000000Y-50380000D03*
D17*
X104500000Y-71000000D03*
D12*
X104500000Y-68460000D03*
D13*
X77000000Y-34000000D03*
D14*
X79540000Y-34000000D03*
X82080000Y-34000000D03*
D11*
X61500000Y-77000000D03*
D12*
X64040000Y-77000000D03*
X66580000Y-77000000D03*
D13*
X63000000Y-34000000D03*
D14*
X65540000Y-34000000D03*
X68080000Y-34000000D03*
D13*
X37000000Y-34000000D03*
D14*
X39540000Y-34000000D03*
X42080000Y-34000000D03*
D11*
X35500000Y-77000000D03*
D12*
X38040000Y-77000000D03*
X40580000Y-77000000D03*
D15*
X52000000Y-58000000D03*
D16*
X54540000Y-58000000D03*
X57080000Y-58000000D03*
X59620000Y-58000000D03*
X59620000Y-50380000D03*
X57080000Y-50380000D03*
X54540000Y-50380000D03*
X52000000Y-50380000D03*
D10*
X106000000Y-50000000D03*
X45000000Y-25000000D03*
D15*
X26000000Y-58000000D03*
D16*
X28540000Y-58000000D03*
X31080000Y-58000000D03*
X33620000Y-58000000D03*
X33620000Y-50380000D03*
X31080000Y-50380000D03*
X28540000Y-50380000D03*
X26000000Y-50380000D03*
D13*
X51000000Y-34000000D03*
D14*
X53540000Y-34000000D03*
X56080000Y-34000000D03*
D13*
X89000000Y-34000000D03*
D14*
X91540000Y-34000000D03*
X94080000Y-34000000D03*
D10*
X85000000Y-25000000D03*
X106000000Y-36000000D03*
D18*
X67200000Y-50700000D03*
X67200000Y-49700000D03*
X67200000Y-48700000D03*
X93100000Y-50600000D03*
X93100000Y-49600000D03*
X93100000Y-48600000D03*
X43400000Y-48400000D03*
X42600000Y-48400000D03*
X41800000Y-50800000D03*
X41800000Y-50000000D03*
X41800000Y-49200000D03*
X41800000Y-48400000D03*
X41000000Y-50800000D03*
X41000000Y-50000000D03*
X41000000Y-49200000D03*
X41000000Y-48400000D03*
X40200000Y-48400000D03*
X40200000Y-49200000D03*
X102300000Y-59900000D03*
X106600000Y-62500000D03*
X97500000Y-66000000D03*
X66200000Y-57000000D03*
X92200000Y-57000000D03*
X95500000Y-62300000D03*
X89000000Y-64400000D03*
X43500000Y-62300000D03*
X37000000Y-64300000D03*
X69500000Y-62300000D03*
X63000000Y-64400000D03*
X40200000Y-50000000D03*
X40200000Y-50800000D03*
X66200000Y-50700000D03*
X66200000Y-49700000D03*
X64200000Y-48700000D03*
X65200000Y-48700000D03*
X62200000Y-48700000D03*
X66200000Y-48700000D03*
X63200000Y-48700000D03*
X62200000Y-50700000D03*
X63200000Y-50700000D03*
X62200000Y-49700000D03*
X63200000Y-49700000D03*
X64200000Y-49700000D03*
X64200000Y-50700000D03*
X65200000Y-50700000D03*
X65200000Y-49700000D03*
X92100000Y-48600000D03*
X88100000Y-48600000D03*
X89100000Y-48600000D03*
X90100000Y-48600000D03*
X91100000Y-48600000D03*
X92100000Y-50600000D03*
X92100000Y-49600000D03*
X90100000Y-50600000D03*
X91100000Y-50600000D03*
X90100000Y-49600000D03*
X91100000Y-49600000D03*
X106300000Y-53100000D03*
X107300000Y-54100000D03*
X106300000Y-54100000D03*
X107300000Y-53100000D03*
X104300000Y-53100000D03*
X104300000Y-54100000D03*
X105300000Y-53100000D03*
X105300000Y-54100000D03*
X104400000Y-45900000D03*
X105400000Y-46900000D03*
X104400000Y-46900000D03*
X105400000Y-45900000D03*
X106400000Y-45900000D03*
X107400000Y-46900000D03*
X106400000Y-46900000D03*
X107400000Y-45900000D03*
X102000000Y-50800000D03*
X103000000Y-51800000D03*
X102000000Y-51800000D03*
X103000000Y-50800000D03*
X99000000Y-51800000D03*
X99000000Y-50800000D03*
X100000000Y-50800000D03*
X100000000Y-51800000D03*
X101000000Y-50800000D03*
X101000000Y-51800000D03*
X99000000Y-48800000D03*
X99000000Y-49800000D03*
X100000000Y-48800000D03*
X101000000Y-49800000D03*
X100000000Y-49800000D03*
X101000000Y-48800000D03*
X102000000Y-49800000D03*
X103000000Y-49800000D03*
X103000000Y-48800000D03*
X102000000Y-48800000D03*
X89100000Y-50600000D03*
X88100000Y-50600000D03*
X91900000Y-53400000D03*
X91900000Y-52235000D03*
X91900000Y-54535000D03*
X89100000Y-49600000D03*
X88100000Y-49600000D03*
X81810000Y-53190000D03*
X78510000Y-53190000D03*
X80710000Y-53190000D03*
X79610000Y-53190000D03*
X78510000Y-54190000D03*
X80710000Y-54190000D03*
X81810000Y-54190000D03*
X79610000Y-54190000D03*
X65900000Y-53400000D03*
X65900000Y-54535000D03*
X65900000Y-52235000D03*
X55810000Y-54190000D03*
X54710000Y-54190000D03*
X53610000Y-54190000D03*
X52510000Y-54190000D03*
X55810000Y-53190000D03*
X54710000Y-53190000D03*
X53610000Y-53190000D03*
X52510000Y-53190000D03*
X40200000Y-51800000D03*
X40200000Y-52700000D03*
X40200000Y-55100000D03*
X40200000Y-54200000D03*
X27800000Y-38700000D03*
X27800000Y-41700000D03*
X27800000Y-40200000D03*
X29000000Y-40200000D03*
X29000000Y-37200000D03*
X29000000Y-38700000D03*
X29000000Y-41700000D03*
X27800000Y-37200000D03*
X33100000Y-38600000D03*
X33100000Y-41600000D03*
X33100000Y-40100000D03*
X34300000Y-40100000D03*
X34300000Y-37100000D03*
X34300000Y-38600000D03*
X34300000Y-41600000D03*
X33100000Y-37100000D03*
X59100000Y-38600000D03*
X59100000Y-41600000D03*
X59100000Y-40100000D03*
X60300000Y-40100000D03*
X60300000Y-37100000D03*
X60300000Y-38600000D03*
X60300000Y-41600000D03*
X59100000Y-37100000D03*
X53800000Y-38700000D03*
X53800000Y-41700000D03*
X53800000Y-40200000D03*
X55000000Y-40200000D03*
X55000000Y-37200000D03*
X55000000Y-38700000D03*
X55000000Y-41700000D03*
X53800000Y-37200000D03*
X85100000Y-38700000D03*
X85100000Y-41700000D03*
X85100000Y-40200000D03*
X86300000Y-40200000D03*
X86300000Y-37200000D03*
X86300000Y-38700000D03*
X86300000Y-41700000D03*
X85100000Y-37200000D03*
X81000000Y-40100000D03*
X81000000Y-37100000D03*
X81000000Y-38600000D03*
X81000000Y-41600000D03*
X79800000Y-40100000D03*
X79800000Y-37100000D03*
X79800000Y-38600000D03*
X79800000Y-41600000D03*
X103000000Y-39000000D03*
X103000000Y-40000000D03*
X21500000Y-60000000D03*
X47500000Y-60000000D03*
X100000000Y-33000000D03*
X73500000Y-58000000D03*
X100000000Y-39000000D03*
X102000000Y-33000000D03*
X101000000Y-32000000D03*
X101000000Y-37000000D03*
X104000000Y-40000000D03*
X47500000Y-61000000D03*
X101000000Y-39000000D03*
X50500000Y-58500000D03*
X102000000Y-37000000D03*
X23000000Y-39000000D03*
X102000000Y-34000000D03*
X107000000Y-40000000D03*
X101000000Y-40000000D03*
X102000000Y-32000000D03*
X106000000Y-32000000D03*
X107000000Y-39000000D03*
X21500000Y-39000000D03*
X100000000Y-36000000D03*
X47500000Y-58000000D03*
X21500000Y-40500000D03*
X23000000Y-42000000D03*
X100000000Y-40000000D03*
X23000000Y-37500000D03*
X105000000Y-33000000D03*
X100000000Y-38000000D03*
X103000000Y-35000000D03*
X21500000Y-37500000D03*
X103000000Y-37000000D03*
X21500000Y-58000000D03*
X103000000Y-32000000D03*
X100000000Y-35000000D03*
X103000000Y-33000000D03*
X102000000Y-40000000D03*
X101000000Y-38000000D03*
X105000000Y-32000000D03*
X21500000Y-59000000D03*
X100000000Y-37000000D03*
X24500000Y-57500000D03*
X101000000Y-35000000D03*
X50500000Y-57500000D03*
X24500000Y-58500000D03*
X101000000Y-34000000D03*
X106000000Y-40000000D03*
X47500000Y-59000000D03*
X103000000Y-36000000D03*
X104000000Y-33000000D03*
X76500000Y-58500000D03*
X101000000Y-33000000D03*
X105000000Y-40000000D03*
X105000000Y-39000000D03*
X102000000Y-38000000D03*
X73500000Y-61000000D03*
X106000000Y-33000000D03*
X102000000Y-39000000D03*
X76500000Y-57500000D03*
X107000000Y-32000000D03*
X102000000Y-35000000D03*
X104000000Y-32000000D03*
X101000000Y-36000000D03*
X103000000Y-38000000D03*
X73500000Y-60000000D03*
X106000000Y-39000000D03*
X107000000Y-33000000D03*
X104000000Y-39000000D03*
X73500000Y-59000000D03*
X100000000Y-32000000D03*
X100000000Y-34000000D03*
X103000000Y-34000000D03*
X102000000Y-36000000D03*
X23000000Y-40500000D03*
X21500000Y-42000000D03*
X21500000Y-61000000D03*
X60000000Y-23500000D03*
X68000000Y-26500000D03*
X72000000Y-26500000D03*
X48500000Y-47250000D03*
X69000000Y-23500000D03*
X71000000Y-26500000D03*
X48500000Y-48000000D03*
X60000000Y-25500000D03*
X62000000Y-26500000D03*
X70000000Y-25500000D03*
X58000000Y-23500000D03*
X58000000Y-26500000D03*
X72000000Y-24500000D03*
X61000000Y-24500000D03*
X49400000Y-47250000D03*
X72000000Y-25500000D03*
X48500000Y-46500000D03*
X71000000Y-24500000D03*
X61000000Y-26500000D03*
X61000000Y-23500000D03*
X70000000Y-26500000D03*
X68000000Y-23500000D03*
X72000000Y-23500000D03*
X59000000Y-23500000D03*
X71000000Y-25500000D03*
X59000000Y-25500000D03*
X59000000Y-26500000D03*
X69000000Y-24500000D03*
X62000000Y-23500000D03*
X49400000Y-46500000D03*
X58000000Y-25500000D03*
X61000000Y-25500000D03*
X70000000Y-23500000D03*
X69000000Y-26500000D03*
X62000000Y-24500000D03*
X62000000Y-25500000D03*
X68000000Y-24500000D03*
X60000000Y-26500000D03*
X68000000Y-25500000D03*
X59000000Y-24500000D03*
X70000000Y-24500000D03*
X71000000Y-23500000D03*
X49400000Y-48000000D03*
X69000000Y-25500000D03*
X60000000Y-24500000D03*
X58000000Y-24500000D03*
X93000000Y-62500000D03*
X97000000Y-69000000D03*
X98000000Y-69000000D03*
X93000000Y-64000000D03*
X96000000Y-69000000D03*
X68000000Y-64000000D03*
X94000000Y-64000000D03*
X97000000Y-68000000D03*
X99000000Y-68000000D03*
X41000000Y-62500000D03*
X94000000Y-62500000D03*
X68000000Y-62500000D03*
X42000000Y-62500000D03*
X41000000Y-64000000D03*
X67000000Y-64000000D03*
X99000000Y-69000000D03*
X67000000Y-62500000D03*
X96000000Y-68000000D03*
X98000000Y-68000000D03*
X42000000Y-64000000D03*
X93000000Y-24500000D03*
X75400000Y-47250000D03*
X89000000Y-26500000D03*
X88000000Y-26500000D03*
X92000000Y-25500000D03*
X88000000Y-25500000D03*
X92000000Y-23500000D03*
X90000000Y-26500000D03*
X75400000Y-46500000D03*
X89000000Y-23500000D03*
X74500000Y-47250000D03*
X93000000Y-26500000D03*
X90000000Y-25500000D03*
X75400000Y-48000000D03*
X74500000Y-46500000D03*
X92000000Y-24500000D03*
X90000000Y-24500000D03*
X91000000Y-25500000D03*
X89000000Y-25500000D03*
X92000000Y-26500000D03*
X93000000Y-25500000D03*
X91000000Y-26500000D03*
X90000000Y-23500000D03*
X94000000Y-25500000D03*
X88000000Y-24500000D03*
X89000000Y-24500000D03*
X91000000Y-23500000D03*
X88000000Y-23500000D03*
X94000000Y-26500000D03*
X94000000Y-24500000D03*
X94000000Y-23500000D03*
X74500000Y-48000000D03*
X91000000Y-24500000D03*
X93000000Y-23500000D03*
X37000000Y-24500000D03*
X41000000Y-25500000D03*
X39000000Y-25500000D03*
X37000000Y-25500000D03*
X23400000Y-46500000D03*
X39000000Y-23500000D03*
X36000000Y-26500000D03*
X38000000Y-24500000D03*
X42000000Y-25500000D03*
X42000000Y-24500000D03*
X39000000Y-24500000D03*
X38000000Y-25500000D03*
X40000000Y-25500000D03*
X38000000Y-26500000D03*
X42000000Y-26500000D03*
X42000000Y-23500000D03*
X41000000Y-26500000D03*
X36000000Y-25500000D03*
X41000000Y-24500000D03*
X36000000Y-24500000D03*
X40000000Y-23500000D03*
X23400000Y-47250000D03*
X37000000Y-26500000D03*
X39000000Y-26500000D03*
X40000000Y-26500000D03*
X23400000Y-48000000D03*
X22500000Y-48000000D03*
X38000000Y-23500000D03*
X36000000Y-23500000D03*
X22500000Y-47250000D03*
X41000000Y-23500000D03*
X40000000Y-24500000D03*
X37000000Y-23500000D03*
X22500000Y-46500000D03*
X95100000Y-36000000D03*
X95100000Y-35200000D03*
X96000000Y-36000000D03*
X92400000Y-38400000D03*
X94200000Y-36000000D03*
X92400000Y-37600000D03*
X94200000Y-38400000D03*
X94200000Y-36800000D03*
X93300000Y-37600000D03*
X95100000Y-37600000D03*
X94200000Y-37600000D03*
X96000000Y-37600000D03*
X95100000Y-36800000D03*
X96000000Y-36800000D03*
X91500000Y-38400000D03*
X93300000Y-38400000D03*
X96000000Y-35200000D03*
X91500000Y-37600000D03*
X95100000Y-38400000D03*
X91500000Y-36800000D03*
X96000000Y-38400000D03*
X93300000Y-36800000D03*
X92400000Y-36800000D03*
X43100000Y-35900000D03*
X42200000Y-37600000D03*
X44900000Y-38400000D03*
X44000000Y-38400000D03*
X44900000Y-36800000D03*
X43100000Y-37600000D03*
X44900000Y-34300000D03*
X42200000Y-38400000D03*
X41300000Y-37600000D03*
X39500000Y-38400000D03*
X40400000Y-38400000D03*
X39500000Y-37600000D03*
X44000000Y-34300000D03*
X43100000Y-35100000D03*
X44900000Y-35100000D03*
X43100000Y-38400000D03*
X44900000Y-35900000D03*
X44900000Y-37600000D03*
X44000000Y-35100000D03*
X41300000Y-38400000D03*
X39500000Y-36800000D03*
X42200000Y-35900000D03*
X41300000Y-36800000D03*
X44000000Y-36800000D03*
X43100000Y-36800000D03*
X44000000Y-37600000D03*
X40400000Y-36800000D03*
X40400000Y-37600000D03*
X42200000Y-36800000D03*
X44000000Y-35900000D03*
X70900000Y-38500000D03*
X65500000Y-38500000D03*
X70000000Y-36000000D03*
X70000000Y-36900000D03*
X70000000Y-37700000D03*
X68200000Y-38500000D03*
X66400000Y-36900000D03*
X65500000Y-36900000D03*
X70000000Y-35200000D03*
X66400000Y-37700000D03*
X70900000Y-37700000D03*
X66400000Y-38500000D03*
X70900000Y-34400000D03*
X69100000Y-37700000D03*
X68200000Y-36900000D03*
X70000000Y-34400000D03*
X70000000Y-38500000D03*
X70900000Y-36900000D03*
X69100000Y-38500000D03*
X69100000Y-36900000D03*
X65500000Y-37700000D03*
X67300000Y-36900000D03*
X68200000Y-36000000D03*
X70900000Y-36000000D03*
X68200000Y-37700000D03*
X69100000Y-35200000D03*
X67300000Y-38500000D03*
X67300000Y-37700000D03*
X70900000Y-35200000D03*
X69100000Y-36000000D03*
D19*
X27540000Y-34000000D02*
X27540000Y-38040000D01*
X33100000Y-43600000D02*
X48980000Y-43600000D01*
X79540000Y-34000000D02*
X79540000Y-37500000D01*
X48980000Y-43600000D02*
X53540000Y-39040000D01*
X27540000Y-38040000D02*
X33100000Y-43600000D01*
X73440000Y-43600000D02*
X79540000Y-37500000D01*
X53540000Y-34000000D02*
X53540000Y-39040000D01*
X85600000Y-43600000D02*
X98400000Y-43600000D01*
X98400000Y-43600000D02*
X106000000Y-36000000D01*
X79540000Y-37540000D02*
X85600000Y-43600000D01*
X53540000Y-39090000D02*
X58050000Y-43600000D01*
X58050000Y-43600000D02*
X73440000Y-43600000D01*
G04 #@! TA.AperFunction,Conductor*
G36*
X109692539Y-45025185D02*
G01*
X109738294Y-45077989D01*
X109749500Y-45129500D01*
X109749500Y-77997293D01*
X109749382Y-78002702D01*
X109731663Y-78408539D01*
X109730720Y-78419316D01*
X109678051Y-78819370D01*
X109676173Y-78830022D01*
X109588837Y-79223974D01*
X109586037Y-79234424D01*
X109464697Y-79619264D01*
X109460997Y-79629429D01*
X109306579Y-80002226D01*
X109302007Y-80012030D01*
X109115690Y-80369942D01*
X109110282Y-80379310D01*
X108893469Y-80719638D01*
X108887264Y-80728499D01*
X108641621Y-81048627D01*
X108634667Y-81056914D01*
X108362061Y-81354412D01*
X108354412Y-81362061D01*
X108056914Y-81634667D01*
X108048627Y-81641621D01*
X107728499Y-81887264D01*
X107719638Y-81893469D01*
X107379310Y-82110282D01*
X107369942Y-82115690D01*
X107012030Y-82302007D01*
X107002226Y-82306579D01*
X106629429Y-82460997D01*
X106619264Y-82464697D01*
X106234424Y-82586037D01*
X106223974Y-82588837D01*
X105830022Y-82676173D01*
X105819370Y-82678051D01*
X105419316Y-82730720D01*
X105408539Y-82731663D01*
X105002703Y-82749382D01*
X104997294Y-82749500D01*
X25002706Y-82749500D01*
X24997297Y-82749382D01*
X24591460Y-82731663D01*
X24580685Y-82730720D01*
X24380656Y-82704385D01*
X24180629Y-82678051D01*
X24169977Y-82676173D01*
X23915393Y-82619733D01*
X23776022Y-82588836D01*
X23765579Y-82586038D01*
X23380733Y-82464696D01*
X23370570Y-82460997D01*
X22997773Y-82306579D01*
X22987969Y-82302007D01*
X22630057Y-82115690D01*
X22620689Y-82110282D01*
X22280361Y-81893469D01*
X22271500Y-81887264D01*
X21951372Y-81641621D01*
X21943085Y-81634667D01*
X21645587Y-81362061D01*
X21637938Y-81354412D01*
X21365332Y-81056914D01*
X21358378Y-81048627D01*
X21112735Y-80728499D01*
X21106530Y-80719638D01*
X20889717Y-80379310D01*
X20884309Y-80369942D01*
X20697992Y-80012030D01*
X20693420Y-80002226D01*
X20655314Y-79910230D01*
X20538996Y-79629414D01*
X20535307Y-79619279D01*
X20413956Y-79234405D01*
X20411167Y-79223993D01*
X20323823Y-78830010D01*
X20321950Y-78819386D01*
X20269277Y-78419293D01*
X20268337Y-78408558D01*
X20250618Y-78002701D01*
X20250500Y-77997293D01*
X20250500Y-77901577D01*
X23749500Y-77901577D01*
X23749500Y-78098422D01*
X23780290Y-78292826D01*
X23841117Y-78480029D01*
X23851548Y-78500500D01*
X23930476Y-78655405D01*
X24046172Y-78814646D01*
X24185354Y-78953828D01*
X24344595Y-79069524D01*
X24427455Y-79111743D01*
X24519970Y-79158882D01*
X24519972Y-79158882D01*
X24519975Y-79158884D01*
X24620317Y-79191487D01*
X24707173Y-79219709D01*
X24901578Y-79250500D01*
X24901583Y-79250500D01*
X25098422Y-79250500D01*
X25292826Y-79219709D01*
X25480025Y-79158884D01*
X25655405Y-79069524D01*
X25814646Y-78953828D01*
X25953828Y-78814646D01*
X26069524Y-78655405D01*
X26158884Y-78480025D01*
X26219709Y-78292826D01*
X26231456Y-78218657D01*
X26250500Y-78098422D01*
X26250500Y-77901577D01*
X26219709Y-77707173D01*
X26158882Y-77519970D01*
X26069523Y-77344594D01*
X25953828Y-77185354D01*
X25814646Y-77046172D01*
X25655405Y-76930476D01*
X25480029Y-76841117D01*
X25292826Y-76780290D01*
X25098422Y-76749500D01*
X25098417Y-76749500D01*
X24901583Y-76749500D01*
X24901578Y-76749500D01*
X24707173Y-76780290D01*
X24519970Y-76841117D01*
X24344594Y-76930476D01*
X24253741Y-76996485D01*
X24185354Y-77046172D01*
X24185352Y-77046174D01*
X24185351Y-77046174D01*
X24046174Y-77185351D01*
X24046174Y-77185352D01*
X24046172Y-77185354D01*
X23996485Y-77253741D01*
X23930476Y-77344594D01*
X23841117Y-77519970D01*
X23780290Y-77707173D01*
X23749500Y-77901577D01*
X20250500Y-77901577D01*
X20250500Y-76199983D01*
X33999500Y-76199983D01*
X33999500Y-77800001D01*
X33999501Y-77800018D01*
X34010000Y-77902796D01*
X34010001Y-77902799D01*
X34065185Y-78069331D01*
X34065187Y-78069336D01*
X34091746Y-78112395D01*
X34157288Y-78218656D01*
X34281344Y-78342712D01*
X34430666Y-78434814D01*
X34597203Y-78489999D01*
X34699991Y-78500500D01*
X36300008Y-78500499D01*
X36402797Y-78489999D01*
X36569334Y-78434814D01*
X36718656Y-78342712D01*
X36842712Y-78218656D01*
X36872512Y-78170341D01*
X36924458Y-78123618D01*
X36993420Y-78112395D01*
X37057503Y-78140238D01*
X37058758Y-78141385D01*
X37058786Y-78141353D01*
X37062481Y-78144508D01*
X37062490Y-78144517D01*
X37253567Y-78283343D01*
X37352991Y-78334002D01*
X37464003Y-78390566D01*
X37464005Y-78390566D01*
X37464008Y-78390568D01*
X37519314Y-78408538D01*
X37688631Y-78463553D01*
X37921903Y-78500500D01*
X37921908Y-78500500D01*
X38158097Y-78500500D01*
X38391368Y-78463553D01*
X38615992Y-78390568D01*
X38826433Y-78283343D01*
X39017510Y-78144517D01*
X39184517Y-77977510D01*
X39209682Y-77942872D01*
X39265011Y-77900207D01*
X39334625Y-77894228D01*
X39396420Y-77926833D01*
X39410315Y-77942870D01*
X39435483Y-77977510D01*
X39602490Y-78144517D01*
X39793567Y-78283343D01*
X39892991Y-78334002D01*
X40004003Y-78390566D01*
X40004005Y-78390566D01*
X40004008Y-78390568D01*
X40059314Y-78408538D01*
X40228631Y-78463553D01*
X40461903Y-78500500D01*
X40461908Y-78500500D01*
X40698097Y-78500500D01*
X40931368Y-78463553D01*
X41155992Y-78390568D01*
X41366433Y-78283343D01*
X41557510Y-78144517D01*
X41724517Y-77977510D01*
X41863343Y-77786433D01*
X41970568Y-77575992D01*
X42043553Y-77351368D01*
X42069847Y-77185354D01*
X42080500Y-77118097D01*
X42080500Y-76881902D01*
X42043553Y-76648631D01*
X41970566Y-76424003D01*
X41883501Y-76253129D01*
X41883500Y-76253125D01*
X41863346Y-76213571D01*
X41853474Y-76199983D01*
X59999500Y-76199983D01*
X59999500Y-77800001D01*
X59999501Y-77800018D01*
X60010000Y-77902796D01*
X60010001Y-77902799D01*
X60065185Y-78069331D01*
X60065187Y-78069336D01*
X60091746Y-78112395D01*
X60157288Y-78218656D01*
X60281344Y-78342712D01*
X60430666Y-78434814D01*
X60597203Y-78489999D01*
X60699991Y-78500500D01*
X62300008Y-78500499D01*
X62402797Y-78489999D01*
X62569334Y-78434814D01*
X62718656Y-78342712D01*
X62842712Y-78218656D01*
X62872512Y-78170341D01*
X62924458Y-78123618D01*
X62993420Y-78112395D01*
X63057503Y-78140238D01*
X63058758Y-78141385D01*
X63058786Y-78141353D01*
X63062481Y-78144508D01*
X63062490Y-78144517D01*
X63253567Y-78283343D01*
X63352991Y-78334002D01*
X63464003Y-78390566D01*
X63464005Y-78390566D01*
X63464008Y-78390568D01*
X63519314Y-78408538D01*
X63688631Y-78463553D01*
X63921903Y-78500500D01*
X63921908Y-78500500D01*
X64158097Y-78500500D01*
X64391368Y-78463553D01*
X64615992Y-78390568D01*
X64826433Y-78283343D01*
X65017510Y-78144517D01*
X65184517Y-77977510D01*
X65209682Y-77942872D01*
X65265011Y-77900207D01*
X65334625Y-77894228D01*
X65396420Y-77926833D01*
X65410315Y-77942870D01*
X65435483Y-77977510D01*
X65602490Y-78144517D01*
X65793567Y-78283343D01*
X65892991Y-78334002D01*
X66004003Y-78390566D01*
X66004005Y-78390566D01*
X66004008Y-78390568D01*
X66059314Y-78408538D01*
X66228631Y-78463553D01*
X66461903Y-78500500D01*
X66461908Y-78500500D01*
X66698097Y-78500500D01*
X66931368Y-78463553D01*
X67155992Y-78390568D01*
X67366433Y-78283343D01*
X67557510Y-78144517D01*
X67724517Y-77977510D01*
X67863343Y-77786433D01*
X67970568Y-77575992D01*
X68043553Y-77351368D01*
X68069847Y-77185354D01*
X68080500Y-77118097D01*
X68080500Y-76881902D01*
X68043553Y-76648631D01*
X67970566Y-76424003D01*
X67883501Y-76253129D01*
X67883500Y-76253125D01*
X67863346Y-76213571D01*
X67853474Y-76199983D01*
X85999500Y-76199983D01*
X85999500Y-77800001D01*
X85999501Y-77800018D01*
X86010000Y-77902796D01*
X86010001Y-77902799D01*
X86065185Y-78069331D01*
X86065187Y-78069336D01*
X86091746Y-78112395D01*
X86157288Y-78218656D01*
X86281344Y-78342712D01*
X86430666Y-78434814D01*
X86597203Y-78489999D01*
X86699991Y-78500500D01*
X88300008Y-78500499D01*
X88402797Y-78489999D01*
X88569334Y-78434814D01*
X88718656Y-78342712D01*
X88842712Y-78218656D01*
X88872512Y-78170341D01*
X88924458Y-78123618D01*
X88993420Y-78112395D01*
X89057503Y-78140238D01*
X89058758Y-78141385D01*
X89058786Y-78141353D01*
X89062481Y-78144508D01*
X89062490Y-78144517D01*
X89253567Y-78283343D01*
X89352991Y-78334002D01*
X89464003Y-78390566D01*
X89464005Y-78390566D01*
X89464008Y-78390568D01*
X89519314Y-78408538D01*
X89688631Y-78463553D01*
X89921903Y-78500500D01*
X89921908Y-78500500D01*
X90158097Y-78500500D01*
X90391368Y-78463553D01*
X90615992Y-78390568D01*
X90826433Y-78283343D01*
X91017510Y-78144517D01*
X91184517Y-77977510D01*
X91209682Y-77942872D01*
X91265011Y-77900207D01*
X91334625Y-77894228D01*
X91396420Y-77926833D01*
X91410315Y-77942870D01*
X91435483Y-77977510D01*
X91602490Y-78144517D01*
X91793567Y-78283343D01*
X91892991Y-78334002D01*
X92004003Y-78390566D01*
X92004005Y-78390566D01*
X92004008Y-78390568D01*
X92059314Y-78408538D01*
X92228631Y-78463553D01*
X92461903Y-78500500D01*
X92461908Y-78500500D01*
X92698097Y-78500500D01*
X92931368Y-78463553D01*
X93155992Y-78390568D01*
X93366433Y-78283343D01*
X93557510Y-78144517D01*
X93724517Y-77977510D01*
X93779686Y-77901577D01*
X103749500Y-77901577D01*
X103749500Y-78098422D01*
X103780290Y-78292826D01*
X103841117Y-78480029D01*
X103851548Y-78500500D01*
X103930476Y-78655405D01*
X104046172Y-78814646D01*
X104185354Y-78953828D01*
X104344595Y-79069524D01*
X104427455Y-79111743D01*
X104519970Y-79158882D01*
X104519972Y-79158882D01*
X104519975Y-79158884D01*
X104620317Y-79191487D01*
X104707173Y-79219709D01*
X104901578Y-79250500D01*
X104901583Y-79250500D01*
X105098422Y-79250500D01*
X105292826Y-79219709D01*
X105480025Y-79158884D01*
X105655405Y-79069524D01*
X105814646Y-78953828D01*
X105953828Y-78814646D01*
X106069524Y-78655405D01*
X106158884Y-78480025D01*
X106219709Y-78292826D01*
X106231456Y-78218657D01*
X106250500Y-78098422D01*
X106250500Y-77901577D01*
X106219709Y-77707173D01*
X106158882Y-77519970D01*
X106069523Y-77344594D01*
X105953828Y-77185354D01*
X105814646Y-77046172D01*
X105655405Y-76930476D01*
X105480029Y-76841117D01*
X105292826Y-76780290D01*
X105098422Y-76749500D01*
X105098417Y-76749500D01*
X104901583Y-76749500D01*
X104901578Y-76749500D01*
X104707173Y-76780290D01*
X104519970Y-76841117D01*
X104344594Y-76930476D01*
X104253741Y-76996485D01*
X104185354Y-77046172D01*
X104185352Y-77046174D01*
X104185351Y-77046174D01*
X104046174Y-77185351D01*
X104046174Y-77185352D01*
X104046172Y-77185354D01*
X103996485Y-77253741D01*
X103930476Y-77344594D01*
X103841117Y-77519970D01*
X103780290Y-77707173D01*
X103749500Y-77901577D01*
X93779686Y-77901577D01*
X93863343Y-77786433D01*
X93970568Y-77575992D01*
X94043553Y-77351368D01*
X94069847Y-77185354D01*
X94080500Y-77118097D01*
X94080500Y-76881902D01*
X94043553Y-76648631D01*
X93970566Y-76424003D01*
X93863342Y-76213566D01*
X93853479Y-76199991D01*
X93724517Y-76022490D01*
X93557510Y-75855483D01*
X93366433Y-75716657D01*
X93155996Y-75609433D01*
X92931368Y-75536446D01*
X92698097Y-75499500D01*
X92698092Y-75499500D01*
X92461908Y-75499500D01*
X92461903Y-75499500D01*
X92228631Y-75536446D01*
X92004003Y-75609433D01*
X91793566Y-75716657D01*
X91704533Y-75781344D01*
X91602490Y-75855483D01*
X91602488Y-75855485D01*
X91602487Y-75855485D01*
X91435484Y-76022488D01*
X91410318Y-76057127D01*
X91354987Y-76099792D01*
X91285374Y-76105771D01*
X91223579Y-76073165D01*
X91209682Y-76057127D01*
X91184517Y-76022490D01*
X91017510Y-75855483D01*
X90826433Y-75716657D01*
X90615996Y-75609433D01*
X90391368Y-75536446D01*
X90158097Y-75499500D01*
X90158092Y-75499500D01*
X89921908Y-75499500D01*
X89921903Y-75499500D01*
X89688631Y-75536446D01*
X89464003Y-75609433D01*
X89253566Y-75716657D01*
X89164533Y-75781344D01*
X89062490Y-75855483D01*
X89062488Y-75855485D01*
X89058786Y-75858647D01*
X89057305Y-75856913D01*
X89004110Y-75885791D01*
X88934431Y-75880635D01*
X88878601Y-75838626D01*
X88872511Y-75829656D01*
X88868468Y-75823102D01*
X88842712Y-75781344D01*
X88718656Y-75657288D01*
X88569334Y-75565186D01*
X88402797Y-75510001D01*
X88402795Y-75510000D01*
X88300010Y-75499500D01*
X86699998Y-75499500D01*
X86699981Y-75499501D01*
X86597203Y-75510000D01*
X86597200Y-75510001D01*
X86430668Y-75565185D01*
X86430663Y-75565187D01*
X86281342Y-75657289D01*
X86157289Y-75781342D01*
X86065187Y-75930663D01*
X86065186Y-75930666D01*
X86010001Y-76097203D01*
X86010001Y-76097204D01*
X86010000Y-76097204D01*
X85999500Y-76199983D01*
X67853474Y-76199983D01*
X67785024Y-76105771D01*
X67724517Y-76022490D01*
X67557510Y-75855483D01*
X67366433Y-75716657D01*
X67155996Y-75609433D01*
X66931368Y-75536446D01*
X66698097Y-75499500D01*
X66698092Y-75499500D01*
X66461908Y-75499500D01*
X66461903Y-75499500D01*
X66228631Y-75536446D01*
X66004003Y-75609433D01*
X65793566Y-75716657D01*
X65704533Y-75781344D01*
X65602490Y-75855483D01*
X65602488Y-75855485D01*
X65602487Y-75855485D01*
X65435484Y-76022488D01*
X65410318Y-76057127D01*
X65354987Y-76099792D01*
X65285374Y-76105771D01*
X65223579Y-76073165D01*
X65209682Y-76057127D01*
X65184517Y-76022490D01*
X65017510Y-75855483D01*
X64826433Y-75716657D01*
X64615996Y-75609433D01*
X64391368Y-75536446D01*
X64158097Y-75499500D01*
X64158092Y-75499500D01*
X63921908Y-75499500D01*
X63921903Y-75499500D01*
X63688631Y-75536446D01*
X63464003Y-75609433D01*
X63253566Y-75716657D01*
X63164533Y-75781344D01*
X63062490Y-75855483D01*
X63062488Y-75855485D01*
X63058786Y-75858647D01*
X63057305Y-75856913D01*
X63004110Y-75885791D01*
X62934431Y-75880635D01*
X62878601Y-75838626D01*
X62872511Y-75829656D01*
X62868468Y-75823102D01*
X62842712Y-75781344D01*
X62718656Y-75657288D01*
X62569334Y-75565186D01*
X62402797Y-75510001D01*
X62402795Y-75510000D01*
X62300010Y-75499500D01*
X60699998Y-75499500D01*
X60699981Y-75499501D01*
X60597203Y-75510000D01*
X60597200Y-75510001D01*
X60430668Y-75565185D01*
X60430663Y-75565187D01*
X60281342Y-75657289D01*
X60157289Y-75781342D01*
X60065187Y-75930663D01*
X60065186Y-75930666D01*
X60010001Y-76097203D01*
X60010001Y-76097204D01*
X60010000Y-76097204D01*
X59999500Y-76199983D01*
X41853474Y-76199983D01*
X41785024Y-76105771D01*
X41724517Y-76022490D01*
X41557510Y-75855483D01*
X41366433Y-75716657D01*
X41155996Y-75609433D01*
X40931368Y-75536446D01*
X40698097Y-75499500D01*
X40698092Y-75499500D01*
X40461908Y-75499500D01*
X40461903Y-75499500D01*
X40228631Y-75536446D01*
X40004003Y-75609433D01*
X39793566Y-75716657D01*
X39704533Y-75781344D01*
X39602490Y-75855483D01*
X39602488Y-75855485D01*
X39602487Y-75855485D01*
X39435484Y-76022488D01*
X39410318Y-76057127D01*
X39354987Y-76099792D01*
X39285374Y-76105771D01*
X39223579Y-76073165D01*
X39209682Y-76057127D01*
X39184517Y-76022490D01*
X39017510Y-75855483D01*
X38826433Y-75716657D01*
X38615996Y-75609433D01*
X38391368Y-75536446D01*
X38158097Y-75499500D01*
X38158092Y-75499500D01*
X37921908Y-75499500D01*
X37921903Y-75499500D01*
X37688631Y-75536446D01*
X37464003Y-75609433D01*
X37253566Y-75716657D01*
X37164533Y-75781344D01*
X37062490Y-75855483D01*
X37062488Y-75855485D01*
X37058786Y-75858647D01*
X37057305Y-75856913D01*
X37004110Y-75885791D01*
X36934431Y-75880635D01*
X36878601Y-75838626D01*
X36872511Y-75829656D01*
X36868468Y-75823102D01*
X36842712Y-75781344D01*
X36718656Y-75657288D01*
X36569334Y-75565186D01*
X36402797Y-75510001D01*
X36402795Y-75510000D01*
X36300010Y-75499500D01*
X34699998Y-75499500D01*
X34699981Y-75499501D01*
X34597203Y-75510000D01*
X34597200Y-75510001D01*
X34430668Y-75565185D01*
X34430663Y-75565187D01*
X34281342Y-75657289D01*
X34157289Y-75781342D01*
X34065187Y-75930663D01*
X34065186Y-75930666D01*
X34010001Y-76097203D01*
X34010001Y-76097204D01*
X34010000Y-76097204D01*
X33999500Y-76199983D01*
X20250500Y-76199983D01*
X20250500Y-67921153D01*
X95199500Y-67921153D01*
X95199500Y-68078846D01*
X95230261Y-68233489D01*
X95230264Y-68233501D01*
X95290602Y-68379172D01*
X95290609Y-68379185D01*
X95325304Y-68431109D01*
X95346182Y-68497786D01*
X95327698Y-68565167D01*
X95325304Y-68568891D01*
X95290609Y-68620814D01*
X95290602Y-68620827D01*
X95230264Y-68766498D01*
X95230261Y-68766510D01*
X95199500Y-68921153D01*
X95199500Y-69078846D01*
X95230261Y-69233489D01*
X95230264Y-69233501D01*
X95290602Y-69379172D01*
X95290609Y-69379185D01*
X95378210Y-69510288D01*
X95378213Y-69510292D01*
X95489707Y-69621786D01*
X95489711Y-69621789D01*
X95620814Y-69709390D01*
X95620827Y-69709397D01*
X95766498Y-69769735D01*
X95766503Y-69769737D01*
X95921153Y-69800499D01*
X95921156Y-69800500D01*
X95921158Y-69800500D01*
X96078844Y-69800500D01*
X96078845Y-69800499D01*
X96233497Y-69769737D01*
X96379179Y-69709394D01*
X96431110Y-69674694D01*
X96497785Y-69653816D01*
X96565165Y-69672300D01*
X96568863Y-69674676D01*
X96620821Y-69709394D01*
X96620823Y-69709395D01*
X96620825Y-69709396D01*
X96766498Y-69769735D01*
X96766503Y-69769737D01*
X96921153Y-69800499D01*
X96921156Y-69800500D01*
X96921158Y-69800500D01*
X97078844Y-69800500D01*
X97078845Y-69800499D01*
X97233497Y-69769737D01*
X97379179Y-69709394D01*
X97431110Y-69674694D01*
X97497785Y-69653816D01*
X97565165Y-69672300D01*
X97568863Y-69674676D01*
X97620821Y-69709394D01*
X97620823Y-69709395D01*
X97620825Y-69709396D01*
X97766498Y-69769735D01*
X97766503Y-69769737D01*
X97921153Y-69800499D01*
X97921156Y-69800500D01*
X97921158Y-69800500D01*
X98078844Y-69800500D01*
X98078845Y-69800499D01*
X98233497Y-69769737D01*
X98379179Y-69709394D01*
X98431110Y-69674694D01*
X98497785Y-69653816D01*
X98565165Y-69672300D01*
X98568863Y-69674676D01*
X98620821Y-69709394D01*
X98620823Y-69709395D01*
X98620825Y-69709396D01*
X98766498Y-69769735D01*
X98766503Y-69769737D01*
X98921153Y-69800499D01*
X98921156Y-69800500D01*
X98921158Y-69800500D01*
X99078844Y-69800500D01*
X99078845Y-69800499D01*
X99233497Y-69769737D01*
X99379179Y-69709394D01*
X99510289Y-69621789D01*
X99621789Y-69510289D01*
X99709394Y-69379179D01*
X99769737Y-69233497D01*
X99800500Y-69078842D01*
X99800500Y-68921158D01*
X99800500Y-68921155D01*
X99800499Y-68921153D01*
X99769738Y-68766510D01*
X99769737Y-68766503D01*
X99769735Y-68766498D01*
X99709396Y-68620825D01*
X99709394Y-68620822D01*
X99709394Y-68620821D01*
X99674694Y-68568889D01*
X99670845Y-68556599D01*
X99662845Y-68546501D01*
X99660603Y-68523892D01*
X99653816Y-68502215D01*
X99657063Y-68488172D01*
X99655953Y-68476972D01*
X99664477Y-68456110D01*
X99667376Y-68443578D01*
X99670667Y-68437137D01*
X99709394Y-68379179D01*
X99724835Y-68341902D01*
X102999500Y-68341902D01*
X102999500Y-68578097D01*
X103036446Y-68811368D01*
X103109433Y-69035996D01*
X103210062Y-69233489D01*
X103216657Y-69246433D01*
X103355483Y-69437510D01*
X103522490Y-69604517D01*
X103713567Y-69743343D01*
X103812991Y-69794002D01*
X103924003Y-69850566D01*
X103924005Y-69850566D01*
X103924008Y-69850568D01*
X104044412Y-69889689D01*
X104148631Y-69923553D01*
X104381903Y-69960500D01*
X104381908Y-69960500D01*
X104618097Y-69960500D01*
X104851368Y-69923553D01*
X105075992Y-69850568D01*
X105286433Y-69743343D01*
X105477510Y-69604517D01*
X105644517Y-69437510D01*
X105783343Y-69246433D01*
X105890568Y-69035992D01*
X105963553Y-68811368D01*
X105970660Y-68766498D01*
X106000500Y-68578097D01*
X106000500Y-68341902D01*
X105963553Y-68108631D01*
X105890566Y-67884003D01*
X105783342Y-67673566D01*
X105644517Y-67482490D01*
X105477510Y-67315483D01*
X105286433Y-67176657D01*
X105075996Y-67069433D01*
X104851368Y-66996446D01*
X104618097Y-66959500D01*
X104618092Y-66959500D01*
X104381908Y-66959500D01*
X104381903Y-66959500D01*
X104148631Y-66996446D01*
X103924003Y-67069433D01*
X103713566Y-67176657D01*
X103604550Y-67255862D01*
X103522490Y-67315483D01*
X103522488Y-67315485D01*
X103522487Y-67315485D01*
X103355485Y-67482487D01*
X103355485Y-67482488D01*
X103355483Y-67482490D01*
X103350240Y-67489707D01*
X103216657Y-67673566D01*
X103109433Y-67884003D01*
X103036446Y-68108631D01*
X102999500Y-68341902D01*
X99724835Y-68341902D01*
X99769737Y-68233497D01*
X99800500Y-68078842D01*
X99800500Y-67921158D01*
X99800500Y-67921155D01*
X99800499Y-67921153D01*
X99769738Y-67766510D01*
X99769737Y-67766503D01*
X99731242Y-67673566D01*
X99709397Y-67620827D01*
X99709390Y-67620814D01*
X99621789Y-67489711D01*
X99621786Y-67489707D01*
X99510292Y-67378213D01*
X99510288Y-67378210D01*
X99379185Y-67290609D01*
X99379172Y-67290602D01*
X99233501Y-67230264D01*
X99233489Y-67230261D01*
X99078845Y-67199500D01*
X99078842Y-67199500D01*
X98921158Y-67199500D01*
X98921155Y-67199500D01*
X98766510Y-67230261D01*
X98766498Y-67230264D01*
X98620827Y-67290602D01*
X98620814Y-67290609D01*
X98568891Y-67325304D01*
X98502214Y-67346182D01*
X98434833Y-67327698D01*
X98431109Y-67325304D01*
X98379185Y-67290609D01*
X98379172Y-67290602D01*
X98233501Y-67230264D01*
X98233489Y-67230261D01*
X98078845Y-67199500D01*
X98078842Y-67199500D01*
X97921158Y-67199500D01*
X97921155Y-67199500D01*
X97766510Y-67230261D01*
X97766498Y-67230264D01*
X97620827Y-67290602D01*
X97620814Y-67290609D01*
X97568891Y-67325304D01*
X97502214Y-67346182D01*
X97434833Y-67327698D01*
X97431109Y-67325304D01*
X97379185Y-67290609D01*
X97379172Y-67290602D01*
X97233501Y-67230264D01*
X97233489Y-67230261D01*
X97078845Y-67199500D01*
X97078842Y-67199500D01*
X96921158Y-67199500D01*
X96921155Y-67199500D01*
X96766510Y-67230261D01*
X96766498Y-67230264D01*
X96620827Y-67290602D01*
X96620814Y-67290609D01*
X96568891Y-67325304D01*
X96502214Y-67346182D01*
X96434833Y-67327698D01*
X96431109Y-67325304D01*
X96379185Y-67290609D01*
X96379172Y-67290602D01*
X96233501Y-67230264D01*
X96233489Y-67230261D01*
X96078845Y-67199500D01*
X96078842Y-67199500D01*
X95921158Y-67199500D01*
X95921155Y-67199500D01*
X95766510Y-67230261D01*
X95766498Y-67230264D01*
X95620827Y-67290602D01*
X95620814Y-67290609D01*
X95489711Y-67378210D01*
X95489707Y-67378213D01*
X95378213Y-67489707D01*
X95378210Y-67489711D01*
X95290609Y-67620814D01*
X95290602Y-67620827D01*
X95230264Y-67766498D01*
X95230261Y-67766510D01*
X95199500Y-67921153D01*
X20250500Y-67921153D01*
X20250500Y-62421153D01*
X40199500Y-62421153D01*
X40199500Y-62578846D01*
X40230261Y-62733489D01*
X40230264Y-62733501D01*
X40290602Y-62879172D01*
X40290609Y-62879185D01*
X40378210Y-63010288D01*
X40378213Y-63010292D01*
X40489707Y-63121786D01*
X40489710Y-63121788D01*
X40489711Y-63121789D01*
X40499999Y-63128663D01*
X40527289Y-63146898D01*
X40572093Y-63200511D01*
X40580800Y-63269836D01*
X40550645Y-63332863D01*
X40527289Y-63353102D01*
X40489707Y-63378213D01*
X40378213Y-63489707D01*
X40378210Y-63489711D01*
X40290609Y-63620814D01*
X40290602Y-63620827D01*
X40230264Y-63766498D01*
X40230261Y-63766510D01*
X40199500Y-63921153D01*
X40199500Y-64078846D01*
X40230261Y-64233489D01*
X40230264Y-64233501D01*
X40290602Y-64379172D01*
X40290609Y-64379185D01*
X40378210Y-64510288D01*
X40378213Y-64510292D01*
X40489707Y-64621786D01*
X40489711Y-64621789D01*
X40620814Y-64709390D01*
X40620827Y-64709397D01*
X40766498Y-64769735D01*
X40766503Y-64769737D01*
X40921153Y-64800499D01*
X40921156Y-64800500D01*
X40921158Y-64800500D01*
X41078844Y-64800500D01*
X41078845Y-64800499D01*
X41233497Y-64769737D01*
X41379179Y-64709394D01*
X41431110Y-64674694D01*
X41497785Y-64653816D01*
X41565165Y-64672300D01*
X41568863Y-64674676D01*
X41620821Y-64709394D01*
X41620823Y-64709395D01*
X41620825Y-64709396D01*
X41766498Y-64769735D01*
X41766503Y-64769737D01*
X41921153Y-64800499D01*
X41921156Y-64800500D01*
X41921158Y-64800500D01*
X42078844Y-64800500D01*
X42078845Y-64800499D01*
X42233497Y-64769737D01*
X42379179Y-64709394D01*
X42510289Y-64621789D01*
X42621789Y-64510289D01*
X42709394Y-64379179D01*
X42769737Y-64233497D01*
X42800500Y-64078842D01*
X42800500Y-63921158D01*
X42800500Y-63921155D01*
X42800499Y-63921153D01*
X42769738Y-63766510D01*
X42769737Y-63766503D01*
X42769735Y-63766498D01*
X42709397Y-63620827D01*
X42709390Y-63620814D01*
X42621789Y-63489711D01*
X42621786Y-63489707D01*
X42510292Y-63378213D01*
X42510284Y-63378207D01*
X42472712Y-63353102D01*
X42427906Y-63299490D01*
X42419199Y-63230165D01*
X42449353Y-63167138D01*
X42472712Y-63146898D01*
X42500001Y-63128663D01*
X42510289Y-63121789D01*
X42621789Y-63010289D01*
X42709394Y-62879179D01*
X42769737Y-62733497D01*
X42800500Y-62578842D01*
X42800500Y-62421158D01*
X42800500Y-62421155D01*
X42800499Y-62421153D01*
X66199500Y-62421153D01*
X66199500Y-62578846D01*
X66230261Y-62733489D01*
X66230264Y-62733501D01*
X66290602Y-62879172D01*
X66290609Y-62879185D01*
X66378210Y-63010288D01*
X66378213Y-63010292D01*
X66489707Y-63121786D01*
X66489710Y-63121788D01*
X66489711Y-63121789D01*
X66499999Y-63128663D01*
X66527289Y-63146898D01*
X66572093Y-63200511D01*
X66580800Y-63269836D01*
X66550645Y-63332863D01*
X66527289Y-63353102D01*
X66489707Y-63378213D01*
X66378213Y-63489707D01*
X66378210Y-63489711D01*
X66290609Y-63620814D01*
X66290602Y-63620827D01*
X66230264Y-63766498D01*
X66230261Y-63766510D01*
X66199500Y-63921153D01*
X66199500Y-64078846D01*
X66230261Y-64233489D01*
X66230264Y-64233501D01*
X66290602Y-64379172D01*
X66290609Y-64379185D01*
X66378210Y-64510288D01*
X66378213Y-64510292D01*
X66489707Y-64621786D01*
X66489711Y-64621789D01*
X66620814Y-64709390D01*
X66620827Y-64709397D01*
X66766498Y-64769735D01*
X66766503Y-64769737D01*
X66921153Y-64800499D01*
X66921156Y-64800500D01*
X66921158Y-64800500D01*
X67078844Y-64800500D01*
X67078845Y-64800499D01*
X67233497Y-64769737D01*
X67379179Y-64709394D01*
X67431110Y-64674694D01*
X67497785Y-64653816D01*
X67565165Y-64672300D01*
X67568863Y-64674676D01*
X67620821Y-64709394D01*
X67620823Y-64709395D01*
X67620825Y-64709396D01*
X67766498Y-64769735D01*
X67766503Y-64769737D01*
X67921153Y-64800499D01*
X67921156Y-64800500D01*
X67921158Y-64800500D01*
X68078844Y-64800500D01*
X68078845Y-64800499D01*
X68233497Y-64769737D01*
X68379179Y-64709394D01*
X68510289Y-64621789D01*
X68621789Y-64510289D01*
X68709394Y-64379179D01*
X68769737Y-64233497D01*
X68800500Y-64078842D01*
X68800500Y-63921158D01*
X68800500Y-63921155D01*
X68800499Y-63921153D01*
X68769738Y-63766510D01*
X68769737Y-63766503D01*
X68769735Y-63766498D01*
X68709397Y-63620827D01*
X68709390Y-63620814D01*
X68621789Y-63489711D01*
X68621786Y-63489707D01*
X68510292Y-63378213D01*
X68510284Y-63378207D01*
X68472712Y-63353102D01*
X68427906Y-63299490D01*
X68419199Y-63230165D01*
X68449353Y-63167138D01*
X68472712Y-63146898D01*
X68500001Y-63128663D01*
X68510289Y-63121789D01*
X68621789Y-63010289D01*
X68709394Y-62879179D01*
X68769737Y-62733497D01*
X68800500Y-62578842D01*
X68800500Y-62421158D01*
X68800500Y-62421155D01*
X68800499Y-62421153D01*
X92199500Y-62421153D01*
X92199500Y-62578846D01*
X92230261Y-62733489D01*
X92230264Y-62733501D01*
X92290602Y-62879172D01*
X92290609Y-62879185D01*
X92378210Y-63010288D01*
X92378213Y-63010292D01*
X92489707Y-63121786D01*
X92489710Y-63121788D01*
X92489711Y-63121789D01*
X92499999Y-63128663D01*
X92527289Y-63146898D01*
X92572093Y-63200511D01*
X92580800Y-63269836D01*
X92550645Y-63332863D01*
X92527289Y-63353102D01*
X92489707Y-63378213D01*
X92378213Y-63489707D01*
X92378210Y-63489711D01*
X92290609Y-63620814D01*
X92290602Y-63620827D01*
X92230264Y-63766498D01*
X92230261Y-63766510D01*
X92199500Y-63921153D01*
X92199500Y-64078846D01*
X92230261Y-64233489D01*
X92230264Y-64233501D01*
X92290602Y-64379172D01*
X92290609Y-64379185D01*
X92378210Y-64510288D01*
X92378213Y-64510292D01*
X92489707Y-64621786D01*
X92489711Y-64621789D01*
X92620814Y-64709390D01*
X92620827Y-64709397D01*
X92766498Y-64769735D01*
X92766503Y-64769737D01*
X92921153Y-64800499D01*
X92921156Y-64800500D01*
X92921158Y-64800500D01*
X93078844Y-64800500D01*
X93078845Y-64800499D01*
X93233497Y-64769737D01*
X93379179Y-64709394D01*
X93431110Y-64674694D01*
X93497785Y-64653816D01*
X93565165Y-64672300D01*
X93568863Y-64674676D01*
X93620821Y-64709394D01*
X93620823Y-64709395D01*
X93620825Y-64709396D01*
X93766498Y-64769735D01*
X93766503Y-64769737D01*
X93921153Y-64800499D01*
X93921156Y-64800500D01*
X93921158Y-64800500D01*
X94078844Y-64800500D01*
X94078845Y-64800499D01*
X94233497Y-64769737D01*
X94379179Y-64709394D01*
X94510289Y-64621789D01*
X94621789Y-64510289D01*
X94709394Y-64379179D01*
X94769737Y-64233497D01*
X94800500Y-64078842D01*
X94800500Y-63921158D01*
X94800500Y-63921155D01*
X94800499Y-63921153D01*
X94769738Y-63766510D01*
X94769737Y-63766503D01*
X94769735Y-63766498D01*
X94709397Y-63620827D01*
X94709390Y-63620814D01*
X94621789Y-63489711D01*
X94621786Y-63489707D01*
X94510292Y-63378213D01*
X94510284Y-63378207D01*
X94472712Y-63353102D01*
X94427906Y-63299490D01*
X94419199Y-63230165D01*
X94449353Y-63167138D01*
X94472712Y-63146898D01*
X94500001Y-63128663D01*
X94510289Y-63121789D01*
X94621789Y-63010289D01*
X94709394Y-62879179D01*
X94769737Y-62733497D01*
X94800500Y-62578842D01*
X94800500Y-62421158D01*
X94800500Y-62421155D01*
X94800499Y-62421153D01*
X105799500Y-62421153D01*
X105799500Y-62578846D01*
X105830261Y-62733489D01*
X105830264Y-62733501D01*
X105890602Y-62879172D01*
X105890609Y-62879185D01*
X105978210Y-63010288D01*
X105978213Y-63010292D01*
X106089707Y-63121786D01*
X106089711Y-63121789D01*
X106220814Y-63209390D01*
X106220827Y-63209397D01*
X106318853Y-63250000D01*
X106366503Y-63269737D01*
X106521153Y-63300499D01*
X106521156Y-63300500D01*
X106521158Y-63300500D01*
X106678844Y-63300500D01*
X106678845Y-63300499D01*
X106833497Y-63269737D01*
X106979179Y-63209394D01*
X107110289Y-63121789D01*
X107221789Y-63010289D01*
X107309394Y-62879179D01*
X107369737Y-62733497D01*
X107400500Y-62578842D01*
X107400500Y-62421158D01*
X107400500Y-62421155D01*
X107400499Y-62421153D01*
X107369738Y-62266510D01*
X107369737Y-62266503D01*
X107369735Y-62266498D01*
X107309397Y-62120827D01*
X107309390Y-62120814D01*
X107221789Y-61989711D01*
X107221786Y-61989707D01*
X107110292Y-61878213D01*
X107110288Y-61878210D01*
X106979185Y-61790609D01*
X106979172Y-61790602D01*
X106833501Y-61730264D01*
X106833489Y-61730261D01*
X106678845Y-61699500D01*
X106678842Y-61699500D01*
X106521158Y-61699500D01*
X106521155Y-61699500D01*
X106366510Y-61730261D01*
X106366498Y-61730264D01*
X106220827Y-61790602D01*
X106220814Y-61790609D01*
X106089711Y-61878210D01*
X106089707Y-61878213D01*
X105978213Y-61989707D01*
X105978210Y-61989711D01*
X105890609Y-62120814D01*
X105890602Y-62120827D01*
X105830264Y-62266498D01*
X105830261Y-62266510D01*
X105799500Y-62421153D01*
X94800499Y-62421153D01*
X94769738Y-62266510D01*
X94769737Y-62266503D01*
X94769735Y-62266498D01*
X94709397Y-62120827D01*
X94709390Y-62120814D01*
X94621789Y-61989711D01*
X94621786Y-61989707D01*
X94510292Y-61878213D01*
X94510288Y-61878210D01*
X94379185Y-61790609D01*
X94379172Y-61790602D01*
X94233501Y-61730264D01*
X94233489Y-61730261D01*
X94078845Y-61699500D01*
X94078842Y-61699500D01*
X93921158Y-61699500D01*
X93921155Y-61699500D01*
X93766510Y-61730261D01*
X93766498Y-61730264D01*
X93620827Y-61790602D01*
X93620814Y-61790609D01*
X93568891Y-61825304D01*
X93502214Y-61846182D01*
X93434833Y-61827698D01*
X93431109Y-61825304D01*
X93379185Y-61790609D01*
X93379172Y-61790602D01*
X93233501Y-61730264D01*
X93233489Y-61730261D01*
X93078845Y-61699500D01*
X93078842Y-61699500D01*
X92921158Y-61699500D01*
X92921155Y-61699500D01*
X92766510Y-61730261D01*
X92766498Y-61730264D01*
X92620827Y-61790602D01*
X92620814Y-61790609D01*
X92489711Y-61878210D01*
X92489707Y-61878213D01*
X92378213Y-61989707D01*
X92378210Y-61989711D01*
X92290609Y-62120814D01*
X92290602Y-62120827D01*
X92230264Y-62266498D01*
X92230261Y-62266510D01*
X92199500Y-62421153D01*
X68800499Y-62421153D01*
X68769738Y-62266510D01*
X68769737Y-62266503D01*
X68769735Y-62266498D01*
X68709397Y-62120827D01*
X68709390Y-62120814D01*
X68621789Y-61989711D01*
X68621786Y-61989707D01*
X68510292Y-61878213D01*
X68510288Y-61878210D01*
X68379185Y-61790609D01*
X68379172Y-61790602D01*
X68233501Y-61730264D01*
X68233489Y-61730261D01*
X68078845Y-61699500D01*
X68078842Y-61699500D01*
X67921158Y-61699500D01*
X67921155Y-61699500D01*
X67766510Y-61730261D01*
X67766498Y-61730264D01*
X67620827Y-61790602D01*
X67620814Y-61790609D01*
X67568891Y-61825304D01*
X67502214Y-61846182D01*
X67434833Y-61827698D01*
X67431109Y-61825304D01*
X67379185Y-61790609D01*
X67379172Y-61790602D01*
X67233501Y-61730264D01*
X67233489Y-61730261D01*
X67078845Y-61699500D01*
X67078842Y-61699500D01*
X66921158Y-61699500D01*
X66921155Y-61699500D01*
X66766510Y-61730261D01*
X66766498Y-61730264D01*
X66620827Y-61790602D01*
X66620814Y-61790609D01*
X66489711Y-61878210D01*
X66489707Y-61878213D01*
X66378213Y-61989707D01*
X66378210Y-61989711D01*
X66290609Y-62120814D01*
X66290602Y-62120827D01*
X66230264Y-62266498D01*
X66230261Y-62266510D01*
X66199500Y-62421153D01*
X42800499Y-62421153D01*
X42769738Y-62266510D01*
X42769737Y-62266503D01*
X42769735Y-62266498D01*
X42709397Y-62120827D01*
X42709390Y-62120814D01*
X42621789Y-61989711D01*
X42621786Y-61989707D01*
X42510292Y-61878213D01*
X42510288Y-61878210D01*
X42379185Y-61790609D01*
X42379172Y-61790602D01*
X42233501Y-61730264D01*
X42233489Y-61730261D01*
X42078845Y-61699500D01*
X42078842Y-61699500D01*
X41921158Y-61699500D01*
X41921155Y-61699500D01*
X41766510Y-61730261D01*
X41766498Y-61730264D01*
X41620827Y-61790602D01*
X41620814Y-61790609D01*
X41568891Y-61825304D01*
X41502214Y-61846182D01*
X41434833Y-61827698D01*
X41431109Y-61825304D01*
X41379185Y-61790609D01*
X41379172Y-61790602D01*
X41233501Y-61730264D01*
X41233489Y-61730261D01*
X41078845Y-61699500D01*
X41078842Y-61699500D01*
X40921158Y-61699500D01*
X40921155Y-61699500D01*
X40766510Y-61730261D01*
X40766498Y-61730264D01*
X40620827Y-61790602D01*
X40620814Y-61790609D01*
X40489711Y-61878210D01*
X40489707Y-61878213D01*
X40378213Y-61989707D01*
X40378210Y-61989711D01*
X40290609Y-62120814D01*
X40290602Y-62120827D01*
X40230264Y-62266498D01*
X40230261Y-62266510D01*
X40199500Y-62421153D01*
X20250500Y-62421153D01*
X20250500Y-57921153D01*
X20699500Y-57921153D01*
X20699500Y-58078846D01*
X20730261Y-58233489D01*
X20730264Y-58233501D01*
X20790602Y-58379172D01*
X20790609Y-58379185D01*
X20825304Y-58431109D01*
X20846182Y-58497786D01*
X20827698Y-58565167D01*
X20825304Y-58568891D01*
X20790609Y-58620814D01*
X20790602Y-58620827D01*
X20730264Y-58766498D01*
X20730261Y-58766510D01*
X20699500Y-58921153D01*
X20699500Y-59078846D01*
X20730261Y-59233489D01*
X20730264Y-59233501D01*
X20790602Y-59379172D01*
X20790609Y-59379185D01*
X20825304Y-59431109D01*
X20846182Y-59497786D01*
X20827698Y-59565167D01*
X20825304Y-59568891D01*
X20790609Y-59620814D01*
X20790602Y-59620827D01*
X20730264Y-59766498D01*
X20730261Y-59766510D01*
X20699500Y-59921153D01*
X20699500Y-60078846D01*
X20730261Y-60233489D01*
X20730264Y-60233501D01*
X20790602Y-60379172D01*
X20790609Y-60379185D01*
X20825304Y-60431109D01*
X20846182Y-60497786D01*
X20827698Y-60565167D01*
X20825304Y-60568891D01*
X20790609Y-60620814D01*
X20790602Y-60620827D01*
X20730264Y-60766498D01*
X20730261Y-60766510D01*
X20699500Y-60921153D01*
X20699500Y-61078846D01*
X20730261Y-61233489D01*
X20730264Y-61233501D01*
X20790602Y-61379172D01*
X20790609Y-61379185D01*
X20878210Y-61510288D01*
X20878213Y-61510292D01*
X20989707Y-61621786D01*
X20989711Y-61621789D01*
X21120814Y-61709390D01*
X21120827Y-61709397D01*
X21266498Y-61769735D01*
X21266503Y-61769737D01*
X21421153Y-61800499D01*
X21421156Y-61800500D01*
X21421158Y-61800500D01*
X21578844Y-61800500D01*
X21578845Y-61800499D01*
X21733497Y-61769737D01*
X21879179Y-61709394D01*
X22010289Y-61621789D01*
X22121789Y-61510289D01*
X22209394Y-61379179D01*
X22269737Y-61233497D01*
X22300500Y-61078842D01*
X22300500Y-60921158D01*
X22300500Y-60921155D01*
X22300499Y-60921153D01*
X22269738Y-60766510D01*
X22269737Y-60766503D01*
X22242398Y-60700500D01*
X22209396Y-60620825D01*
X22209394Y-60620822D01*
X22209394Y-60620821D01*
X22174694Y-60568889D01*
X22153816Y-60502215D01*
X22172300Y-60434835D01*
X22174676Y-60431136D01*
X22209394Y-60379179D01*
X22269737Y-60233497D01*
X22300500Y-60078842D01*
X22300500Y-59921158D01*
X22300500Y-59921155D01*
X22300499Y-59921153D01*
X22269737Y-59766503D01*
X22242398Y-59700500D01*
X22209396Y-59620825D01*
X22209394Y-59620822D01*
X22209394Y-59620821D01*
X22174694Y-59568889D01*
X22153816Y-59502215D01*
X22172300Y-59434835D01*
X22174676Y-59431136D01*
X22209394Y-59379179D01*
X22269737Y-59233497D01*
X22300500Y-59078842D01*
X22300500Y-58921158D01*
X22300500Y-58921155D01*
X22300499Y-58921153D01*
X22269738Y-58766510D01*
X22269737Y-58766503D01*
X22240086Y-58694918D01*
X22209396Y-58620825D01*
X22209394Y-58620822D01*
X22209394Y-58620821D01*
X22174694Y-58568889D01*
X22153816Y-58502215D01*
X22172300Y-58434835D01*
X22174676Y-58431136D01*
X22209394Y-58379179D01*
X22269737Y-58233497D01*
X22300500Y-58078842D01*
X22300500Y-57921158D01*
X22300500Y-57921155D01*
X22300499Y-57921153D01*
X22269738Y-57766510D01*
X22269737Y-57766503D01*
X22256062Y-57733489D01*
X22209397Y-57620827D01*
X22209390Y-57620814D01*
X22121790Y-57489712D01*
X22121784Y-57489705D01*
X22053232Y-57421153D01*
X23699500Y-57421153D01*
X23699500Y-57578846D01*
X23730261Y-57733489D01*
X23730264Y-57733501D01*
X23790602Y-57879172D01*
X23790609Y-57879185D01*
X23825304Y-57931109D01*
X23846182Y-57997786D01*
X23827698Y-58065167D01*
X23825304Y-58068891D01*
X23790609Y-58120814D01*
X23790602Y-58120827D01*
X23730264Y-58266498D01*
X23730261Y-58266510D01*
X23699500Y-58421153D01*
X23699500Y-58578846D01*
X23730261Y-58733489D01*
X23730264Y-58733501D01*
X23790602Y-58879172D01*
X23790609Y-58879185D01*
X23878210Y-59010288D01*
X23878213Y-59010292D01*
X23989707Y-59121786D01*
X23989711Y-59121789D01*
X24120814Y-59209390D01*
X24120827Y-59209397D01*
X24265523Y-59269331D01*
X24266503Y-59269737D01*
X24421153Y-59300499D01*
X24421156Y-59300500D01*
X24421158Y-59300500D01*
X24578844Y-59300500D01*
X24677443Y-59280887D01*
X24747035Y-59287114D01*
X24802212Y-59329977D01*
X24807167Y-59337397D01*
X24857288Y-59418656D01*
X24981344Y-59542712D01*
X25130666Y-59634814D01*
X25297203Y-59689999D01*
X25399991Y-59700500D01*
X26600008Y-59700499D01*
X26702797Y-59689999D01*
X26869334Y-59634814D01*
X27018656Y-59542712D01*
X27142712Y-59418656D01*
X27234814Y-59269334D01*
X27261955Y-59187427D01*
X27301726Y-59129984D01*
X27366242Y-59103161D01*
X27435018Y-59115476D01*
X27479977Y-59153547D01*
X27538067Y-59233501D01*
X27548034Y-59247219D01*
X27692786Y-59391971D01*
X27838431Y-59497786D01*
X27858390Y-59512287D01*
X27969483Y-59568892D01*
X28040776Y-59605218D01*
X28040778Y-59605218D01*
X28040781Y-59605220D01*
X28131856Y-59634812D01*
X28235465Y-59668477D01*
X28336557Y-59684488D01*
X28437648Y-59700500D01*
X28437649Y-59700500D01*
X28642351Y-59700500D01*
X28642352Y-59700500D01*
X28844534Y-59668477D01*
X29039219Y-59605220D01*
X29221610Y-59512287D01*
X29314590Y-59444732D01*
X29387213Y-59391971D01*
X29387215Y-59391968D01*
X29387219Y-59391966D01*
X29531966Y-59247219D01*
X29531968Y-59247215D01*
X29531971Y-59247213D01*
X29652284Y-59081614D01*
X29652285Y-59081613D01*
X29652287Y-59081610D01*
X29699516Y-58988917D01*
X29747489Y-58938123D01*
X29815310Y-58921328D01*
X29881445Y-58943865D01*
X29920483Y-58988917D01*
X29931373Y-59010288D01*
X29967715Y-59081614D01*
X30088028Y-59247213D01*
X30232786Y-59391971D01*
X30378431Y-59497786D01*
X30398390Y-59512287D01*
X30509483Y-59568892D01*
X30580776Y-59605218D01*
X30580778Y-59605218D01*
X30580781Y-59605220D01*
X30671856Y-59634812D01*
X30775465Y-59668477D01*
X30876557Y-59684488D01*
X30977648Y-59700500D01*
X30977649Y-59700500D01*
X31182351Y-59700500D01*
X31182352Y-59700500D01*
X31384534Y-59668477D01*
X31579219Y-59605220D01*
X31761610Y-59512287D01*
X31854590Y-59444732D01*
X31927213Y-59391971D01*
X31927215Y-59391968D01*
X31927219Y-59391966D01*
X32071966Y-59247219D01*
X32071968Y-59247215D01*
X32071971Y-59247213D01*
X32156938Y-59130264D01*
X32192287Y-59081610D01*
X32285220Y-58899219D01*
X32348477Y-58704534D01*
X32380500Y-58502352D01*
X32380500Y-57921153D01*
X46699500Y-57921153D01*
X46699500Y-58078846D01*
X46730261Y-58233489D01*
X46730264Y-58233501D01*
X46790602Y-58379172D01*
X46790609Y-58379185D01*
X46825304Y-58431109D01*
X46846182Y-58497786D01*
X46827698Y-58565167D01*
X46825304Y-58568891D01*
X46790609Y-58620814D01*
X46790602Y-58620827D01*
X46730264Y-58766498D01*
X46730261Y-58766510D01*
X46699500Y-58921153D01*
X46699500Y-59078846D01*
X46730261Y-59233489D01*
X46730264Y-59233501D01*
X46790602Y-59379172D01*
X46790609Y-59379185D01*
X46825304Y-59431109D01*
X46846182Y-59497786D01*
X46827698Y-59565167D01*
X46825304Y-59568891D01*
X46790609Y-59620814D01*
X46790602Y-59620827D01*
X46730264Y-59766498D01*
X46730261Y-59766510D01*
X46699500Y-59921153D01*
X46699500Y-60078846D01*
X46730261Y-60233489D01*
X46730264Y-60233501D01*
X46790602Y-60379172D01*
X46790609Y-60379185D01*
X46825304Y-60431109D01*
X46846182Y-60497786D01*
X46827698Y-60565167D01*
X46825304Y-60568891D01*
X46790609Y-60620814D01*
X46790602Y-60620827D01*
X46730264Y-60766498D01*
X46730261Y-60766510D01*
X46699500Y-60921153D01*
X46699500Y-61078846D01*
X46730261Y-61233489D01*
X46730264Y-61233501D01*
X46790602Y-61379172D01*
X46790609Y-61379185D01*
X46878210Y-61510288D01*
X46878213Y-61510292D01*
X46989707Y-61621786D01*
X46989711Y-61621789D01*
X47120814Y-61709390D01*
X47120827Y-61709397D01*
X47266498Y-61769735D01*
X47266503Y-61769737D01*
X47421153Y-61800499D01*
X47421156Y-61800500D01*
X47421158Y-61800500D01*
X47578844Y-61800500D01*
X47578845Y-61800499D01*
X47733497Y-61769737D01*
X47879179Y-61709394D01*
X48010289Y-61621789D01*
X48121789Y-61510289D01*
X48209394Y-61379179D01*
X48269737Y-61233497D01*
X48300500Y-61078842D01*
X48300500Y-60921158D01*
X48300500Y-60921155D01*
X48300499Y-60921153D01*
X48269738Y-60766510D01*
X48269737Y-60766503D01*
X48242398Y-60700500D01*
X48209396Y-60620825D01*
X48209394Y-60620822D01*
X48209394Y-60620821D01*
X48174694Y-60568889D01*
X48153816Y-60502215D01*
X48172300Y-60434835D01*
X48174676Y-60431136D01*
X48209394Y-60379179D01*
X48269737Y-60233497D01*
X48300500Y-60078842D01*
X48300500Y-59921158D01*
X48300500Y-59921155D01*
X48300499Y-59921153D01*
X48269737Y-59766503D01*
X48242398Y-59700500D01*
X48209396Y-59620825D01*
X48209394Y-59620822D01*
X48209394Y-59620821D01*
X48174694Y-59568889D01*
X48153816Y-59502215D01*
X48172300Y-59434835D01*
X48174676Y-59431136D01*
X48209394Y-59379179D01*
X48269737Y-59233497D01*
X48300500Y-59078842D01*
X48300500Y-58921158D01*
X48300500Y-58921155D01*
X48300499Y-58921153D01*
X48269738Y-58766510D01*
X48269737Y-58766503D01*
X48240086Y-58694918D01*
X48209396Y-58620825D01*
X48209394Y-58620822D01*
X48209394Y-58620821D01*
X48174694Y-58568889D01*
X48153816Y-58502215D01*
X48172300Y-58434835D01*
X48174676Y-58431136D01*
X48209394Y-58379179D01*
X48269737Y-58233497D01*
X48300500Y-58078842D01*
X48300500Y-57921158D01*
X48300500Y-57921155D01*
X48300499Y-57921153D01*
X48269738Y-57766510D01*
X48269737Y-57766503D01*
X48256062Y-57733489D01*
X48209397Y-57620827D01*
X48209390Y-57620814D01*
X48121790Y-57489712D01*
X48121784Y-57489705D01*
X48053232Y-57421153D01*
X49699500Y-57421153D01*
X49699500Y-57578846D01*
X49730261Y-57733489D01*
X49730264Y-57733501D01*
X49790602Y-57879172D01*
X49790609Y-57879185D01*
X49825304Y-57931109D01*
X49846182Y-57997786D01*
X49827698Y-58065167D01*
X49825304Y-58068891D01*
X49790609Y-58120814D01*
X49790602Y-58120827D01*
X49730264Y-58266498D01*
X49730261Y-58266510D01*
X49699500Y-58421153D01*
X49699500Y-58578846D01*
X49730261Y-58733489D01*
X49730264Y-58733501D01*
X49790602Y-58879172D01*
X49790609Y-58879185D01*
X49878210Y-59010288D01*
X49878213Y-59010292D01*
X49989707Y-59121786D01*
X49989711Y-59121789D01*
X50120814Y-59209390D01*
X50120827Y-59209397D01*
X50265523Y-59269331D01*
X50266503Y-59269737D01*
X50421153Y-59300499D01*
X50421156Y-59300500D01*
X50421158Y-59300500D01*
X50578844Y-59300500D01*
X50677443Y-59280887D01*
X50747035Y-59287114D01*
X50802212Y-59329977D01*
X50807167Y-59337397D01*
X50857288Y-59418656D01*
X50981344Y-59542712D01*
X51130666Y-59634814D01*
X51297203Y-59689999D01*
X51399991Y-59700500D01*
X52600008Y-59700499D01*
X52702797Y-59689999D01*
X52869334Y-59634814D01*
X53018656Y-59542712D01*
X53142712Y-59418656D01*
X53234814Y-59269334D01*
X53261955Y-59187427D01*
X53301726Y-59129984D01*
X53366242Y-59103161D01*
X53435018Y-59115476D01*
X53479977Y-59153547D01*
X53538067Y-59233501D01*
X53548034Y-59247219D01*
X53692786Y-59391971D01*
X53838431Y-59497786D01*
X53858390Y-59512287D01*
X53969483Y-59568892D01*
X54040776Y-59605218D01*
X54040778Y-59605218D01*
X54040781Y-59605220D01*
X54131856Y-59634812D01*
X54235465Y-59668477D01*
X54336557Y-59684488D01*
X54437648Y-59700500D01*
X54437649Y-59700500D01*
X54642351Y-59700500D01*
X54642352Y-59700500D01*
X54844534Y-59668477D01*
X55039219Y-59605220D01*
X55221610Y-59512287D01*
X55314590Y-59444732D01*
X55387213Y-59391971D01*
X55387215Y-59391968D01*
X55387219Y-59391966D01*
X55531966Y-59247219D01*
X55531968Y-59247215D01*
X55531971Y-59247213D01*
X55652284Y-59081614D01*
X55652285Y-59081613D01*
X55652287Y-59081610D01*
X55699516Y-58988917D01*
X55747489Y-58938123D01*
X55815310Y-58921328D01*
X55881445Y-58943865D01*
X55920483Y-58988917D01*
X55931373Y-59010288D01*
X55967715Y-59081614D01*
X56088028Y-59247213D01*
X56232786Y-59391971D01*
X56378431Y-59497786D01*
X56398390Y-59512287D01*
X56509483Y-59568892D01*
X56580776Y-59605218D01*
X56580778Y-59605218D01*
X56580781Y-59605220D01*
X56671856Y-59634812D01*
X56775465Y-59668477D01*
X56876557Y-59684488D01*
X56977648Y-59700500D01*
X56977649Y-59700500D01*
X57182351Y-59700500D01*
X57182352Y-59700500D01*
X57384534Y-59668477D01*
X57579219Y-59605220D01*
X57761610Y-59512287D01*
X57854590Y-59444732D01*
X57927213Y-59391971D01*
X57927215Y-59391968D01*
X57927219Y-59391966D01*
X58071966Y-59247219D01*
X58071968Y-59247215D01*
X58071971Y-59247213D01*
X58156938Y-59130264D01*
X58192287Y-59081610D01*
X58285220Y-58899219D01*
X58348477Y-58704534D01*
X58380500Y-58502352D01*
X58380500Y-57921153D01*
X72699500Y-57921153D01*
X72699500Y-58078846D01*
X72730261Y-58233489D01*
X72730264Y-58233501D01*
X72790602Y-58379172D01*
X72790609Y-58379185D01*
X72825304Y-58431109D01*
X72846182Y-58497786D01*
X72827698Y-58565167D01*
X72825304Y-58568891D01*
X72790609Y-58620814D01*
X72790602Y-58620827D01*
X72730264Y-58766498D01*
X72730261Y-58766510D01*
X72699500Y-58921153D01*
X72699500Y-59078846D01*
X72730261Y-59233489D01*
X72730264Y-59233501D01*
X72790602Y-59379172D01*
X72790609Y-59379185D01*
X72825304Y-59431109D01*
X72846182Y-59497786D01*
X72827698Y-59565167D01*
X72825304Y-59568891D01*
X72790609Y-59620814D01*
X72790602Y-59620827D01*
X72730264Y-59766498D01*
X72730261Y-59766510D01*
X72699500Y-59921153D01*
X72699500Y-60078846D01*
X72730261Y-60233489D01*
X72730264Y-60233501D01*
X72790602Y-60379172D01*
X72790609Y-60379185D01*
X72825304Y-60431109D01*
X72846182Y-60497786D01*
X72827698Y-60565167D01*
X72825304Y-60568891D01*
X72790609Y-60620814D01*
X72790602Y-60620827D01*
X72730264Y-60766498D01*
X72730261Y-60766510D01*
X72699500Y-60921153D01*
X72699500Y-61078846D01*
X72730261Y-61233489D01*
X72730264Y-61233501D01*
X72790602Y-61379172D01*
X72790609Y-61379185D01*
X72878210Y-61510288D01*
X72878213Y-61510292D01*
X72989707Y-61621786D01*
X72989711Y-61621789D01*
X73120814Y-61709390D01*
X73120827Y-61709397D01*
X73266498Y-61769735D01*
X73266503Y-61769737D01*
X73421153Y-61800499D01*
X73421156Y-61800500D01*
X73421158Y-61800500D01*
X73578844Y-61800500D01*
X73578845Y-61800499D01*
X73733497Y-61769737D01*
X73879179Y-61709394D01*
X74010289Y-61621789D01*
X74121789Y-61510289D01*
X74209394Y-61379179D01*
X74269737Y-61233497D01*
X74300500Y-61078842D01*
X74300500Y-60921158D01*
X74300500Y-60921155D01*
X74300499Y-60921153D01*
X74269738Y-60766510D01*
X74269737Y-60766503D01*
X74242398Y-60700500D01*
X74209396Y-60620825D01*
X74209394Y-60620822D01*
X74209394Y-60620821D01*
X74174694Y-60568889D01*
X74153816Y-60502215D01*
X74172300Y-60434835D01*
X74174676Y-60431136D01*
X74209394Y-60379179D01*
X74269737Y-60233497D01*
X74300500Y-60078842D01*
X74300500Y-59921158D01*
X74300500Y-59921155D01*
X74300499Y-59921153D01*
X74280608Y-59821153D01*
X101499500Y-59821153D01*
X101499500Y-59978846D01*
X101530261Y-60133489D01*
X101530264Y-60133501D01*
X101590602Y-60279172D01*
X101590609Y-60279185D01*
X101678210Y-60410288D01*
X101678213Y-60410292D01*
X101789707Y-60521786D01*
X101789711Y-60521789D01*
X101920814Y-60609390D01*
X101920827Y-60609397D01*
X102066498Y-60669735D01*
X102066503Y-60669737D01*
X102221153Y-60700499D01*
X102221156Y-60700500D01*
X102221158Y-60700500D01*
X102378844Y-60700500D01*
X102378845Y-60700499D01*
X102533497Y-60669737D01*
X102651592Y-60620821D01*
X102679172Y-60609397D01*
X102679172Y-60609396D01*
X102679179Y-60609394D01*
X102810289Y-60521789D01*
X102921789Y-60410289D01*
X103009394Y-60279179D01*
X103069737Y-60133497D01*
X103100500Y-59978842D01*
X103100500Y-59821158D01*
X103100500Y-59821155D01*
X103100499Y-59821153D01*
X103076499Y-59700498D01*
X103069737Y-59666503D01*
X103050817Y-59620825D01*
X103009397Y-59520827D01*
X103009390Y-59520814D01*
X102921789Y-59389711D01*
X102921786Y-59389707D01*
X102810292Y-59278213D01*
X102810288Y-59278210D01*
X102679185Y-59190609D01*
X102679172Y-59190602D01*
X102533501Y-59130264D01*
X102533489Y-59130261D01*
X102378845Y-59099500D01*
X102378842Y-59099500D01*
X102221158Y-59099500D01*
X102221155Y-59099500D01*
X102066510Y-59130261D01*
X102066498Y-59130264D01*
X101920827Y-59190602D01*
X101920814Y-59190609D01*
X101789711Y-59278210D01*
X101789707Y-59278213D01*
X101678213Y-59389707D01*
X101678210Y-59389711D01*
X101590609Y-59520814D01*
X101590602Y-59520827D01*
X101530264Y-59666498D01*
X101530261Y-59666510D01*
X101499500Y-59821153D01*
X74280608Y-59821153D01*
X74269737Y-59766503D01*
X74242398Y-59700500D01*
X74209396Y-59620825D01*
X74209394Y-59620822D01*
X74209394Y-59620821D01*
X74174694Y-59568889D01*
X74153816Y-59502215D01*
X74172300Y-59434835D01*
X74174676Y-59431136D01*
X74209394Y-59379179D01*
X74269737Y-59233497D01*
X74300500Y-59078842D01*
X74300500Y-58921158D01*
X74300500Y-58921155D01*
X74300499Y-58921153D01*
X74269738Y-58766510D01*
X74269737Y-58766503D01*
X74240086Y-58694918D01*
X74209396Y-58620825D01*
X74209394Y-58620822D01*
X74209394Y-58620821D01*
X74174694Y-58568889D01*
X74153816Y-58502215D01*
X74172300Y-58434835D01*
X74174676Y-58431136D01*
X74209394Y-58379179D01*
X74269737Y-58233497D01*
X74300500Y-58078842D01*
X74300500Y-57921158D01*
X74300500Y-57921155D01*
X74300499Y-57921153D01*
X74269738Y-57766510D01*
X74269737Y-57766503D01*
X74256062Y-57733489D01*
X74209397Y-57620827D01*
X74209390Y-57620814D01*
X74121790Y-57489712D01*
X74121784Y-57489705D01*
X74053232Y-57421153D01*
X75699500Y-57421153D01*
X75699500Y-57578846D01*
X75730261Y-57733489D01*
X75730264Y-57733501D01*
X75790602Y-57879172D01*
X75790609Y-57879185D01*
X75825304Y-57931109D01*
X75846182Y-57997786D01*
X75827698Y-58065167D01*
X75825304Y-58068891D01*
X75790609Y-58120814D01*
X75790602Y-58120827D01*
X75730264Y-58266498D01*
X75730261Y-58266510D01*
X75699500Y-58421153D01*
X75699500Y-58578846D01*
X75730261Y-58733489D01*
X75730264Y-58733501D01*
X75790602Y-58879172D01*
X75790609Y-58879185D01*
X75878210Y-59010288D01*
X75878213Y-59010292D01*
X75989707Y-59121786D01*
X75989711Y-59121789D01*
X76120814Y-59209390D01*
X76120827Y-59209397D01*
X76265523Y-59269331D01*
X76266503Y-59269737D01*
X76421153Y-59300499D01*
X76421156Y-59300500D01*
X76421158Y-59300500D01*
X76578844Y-59300500D01*
X76677443Y-59280887D01*
X76747035Y-59287114D01*
X76802212Y-59329977D01*
X76807167Y-59337397D01*
X76857288Y-59418656D01*
X76981344Y-59542712D01*
X77130666Y-59634814D01*
X77297203Y-59689999D01*
X77399991Y-59700500D01*
X78600008Y-59700499D01*
X78702797Y-59689999D01*
X78869334Y-59634814D01*
X79018656Y-59542712D01*
X79142712Y-59418656D01*
X79234814Y-59269334D01*
X79261955Y-59187427D01*
X79301726Y-59129984D01*
X79366242Y-59103161D01*
X79435018Y-59115476D01*
X79479977Y-59153547D01*
X79538067Y-59233501D01*
X79548034Y-59247219D01*
X79692786Y-59391971D01*
X79838431Y-59497786D01*
X79858390Y-59512287D01*
X79969483Y-59568892D01*
X80040776Y-59605218D01*
X80040778Y-59605218D01*
X80040781Y-59605220D01*
X80131856Y-59634812D01*
X80235465Y-59668477D01*
X80336557Y-59684488D01*
X80437648Y-59700500D01*
X80437649Y-59700500D01*
X80642351Y-59700500D01*
X80642352Y-59700500D01*
X80844534Y-59668477D01*
X81039219Y-59605220D01*
X81221610Y-59512287D01*
X81314590Y-59444732D01*
X81387213Y-59391971D01*
X81387215Y-59391968D01*
X81387219Y-59391966D01*
X81531966Y-59247219D01*
X81531968Y-59247215D01*
X81531971Y-59247213D01*
X81652284Y-59081614D01*
X81652285Y-59081613D01*
X81652287Y-59081610D01*
X81699516Y-58988917D01*
X81747489Y-58938123D01*
X81815310Y-58921328D01*
X81881445Y-58943865D01*
X81920483Y-58988917D01*
X81931373Y-59010288D01*
X81967715Y-59081614D01*
X82088028Y-59247213D01*
X82232786Y-59391971D01*
X82378431Y-59497786D01*
X82398390Y-59512287D01*
X82509483Y-59568892D01*
X82580776Y-59605218D01*
X82580778Y-59605218D01*
X82580781Y-59605220D01*
X82671856Y-59634812D01*
X82775465Y-59668477D01*
X82876557Y-59684488D01*
X82977648Y-59700500D01*
X82977649Y-59700500D01*
X83182351Y-59700500D01*
X83182352Y-59700500D01*
X83384534Y-59668477D01*
X83579219Y-59605220D01*
X83761610Y-59512287D01*
X83854590Y-59444732D01*
X83927213Y-59391971D01*
X83927215Y-59391968D01*
X83927219Y-59391966D01*
X84071966Y-59247219D01*
X84071968Y-59247215D01*
X84071971Y-59247213D01*
X84156938Y-59130264D01*
X84192287Y-59081610D01*
X84285220Y-58899219D01*
X84348477Y-58704534D01*
X84380500Y-58502352D01*
X84380500Y-57497648D01*
X84348477Y-57295466D01*
X84339066Y-57266503D01*
X84285218Y-57100776D01*
X84228625Y-56989707D01*
X84192287Y-56918390D01*
X84163097Y-56878213D01*
X84071971Y-56752786D01*
X83927213Y-56608028D01*
X83761613Y-56487715D01*
X83761612Y-56487714D01*
X83761610Y-56487713D01*
X83701898Y-56457288D01*
X83579223Y-56394781D01*
X83384534Y-56331522D01*
X83209995Y-56303878D01*
X83182352Y-56299500D01*
X82977648Y-56299500D01*
X82953329Y-56303351D01*
X82775465Y-56331522D01*
X82580776Y-56394781D01*
X82398386Y-56487715D01*
X82232786Y-56608028D01*
X82088028Y-56752786D01*
X81967715Y-56918386D01*
X81920485Y-57011080D01*
X81872510Y-57061876D01*
X81804689Y-57078671D01*
X81738554Y-57056134D01*
X81699515Y-57011080D01*
X81688625Y-56989707D01*
X81652287Y-56918390D01*
X81623097Y-56878213D01*
X81531971Y-56752786D01*
X81387213Y-56608028D01*
X81221613Y-56487715D01*
X81221612Y-56487714D01*
X81221610Y-56487713D01*
X81161898Y-56457288D01*
X81039223Y-56394781D01*
X80844534Y-56331522D01*
X80669995Y-56303878D01*
X80642352Y-56299500D01*
X80437648Y-56299500D01*
X80413329Y-56303351D01*
X80235465Y-56331522D01*
X80040776Y-56394781D01*
X79858386Y-56487715D01*
X79692786Y-56608028D01*
X79548032Y-56752782D01*
X79548028Y-56752787D01*
X79479978Y-56846451D01*
X79424648Y-56889117D01*
X79355035Y-56895096D01*
X79293240Y-56862490D01*
X79261954Y-56812570D01*
X79254676Y-56790606D01*
X79234814Y-56730666D01*
X79142712Y-56581344D01*
X79018656Y-56457288D01*
X78869334Y-56365186D01*
X78702797Y-56310001D01*
X78702795Y-56310000D01*
X78600010Y-56299500D01*
X77399998Y-56299500D01*
X77399981Y-56299501D01*
X77297203Y-56310000D01*
X77297200Y-56310001D01*
X77130668Y-56365185D01*
X77130663Y-56365187D01*
X76981342Y-56457289D01*
X76857288Y-56581343D01*
X76857285Y-56581347D01*
X76807173Y-56662592D01*
X76755225Y-56709317D01*
X76686263Y-56720538D01*
X76677444Y-56719112D01*
X76578846Y-56699500D01*
X76578842Y-56699500D01*
X76421158Y-56699500D01*
X76421155Y-56699500D01*
X76266510Y-56730261D01*
X76266498Y-56730264D01*
X76120827Y-56790602D01*
X76120814Y-56790609D01*
X75989711Y-56878210D01*
X75989707Y-56878213D01*
X75878213Y-56989707D01*
X75878210Y-56989711D01*
X75790609Y-57120814D01*
X75790602Y-57120827D01*
X75730264Y-57266498D01*
X75730261Y-57266510D01*
X75699500Y-57421153D01*
X74053232Y-57421153D01*
X74010292Y-57378213D01*
X74010288Y-57378210D01*
X73879185Y-57290609D01*
X73879172Y-57290602D01*
X73733501Y-57230264D01*
X73733489Y-57230261D01*
X73578845Y-57199500D01*
X73578842Y-57199500D01*
X73421158Y-57199500D01*
X73421155Y-57199500D01*
X73266510Y-57230261D01*
X73266498Y-57230264D01*
X73120827Y-57290602D01*
X73120814Y-57290609D01*
X72989711Y-57378210D01*
X72989707Y-57378213D01*
X72878213Y-57489707D01*
X72878210Y-57489711D01*
X72790609Y-57620814D01*
X72790602Y-57620827D01*
X72730264Y-57766498D01*
X72730261Y-57766510D01*
X72699500Y-57921153D01*
X58380500Y-57921153D01*
X58380500Y-57497648D01*
X58348477Y-57295466D01*
X58339066Y-57266503D01*
X58285218Y-57100776D01*
X58228625Y-56989707D01*
X58192287Y-56918390D01*
X58163097Y-56878213D01*
X58071971Y-56752786D01*
X57927213Y-56608028D01*
X57761613Y-56487715D01*
X57761612Y-56487714D01*
X57761610Y-56487713D01*
X57701898Y-56457288D01*
X57579223Y-56394781D01*
X57384534Y-56331522D01*
X57209995Y-56303878D01*
X57182352Y-56299500D01*
X56977648Y-56299500D01*
X56953329Y-56303351D01*
X56775465Y-56331522D01*
X56580776Y-56394781D01*
X56398386Y-56487715D01*
X56232786Y-56608028D01*
X56088028Y-56752786D01*
X55967715Y-56918386D01*
X55920485Y-57011080D01*
X55872510Y-57061876D01*
X55804689Y-57078671D01*
X55738554Y-57056134D01*
X55699515Y-57011080D01*
X55688625Y-56989707D01*
X55652287Y-56918390D01*
X55623097Y-56878213D01*
X55531971Y-56752786D01*
X55387213Y-56608028D01*
X55221613Y-56487715D01*
X55221612Y-56487714D01*
X55221610Y-56487713D01*
X55161898Y-56457288D01*
X55039223Y-56394781D01*
X54844534Y-56331522D01*
X54669995Y-56303878D01*
X54642352Y-56299500D01*
X54437648Y-56299500D01*
X54413329Y-56303351D01*
X54235465Y-56331522D01*
X54040776Y-56394781D01*
X53858386Y-56487715D01*
X53692786Y-56608028D01*
X53548032Y-56752782D01*
X53548028Y-56752787D01*
X53479978Y-56846451D01*
X53424648Y-56889117D01*
X53355035Y-56895096D01*
X53293240Y-56862490D01*
X53261954Y-56812570D01*
X53254676Y-56790606D01*
X53234814Y-56730666D01*
X53142712Y-56581344D01*
X53018656Y-56457288D01*
X52869334Y-56365186D01*
X52702797Y-56310001D01*
X52702795Y-56310000D01*
X52600010Y-56299500D01*
X51399998Y-56299500D01*
X51399981Y-56299501D01*
X51297203Y-56310000D01*
X51297200Y-56310001D01*
X51130668Y-56365185D01*
X51130663Y-56365187D01*
X50981342Y-56457289D01*
X50857288Y-56581343D01*
X50857285Y-56581347D01*
X50807173Y-56662592D01*
X50755225Y-56709317D01*
X50686263Y-56720538D01*
X50677444Y-56719112D01*
X50578846Y-56699500D01*
X50578842Y-56699500D01*
X50421158Y-56699500D01*
X50421155Y-56699500D01*
X50266510Y-56730261D01*
X50266498Y-56730264D01*
X50120827Y-56790602D01*
X50120814Y-56790609D01*
X49989711Y-56878210D01*
X49989707Y-56878213D01*
X49878213Y-56989707D01*
X49878210Y-56989711D01*
X49790609Y-57120814D01*
X49790602Y-57120827D01*
X49730264Y-57266498D01*
X49730261Y-57266510D01*
X49699500Y-57421153D01*
X48053232Y-57421153D01*
X48010292Y-57378213D01*
X48010288Y-57378210D01*
X47879185Y-57290609D01*
X47879172Y-57290602D01*
X47733501Y-57230264D01*
X47733489Y-57230261D01*
X47578845Y-57199500D01*
X47578842Y-57199500D01*
X47421158Y-57199500D01*
X47421155Y-57199500D01*
X47266510Y-57230261D01*
X47266498Y-57230264D01*
X47120827Y-57290602D01*
X47120814Y-57290609D01*
X46989711Y-57378210D01*
X46989707Y-57378213D01*
X46878213Y-57489707D01*
X46878210Y-57489711D01*
X46790609Y-57620814D01*
X46790602Y-57620827D01*
X46730264Y-57766498D01*
X46730261Y-57766510D01*
X46699500Y-57921153D01*
X32380500Y-57921153D01*
X32380500Y-57497648D01*
X32348477Y-57295466D01*
X32339066Y-57266503D01*
X32285218Y-57100776D01*
X32228625Y-56989707D01*
X32192287Y-56918390D01*
X32163097Y-56878213D01*
X32071971Y-56752786D01*
X31927213Y-56608028D01*
X31761613Y-56487715D01*
X31761612Y-56487714D01*
X31761610Y-56487713D01*
X31701898Y-56457288D01*
X31579223Y-56394781D01*
X31384534Y-56331522D01*
X31209995Y-56303878D01*
X31182352Y-56299500D01*
X30977648Y-56299500D01*
X30953329Y-56303351D01*
X30775465Y-56331522D01*
X30580776Y-56394781D01*
X30398386Y-56487715D01*
X30232786Y-56608028D01*
X30088028Y-56752786D01*
X29967715Y-56918386D01*
X29920485Y-57011080D01*
X29872510Y-57061876D01*
X29804689Y-57078671D01*
X29738554Y-57056134D01*
X29699515Y-57011080D01*
X29688625Y-56989707D01*
X29652287Y-56918390D01*
X29623097Y-56878213D01*
X29531971Y-56752786D01*
X29387213Y-56608028D01*
X29221613Y-56487715D01*
X29221612Y-56487714D01*
X29221610Y-56487713D01*
X29161898Y-56457288D01*
X29039223Y-56394781D01*
X28844534Y-56331522D01*
X28669995Y-56303878D01*
X28642352Y-56299500D01*
X28437648Y-56299500D01*
X28413329Y-56303351D01*
X28235465Y-56331522D01*
X28040776Y-56394781D01*
X27858386Y-56487715D01*
X27692786Y-56608028D01*
X27548032Y-56752782D01*
X27548028Y-56752787D01*
X27479978Y-56846451D01*
X27424648Y-56889117D01*
X27355035Y-56895096D01*
X27293240Y-56862490D01*
X27261954Y-56812570D01*
X27254676Y-56790606D01*
X27234814Y-56730666D01*
X27142712Y-56581344D01*
X27018656Y-56457288D01*
X26869334Y-56365186D01*
X26702797Y-56310001D01*
X26702795Y-56310000D01*
X26600010Y-56299500D01*
X25399998Y-56299500D01*
X25399981Y-56299501D01*
X25297203Y-56310000D01*
X25297200Y-56310001D01*
X25130668Y-56365185D01*
X25130663Y-56365187D01*
X24981342Y-56457289D01*
X24857288Y-56581343D01*
X24857285Y-56581347D01*
X24807173Y-56662592D01*
X24755225Y-56709317D01*
X24686263Y-56720538D01*
X24677444Y-56719112D01*
X24578846Y-56699500D01*
X24578842Y-56699500D01*
X24421158Y-56699500D01*
X24421155Y-56699500D01*
X24266510Y-56730261D01*
X24266498Y-56730264D01*
X24120827Y-56790602D01*
X24120814Y-56790609D01*
X23989711Y-56878210D01*
X23989707Y-56878213D01*
X23878213Y-56989707D01*
X23878210Y-56989711D01*
X23790609Y-57120814D01*
X23790602Y-57120827D01*
X23730264Y-57266498D01*
X23730261Y-57266510D01*
X23699500Y-57421153D01*
X22053232Y-57421153D01*
X22010292Y-57378213D01*
X22010288Y-57378210D01*
X21879185Y-57290609D01*
X21879172Y-57290602D01*
X21733501Y-57230264D01*
X21733489Y-57230261D01*
X21578845Y-57199500D01*
X21578842Y-57199500D01*
X21421158Y-57199500D01*
X21421155Y-57199500D01*
X21266510Y-57230261D01*
X21266498Y-57230264D01*
X21120827Y-57290602D01*
X21120814Y-57290609D01*
X20989711Y-57378210D01*
X20989707Y-57378213D01*
X20878213Y-57489707D01*
X20878210Y-57489711D01*
X20790609Y-57620814D01*
X20790602Y-57620827D01*
X20730264Y-57766498D01*
X20730261Y-57766510D01*
X20699500Y-57921153D01*
X20250500Y-57921153D01*
X20250500Y-49877648D01*
X24699500Y-49877648D01*
X24699500Y-50882351D01*
X24731522Y-51084534D01*
X24794781Y-51279223D01*
X24887715Y-51461613D01*
X25008028Y-51627213D01*
X25152786Y-51771971D01*
X25307749Y-51884556D01*
X25318390Y-51892287D01*
X25434607Y-51951503D01*
X25500776Y-51985218D01*
X25500778Y-51985218D01*
X25500781Y-51985220D01*
X25605137Y-52019127D01*
X25695465Y-52048477D01*
X25796557Y-52064488D01*
X25897648Y-52080500D01*
X25897649Y-52080500D01*
X26102351Y-52080500D01*
X26102352Y-52080500D01*
X26304534Y-52048477D01*
X26499219Y-51985220D01*
X26681610Y-51892287D01*
X26774590Y-51824732D01*
X26847213Y-51771971D01*
X26847215Y-51771968D01*
X26847219Y-51771966D01*
X26991966Y-51627219D01*
X26991968Y-51627215D01*
X26991971Y-51627213D01*
X27112284Y-51461614D01*
X27112285Y-51461613D01*
X27112287Y-51461610D01*
X27159516Y-51368917D01*
X27207489Y-51318123D01*
X27275310Y-51301328D01*
X27341445Y-51323865D01*
X27380485Y-51368919D01*
X27427715Y-51461614D01*
X27548028Y-51627213D01*
X27692786Y-51771971D01*
X27847749Y-51884556D01*
X27858390Y-51892287D01*
X27974607Y-51951503D01*
X28040776Y-51985218D01*
X28040778Y-51985218D01*
X28040781Y-51985220D01*
X28145137Y-52019127D01*
X28235465Y-52048477D01*
X28336557Y-52064488D01*
X28437648Y-52080500D01*
X28437649Y-52080500D01*
X28642351Y-52080500D01*
X28642352Y-52080500D01*
X28844534Y-52048477D01*
X29039219Y-51985220D01*
X29221610Y-51892287D01*
X29314590Y-51824732D01*
X29387213Y-51771971D01*
X29387215Y-51771968D01*
X29387219Y-51771966D01*
X29531966Y-51627219D01*
X29531968Y-51627215D01*
X29531971Y-51627213D01*
X29652284Y-51461614D01*
X29652285Y-51461613D01*
X29652287Y-51461610D01*
X29699516Y-51368917D01*
X29747489Y-51318123D01*
X29815310Y-51301328D01*
X29881445Y-51323865D01*
X29920485Y-51368919D01*
X29967715Y-51461614D01*
X30088028Y-51627213D01*
X30232786Y-51771971D01*
X30387749Y-51884556D01*
X30398390Y-51892287D01*
X30514607Y-51951503D01*
X30580776Y-51985218D01*
X30580778Y-51985218D01*
X30580781Y-51985220D01*
X30685137Y-52019127D01*
X30775465Y-52048477D01*
X30876557Y-52064488D01*
X30977648Y-52080500D01*
X30977649Y-52080500D01*
X31182351Y-52080500D01*
X31182352Y-52080500D01*
X31384534Y-52048477D01*
X31579219Y-51985220D01*
X31761610Y-51892287D01*
X31854590Y-51824732D01*
X31927213Y-51771971D01*
X31927215Y-51771968D01*
X31927219Y-51771966D01*
X32071966Y-51627219D01*
X32071968Y-51627215D01*
X32071971Y-51627213D01*
X32192284Y-51461614D01*
X32192285Y-51461613D01*
X32192287Y-51461610D01*
X32239516Y-51368917D01*
X32287489Y-51318123D01*
X32355310Y-51301328D01*
X32421445Y-51323865D01*
X32460485Y-51368919D01*
X32507715Y-51461614D01*
X32628028Y-51627213D01*
X32772786Y-51771971D01*
X32927749Y-51884556D01*
X32938390Y-51892287D01*
X33054607Y-51951503D01*
X33120776Y-51985218D01*
X33120778Y-51985218D01*
X33120781Y-51985220D01*
X33225137Y-52019127D01*
X33315465Y-52048477D01*
X33416557Y-52064488D01*
X33517648Y-52080500D01*
X33517649Y-52080500D01*
X33722351Y-52080500D01*
X33722352Y-52080500D01*
X33924534Y-52048477D01*
X34119219Y-51985220D01*
X34301610Y-51892287D01*
X34394590Y-51824732D01*
X34467213Y-51771971D01*
X34467215Y-51771968D01*
X34467219Y-51771966D01*
X34611966Y-51627219D01*
X34611968Y-51627215D01*
X34611971Y-51627213D01*
X34664732Y-51554590D01*
X34732287Y-51461610D01*
X34825220Y-51279219D01*
X34888477Y-51084534D01*
X34920500Y-50882352D01*
X34920500Y-49877648D01*
X50699500Y-49877648D01*
X50699500Y-50882351D01*
X50731522Y-51084534D01*
X50794781Y-51279223D01*
X50887715Y-51461613D01*
X51008028Y-51627213D01*
X51152786Y-51771971D01*
X51307749Y-51884556D01*
X51318390Y-51892287D01*
X51434607Y-51951503D01*
X51500776Y-51985218D01*
X51500778Y-51985218D01*
X51500781Y-51985220D01*
X51605137Y-52019127D01*
X51695465Y-52048477D01*
X51796557Y-52064488D01*
X51897648Y-52080500D01*
X51897649Y-52080500D01*
X52102351Y-52080500D01*
X52102352Y-52080500D01*
X52304534Y-52048477D01*
X52499219Y-51985220D01*
X52681610Y-51892287D01*
X52774590Y-51824732D01*
X52847213Y-51771971D01*
X52847215Y-51771968D01*
X52847219Y-51771966D01*
X52991966Y-51627219D01*
X52991968Y-51627215D01*
X52991971Y-51627213D01*
X53112284Y-51461614D01*
X53112285Y-51461613D01*
X53112287Y-51461610D01*
X53159516Y-51368917D01*
X53207489Y-51318123D01*
X53275310Y-51301328D01*
X53341445Y-51323865D01*
X53380485Y-51368919D01*
X53427715Y-51461614D01*
X53548028Y-51627213D01*
X53692786Y-51771971D01*
X53847749Y-51884556D01*
X53858390Y-51892287D01*
X53974607Y-51951503D01*
X54040776Y-51985218D01*
X54040778Y-51985218D01*
X54040781Y-51985220D01*
X54145137Y-52019127D01*
X54235465Y-52048477D01*
X54336557Y-52064488D01*
X54437648Y-52080500D01*
X54437649Y-52080500D01*
X54642351Y-52080500D01*
X54642352Y-52080500D01*
X54844534Y-52048477D01*
X55039219Y-51985220D01*
X55221610Y-51892287D01*
X55314590Y-51824732D01*
X55387213Y-51771971D01*
X55387215Y-51771968D01*
X55387219Y-51771966D01*
X55531966Y-51627219D01*
X55531968Y-51627215D01*
X55531971Y-51627213D01*
X55652284Y-51461614D01*
X55652285Y-51461613D01*
X55652287Y-51461610D01*
X55699516Y-51368917D01*
X55747489Y-51318123D01*
X55815310Y-51301328D01*
X55881445Y-51323865D01*
X55920485Y-51368919D01*
X55967715Y-51461614D01*
X56088028Y-51627213D01*
X56232786Y-51771971D01*
X56387749Y-51884556D01*
X56398390Y-51892287D01*
X56514607Y-51951503D01*
X56580776Y-51985218D01*
X56580778Y-51985218D01*
X56580781Y-51985220D01*
X56685137Y-52019127D01*
X56775465Y-52048477D01*
X56876557Y-52064488D01*
X56977648Y-52080500D01*
X56977649Y-52080500D01*
X57182351Y-52080500D01*
X57182352Y-52080500D01*
X57384534Y-52048477D01*
X57579219Y-51985220D01*
X57761610Y-51892287D01*
X57854590Y-51824732D01*
X57927213Y-51771971D01*
X57927215Y-51771968D01*
X57927219Y-51771966D01*
X58071966Y-51627219D01*
X58071968Y-51627215D01*
X58071971Y-51627213D01*
X58192284Y-51461614D01*
X58192285Y-51461613D01*
X58192287Y-51461610D01*
X58239516Y-51368917D01*
X58287489Y-51318123D01*
X58355310Y-51301328D01*
X58421445Y-51323865D01*
X58460485Y-51368919D01*
X58507715Y-51461614D01*
X58628028Y-51627213D01*
X58772786Y-51771971D01*
X58927749Y-51884556D01*
X58938390Y-51892287D01*
X59054607Y-51951503D01*
X59120776Y-51985218D01*
X59120778Y-51985218D01*
X59120781Y-51985220D01*
X59225137Y-52019127D01*
X59315465Y-52048477D01*
X59416557Y-52064488D01*
X59517648Y-52080500D01*
X59517649Y-52080500D01*
X59722351Y-52080500D01*
X59722352Y-52080500D01*
X59924534Y-52048477D01*
X60119219Y-51985220D01*
X60301610Y-51892287D01*
X60394590Y-51824732D01*
X60467213Y-51771971D01*
X60467215Y-51771968D01*
X60467219Y-51771966D01*
X60611966Y-51627219D01*
X60611968Y-51627215D01*
X60611971Y-51627213D01*
X60664732Y-51554590D01*
X60732287Y-51461610D01*
X60825220Y-51279219D01*
X60888477Y-51084534D01*
X60920500Y-50882352D01*
X60920500Y-49877648D01*
X76699500Y-49877648D01*
X76699500Y-50882351D01*
X76731522Y-51084534D01*
X76794781Y-51279223D01*
X76887715Y-51461613D01*
X77008028Y-51627213D01*
X77152786Y-51771971D01*
X77307749Y-51884556D01*
X77318390Y-51892287D01*
X77434607Y-51951503D01*
X77500776Y-51985218D01*
X77500778Y-51985218D01*
X77500781Y-51985220D01*
X77605137Y-52019127D01*
X77695465Y-52048477D01*
X77796557Y-52064488D01*
X77897648Y-52080500D01*
X77897649Y-52080500D01*
X78102351Y-52080500D01*
X78102352Y-52080500D01*
X78304534Y-52048477D01*
X78499219Y-51985220D01*
X78681610Y-51892287D01*
X78774590Y-51824732D01*
X78847213Y-51771971D01*
X78847215Y-51771968D01*
X78847219Y-51771966D01*
X78991966Y-51627219D01*
X78991968Y-51627215D01*
X78991971Y-51627213D01*
X79112284Y-51461614D01*
X79112285Y-51461613D01*
X79112287Y-51461610D01*
X79159516Y-51368917D01*
X79207489Y-51318123D01*
X79275310Y-51301328D01*
X79341445Y-51323865D01*
X79380485Y-51368919D01*
X79427715Y-51461614D01*
X79548028Y-51627213D01*
X79692786Y-51771971D01*
X79847749Y-51884556D01*
X79858390Y-51892287D01*
X79974607Y-51951503D01*
X80040776Y-51985218D01*
X80040778Y-51985218D01*
X80040781Y-51985220D01*
X80145137Y-52019127D01*
X80235465Y-52048477D01*
X80336557Y-52064488D01*
X80437648Y-52080500D01*
X80437649Y-52080500D01*
X80642351Y-52080500D01*
X80642352Y-52080500D01*
X80844534Y-52048477D01*
X81039219Y-51985220D01*
X81221610Y-51892287D01*
X81314590Y-51824732D01*
X81387213Y-51771971D01*
X81387215Y-51771968D01*
X81387219Y-51771966D01*
X81531966Y-51627219D01*
X81531968Y-51627215D01*
X81531971Y-51627213D01*
X81652284Y-51461614D01*
X81652285Y-51461613D01*
X81652287Y-51461610D01*
X81699516Y-51368917D01*
X81747489Y-51318123D01*
X81815310Y-51301328D01*
X81881445Y-51323865D01*
X81920485Y-51368919D01*
X81967715Y-51461614D01*
X82088028Y-51627213D01*
X82232786Y-51771971D01*
X82387749Y-51884556D01*
X82398390Y-51892287D01*
X82514607Y-51951503D01*
X82580776Y-51985218D01*
X82580778Y-51985218D01*
X82580781Y-51985220D01*
X82685137Y-52019127D01*
X82775465Y-52048477D01*
X82876557Y-52064488D01*
X82977648Y-52080500D01*
X82977649Y-52080500D01*
X83182351Y-52080500D01*
X83182352Y-52080500D01*
X83384534Y-52048477D01*
X83579219Y-51985220D01*
X83761610Y-51892287D01*
X83854590Y-51824732D01*
X83927213Y-51771971D01*
X83927215Y-51771968D01*
X83927219Y-51771966D01*
X84071966Y-51627219D01*
X84071968Y-51627215D01*
X84071971Y-51627213D01*
X84192284Y-51461614D01*
X84192285Y-51461613D01*
X84192287Y-51461610D01*
X84239516Y-51368917D01*
X84287489Y-51318123D01*
X84355310Y-51301328D01*
X84421445Y-51323865D01*
X84460485Y-51368919D01*
X84507715Y-51461614D01*
X84628028Y-51627213D01*
X84772786Y-51771971D01*
X84927749Y-51884556D01*
X84938390Y-51892287D01*
X85054607Y-51951503D01*
X85120776Y-51985218D01*
X85120778Y-51985218D01*
X85120781Y-51985220D01*
X85225137Y-52019127D01*
X85315465Y-52048477D01*
X85416557Y-52064488D01*
X85517648Y-52080500D01*
X85517649Y-52080500D01*
X85722351Y-52080500D01*
X85722352Y-52080500D01*
X85924534Y-52048477D01*
X86119219Y-51985220D01*
X86301610Y-51892287D01*
X86394590Y-51824732D01*
X86467213Y-51771971D01*
X86467215Y-51771968D01*
X86467219Y-51771966D01*
X86611966Y-51627219D01*
X86611968Y-51627215D01*
X86611971Y-51627213D01*
X86664732Y-51554590D01*
X86732287Y-51461610D01*
X86825220Y-51279219D01*
X86888477Y-51084534D01*
X86920500Y-50882352D01*
X86920500Y-49877648D01*
X86888477Y-49675466D01*
X86825220Y-49480781D01*
X86825218Y-49480778D01*
X86825218Y-49480776D01*
X86779515Y-49391080D01*
X86732287Y-49298390D01*
X86724556Y-49287749D01*
X86611971Y-49132786D01*
X86467213Y-48988028D01*
X86301613Y-48867715D01*
X86301612Y-48867714D01*
X86301610Y-48867713D01*
X86244653Y-48838691D01*
X86119223Y-48774781D01*
X85924534Y-48711522D01*
X85749995Y-48683878D01*
X85722352Y-48679500D01*
X85517648Y-48679500D01*
X85493329Y-48683351D01*
X85315465Y-48711522D01*
X85120776Y-48774781D01*
X84938386Y-48867715D01*
X84772786Y-48988028D01*
X84628028Y-49132786D01*
X84507715Y-49298386D01*
X84460485Y-49391080D01*
X84412510Y-49441876D01*
X84344689Y-49458671D01*
X84278554Y-49436134D01*
X84239515Y-49391080D01*
X84238883Y-49389840D01*
X84192287Y-49298390D01*
X84184556Y-49287749D01*
X84071971Y-49132786D01*
X83927213Y-48988028D01*
X83761613Y-48867715D01*
X83761612Y-48867714D01*
X83761610Y-48867713D01*
X83704653Y-48838691D01*
X83579223Y-48774781D01*
X83384534Y-48711522D01*
X83209995Y-48683878D01*
X83182352Y-48679500D01*
X82977648Y-48679500D01*
X82953329Y-48683351D01*
X82775465Y-48711522D01*
X82580776Y-48774781D01*
X82398386Y-48867715D01*
X82232786Y-48988028D01*
X82088028Y-49132786D01*
X81967715Y-49298386D01*
X81920485Y-49391080D01*
X81872510Y-49441876D01*
X81804689Y-49458671D01*
X81738554Y-49436134D01*
X81699515Y-49391080D01*
X81698883Y-49389840D01*
X81652287Y-49298390D01*
X81644556Y-49287749D01*
X81531971Y-49132786D01*
X81387213Y-48988028D01*
X81221613Y-48867715D01*
X81221612Y-48867714D01*
X81221610Y-48867713D01*
X81164653Y-48838691D01*
X81039223Y-48774781D01*
X80844534Y-48711522D01*
X80669995Y-48683878D01*
X80642352Y-48679500D01*
X80437648Y-48679500D01*
X80413329Y-48683351D01*
X80235465Y-48711522D01*
X80040776Y-48774781D01*
X79858386Y-48867715D01*
X79692786Y-48988028D01*
X79548028Y-49132786D01*
X79427715Y-49298386D01*
X79380485Y-49391080D01*
X79332510Y-49441876D01*
X79264689Y-49458671D01*
X79198554Y-49436134D01*
X79159515Y-49391080D01*
X79158883Y-49389840D01*
X79112287Y-49298390D01*
X79104556Y-49287749D01*
X78991971Y-49132786D01*
X78847213Y-48988028D01*
X78681613Y-48867715D01*
X78681612Y-48867714D01*
X78681610Y-48867713D01*
X78624653Y-48838691D01*
X78499223Y-48774781D01*
X78304534Y-48711522D01*
X78129995Y-48683878D01*
X78102352Y-48679500D01*
X77897648Y-48679500D01*
X77873329Y-48683351D01*
X77695465Y-48711522D01*
X77500776Y-48774781D01*
X77318386Y-48867715D01*
X77152786Y-48988028D01*
X77008028Y-49132786D01*
X76887715Y-49298386D01*
X76794781Y-49480776D01*
X76731522Y-49675465D01*
X76699500Y-49877648D01*
X60920500Y-49877648D01*
X60888477Y-49675466D01*
X60825220Y-49480781D01*
X60825218Y-49480778D01*
X60825218Y-49480776D01*
X60779515Y-49391080D01*
X60732287Y-49298390D01*
X60724556Y-49287749D01*
X60611971Y-49132786D01*
X60467213Y-48988028D01*
X60301613Y-48867715D01*
X60301612Y-48867714D01*
X60301610Y-48867713D01*
X60244653Y-48838691D01*
X60119223Y-48774781D01*
X59924534Y-48711522D01*
X59749995Y-48683878D01*
X59722352Y-48679500D01*
X59517648Y-48679500D01*
X59493329Y-48683351D01*
X59315465Y-48711522D01*
X59120776Y-48774781D01*
X58938386Y-48867715D01*
X58772786Y-48988028D01*
X58628028Y-49132786D01*
X58507715Y-49298386D01*
X58460485Y-49391080D01*
X58412510Y-49441876D01*
X58344689Y-49458671D01*
X58278554Y-49436134D01*
X58239515Y-49391080D01*
X58238883Y-49389840D01*
X58192287Y-49298390D01*
X58184556Y-49287749D01*
X58071971Y-49132786D01*
X57927213Y-48988028D01*
X57761613Y-48867715D01*
X57761612Y-48867714D01*
X57761610Y-48867713D01*
X57704653Y-48838691D01*
X57579223Y-48774781D01*
X57384534Y-48711522D01*
X57209995Y-48683878D01*
X57182352Y-48679500D01*
X56977648Y-48679500D01*
X56953329Y-48683351D01*
X56775465Y-48711522D01*
X56580776Y-48774781D01*
X56398386Y-48867715D01*
X56232786Y-48988028D01*
X56088028Y-49132786D01*
X55967715Y-49298386D01*
X55920485Y-49391080D01*
X55872510Y-49441876D01*
X55804689Y-49458671D01*
X55738554Y-49436134D01*
X55699515Y-49391080D01*
X55698883Y-49389840D01*
X55652287Y-49298390D01*
X55644556Y-49287749D01*
X55531971Y-49132786D01*
X55387213Y-48988028D01*
X55221613Y-48867715D01*
X55221612Y-48867714D01*
X55221610Y-48867713D01*
X55164653Y-48838691D01*
X55039223Y-48774781D01*
X54844534Y-48711522D01*
X54669995Y-48683878D01*
X54642352Y-48679500D01*
X54437648Y-48679500D01*
X54413329Y-48683351D01*
X54235465Y-48711522D01*
X54040776Y-48774781D01*
X53858386Y-48867715D01*
X53692786Y-48988028D01*
X53548028Y-49132786D01*
X53427715Y-49298386D01*
X53380485Y-49391080D01*
X53332510Y-49441876D01*
X53264689Y-49458671D01*
X53198554Y-49436134D01*
X53159515Y-49391080D01*
X53158883Y-49389840D01*
X53112287Y-49298390D01*
X53104556Y-49287749D01*
X52991971Y-49132786D01*
X52847213Y-48988028D01*
X52681613Y-48867715D01*
X52681612Y-48867714D01*
X52681610Y-48867713D01*
X52624653Y-48838691D01*
X52499223Y-48774781D01*
X52304534Y-48711522D01*
X52129995Y-48683878D01*
X52102352Y-48679500D01*
X51897648Y-48679500D01*
X51873329Y-48683351D01*
X51695465Y-48711522D01*
X51500776Y-48774781D01*
X51318386Y-48867715D01*
X51152786Y-48988028D01*
X51008028Y-49132786D01*
X50887715Y-49298386D01*
X50794781Y-49480776D01*
X50731522Y-49675465D01*
X50699500Y-49877648D01*
X34920500Y-49877648D01*
X34888477Y-49675466D01*
X34825220Y-49480781D01*
X34825218Y-49480778D01*
X34825218Y-49480776D01*
X34779515Y-49391080D01*
X34732287Y-49298390D01*
X34724556Y-49287749D01*
X34611971Y-49132786D01*
X34467213Y-48988028D01*
X34301613Y-48867715D01*
X34301612Y-48867714D01*
X34301610Y-48867713D01*
X34244653Y-48838691D01*
X34119223Y-48774781D01*
X33924534Y-48711522D01*
X33749995Y-48683878D01*
X33722352Y-48679500D01*
X33517648Y-48679500D01*
X33493329Y-48683351D01*
X33315465Y-48711522D01*
X33120776Y-48774781D01*
X32938386Y-48867715D01*
X32772786Y-48988028D01*
X32628028Y-49132786D01*
X32507715Y-49298386D01*
X32460485Y-49391080D01*
X32412510Y-49441876D01*
X32344689Y-49458671D01*
X32278554Y-49436134D01*
X32239515Y-49391080D01*
X32238883Y-49389840D01*
X32192287Y-49298390D01*
X32184556Y-49287749D01*
X32071971Y-49132786D01*
X31927213Y-48988028D01*
X31761613Y-48867715D01*
X31761612Y-48867714D01*
X31761610Y-48867713D01*
X31704653Y-48838691D01*
X31579223Y-48774781D01*
X31384534Y-48711522D01*
X31209995Y-48683878D01*
X31182352Y-48679500D01*
X30977648Y-48679500D01*
X30953329Y-48683351D01*
X30775465Y-48711522D01*
X30580776Y-48774781D01*
X30398386Y-48867715D01*
X30232786Y-48988028D01*
X30088028Y-49132786D01*
X29967715Y-49298386D01*
X29920485Y-49391080D01*
X29872510Y-49441876D01*
X29804689Y-49458671D01*
X29738554Y-49436134D01*
X29699515Y-49391080D01*
X29698883Y-49389840D01*
X29652287Y-49298390D01*
X29644556Y-49287749D01*
X29531971Y-49132786D01*
X29387213Y-48988028D01*
X29221613Y-48867715D01*
X29221612Y-48867714D01*
X29221610Y-48867713D01*
X29164653Y-48838691D01*
X29039223Y-48774781D01*
X28844534Y-48711522D01*
X28669995Y-48683878D01*
X28642352Y-48679500D01*
X28437648Y-48679500D01*
X28413329Y-48683351D01*
X28235465Y-48711522D01*
X28040776Y-48774781D01*
X27858386Y-48867715D01*
X27692786Y-48988028D01*
X27548028Y-49132786D01*
X27427715Y-49298386D01*
X27380485Y-49391080D01*
X27332510Y-49441876D01*
X27264689Y-49458671D01*
X27198554Y-49436134D01*
X27159515Y-49391080D01*
X27158883Y-49389840D01*
X27112287Y-49298390D01*
X27104556Y-49287749D01*
X26991971Y-49132786D01*
X26847213Y-48988028D01*
X26681613Y-48867715D01*
X26681612Y-48867714D01*
X26681610Y-48867713D01*
X26624653Y-48838691D01*
X26499223Y-48774781D01*
X26304534Y-48711522D01*
X26129995Y-48683878D01*
X26102352Y-48679500D01*
X25897648Y-48679500D01*
X25873329Y-48683351D01*
X25695465Y-48711522D01*
X25500776Y-48774781D01*
X25318386Y-48867715D01*
X25152786Y-48988028D01*
X25008028Y-49132786D01*
X24887715Y-49298386D01*
X24794781Y-49480776D01*
X24731522Y-49675465D01*
X24699500Y-49877648D01*
X20250500Y-49877648D01*
X20250500Y-45629500D01*
X20270185Y-45562461D01*
X20322989Y-45516706D01*
X20374500Y-45505500D01*
X22185739Y-45505500D01*
X22252778Y-45525185D01*
X22298533Y-45577989D01*
X22308477Y-45647147D01*
X22279452Y-45710703D01*
X22233191Y-45744061D01*
X22120827Y-45790602D01*
X22120814Y-45790609D01*
X21989711Y-45878210D01*
X21989707Y-45878213D01*
X21878213Y-45989707D01*
X21878210Y-45989711D01*
X21790609Y-46120814D01*
X21790602Y-46120827D01*
X21730264Y-46266498D01*
X21730261Y-46266510D01*
X21699500Y-46421153D01*
X21699500Y-46578846D01*
X21730261Y-46733489D01*
X21730264Y-46733501D01*
X21769219Y-46827548D01*
X21776688Y-46897018D01*
X21769219Y-46922452D01*
X21730264Y-47016498D01*
X21730261Y-47016510D01*
X21699500Y-47171153D01*
X21699500Y-47328846D01*
X21730261Y-47483489D01*
X21730264Y-47483501D01*
X21769219Y-47577548D01*
X21776688Y-47647018D01*
X21769219Y-47672452D01*
X21730264Y-47766498D01*
X21730261Y-47766510D01*
X21699500Y-47921153D01*
X21699500Y-48078846D01*
X21730261Y-48233489D01*
X21730264Y-48233501D01*
X21790602Y-48379172D01*
X21790609Y-48379185D01*
X21878210Y-48510288D01*
X21878213Y-48510292D01*
X21989707Y-48621786D01*
X21989711Y-48621789D01*
X22120814Y-48709390D01*
X22120827Y-48709397D01*
X22266498Y-48769735D01*
X22266503Y-48769737D01*
X22421153Y-48800499D01*
X22421156Y-48800500D01*
X22421158Y-48800500D01*
X22578844Y-48800500D01*
X22578845Y-48800499D01*
X22733497Y-48769737D01*
X22879179Y-48709394D01*
X22881110Y-48708103D01*
X22882276Y-48707737D01*
X22884546Y-48706525D01*
X22884776Y-48706955D01*
X22947786Y-48687226D01*
X23015166Y-48705710D01*
X23018850Y-48708077D01*
X23020821Y-48709394D01*
X23020824Y-48709395D01*
X23020827Y-48709397D01*
X23166498Y-48769735D01*
X23166503Y-48769737D01*
X23321153Y-48800499D01*
X23321156Y-48800500D01*
X23321158Y-48800500D01*
X23478844Y-48800500D01*
X23478845Y-48800499D01*
X23633497Y-48769737D01*
X23779179Y-48709394D01*
X23910289Y-48621789D01*
X24021789Y-48510289D01*
X24109394Y-48379179D01*
X24118264Y-48357766D01*
X24133441Y-48321123D01*
X24169737Y-48233497D01*
X24200500Y-48078842D01*
X24200500Y-47921158D01*
X24200500Y-47921155D01*
X24200499Y-47921153D01*
X24169738Y-47766510D01*
X24169737Y-47766503D01*
X24130778Y-47672449D01*
X24123310Y-47602984D01*
X24130775Y-47577556D01*
X24169737Y-47483497D01*
X24200500Y-47328842D01*
X24200500Y-47171158D01*
X24200500Y-47171155D01*
X24200499Y-47171153D01*
X24169738Y-47016510D01*
X24169737Y-47016503D01*
X24130778Y-46922449D01*
X24123310Y-46852984D01*
X24130775Y-46827556D01*
X24169737Y-46733497D01*
X24200500Y-46578842D01*
X24200500Y-46421158D01*
X24200500Y-46421155D01*
X24200499Y-46421153D01*
X24175258Y-46294261D01*
X24169737Y-46266503D01*
X24137831Y-46189474D01*
X24109397Y-46120827D01*
X24109390Y-46120814D01*
X24021789Y-45989711D01*
X24021786Y-45989707D01*
X23910292Y-45878213D01*
X23910288Y-45878210D01*
X23779185Y-45790609D01*
X23779172Y-45790602D01*
X23666809Y-45744061D01*
X23612405Y-45700221D01*
X23590340Y-45633927D01*
X23607619Y-45566227D01*
X23658756Y-45518616D01*
X23714261Y-45505500D01*
X48185739Y-45505500D01*
X48252778Y-45525185D01*
X48298533Y-45577989D01*
X48308477Y-45647147D01*
X48279452Y-45710703D01*
X48233191Y-45744061D01*
X48120827Y-45790602D01*
X48120814Y-45790609D01*
X47989711Y-45878210D01*
X47989707Y-45878213D01*
X47878213Y-45989707D01*
X47878210Y-45989711D01*
X47790609Y-46120814D01*
X47790602Y-46120827D01*
X47730264Y-46266498D01*
X47730261Y-46266510D01*
X47699500Y-46421153D01*
X47699500Y-46578846D01*
X47730261Y-46733489D01*
X47730264Y-46733501D01*
X47769219Y-46827548D01*
X47776688Y-46897018D01*
X47769219Y-46922452D01*
X47730264Y-47016498D01*
X47730261Y-47016510D01*
X47699500Y-47171153D01*
X47699500Y-47328846D01*
X47730261Y-47483489D01*
X47730264Y-47483501D01*
X47769219Y-47577548D01*
X47776688Y-47647018D01*
X47769219Y-47672452D01*
X47730264Y-47766498D01*
X47730261Y-47766510D01*
X47699500Y-47921153D01*
X47699500Y-48078846D01*
X47730261Y-48233489D01*
X47730264Y-48233501D01*
X47790602Y-48379172D01*
X47790609Y-48379185D01*
X47878210Y-48510288D01*
X47878213Y-48510292D01*
X47989707Y-48621786D01*
X47989711Y-48621789D01*
X48120814Y-48709390D01*
X48120827Y-48709397D01*
X48266498Y-48769735D01*
X48266503Y-48769737D01*
X48421153Y-48800499D01*
X48421156Y-48800500D01*
X48421158Y-48800500D01*
X48578844Y-48800500D01*
X48578845Y-48800499D01*
X48733497Y-48769737D01*
X48879179Y-48709394D01*
X48881110Y-48708103D01*
X48882276Y-48707737D01*
X48884546Y-48706525D01*
X48884776Y-48706955D01*
X48947786Y-48687226D01*
X49015166Y-48705710D01*
X49018850Y-48708077D01*
X49020821Y-48709394D01*
X49020824Y-48709395D01*
X49020827Y-48709397D01*
X49166498Y-48769735D01*
X49166503Y-48769737D01*
X49321153Y-48800499D01*
X49321156Y-48800500D01*
X49321158Y-48800500D01*
X49478844Y-48800500D01*
X49478845Y-48800499D01*
X49633497Y-48769737D01*
X49779179Y-48709394D01*
X49910289Y-48621789D01*
X50021789Y-48510289D01*
X50109394Y-48379179D01*
X50118264Y-48357766D01*
X50133441Y-48321123D01*
X50169737Y-48233497D01*
X50200500Y-48078842D01*
X50200500Y-47921158D01*
X50200500Y-47921155D01*
X50200499Y-47921153D01*
X50169738Y-47766510D01*
X50169737Y-47766503D01*
X50130778Y-47672449D01*
X50123310Y-47602984D01*
X50130775Y-47577556D01*
X50169737Y-47483497D01*
X50200500Y-47328842D01*
X50200500Y-47171158D01*
X50200500Y-47171155D01*
X50200499Y-47171153D01*
X50169738Y-47016510D01*
X50169737Y-47016503D01*
X50130778Y-46922449D01*
X50123310Y-46852984D01*
X50130775Y-46827556D01*
X50169737Y-46733497D01*
X50200500Y-46578842D01*
X50200500Y-46421158D01*
X50200500Y-46421155D01*
X50200499Y-46421153D01*
X50175258Y-46294261D01*
X50169737Y-46266503D01*
X50137831Y-46189474D01*
X50109397Y-46120827D01*
X50109390Y-46120814D01*
X50021789Y-45989711D01*
X50021786Y-45989707D01*
X49910292Y-45878213D01*
X49910288Y-45878210D01*
X49779185Y-45790609D01*
X49779172Y-45790602D01*
X49666809Y-45744061D01*
X49612405Y-45700221D01*
X49590340Y-45633927D01*
X49607619Y-45566227D01*
X49658756Y-45518616D01*
X49714261Y-45505500D01*
X74185739Y-45505500D01*
X74252778Y-45525185D01*
X74298533Y-45577989D01*
X74308477Y-45647147D01*
X74279452Y-45710703D01*
X74233191Y-45744061D01*
X74120827Y-45790602D01*
X74120814Y-45790609D01*
X73989711Y-45878210D01*
X73989707Y-45878213D01*
X73878213Y-45989707D01*
X73878210Y-45989711D01*
X73790609Y-46120814D01*
X73790602Y-46120827D01*
X73730264Y-46266498D01*
X73730261Y-46266510D01*
X73699500Y-46421153D01*
X73699500Y-46578846D01*
X73730261Y-46733489D01*
X73730264Y-46733501D01*
X73769219Y-46827548D01*
X73776688Y-46897018D01*
X73769219Y-46922452D01*
X73730264Y-47016498D01*
X73730261Y-47016510D01*
X73699500Y-47171153D01*
X73699500Y-47328846D01*
X73730261Y-47483489D01*
X73730264Y-47483501D01*
X73769219Y-47577548D01*
X73776688Y-47647018D01*
X73769219Y-47672452D01*
X73730264Y-47766498D01*
X73730261Y-47766510D01*
X73699500Y-47921153D01*
X73699500Y-48078846D01*
X73730261Y-48233489D01*
X73730264Y-48233501D01*
X73790602Y-48379172D01*
X73790609Y-48379185D01*
X73878210Y-48510288D01*
X73878213Y-48510292D01*
X73989707Y-48621786D01*
X73989711Y-48621789D01*
X74120814Y-48709390D01*
X74120827Y-48709397D01*
X74266498Y-48769735D01*
X74266503Y-48769737D01*
X74421153Y-48800499D01*
X74421156Y-48800500D01*
X74421158Y-48800500D01*
X74578844Y-48800500D01*
X74578845Y-48800499D01*
X74733497Y-48769737D01*
X74879179Y-48709394D01*
X74881110Y-48708103D01*
X74882276Y-48707737D01*
X74884546Y-48706525D01*
X74884776Y-48706955D01*
X74947786Y-48687226D01*
X75015166Y-48705710D01*
X75018850Y-48708077D01*
X75020821Y-48709394D01*
X75020824Y-48709395D01*
X75020827Y-48709397D01*
X75166498Y-48769735D01*
X75166503Y-48769737D01*
X75321153Y-48800499D01*
X75321156Y-48800500D01*
X75321158Y-48800500D01*
X75478844Y-48800500D01*
X75478845Y-48800499D01*
X75633497Y-48769737D01*
X75779179Y-48709394D01*
X75910289Y-48621789D01*
X76021789Y-48510289D01*
X76109394Y-48379179D01*
X76118264Y-48357766D01*
X76133441Y-48321123D01*
X76169737Y-48233497D01*
X76200500Y-48078842D01*
X76200500Y-47921158D01*
X76200500Y-47921155D01*
X76200499Y-47921153D01*
X76169738Y-47766510D01*
X76169737Y-47766503D01*
X76130778Y-47672449D01*
X76123310Y-47602984D01*
X76130775Y-47577556D01*
X76169737Y-47483497D01*
X76200500Y-47328842D01*
X76200500Y-47171158D01*
X76200500Y-47171155D01*
X76200499Y-47171153D01*
X76169738Y-47016510D01*
X76169737Y-47016503D01*
X76130778Y-46922449D01*
X76123310Y-46852984D01*
X76130775Y-46827556D01*
X76169737Y-46733497D01*
X76200500Y-46578842D01*
X76200500Y-46421158D01*
X76200500Y-46421155D01*
X76200499Y-46421153D01*
X76175258Y-46294261D01*
X76169737Y-46266503D01*
X76137831Y-46189474D01*
X76109397Y-46120827D01*
X76109390Y-46120814D01*
X76021789Y-45989711D01*
X76021786Y-45989707D01*
X75910292Y-45878213D01*
X75910288Y-45878210D01*
X75779185Y-45790609D01*
X75779172Y-45790602D01*
X75666809Y-45744061D01*
X75612405Y-45700221D01*
X75590340Y-45633927D01*
X75607619Y-45566227D01*
X75658756Y-45518616D01*
X75714261Y-45505500D01*
X85870500Y-45505500D01*
X85937539Y-45525185D01*
X85983294Y-45577989D01*
X85994500Y-45629500D01*
X85994500Y-48000002D01*
X85999644Y-48071940D01*
X86040182Y-48209994D01*
X86117967Y-48331030D01*
X86117971Y-48331034D01*
X86206457Y-48407708D01*
X86226706Y-48425254D01*
X86245139Y-48433672D01*
X86357580Y-48485023D01*
X86357583Y-48485023D01*
X86357584Y-48485024D01*
X86500000Y-48505500D01*
X86500003Y-48505500D01*
X87519404Y-48505500D01*
X87519486Y-48505500D01*
X87524052Y-48505479D01*
X87526266Y-48505459D01*
X87530724Y-48505399D01*
X87530729Y-48505398D01*
X87530733Y-48505398D01*
X87672746Y-48482385D01*
X87672747Y-48482384D01*
X87672751Y-48482384D01*
X87739428Y-48461506D01*
X87739431Y-48461505D01*
X87869221Y-48399408D01*
X87950116Y-48345354D01*
X87971544Y-48333900D01*
X88002672Y-48321007D01*
X88025918Y-48313955D01*
X88058970Y-48307381D01*
X88083154Y-48305000D01*
X88116842Y-48305000D01*
X88141024Y-48307381D01*
X88174084Y-48313957D01*
X88197331Y-48321009D01*
X88228451Y-48333899D01*
X88249796Y-48345317D01*
X88249803Y-48345307D01*
X88249915Y-48345380D01*
X88249946Y-48345397D01*
X88250218Y-48345579D01*
X88257790Y-48350542D01*
X88261511Y-48352934D01*
X88265775Y-48355620D01*
X88269178Y-48357765D01*
X88269178Y-48357766D01*
X88317995Y-48379013D01*
X88401104Y-48415188D01*
X88468485Y-48433672D01*
X88468486Y-48433672D01*
X88468489Y-48433673D01*
X88611235Y-48451601D01*
X88611237Y-48451601D01*
X88611237Y-48451600D01*
X88611238Y-48451601D01*
X88753265Y-48428586D01*
X88819942Y-48407708D01*
X88819949Y-48407706D01*
X88949738Y-48345608D01*
X88957534Y-48340397D01*
X88965584Y-48336555D01*
X88967010Y-48336325D01*
X88971550Y-48333897D01*
X89002671Y-48321007D01*
X89025918Y-48313955D01*
X89058970Y-48307381D01*
X89083154Y-48305000D01*
X89116842Y-48305000D01*
X89141024Y-48307381D01*
X89174084Y-48313957D01*
X89197331Y-48321009D01*
X89228451Y-48333899D01*
X89249796Y-48345317D01*
X89249803Y-48345307D01*
X89249915Y-48345380D01*
X89249946Y-48345397D01*
X89250218Y-48345579D01*
X89257790Y-48350542D01*
X89261511Y-48352934D01*
X89265775Y-48355620D01*
X89269178Y-48357765D01*
X89269178Y-48357766D01*
X89317995Y-48379013D01*
X89401104Y-48415188D01*
X89468485Y-48433672D01*
X89468486Y-48433672D01*
X89468489Y-48433673D01*
X89611235Y-48451601D01*
X89611237Y-48451601D01*
X89611237Y-48451600D01*
X89611238Y-48451601D01*
X89753265Y-48428586D01*
X89819942Y-48407708D01*
X89819949Y-48407706D01*
X89949738Y-48345608D01*
X89957534Y-48340397D01*
X89965584Y-48336555D01*
X89967010Y-48336325D01*
X89971550Y-48333897D01*
X90002671Y-48321007D01*
X90025918Y-48313955D01*
X90058970Y-48307381D01*
X90083154Y-48305000D01*
X90116842Y-48305000D01*
X90141024Y-48307381D01*
X90174084Y-48313957D01*
X90197331Y-48321009D01*
X90228451Y-48333899D01*
X90249796Y-48345317D01*
X90249803Y-48345307D01*
X90249915Y-48345380D01*
X90249946Y-48345397D01*
X90250218Y-48345579D01*
X90257790Y-48350542D01*
X90261511Y-48352934D01*
X90265775Y-48355620D01*
X90269178Y-48357765D01*
X90269178Y-48357766D01*
X90317995Y-48379013D01*
X90401104Y-48415188D01*
X90468485Y-48433672D01*
X90468486Y-48433672D01*
X90468489Y-48433673D01*
X90611235Y-48451601D01*
X90611237Y-48451601D01*
X90611237Y-48451600D01*
X90611238Y-48451601D01*
X90753265Y-48428586D01*
X90819942Y-48407708D01*
X90819949Y-48407706D01*
X90949738Y-48345608D01*
X90957534Y-48340397D01*
X90965584Y-48336555D01*
X90967010Y-48336325D01*
X90971550Y-48333897D01*
X91002671Y-48321007D01*
X91025918Y-48313955D01*
X91058970Y-48307381D01*
X91083154Y-48305000D01*
X91116842Y-48305000D01*
X91141024Y-48307381D01*
X91174084Y-48313957D01*
X91197331Y-48321009D01*
X91228451Y-48333899D01*
X91249796Y-48345317D01*
X91249803Y-48345307D01*
X91249915Y-48345380D01*
X91249946Y-48345397D01*
X91250218Y-48345579D01*
X91257790Y-48350542D01*
X91261511Y-48352934D01*
X91265775Y-48355620D01*
X91269178Y-48357765D01*
X91269178Y-48357766D01*
X91317995Y-48379013D01*
X91401104Y-48415188D01*
X91468485Y-48433672D01*
X91468486Y-48433672D01*
X91468489Y-48433673D01*
X91611235Y-48451601D01*
X91611237Y-48451601D01*
X91611237Y-48451600D01*
X91611238Y-48451601D01*
X91753265Y-48428586D01*
X91819942Y-48407708D01*
X91819949Y-48407706D01*
X91949738Y-48345608D01*
X91957534Y-48340397D01*
X91965584Y-48336555D01*
X91967010Y-48336325D01*
X91971550Y-48333897D01*
X92002671Y-48321007D01*
X92025918Y-48313955D01*
X92058970Y-48307381D01*
X92083154Y-48305000D01*
X92116842Y-48305000D01*
X92141024Y-48307381D01*
X92174084Y-48313957D01*
X92197331Y-48321009D01*
X92228451Y-48333899D01*
X92249796Y-48345317D01*
X92249803Y-48345307D01*
X92249915Y-48345380D01*
X92249946Y-48345397D01*
X92250218Y-48345579D01*
X92257790Y-48350542D01*
X92261511Y-48352934D01*
X92265775Y-48355620D01*
X92269178Y-48357765D01*
X92269178Y-48357766D01*
X92317995Y-48379013D01*
X92401104Y-48415188D01*
X92468485Y-48433672D01*
X92468486Y-48433672D01*
X92468489Y-48433673D01*
X92611235Y-48451601D01*
X92611237Y-48451601D01*
X92611237Y-48451600D01*
X92611238Y-48451601D01*
X92753265Y-48428586D01*
X92819942Y-48407708D01*
X92819949Y-48407706D01*
X92949738Y-48345608D01*
X92957534Y-48340397D01*
X92965584Y-48336555D01*
X92967010Y-48336325D01*
X92971550Y-48333897D01*
X93002671Y-48321007D01*
X93025918Y-48313955D01*
X93058970Y-48307381D01*
X93083154Y-48305000D01*
X93116842Y-48305000D01*
X93141027Y-48307381D01*
X93174079Y-48313956D01*
X93197325Y-48321006D01*
X93228458Y-48333902D01*
X93249886Y-48345356D01*
X93330781Y-48399409D01*
X93333394Y-48401138D01*
X93334728Y-48402021D01*
X93336502Y-48403183D01*
X93340179Y-48405568D01*
X93340182Y-48405569D01*
X93440975Y-48451601D01*
X93471055Y-48465338D01*
X93538094Y-48485023D01*
X93538098Y-48485024D01*
X93680514Y-48505500D01*
X93680517Y-48505500D01*
X98918647Y-48505500D01*
X98921677Y-48505351D01*
X98921679Y-48505398D01*
X98929810Y-48505000D01*
X99070190Y-48505000D01*
X99078320Y-48505398D01*
X99078323Y-48505351D01*
X99081353Y-48505500D01*
X99081356Y-48505500D01*
X99909978Y-48505500D01*
X99909990Y-48505500D01*
X99927482Y-48505070D01*
X99928848Y-48505037D01*
X99931890Y-48505000D01*
X100068110Y-48505000D01*
X100071152Y-48505037D01*
X100072517Y-48505070D01*
X100090010Y-48505500D01*
X100090022Y-48505500D01*
X100918647Y-48505500D01*
X100921677Y-48505351D01*
X100921679Y-48505398D01*
X100929810Y-48505000D01*
X101070190Y-48505000D01*
X101078320Y-48505398D01*
X101078323Y-48505351D01*
X101081353Y-48505500D01*
X101081356Y-48505500D01*
X101448640Y-48505500D01*
X101458786Y-48504955D01*
X101502678Y-48502603D01*
X101502686Y-48502602D01*
X101502688Y-48502602D01*
X101502689Y-48502602D01*
X101509682Y-48501849D01*
X101529036Y-48499769D01*
X101529046Y-48499767D01*
X101529049Y-48499767D01*
X101538648Y-48498211D01*
X101582448Y-48491114D01*
X101717257Y-48440832D01*
X101778580Y-48407347D01*
X101893761Y-48321123D01*
X103920623Y-46294261D01*
X103956788Y-46254000D01*
X103973422Y-46233358D01*
X104005067Y-46189474D01*
X104064838Y-46058597D01*
X104084523Y-45991558D01*
X104084524Y-45991554D01*
X104093220Y-45931062D01*
X104094339Y-45924532D01*
X104095285Y-45919774D01*
X104095286Y-45919775D01*
X104113956Y-45825915D01*
X104121006Y-45802674D01*
X104133902Y-45771539D01*
X104145351Y-45750119D01*
X104164079Y-45722090D01*
X104179488Y-45703316D01*
X104203314Y-45679489D01*
X104222093Y-45664076D01*
X104250111Y-45645356D01*
X104271545Y-45633900D01*
X104282168Y-45629500D01*
X104302668Y-45621009D01*
X104325918Y-45613955D01*
X104370293Y-45605128D01*
X104387843Y-45602924D01*
X104403178Y-45602103D01*
X104429536Y-45599269D01*
X104429546Y-45599267D01*
X104429549Y-45599267D01*
X104446377Y-45596540D01*
X104482948Y-45590614D01*
X104617757Y-45540332D01*
X104679080Y-45506847D01*
X104794262Y-45420623D01*
X105173065Y-45041818D01*
X105234388Y-45008334D01*
X105260746Y-45005500D01*
X109625500Y-45005500D01*
X109692539Y-45025185D01*
G37*
G04 #@! TD.AperFunction*
G04 #@! TA.AperFunction,Conductor*
G36*
X97143039Y-33019685D02*
G01*
X97188794Y-33072489D01*
X97200000Y-33124000D01*
X97200000Y-40626000D01*
X97180315Y-40693039D01*
X97127511Y-40738794D01*
X97076000Y-40750000D01*
X90624000Y-40750000D01*
X90556961Y-40730315D01*
X90511206Y-40677511D01*
X90500000Y-40626000D01*
X90500000Y-36124000D01*
X90519685Y-36056961D01*
X90572489Y-36011206D01*
X90624000Y-36000000D01*
X93000000Y-36000000D01*
X93000000Y-33124000D01*
X93019685Y-33056961D01*
X93072489Y-33011206D01*
X93124000Y-33000000D01*
X97076000Y-33000000D01*
X97143039Y-33019685D01*
G37*
G04 #@! TD.AperFunction*
G04 #@! TA.AperFunction,Conductor*
G36*
X99943039Y-20270185D02*
G01*
X99988794Y-20322989D01*
X100000000Y-20374500D01*
X100000000Y-27876000D01*
X99980315Y-27943039D01*
X99927511Y-27988794D01*
X99876000Y-28000000D01*
X97000000Y-28000000D01*
X97000000Y-32376000D01*
X96980315Y-32443039D01*
X96927511Y-32488794D01*
X96876000Y-32500000D01*
X94205583Y-32500000D01*
X94195860Y-32499618D01*
X94194360Y-32499500D01*
X94194354Y-32499500D01*
X93965646Y-32499500D01*
X93965640Y-32499500D01*
X93964140Y-32499618D01*
X93954417Y-32500000D01*
X90011667Y-32500000D01*
X90003688Y-32499572D01*
X90003683Y-32499678D01*
X90000379Y-32499500D01*
X90000373Y-32499500D01*
X90000366Y-32499500D01*
X87999629Y-32499500D01*
X87996304Y-32499679D01*
X87996298Y-32499573D01*
X87988337Y-32500000D01*
X86500000Y-32500000D01*
X86500000Y-34876000D01*
X86480315Y-34943039D01*
X86427511Y-34988794D01*
X86376000Y-35000000D01*
X81164500Y-35000000D01*
X81097461Y-34980315D01*
X81051706Y-34927511D01*
X81040500Y-34876000D01*
X81040500Y-33881902D01*
X81003552Y-33648626D01*
X81003424Y-33648092D01*
X81003295Y-33647002D01*
X81002791Y-33643820D01*
X81002916Y-33643800D01*
X81000000Y-33619155D01*
X81000000Y-32500000D01*
X79669321Y-32500000D01*
X79659598Y-32499618D01*
X79658098Y-32499500D01*
X79658092Y-32499500D01*
X79421908Y-32499500D01*
X79421902Y-32499500D01*
X79420402Y-32499618D01*
X79410679Y-32500000D01*
X78624000Y-32500000D01*
X78556961Y-32480315D01*
X78511206Y-32427511D01*
X78500000Y-32376000D01*
X78500000Y-20374500D01*
X78519685Y-20307461D01*
X78572489Y-20261706D01*
X78624000Y-20250500D01*
X99876000Y-20250500D01*
X99943039Y-20270185D01*
G37*
G04 #@! TD.AperFunction*
G04 #@! TA.AperFunction,Conductor*
G36*
X46243039Y-33019685D02*
G01*
X46288794Y-33072489D01*
X46300000Y-33124000D01*
X46300000Y-40626000D01*
X46280315Y-40693039D01*
X46227511Y-40738794D01*
X46176000Y-40750000D01*
X38624000Y-40750000D01*
X38556961Y-40730315D01*
X38511206Y-40677511D01*
X38500000Y-40626000D01*
X38500000Y-36124000D01*
X38519685Y-36056961D01*
X38572489Y-36011206D01*
X38624000Y-36000000D01*
X41000000Y-36000000D01*
X41000000Y-33124000D01*
X41019685Y-33056961D01*
X41072489Y-33011206D01*
X41124000Y-33000000D01*
X46176000Y-33000000D01*
X46243039Y-33019685D01*
G37*
G04 #@! TD.AperFunction*
G04 #@! TA.AperFunction,Conductor*
G36*
X77443039Y-20270185D02*
G01*
X77488794Y-20322989D01*
X77500000Y-20374500D01*
X77500000Y-30376000D01*
X77480315Y-30443039D01*
X77427511Y-30488794D01*
X77376000Y-30500000D01*
X75499999Y-30500000D01*
X74036319Y-31963681D01*
X73974996Y-31997166D01*
X73948638Y-32000000D01*
X60500000Y-32000000D01*
X60500000Y-34876000D01*
X60480315Y-34943039D01*
X60427511Y-34988794D01*
X60376000Y-35000000D01*
X55164500Y-35000000D01*
X55097461Y-34980315D01*
X55051706Y-34927511D01*
X55040500Y-34876000D01*
X55040500Y-33881902D01*
X55003552Y-33648626D01*
X55003424Y-33648092D01*
X55003295Y-33647002D01*
X55002791Y-33643820D01*
X55002916Y-33643800D01*
X55000000Y-33619155D01*
X55000000Y-32000000D01*
X52624000Y-32000000D01*
X52556961Y-31980315D01*
X52511206Y-31927511D01*
X52500000Y-31876000D01*
X52500000Y-20374500D01*
X52519685Y-20307461D01*
X52572489Y-20261706D01*
X52624000Y-20250500D01*
X77376000Y-20250500D01*
X77443039Y-20270185D01*
G37*
G04 #@! TD.AperFunction*
G04 #@! TA.AperFunction,Conductor*
G36*
X51443039Y-20270185D02*
G01*
X51488794Y-20322989D01*
X51500000Y-20374500D01*
X51500000Y-30876000D01*
X51480315Y-30943039D01*
X51427511Y-30988794D01*
X51376000Y-31000000D01*
X41812500Y-31000000D01*
X40537051Y-32457655D01*
X40478092Y-32495145D01*
X40443732Y-32500000D01*
X38011667Y-32500000D01*
X38003688Y-32499572D01*
X38003683Y-32499678D01*
X38000379Y-32499500D01*
X38000373Y-32499500D01*
X38000366Y-32499500D01*
X35999629Y-32499500D01*
X35996304Y-32499679D01*
X35996298Y-32499573D01*
X35988337Y-32500000D01*
X34500000Y-32500000D01*
X34500000Y-34376000D01*
X34480315Y-34443039D01*
X34427511Y-34488794D01*
X34376000Y-34500000D01*
X29164500Y-34500000D01*
X29097461Y-34480315D01*
X29051706Y-34427511D01*
X29040500Y-34376000D01*
X29040500Y-33881902D01*
X29003552Y-33648626D01*
X29003424Y-33648092D01*
X29003295Y-33647002D01*
X29002791Y-33643820D01*
X29002916Y-33643800D01*
X29000000Y-33619155D01*
X29000000Y-20374500D01*
X29019685Y-20307461D01*
X29072489Y-20261706D01*
X29124000Y-20250500D01*
X51376000Y-20250500D01*
X51443039Y-20270185D01*
G37*
G04 #@! TD.AperFunction*
G04 #@! TA.AperFunction,Conductor*
G36*
X71843039Y-33019685D02*
G01*
X71888794Y-33072489D01*
X71900000Y-33124000D01*
X71900000Y-40626000D01*
X71880315Y-40693039D01*
X71827511Y-40738794D01*
X71776000Y-40750000D01*
X64624000Y-40750000D01*
X64556961Y-40730315D01*
X64511206Y-40677511D01*
X64500000Y-40626000D01*
X64500000Y-36124000D01*
X64519685Y-36056961D01*
X64572489Y-36011206D01*
X64624000Y-36000000D01*
X67000000Y-36000000D01*
X67000000Y-33124000D01*
X67019685Y-33056961D01*
X67072489Y-33011206D01*
X67124000Y-33000000D01*
X71776000Y-33000000D01*
X71843039Y-33019685D01*
G37*
G04 #@! TD.AperFunction*
G04 #@! TA.AperFunction,Conductor*
G36*
X86500000Y-45629500D02*
G01*
X86488447Y-45522044D01*
X86477241Y-45470533D01*
X86467496Y-45441253D01*
X86443116Y-45368002D01*
X86443113Y-45367996D01*
X86428900Y-45345881D01*
X86365325Y-45246957D01*
X86346335Y-45225041D01*
X86319576Y-45194159D01*
X86319572Y-45194156D01*
X86319570Y-45194153D01*
X86210836Y-45099933D01*
X86210833Y-45099931D01*
X86210831Y-45099930D01*
X86079965Y-45040164D01*
X86079960Y-45040162D01*
X86079959Y-45040162D01*
X86012920Y-45020477D01*
X86012922Y-45020477D01*
X86012917Y-45020476D01*
X85950854Y-45011553D01*
X85870500Y-45000000D01*
X86500000Y-45000000D01*
X86500000Y-45629500D01*
G37*
G04 #@! TD.AperFunction*
G04 #@! TA.AperFunction,Conductor*
G36*
X23714247Y-45000001D02*
G01*
X23598012Y-45013548D01*
X23598011Y-45013548D01*
X23542508Y-45026664D01*
X23542504Y-45026665D01*
X23437920Y-45064613D01*
X23406848Y-45066556D01*
X23375960Y-45070480D01*
X23370639Y-45068821D01*
X23368187Y-45068975D01*
X23342264Y-45059980D01*
X23330633Y-45054435D01*
X23330630Y-45054432D01*
X23330628Y-45054432D01*
X23322983Y-45050787D01*
X23322982Y-45050786D01*
X23316234Y-45048683D01*
X23310150Y-45046612D01*
X23305821Y-45045012D01*
X23295211Y-45040166D01*
X23283037Y-45036590D01*
X23283021Y-45036585D01*
X23265920Y-45031564D01*
X23265916Y-45031563D01*
X23228166Y-45020477D01*
X23225537Y-45019906D01*
X23214977Y-45017118D01*
X23185664Y-45007981D01*
X23177801Y-45007850D01*
X23143274Y-45007276D01*
X23127693Y-45006031D01*
X23085743Y-45000000D01*
X23714256Y-45000000D01*
X23714247Y-45000001D01*
G37*
G04 #@! TD.AperFunction*
G04 #@! TA.AperFunction,Conductor*
G36*
X49714247Y-45000001D02*
G01*
X49598012Y-45013548D01*
X49598011Y-45013548D01*
X49542508Y-45026664D01*
X49542504Y-45026665D01*
X49437920Y-45064613D01*
X49406848Y-45066556D01*
X49375960Y-45070480D01*
X49370639Y-45068821D01*
X49368187Y-45068975D01*
X49342264Y-45059980D01*
X49330633Y-45054435D01*
X49330630Y-45054432D01*
X49330628Y-45054432D01*
X49322983Y-45050787D01*
X49322982Y-45050786D01*
X49316234Y-45048683D01*
X49310150Y-45046612D01*
X49305821Y-45045012D01*
X49295211Y-45040166D01*
X49283037Y-45036590D01*
X49283021Y-45036585D01*
X49265920Y-45031564D01*
X49265916Y-45031563D01*
X49228166Y-45020477D01*
X49225537Y-45019906D01*
X49214977Y-45017118D01*
X49185664Y-45007981D01*
X49177801Y-45007850D01*
X49143274Y-45007276D01*
X49127693Y-45006031D01*
X49085743Y-45000000D01*
X49714256Y-45000000D01*
X49714247Y-45000001D01*
G37*
G04 #@! TD.AperFunction*
G04 #@! TA.AperFunction,Conductor*
G36*
X75714247Y-45000001D02*
G01*
X75598012Y-45013548D01*
X75598011Y-45013548D01*
X75542508Y-45026664D01*
X75542504Y-45026665D01*
X75437920Y-45064613D01*
X75406848Y-45066556D01*
X75375960Y-45070480D01*
X75370639Y-45068821D01*
X75368187Y-45068975D01*
X75342264Y-45059980D01*
X75330633Y-45054435D01*
X75330630Y-45054432D01*
X75330628Y-45054432D01*
X75322983Y-45050787D01*
X75322982Y-45050786D01*
X75316234Y-45048683D01*
X75310150Y-45046612D01*
X75305821Y-45045012D01*
X75295211Y-45040166D01*
X75283037Y-45036590D01*
X75283021Y-45036585D01*
X75265920Y-45031564D01*
X75265916Y-45031563D01*
X75228166Y-45020477D01*
X75225537Y-45019906D01*
X75214977Y-45017118D01*
X75185664Y-45007981D01*
X75177801Y-45007850D01*
X75143274Y-45007276D01*
X75127693Y-45006031D01*
X75085743Y-45000000D01*
X75714256Y-45000000D01*
X75714247Y-45000001D01*
G37*
G04 #@! TD.AperFunction*
G04 #@! TA.AperFunction,Conductor*
G36*
X22814247Y-45000001D02*
G01*
X22698012Y-45013548D01*
X22698011Y-45013548D01*
X22642508Y-45026664D01*
X22642504Y-45026665D01*
X22535897Y-45065347D01*
X22466164Y-45069709D01*
X22442091Y-45061577D01*
X22395204Y-45040164D01*
X22395199Y-45040162D01*
X22395198Y-45040162D01*
X22328159Y-45020477D01*
X22328161Y-45020477D01*
X22328156Y-45020476D01*
X22266093Y-45011553D01*
X22185739Y-45000000D01*
X22814256Y-45000000D01*
X22814247Y-45000001D01*
G37*
G04 #@! TD.AperFunction*
G04 #@! TA.AperFunction,Conductor*
G36*
X48814247Y-45000001D02*
G01*
X48698012Y-45013548D01*
X48698011Y-45013548D01*
X48642508Y-45026664D01*
X48642504Y-45026665D01*
X48535897Y-45065347D01*
X48466164Y-45069709D01*
X48442091Y-45061577D01*
X48395204Y-45040164D01*
X48395199Y-45040162D01*
X48395198Y-45040162D01*
X48328159Y-45020477D01*
X48328161Y-45020477D01*
X48328156Y-45020476D01*
X48266093Y-45011553D01*
X48185739Y-45000000D01*
X48814256Y-45000000D01*
X48814247Y-45000001D01*
G37*
G04 #@! TD.AperFunction*
G04 #@! TA.AperFunction,Conductor*
G36*
X74814247Y-45000001D02*
G01*
X74698012Y-45013548D01*
X74698011Y-45013548D01*
X74642508Y-45026664D01*
X74642504Y-45026665D01*
X74535897Y-45065347D01*
X74466164Y-45069709D01*
X74442091Y-45061577D01*
X74395204Y-45040164D01*
X74395199Y-45040162D01*
X74395198Y-45040162D01*
X74328159Y-45020477D01*
X74328161Y-45020477D01*
X74328156Y-45020476D01*
X74266093Y-45011553D01*
X74185739Y-45000000D01*
X74814256Y-45000000D01*
X74814247Y-45000001D01*
G37*
G04 #@! TD.AperFunction*
G04 #@! TA.AperFunction,Conductor*
G36*
X109692539Y-29019685D02*
G01*
X109738294Y-29072489D01*
X109749500Y-29124000D01*
X109749500Y-44376000D01*
X109729815Y-44443039D01*
X109677011Y-44488794D01*
X109625500Y-44500000D01*
X104999999Y-44500000D01*
X104436819Y-45063181D01*
X104375496Y-45096666D01*
X104349138Y-45099500D01*
X104321155Y-45099500D01*
X104166510Y-45130261D01*
X104166498Y-45130264D01*
X104020827Y-45190602D01*
X104020814Y-45190609D01*
X103889711Y-45278210D01*
X103889707Y-45278213D01*
X103778213Y-45389707D01*
X103778210Y-45389711D01*
X103690609Y-45520814D01*
X103690602Y-45520827D01*
X103630264Y-45666498D01*
X103630261Y-45666510D01*
X103599500Y-45821153D01*
X103599500Y-45849138D01*
X103579815Y-45916177D01*
X103563181Y-45936819D01*
X101536319Y-47963681D01*
X101474996Y-47997166D01*
X101448638Y-48000000D01*
X101081356Y-48000000D01*
X101078842Y-47999500D01*
X100921158Y-47999500D01*
X100918644Y-48000000D01*
X100090010Y-48000000D01*
X100079832Y-47999500D01*
X100078842Y-47999500D01*
X99921158Y-47999500D01*
X99920168Y-47999500D01*
X99909990Y-48000000D01*
X99081356Y-48000000D01*
X99078842Y-47999500D01*
X98921158Y-47999500D01*
X98918644Y-48000000D01*
X93680514Y-48000000D01*
X93613475Y-47980315D01*
X93611623Y-47979102D01*
X93479185Y-47890609D01*
X93479172Y-47890602D01*
X93333501Y-47830264D01*
X93333489Y-47830261D01*
X93178845Y-47799500D01*
X93178842Y-47799500D01*
X93021158Y-47799500D01*
X93021155Y-47799500D01*
X92866510Y-47830261D01*
X92866498Y-47830264D01*
X92720827Y-47890602D01*
X92720814Y-47890609D01*
X92668891Y-47925304D01*
X92602214Y-47946182D01*
X92534833Y-47927698D01*
X92531109Y-47925304D01*
X92479185Y-47890609D01*
X92479172Y-47890602D01*
X92333501Y-47830264D01*
X92333489Y-47830261D01*
X92178845Y-47799500D01*
X92178842Y-47799500D01*
X92021158Y-47799500D01*
X92021155Y-47799500D01*
X91866510Y-47830261D01*
X91866498Y-47830264D01*
X91720827Y-47890602D01*
X91720814Y-47890609D01*
X91668891Y-47925304D01*
X91602214Y-47946182D01*
X91534833Y-47927698D01*
X91531109Y-47925304D01*
X91479185Y-47890609D01*
X91479172Y-47890602D01*
X91333501Y-47830264D01*
X91333489Y-47830261D01*
X91178845Y-47799500D01*
X91178842Y-47799500D01*
X91021158Y-47799500D01*
X91021155Y-47799500D01*
X90866510Y-47830261D01*
X90866498Y-47830264D01*
X90720827Y-47890602D01*
X90720814Y-47890609D01*
X90668891Y-47925304D01*
X90602214Y-47946182D01*
X90534833Y-47927698D01*
X90531109Y-47925304D01*
X90479185Y-47890609D01*
X90479172Y-47890602D01*
X90333501Y-47830264D01*
X90333489Y-47830261D01*
X90178845Y-47799500D01*
X90178842Y-47799500D01*
X90021158Y-47799500D01*
X90021155Y-47799500D01*
X89866510Y-47830261D01*
X89866498Y-47830264D01*
X89720827Y-47890602D01*
X89720814Y-47890609D01*
X89668891Y-47925304D01*
X89602214Y-47946182D01*
X89534833Y-47927698D01*
X89531109Y-47925304D01*
X89479185Y-47890609D01*
X89479172Y-47890602D01*
X89333501Y-47830264D01*
X89333489Y-47830261D01*
X89178845Y-47799500D01*
X89178842Y-47799500D01*
X89021158Y-47799500D01*
X89021155Y-47799500D01*
X88866510Y-47830261D01*
X88866498Y-47830264D01*
X88720827Y-47890602D01*
X88720814Y-47890609D01*
X88668891Y-47925304D01*
X88602214Y-47946182D01*
X88534833Y-47927698D01*
X88531109Y-47925304D01*
X88479185Y-47890609D01*
X88479172Y-47890602D01*
X88333501Y-47830264D01*
X88333489Y-47830261D01*
X88178845Y-47799500D01*
X88178842Y-47799500D01*
X88021158Y-47799500D01*
X88021155Y-47799500D01*
X87866510Y-47830261D01*
X87866498Y-47830264D01*
X87720827Y-47890602D01*
X87720814Y-47890609D01*
X87588377Y-47979102D01*
X87521700Y-47999980D01*
X87519486Y-48000000D01*
X86500000Y-48000000D01*
X86500000Y-45000000D01*
X20250500Y-45000000D01*
X20250500Y-36124000D01*
X20270185Y-36056961D01*
X20322989Y-36011206D01*
X20374500Y-36000000D01*
X37870500Y-36000000D01*
X37937539Y-36019685D01*
X37983294Y-36072489D01*
X37994500Y-36124000D01*
X37994500Y-40626000D01*
X37994501Y-40626009D01*
X38006052Y-40733450D01*
X38006054Y-40733462D01*
X38017260Y-40784972D01*
X38051383Y-40887497D01*
X38051386Y-40887503D01*
X38129171Y-41008537D01*
X38129179Y-41008548D01*
X38174923Y-41061340D01*
X38174926Y-41061343D01*
X38174930Y-41061347D01*
X38283664Y-41155567D01*
X38283667Y-41155568D01*
X38283668Y-41155569D01*
X38377925Y-41198616D01*
X38414541Y-41215338D01*
X38481580Y-41235023D01*
X38481584Y-41235024D01*
X38624000Y-41255500D01*
X38624003Y-41255500D01*
X46175990Y-41255500D01*
X46176000Y-41255500D01*
X46283456Y-41243947D01*
X46334967Y-41232741D01*
X46369197Y-41221347D01*
X46437497Y-41198616D01*
X46437501Y-41198613D01*
X46437504Y-41198613D01*
X46558543Y-41120825D01*
X46611347Y-41075070D01*
X46705567Y-40966336D01*
X46765338Y-40835459D01*
X46785023Y-40768420D01*
X46785024Y-40768416D01*
X46805500Y-40626000D01*
X46805500Y-36124000D01*
X46825185Y-36056961D01*
X46877989Y-36011206D01*
X46929500Y-36000000D01*
X63870500Y-36000000D01*
X63937539Y-36019685D01*
X63983294Y-36072489D01*
X63994500Y-36124000D01*
X63994500Y-40626000D01*
X63994501Y-40626009D01*
X64006052Y-40733450D01*
X64006054Y-40733462D01*
X64017260Y-40784972D01*
X64051383Y-40887497D01*
X64051386Y-40887503D01*
X64129171Y-41008537D01*
X64129179Y-41008548D01*
X64174923Y-41061340D01*
X64174926Y-41061343D01*
X64174930Y-41061347D01*
X64283664Y-41155567D01*
X64283667Y-41155568D01*
X64283668Y-41155569D01*
X64377925Y-41198616D01*
X64414541Y-41215338D01*
X64481580Y-41235023D01*
X64481584Y-41235024D01*
X64624000Y-41255500D01*
X64624003Y-41255500D01*
X71775990Y-41255500D01*
X71776000Y-41255500D01*
X71883456Y-41243947D01*
X71934967Y-41232741D01*
X71969197Y-41221347D01*
X72037497Y-41198616D01*
X72037501Y-41198613D01*
X72037504Y-41198613D01*
X72158543Y-41120825D01*
X72211347Y-41075070D01*
X72305567Y-40966336D01*
X72365338Y-40835459D01*
X72385023Y-40768420D01*
X72385024Y-40768416D01*
X72405500Y-40626000D01*
X72405500Y-36124000D01*
X72425185Y-36056961D01*
X72477989Y-36011206D01*
X72529500Y-36000000D01*
X89870500Y-36000000D01*
X89937539Y-36019685D01*
X89983294Y-36072489D01*
X89994500Y-36124000D01*
X89994500Y-40626000D01*
X89994501Y-40626009D01*
X90006052Y-40733450D01*
X90006054Y-40733462D01*
X90017260Y-40784972D01*
X90051383Y-40887497D01*
X90051386Y-40887503D01*
X90129171Y-41008537D01*
X90129179Y-41008548D01*
X90174923Y-41061340D01*
X90174926Y-41061343D01*
X90174930Y-41061347D01*
X90283664Y-41155567D01*
X90283667Y-41155568D01*
X90283668Y-41155569D01*
X90377925Y-41198616D01*
X90414541Y-41215338D01*
X90481580Y-41235023D01*
X90481584Y-41235024D01*
X90624000Y-41255500D01*
X90624003Y-41255500D01*
X97075990Y-41255500D01*
X97076000Y-41255500D01*
X97183456Y-41243947D01*
X97234967Y-41232741D01*
X97269197Y-41221347D01*
X97337497Y-41198616D01*
X97337501Y-41198613D01*
X97337504Y-41198613D01*
X97458543Y-41120825D01*
X97511347Y-41075070D01*
X97605567Y-40966336D01*
X97665338Y-40835459D01*
X97685023Y-40768420D01*
X97685024Y-40768416D01*
X97705500Y-40626000D01*
X97705500Y-33911622D01*
X97725185Y-33844583D01*
X97732672Y-33834160D01*
X98000000Y-33500000D01*
X98000000Y-29124000D01*
X98019685Y-29056961D01*
X98072489Y-29011206D01*
X98124000Y-29000000D01*
X109625500Y-29000000D01*
X109692539Y-29019685D01*
G37*
G04 #@! TD.AperFunction*
M02*
