G04 #@! TF.GenerationSoftware,KiCad,Pcbnew,9.0.1*
G04 #@! TF.CreationDate,2026-04-29T13:57:15+03:00*
G04 #@! TF.ProjectId,BLDC_motor_driver_testing,424c4443-5f6d-46f7-946f-725f64726976,rev?*
G04 #@! TF.SameCoordinates,Original*
G04 #@! TF.FileFunction,Legend,Top*
G04 #@! TF.FilePolarity,Positive*
%FSLAX46Y46*%
G04 Gerber Fmt 4.6, Leading zero omitted, Abs format (unit mm)*
G04 Created by KiCad (PCBNEW 9.0.1) date 2026-04-29 13:57:15*
%MOMM*%
%LPD*%
G01*
G04 APERTURE LIST*
G04 Aperture macros list*
%AMRoundRect*
0 Rectangle with rounded corners*
0 $1 Rounding radius*
0 $2 $3 $4 $5 $6 $7 $8 $9 X,Y pos of 4 corners*
0 Add a 4 corners polygon primitive as box body*
4,1,4,$2,$3,$4,$5,$6,$7,$8,$9,$2,$3,0*
0 Add four circle primitives for the rounded corners*
1,1,$1+$1,$2,$3*
1,1,$1+$1,$4,$5*
1,1,$1+$1,$6,$7*
1,1,$1+$1,$8,$9*
0 Add four rect primitives between the rounded corners*
20,1,$1+$1,$2,$3,$4,$5,0*
20,1,$1+$1,$4,$5,$6,$7,0*
20,1,$1+$1,$6,$7,$8,$9,0*
20,1,$1+$1,$8,$9,$2,$3,0*%
G04 Aperture macros list end*
%ADD10C,0.150000*%
%ADD11C,0.120000*%
%ADD12C,2.200000*%
%ADD13RoundRect,0.087500X0.537500X0.087500X-0.537500X0.087500X-0.537500X-0.087500X0.537500X-0.087500X0*%
%ADD14RoundRect,0.250000X0.445000X-0.545000X0.445000X0.545000X-0.445000X0.545000X-0.445000X-0.545000X0*%
%ADD15RoundRect,0.250000X-1.000000X1.500000X-1.000000X-1.500000X1.000000X-1.500000X1.000000X1.500000X0*%
%ADD16RoundRect,0.250000X-1.425000X0.362500X-1.425000X-0.362500X1.425000X-0.362500X1.425000X0.362500X0*%
%ADD17RoundRect,0.250000X0.450000X-0.350000X0.450000X0.350000X-0.450000X0.350000X-0.450000X-0.350000X0*%
%ADD18RoundRect,0.250000X0.475000X-0.337500X0.475000X0.337500X-0.475000X0.337500X-0.475000X-0.337500X0*%
%ADD19RoundRect,0.225000X-0.375000X0.225000X-0.375000X-0.225000X0.375000X-0.225000X0.375000X0.225000X0*%
%ADD20RoundRect,0.250000X0.337500X0.475000X-0.337500X0.475000X-0.337500X-0.475000X0.337500X-0.475000X0*%
%ADD21RoundRect,0.150000X-0.825000X-0.150000X0.825000X-0.150000X0.825000X0.150000X-0.825000X0.150000X0*%
%ADD22RoundRect,0.250000X-0.475000X0.337500X-0.475000X-0.337500X0.475000X-0.337500X0.475000X0.337500X0*%
%ADD23C,2.600000*%
%ADD24C,4.400000*%
%ADD25RoundRect,0.250000X-0.350000X-0.450000X0.350000X-0.450000X0.350000X0.450000X-0.350000X0.450000X0*%
%ADD26RoundRect,0.250000X-0.750000X-0.750000X0.750000X-0.750000X0.750000X0.750000X-0.750000X0.750000X0*%
%ADD27C,2.000000*%
%ADD28R,1.905000X2.000000*%
%ADD29O,1.905000X2.000000*%
%ADD30RoundRect,0.250000X0.550000X-0.950000X0.550000X0.950000X-0.550000X0.950000X-0.550000X-0.950000X0*%
%ADD31O,1.600000X2.400000*%
%ADD32RoundRect,0.250000X0.750000X-0.750000X0.750000X0.750000X-0.750000X0.750000X-0.750000X-0.750000X0*%
%ADD33RoundRect,0.225000X0.375000X-0.225000X0.375000X0.225000X-0.375000X0.225000X-0.375000X-0.225000X0*%
%ADD34RoundRect,0.250000X0.450000X-0.325000X0.450000X0.325000X-0.450000X0.325000X-0.450000X-0.325000X0*%
%ADD35RoundRect,0.250000X-0.450000X0.350000X-0.450000X-0.350000X0.450000X-0.350000X0.450000X0.350000X0*%
%ADD36RoundRect,0.250000X-0.545000X-0.445000X0.545000X-0.445000X0.545000X0.445000X-0.545000X0.445000X0*%
%ADD37RoundRect,0.375000X0.625000X0.375000X-0.625000X0.375000X-0.625000X-0.375000X0.625000X-0.375000X0*%
%ADD38RoundRect,0.500000X0.500000X1.400000X-0.500000X1.400000X-0.500000X-1.400000X0.500000X-1.400000X0*%
G04 APERTURE END LIST*
D10*
X108841644Y-71925077D02*
X108794025Y-72020315D01*
X108794025Y-72020315D02*
X108794025Y-72163172D01*
X108794025Y-72163172D02*
X108841644Y-72306029D01*
X108841644Y-72306029D02*
X108936882Y-72401267D01*
X108936882Y-72401267D02*
X109032120Y-72448886D01*
X109032120Y-72448886D02*
X109222596Y-72496505D01*
X109222596Y-72496505D02*
X109365453Y-72496505D01*
X109365453Y-72496505D02*
X109555929Y-72448886D01*
X109555929Y-72448886D02*
X109651167Y-72401267D01*
X109651167Y-72401267D02*
X109746406Y-72306029D01*
X109746406Y-72306029D02*
X109794025Y-72163172D01*
X109794025Y-72163172D02*
X109794025Y-72067934D01*
X109794025Y-72067934D02*
X109746406Y-71925077D01*
X109746406Y-71925077D02*
X109698786Y-71877458D01*
X109698786Y-71877458D02*
X109365453Y-71877458D01*
X109365453Y-71877458D02*
X109365453Y-72067934D01*
X109794025Y-71448886D02*
X108794025Y-71448886D01*
X108794025Y-71448886D02*
X109794025Y-70877458D01*
X109794025Y-70877458D02*
X108794025Y-70877458D01*
X109794025Y-70401267D02*
X108794025Y-70401267D01*
X108794025Y-70401267D02*
X108794025Y-70163172D01*
X108794025Y-70163172D02*
X108841644Y-70020315D01*
X108841644Y-70020315D02*
X108936882Y-69925077D01*
X108936882Y-69925077D02*
X109032120Y-69877458D01*
X109032120Y-69877458D02*
X109222596Y-69829839D01*
X109222596Y-69829839D02*
X109365453Y-69829839D01*
X109365453Y-69829839D02*
X109555929Y-69877458D01*
X109555929Y-69877458D02*
X109651167Y-69925077D01*
X109651167Y-69925077D02*
X109746406Y-70020315D01*
X109746406Y-70020315D02*
X109794025Y-70163172D01*
X109794025Y-70163172D02*
X109794025Y-70401267D01*
X85086779Y-82369819D02*
X85086779Y-81369819D01*
X85086779Y-81369819D02*
X85467731Y-81369819D01*
X85467731Y-81369819D02*
X85562969Y-81417438D01*
X85562969Y-81417438D02*
X85610588Y-81465057D01*
X85610588Y-81465057D02*
X85658207Y-81560295D01*
X85658207Y-81560295D02*
X85658207Y-81703152D01*
X85658207Y-81703152D02*
X85610588Y-81798390D01*
X85610588Y-81798390D02*
X85562969Y-81846009D01*
X85562969Y-81846009D02*
X85467731Y-81893628D01*
X85467731Y-81893628D02*
X85086779Y-81893628D01*
X85991541Y-81369819D02*
X86229636Y-82369819D01*
X86229636Y-82369819D02*
X86420112Y-81655533D01*
X86420112Y-81655533D02*
X86610588Y-82369819D01*
X86610588Y-82369819D02*
X86848684Y-81369819D01*
X87229636Y-82369819D02*
X87229636Y-81369819D01*
X87229636Y-81369819D02*
X87562969Y-82084104D01*
X87562969Y-82084104D02*
X87896302Y-81369819D01*
X87896302Y-81369819D02*
X87896302Y-82369819D01*
X89086779Y-82322200D02*
X89229636Y-82369819D01*
X89229636Y-82369819D02*
X89467731Y-82369819D01*
X89467731Y-82369819D02*
X89562969Y-82322200D01*
X89562969Y-82322200D02*
X89610588Y-82274580D01*
X89610588Y-82274580D02*
X89658207Y-82179342D01*
X89658207Y-82179342D02*
X89658207Y-82084104D01*
X89658207Y-82084104D02*
X89610588Y-81988866D01*
X89610588Y-81988866D02*
X89562969Y-81941247D01*
X89562969Y-81941247D02*
X89467731Y-81893628D01*
X89467731Y-81893628D02*
X89277255Y-81846009D01*
X89277255Y-81846009D02*
X89182017Y-81798390D01*
X89182017Y-81798390D02*
X89134398Y-81750771D01*
X89134398Y-81750771D02*
X89086779Y-81655533D01*
X89086779Y-81655533D02*
X89086779Y-81560295D01*
X89086779Y-81560295D02*
X89134398Y-81465057D01*
X89134398Y-81465057D02*
X89182017Y-81417438D01*
X89182017Y-81417438D02*
X89277255Y-81369819D01*
X89277255Y-81369819D02*
X89515350Y-81369819D01*
X89515350Y-81369819D02*
X89658207Y-81417438D01*
X90086779Y-82369819D02*
X90086779Y-81369819D01*
X90086779Y-81369819D02*
X90324874Y-81369819D01*
X90324874Y-81369819D02*
X90467731Y-81417438D01*
X90467731Y-81417438D02*
X90562969Y-81512676D01*
X90562969Y-81512676D02*
X90610588Y-81607914D01*
X90610588Y-81607914D02*
X90658207Y-81798390D01*
X90658207Y-81798390D02*
X90658207Y-81941247D01*
X90658207Y-81941247D02*
X90610588Y-82131723D01*
X90610588Y-82131723D02*
X90562969Y-82226961D01*
X90562969Y-82226961D02*
X90467731Y-82322200D01*
X90467731Y-82322200D02*
X90324874Y-82369819D01*
X90324874Y-82369819D02*
X90086779Y-82369819D01*
X91848684Y-82369819D02*
X91848684Y-81369819D01*
X92277255Y-82322200D02*
X92420112Y-82369819D01*
X92420112Y-82369819D02*
X92658207Y-82369819D01*
X92658207Y-82369819D02*
X92753445Y-82322200D01*
X92753445Y-82322200D02*
X92801064Y-82274580D01*
X92801064Y-82274580D02*
X92848683Y-82179342D01*
X92848683Y-82179342D02*
X92848683Y-82084104D01*
X92848683Y-82084104D02*
X92801064Y-81988866D01*
X92801064Y-81988866D02*
X92753445Y-81941247D01*
X92753445Y-81941247D02*
X92658207Y-81893628D01*
X92658207Y-81893628D02*
X92467731Y-81846009D01*
X92467731Y-81846009D02*
X92372493Y-81798390D01*
X92372493Y-81798390D02*
X92324874Y-81750771D01*
X92324874Y-81750771D02*
X92277255Y-81655533D01*
X92277255Y-81655533D02*
X92277255Y-81560295D01*
X92277255Y-81560295D02*
X92324874Y-81465057D01*
X92324874Y-81465057D02*
X92372493Y-81417438D01*
X92372493Y-81417438D02*
X92467731Y-81369819D01*
X92467731Y-81369819D02*
X92705826Y-81369819D01*
X92705826Y-81369819D02*
X92848683Y-81417438D01*
X93277255Y-81846009D02*
X93610588Y-81846009D01*
X93753445Y-82369819D02*
X93277255Y-82369819D01*
X93277255Y-82369819D02*
X93277255Y-81369819D01*
X93277255Y-81369819D02*
X93753445Y-81369819D01*
X94182017Y-82369819D02*
X94182017Y-81369819D01*
X94182017Y-81369819D02*
X94753445Y-82369819D01*
X94753445Y-82369819D02*
X94753445Y-81369819D01*
X95182017Y-82322200D02*
X95324874Y-82369819D01*
X95324874Y-82369819D02*
X95562969Y-82369819D01*
X95562969Y-82369819D02*
X95658207Y-82322200D01*
X95658207Y-82322200D02*
X95705826Y-82274580D01*
X95705826Y-82274580D02*
X95753445Y-82179342D01*
X95753445Y-82179342D02*
X95753445Y-82084104D01*
X95753445Y-82084104D02*
X95705826Y-81988866D01*
X95705826Y-81988866D02*
X95658207Y-81941247D01*
X95658207Y-81941247D02*
X95562969Y-81893628D01*
X95562969Y-81893628D02*
X95372493Y-81846009D01*
X95372493Y-81846009D02*
X95277255Y-81798390D01*
X95277255Y-81798390D02*
X95229636Y-81750771D01*
X95229636Y-81750771D02*
X95182017Y-81655533D01*
X95182017Y-81655533D02*
X95182017Y-81560295D01*
X95182017Y-81560295D02*
X95229636Y-81465057D01*
X95229636Y-81465057D02*
X95277255Y-81417438D01*
X95277255Y-81417438D02*
X95372493Y-81369819D01*
X95372493Y-81369819D02*
X95610588Y-81369819D01*
X95610588Y-81369819D02*
X95753445Y-81417438D01*
X96182017Y-81846009D02*
X96515350Y-81846009D01*
X96658207Y-82369819D02*
X96182017Y-82369819D01*
X96182017Y-82369819D02*
X96182017Y-81369819D01*
X96182017Y-81369819D02*
X96658207Y-81369819D01*
X108769819Y-68487030D02*
X108769819Y-68963220D01*
X108769819Y-68963220D02*
X109246009Y-69010839D01*
X109246009Y-69010839D02*
X109198390Y-68963220D01*
X109198390Y-68963220D02*
X109150771Y-68867982D01*
X109150771Y-68867982D02*
X109150771Y-68629887D01*
X109150771Y-68629887D02*
X109198390Y-68534649D01*
X109198390Y-68534649D02*
X109246009Y-68487030D01*
X109246009Y-68487030D02*
X109341247Y-68439411D01*
X109341247Y-68439411D02*
X109579342Y-68439411D01*
X109579342Y-68439411D02*
X109674580Y-68487030D01*
X109674580Y-68487030D02*
X109722200Y-68534649D01*
X109722200Y-68534649D02*
X109769819Y-68629887D01*
X109769819Y-68629887D02*
X109769819Y-68867982D01*
X109769819Y-68867982D02*
X109722200Y-68963220D01*
X109722200Y-68963220D02*
X109674580Y-69010839D01*
X108769819Y-68153696D02*
X109769819Y-67820363D01*
X109769819Y-67820363D02*
X108769819Y-67487030D01*
X59086779Y-82369819D02*
X59086779Y-81369819D01*
X59086779Y-81369819D02*
X59467731Y-81369819D01*
X59467731Y-81369819D02*
X59562969Y-81417438D01*
X59562969Y-81417438D02*
X59610588Y-81465057D01*
X59610588Y-81465057D02*
X59658207Y-81560295D01*
X59658207Y-81560295D02*
X59658207Y-81703152D01*
X59658207Y-81703152D02*
X59610588Y-81798390D01*
X59610588Y-81798390D02*
X59562969Y-81846009D01*
X59562969Y-81846009D02*
X59467731Y-81893628D01*
X59467731Y-81893628D02*
X59086779Y-81893628D01*
X59991541Y-81369819D02*
X60229636Y-82369819D01*
X60229636Y-82369819D02*
X60420112Y-81655533D01*
X60420112Y-81655533D02*
X60610588Y-82369819D01*
X60610588Y-82369819D02*
X60848684Y-81369819D01*
X61229636Y-82369819D02*
X61229636Y-81369819D01*
X61229636Y-81369819D02*
X61562969Y-82084104D01*
X61562969Y-82084104D02*
X61896302Y-81369819D01*
X61896302Y-81369819D02*
X61896302Y-82369819D01*
X63086779Y-82322200D02*
X63229636Y-82369819D01*
X63229636Y-82369819D02*
X63467731Y-82369819D01*
X63467731Y-82369819D02*
X63562969Y-82322200D01*
X63562969Y-82322200D02*
X63610588Y-82274580D01*
X63610588Y-82274580D02*
X63658207Y-82179342D01*
X63658207Y-82179342D02*
X63658207Y-82084104D01*
X63658207Y-82084104D02*
X63610588Y-81988866D01*
X63610588Y-81988866D02*
X63562969Y-81941247D01*
X63562969Y-81941247D02*
X63467731Y-81893628D01*
X63467731Y-81893628D02*
X63277255Y-81846009D01*
X63277255Y-81846009D02*
X63182017Y-81798390D01*
X63182017Y-81798390D02*
X63134398Y-81750771D01*
X63134398Y-81750771D02*
X63086779Y-81655533D01*
X63086779Y-81655533D02*
X63086779Y-81560295D01*
X63086779Y-81560295D02*
X63134398Y-81465057D01*
X63134398Y-81465057D02*
X63182017Y-81417438D01*
X63182017Y-81417438D02*
X63277255Y-81369819D01*
X63277255Y-81369819D02*
X63515350Y-81369819D01*
X63515350Y-81369819D02*
X63658207Y-81417438D01*
X64086779Y-82369819D02*
X64086779Y-81369819D01*
X64086779Y-81369819D02*
X64324874Y-81369819D01*
X64324874Y-81369819D02*
X64467731Y-81417438D01*
X64467731Y-81417438D02*
X64562969Y-81512676D01*
X64562969Y-81512676D02*
X64610588Y-81607914D01*
X64610588Y-81607914D02*
X64658207Y-81798390D01*
X64658207Y-81798390D02*
X64658207Y-81941247D01*
X64658207Y-81941247D02*
X64610588Y-82131723D01*
X64610588Y-82131723D02*
X64562969Y-82226961D01*
X64562969Y-82226961D02*
X64467731Y-82322200D01*
X64467731Y-82322200D02*
X64324874Y-82369819D01*
X64324874Y-82369819D02*
X64086779Y-82369819D01*
X65848684Y-82369819D02*
X65848684Y-81369819D01*
X66277255Y-82322200D02*
X66420112Y-82369819D01*
X66420112Y-82369819D02*
X66658207Y-82369819D01*
X66658207Y-82369819D02*
X66753445Y-82322200D01*
X66753445Y-82322200D02*
X66801064Y-82274580D01*
X66801064Y-82274580D02*
X66848683Y-82179342D01*
X66848683Y-82179342D02*
X66848683Y-82084104D01*
X66848683Y-82084104D02*
X66801064Y-81988866D01*
X66801064Y-81988866D02*
X66753445Y-81941247D01*
X66753445Y-81941247D02*
X66658207Y-81893628D01*
X66658207Y-81893628D02*
X66467731Y-81846009D01*
X66467731Y-81846009D02*
X66372493Y-81798390D01*
X66372493Y-81798390D02*
X66324874Y-81750771D01*
X66324874Y-81750771D02*
X66277255Y-81655533D01*
X66277255Y-81655533D02*
X66277255Y-81560295D01*
X66277255Y-81560295D02*
X66324874Y-81465057D01*
X66324874Y-81465057D02*
X66372493Y-81417438D01*
X66372493Y-81417438D02*
X66467731Y-81369819D01*
X66467731Y-81369819D02*
X66705826Y-81369819D01*
X66705826Y-81369819D02*
X66848683Y-81417438D01*
X67277255Y-81846009D02*
X67610588Y-81846009D01*
X67753445Y-82369819D02*
X67277255Y-82369819D01*
X67277255Y-82369819D02*
X67277255Y-81369819D01*
X67277255Y-81369819D02*
X67753445Y-81369819D01*
X68182017Y-82369819D02*
X68182017Y-81369819D01*
X68182017Y-81369819D02*
X68753445Y-82369819D01*
X68753445Y-82369819D02*
X68753445Y-81369819D01*
X69182017Y-82322200D02*
X69324874Y-82369819D01*
X69324874Y-82369819D02*
X69562969Y-82369819D01*
X69562969Y-82369819D02*
X69658207Y-82322200D01*
X69658207Y-82322200D02*
X69705826Y-82274580D01*
X69705826Y-82274580D02*
X69753445Y-82179342D01*
X69753445Y-82179342D02*
X69753445Y-82084104D01*
X69753445Y-82084104D02*
X69705826Y-81988866D01*
X69705826Y-81988866D02*
X69658207Y-81941247D01*
X69658207Y-81941247D02*
X69562969Y-81893628D01*
X69562969Y-81893628D02*
X69372493Y-81846009D01*
X69372493Y-81846009D02*
X69277255Y-81798390D01*
X69277255Y-81798390D02*
X69229636Y-81750771D01*
X69229636Y-81750771D02*
X69182017Y-81655533D01*
X69182017Y-81655533D02*
X69182017Y-81560295D01*
X69182017Y-81560295D02*
X69229636Y-81465057D01*
X69229636Y-81465057D02*
X69277255Y-81417438D01*
X69277255Y-81417438D02*
X69372493Y-81369819D01*
X69372493Y-81369819D02*
X69610588Y-81369819D01*
X69610588Y-81369819D02*
X69753445Y-81417438D01*
X70182017Y-81846009D02*
X70515350Y-81846009D01*
X70658207Y-82369819D02*
X70182017Y-82369819D01*
X70182017Y-82369819D02*
X70182017Y-81369819D01*
X70182017Y-81369819D02*
X70658207Y-81369819D01*
X33086779Y-82369819D02*
X33086779Y-81369819D01*
X33086779Y-81369819D02*
X33467731Y-81369819D01*
X33467731Y-81369819D02*
X33562969Y-81417438D01*
X33562969Y-81417438D02*
X33610588Y-81465057D01*
X33610588Y-81465057D02*
X33658207Y-81560295D01*
X33658207Y-81560295D02*
X33658207Y-81703152D01*
X33658207Y-81703152D02*
X33610588Y-81798390D01*
X33610588Y-81798390D02*
X33562969Y-81846009D01*
X33562969Y-81846009D02*
X33467731Y-81893628D01*
X33467731Y-81893628D02*
X33086779Y-81893628D01*
X33991541Y-81369819D02*
X34229636Y-82369819D01*
X34229636Y-82369819D02*
X34420112Y-81655533D01*
X34420112Y-81655533D02*
X34610588Y-82369819D01*
X34610588Y-82369819D02*
X34848684Y-81369819D01*
X35229636Y-82369819D02*
X35229636Y-81369819D01*
X35229636Y-81369819D02*
X35562969Y-82084104D01*
X35562969Y-82084104D02*
X35896302Y-81369819D01*
X35896302Y-81369819D02*
X35896302Y-82369819D01*
X37086779Y-82322200D02*
X37229636Y-82369819D01*
X37229636Y-82369819D02*
X37467731Y-82369819D01*
X37467731Y-82369819D02*
X37562969Y-82322200D01*
X37562969Y-82322200D02*
X37610588Y-82274580D01*
X37610588Y-82274580D02*
X37658207Y-82179342D01*
X37658207Y-82179342D02*
X37658207Y-82084104D01*
X37658207Y-82084104D02*
X37610588Y-81988866D01*
X37610588Y-81988866D02*
X37562969Y-81941247D01*
X37562969Y-81941247D02*
X37467731Y-81893628D01*
X37467731Y-81893628D02*
X37277255Y-81846009D01*
X37277255Y-81846009D02*
X37182017Y-81798390D01*
X37182017Y-81798390D02*
X37134398Y-81750771D01*
X37134398Y-81750771D02*
X37086779Y-81655533D01*
X37086779Y-81655533D02*
X37086779Y-81560295D01*
X37086779Y-81560295D02*
X37134398Y-81465057D01*
X37134398Y-81465057D02*
X37182017Y-81417438D01*
X37182017Y-81417438D02*
X37277255Y-81369819D01*
X37277255Y-81369819D02*
X37515350Y-81369819D01*
X37515350Y-81369819D02*
X37658207Y-81417438D01*
X38086779Y-82369819D02*
X38086779Y-81369819D01*
X38086779Y-81369819D02*
X38324874Y-81369819D01*
X38324874Y-81369819D02*
X38467731Y-81417438D01*
X38467731Y-81417438D02*
X38562969Y-81512676D01*
X38562969Y-81512676D02*
X38610588Y-81607914D01*
X38610588Y-81607914D02*
X38658207Y-81798390D01*
X38658207Y-81798390D02*
X38658207Y-81941247D01*
X38658207Y-81941247D02*
X38610588Y-82131723D01*
X38610588Y-82131723D02*
X38562969Y-82226961D01*
X38562969Y-82226961D02*
X38467731Y-82322200D01*
X38467731Y-82322200D02*
X38324874Y-82369819D01*
X38324874Y-82369819D02*
X38086779Y-82369819D01*
X39848684Y-82369819D02*
X39848684Y-81369819D01*
X40277255Y-82322200D02*
X40420112Y-82369819D01*
X40420112Y-82369819D02*
X40658207Y-82369819D01*
X40658207Y-82369819D02*
X40753445Y-82322200D01*
X40753445Y-82322200D02*
X40801064Y-82274580D01*
X40801064Y-82274580D02*
X40848683Y-82179342D01*
X40848683Y-82179342D02*
X40848683Y-82084104D01*
X40848683Y-82084104D02*
X40801064Y-81988866D01*
X40801064Y-81988866D02*
X40753445Y-81941247D01*
X40753445Y-81941247D02*
X40658207Y-81893628D01*
X40658207Y-81893628D02*
X40467731Y-81846009D01*
X40467731Y-81846009D02*
X40372493Y-81798390D01*
X40372493Y-81798390D02*
X40324874Y-81750771D01*
X40324874Y-81750771D02*
X40277255Y-81655533D01*
X40277255Y-81655533D02*
X40277255Y-81560295D01*
X40277255Y-81560295D02*
X40324874Y-81465057D01*
X40324874Y-81465057D02*
X40372493Y-81417438D01*
X40372493Y-81417438D02*
X40467731Y-81369819D01*
X40467731Y-81369819D02*
X40705826Y-81369819D01*
X40705826Y-81369819D02*
X40848683Y-81417438D01*
X41277255Y-81846009D02*
X41610588Y-81846009D01*
X41753445Y-82369819D02*
X41277255Y-82369819D01*
X41277255Y-82369819D02*
X41277255Y-81369819D01*
X41277255Y-81369819D02*
X41753445Y-81369819D01*
X42182017Y-82369819D02*
X42182017Y-81369819D01*
X42182017Y-81369819D02*
X42753445Y-82369819D01*
X42753445Y-82369819D02*
X42753445Y-81369819D01*
X43182017Y-82322200D02*
X43324874Y-82369819D01*
X43324874Y-82369819D02*
X43562969Y-82369819D01*
X43562969Y-82369819D02*
X43658207Y-82322200D01*
X43658207Y-82322200D02*
X43705826Y-82274580D01*
X43705826Y-82274580D02*
X43753445Y-82179342D01*
X43753445Y-82179342D02*
X43753445Y-82084104D01*
X43753445Y-82084104D02*
X43705826Y-81988866D01*
X43705826Y-81988866D02*
X43658207Y-81941247D01*
X43658207Y-81941247D02*
X43562969Y-81893628D01*
X43562969Y-81893628D02*
X43372493Y-81846009D01*
X43372493Y-81846009D02*
X43277255Y-81798390D01*
X43277255Y-81798390D02*
X43229636Y-81750771D01*
X43229636Y-81750771D02*
X43182017Y-81655533D01*
X43182017Y-81655533D02*
X43182017Y-81560295D01*
X43182017Y-81560295D02*
X43229636Y-81465057D01*
X43229636Y-81465057D02*
X43277255Y-81417438D01*
X43277255Y-81417438D02*
X43372493Y-81369819D01*
X43372493Y-81369819D02*
X43610588Y-81369819D01*
X43610588Y-81369819D02*
X43753445Y-81417438D01*
X44182017Y-81846009D02*
X44515350Y-81846009D01*
X44658207Y-82369819D02*
X44182017Y-82369819D01*
X44182017Y-82369819D02*
X44182017Y-81369819D01*
X44182017Y-81369819D02*
X44658207Y-81369819D01*
X38638095Y-59854819D02*
X38638095Y-60664342D01*
X38638095Y-60664342D02*
X38685714Y-60759580D01*
X38685714Y-60759580D02*
X38733333Y-60807200D01*
X38733333Y-60807200D02*
X38828571Y-60854819D01*
X38828571Y-60854819D02*
X39019047Y-60854819D01*
X39019047Y-60854819D02*
X39114285Y-60807200D01*
X39114285Y-60807200D02*
X39161904Y-60759580D01*
X39161904Y-60759580D02*
X39209523Y-60664342D01*
X39209523Y-60664342D02*
X39209523Y-59854819D01*
X40114285Y-60188152D02*
X40114285Y-60854819D01*
X39876190Y-59807200D02*
X39638095Y-60521485D01*
X39638095Y-60521485D02*
X40257142Y-60521485D01*
X64638095Y-59854819D02*
X64638095Y-60664342D01*
X64638095Y-60664342D02*
X64685714Y-60759580D01*
X64685714Y-60759580D02*
X64733333Y-60807200D01*
X64733333Y-60807200D02*
X64828571Y-60854819D01*
X64828571Y-60854819D02*
X65019047Y-60854819D01*
X65019047Y-60854819D02*
X65114285Y-60807200D01*
X65114285Y-60807200D02*
X65161904Y-60759580D01*
X65161904Y-60759580D02*
X65209523Y-60664342D01*
X65209523Y-60664342D02*
X65209523Y-59854819D01*
X65590476Y-59854819D02*
X66257142Y-59854819D01*
X66257142Y-59854819D02*
X65828571Y-60854819D01*
X89861905Y-59854819D02*
X89861905Y-60664342D01*
X89861905Y-60664342D02*
X89909524Y-60759580D01*
X89909524Y-60759580D02*
X89957143Y-60807200D01*
X89957143Y-60807200D02*
X90052381Y-60854819D01*
X90052381Y-60854819D02*
X90242857Y-60854819D01*
X90242857Y-60854819D02*
X90338095Y-60807200D01*
X90338095Y-60807200D02*
X90385714Y-60759580D01*
X90385714Y-60759580D02*
X90433333Y-60664342D01*
X90433333Y-60664342D02*
X90433333Y-59854819D01*
X91433333Y-60854819D02*
X90861905Y-60854819D01*
X91147619Y-60854819D02*
X91147619Y-59854819D01*
X91147619Y-59854819D02*
X91052381Y-59997676D01*
X91052381Y-59997676D02*
X90957143Y-60092914D01*
X90957143Y-60092914D02*
X90861905Y-60140533D01*
X92052381Y-59854819D02*
X92147619Y-59854819D01*
X92147619Y-59854819D02*
X92242857Y-59902438D01*
X92242857Y-59902438D02*
X92290476Y-59950057D01*
X92290476Y-59950057D02*
X92338095Y-60045295D01*
X92338095Y-60045295D02*
X92385714Y-60235771D01*
X92385714Y-60235771D02*
X92385714Y-60473866D01*
X92385714Y-60473866D02*
X92338095Y-60664342D01*
X92338095Y-60664342D02*
X92290476Y-60759580D01*
X92290476Y-60759580D02*
X92242857Y-60807200D01*
X92242857Y-60807200D02*
X92147619Y-60854819D01*
X92147619Y-60854819D02*
X92052381Y-60854819D01*
X92052381Y-60854819D02*
X91957143Y-60807200D01*
X91957143Y-60807200D02*
X91909524Y-60759580D01*
X91909524Y-60759580D02*
X91861905Y-60664342D01*
X91861905Y-60664342D02*
X91814286Y-60473866D01*
X91814286Y-60473866D02*
X91814286Y-60235771D01*
X91814286Y-60235771D02*
X91861905Y-60045295D01*
X91861905Y-60045295D02*
X91909524Y-59950057D01*
X91909524Y-59950057D02*
X91957143Y-59902438D01*
X91957143Y-59902438D02*
X92052381Y-59854819D01*
X21359580Y-49856666D02*
X21407200Y-49904285D01*
X21407200Y-49904285D02*
X21454819Y-50047142D01*
X21454819Y-50047142D02*
X21454819Y-50142380D01*
X21454819Y-50142380D02*
X21407200Y-50285237D01*
X21407200Y-50285237D02*
X21311961Y-50380475D01*
X21311961Y-50380475D02*
X21216723Y-50428094D01*
X21216723Y-50428094D02*
X21026247Y-50475713D01*
X21026247Y-50475713D02*
X20883390Y-50475713D01*
X20883390Y-50475713D02*
X20692914Y-50428094D01*
X20692914Y-50428094D02*
X20597676Y-50380475D01*
X20597676Y-50380475D02*
X20502438Y-50285237D01*
X20502438Y-50285237D02*
X20454819Y-50142380D01*
X20454819Y-50142380D02*
X20454819Y-50047142D01*
X20454819Y-50047142D02*
X20502438Y-49904285D01*
X20502438Y-49904285D02*
X20550057Y-49856666D01*
X20454819Y-49523332D02*
X20454819Y-48856666D01*
X20454819Y-48856666D02*
X21454819Y-49285237D01*
X47625474Y-49442483D02*
X47673094Y-49490102D01*
X47673094Y-49490102D02*
X47720713Y-49632959D01*
X47720713Y-49632959D02*
X47720713Y-49728197D01*
X47720713Y-49728197D02*
X47673094Y-49871054D01*
X47673094Y-49871054D02*
X47577855Y-49966292D01*
X47577855Y-49966292D02*
X47482617Y-50013911D01*
X47482617Y-50013911D02*
X47292141Y-50061530D01*
X47292141Y-50061530D02*
X47149284Y-50061530D01*
X47149284Y-50061530D02*
X46958808Y-50013911D01*
X46958808Y-50013911D02*
X46863570Y-49966292D01*
X46863570Y-49966292D02*
X46768332Y-49871054D01*
X46768332Y-49871054D02*
X46720713Y-49728197D01*
X46720713Y-49728197D02*
X46720713Y-49632959D01*
X46720713Y-49632959D02*
X46768332Y-49490102D01*
X46768332Y-49490102D02*
X46815951Y-49442483D01*
X47720713Y-48490102D02*
X47720713Y-49061530D01*
X47720713Y-48775816D02*
X46720713Y-48775816D01*
X46720713Y-48775816D02*
X46863570Y-48871054D01*
X46863570Y-48871054D02*
X46958808Y-48966292D01*
X46958808Y-48966292D02*
X47006427Y-49061530D01*
X46815951Y-48109149D02*
X46768332Y-48061530D01*
X46768332Y-48061530D02*
X46720713Y-47966292D01*
X46720713Y-47966292D02*
X46720713Y-47728197D01*
X46720713Y-47728197D02*
X46768332Y-47632959D01*
X46768332Y-47632959D02*
X46815951Y-47585340D01*
X46815951Y-47585340D02*
X46911189Y-47537721D01*
X46911189Y-47537721D02*
X47006427Y-47537721D01*
X47006427Y-47537721D02*
X47149284Y-47585340D01*
X47149284Y-47585340D02*
X47720713Y-48156768D01*
X47720713Y-48156768D02*
X47720713Y-47537721D01*
X73675533Y-49438935D02*
X73723153Y-49486554D01*
X73723153Y-49486554D02*
X73770772Y-49629411D01*
X73770772Y-49629411D02*
X73770772Y-49724649D01*
X73770772Y-49724649D02*
X73723153Y-49867506D01*
X73723153Y-49867506D02*
X73627914Y-49962744D01*
X73627914Y-49962744D02*
X73532676Y-50010363D01*
X73532676Y-50010363D02*
X73342200Y-50057982D01*
X73342200Y-50057982D02*
X73199343Y-50057982D01*
X73199343Y-50057982D02*
X73008867Y-50010363D01*
X73008867Y-50010363D02*
X72913629Y-49962744D01*
X72913629Y-49962744D02*
X72818391Y-49867506D01*
X72818391Y-49867506D02*
X72770772Y-49724649D01*
X72770772Y-49724649D02*
X72770772Y-49629411D01*
X72770772Y-49629411D02*
X72818391Y-49486554D01*
X72818391Y-49486554D02*
X72866010Y-49438935D01*
X73770772Y-48486554D02*
X73770772Y-49057982D01*
X73770772Y-48772268D02*
X72770772Y-48772268D01*
X72770772Y-48772268D02*
X72913629Y-48867506D01*
X72913629Y-48867506D02*
X73008867Y-48962744D01*
X73008867Y-48962744D02*
X73056486Y-49057982D01*
X72770772Y-48153220D02*
X72770772Y-47486554D01*
X72770772Y-47486554D02*
X73770772Y-47915125D01*
X28436938Y-73697005D02*
X28389319Y-73744625D01*
X28389319Y-73744625D02*
X28246462Y-73792244D01*
X28246462Y-73792244D02*
X28151224Y-73792244D01*
X28151224Y-73792244D02*
X28008367Y-73744625D01*
X28008367Y-73744625D02*
X27913129Y-73649386D01*
X27913129Y-73649386D02*
X27865510Y-73554148D01*
X27865510Y-73554148D02*
X27817891Y-73363672D01*
X27817891Y-73363672D02*
X27817891Y-73220815D01*
X27817891Y-73220815D02*
X27865510Y-73030339D01*
X27865510Y-73030339D02*
X27913129Y-72935101D01*
X27913129Y-72935101D02*
X28008367Y-72839863D01*
X28008367Y-72839863D02*
X28151224Y-72792244D01*
X28151224Y-72792244D02*
X28246462Y-72792244D01*
X28246462Y-72792244D02*
X28389319Y-72839863D01*
X28389319Y-72839863D02*
X28436938Y-72887482D01*
X29294081Y-72792244D02*
X29103605Y-72792244D01*
X29103605Y-72792244D02*
X29008367Y-72839863D01*
X29008367Y-72839863D02*
X28960748Y-72887482D01*
X28960748Y-72887482D02*
X28865510Y-73030339D01*
X28865510Y-73030339D02*
X28817891Y-73220815D01*
X28817891Y-73220815D02*
X28817891Y-73601767D01*
X28817891Y-73601767D02*
X28865510Y-73697005D01*
X28865510Y-73697005D02*
X28913129Y-73744625D01*
X28913129Y-73744625D02*
X29008367Y-73792244D01*
X29008367Y-73792244D02*
X29198843Y-73792244D01*
X29198843Y-73792244D02*
X29294081Y-73744625D01*
X29294081Y-73744625D02*
X29341700Y-73697005D01*
X29341700Y-73697005D02*
X29389319Y-73601767D01*
X29389319Y-73601767D02*
X29389319Y-73363672D01*
X29389319Y-73363672D02*
X29341700Y-73268434D01*
X29341700Y-73268434D02*
X29294081Y-73220815D01*
X29294081Y-73220815D02*
X29198843Y-73173196D01*
X29198843Y-73173196D02*
X29008367Y-73173196D01*
X29008367Y-73173196D02*
X28913129Y-73220815D01*
X28913129Y-73220815D02*
X28865510Y-73268434D01*
X28865510Y-73268434D02*
X28817891Y-73363672D01*
X97454819Y-45642857D02*
X96978628Y-45976190D01*
X97454819Y-46214285D02*
X96454819Y-46214285D01*
X96454819Y-46214285D02*
X96454819Y-45833333D01*
X96454819Y-45833333D02*
X96502438Y-45738095D01*
X96502438Y-45738095D02*
X96550057Y-45690476D01*
X96550057Y-45690476D02*
X96645295Y-45642857D01*
X96645295Y-45642857D02*
X96788152Y-45642857D01*
X96788152Y-45642857D02*
X96883390Y-45690476D01*
X96883390Y-45690476D02*
X96931009Y-45738095D01*
X96931009Y-45738095D02*
X96978628Y-45833333D01*
X96978628Y-45833333D02*
X96978628Y-46214285D01*
X97454819Y-44690476D02*
X97454819Y-45261904D01*
X97454819Y-44976190D02*
X96454819Y-44976190D01*
X96454819Y-44976190D02*
X96597676Y-45071428D01*
X96597676Y-45071428D02*
X96692914Y-45166666D01*
X96692914Y-45166666D02*
X96740533Y-45261904D01*
X96454819Y-43833333D02*
X96454819Y-44023809D01*
X96454819Y-44023809D02*
X96502438Y-44119047D01*
X96502438Y-44119047D02*
X96550057Y-44166666D01*
X96550057Y-44166666D02*
X96692914Y-44261904D01*
X96692914Y-44261904D02*
X96883390Y-44309523D01*
X96883390Y-44309523D02*
X97264342Y-44309523D01*
X97264342Y-44309523D02*
X97359580Y-44261904D01*
X97359580Y-44261904D02*
X97407200Y-44214285D01*
X97407200Y-44214285D02*
X97454819Y-44119047D01*
X97454819Y-44119047D02*
X97454819Y-43928571D01*
X97454819Y-43928571D02*
X97407200Y-43833333D01*
X97407200Y-43833333D02*
X97359580Y-43785714D01*
X97359580Y-43785714D02*
X97264342Y-43738095D01*
X97264342Y-43738095D02*
X97026247Y-43738095D01*
X97026247Y-43738095D02*
X96931009Y-43785714D01*
X96931009Y-43785714D02*
X96883390Y-43833333D01*
X96883390Y-43833333D02*
X96835771Y-43928571D01*
X96835771Y-43928571D02*
X96835771Y-44119047D01*
X96835771Y-44119047D02*
X96883390Y-44214285D01*
X96883390Y-44214285D02*
X96931009Y-44261904D01*
X96931009Y-44261904D02*
X97026247Y-44309523D01*
X45454819Y-45204166D02*
X44978628Y-45537499D01*
X45454819Y-45775594D02*
X44454819Y-45775594D01*
X44454819Y-45775594D02*
X44454819Y-45394642D01*
X44454819Y-45394642D02*
X44502438Y-45299404D01*
X44502438Y-45299404D02*
X44550057Y-45251785D01*
X44550057Y-45251785D02*
X44645295Y-45204166D01*
X44645295Y-45204166D02*
X44788152Y-45204166D01*
X44788152Y-45204166D02*
X44883390Y-45251785D01*
X44883390Y-45251785D02*
X44931009Y-45299404D01*
X44931009Y-45299404D02*
X44978628Y-45394642D01*
X44978628Y-45394642D02*
X44978628Y-45775594D01*
X44788152Y-44347023D02*
X45454819Y-44347023D01*
X44407200Y-44585118D02*
X45121485Y-44823213D01*
X45121485Y-44823213D02*
X45121485Y-44204166D01*
X58804819Y-46166666D02*
X58328628Y-46499999D01*
X58804819Y-46738094D02*
X57804819Y-46738094D01*
X57804819Y-46738094D02*
X57804819Y-46357142D01*
X57804819Y-46357142D02*
X57852438Y-46261904D01*
X57852438Y-46261904D02*
X57900057Y-46214285D01*
X57900057Y-46214285D02*
X57995295Y-46166666D01*
X57995295Y-46166666D02*
X58138152Y-46166666D01*
X58138152Y-46166666D02*
X58233390Y-46214285D01*
X58233390Y-46214285D02*
X58281009Y-46261904D01*
X58281009Y-46261904D02*
X58328628Y-46357142D01*
X58328628Y-46357142D02*
X58328628Y-46738094D01*
X58804819Y-45690475D02*
X58804819Y-45499999D01*
X58804819Y-45499999D02*
X58757200Y-45404761D01*
X58757200Y-45404761D02*
X58709580Y-45357142D01*
X58709580Y-45357142D02*
X58566723Y-45261904D01*
X58566723Y-45261904D02*
X58376247Y-45214285D01*
X58376247Y-45214285D02*
X57995295Y-45214285D01*
X57995295Y-45214285D02*
X57900057Y-45261904D01*
X57900057Y-45261904D02*
X57852438Y-45309523D01*
X57852438Y-45309523D02*
X57804819Y-45404761D01*
X57804819Y-45404761D02*
X57804819Y-45595237D01*
X57804819Y-45595237D02*
X57852438Y-45690475D01*
X57852438Y-45690475D02*
X57900057Y-45738094D01*
X57900057Y-45738094D02*
X57995295Y-45785713D01*
X57995295Y-45785713D02*
X58233390Y-45785713D01*
X58233390Y-45785713D02*
X58328628Y-45738094D01*
X58328628Y-45738094D02*
X58376247Y-45690475D01*
X58376247Y-45690475D02*
X58423866Y-45595237D01*
X58423866Y-45595237D02*
X58423866Y-45404761D01*
X58423866Y-45404761D02*
X58376247Y-45309523D01*
X58376247Y-45309523D02*
X58328628Y-45261904D01*
X58328628Y-45261904D02*
X58233390Y-45214285D01*
X71359580Y-58180357D02*
X71407200Y-58227976D01*
X71407200Y-58227976D02*
X71454819Y-58370833D01*
X71454819Y-58370833D02*
X71454819Y-58466071D01*
X71454819Y-58466071D02*
X71407200Y-58608928D01*
X71407200Y-58608928D02*
X71311961Y-58704166D01*
X71311961Y-58704166D02*
X71216723Y-58751785D01*
X71216723Y-58751785D02*
X71026247Y-58799404D01*
X71026247Y-58799404D02*
X70883390Y-58799404D01*
X70883390Y-58799404D02*
X70692914Y-58751785D01*
X70692914Y-58751785D02*
X70597676Y-58704166D01*
X70597676Y-58704166D02*
X70502438Y-58608928D01*
X70502438Y-58608928D02*
X70454819Y-58466071D01*
X70454819Y-58466071D02*
X70454819Y-58370833D01*
X70454819Y-58370833D02*
X70502438Y-58227976D01*
X70502438Y-58227976D02*
X70550057Y-58180357D01*
X71454819Y-57227976D02*
X71454819Y-57799404D01*
X71454819Y-57513690D02*
X70454819Y-57513690D01*
X70454819Y-57513690D02*
X70597676Y-57608928D01*
X70597676Y-57608928D02*
X70692914Y-57704166D01*
X70692914Y-57704166D02*
X70740533Y-57799404D01*
X70454819Y-56323214D02*
X70454819Y-56799404D01*
X70454819Y-56799404D02*
X70931009Y-56847023D01*
X70931009Y-56847023D02*
X70883390Y-56799404D01*
X70883390Y-56799404D02*
X70835771Y-56704166D01*
X70835771Y-56704166D02*
X70835771Y-56466071D01*
X70835771Y-56466071D02*
X70883390Y-56370833D01*
X70883390Y-56370833D02*
X70931009Y-56323214D01*
X70931009Y-56323214D02*
X71026247Y-56275595D01*
X71026247Y-56275595D02*
X71264342Y-56275595D01*
X71264342Y-56275595D02*
X71359580Y-56323214D01*
X71359580Y-56323214D02*
X71407200Y-56370833D01*
X71407200Y-56370833D02*
X71454819Y-56466071D01*
X71454819Y-56466071D02*
X71454819Y-56704166D01*
X71454819Y-56704166D02*
X71407200Y-56799404D01*
X71407200Y-56799404D02*
X71359580Y-56847023D01*
X41809580Y-50166666D02*
X41857200Y-50214285D01*
X41857200Y-50214285D02*
X41904819Y-50357142D01*
X41904819Y-50357142D02*
X41904819Y-50452380D01*
X41904819Y-50452380D02*
X41857200Y-50595237D01*
X41857200Y-50595237D02*
X41761961Y-50690475D01*
X41761961Y-50690475D02*
X41666723Y-50738094D01*
X41666723Y-50738094D02*
X41476247Y-50785713D01*
X41476247Y-50785713D02*
X41333390Y-50785713D01*
X41333390Y-50785713D02*
X41142914Y-50738094D01*
X41142914Y-50738094D02*
X41047676Y-50690475D01*
X41047676Y-50690475D02*
X40952438Y-50595237D01*
X40952438Y-50595237D02*
X40904819Y-50452380D01*
X40904819Y-50452380D02*
X40904819Y-50357142D01*
X40904819Y-50357142D02*
X40952438Y-50214285D01*
X40952438Y-50214285D02*
X41000057Y-50166666D01*
X41904819Y-49690475D02*
X41904819Y-49499999D01*
X41904819Y-49499999D02*
X41857200Y-49404761D01*
X41857200Y-49404761D02*
X41809580Y-49357142D01*
X41809580Y-49357142D02*
X41666723Y-49261904D01*
X41666723Y-49261904D02*
X41476247Y-49214285D01*
X41476247Y-49214285D02*
X41095295Y-49214285D01*
X41095295Y-49214285D02*
X41000057Y-49261904D01*
X41000057Y-49261904D02*
X40952438Y-49309523D01*
X40952438Y-49309523D02*
X40904819Y-49404761D01*
X40904819Y-49404761D02*
X40904819Y-49595237D01*
X40904819Y-49595237D02*
X40952438Y-49690475D01*
X40952438Y-49690475D02*
X41000057Y-49738094D01*
X41000057Y-49738094D02*
X41095295Y-49785713D01*
X41095295Y-49785713D02*
X41333390Y-49785713D01*
X41333390Y-49785713D02*
X41428628Y-49738094D01*
X41428628Y-49738094D02*
X41476247Y-49690475D01*
X41476247Y-49690475D02*
X41523866Y-49595237D01*
X41523866Y-49595237D02*
X41523866Y-49404761D01*
X41523866Y-49404761D02*
X41476247Y-49309523D01*
X41476247Y-49309523D02*
X41428628Y-49261904D01*
X41428628Y-49261904D02*
X41333390Y-49214285D01*
X41738095Y-56954819D02*
X41738095Y-57764342D01*
X41738095Y-57764342D02*
X41785714Y-57859580D01*
X41785714Y-57859580D02*
X41833333Y-57907200D01*
X41833333Y-57907200D02*
X41928571Y-57954819D01*
X41928571Y-57954819D02*
X42119047Y-57954819D01*
X42119047Y-57954819D02*
X42214285Y-57907200D01*
X42214285Y-57907200D02*
X42261904Y-57859580D01*
X42261904Y-57859580D02*
X42309523Y-57764342D01*
X42309523Y-57764342D02*
X42309523Y-56954819D01*
X42690476Y-56954819D02*
X43309523Y-56954819D01*
X43309523Y-56954819D02*
X42976190Y-57335771D01*
X42976190Y-57335771D02*
X43119047Y-57335771D01*
X43119047Y-57335771D02*
X43214285Y-57383390D01*
X43214285Y-57383390D02*
X43261904Y-57431009D01*
X43261904Y-57431009D02*
X43309523Y-57526247D01*
X43309523Y-57526247D02*
X43309523Y-57764342D01*
X43309523Y-57764342D02*
X43261904Y-57859580D01*
X43261904Y-57859580D02*
X43214285Y-57907200D01*
X43214285Y-57907200D02*
X43119047Y-57954819D01*
X43119047Y-57954819D02*
X42833333Y-57954819D01*
X42833333Y-57954819D02*
X42738095Y-57907200D01*
X42738095Y-57907200D02*
X42690476Y-57859580D01*
X91059580Y-63042857D02*
X91107200Y-63090476D01*
X91107200Y-63090476D02*
X91154819Y-63233333D01*
X91154819Y-63233333D02*
X91154819Y-63328571D01*
X91154819Y-63328571D02*
X91107200Y-63471428D01*
X91107200Y-63471428D02*
X91011961Y-63566666D01*
X91011961Y-63566666D02*
X90916723Y-63614285D01*
X90916723Y-63614285D02*
X90726247Y-63661904D01*
X90726247Y-63661904D02*
X90583390Y-63661904D01*
X90583390Y-63661904D02*
X90392914Y-63614285D01*
X90392914Y-63614285D02*
X90297676Y-63566666D01*
X90297676Y-63566666D02*
X90202438Y-63471428D01*
X90202438Y-63471428D02*
X90154819Y-63328571D01*
X90154819Y-63328571D02*
X90154819Y-63233333D01*
X90154819Y-63233333D02*
X90202438Y-63090476D01*
X90202438Y-63090476D02*
X90250057Y-63042857D01*
X90250057Y-62661904D02*
X90202438Y-62614285D01*
X90202438Y-62614285D02*
X90154819Y-62519047D01*
X90154819Y-62519047D02*
X90154819Y-62280952D01*
X90154819Y-62280952D02*
X90202438Y-62185714D01*
X90202438Y-62185714D02*
X90250057Y-62138095D01*
X90250057Y-62138095D02*
X90345295Y-62090476D01*
X90345295Y-62090476D02*
X90440533Y-62090476D01*
X90440533Y-62090476D02*
X90583390Y-62138095D01*
X90583390Y-62138095D02*
X91154819Y-62709523D01*
X91154819Y-62709523D02*
X91154819Y-62090476D01*
X90154819Y-61757142D02*
X90154819Y-61138095D01*
X90154819Y-61138095D02*
X90535771Y-61471428D01*
X90535771Y-61471428D02*
X90535771Y-61328571D01*
X90535771Y-61328571D02*
X90583390Y-61233333D01*
X90583390Y-61233333D02*
X90631009Y-61185714D01*
X90631009Y-61185714D02*
X90726247Y-61138095D01*
X90726247Y-61138095D02*
X90964342Y-61138095D01*
X90964342Y-61138095D02*
X91059580Y-61185714D01*
X91059580Y-61185714D02*
X91107200Y-61233333D01*
X91107200Y-61233333D02*
X91154819Y-61328571D01*
X91154819Y-61328571D02*
X91154819Y-61614285D01*
X91154819Y-61614285D02*
X91107200Y-61709523D01*
X91107200Y-61709523D02*
X91059580Y-61757142D01*
X61976190Y-21954819D02*
X61976190Y-20954819D01*
X61976190Y-20954819D02*
X62357142Y-20954819D01*
X62357142Y-20954819D02*
X62452380Y-21002438D01*
X62452380Y-21002438D02*
X62499999Y-21050057D01*
X62499999Y-21050057D02*
X62547618Y-21145295D01*
X62547618Y-21145295D02*
X62547618Y-21288152D01*
X62547618Y-21288152D02*
X62499999Y-21383390D01*
X62499999Y-21383390D02*
X62452380Y-21431009D01*
X62452380Y-21431009D02*
X62357142Y-21478628D01*
X62357142Y-21478628D02*
X61976190Y-21478628D01*
X62976190Y-21954819D02*
X62976190Y-20954819D01*
X62976190Y-21431009D02*
X63547618Y-21431009D01*
X63547618Y-21954819D02*
X63547618Y-20954819D01*
X63976190Y-21669104D02*
X64452380Y-21669104D01*
X63880952Y-21954819D02*
X64214285Y-20954819D01*
X64214285Y-20954819D02*
X64547618Y-21954819D01*
X64833333Y-21907200D02*
X64976190Y-21954819D01*
X64976190Y-21954819D02*
X65214285Y-21954819D01*
X65214285Y-21954819D02*
X65309523Y-21907200D01*
X65309523Y-21907200D02*
X65357142Y-21859580D01*
X65357142Y-21859580D02*
X65404761Y-21764342D01*
X65404761Y-21764342D02*
X65404761Y-21669104D01*
X65404761Y-21669104D02*
X65357142Y-21573866D01*
X65357142Y-21573866D02*
X65309523Y-21526247D01*
X65309523Y-21526247D02*
X65214285Y-21478628D01*
X65214285Y-21478628D02*
X65023809Y-21431009D01*
X65023809Y-21431009D02*
X64928571Y-21383390D01*
X64928571Y-21383390D02*
X64880952Y-21335771D01*
X64880952Y-21335771D02*
X64833333Y-21240533D01*
X64833333Y-21240533D02*
X64833333Y-21145295D01*
X64833333Y-21145295D02*
X64880952Y-21050057D01*
X64880952Y-21050057D02*
X64928571Y-21002438D01*
X64928571Y-21002438D02*
X65023809Y-20954819D01*
X65023809Y-20954819D02*
X65261904Y-20954819D01*
X65261904Y-20954819D02*
X65404761Y-21002438D01*
X65833333Y-21431009D02*
X66166666Y-21431009D01*
X66309523Y-21954819D02*
X65833333Y-21954819D01*
X65833333Y-21954819D02*
X65833333Y-20954819D01*
X65833333Y-20954819D02*
X66309523Y-20954819D01*
X67833333Y-21431009D02*
X67976190Y-21478628D01*
X67976190Y-21478628D02*
X68023809Y-21526247D01*
X68023809Y-21526247D02*
X68071428Y-21621485D01*
X68071428Y-21621485D02*
X68071428Y-21764342D01*
X68071428Y-21764342D02*
X68023809Y-21859580D01*
X68023809Y-21859580D02*
X67976190Y-21907200D01*
X67976190Y-21907200D02*
X67880952Y-21954819D01*
X67880952Y-21954819D02*
X67500000Y-21954819D01*
X67500000Y-21954819D02*
X67500000Y-20954819D01*
X67500000Y-20954819D02*
X67833333Y-20954819D01*
X67833333Y-20954819D02*
X67928571Y-21002438D01*
X67928571Y-21002438D02*
X67976190Y-21050057D01*
X67976190Y-21050057D02*
X68023809Y-21145295D01*
X68023809Y-21145295D02*
X68023809Y-21240533D01*
X68023809Y-21240533D02*
X67976190Y-21335771D01*
X67976190Y-21335771D02*
X67928571Y-21383390D01*
X67928571Y-21383390D02*
X67833333Y-21431009D01*
X67833333Y-21431009D02*
X67500000Y-21431009D01*
X61954819Y-61876816D02*
X61478628Y-62210149D01*
X61954819Y-62448244D02*
X60954819Y-62448244D01*
X60954819Y-62448244D02*
X60954819Y-62067292D01*
X60954819Y-62067292D02*
X61002438Y-61972054D01*
X61002438Y-61972054D02*
X61050057Y-61924435D01*
X61050057Y-61924435D02*
X61145295Y-61876816D01*
X61145295Y-61876816D02*
X61288152Y-61876816D01*
X61288152Y-61876816D02*
X61383390Y-61924435D01*
X61383390Y-61924435D02*
X61431009Y-61972054D01*
X61431009Y-61972054D02*
X61478628Y-62067292D01*
X61478628Y-62067292D02*
X61478628Y-62448244D01*
X61954819Y-60924435D02*
X61954819Y-61495863D01*
X61954819Y-61210149D02*
X60954819Y-61210149D01*
X60954819Y-61210149D02*
X61097676Y-61305387D01*
X61097676Y-61305387D02*
X61192914Y-61400625D01*
X61192914Y-61400625D02*
X61240533Y-61495863D01*
X60954819Y-60591101D02*
X60954819Y-59972054D01*
X60954819Y-59972054D02*
X61335771Y-60305387D01*
X61335771Y-60305387D02*
X61335771Y-60162530D01*
X61335771Y-60162530D02*
X61383390Y-60067292D01*
X61383390Y-60067292D02*
X61431009Y-60019673D01*
X61431009Y-60019673D02*
X61526247Y-59972054D01*
X61526247Y-59972054D02*
X61764342Y-59972054D01*
X61764342Y-59972054D02*
X61859580Y-60019673D01*
X61859580Y-60019673D02*
X61907200Y-60067292D01*
X61907200Y-60067292D02*
X61954819Y-60162530D01*
X61954819Y-60162530D02*
X61954819Y-60448244D01*
X61954819Y-60448244D02*
X61907200Y-60543482D01*
X61907200Y-60543482D02*
X61859580Y-60591101D01*
X86246666Y-72454819D02*
X86246666Y-73169104D01*
X86246666Y-73169104D02*
X86199047Y-73311961D01*
X86199047Y-73311961D02*
X86103809Y-73407200D01*
X86103809Y-73407200D02*
X85960952Y-73454819D01*
X85960952Y-73454819D02*
X85865714Y-73454819D01*
X87151428Y-72788152D02*
X87151428Y-73454819D01*
X86913333Y-72407200D02*
X86675238Y-73121485D01*
X86675238Y-73121485D02*
X87294285Y-73121485D01*
X88056190Y-73454819D02*
X88056190Y-72454819D01*
X88056190Y-72454819D02*
X88437142Y-72454819D01*
X88437142Y-72454819D02*
X88532380Y-72502438D01*
X88532380Y-72502438D02*
X88579999Y-72550057D01*
X88579999Y-72550057D02*
X88627618Y-72645295D01*
X88627618Y-72645295D02*
X88627618Y-72788152D01*
X88627618Y-72788152D02*
X88579999Y-72883390D01*
X88579999Y-72883390D02*
X88532380Y-72931009D01*
X88532380Y-72931009D02*
X88437142Y-72978628D01*
X88437142Y-72978628D02*
X88056190Y-72978628D01*
X89056190Y-73454819D02*
X89056190Y-72454819D01*
X89056190Y-72931009D02*
X89627618Y-72931009D01*
X89627618Y-73454819D02*
X89627618Y-72454819D01*
X90056190Y-73169104D02*
X90532380Y-73169104D01*
X89960952Y-73454819D02*
X90294285Y-72454819D01*
X90294285Y-72454819D02*
X90627618Y-73454819D01*
X90913333Y-73407200D02*
X91056190Y-73454819D01*
X91056190Y-73454819D02*
X91294285Y-73454819D01*
X91294285Y-73454819D02*
X91389523Y-73407200D01*
X91389523Y-73407200D02*
X91437142Y-73359580D01*
X91437142Y-73359580D02*
X91484761Y-73264342D01*
X91484761Y-73264342D02*
X91484761Y-73169104D01*
X91484761Y-73169104D02*
X91437142Y-73073866D01*
X91437142Y-73073866D02*
X91389523Y-73026247D01*
X91389523Y-73026247D02*
X91294285Y-72978628D01*
X91294285Y-72978628D02*
X91103809Y-72931009D01*
X91103809Y-72931009D02*
X91008571Y-72883390D01*
X91008571Y-72883390D02*
X90960952Y-72835771D01*
X90960952Y-72835771D02*
X90913333Y-72740533D01*
X90913333Y-72740533D02*
X90913333Y-72645295D01*
X90913333Y-72645295D02*
X90960952Y-72550057D01*
X90960952Y-72550057D02*
X91008571Y-72502438D01*
X91008571Y-72502438D02*
X91103809Y-72454819D01*
X91103809Y-72454819D02*
X91341904Y-72454819D01*
X91341904Y-72454819D02*
X91484761Y-72502438D01*
X91913333Y-72931009D02*
X92246666Y-72931009D01*
X92389523Y-73454819D02*
X91913333Y-73454819D01*
X91913333Y-73454819D02*
X91913333Y-72454819D01*
X91913333Y-72454819D02*
X92389523Y-72454819D01*
X94151428Y-73359580D02*
X94103809Y-73407200D01*
X94103809Y-73407200D02*
X93960952Y-73454819D01*
X93960952Y-73454819D02*
X93865714Y-73454819D01*
X93865714Y-73454819D02*
X93722857Y-73407200D01*
X93722857Y-73407200D02*
X93627619Y-73311961D01*
X93627619Y-73311961D02*
X93580000Y-73216723D01*
X93580000Y-73216723D02*
X93532381Y-73026247D01*
X93532381Y-73026247D02*
X93532381Y-72883390D01*
X93532381Y-72883390D02*
X93580000Y-72692914D01*
X93580000Y-72692914D02*
X93627619Y-72597676D01*
X93627619Y-72597676D02*
X93722857Y-72502438D01*
X93722857Y-72502438D02*
X93865714Y-72454819D01*
X93865714Y-72454819D02*
X93960952Y-72454819D01*
X93960952Y-72454819D02*
X94103809Y-72502438D01*
X94103809Y-72502438D02*
X94151428Y-72550057D01*
X99333333Y-54822080D02*
X99285714Y-54869700D01*
X99285714Y-54869700D02*
X99142857Y-54917319D01*
X99142857Y-54917319D02*
X99047619Y-54917319D01*
X99047619Y-54917319D02*
X98904762Y-54869700D01*
X98904762Y-54869700D02*
X98809524Y-54774461D01*
X98809524Y-54774461D02*
X98761905Y-54679223D01*
X98761905Y-54679223D02*
X98714286Y-54488747D01*
X98714286Y-54488747D02*
X98714286Y-54345890D01*
X98714286Y-54345890D02*
X98761905Y-54155414D01*
X98761905Y-54155414D02*
X98809524Y-54060176D01*
X98809524Y-54060176D02*
X98904762Y-53964938D01*
X98904762Y-53964938D02*
X99047619Y-53917319D01*
X99047619Y-53917319D02*
X99142857Y-53917319D01*
X99142857Y-53917319D02*
X99285714Y-53964938D01*
X99285714Y-53964938D02*
X99333333Y-54012557D01*
X100238095Y-53917319D02*
X99761905Y-53917319D01*
X99761905Y-53917319D02*
X99714286Y-54393509D01*
X99714286Y-54393509D02*
X99761905Y-54345890D01*
X99761905Y-54345890D02*
X99857143Y-54298271D01*
X99857143Y-54298271D02*
X100095238Y-54298271D01*
X100095238Y-54298271D02*
X100190476Y-54345890D01*
X100190476Y-54345890D02*
X100238095Y-54393509D01*
X100238095Y-54393509D02*
X100285714Y-54488747D01*
X100285714Y-54488747D02*
X100285714Y-54726842D01*
X100285714Y-54726842D02*
X100238095Y-54822080D01*
X100238095Y-54822080D02*
X100190476Y-54869700D01*
X100190476Y-54869700D02*
X100095238Y-54917319D01*
X100095238Y-54917319D02*
X99857143Y-54917319D01*
X99857143Y-54917319D02*
X99761905Y-54869700D01*
X99761905Y-54869700D02*
X99714286Y-54822080D01*
X44671758Y-57020304D02*
X44624139Y-57067924D01*
X44624139Y-57067924D02*
X44481282Y-57115543D01*
X44481282Y-57115543D02*
X44386044Y-57115543D01*
X44386044Y-57115543D02*
X44243187Y-57067924D01*
X44243187Y-57067924D02*
X44147949Y-56972685D01*
X44147949Y-56972685D02*
X44100330Y-56877447D01*
X44100330Y-56877447D02*
X44052711Y-56686971D01*
X44052711Y-56686971D02*
X44052711Y-56544114D01*
X44052711Y-56544114D02*
X44100330Y-56353638D01*
X44100330Y-56353638D02*
X44147949Y-56258400D01*
X44147949Y-56258400D02*
X44243187Y-56163162D01*
X44243187Y-56163162D02*
X44386044Y-56115543D01*
X44386044Y-56115543D02*
X44481282Y-56115543D01*
X44481282Y-56115543D02*
X44624139Y-56163162D01*
X44624139Y-56163162D02*
X44671758Y-56210781D01*
X45624139Y-57115543D02*
X45052711Y-57115543D01*
X45338425Y-57115543D02*
X45338425Y-56115543D01*
X45338425Y-56115543D02*
X45243187Y-56258400D01*
X45243187Y-56258400D02*
X45147949Y-56353638D01*
X45147949Y-56353638D02*
X45052711Y-56401257D01*
X46243187Y-56115543D02*
X46338425Y-56115543D01*
X46338425Y-56115543D02*
X46433663Y-56163162D01*
X46433663Y-56163162D02*
X46481282Y-56210781D01*
X46481282Y-56210781D02*
X46528901Y-56306019D01*
X46528901Y-56306019D02*
X46576520Y-56496495D01*
X46576520Y-56496495D02*
X46576520Y-56734590D01*
X46576520Y-56734590D02*
X46528901Y-56925066D01*
X46528901Y-56925066D02*
X46481282Y-57020304D01*
X46481282Y-57020304D02*
X46433663Y-57067924D01*
X46433663Y-57067924D02*
X46338425Y-57115543D01*
X46338425Y-57115543D02*
X46243187Y-57115543D01*
X46243187Y-57115543D02*
X46147949Y-57067924D01*
X46147949Y-57067924D02*
X46100330Y-57020304D01*
X46100330Y-57020304D02*
X46052711Y-56925066D01*
X46052711Y-56925066D02*
X46005092Y-56734590D01*
X46005092Y-56734590D02*
X46005092Y-56496495D01*
X46005092Y-56496495D02*
X46052711Y-56306019D01*
X46052711Y-56306019D02*
X46100330Y-56210781D01*
X46100330Y-56210781D02*
X46147949Y-56163162D01*
X46147949Y-56163162D02*
X46243187Y-56115543D01*
X43333333Y-62954819D02*
X43000000Y-62478628D01*
X42761905Y-62954819D02*
X42761905Y-61954819D01*
X42761905Y-61954819D02*
X43142857Y-61954819D01*
X43142857Y-61954819D02*
X43238095Y-62002438D01*
X43238095Y-62002438D02*
X43285714Y-62050057D01*
X43285714Y-62050057D02*
X43333333Y-62145295D01*
X43333333Y-62145295D02*
X43333333Y-62288152D01*
X43333333Y-62288152D02*
X43285714Y-62383390D01*
X43285714Y-62383390D02*
X43238095Y-62431009D01*
X43238095Y-62431009D02*
X43142857Y-62478628D01*
X43142857Y-62478628D02*
X42761905Y-62478628D01*
X44190476Y-61954819D02*
X44000000Y-61954819D01*
X44000000Y-61954819D02*
X43904762Y-62002438D01*
X43904762Y-62002438D02*
X43857143Y-62050057D01*
X43857143Y-62050057D02*
X43761905Y-62192914D01*
X43761905Y-62192914D02*
X43714286Y-62383390D01*
X43714286Y-62383390D02*
X43714286Y-62764342D01*
X43714286Y-62764342D02*
X43761905Y-62859580D01*
X43761905Y-62859580D02*
X43809524Y-62907200D01*
X43809524Y-62907200D02*
X43904762Y-62954819D01*
X43904762Y-62954819D02*
X44095238Y-62954819D01*
X44095238Y-62954819D02*
X44190476Y-62907200D01*
X44190476Y-62907200D02*
X44238095Y-62859580D01*
X44238095Y-62859580D02*
X44285714Y-62764342D01*
X44285714Y-62764342D02*
X44285714Y-62526247D01*
X44285714Y-62526247D02*
X44238095Y-62431009D01*
X44238095Y-62431009D02*
X44190476Y-62383390D01*
X44190476Y-62383390D02*
X44095238Y-62335771D01*
X44095238Y-62335771D02*
X43904762Y-62335771D01*
X43904762Y-62335771D02*
X43809524Y-62383390D01*
X43809524Y-62383390D02*
X43761905Y-62431009D01*
X43761905Y-62431009D02*
X43714286Y-62526247D01*
X39059580Y-63042857D02*
X39107200Y-63090476D01*
X39107200Y-63090476D02*
X39154819Y-63233333D01*
X39154819Y-63233333D02*
X39154819Y-63328571D01*
X39154819Y-63328571D02*
X39107200Y-63471428D01*
X39107200Y-63471428D02*
X39011961Y-63566666D01*
X39011961Y-63566666D02*
X38916723Y-63614285D01*
X38916723Y-63614285D02*
X38726247Y-63661904D01*
X38726247Y-63661904D02*
X38583390Y-63661904D01*
X38583390Y-63661904D02*
X38392914Y-63614285D01*
X38392914Y-63614285D02*
X38297676Y-63566666D01*
X38297676Y-63566666D02*
X38202438Y-63471428D01*
X38202438Y-63471428D02*
X38154819Y-63328571D01*
X38154819Y-63328571D02*
X38154819Y-63233333D01*
X38154819Y-63233333D02*
X38202438Y-63090476D01*
X38202438Y-63090476D02*
X38250057Y-63042857D01*
X38250057Y-62661904D02*
X38202438Y-62614285D01*
X38202438Y-62614285D02*
X38154819Y-62519047D01*
X38154819Y-62519047D02*
X38154819Y-62280952D01*
X38154819Y-62280952D02*
X38202438Y-62185714D01*
X38202438Y-62185714D02*
X38250057Y-62138095D01*
X38250057Y-62138095D02*
X38345295Y-62090476D01*
X38345295Y-62090476D02*
X38440533Y-62090476D01*
X38440533Y-62090476D02*
X38583390Y-62138095D01*
X38583390Y-62138095D02*
X39154819Y-62709523D01*
X39154819Y-62709523D02*
X39154819Y-62090476D01*
X39154819Y-61138095D02*
X39154819Y-61709523D01*
X39154819Y-61423809D02*
X38154819Y-61423809D01*
X38154819Y-61423809D02*
X38297676Y-61519047D01*
X38297676Y-61519047D02*
X38392914Y-61614285D01*
X38392914Y-61614285D02*
X38440533Y-61709523D01*
X35954819Y-61166666D02*
X35478628Y-61499999D01*
X35954819Y-61738094D02*
X34954819Y-61738094D01*
X34954819Y-61738094D02*
X34954819Y-61357142D01*
X34954819Y-61357142D02*
X35002438Y-61261904D01*
X35002438Y-61261904D02*
X35050057Y-61214285D01*
X35050057Y-61214285D02*
X35145295Y-61166666D01*
X35145295Y-61166666D02*
X35288152Y-61166666D01*
X35288152Y-61166666D02*
X35383390Y-61214285D01*
X35383390Y-61214285D02*
X35431009Y-61261904D01*
X35431009Y-61261904D02*
X35478628Y-61357142D01*
X35478628Y-61357142D02*
X35478628Y-61738094D01*
X34954819Y-60833332D02*
X34954819Y-60166666D01*
X34954819Y-60166666D02*
X35954819Y-60595237D01*
X56116997Y-46205092D02*
X55640806Y-46538425D01*
X56116997Y-46776520D02*
X55116997Y-46776520D01*
X55116997Y-46776520D02*
X55116997Y-46395568D01*
X55116997Y-46395568D02*
X55164616Y-46300330D01*
X55164616Y-46300330D02*
X55212235Y-46252711D01*
X55212235Y-46252711D02*
X55307473Y-46205092D01*
X55307473Y-46205092D02*
X55450330Y-46205092D01*
X55450330Y-46205092D02*
X55545568Y-46252711D01*
X55545568Y-46252711D02*
X55593187Y-46300330D01*
X55593187Y-46300330D02*
X55640806Y-46395568D01*
X55640806Y-46395568D02*
X55640806Y-46776520D01*
X55545568Y-45633663D02*
X55497949Y-45728901D01*
X55497949Y-45728901D02*
X55450330Y-45776520D01*
X55450330Y-45776520D02*
X55355092Y-45824139D01*
X55355092Y-45824139D02*
X55307473Y-45824139D01*
X55307473Y-45824139D02*
X55212235Y-45776520D01*
X55212235Y-45776520D02*
X55164616Y-45728901D01*
X55164616Y-45728901D02*
X55116997Y-45633663D01*
X55116997Y-45633663D02*
X55116997Y-45443187D01*
X55116997Y-45443187D02*
X55164616Y-45347949D01*
X55164616Y-45347949D02*
X55212235Y-45300330D01*
X55212235Y-45300330D02*
X55307473Y-45252711D01*
X55307473Y-45252711D02*
X55355092Y-45252711D01*
X55355092Y-45252711D02*
X55450330Y-45300330D01*
X55450330Y-45300330D02*
X55497949Y-45347949D01*
X55497949Y-45347949D02*
X55545568Y-45443187D01*
X55545568Y-45443187D02*
X55545568Y-45633663D01*
X55545568Y-45633663D02*
X55593187Y-45728901D01*
X55593187Y-45728901D02*
X55640806Y-45776520D01*
X55640806Y-45776520D02*
X55736044Y-45824139D01*
X55736044Y-45824139D02*
X55926520Y-45824139D01*
X55926520Y-45824139D02*
X56021758Y-45776520D01*
X56021758Y-45776520D02*
X56069378Y-45728901D01*
X56069378Y-45728901D02*
X56116997Y-45633663D01*
X56116997Y-45633663D02*
X56116997Y-45443187D01*
X56116997Y-45443187D02*
X56069378Y-45347949D01*
X56069378Y-45347949D02*
X56021758Y-45300330D01*
X56021758Y-45300330D02*
X55926520Y-45252711D01*
X55926520Y-45252711D02*
X55736044Y-45252711D01*
X55736044Y-45252711D02*
X55640806Y-45300330D01*
X55640806Y-45300330D02*
X55593187Y-45347949D01*
X55593187Y-45347949D02*
X55545568Y-45443187D01*
X65059580Y-62942857D02*
X65107200Y-62990476D01*
X65107200Y-62990476D02*
X65154819Y-63133333D01*
X65154819Y-63133333D02*
X65154819Y-63228571D01*
X65154819Y-63228571D02*
X65107200Y-63371428D01*
X65107200Y-63371428D02*
X65011961Y-63466666D01*
X65011961Y-63466666D02*
X64916723Y-63514285D01*
X64916723Y-63514285D02*
X64726247Y-63561904D01*
X64726247Y-63561904D02*
X64583390Y-63561904D01*
X64583390Y-63561904D02*
X64392914Y-63514285D01*
X64392914Y-63514285D02*
X64297676Y-63466666D01*
X64297676Y-63466666D02*
X64202438Y-63371428D01*
X64202438Y-63371428D02*
X64154819Y-63228571D01*
X64154819Y-63228571D02*
X64154819Y-63133333D01*
X64154819Y-63133333D02*
X64202438Y-62990476D01*
X64202438Y-62990476D02*
X64250057Y-62942857D01*
X64250057Y-62561904D02*
X64202438Y-62514285D01*
X64202438Y-62514285D02*
X64154819Y-62419047D01*
X64154819Y-62419047D02*
X64154819Y-62180952D01*
X64154819Y-62180952D02*
X64202438Y-62085714D01*
X64202438Y-62085714D02*
X64250057Y-62038095D01*
X64250057Y-62038095D02*
X64345295Y-61990476D01*
X64345295Y-61990476D02*
X64440533Y-61990476D01*
X64440533Y-61990476D02*
X64583390Y-62038095D01*
X64583390Y-62038095D02*
X65154819Y-62609523D01*
X65154819Y-62609523D02*
X65154819Y-61990476D01*
X64250057Y-61609523D02*
X64202438Y-61561904D01*
X64202438Y-61561904D02*
X64154819Y-61466666D01*
X64154819Y-61466666D02*
X64154819Y-61228571D01*
X64154819Y-61228571D02*
X64202438Y-61133333D01*
X64202438Y-61133333D02*
X64250057Y-61085714D01*
X64250057Y-61085714D02*
X64345295Y-61038095D01*
X64345295Y-61038095D02*
X64440533Y-61038095D01*
X64440533Y-61038095D02*
X64583390Y-61085714D01*
X64583390Y-61085714D02*
X65154819Y-61657142D01*
X65154819Y-61657142D02*
X65154819Y-61038095D01*
X80238095Y-59954819D02*
X80238095Y-60764342D01*
X80238095Y-60764342D02*
X80285714Y-60859580D01*
X80285714Y-60859580D02*
X80333333Y-60907200D01*
X80333333Y-60907200D02*
X80428571Y-60954819D01*
X80428571Y-60954819D02*
X80619047Y-60954819D01*
X80619047Y-60954819D02*
X80714285Y-60907200D01*
X80714285Y-60907200D02*
X80761904Y-60859580D01*
X80761904Y-60859580D02*
X80809523Y-60764342D01*
X80809523Y-60764342D02*
X80809523Y-59954819D01*
X81428571Y-60383390D02*
X81333333Y-60335771D01*
X81333333Y-60335771D02*
X81285714Y-60288152D01*
X81285714Y-60288152D02*
X81238095Y-60192914D01*
X81238095Y-60192914D02*
X81238095Y-60145295D01*
X81238095Y-60145295D02*
X81285714Y-60050057D01*
X81285714Y-60050057D02*
X81333333Y-60002438D01*
X81333333Y-60002438D02*
X81428571Y-59954819D01*
X81428571Y-59954819D02*
X81619047Y-59954819D01*
X81619047Y-59954819D02*
X81714285Y-60002438D01*
X81714285Y-60002438D02*
X81761904Y-60050057D01*
X81761904Y-60050057D02*
X81809523Y-60145295D01*
X81809523Y-60145295D02*
X81809523Y-60192914D01*
X81809523Y-60192914D02*
X81761904Y-60288152D01*
X81761904Y-60288152D02*
X81714285Y-60335771D01*
X81714285Y-60335771D02*
X81619047Y-60383390D01*
X81619047Y-60383390D02*
X81428571Y-60383390D01*
X81428571Y-60383390D02*
X81333333Y-60431009D01*
X81333333Y-60431009D02*
X81285714Y-60478628D01*
X81285714Y-60478628D02*
X81238095Y-60573866D01*
X81238095Y-60573866D02*
X81238095Y-60764342D01*
X81238095Y-60764342D02*
X81285714Y-60859580D01*
X81285714Y-60859580D02*
X81333333Y-60907200D01*
X81333333Y-60907200D02*
X81428571Y-60954819D01*
X81428571Y-60954819D02*
X81619047Y-60954819D01*
X81619047Y-60954819D02*
X81714285Y-60907200D01*
X81714285Y-60907200D02*
X81761904Y-60859580D01*
X81761904Y-60859580D02*
X81809523Y-60764342D01*
X81809523Y-60764342D02*
X81809523Y-60573866D01*
X81809523Y-60573866D02*
X81761904Y-60478628D01*
X81761904Y-60478628D02*
X81714285Y-60431009D01*
X81714285Y-60431009D02*
X81619047Y-60383390D01*
X80027873Y-73642541D02*
X79980254Y-73690161D01*
X79980254Y-73690161D02*
X79837397Y-73737780D01*
X79837397Y-73737780D02*
X79742159Y-73737780D01*
X79742159Y-73737780D02*
X79599302Y-73690161D01*
X79599302Y-73690161D02*
X79504064Y-73594922D01*
X79504064Y-73594922D02*
X79456445Y-73499684D01*
X79456445Y-73499684D02*
X79408826Y-73309208D01*
X79408826Y-73309208D02*
X79408826Y-73166351D01*
X79408826Y-73166351D02*
X79456445Y-72975875D01*
X79456445Y-72975875D02*
X79504064Y-72880637D01*
X79504064Y-72880637D02*
X79599302Y-72785399D01*
X79599302Y-72785399D02*
X79742159Y-72737780D01*
X79742159Y-72737780D02*
X79837397Y-72737780D01*
X79837397Y-72737780D02*
X79980254Y-72785399D01*
X79980254Y-72785399D02*
X80027873Y-72833018D01*
X80980254Y-73737780D02*
X80408826Y-73737780D01*
X80694540Y-73737780D02*
X80694540Y-72737780D01*
X80694540Y-72737780D02*
X80599302Y-72880637D01*
X80599302Y-72880637D02*
X80504064Y-72975875D01*
X80504064Y-72975875D02*
X80408826Y-73023494D01*
X81837397Y-72737780D02*
X81646921Y-72737780D01*
X81646921Y-72737780D02*
X81551683Y-72785399D01*
X81551683Y-72785399D02*
X81504064Y-72833018D01*
X81504064Y-72833018D02*
X81408826Y-72975875D01*
X81408826Y-72975875D02*
X81361207Y-73166351D01*
X81361207Y-73166351D02*
X81361207Y-73547303D01*
X81361207Y-73547303D02*
X81408826Y-73642541D01*
X81408826Y-73642541D02*
X81456445Y-73690161D01*
X81456445Y-73690161D02*
X81551683Y-73737780D01*
X81551683Y-73737780D02*
X81742159Y-73737780D01*
X81742159Y-73737780D02*
X81837397Y-73690161D01*
X81837397Y-73690161D02*
X81885016Y-73642541D01*
X81885016Y-73642541D02*
X81932635Y-73547303D01*
X81932635Y-73547303D02*
X81932635Y-73309208D01*
X81932635Y-73309208D02*
X81885016Y-73213970D01*
X81885016Y-73213970D02*
X81837397Y-73166351D01*
X81837397Y-73166351D02*
X81742159Y-73118732D01*
X81742159Y-73118732D02*
X81551683Y-73118732D01*
X81551683Y-73118732D02*
X81456445Y-73166351D01*
X81456445Y-73166351D02*
X81408826Y-73213970D01*
X81408826Y-73213970D02*
X81361207Y-73309208D01*
X99737319Y-72333333D02*
X100451604Y-72333333D01*
X100451604Y-72333333D02*
X100594461Y-72380952D01*
X100594461Y-72380952D02*
X100689700Y-72476190D01*
X100689700Y-72476190D02*
X100737319Y-72619047D01*
X100737319Y-72619047D02*
X100737319Y-72714285D01*
X100737319Y-71333333D02*
X100737319Y-71904761D01*
X100737319Y-71619047D02*
X99737319Y-71619047D01*
X99737319Y-71619047D02*
X99880176Y-71714285D01*
X99880176Y-71714285D02*
X99975414Y-71809523D01*
X99975414Y-71809523D02*
X100023033Y-71904761D01*
X82203028Y-47090360D02*
X81726837Y-47423693D01*
X82203028Y-47661788D02*
X81203028Y-47661788D01*
X81203028Y-47661788D02*
X81203028Y-47280836D01*
X81203028Y-47280836D02*
X81250647Y-47185598D01*
X81250647Y-47185598D02*
X81298266Y-47137979D01*
X81298266Y-47137979D02*
X81393504Y-47090360D01*
X81393504Y-47090360D02*
X81536361Y-47090360D01*
X81536361Y-47090360D02*
X81631599Y-47137979D01*
X81631599Y-47137979D02*
X81679218Y-47185598D01*
X81679218Y-47185598D02*
X81726837Y-47280836D01*
X81726837Y-47280836D02*
X81726837Y-47661788D01*
X82203028Y-46137979D02*
X82203028Y-46709407D01*
X82203028Y-46423693D02*
X81203028Y-46423693D01*
X81203028Y-46423693D02*
X81345885Y-46518931D01*
X81345885Y-46518931D02*
X81441123Y-46614169D01*
X81441123Y-46614169D02*
X81488742Y-46709407D01*
X81536361Y-45280836D02*
X82203028Y-45280836D01*
X81155409Y-45518931D02*
X81869694Y-45757026D01*
X81869694Y-45757026D02*
X81869694Y-45137979D01*
X60246666Y-72454819D02*
X60246666Y-73169104D01*
X60246666Y-73169104D02*
X60199047Y-73311961D01*
X60199047Y-73311961D02*
X60103809Y-73407200D01*
X60103809Y-73407200D02*
X59960952Y-73454819D01*
X59960952Y-73454819D02*
X59865714Y-73454819D01*
X60627619Y-72454819D02*
X61246666Y-72454819D01*
X61246666Y-72454819D02*
X60913333Y-72835771D01*
X60913333Y-72835771D02*
X61056190Y-72835771D01*
X61056190Y-72835771D02*
X61151428Y-72883390D01*
X61151428Y-72883390D02*
X61199047Y-72931009D01*
X61199047Y-72931009D02*
X61246666Y-73026247D01*
X61246666Y-73026247D02*
X61246666Y-73264342D01*
X61246666Y-73264342D02*
X61199047Y-73359580D01*
X61199047Y-73359580D02*
X61151428Y-73407200D01*
X61151428Y-73407200D02*
X61056190Y-73454819D01*
X61056190Y-73454819D02*
X60770476Y-73454819D01*
X60770476Y-73454819D02*
X60675238Y-73407200D01*
X60675238Y-73407200D02*
X60627619Y-73359580D01*
X62056190Y-73454819D02*
X62056190Y-72454819D01*
X62056190Y-72454819D02*
X62437142Y-72454819D01*
X62437142Y-72454819D02*
X62532380Y-72502438D01*
X62532380Y-72502438D02*
X62579999Y-72550057D01*
X62579999Y-72550057D02*
X62627618Y-72645295D01*
X62627618Y-72645295D02*
X62627618Y-72788152D01*
X62627618Y-72788152D02*
X62579999Y-72883390D01*
X62579999Y-72883390D02*
X62532380Y-72931009D01*
X62532380Y-72931009D02*
X62437142Y-72978628D01*
X62437142Y-72978628D02*
X62056190Y-72978628D01*
X63056190Y-73454819D02*
X63056190Y-72454819D01*
X63056190Y-72931009D02*
X63627618Y-72931009D01*
X63627618Y-73454819D02*
X63627618Y-72454819D01*
X64056190Y-73169104D02*
X64532380Y-73169104D01*
X63960952Y-73454819D02*
X64294285Y-72454819D01*
X64294285Y-72454819D02*
X64627618Y-73454819D01*
X64913333Y-73407200D02*
X65056190Y-73454819D01*
X65056190Y-73454819D02*
X65294285Y-73454819D01*
X65294285Y-73454819D02*
X65389523Y-73407200D01*
X65389523Y-73407200D02*
X65437142Y-73359580D01*
X65437142Y-73359580D02*
X65484761Y-73264342D01*
X65484761Y-73264342D02*
X65484761Y-73169104D01*
X65484761Y-73169104D02*
X65437142Y-73073866D01*
X65437142Y-73073866D02*
X65389523Y-73026247D01*
X65389523Y-73026247D02*
X65294285Y-72978628D01*
X65294285Y-72978628D02*
X65103809Y-72931009D01*
X65103809Y-72931009D02*
X65008571Y-72883390D01*
X65008571Y-72883390D02*
X64960952Y-72835771D01*
X64960952Y-72835771D02*
X64913333Y-72740533D01*
X64913333Y-72740533D02*
X64913333Y-72645295D01*
X64913333Y-72645295D02*
X64960952Y-72550057D01*
X64960952Y-72550057D02*
X65008571Y-72502438D01*
X65008571Y-72502438D02*
X65103809Y-72454819D01*
X65103809Y-72454819D02*
X65341904Y-72454819D01*
X65341904Y-72454819D02*
X65484761Y-72502438D01*
X65913333Y-72931009D02*
X66246666Y-72931009D01*
X66389523Y-73454819D02*
X65913333Y-73454819D01*
X65913333Y-73454819D02*
X65913333Y-72454819D01*
X65913333Y-72454819D02*
X66389523Y-72454819D01*
X67913333Y-72931009D02*
X68056190Y-72978628D01*
X68056190Y-72978628D02*
X68103809Y-73026247D01*
X68103809Y-73026247D02*
X68151428Y-73121485D01*
X68151428Y-73121485D02*
X68151428Y-73264342D01*
X68151428Y-73264342D02*
X68103809Y-73359580D01*
X68103809Y-73359580D02*
X68056190Y-73407200D01*
X68056190Y-73407200D02*
X67960952Y-73454819D01*
X67960952Y-73454819D02*
X67580000Y-73454819D01*
X67580000Y-73454819D02*
X67580000Y-72454819D01*
X67580000Y-72454819D02*
X67913333Y-72454819D01*
X67913333Y-72454819D02*
X68008571Y-72502438D01*
X68008571Y-72502438D02*
X68056190Y-72550057D01*
X68056190Y-72550057D02*
X68103809Y-72645295D01*
X68103809Y-72645295D02*
X68103809Y-72740533D01*
X68103809Y-72740533D02*
X68056190Y-72835771D01*
X68056190Y-72835771D02*
X68008571Y-72883390D01*
X68008571Y-72883390D02*
X67913333Y-72931009D01*
X67913333Y-72931009D02*
X67580000Y-72931009D01*
X34166666Y-72454819D02*
X34166666Y-73169104D01*
X34166666Y-73169104D02*
X34119047Y-73311961D01*
X34119047Y-73311961D02*
X34023809Y-73407200D01*
X34023809Y-73407200D02*
X33880952Y-73454819D01*
X33880952Y-73454819D02*
X33785714Y-73454819D01*
X34595238Y-72550057D02*
X34642857Y-72502438D01*
X34642857Y-72502438D02*
X34738095Y-72454819D01*
X34738095Y-72454819D02*
X34976190Y-72454819D01*
X34976190Y-72454819D02*
X35071428Y-72502438D01*
X35071428Y-72502438D02*
X35119047Y-72550057D01*
X35119047Y-72550057D02*
X35166666Y-72645295D01*
X35166666Y-72645295D02*
X35166666Y-72740533D01*
X35166666Y-72740533D02*
X35119047Y-72883390D01*
X35119047Y-72883390D02*
X34547619Y-73454819D01*
X34547619Y-73454819D02*
X35166666Y-73454819D01*
X36047619Y-73454819D02*
X36047619Y-72454819D01*
X36047619Y-72454819D02*
X36428571Y-72454819D01*
X36428571Y-72454819D02*
X36523809Y-72502438D01*
X36523809Y-72502438D02*
X36571428Y-72550057D01*
X36571428Y-72550057D02*
X36619047Y-72645295D01*
X36619047Y-72645295D02*
X36619047Y-72788152D01*
X36619047Y-72788152D02*
X36571428Y-72883390D01*
X36571428Y-72883390D02*
X36523809Y-72931009D01*
X36523809Y-72931009D02*
X36428571Y-72978628D01*
X36428571Y-72978628D02*
X36047619Y-72978628D01*
X37047619Y-73454819D02*
X37047619Y-72454819D01*
X37047619Y-72931009D02*
X37619047Y-72931009D01*
X37619047Y-73454819D02*
X37619047Y-72454819D01*
X38047619Y-73169104D02*
X38523809Y-73169104D01*
X37952381Y-73454819D02*
X38285714Y-72454819D01*
X38285714Y-72454819D02*
X38619047Y-73454819D01*
X38904762Y-73407200D02*
X39047619Y-73454819D01*
X39047619Y-73454819D02*
X39285714Y-73454819D01*
X39285714Y-73454819D02*
X39380952Y-73407200D01*
X39380952Y-73407200D02*
X39428571Y-73359580D01*
X39428571Y-73359580D02*
X39476190Y-73264342D01*
X39476190Y-73264342D02*
X39476190Y-73169104D01*
X39476190Y-73169104D02*
X39428571Y-73073866D01*
X39428571Y-73073866D02*
X39380952Y-73026247D01*
X39380952Y-73026247D02*
X39285714Y-72978628D01*
X39285714Y-72978628D02*
X39095238Y-72931009D01*
X39095238Y-72931009D02*
X39000000Y-72883390D01*
X39000000Y-72883390D02*
X38952381Y-72835771D01*
X38952381Y-72835771D02*
X38904762Y-72740533D01*
X38904762Y-72740533D02*
X38904762Y-72645295D01*
X38904762Y-72645295D02*
X38952381Y-72550057D01*
X38952381Y-72550057D02*
X39000000Y-72502438D01*
X39000000Y-72502438D02*
X39095238Y-72454819D01*
X39095238Y-72454819D02*
X39333333Y-72454819D01*
X39333333Y-72454819D02*
X39476190Y-72502438D01*
X39904762Y-72931009D02*
X40238095Y-72931009D01*
X40380952Y-73454819D02*
X39904762Y-73454819D01*
X39904762Y-73454819D02*
X39904762Y-72454819D01*
X39904762Y-72454819D02*
X40380952Y-72454819D01*
X41523810Y-73169104D02*
X42000000Y-73169104D01*
X41428572Y-73454819D02*
X41761905Y-72454819D01*
X41761905Y-72454819D02*
X42095238Y-73454819D01*
X54238095Y-59954819D02*
X54238095Y-60764342D01*
X54238095Y-60764342D02*
X54285714Y-60859580D01*
X54285714Y-60859580D02*
X54333333Y-60907200D01*
X54333333Y-60907200D02*
X54428571Y-60954819D01*
X54428571Y-60954819D02*
X54619047Y-60954819D01*
X54619047Y-60954819D02*
X54714285Y-60907200D01*
X54714285Y-60907200D02*
X54761904Y-60859580D01*
X54761904Y-60859580D02*
X54809523Y-60764342D01*
X54809523Y-60764342D02*
X54809523Y-59954819D01*
X55761904Y-59954819D02*
X55285714Y-59954819D01*
X55285714Y-59954819D02*
X55238095Y-60431009D01*
X55238095Y-60431009D02*
X55285714Y-60383390D01*
X55285714Y-60383390D02*
X55380952Y-60335771D01*
X55380952Y-60335771D02*
X55619047Y-60335771D01*
X55619047Y-60335771D02*
X55714285Y-60383390D01*
X55714285Y-60383390D02*
X55761904Y-60431009D01*
X55761904Y-60431009D02*
X55809523Y-60526247D01*
X55809523Y-60526247D02*
X55809523Y-60764342D01*
X55809523Y-60764342D02*
X55761904Y-60859580D01*
X55761904Y-60859580D02*
X55714285Y-60907200D01*
X55714285Y-60907200D02*
X55619047Y-60954819D01*
X55619047Y-60954819D02*
X55380952Y-60954819D01*
X55380952Y-60954819D02*
X55285714Y-60907200D01*
X55285714Y-60907200D02*
X55238095Y-60859580D01*
X67738095Y-56954819D02*
X67738095Y-57764342D01*
X67738095Y-57764342D02*
X67785714Y-57859580D01*
X67785714Y-57859580D02*
X67833333Y-57907200D01*
X67833333Y-57907200D02*
X67928571Y-57954819D01*
X67928571Y-57954819D02*
X68119047Y-57954819D01*
X68119047Y-57954819D02*
X68214285Y-57907200D01*
X68214285Y-57907200D02*
X68261904Y-57859580D01*
X68261904Y-57859580D02*
X68309523Y-57764342D01*
X68309523Y-57764342D02*
X68309523Y-56954819D01*
X69214285Y-56954819D02*
X69023809Y-56954819D01*
X69023809Y-56954819D02*
X68928571Y-57002438D01*
X68928571Y-57002438D02*
X68880952Y-57050057D01*
X68880952Y-57050057D02*
X68785714Y-57192914D01*
X68785714Y-57192914D02*
X68738095Y-57383390D01*
X68738095Y-57383390D02*
X68738095Y-57764342D01*
X68738095Y-57764342D02*
X68785714Y-57859580D01*
X68785714Y-57859580D02*
X68833333Y-57907200D01*
X68833333Y-57907200D02*
X68928571Y-57954819D01*
X68928571Y-57954819D02*
X69119047Y-57954819D01*
X69119047Y-57954819D02*
X69214285Y-57907200D01*
X69214285Y-57907200D02*
X69261904Y-57859580D01*
X69261904Y-57859580D02*
X69309523Y-57764342D01*
X69309523Y-57764342D02*
X69309523Y-57526247D01*
X69309523Y-57526247D02*
X69261904Y-57431009D01*
X69261904Y-57431009D02*
X69214285Y-57383390D01*
X69214285Y-57383390D02*
X69119047Y-57335771D01*
X69119047Y-57335771D02*
X68928571Y-57335771D01*
X68928571Y-57335771D02*
X68833333Y-57383390D01*
X68833333Y-57383390D02*
X68785714Y-57431009D01*
X68785714Y-57431009D02*
X68738095Y-57526247D01*
X108702438Y-50761904D02*
X108654819Y-50857142D01*
X108654819Y-50857142D02*
X108654819Y-50999999D01*
X108654819Y-50999999D02*
X108702438Y-51142856D01*
X108702438Y-51142856D02*
X108797676Y-51238094D01*
X108797676Y-51238094D02*
X108892914Y-51285713D01*
X108892914Y-51285713D02*
X109083390Y-51333332D01*
X109083390Y-51333332D02*
X109226247Y-51333332D01*
X109226247Y-51333332D02*
X109416723Y-51285713D01*
X109416723Y-51285713D02*
X109511961Y-51238094D01*
X109511961Y-51238094D02*
X109607200Y-51142856D01*
X109607200Y-51142856D02*
X109654819Y-50999999D01*
X109654819Y-50999999D02*
X109654819Y-50904761D01*
X109654819Y-50904761D02*
X109607200Y-50761904D01*
X109607200Y-50761904D02*
X109559580Y-50714285D01*
X109559580Y-50714285D02*
X109226247Y-50714285D01*
X109226247Y-50714285D02*
X109226247Y-50904761D01*
X109654819Y-50285713D02*
X108654819Y-50285713D01*
X108654819Y-50285713D02*
X109654819Y-49714285D01*
X109654819Y-49714285D02*
X108654819Y-49714285D01*
X109654819Y-49238094D02*
X108654819Y-49238094D01*
X108654819Y-49238094D02*
X108654819Y-48999999D01*
X108654819Y-48999999D02*
X108702438Y-48857142D01*
X108702438Y-48857142D02*
X108797676Y-48761904D01*
X108797676Y-48761904D02*
X108892914Y-48714285D01*
X108892914Y-48714285D02*
X109083390Y-48666666D01*
X109083390Y-48666666D02*
X109226247Y-48666666D01*
X109226247Y-48666666D02*
X109416723Y-48714285D01*
X109416723Y-48714285D02*
X109511961Y-48761904D01*
X109511961Y-48761904D02*
X109607200Y-48857142D01*
X109607200Y-48857142D02*
X109654819Y-48999999D01*
X109654819Y-48999999D02*
X109654819Y-49238094D01*
X107333333Y-54820367D02*
X107285714Y-54867987D01*
X107285714Y-54867987D02*
X107142857Y-54915606D01*
X107142857Y-54915606D02*
X107047619Y-54915606D01*
X107047619Y-54915606D02*
X106904762Y-54867987D01*
X106904762Y-54867987D02*
X106809524Y-54772748D01*
X106809524Y-54772748D02*
X106761905Y-54677510D01*
X106761905Y-54677510D02*
X106714286Y-54487034D01*
X106714286Y-54487034D02*
X106714286Y-54344177D01*
X106714286Y-54344177D02*
X106761905Y-54153701D01*
X106761905Y-54153701D02*
X106809524Y-54058463D01*
X106809524Y-54058463D02*
X106904762Y-53963225D01*
X106904762Y-53963225D02*
X107047619Y-53915606D01*
X107047619Y-53915606D02*
X107142857Y-53915606D01*
X107142857Y-53915606D02*
X107285714Y-53963225D01*
X107285714Y-53963225D02*
X107333333Y-54010844D01*
X107714286Y-54010844D02*
X107761905Y-53963225D01*
X107761905Y-53963225D02*
X107857143Y-53915606D01*
X107857143Y-53915606D02*
X108095238Y-53915606D01*
X108095238Y-53915606D02*
X108190476Y-53963225D01*
X108190476Y-53963225D02*
X108238095Y-54010844D01*
X108238095Y-54010844D02*
X108285714Y-54106082D01*
X108285714Y-54106082D02*
X108285714Y-54201320D01*
X108285714Y-54201320D02*
X108238095Y-54344177D01*
X108238095Y-54344177D02*
X107666667Y-54915606D01*
X107666667Y-54915606D02*
X108285714Y-54915606D01*
X97359580Y-58142857D02*
X97407200Y-58190476D01*
X97407200Y-58190476D02*
X97454819Y-58333333D01*
X97454819Y-58333333D02*
X97454819Y-58428571D01*
X97454819Y-58428571D02*
X97407200Y-58571428D01*
X97407200Y-58571428D02*
X97311961Y-58666666D01*
X97311961Y-58666666D02*
X97216723Y-58714285D01*
X97216723Y-58714285D02*
X97026247Y-58761904D01*
X97026247Y-58761904D02*
X96883390Y-58761904D01*
X96883390Y-58761904D02*
X96692914Y-58714285D01*
X96692914Y-58714285D02*
X96597676Y-58666666D01*
X96597676Y-58666666D02*
X96502438Y-58571428D01*
X96502438Y-58571428D02*
X96454819Y-58428571D01*
X96454819Y-58428571D02*
X96454819Y-58333333D01*
X96454819Y-58333333D02*
X96502438Y-58190476D01*
X96502438Y-58190476D02*
X96550057Y-58142857D01*
X96550057Y-57761904D02*
X96502438Y-57714285D01*
X96502438Y-57714285D02*
X96454819Y-57619047D01*
X96454819Y-57619047D02*
X96454819Y-57380952D01*
X96454819Y-57380952D02*
X96502438Y-57285714D01*
X96502438Y-57285714D02*
X96550057Y-57238095D01*
X96550057Y-57238095D02*
X96645295Y-57190476D01*
X96645295Y-57190476D02*
X96740533Y-57190476D01*
X96740533Y-57190476D02*
X96883390Y-57238095D01*
X96883390Y-57238095D02*
X97454819Y-57809523D01*
X97454819Y-57809523D02*
X97454819Y-57190476D01*
X96454819Y-56571428D02*
X96454819Y-56476190D01*
X96454819Y-56476190D02*
X96502438Y-56380952D01*
X96502438Y-56380952D02*
X96550057Y-56333333D01*
X96550057Y-56333333D02*
X96645295Y-56285714D01*
X96645295Y-56285714D02*
X96835771Y-56238095D01*
X96835771Y-56238095D02*
X97073866Y-56238095D01*
X97073866Y-56238095D02*
X97264342Y-56285714D01*
X97264342Y-56285714D02*
X97359580Y-56333333D01*
X97359580Y-56333333D02*
X97407200Y-56380952D01*
X97407200Y-56380952D02*
X97454819Y-56476190D01*
X97454819Y-56476190D02*
X97454819Y-56571428D01*
X97454819Y-56571428D02*
X97407200Y-56666666D01*
X97407200Y-56666666D02*
X97359580Y-56714285D01*
X97359580Y-56714285D02*
X97264342Y-56761904D01*
X97264342Y-56761904D02*
X97073866Y-56809523D01*
X97073866Y-56809523D02*
X96835771Y-56809523D01*
X96835771Y-56809523D02*
X96645295Y-56761904D01*
X96645295Y-56761904D02*
X96550057Y-56714285D01*
X96550057Y-56714285D02*
X96502438Y-56666666D01*
X96502438Y-56666666D02*
X96454819Y-56571428D01*
X97754819Y-60725594D02*
X96754819Y-60725594D01*
X96754819Y-60725594D02*
X96754819Y-60487499D01*
X96754819Y-60487499D02*
X96802438Y-60344642D01*
X96802438Y-60344642D02*
X96897676Y-60249404D01*
X96897676Y-60249404D02*
X96992914Y-60201785D01*
X96992914Y-60201785D02*
X97183390Y-60154166D01*
X97183390Y-60154166D02*
X97326247Y-60154166D01*
X97326247Y-60154166D02*
X97516723Y-60201785D01*
X97516723Y-60201785D02*
X97611961Y-60249404D01*
X97611961Y-60249404D02*
X97707200Y-60344642D01*
X97707200Y-60344642D02*
X97754819Y-60487499D01*
X97754819Y-60487499D02*
X97754819Y-60725594D01*
X97754819Y-59201785D02*
X97754819Y-59773213D01*
X97754819Y-59487499D02*
X96754819Y-59487499D01*
X96754819Y-59487499D02*
X96897676Y-59582737D01*
X96897676Y-59582737D02*
X96992914Y-59677975D01*
X96992914Y-59677975D02*
X97040533Y-59773213D01*
X95357142Y-63083402D02*
X95023809Y-62607211D01*
X94785714Y-63083402D02*
X94785714Y-62083402D01*
X94785714Y-62083402D02*
X95166666Y-62083402D01*
X95166666Y-62083402D02*
X95261904Y-62131021D01*
X95261904Y-62131021D02*
X95309523Y-62178640D01*
X95309523Y-62178640D02*
X95357142Y-62273878D01*
X95357142Y-62273878D02*
X95357142Y-62416735D01*
X95357142Y-62416735D02*
X95309523Y-62511973D01*
X95309523Y-62511973D02*
X95261904Y-62559592D01*
X95261904Y-62559592D02*
X95166666Y-62607211D01*
X95166666Y-62607211D02*
X94785714Y-62607211D01*
X96309523Y-63083402D02*
X95738095Y-63083402D01*
X96023809Y-63083402D02*
X96023809Y-62083402D01*
X96023809Y-62083402D02*
X95928571Y-62226259D01*
X95928571Y-62226259D02*
X95833333Y-62321497D01*
X95833333Y-62321497D02*
X95738095Y-62369116D01*
X96880952Y-62511973D02*
X96785714Y-62464354D01*
X96785714Y-62464354D02*
X96738095Y-62416735D01*
X96738095Y-62416735D02*
X96690476Y-62321497D01*
X96690476Y-62321497D02*
X96690476Y-62273878D01*
X96690476Y-62273878D02*
X96738095Y-62178640D01*
X96738095Y-62178640D02*
X96785714Y-62131021D01*
X96785714Y-62131021D02*
X96880952Y-62083402D01*
X96880952Y-62083402D02*
X97071428Y-62083402D01*
X97071428Y-62083402D02*
X97166666Y-62131021D01*
X97166666Y-62131021D02*
X97214285Y-62178640D01*
X97214285Y-62178640D02*
X97261904Y-62273878D01*
X97261904Y-62273878D02*
X97261904Y-62321497D01*
X97261904Y-62321497D02*
X97214285Y-62416735D01*
X97214285Y-62416735D02*
X97166666Y-62464354D01*
X97166666Y-62464354D02*
X97071428Y-62511973D01*
X97071428Y-62511973D02*
X96880952Y-62511973D01*
X96880952Y-62511973D02*
X96785714Y-62559592D01*
X96785714Y-62559592D02*
X96738095Y-62607211D01*
X96738095Y-62607211D02*
X96690476Y-62702449D01*
X96690476Y-62702449D02*
X96690476Y-62892925D01*
X96690476Y-62892925D02*
X96738095Y-62988163D01*
X96738095Y-62988163D02*
X96785714Y-63035783D01*
X96785714Y-63035783D02*
X96880952Y-63083402D01*
X96880952Y-63083402D02*
X97071428Y-63083402D01*
X97071428Y-63083402D02*
X97166666Y-63035783D01*
X97166666Y-63035783D02*
X97214285Y-62988163D01*
X97214285Y-62988163D02*
X97261904Y-62892925D01*
X97261904Y-62892925D02*
X97261904Y-62702449D01*
X97261904Y-62702449D02*
X97214285Y-62607211D01*
X97214285Y-62607211D02*
X97166666Y-62559592D01*
X97166666Y-62559592D02*
X97071428Y-62511973D01*
X42047619Y-21954819D02*
X42047619Y-20954819D01*
X42047619Y-20954819D02*
X42428571Y-20954819D01*
X42428571Y-20954819D02*
X42523809Y-21002438D01*
X42523809Y-21002438D02*
X42571428Y-21050057D01*
X42571428Y-21050057D02*
X42619047Y-21145295D01*
X42619047Y-21145295D02*
X42619047Y-21288152D01*
X42619047Y-21288152D02*
X42571428Y-21383390D01*
X42571428Y-21383390D02*
X42523809Y-21431009D01*
X42523809Y-21431009D02*
X42428571Y-21478628D01*
X42428571Y-21478628D02*
X42047619Y-21478628D01*
X43047619Y-21954819D02*
X43047619Y-20954819D01*
X43047619Y-21431009D02*
X43619047Y-21431009D01*
X43619047Y-21954819D02*
X43619047Y-20954819D01*
X44047619Y-21669104D02*
X44523809Y-21669104D01*
X43952381Y-21954819D02*
X44285714Y-20954819D01*
X44285714Y-20954819D02*
X44619047Y-21954819D01*
X44904762Y-21907200D02*
X45047619Y-21954819D01*
X45047619Y-21954819D02*
X45285714Y-21954819D01*
X45285714Y-21954819D02*
X45380952Y-21907200D01*
X45380952Y-21907200D02*
X45428571Y-21859580D01*
X45428571Y-21859580D02*
X45476190Y-21764342D01*
X45476190Y-21764342D02*
X45476190Y-21669104D01*
X45476190Y-21669104D02*
X45428571Y-21573866D01*
X45428571Y-21573866D02*
X45380952Y-21526247D01*
X45380952Y-21526247D02*
X45285714Y-21478628D01*
X45285714Y-21478628D02*
X45095238Y-21431009D01*
X45095238Y-21431009D02*
X45000000Y-21383390D01*
X45000000Y-21383390D02*
X44952381Y-21335771D01*
X44952381Y-21335771D02*
X44904762Y-21240533D01*
X44904762Y-21240533D02*
X44904762Y-21145295D01*
X44904762Y-21145295D02*
X44952381Y-21050057D01*
X44952381Y-21050057D02*
X45000000Y-21002438D01*
X45000000Y-21002438D02*
X45095238Y-20954819D01*
X45095238Y-20954819D02*
X45333333Y-20954819D01*
X45333333Y-20954819D02*
X45476190Y-21002438D01*
X45904762Y-21431009D02*
X46238095Y-21431009D01*
X46380952Y-21954819D02*
X45904762Y-21954819D01*
X45904762Y-21954819D02*
X45904762Y-20954819D01*
X45904762Y-20954819D02*
X46380952Y-20954819D01*
X47523810Y-21669104D02*
X48000000Y-21669104D01*
X47428572Y-21954819D02*
X47761905Y-20954819D01*
X47761905Y-20954819D02*
X48095238Y-21954819D01*
X87954819Y-61961934D02*
X87478628Y-62295267D01*
X87954819Y-62533362D02*
X86954819Y-62533362D01*
X86954819Y-62533362D02*
X86954819Y-62152410D01*
X86954819Y-62152410D02*
X87002438Y-62057172D01*
X87002438Y-62057172D02*
X87050057Y-62009553D01*
X87050057Y-62009553D02*
X87145295Y-61961934D01*
X87145295Y-61961934D02*
X87288152Y-61961934D01*
X87288152Y-61961934D02*
X87383390Y-62009553D01*
X87383390Y-62009553D02*
X87431009Y-62057172D01*
X87431009Y-62057172D02*
X87478628Y-62152410D01*
X87478628Y-62152410D02*
X87478628Y-62533362D01*
X87954819Y-61009553D02*
X87954819Y-61580981D01*
X87954819Y-61295267D02*
X86954819Y-61295267D01*
X86954819Y-61295267D02*
X87097676Y-61390505D01*
X87097676Y-61390505D02*
X87192914Y-61485743D01*
X87192914Y-61485743D02*
X87240533Y-61580981D01*
X87954819Y-60533362D02*
X87954819Y-60342886D01*
X87954819Y-60342886D02*
X87907200Y-60247648D01*
X87907200Y-60247648D02*
X87859580Y-60200029D01*
X87859580Y-60200029D02*
X87716723Y-60104791D01*
X87716723Y-60104791D02*
X87526247Y-60057172D01*
X87526247Y-60057172D02*
X87145295Y-60057172D01*
X87145295Y-60057172D02*
X87050057Y-60104791D01*
X87050057Y-60104791D02*
X87002438Y-60152410D01*
X87002438Y-60152410D02*
X86954819Y-60247648D01*
X86954819Y-60247648D02*
X86954819Y-60438124D01*
X86954819Y-60438124D02*
X87002438Y-60533362D01*
X87002438Y-60533362D02*
X87050057Y-60580981D01*
X87050057Y-60580981D02*
X87145295Y-60628600D01*
X87145295Y-60628600D02*
X87383390Y-60628600D01*
X87383390Y-60628600D02*
X87478628Y-60580981D01*
X87478628Y-60580981D02*
X87526247Y-60533362D01*
X87526247Y-60533362D02*
X87573866Y-60438124D01*
X87573866Y-60438124D02*
X87573866Y-60247648D01*
X87573866Y-60247648D02*
X87526247Y-60152410D01*
X87526247Y-60152410D02*
X87478628Y-60104791D01*
X87478628Y-60104791D02*
X87383390Y-60057172D01*
X68757142Y-62954819D02*
X68423809Y-62478628D01*
X68185714Y-62954819D02*
X68185714Y-61954819D01*
X68185714Y-61954819D02*
X68566666Y-61954819D01*
X68566666Y-61954819D02*
X68661904Y-62002438D01*
X68661904Y-62002438D02*
X68709523Y-62050057D01*
X68709523Y-62050057D02*
X68757142Y-62145295D01*
X68757142Y-62145295D02*
X68757142Y-62288152D01*
X68757142Y-62288152D02*
X68709523Y-62383390D01*
X68709523Y-62383390D02*
X68661904Y-62431009D01*
X68661904Y-62431009D02*
X68566666Y-62478628D01*
X68566666Y-62478628D02*
X68185714Y-62478628D01*
X69709523Y-62954819D02*
X69138095Y-62954819D01*
X69423809Y-62954819D02*
X69423809Y-61954819D01*
X69423809Y-61954819D02*
X69328571Y-62097676D01*
X69328571Y-62097676D02*
X69233333Y-62192914D01*
X69233333Y-62192914D02*
X69138095Y-62240533D01*
X70090476Y-62050057D02*
X70138095Y-62002438D01*
X70138095Y-62002438D02*
X70233333Y-61954819D01*
X70233333Y-61954819D02*
X70471428Y-61954819D01*
X70471428Y-61954819D02*
X70566666Y-62002438D01*
X70566666Y-62002438D02*
X70614285Y-62050057D01*
X70614285Y-62050057D02*
X70661904Y-62145295D01*
X70661904Y-62145295D02*
X70661904Y-62240533D01*
X70661904Y-62240533D02*
X70614285Y-62383390D01*
X70614285Y-62383390D02*
X70042857Y-62954819D01*
X70042857Y-62954819D02*
X70661904Y-62954819D01*
X108359580Y-43166666D02*
X108407200Y-43214285D01*
X108407200Y-43214285D02*
X108454819Y-43357142D01*
X108454819Y-43357142D02*
X108454819Y-43452380D01*
X108454819Y-43452380D02*
X108407200Y-43595237D01*
X108407200Y-43595237D02*
X108311961Y-43690475D01*
X108311961Y-43690475D02*
X108216723Y-43738094D01*
X108216723Y-43738094D02*
X108026247Y-43785713D01*
X108026247Y-43785713D02*
X107883390Y-43785713D01*
X107883390Y-43785713D02*
X107692914Y-43738094D01*
X107692914Y-43738094D02*
X107597676Y-43690475D01*
X107597676Y-43690475D02*
X107502438Y-43595237D01*
X107502438Y-43595237D02*
X107454819Y-43452380D01*
X107454819Y-43452380D02*
X107454819Y-43357142D01*
X107454819Y-43357142D02*
X107502438Y-43214285D01*
X107502438Y-43214285D02*
X107550057Y-43166666D01*
X107454819Y-42833332D02*
X107454819Y-42214285D01*
X107454819Y-42214285D02*
X107835771Y-42547618D01*
X107835771Y-42547618D02*
X107835771Y-42404761D01*
X107835771Y-42404761D02*
X107883390Y-42309523D01*
X107883390Y-42309523D02*
X107931009Y-42261904D01*
X107931009Y-42261904D02*
X108026247Y-42214285D01*
X108026247Y-42214285D02*
X108264342Y-42214285D01*
X108264342Y-42214285D02*
X108359580Y-42261904D01*
X108359580Y-42261904D02*
X108407200Y-42309523D01*
X108407200Y-42309523D02*
X108454819Y-42404761D01*
X108454819Y-42404761D02*
X108454819Y-42690475D01*
X108454819Y-42690475D02*
X108407200Y-42785713D01*
X108407200Y-42785713D02*
X108359580Y-42833332D01*
X98911273Y-68025559D02*
X98577940Y-67549368D01*
X98339845Y-68025559D02*
X98339845Y-67025559D01*
X98339845Y-67025559D02*
X98720797Y-67025559D01*
X98720797Y-67025559D02*
X98816035Y-67073178D01*
X98816035Y-67073178D02*
X98863654Y-67120797D01*
X98863654Y-67120797D02*
X98911273Y-67216035D01*
X98911273Y-67216035D02*
X98911273Y-67358892D01*
X98911273Y-67358892D02*
X98863654Y-67454130D01*
X98863654Y-67454130D02*
X98816035Y-67501749D01*
X98816035Y-67501749D02*
X98720797Y-67549368D01*
X98720797Y-67549368D02*
X98339845Y-67549368D01*
X99863654Y-68025559D02*
X99292226Y-68025559D01*
X99577940Y-68025559D02*
X99577940Y-67025559D01*
X99577940Y-67025559D02*
X99482702Y-67168416D01*
X99482702Y-67168416D02*
X99387464Y-67263654D01*
X99387464Y-67263654D02*
X99292226Y-67311273D01*
X28311787Y-62198206D02*
X28264168Y-62245826D01*
X28264168Y-62245826D02*
X28121311Y-62293445D01*
X28121311Y-62293445D02*
X28026073Y-62293445D01*
X28026073Y-62293445D02*
X27883216Y-62245826D01*
X27883216Y-62245826D02*
X27787978Y-62150587D01*
X27787978Y-62150587D02*
X27740359Y-62055349D01*
X27740359Y-62055349D02*
X27692740Y-61864873D01*
X27692740Y-61864873D02*
X27692740Y-61722016D01*
X27692740Y-61722016D02*
X27740359Y-61531540D01*
X27740359Y-61531540D02*
X27787978Y-61436302D01*
X27787978Y-61436302D02*
X27883216Y-61341064D01*
X27883216Y-61341064D02*
X28026073Y-61293445D01*
X28026073Y-61293445D02*
X28121311Y-61293445D01*
X28121311Y-61293445D02*
X28264168Y-61341064D01*
X28264168Y-61341064D02*
X28311787Y-61388683D01*
X28883216Y-61722016D02*
X28787978Y-61674397D01*
X28787978Y-61674397D02*
X28740359Y-61626778D01*
X28740359Y-61626778D02*
X28692740Y-61531540D01*
X28692740Y-61531540D02*
X28692740Y-61483921D01*
X28692740Y-61483921D02*
X28740359Y-61388683D01*
X28740359Y-61388683D02*
X28787978Y-61341064D01*
X28787978Y-61341064D02*
X28883216Y-61293445D01*
X28883216Y-61293445D02*
X29073692Y-61293445D01*
X29073692Y-61293445D02*
X29168930Y-61341064D01*
X29168930Y-61341064D02*
X29216549Y-61388683D01*
X29216549Y-61388683D02*
X29264168Y-61483921D01*
X29264168Y-61483921D02*
X29264168Y-61531540D01*
X29264168Y-61531540D02*
X29216549Y-61626778D01*
X29216549Y-61626778D02*
X29168930Y-61674397D01*
X29168930Y-61674397D02*
X29073692Y-61722016D01*
X29073692Y-61722016D02*
X28883216Y-61722016D01*
X28883216Y-61722016D02*
X28787978Y-61769635D01*
X28787978Y-61769635D02*
X28740359Y-61817254D01*
X28740359Y-61817254D02*
X28692740Y-61912492D01*
X28692740Y-61912492D02*
X28692740Y-62102968D01*
X28692740Y-62102968D02*
X28740359Y-62198206D01*
X28740359Y-62198206D02*
X28787978Y-62245826D01*
X28787978Y-62245826D02*
X28883216Y-62293445D01*
X28883216Y-62293445D02*
X29073692Y-62293445D01*
X29073692Y-62293445D02*
X29168930Y-62245826D01*
X29168930Y-62245826D02*
X29216549Y-62198206D01*
X29216549Y-62198206D02*
X29264168Y-62102968D01*
X29264168Y-62102968D02*
X29264168Y-61912492D01*
X29264168Y-61912492D02*
X29216549Y-61817254D01*
X29216549Y-61817254D02*
X29168930Y-61769635D01*
X29168930Y-61769635D02*
X29073692Y-61722016D01*
X92357142Y-63107608D02*
X92023809Y-62631417D01*
X91785714Y-63107608D02*
X91785714Y-62107608D01*
X91785714Y-62107608D02*
X92166666Y-62107608D01*
X92166666Y-62107608D02*
X92261904Y-62155227D01*
X92261904Y-62155227D02*
X92309523Y-62202846D01*
X92309523Y-62202846D02*
X92357142Y-62298084D01*
X92357142Y-62298084D02*
X92357142Y-62440941D01*
X92357142Y-62440941D02*
X92309523Y-62536179D01*
X92309523Y-62536179D02*
X92261904Y-62583798D01*
X92261904Y-62583798D02*
X92166666Y-62631417D01*
X92166666Y-62631417D02*
X91785714Y-62631417D01*
X93309523Y-63107608D02*
X92738095Y-63107608D01*
X93023809Y-63107608D02*
X93023809Y-62107608D01*
X93023809Y-62107608D02*
X92928571Y-62250465D01*
X92928571Y-62250465D02*
X92833333Y-62345703D01*
X92833333Y-62345703D02*
X92738095Y-62393322D01*
X93642857Y-62107608D02*
X94309523Y-62107608D01*
X94309523Y-62107608D02*
X93880952Y-63107608D01*
X27759582Y-59787293D02*
X27759582Y-60596816D01*
X27759582Y-60596816D02*
X27807201Y-60692054D01*
X27807201Y-60692054D02*
X27854820Y-60739674D01*
X27854820Y-60739674D02*
X27950058Y-60787293D01*
X27950058Y-60787293D02*
X28140534Y-60787293D01*
X28140534Y-60787293D02*
X28235772Y-60739674D01*
X28235772Y-60739674D02*
X28283391Y-60692054D01*
X28283391Y-60692054D02*
X28331010Y-60596816D01*
X28331010Y-60596816D02*
X28331010Y-59787293D01*
X28759582Y-59882531D02*
X28807201Y-59834912D01*
X28807201Y-59834912D02*
X28902439Y-59787293D01*
X28902439Y-59787293D02*
X29140534Y-59787293D01*
X29140534Y-59787293D02*
X29235772Y-59834912D01*
X29235772Y-59834912D02*
X29283391Y-59882531D01*
X29283391Y-59882531D02*
X29331010Y-59977769D01*
X29331010Y-59977769D02*
X29331010Y-60073007D01*
X29331010Y-60073007D02*
X29283391Y-60215864D01*
X29283391Y-60215864D02*
X28711963Y-60787293D01*
X28711963Y-60787293D02*
X29331010Y-60787293D01*
X93738095Y-56954819D02*
X93738095Y-57764342D01*
X93738095Y-57764342D02*
X93785714Y-57859580D01*
X93785714Y-57859580D02*
X93833333Y-57907200D01*
X93833333Y-57907200D02*
X93928571Y-57954819D01*
X93928571Y-57954819D02*
X94119047Y-57954819D01*
X94119047Y-57954819D02*
X94214285Y-57907200D01*
X94214285Y-57907200D02*
X94261904Y-57859580D01*
X94261904Y-57859580D02*
X94309523Y-57764342D01*
X94309523Y-57764342D02*
X94309523Y-56954819D01*
X94833333Y-57954819D02*
X95023809Y-57954819D01*
X95023809Y-57954819D02*
X95119047Y-57907200D01*
X95119047Y-57907200D02*
X95166666Y-57859580D01*
X95166666Y-57859580D02*
X95261904Y-57716723D01*
X95261904Y-57716723D02*
X95309523Y-57526247D01*
X95309523Y-57526247D02*
X95309523Y-57145295D01*
X95309523Y-57145295D02*
X95261904Y-57050057D01*
X95261904Y-57050057D02*
X95214285Y-57002438D01*
X95214285Y-57002438D02*
X95119047Y-56954819D01*
X95119047Y-56954819D02*
X94928571Y-56954819D01*
X94928571Y-56954819D02*
X94833333Y-57002438D01*
X94833333Y-57002438D02*
X94785714Y-57050057D01*
X94785714Y-57050057D02*
X94738095Y-57145295D01*
X94738095Y-57145295D02*
X94738095Y-57383390D01*
X94738095Y-57383390D02*
X94785714Y-57478628D01*
X94785714Y-57478628D02*
X94833333Y-57526247D01*
X94833333Y-57526247D02*
X94928571Y-57573866D01*
X94928571Y-57573866D02*
X95119047Y-57573866D01*
X95119047Y-57573866D02*
X95214285Y-57526247D01*
X95214285Y-57526247D02*
X95261904Y-57478628D01*
X95261904Y-57478628D02*
X95309523Y-57383390D01*
X30186437Y-46637315D02*
X29710246Y-46970648D01*
X30186437Y-47208743D02*
X29186437Y-47208743D01*
X29186437Y-47208743D02*
X29186437Y-46827791D01*
X29186437Y-46827791D02*
X29234056Y-46732553D01*
X29234056Y-46732553D02*
X29281675Y-46684934D01*
X29281675Y-46684934D02*
X29376913Y-46637315D01*
X29376913Y-46637315D02*
X29519770Y-46637315D01*
X29519770Y-46637315D02*
X29615008Y-46684934D01*
X29615008Y-46684934D02*
X29662627Y-46732553D01*
X29662627Y-46732553D02*
X29710246Y-46827791D01*
X29710246Y-46827791D02*
X29710246Y-47208743D01*
X29281675Y-46256362D02*
X29234056Y-46208743D01*
X29234056Y-46208743D02*
X29186437Y-46113505D01*
X29186437Y-46113505D02*
X29186437Y-45875410D01*
X29186437Y-45875410D02*
X29234056Y-45780172D01*
X29234056Y-45780172D02*
X29281675Y-45732553D01*
X29281675Y-45732553D02*
X29376913Y-45684934D01*
X29376913Y-45684934D02*
X29472151Y-45684934D01*
X29472151Y-45684934D02*
X29615008Y-45732553D01*
X29615008Y-45732553D02*
X30186437Y-46303981D01*
X30186437Y-46303981D02*
X30186437Y-45684934D01*
X84849978Y-47142857D02*
X84373787Y-47476190D01*
X84849978Y-47714285D02*
X83849978Y-47714285D01*
X83849978Y-47714285D02*
X83849978Y-47333333D01*
X83849978Y-47333333D02*
X83897597Y-47238095D01*
X83897597Y-47238095D02*
X83945216Y-47190476D01*
X83945216Y-47190476D02*
X84040454Y-47142857D01*
X84040454Y-47142857D02*
X84183311Y-47142857D01*
X84183311Y-47142857D02*
X84278549Y-47190476D01*
X84278549Y-47190476D02*
X84326168Y-47238095D01*
X84326168Y-47238095D02*
X84373787Y-47333333D01*
X84373787Y-47333333D02*
X84373787Y-47714285D01*
X84849978Y-46190476D02*
X84849978Y-46761904D01*
X84849978Y-46476190D02*
X83849978Y-46476190D01*
X83849978Y-46476190D02*
X83992835Y-46571428D01*
X83992835Y-46571428D02*
X84088073Y-46666666D01*
X84088073Y-46666666D02*
X84135692Y-46761904D01*
X83849978Y-45285714D02*
X83849978Y-45761904D01*
X83849978Y-45761904D02*
X84326168Y-45809523D01*
X84326168Y-45809523D02*
X84278549Y-45761904D01*
X84278549Y-45761904D02*
X84230930Y-45666666D01*
X84230930Y-45666666D02*
X84230930Y-45428571D01*
X84230930Y-45428571D02*
X84278549Y-45333333D01*
X84278549Y-45333333D02*
X84326168Y-45285714D01*
X84326168Y-45285714D02*
X84421406Y-45238095D01*
X84421406Y-45238095D02*
X84659501Y-45238095D01*
X84659501Y-45238095D02*
X84754739Y-45285714D01*
X84754739Y-45285714D02*
X84802359Y-45333333D01*
X84802359Y-45333333D02*
X84849978Y-45428571D01*
X84849978Y-45428571D02*
X84849978Y-45666666D01*
X84849978Y-45666666D02*
X84802359Y-45761904D01*
X84802359Y-45761904D02*
X84754739Y-45809523D01*
X68957142Y-48559580D02*
X68909523Y-48607200D01*
X68909523Y-48607200D02*
X68766666Y-48654819D01*
X68766666Y-48654819D02*
X68671428Y-48654819D01*
X68671428Y-48654819D02*
X68528571Y-48607200D01*
X68528571Y-48607200D02*
X68433333Y-48511961D01*
X68433333Y-48511961D02*
X68385714Y-48416723D01*
X68385714Y-48416723D02*
X68338095Y-48226247D01*
X68338095Y-48226247D02*
X68338095Y-48083390D01*
X68338095Y-48083390D02*
X68385714Y-47892914D01*
X68385714Y-47892914D02*
X68433333Y-47797676D01*
X68433333Y-47797676D02*
X68528571Y-47702438D01*
X68528571Y-47702438D02*
X68671428Y-47654819D01*
X68671428Y-47654819D02*
X68766666Y-47654819D01*
X68766666Y-47654819D02*
X68909523Y-47702438D01*
X68909523Y-47702438D02*
X68957142Y-47750057D01*
X69909523Y-48654819D02*
X69338095Y-48654819D01*
X69623809Y-48654819D02*
X69623809Y-47654819D01*
X69623809Y-47654819D02*
X69528571Y-47797676D01*
X69528571Y-47797676D02*
X69433333Y-47892914D01*
X69433333Y-47892914D02*
X69338095Y-47940533D01*
X70766666Y-47988152D02*
X70766666Y-48654819D01*
X70528571Y-47607200D02*
X70290476Y-48321485D01*
X70290476Y-48321485D02*
X70909523Y-48321485D01*
X41333333Y-62954819D02*
X41000000Y-62478628D01*
X40761905Y-62954819D02*
X40761905Y-61954819D01*
X40761905Y-61954819D02*
X41142857Y-61954819D01*
X41142857Y-61954819D02*
X41238095Y-62002438D01*
X41238095Y-62002438D02*
X41285714Y-62050057D01*
X41285714Y-62050057D02*
X41333333Y-62145295D01*
X41333333Y-62145295D02*
X41333333Y-62288152D01*
X41333333Y-62288152D02*
X41285714Y-62383390D01*
X41285714Y-62383390D02*
X41238095Y-62431009D01*
X41238095Y-62431009D02*
X41142857Y-62478628D01*
X41142857Y-62478628D02*
X40761905Y-62478628D01*
X42238095Y-61954819D02*
X41761905Y-61954819D01*
X41761905Y-61954819D02*
X41714286Y-62431009D01*
X41714286Y-62431009D02*
X41761905Y-62383390D01*
X41761905Y-62383390D02*
X41857143Y-62335771D01*
X41857143Y-62335771D02*
X42095238Y-62335771D01*
X42095238Y-62335771D02*
X42190476Y-62383390D01*
X42190476Y-62383390D02*
X42238095Y-62431009D01*
X42238095Y-62431009D02*
X42285714Y-62526247D01*
X42285714Y-62526247D02*
X42285714Y-62764342D01*
X42285714Y-62764342D02*
X42238095Y-62859580D01*
X42238095Y-62859580D02*
X42190476Y-62907200D01*
X42190476Y-62907200D02*
X42095238Y-62954819D01*
X42095238Y-62954819D02*
X41857143Y-62954819D01*
X41857143Y-62954819D02*
X41761905Y-62907200D01*
X41761905Y-62907200D02*
X41714286Y-62859580D01*
X71454819Y-45642857D02*
X70978628Y-45976190D01*
X71454819Y-46214285D02*
X70454819Y-46214285D01*
X70454819Y-46214285D02*
X70454819Y-45833333D01*
X70454819Y-45833333D02*
X70502438Y-45738095D01*
X70502438Y-45738095D02*
X70550057Y-45690476D01*
X70550057Y-45690476D02*
X70645295Y-45642857D01*
X70645295Y-45642857D02*
X70788152Y-45642857D01*
X70788152Y-45642857D02*
X70883390Y-45690476D01*
X70883390Y-45690476D02*
X70931009Y-45738095D01*
X70931009Y-45738095D02*
X70978628Y-45833333D01*
X70978628Y-45833333D02*
X70978628Y-46214285D01*
X71454819Y-44690476D02*
X71454819Y-45261904D01*
X71454819Y-44976190D02*
X70454819Y-44976190D01*
X70454819Y-44976190D02*
X70597676Y-45071428D01*
X70597676Y-45071428D02*
X70692914Y-45166666D01*
X70692914Y-45166666D02*
X70740533Y-45261904D01*
X70454819Y-44071428D02*
X70454819Y-43976190D01*
X70454819Y-43976190D02*
X70502438Y-43880952D01*
X70502438Y-43880952D02*
X70550057Y-43833333D01*
X70550057Y-43833333D02*
X70645295Y-43785714D01*
X70645295Y-43785714D02*
X70835771Y-43738095D01*
X70835771Y-43738095D02*
X71073866Y-43738095D01*
X71073866Y-43738095D02*
X71264342Y-43785714D01*
X71264342Y-43785714D02*
X71359580Y-43833333D01*
X71359580Y-43833333D02*
X71407200Y-43880952D01*
X71407200Y-43880952D02*
X71454819Y-43976190D01*
X71454819Y-43976190D02*
X71454819Y-44071428D01*
X71454819Y-44071428D02*
X71407200Y-44166666D01*
X71407200Y-44166666D02*
X71359580Y-44214285D01*
X71359580Y-44214285D02*
X71264342Y-44261904D01*
X71264342Y-44261904D02*
X71073866Y-44309523D01*
X71073866Y-44309523D02*
X70835771Y-44309523D01*
X70835771Y-44309523D02*
X70645295Y-44261904D01*
X70645295Y-44261904D02*
X70550057Y-44214285D01*
X70550057Y-44214285D02*
X70502438Y-44166666D01*
X70502438Y-44166666D02*
X70454819Y-44071428D01*
X101833333Y-54859580D02*
X101785714Y-54907200D01*
X101785714Y-54907200D02*
X101642857Y-54954819D01*
X101642857Y-54954819D02*
X101547619Y-54954819D01*
X101547619Y-54954819D02*
X101404762Y-54907200D01*
X101404762Y-54907200D02*
X101309524Y-54811961D01*
X101309524Y-54811961D02*
X101261905Y-54716723D01*
X101261905Y-54716723D02*
X101214286Y-54526247D01*
X101214286Y-54526247D02*
X101214286Y-54383390D01*
X101214286Y-54383390D02*
X101261905Y-54192914D01*
X101261905Y-54192914D02*
X101309524Y-54097676D01*
X101309524Y-54097676D02*
X101404762Y-54002438D01*
X101404762Y-54002438D02*
X101547619Y-53954819D01*
X101547619Y-53954819D02*
X101642857Y-53954819D01*
X101642857Y-53954819D02*
X101785714Y-54002438D01*
X101785714Y-54002438D02*
X101833333Y-54050057D01*
X102690476Y-54288152D02*
X102690476Y-54954819D01*
X102452381Y-53907200D02*
X102214286Y-54621485D01*
X102214286Y-54621485D02*
X102833333Y-54621485D01*
X54357142Y-62159580D02*
X54309523Y-62207200D01*
X54309523Y-62207200D02*
X54166666Y-62254819D01*
X54166666Y-62254819D02*
X54071428Y-62254819D01*
X54071428Y-62254819D02*
X53928571Y-62207200D01*
X53928571Y-62207200D02*
X53833333Y-62111961D01*
X53833333Y-62111961D02*
X53785714Y-62016723D01*
X53785714Y-62016723D02*
X53738095Y-61826247D01*
X53738095Y-61826247D02*
X53738095Y-61683390D01*
X53738095Y-61683390D02*
X53785714Y-61492914D01*
X53785714Y-61492914D02*
X53833333Y-61397676D01*
X53833333Y-61397676D02*
X53928571Y-61302438D01*
X53928571Y-61302438D02*
X54071428Y-61254819D01*
X54071428Y-61254819D02*
X54166666Y-61254819D01*
X54166666Y-61254819D02*
X54309523Y-61302438D01*
X54309523Y-61302438D02*
X54357142Y-61350057D01*
X55309523Y-62254819D02*
X54738095Y-62254819D01*
X55023809Y-62254819D02*
X55023809Y-61254819D01*
X55023809Y-61254819D02*
X54928571Y-61397676D01*
X54928571Y-61397676D02*
X54833333Y-61492914D01*
X54833333Y-61492914D02*
X54738095Y-61540533D01*
X55642857Y-61254819D02*
X56261904Y-61254819D01*
X56261904Y-61254819D02*
X55928571Y-61635771D01*
X55928571Y-61635771D02*
X56071428Y-61635771D01*
X56071428Y-61635771D02*
X56166666Y-61683390D01*
X56166666Y-61683390D02*
X56214285Y-61731009D01*
X56214285Y-61731009D02*
X56261904Y-61826247D01*
X56261904Y-61826247D02*
X56261904Y-62064342D01*
X56261904Y-62064342D02*
X56214285Y-62159580D01*
X56214285Y-62159580D02*
X56166666Y-62207200D01*
X56166666Y-62207200D02*
X56071428Y-62254819D01*
X56071428Y-62254819D02*
X55785714Y-62254819D01*
X55785714Y-62254819D02*
X55690476Y-62207200D01*
X55690476Y-62207200D02*
X55642857Y-62159580D01*
X104900833Y-54822080D02*
X104853214Y-54869700D01*
X104853214Y-54869700D02*
X104710357Y-54917319D01*
X104710357Y-54917319D02*
X104615119Y-54917319D01*
X104615119Y-54917319D02*
X104472262Y-54869700D01*
X104472262Y-54869700D02*
X104377024Y-54774461D01*
X104377024Y-54774461D02*
X104329405Y-54679223D01*
X104329405Y-54679223D02*
X104281786Y-54488747D01*
X104281786Y-54488747D02*
X104281786Y-54345890D01*
X104281786Y-54345890D02*
X104329405Y-54155414D01*
X104329405Y-54155414D02*
X104377024Y-54060176D01*
X104377024Y-54060176D02*
X104472262Y-53964938D01*
X104472262Y-53964938D02*
X104615119Y-53917319D01*
X104615119Y-53917319D02*
X104710357Y-53917319D01*
X104710357Y-53917319D02*
X104853214Y-53964938D01*
X104853214Y-53964938D02*
X104900833Y-54012557D01*
X105853214Y-54917319D02*
X105281786Y-54917319D01*
X105567500Y-54917319D02*
X105567500Y-53917319D01*
X105567500Y-53917319D02*
X105472262Y-54060176D01*
X105472262Y-54060176D02*
X105377024Y-54155414D01*
X105377024Y-54155414D02*
X105281786Y-54203033D01*
X95257142Y-48559580D02*
X95209523Y-48607200D01*
X95209523Y-48607200D02*
X95066666Y-48654819D01*
X95066666Y-48654819D02*
X94971428Y-48654819D01*
X94971428Y-48654819D02*
X94828571Y-48607200D01*
X94828571Y-48607200D02*
X94733333Y-48511961D01*
X94733333Y-48511961D02*
X94685714Y-48416723D01*
X94685714Y-48416723D02*
X94638095Y-48226247D01*
X94638095Y-48226247D02*
X94638095Y-48083390D01*
X94638095Y-48083390D02*
X94685714Y-47892914D01*
X94685714Y-47892914D02*
X94733333Y-47797676D01*
X94733333Y-47797676D02*
X94828571Y-47702438D01*
X94828571Y-47702438D02*
X94971428Y-47654819D01*
X94971428Y-47654819D02*
X95066666Y-47654819D01*
X95066666Y-47654819D02*
X95209523Y-47702438D01*
X95209523Y-47702438D02*
X95257142Y-47750057D01*
X96209523Y-48654819D02*
X95638095Y-48654819D01*
X95923809Y-48654819D02*
X95923809Y-47654819D01*
X95923809Y-47654819D02*
X95828571Y-47797676D01*
X95828571Y-47797676D02*
X95733333Y-47892914D01*
X95733333Y-47892914D02*
X95638095Y-47940533D01*
X96685714Y-48654819D02*
X96876190Y-48654819D01*
X96876190Y-48654819D02*
X96971428Y-48607200D01*
X96971428Y-48607200D02*
X97019047Y-48559580D01*
X97019047Y-48559580D02*
X97114285Y-48416723D01*
X97114285Y-48416723D02*
X97161904Y-48226247D01*
X97161904Y-48226247D02*
X97161904Y-47845295D01*
X97161904Y-47845295D02*
X97114285Y-47750057D01*
X97114285Y-47750057D02*
X97066666Y-47702438D01*
X97066666Y-47702438D02*
X96971428Y-47654819D01*
X96971428Y-47654819D02*
X96780952Y-47654819D01*
X96780952Y-47654819D02*
X96685714Y-47702438D01*
X96685714Y-47702438D02*
X96638095Y-47750057D01*
X96638095Y-47750057D02*
X96590476Y-47845295D01*
X96590476Y-47845295D02*
X96590476Y-48083390D01*
X96590476Y-48083390D02*
X96638095Y-48178628D01*
X96638095Y-48178628D02*
X96685714Y-48226247D01*
X96685714Y-48226247D02*
X96780952Y-48273866D01*
X96780952Y-48273866D02*
X96971428Y-48273866D01*
X96971428Y-48273866D02*
X97066666Y-48226247D01*
X97066666Y-48226247D02*
X97114285Y-48178628D01*
X97114285Y-48178628D02*
X97161904Y-48083390D01*
X66057142Y-62954819D02*
X65723809Y-62478628D01*
X65485714Y-62954819D02*
X65485714Y-61954819D01*
X65485714Y-61954819D02*
X65866666Y-61954819D01*
X65866666Y-61954819D02*
X65961904Y-62002438D01*
X65961904Y-62002438D02*
X66009523Y-62050057D01*
X66009523Y-62050057D02*
X66057142Y-62145295D01*
X66057142Y-62145295D02*
X66057142Y-62288152D01*
X66057142Y-62288152D02*
X66009523Y-62383390D01*
X66009523Y-62383390D02*
X65961904Y-62431009D01*
X65961904Y-62431009D02*
X65866666Y-62478628D01*
X65866666Y-62478628D02*
X65485714Y-62478628D01*
X67009523Y-62954819D02*
X66438095Y-62954819D01*
X66723809Y-62954819D02*
X66723809Y-61954819D01*
X66723809Y-61954819D02*
X66628571Y-62097676D01*
X66628571Y-62097676D02*
X66533333Y-62192914D01*
X66533333Y-62192914D02*
X66438095Y-62240533D01*
X67961904Y-62954819D02*
X67390476Y-62954819D01*
X67676190Y-62954819D02*
X67676190Y-61954819D01*
X67676190Y-61954819D02*
X67580952Y-62097676D01*
X67580952Y-62097676D02*
X67485714Y-62192914D01*
X67485714Y-62192914D02*
X67390476Y-62240533D01*
X54157700Y-73642541D02*
X54110081Y-73690161D01*
X54110081Y-73690161D02*
X53967224Y-73737780D01*
X53967224Y-73737780D02*
X53871986Y-73737780D01*
X53871986Y-73737780D02*
X53729129Y-73690161D01*
X53729129Y-73690161D02*
X53633891Y-73594922D01*
X53633891Y-73594922D02*
X53586272Y-73499684D01*
X53586272Y-73499684D02*
X53538653Y-73309208D01*
X53538653Y-73309208D02*
X53538653Y-73166351D01*
X53538653Y-73166351D02*
X53586272Y-72975875D01*
X53586272Y-72975875D02*
X53633891Y-72880637D01*
X53633891Y-72880637D02*
X53729129Y-72785399D01*
X53729129Y-72785399D02*
X53871986Y-72737780D01*
X53871986Y-72737780D02*
X53967224Y-72737780D01*
X53967224Y-72737780D02*
X54110081Y-72785399D01*
X54110081Y-72785399D02*
X54157700Y-72833018D01*
X55110081Y-73737780D02*
X54538653Y-73737780D01*
X54824367Y-73737780D02*
X54824367Y-72737780D01*
X54824367Y-72737780D02*
X54729129Y-72880637D01*
X54729129Y-72880637D02*
X54633891Y-72975875D01*
X54633891Y-72975875D02*
X54538653Y-73023494D01*
X56062462Y-73737780D02*
X55491034Y-73737780D01*
X55776748Y-73737780D02*
X55776748Y-72737780D01*
X55776748Y-72737780D02*
X55681510Y-72880637D01*
X55681510Y-72880637D02*
X55586272Y-72975875D01*
X55586272Y-72975875D02*
X55491034Y-73023494D01*
X81976190Y-21954819D02*
X81976190Y-20954819D01*
X81976190Y-20954819D02*
X82357142Y-20954819D01*
X82357142Y-20954819D02*
X82452380Y-21002438D01*
X82452380Y-21002438D02*
X82499999Y-21050057D01*
X82499999Y-21050057D02*
X82547618Y-21145295D01*
X82547618Y-21145295D02*
X82547618Y-21288152D01*
X82547618Y-21288152D02*
X82499999Y-21383390D01*
X82499999Y-21383390D02*
X82452380Y-21431009D01*
X82452380Y-21431009D02*
X82357142Y-21478628D01*
X82357142Y-21478628D02*
X81976190Y-21478628D01*
X82976190Y-21954819D02*
X82976190Y-20954819D01*
X82976190Y-21431009D02*
X83547618Y-21431009D01*
X83547618Y-21954819D02*
X83547618Y-20954819D01*
X83976190Y-21669104D02*
X84452380Y-21669104D01*
X83880952Y-21954819D02*
X84214285Y-20954819D01*
X84214285Y-20954819D02*
X84547618Y-21954819D01*
X84833333Y-21907200D02*
X84976190Y-21954819D01*
X84976190Y-21954819D02*
X85214285Y-21954819D01*
X85214285Y-21954819D02*
X85309523Y-21907200D01*
X85309523Y-21907200D02*
X85357142Y-21859580D01*
X85357142Y-21859580D02*
X85404761Y-21764342D01*
X85404761Y-21764342D02*
X85404761Y-21669104D01*
X85404761Y-21669104D02*
X85357142Y-21573866D01*
X85357142Y-21573866D02*
X85309523Y-21526247D01*
X85309523Y-21526247D02*
X85214285Y-21478628D01*
X85214285Y-21478628D02*
X85023809Y-21431009D01*
X85023809Y-21431009D02*
X84928571Y-21383390D01*
X84928571Y-21383390D02*
X84880952Y-21335771D01*
X84880952Y-21335771D02*
X84833333Y-21240533D01*
X84833333Y-21240533D02*
X84833333Y-21145295D01*
X84833333Y-21145295D02*
X84880952Y-21050057D01*
X84880952Y-21050057D02*
X84928571Y-21002438D01*
X84928571Y-21002438D02*
X85023809Y-20954819D01*
X85023809Y-20954819D02*
X85261904Y-20954819D01*
X85261904Y-20954819D02*
X85404761Y-21002438D01*
X85833333Y-21431009D02*
X86166666Y-21431009D01*
X86309523Y-21954819D02*
X85833333Y-21954819D01*
X85833333Y-21954819D02*
X85833333Y-20954819D01*
X85833333Y-20954819D02*
X86309523Y-20954819D01*
X88071428Y-21859580D02*
X88023809Y-21907200D01*
X88023809Y-21907200D02*
X87880952Y-21954819D01*
X87880952Y-21954819D02*
X87785714Y-21954819D01*
X87785714Y-21954819D02*
X87642857Y-21907200D01*
X87642857Y-21907200D02*
X87547619Y-21811961D01*
X87547619Y-21811961D02*
X87500000Y-21716723D01*
X87500000Y-21716723D02*
X87452381Y-21526247D01*
X87452381Y-21526247D02*
X87452381Y-21383390D01*
X87452381Y-21383390D02*
X87500000Y-21192914D01*
X87500000Y-21192914D02*
X87547619Y-21097676D01*
X87547619Y-21097676D02*
X87642857Y-21002438D01*
X87642857Y-21002438D02*
X87785714Y-20954819D01*
X87785714Y-20954819D02*
X87880952Y-20954819D01*
X87880952Y-20954819D02*
X88023809Y-21002438D01*
X88023809Y-21002438D02*
X88071428Y-21050057D01*
X80357142Y-62159580D02*
X80309523Y-62207200D01*
X80309523Y-62207200D02*
X80166666Y-62254819D01*
X80166666Y-62254819D02*
X80071428Y-62254819D01*
X80071428Y-62254819D02*
X79928571Y-62207200D01*
X79928571Y-62207200D02*
X79833333Y-62111961D01*
X79833333Y-62111961D02*
X79785714Y-62016723D01*
X79785714Y-62016723D02*
X79738095Y-61826247D01*
X79738095Y-61826247D02*
X79738095Y-61683390D01*
X79738095Y-61683390D02*
X79785714Y-61492914D01*
X79785714Y-61492914D02*
X79833333Y-61397676D01*
X79833333Y-61397676D02*
X79928571Y-61302438D01*
X79928571Y-61302438D02*
X80071428Y-61254819D01*
X80071428Y-61254819D02*
X80166666Y-61254819D01*
X80166666Y-61254819D02*
X80309523Y-61302438D01*
X80309523Y-61302438D02*
X80357142Y-61350057D01*
X81309523Y-62254819D02*
X80738095Y-62254819D01*
X81023809Y-62254819D02*
X81023809Y-61254819D01*
X81023809Y-61254819D02*
X80928571Y-61397676D01*
X80928571Y-61397676D02*
X80833333Y-61492914D01*
X80833333Y-61492914D02*
X80738095Y-61540533D01*
X81880952Y-61683390D02*
X81785714Y-61635771D01*
X81785714Y-61635771D02*
X81738095Y-61588152D01*
X81738095Y-61588152D02*
X81690476Y-61492914D01*
X81690476Y-61492914D02*
X81690476Y-61445295D01*
X81690476Y-61445295D02*
X81738095Y-61350057D01*
X81738095Y-61350057D02*
X81785714Y-61302438D01*
X81785714Y-61302438D02*
X81880952Y-61254819D01*
X81880952Y-61254819D02*
X82071428Y-61254819D01*
X82071428Y-61254819D02*
X82166666Y-61302438D01*
X82166666Y-61302438D02*
X82214285Y-61350057D01*
X82214285Y-61350057D02*
X82261904Y-61445295D01*
X82261904Y-61445295D02*
X82261904Y-61492914D01*
X82261904Y-61492914D02*
X82214285Y-61588152D01*
X82214285Y-61588152D02*
X82166666Y-61635771D01*
X82166666Y-61635771D02*
X82071428Y-61683390D01*
X82071428Y-61683390D02*
X81880952Y-61683390D01*
X81880952Y-61683390D02*
X81785714Y-61731009D01*
X81785714Y-61731009D02*
X81738095Y-61778628D01*
X81738095Y-61778628D02*
X81690476Y-61873866D01*
X81690476Y-61873866D02*
X81690476Y-62064342D01*
X81690476Y-62064342D02*
X81738095Y-62159580D01*
X81738095Y-62159580D02*
X81785714Y-62207200D01*
X81785714Y-62207200D02*
X81880952Y-62254819D01*
X81880952Y-62254819D02*
X82071428Y-62254819D01*
X82071428Y-62254819D02*
X82166666Y-62207200D01*
X82166666Y-62207200D02*
X82214285Y-62159580D01*
X82214285Y-62159580D02*
X82261904Y-62064342D01*
X82261904Y-62064342D02*
X82261904Y-61873866D01*
X82261904Y-61873866D02*
X82214285Y-61778628D01*
X82214285Y-61778628D02*
X82166666Y-61731009D01*
X82166666Y-61731009D02*
X82071428Y-61683390D01*
X32954819Y-46666666D02*
X32478628Y-46999999D01*
X32954819Y-47238094D02*
X31954819Y-47238094D01*
X31954819Y-47238094D02*
X31954819Y-46857142D01*
X31954819Y-46857142D02*
X32002438Y-46761904D01*
X32002438Y-46761904D02*
X32050057Y-46714285D01*
X32050057Y-46714285D02*
X32145295Y-46666666D01*
X32145295Y-46666666D02*
X32288152Y-46666666D01*
X32288152Y-46666666D02*
X32383390Y-46714285D01*
X32383390Y-46714285D02*
X32431009Y-46761904D01*
X32431009Y-46761904D02*
X32478628Y-46857142D01*
X32478628Y-46857142D02*
X32478628Y-47238094D01*
X31954819Y-46333332D02*
X31954819Y-45714285D01*
X31954819Y-45714285D02*
X32335771Y-46047618D01*
X32335771Y-46047618D02*
X32335771Y-45904761D01*
X32335771Y-45904761D02*
X32383390Y-45809523D01*
X32383390Y-45809523D02*
X32431009Y-45761904D01*
X32431009Y-45761904D02*
X32526247Y-45714285D01*
X32526247Y-45714285D02*
X32764342Y-45714285D01*
X32764342Y-45714285D02*
X32859580Y-45761904D01*
X32859580Y-45761904D02*
X32907200Y-45809523D01*
X32907200Y-45809523D02*
X32954819Y-45904761D01*
X32954819Y-45904761D02*
X32954819Y-46190475D01*
X32954819Y-46190475D02*
X32907200Y-46285713D01*
X32907200Y-46285713D02*
X32859580Y-46333332D01*
X109654819Y-36619047D02*
X109654819Y-37190475D01*
X109654819Y-36904761D02*
X108654819Y-36904761D01*
X108654819Y-36904761D02*
X108797676Y-36999999D01*
X108797676Y-36999999D02*
X108892914Y-37095237D01*
X108892914Y-37095237D02*
X108940533Y-37190475D01*
X108750057Y-36238094D02*
X108702438Y-36190475D01*
X108702438Y-36190475D02*
X108654819Y-36095237D01*
X108654819Y-36095237D02*
X108654819Y-35857142D01*
X108654819Y-35857142D02*
X108702438Y-35761904D01*
X108702438Y-35761904D02*
X108750057Y-35714285D01*
X108750057Y-35714285D02*
X108845295Y-35666666D01*
X108845295Y-35666666D02*
X108940533Y-35666666D01*
X108940533Y-35666666D02*
X109083390Y-35714285D01*
X109083390Y-35714285D02*
X109654819Y-36285713D01*
X109654819Y-36285713D02*
X109654819Y-35666666D01*
X108654819Y-35380951D02*
X109654819Y-35047618D01*
X109654819Y-35047618D02*
X108654819Y-34714285D01*
X101088095Y-64992319D02*
X101088095Y-65801842D01*
X101088095Y-65801842D02*
X101135714Y-65897080D01*
X101135714Y-65897080D02*
X101183333Y-65944700D01*
X101183333Y-65944700D02*
X101278571Y-65992319D01*
X101278571Y-65992319D02*
X101469047Y-65992319D01*
X101469047Y-65992319D02*
X101564285Y-65944700D01*
X101564285Y-65944700D02*
X101611904Y-65897080D01*
X101611904Y-65897080D02*
X101659523Y-65801842D01*
X101659523Y-65801842D02*
X101659523Y-64992319D01*
X102659523Y-65992319D02*
X102088095Y-65992319D01*
X102373809Y-65992319D02*
X102373809Y-64992319D01*
X102373809Y-64992319D02*
X102278571Y-65135176D01*
X102278571Y-65135176D02*
X102183333Y-65230414D01*
X102183333Y-65230414D02*
X102088095Y-65278033D01*
D11*
X38000000Y-57315000D02*
X36850000Y-57315000D01*
X38000000Y-57315000D02*
X39150000Y-57315000D01*
X38000000Y-59685000D02*
X36850000Y-59685000D01*
X38000000Y-59685000D02*
X39150000Y-59685000D01*
X40615000Y-59490000D02*
X40285000Y-59250000D01*
X40615000Y-59010000D01*
X40615000Y-59490000D01*
G36*
X40615000Y-59490000D02*
G01*
X40285000Y-59250000D01*
X40615000Y-59010000D01*
X40615000Y-59490000D01*
G37*
X64000000Y-57315000D02*
X62850000Y-57315000D01*
X64000000Y-57315000D02*
X65150000Y-57315000D01*
X64000000Y-59685000D02*
X62850000Y-59685000D01*
X64000000Y-59685000D02*
X65150000Y-59685000D01*
X66615000Y-59490000D02*
X66285000Y-59250000D01*
X66615000Y-59010000D01*
X66615000Y-59490000D01*
G36*
X66615000Y-59490000D02*
G01*
X66285000Y-59250000D01*
X66615000Y-59010000D01*
X66615000Y-59490000D01*
G37*
X90000000Y-57315000D02*
X88850000Y-57315000D01*
X90000000Y-57315000D02*
X91150000Y-57315000D01*
X90000000Y-59685000D02*
X88850000Y-59685000D01*
X90000000Y-59685000D02*
X91150000Y-59685000D01*
X92615000Y-59490000D02*
X92285000Y-59250000D01*
X92615000Y-59010000D01*
X92615000Y-59490000D01*
G36*
X92615000Y-59490000D02*
G01*
X92285000Y-59250000D01*
X92615000Y-59010000D01*
X92615000Y-59490000D01*
G37*
X23955000Y-53495000D02*
X23955000Y-49400000D01*
X22045000Y-53495000D02*
X23955000Y-53495000D01*
X22045000Y-49400000D02*
X22045000Y-53495000D01*
X49955000Y-53495000D02*
X49955000Y-49400000D01*
X48045000Y-53495000D02*
X49955000Y-53495000D01*
X48045000Y-49400000D02*
X48045000Y-53495000D01*
X75955000Y-53495000D02*
X75955000Y-49400000D01*
X74045000Y-53495000D02*
X75955000Y-53495000D01*
X74045000Y-49400000D02*
X74045000Y-53495000D01*
X21240000Y-64804437D02*
X21240000Y-72260000D01*
X21240000Y-72260000D02*
X23990000Y-72260000D01*
X22304437Y-63740000D02*
X21240000Y-64804437D01*
X22304437Y-63740000D02*
X23990000Y-63740000D01*
X28010000Y-62500000D02*
X28010000Y-63500000D01*
X28510000Y-63000000D02*
X27510000Y-63000000D01*
X28695563Y-63740000D02*
X27010000Y-63740000D01*
X28695563Y-63740000D02*
X29760000Y-64804437D01*
X29760000Y-64804437D02*
X29760000Y-72260000D01*
X29760000Y-72260000D02*
X27010000Y-72260000D01*
X92290000Y-40822936D02*
X92290000Y-45177064D01*
X95710000Y-40822936D02*
X95710000Y-45177064D01*
X40290000Y-40822936D02*
X40290000Y-45177064D01*
X43710000Y-40822936D02*
X43710000Y-45177064D01*
X59265000Y-45227064D02*
X59265000Y-44772936D01*
X60735000Y-45227064D02*
X60735000Y-44772936D01*
X70265000Y-54261252D02*
X70265000Y-53738748D01*
X71735000Y-54261252D02*
X71735000Y-53738748D01*
X74000000Y-54640000D02*
X74000000Y-58650000D01*
X76000000Y-54640000D02*
X74000000Y-54640000D01*
X76000000Y-54640000D02*
X76000000Y-58650000D01*
X44261252Y-49265000D02*
X43738748Y-49265000D01*
X44261252Y-50735000D02*
X43738748Y-50735000D01*
X40000000Y-51440000D02*
X38050000Y-51440000D01*
X40000000Y-51440000D02*
X41950000Y-51440000D01*
X40000000Y-56560000D02*
X38050000Y-56560000D01*
X40000000Y-56560000D02*
X41950000Y-56560000D01*
X37300000Y-51535000D02*
X37060000Y-51205000D01*
X37540000Y-51205000D01*
X37300000Y-51535000D01*
G36*
X37300000Y-51535000D02*
G01*
X37060000Y-51205000D01*
X37540000Y-51205000D01*
X37300000Y-51535000D01*
G37*
X88265000Y-61738748D02*
X88265000Y-62261252D01*
X89735000Y-61738748D02*
X89735000Y-62261252D01*
X58772936Y-60265000D02*
X59227064Y-60265000D01*
X58772936Y-61735000D02*
X59227064Y-61735000D01*
X85860000Y-73780000D02*
X85860000Y-80520000D01*
X85860000Y-73780000D02*
X94220000Y-73780000D01*
X85860000Y-75500000D02*
X94220000Y-75500000D01*
X85860000Y-78600000D02*
X94220000Y-78600000D01*
X85860000Y-79600000D02*
X94220000Y-79600000D01*
X85860000Y-80520000D02*
X87200000Y-80520000D01*
X87800000Y-80520000D02*
X94220000Y-80520000D01*
X94220000Y-73780000D02*
X94220000Y-80520000D01*
X87940000Y-81130000D02*
X87060000Y-81130000D01*
X87500000Y-80520000D01*
X87940000Y-81130000D01*
G36*
X87940000Y-81130000D02*
G01*
X87060000Y-81130000D01*
X87500000Y-80520000D01*
X87940000Y-81130000D01*
G37*
X98765000Y-57261252D02*
X98765000Y-56738748D01*
X100235000Y-57261252D02*
X100235000Y-56738748D01*
X44265000Y-54261252D02*
X44265000Y-53738748D01*
X45735000Y-54261252D02*
X45735000Y-53738748D01*
X42765000Y-60227064D02*
X42765000Y-59772936D01*
X44235000Y-60227064D02*
X44235000Y-59772936D01*
X36265000Y-61738748D02*
X36265000Y-62261252D01*
X37735000Y-61738748D02*
X37735000Y-62261252D01*
X32772936Y-60265000D02*
X33227064Y-60265000D01*
X32772936Y-61735000D02*
X33227064Y-61735000D01*
X53265000Y-45227064D02*
X53265000Y-44772936D01*
X54735000Y-45227064D02*
X54735000Y-44772936D01*
X62265000Y-61738748D02*
X62265000Y-62261252D01*
X63735000Y-61738748D02*
X63735000Y-62261252D01*
X22420000Y-30730000D02*
X22420000Y-35371000D01*
X22420000Y-30730000D02*
X32660000Y-30730000D01*
X22420000Y-32240000D02*
X32660000Y-32240000D01*
X22420000Y-35371000D02*
X32660000Y-35371000D01*
X25690000Y-30730000D02*
X25690000Y-32240000D01*
X29391000Y-30730000D02*
X29391000Y-32240000D01*
X32660000Y-30730000D02*
X32660000Y-35371000D01*
X76670000Y-51940000D02*
X76670000Y-53190000D01*
X76670000Y-55190000D02*
X76670000Y-56440000D01*
X76670000Y-56440000D02*
X86950000Y-56440000D01*
X86950000Y-51940000D02*
X76670000Y-51940000D01*
X86950000Y-56440000D02*
X86950000Y-51940000D01*
X76610000Y-59440000D02*
X87010000Y-59440000D01*
X87010000Y-48940000D01*
X76610000Y-48940000D01*
X76610000Y-59440000D01*
X76670000Y-53190000D02*
G75*
G02*
X76670000Y-55190000I0J-1000000D01*
G01*
X73240000Y-64804437D02*
X73240000Y-72260000D01*
X73240000Y-72260000D02*
X75990000Y-72260000D01*
X74304437Y-63740000D02*
X73240000Y-64804437D01*
X74304437Y-63740000D02*
X75990000Y-63740000D01*
X80010000Y-62500000D02*
X80010000Y-63500000D01*
X80510000Y-63000000D02*
X79510000Y-63000000D01*
X80695563Y-63740000D02*
X79010000Y-63740000D01*
X80695563Y-63740000D02*
X81760000Y-64804437D01*
X81760000Y-64804437D02*
X81760000Y-72260000D01*
X81760000Y-72260000D02*
X79010000Y-72260000D01*
X101280000Y-66820000D02*
X108020000Y-66820000D01*
X101280000Y-72640000D02*
X101280000Y-66820000D01*
X101280000Y-72640000D02*
X108020000Y-72640000D01*
X103000000Y-72640000D02*
X103000000Y-66820000D01*
X106100000Y-72640000D02*
X106100000Y-66820000D01*
X107100000Y-72640000D02*
X107100000Y-66820000D01*
X108020000Y-70700000D02*
X108020000Y-66820000D01*
X108020000Y-72640000D02*
X108020000Y-71300000D01*
X108630000Y-71440000D02*
X108020000Y-71000000D01*
X108630000Y-70560000D01*
X108630000Y-71440000D01*
G36*
X108630000Y-71440000D02*
G01*
X108020000Y-71000000D01*
X108630000Y-70560000D01*
X108630000Y-71440000D01*
G37*
X74420000Y-30730000D02*
X74420000Y-35371000D01*
X74420000Y-30730000D02*
X84660000Y-30730000D01*
X74420000Y-32240000D02*
X84660000Y-32240000D01*
X74420000Y-35371000D02*
X84660000Y-35371000D01*
X77690000Y-30730000D02*
X77690000Y-32240000D01*
X81391000Y-30730000D02*
X81391000Y-32240000D01*
X84660000Y-30730000D02*
X84660000Y-35371000D01*
X79265000Y-45227064D02*
X79265000Y-44772936D01*
X80735000Y-45227064D02*
X80735000Y-44772936D01*
X59860000Y-73780000D02*
X59860000Y-80520000D01*
X59860000Y-73780000D02*
X68220000Y-73780000D01*
X59860000Y-75500000D02*
X68220000Y-75500000D01*
X59860000Y-78600000D02*
X68220000Y-78600000D01*
X59860000Y-79600000D02*
X68220000Y-79600000D01*
X59860000Y-80520000D02*
X61200000Y-80520000D01*
X61800000Y-80520000D02*
X68220000Y-80520000D01*
X68220000Y-73780000D02*
X68220000Y-80520000D01*
X61940000Y-81130000D02*
X61060000Y-81130000D01*
X61500000Y-80520000D01*
X61940000Y-81130000D01*
G36*
X61940000Y-81130000D02*
G01*
X61060000Y-81130000D01*
X61500000Y-80520000D01*
X61940000Y-81130000D01*
G37*
X60420000Y-30730000D02*
X60420000Y-35371000D01*
X60420000Y-30730000D02*
X70660000Y-30730000D01*
X60420000Y-32240000D02*
X70660000Y-32240000D01*
X60420000Y-35371000D02*
X70660000Y-35371000D01*
X63690000Y-30730000D02*
X63690000Y-32240000D01*
X67391000Y-30730000D02*
X67391000Y-32240000D01*
X70660000Y-30730000D02*
X70660000Y-35371000D01*
X34420000Y-30730000D02*
X34420000Y-35371000D01*
X34420000Y-30730000D02*
X44660000Y-30730000D01*
X34420000Y-32240000D02*
X44660000Y-32240000D01*
X34420000Y-35371000D02*
X44660000Y-35371000D01*
X37690000Y-30730000D02*
X37690000Y-32240000D01*
X41391000Y-30730000D02*
X41391000Y-32240000D01*
X44660000Y-30730000D02*
X44660000Y-35371000D01*
X33860000Y-73780000D02*
X33860000Y-80520000D01*
X33860000Y-73780000D02*
X42220000Y-73780000D01*
X33860000Y-75500000D02*
X42220000Y-75500000D01*
X33860000Y-78600000D02*
X42220000Y-78600000D01*
X33860000Y-79600000D02*
X42220000Y-79600000D01*
X33860000Y-80520000D02*
X35200000Y-80520000D01*
X35800000Y-80520000D02*
X42220000Y-80520000D01*
X42220000Y-73780000D02*
X42220000Y-80520000D01*
X35940000Y-81130000D02*
X35060000Y-81130000D01*
X35500000Y-80520000D01*
X35940000Y-81130000D01*
G36*
X35940000Y-81130000D02*
G01*
X35060000Y-81130000D01*
X35500000Y-80520000D01*
X35940000Y-81130000D01*
G37*
X50670000Y-51940000D02*
X50670000Y-53190000D01*
X50670000Y-55190000D02*
X50670000Y-56440000D01*
X50670000Y-56440000D02*
X60950000Y-56440000D01*
X60950000Y-51940000D02*
X50670000Y-51940000D01*
X60950000Y-56440000D02*
X60950000Y-51940000D01*
X50610000Y-59440000D02*
X61010000Y-59440000D01*
X61010000Y-48940000D01*
X50610000Y-48940000D01*
X50610000Y-59440000D01*
X50670000Y-53190000D02*
G75*
G02*
X50670000Y-55190000I0J-1000000D01*
G01*
X36000000Y-47360000D02*
X36000000Y-43350000D01*
X36000000Y-47360000D02*
X38000000Y-47360000D01*
X38000000Y-47360000D02*
X38000000Y-43350000D01*
X66000000Y-51440000D02*
X64050000Y-51440000D01*
X66000000Y-51440000D02*
X67950000Y-51440000D01*
X66000000Y-56560000D02*
X64050000Y-56560000D01*
X66000000Y-56560000D02*
X67950000Y-56560000D01*
X63300000Y-51535000D02*
X63060000Y-51205000D01*
X63540000Y-51205000D01*
X63300000Y-51535000D01*
G36*
X63300000Y-51535000D02*
G01*
X63060000Y-51205000D01*
X63540000Y-51205000D01*
X63300000Y-51535000D01*
G37*
X24000000Y-47360000D02*
X24000000Y-43350000D01*
X24000000Y-47360000D02*
X26000000Y-47360000D01*
X26000000Y-47360000D02*
X26000000Y-43350000D01*
X106765000Y-57261252D02*
X106765000Y-56738748D01*
X108235000Y-57261252D02*
X108235000Y-56738748D01*
X96265000Y-54261252D02*
X96265000Y-53738748D01*
X97735000Y-54261252D02*
X97735000Y-53738748D01*
X98040000Y-60000000D02*
X98040000Y-62860000D01*
X98040000Y-62860000D02*
X99960000Y-62860000D01*
X99960000Y-62860000D02*
X99960000Y-60000000D01*
X94765000Y-60227064D02*
X94765000Y-59772936D01*
X96235000Y-60227064D02*
X96235000Y-59772936D01*
X48000000Y-54640000D02*
X48000000Y-58650000D01*
X50000000Y-54640000D02*
X48000000Y-54640000D01*
X50000000Y-54640000D02*
X50000000Y-58650000D01*
X88000000Y-47360000D02*
X88000000Y-43350000D01*
X88000000Y-47360000D02*
X90000000Y-47360000D01*
X90000000Y-47360000D02*
X90000000Y-43350000D01*
X84772936Y-60265000D02*
X85227064Y-60265000D01*
X84772936Y-61735000D02*
X85227064Y-61735000D01*
X76000000Y-47360000D02*
X76000000Y-43350000D01*
X76000000Y-47360000D02*
X78000000Y-47360000D01*
X78000000Y-47360000D02*
X78000000Y-43350000D01*
X68765000Y-60227064D02*
X68765000Y-59772936D01*
X70235000Y-60227064D02*
X70235000Y-59772936D01*
X105265000Y-42738748D02*
X105265000Y-43261252D01*
X106735000Y-42738748D02*
X106735000Y-43261252D01*
X98265000Y-64772936D02*
X98265000Y-65227064D01*
X99735000Y-64772936D02*
X99735000Y-65227064D01*
X22505000Y-60045000D02*
X22505000Y-61955000D01*
X22505000Y-61955000D02*
X26600000Y-61955000D01*
X26600000Y-60045000D02*
X22505000Y-60045000D01*
X92765000Y-59772936D02*
X92765000Y-60227064D01*
X94235000Y-59772936D02*
X94235000Y-60227064D01*
X24670000Y-51940000D02*
X24670000Y-53190000D01*
X24670000Y-55190000D02*
X24670000Y-56440000D01*
X24670000Y-56440000D02*
X34950000Y-56440000D01*
X34950000Y-51940000D02*
X24670000Y-51940000D01*
X34950000Y-56440000D02*
X34950000Y-51940000D01*
X24610000Y-59440000D02*
X35010000Y-59440000D01*
X35010000Y-48940000D01*
X24610000Y-48940000D01*
X24610000Y-59440000D01*
X24670000Y-53190000D02*
G75*
G02*
X24670000Y-55190000I0J-1000000D01*
G01*
X92000000Y-51440000D02*
X90050000Y-51440000D01*
X92000000Y-51440000D02*
X93950000Y-51440000D01*
X92000000Y-56560000D02*
X90050000Y-56560000D01*
X92000000Y-56560000D02*
X93950000Y-56560000D01*
X89300000Y-51535000D02*
X89060000Y-51205000D01*
X89540000Y-51205000D01*
X89300000Y-51535000D01*
G36*
X89300000Y-51535000D02*
G01*
X89060000Y-51205000D01*
X89540000Y-51205000D01*
X89300000Y-51535000D01*
G37*
X48420000Y-30730000D02*
X48420000Y-35371000D01*
X48420000Y-30730000D02*
X58660000Y-30730000D01*
X48420000Y-32240000D02*
X58660000Y-32240000D01*
X48420000Y-35371000D02*
X58660000Y-35371000D01*
X51690000Y-30730000D02*
X51690000Y-32240000D01*
X55391000Y-30730000D02*
X55391000Y-32240000D01*
X58660000Y-30730000D02*
X58660000Y-35371000D01*
X27265000Y-45227064D02*
X27265000Y-44772936D01*
X28735000Y-45227064D02*
X28735000Y-44772936D01*
X86420000Y-30730000D02*
X86420000Y-35371000D01*
X86420000Y-30730000D02*
X96660000Y-30730000D01*
X86420000Y-32240000D02*
X96660000Y-32240000D01*
X86420000Y-35371000D02*
X96660000Y-35371000D01*
X89690000Y-30730000D02*
X89690000Y-32240000D01*
X93391000Y-30730000D02*
X93391000Y-32240000D01*
X96660000Y-30730000D02*
X96660000Y-35371000D01*
X85265000Y-45227064D02*
X85265000Y-44772936D01*
X86735000Y-45227064D02*
X86735000Y-44772936D01*
X70261252Y-49265000D02*
X69738748Y-49265000D01*
X70261252Y-50735000D02*
X69738748Y-50735000D01*
X40765000Y-59772936D02*
X40765000Y-60227064D01*
X42235000Y-59772936D02*
X42235000Y-60227064D01*
X62000000Y-47360000D02*
X62000000Y-43350000D01*
X62000000Y-47360000D02*
X64000000Y-47360000D01*
X64000000Y-47360000D02*
X64000000Y-43350000D01*
X66290000Y-40822936D02*
X66290000Y-45177064D01*
X69710000Y-40822936D02*
X69710000Y-45177064D01*
X101265000Y-57261252D02*
X101265000Y-56738748D01*
X102735000Y-57261252D02*
X102735000Y-56738748D01*
X48505000Y-60045000D02*
X48505000Y-61955000D01*
X48505000Y-61955000D02*
X52600000Y-61955000D01*
X52600000Y-60045000D02*
X48505000Y-60045000D01*
X104265000Y-57261252D02*
X104265000Y-56738748D01*
X105735000Y-57261252D02*
X105735000Y-56738748D01*
X96261252Y-49265000D02*
X95738748Y-49265000D01*
X96261252Y-50735000D02*
X95738748Y-50735000D01*
X66765000Y-59772936D02*
X66765000Y-60227064D01*
X68235000Y-59772936D02*
X68235000Y-60227064D01*
X47240000Y-64804437D02*
X47240000Y-72260000D01*
X47240000Y-72260000D02*
X49990000Y-72260000D01*
X48304437Y-63740000D02*
X47240000Y-64804437D01*
X48304437Y-63740000D02*
X49990000Y-63740000D01*
X54010000Y-62500000D02*
X54010000Y-63500000D01*
X54510000Y-63000000D02*
X53510000Y-63000000D01*
X54695563Y-63740000D02*
X53010000Y-63740000D01*
X54695563Y-63740000D02*
X55760000Y-64804437D01*
X55760000Y-64804437D02*
X55760000Y-72260000D01*
X55760000Y-72260000D02*
X53010000Y-72260000D01*
X22000000Y-54640000D02*
X22000000Y-58650000D01*
X24000000Y-54640000D02*
X22000000Y-54640000D01*
X24000000Y-54640000D02*
X24000000Y-58650000D01*
X50000000Y-47360000D02*
X50000000Y-43350000D01*
X50000000Y-47360000D02*
X52000000Y-47360000D01*
X52000000Y-47360000D02*
X52000000Y-43350000D01*
X74505000Y-60045000D02*
X74505000Y-61955000D01*
X74505000Y-61955000D02*
X78600000Y-61955000D01*
X78600000Y-60045000D02*
X74505000Y-60045000D01*
X33265000Y-45227064D02*
X33265000Y-44772936D01*
X34735000Y-45227064D02*
X34735000Y-44772936D01*
X103090000Y-59090000D02*
X103090000Y-60350000D01*
X103090000Y-65910000D02*
X103090000Y-64650000D01*
X106850000Y-59090000D02*
X103090000Y-59090000D01*
X106850000Y-65910000D02*
X103090000Y-65910000D01*
X108370000Y-66140000D02*
X107890000Y-66140000D01*
X108130000Y-65810000D01*
X108370000Y-66140000D01*
G36*
X108370000Y-66140000D02*
G01*
X107890000Y-66140000D01*
X108130000Y-65810000D01*
X108370000Y-66140000D01*
G37*
%LPC*%
D12*
X25000000Y-25000000D03*
X105000000Y-25000000D03*
X25000000Y-78000000D03*
X105000000Y-78000000D03*
D13*
X39400000Y-59250000D03*
X39400000Y-58750000D03*
X39400000Y-58250000D03*
X39400000Y-57750000D03*
X36600000Y-57750000D03*
X36600000Y-58250000D03*
X36600000Y-58750000D03*
X36600000Y-59250000D03*
X65400000Y-59250000D03*
X65400000Y-58750000D03*
X65400000Y-58250000D03*
X65400000Y-57750000D03*
X62600000Y-57750000D03*
X62600000Y-58250000D03*
X62600000Y-58750000D03*
X62600000Y-59250000D03*
X91400000Y-59250000D03*
X91400000Y-58750000D03*
X91400000Y-58250000D03*
X91400000Y-57750000D03*
X88600000Y-57750000D03*
X88600000Y-58250000D03*
X88600000Y-58750000D03*
X88600000Y-59250000D03*
D14*
X23000000Y-49560000D03*
X23000000Y-52440000D03*
X49000000Y-49560000D03*
X49000000Y-52440000D03*
X75000000Y-49560000D03*
X75000000Y-52440000D03*
D15*
X25500000Y-64750000D03*
X25500000Y-71250000D03*
D16*
X94000000Y-40037500D03*
X94000000Y-45962500D03*
X42000000Y-40037500D03*
X42000000Y-45962500D03*
D17*
X60000000Y-46000000D03*
X60000000Y-44000000D03*
D18*
X71000000Y-55037500D03*
X71000000Y-52962500D03*
D19*
X75000000Y-55350000D03*
X75000000Y-58650000D03*
D20*
X45037500Y-50000000D03*
X42962500Y-50000000D03*
D21*
X37525000Y-52095000D03*
X37525000Y-53365000D03*
X37525000Y-54635000D03*
X37525000Y-55905000D03*
X42475000Y-55905000D03*
X42475000Y-54635000D03*
X42475000Y-53365000D03*
X42475000Y-52095000D03*
D22*
X89000000Y-60962500D03*
X89000000Y-63037500D03*
D23*
X65000000Y-25000000D03*
D24*
X65000000Y-25000000D03*
D25*
X58000000Y-61000000D03*
X60000000Y-61000000D03*
D26*
X87500000Y-77000000D03*
D27*
X90040000Y-77000000D03*
X92580000Y-77000000D03*
D18*
X99500000Y-58037500D03*
X99500000Y-55962500D03*
X45000000Y-55037500D03*
X45000000Y-52962500D03*
D17*
X43500000Y-61000000D03*
X43500000Y-59000000D03*
D22*
X37000000Y-60962500D03*
X37000000Y-63037500D03*
D25*
X32000000Y-61000000D03*
X34000000Y-61000000D03*
D17*
X54000000Y-46000000D03*
X54000000Y-44000000D03*
D22*
X63000000Y-60962500D03*
X63000000Y-63037500D03*
D28*
X25000000Y-34000000D03*
D29*
X27540000Y-34000000D03*
X30080000Y-34000000D03*
D30*
X78000000Y-58000000D03*
D31*
X80540000Y-58000000D03*
X83080000Y-58000000D03*
X85620000Y-58000000D03*
X85620000Y-50380000D03*
X83080000Y-50380000D03*
X80540000Y-50380000D03*
X78000000Y-50380000D03*
D15*
X77500000Y-64750000D03*
X77500000Y-71250000D03*
D32*
X104500000Y-71000000D03*
D27*
X104500000Y-68460000D03*
D28*
X77000000Y-34000000D03*
D29*
X79540000Y-34000000D03*
X82080000Y-34000000D03*
D17*
X80000000Y-46000000D03*
X80000000Y-44000000D03*
D26*
X61500000Y-77000000D03*
D27*
X64040000Y-77000000D03*
X66580000Y-77000000D03*
D28*
X63000000Y-34000000D03*
D29*
X65540000Y-34000000D03*
X68080000Y-34000000D03*
D28*
X37000000Y-34000000D03*
D29*
X39540000Y-34000000D03*
X42080000Y-34000000D03*
D26*
X35500000Y-77000000D03*
D27*
X38040000Y-77000000D03*
X40580000Y-77000000D03*
D30*
X52000000Y-58000000D03*
D31*
X54540000Y-58000000D03*
X57080000Y-58000000D03*
X59620000Y-58000000D03*
X59620000Y-50380000D03*
X57080000Y-50380000D03*
X54540000Y-50380000D03*
X52000000Y-50380000D03*
D33*
X37000000Y-46650000D03*
X37000000Y-43350000D03*
D21*
X63525000Y-52095000D03*
X63525000Y-53365000D03*
X63525000Y-54635000D03*
X63525000Y-55905000D03*
X68475000Y-55905000D03*
X68475000Y-54635000D03*
X68475000Y-53365000D03*
X68475000Y-52095000D03*
D23*
X106000000Y-50000000D03*
D24*
X106000000Y-50000000D03*
D33*
X25000000Y-46650000D03*
X25000000Y-43350000D03*
D18*
X107500000Y-58037500D03*
X107500000Y-55962500D03*
X97000000Y-55037500D03*
X97000000Y-52962500D03*
D34*
X99000000Y-62025000D03*
X99000000Y-59975000D03*
D17*
X95500000Y-61000000D03*
X95500000Y-59000000D03*
D23*
X45000000Y-25000000D03*
D24*
X45000000Y-25000000D03*
D19*
X49000000Y-55350000D03*
X49000000Y-58650000D03*
D33*
X89000000Y-46650000D03*
X89000000Y-43350000D03*
D25*
X84000000Y-61000000D03*
X86000000Y-61000000D03*
D33*
X77000000Y-46650000D03*
X77000000Y-43350000D03*
D17*
X69500000Y-61000000D03*
X69500000Y-59000000D03*
D22*
X106000000Y-41962500D03*
X106000000Y-44037500D03*
D35*
X99000000Y-64000000D03*
X99000000Y-66000000D03*
D36*
X23560000Y-61000000D03*
X26440000Y-61000000D03*
D35*
X93500000Y-59000000D03*
X93500000Y-61000000D03*
D30*
X26000000Y-58000000D03*
D31*
X28540000Y-58000000D03*
X31080000Y-58000000D03*
X33620000Y-58000000D03*
X33620000Y-50380000D03*
X31080000Y-50380000D03*
X28540000Y-50380000D03*
X26000000Y-50380000D03*
D21*
X89525000Y-52095000D03*
X89525000Y-53365000D03*
X89525000Y-54635000D03*
X89525000Y-55905000D03*
X94475000Y-55905000D03*
X94475000Y-54635000D03*
X94475000Y-53365000D03*
X94475000Y-52095000D03*
D28*
X51000000Y-34000000D03*
D29*
X53540000Y-34000000D03*
X56080000Y-34000000D03*
D17*
X28000000Y-46000000D03*
X28000000Y-44000000D03*
D28*
X89000000Y-34000000D03*
D29*
X91540000Y-34000000D03*
X94080000Y-34000000D03*
D17*
X86000000Y-46000000D03*
X86000000Y-44000000D03*
D20*
X71037500Y-50000000D03*
X68962500Y-50000000D03*
D35*
X41500000Y-59000000D03*
X41500000Y-61000000D03*
D33*
X63000000Y-46650000D03*
X63000000Y-43350000D03*
D16*
X68000000Y-40037500D03*
X68000000Y-45962500D03*
D18*
X102000000Y-58037500D03*
X102000000Y-55962500D03*
D36*
X49560000Y-61000000D03*
X52440000Y-61000000D03*
D18*
X105000000Y-58037500D03*
X105000000Y-55962500D03*
D20*
X97037500Y-50000000D03*
X94962500Y-50000000D03*
D35*
X67500000Y-59000000D03*
X67500000Y-61000000D03*
D15*
X51500000Y-64750000D03*
X51500000Y-71250000D03*
D23*
X85000000Y-25000000D03*
D24*
X85000000Y-25000000D03*
D19*
X23000000Y-55350000D03*
X23000000Y-58650000D03*
D33*
X51000000Y-46650000D03*
X51000000Y-43350000D03*
D36*
X75560000Y-61000000D03*
X78440000Y-61000000D03*
D17*
X34000000Y-46000000D03*
X34000000Y-44000000D03*
D23*
X106000000Y-36000000D03*
D24*
X106000000Y-36000000D03*
D37*
X108150000Y-64800000D03*
X108150000Y-62500000D03*
D38*
X101850000Y-62500000D03*
D37*
X108150000Y-60200000D03*
G36*
X73443039Y-22519685D02*
G01*
X73488794Y-22572489D01*
X73500000Y-22624000D01*
X73500000Y-27376000D01*
X73480315Y-27443039D01*
X73427511Y-27488794D01*
X73376000Y-27500000D01*
X56624000Y-27500000D01*
X56556961Y-27480315D01*
X56511206Y-27427511D01*
X56500000Y-27376000D01*
X56500000Y-22624000D01*
X56519685Y-22556961D01*
X56572489Y-22511206D01*
X56624000Y-22500000D01*
X73376000Y-22500000D01*
X73443039Y-22519685D01*
G37*
G36*
X95443039Y-22519685D02*
G01*
X95488794Y-22572489D01*
X95500000Y-22624000D01*
X95500000Y-27376000D01*
X95480315Y-27443039D01*
X95427511Y-27488794D01*
X95376000Y-27500000D01*
X81124000Y-27500000D01*
X81056961Y-27480315D01*
X81011206Y-27427511D01*
X81000000Y-27376000D01*
X81000000Y-22624000D01*
X81019685Y-22556961D01*
X81072489Y-22511206D01*
X81124000Y-22500000D01*
X95376000Y-22500000D01*
X95443039Y-22519685D01*
G37*
G36*
X48943039Y-22519685D02*
G01*
X48988794Y-22572489D01*
X49000000Y-22624000D01*
X49000000Y-27376000D01*
X48980315Y-27443039D01*
X48927511Y-27488794D01*
X48876000Y-27500000D01*
X34124000Y-27500000D01*
X34056961Y-27480315D01*
X34011206Y-27427511D01*
X34000000Y-27376000D01*
X34000000Y-22624000D01*
X34019685Y-22556961D01*
X34072489Y-22511206D01*
X34124000Y-22500000D01*
X48876000Y-22500000D01*
X48943039Y-22519685D01*
G37*
G36*
X107943039Y-31019685D02*
G01*
X107988794Y-31072489D01*
X108000000Y-31124000D01*
X108000000Y-40876000D01*
X107980315Y-40943039D01*
X107927511Y-40988794D01*
X107876000Y-41000000D01*
X102524000Y-41000000D01*
X102456961Y-40980315D01*
X102411206Y-40927511D01*
X102400000Y-40876000D01*
X102400000Y-31124000D01*
X102419685Y-31056961D01*
X102472489Y-31011206D01*
X102524000Y-31000000D01*
X107876000Y-31000000D01*
X107943039Y-31019685D01*
G37*
G36*
X107943039Y-46319685D02*
G01*
X107988794Y-46372489D01*
X108000000Y-46424000D01*
X108000000Y-53576000D01*
X107980315Y-53643039D01*
X107927511Y-53688794D01*
X107876000Y-53700000D01*
X102524000Y-53700000D01*
X102456961Y-53680315D01*
X102411206Y-53627511D01*
X102400000Y-53576000D01*
X102400000Y-46424000D01*
X102419685Y-46356961D01*
X102472489Y-46311206D01*
X102524000Y-46300000D01*
X107876000Y-46300000D01*
X107943039Y-46319685D01*
G37*
%LPD*%
M02*
