M48
; DRILL file {KiCad 9.0.1} date 2026-04-29T13:54:34+0300
; FORMAT={-:-/ absolute / metric / decimal}
; #@! TF.CreationDate,2026-04-29T13:54:34+03:00
; #@! TF.GenerationSoftware,Kicad,Pcbnew,9.0.1
; #@! TF.FileFunction,Plated,1,4,PTH
FMAT,2
METRIC
; #@! TA.AperFunction,Plated,PTH,ViaDrill
T1C0.300
; #@! TA.AperFunction,Plated,PTH,ComponentDrill
T2C0.800
; #@! TA.AperFunction,Plated,PTH,ComponentDrill
T3C1.100
; #@! TA.AperFunction,Plated,PTH,ComponentDrill
T4C1.200
; #@! TA.AperFunction,Plated,PTH,ComponentDrill
T5C2.200
%
G90
G05
T1
X21.5Y-37.5
X21.5Y-39.0
X21.5Y-40.5
X21.5Y-42.0
X21.5Y-58.0
X21.5Y-59.0
X21.5Y-60.0
X21.5Y-61.0
X22.5Y-46.5
X22.5Y-47.25
X22.5Y-48.0
X23.0Y-37.5
X23.0Y-39.0
X23.0Y-40.5
X23.0Y-42.0
X23.4Y-46.5
X23.4Y-47.25
X23.4Y-48.0
X24.5Y-57.5
X24.5Y-58.5
X27.8Y-37.2
X27.8Y-38.7
X27.8Y-40.2
X27.8Y-41.7
X29.0Y-37.2
X29.0Y-38.7
X29.0Y-40.2
X29.0Y-41.7
X33.1Y-37.1
X33.1Y-38.6
X33.1Y-40.1
X33.1Y-41.6
X34.3Y-37.1
X34.3Y-38.6
X34.3Y-40.1
X34.3Y-41.6
X36.0Y-23.5
X36.0Y-24.5
X36.0Y-25.5
X36.0Y-26.5
X37.0Y-23.5
X37.0Y-24.5
X37.0Y-25.5
X37.0Y-26.5
X37.0Y-64.3
X38.0Y-23.5
X38.0Y-24.5
X38.0Y-25.5
X38.0Y-26.5
X39.0Y-23.5
X39.0Y-24.5
X39.0Y-25.5
X39.0Y-26.5
X39.5Y-36.8
X39.5Y-37.6
X39.5Y-38.4
X40.0Y-23.5
X40.0Y-24.5
X40.0Y-25.5
X40.0Y-26.5
X40.2Y-48.4
X40.2Y-49.2
X40.2Y-50.0
X40.2Y-50.8
X40.2Y-51.8
X40.2Y-52.7
X40.2Y-54.2
X40.2Y-55.1
X40.4Y-36.8
X40.4Y-37.6
X40.4Y-38.4
X41.0Y-23.5
X41.0Y-24.5
X41.0Y-25.5
X41.0Y-26.5
X41.0Y-48.4
X41.0Y-49.2
X41.0Y-50.0
X41.0Y-50.8
X41.0Y-62.5
X41.0Y-64.0
X41.3Y-36.8
X41.3Y-37.6
X41.3Y-38.4
X41.8Y-48.4
X41.8Y-49.2
X41.8Y-50.0
X41.8Y-50.8
X42.0Y-23.5
X42.0Y-24.5
X42.0Y-25.5
X42.0Y-26.5
X42.0Y-62.5
X42.0Y-64.0
X42.2Y-35.9
X42.2Y-36.8
X42.2Y-37.6
X42.2Y-38.4
X42.6Y-48.4
X43.1Y-35.1
X43.1Y-35.9
X43.1Y-36.8
X43.1Y-37.6
X43.1Y-38.4
X43.4Y-48.4
X43.5Y-62.3
X44.0Y-34.3
X44.0Y-35.1
X44.0Y-35.9
X44.0Y-36.8
X44.0Y-37.6
X44.0Y-38.4
X44.9Y-34.3
X44.9Y-35.1
X44.9Y-35.9
X44.9Y-36.8
X44.9Y-37.6
X44.9Y-38.4
X47.5Y-58.0
X47.5Y-59.0
X47.5Y-60.0
X47.5Y-61.0
X48.5Y-46.5
X48.5Y-47.25
X48.5Y-48.0
X49.4Y-46.5
X49.4Y-47.25
X49.4Y-48.0
X50.5Y-57.5
X50.5Y-58.5
X52.51Y-53.19
X52.51Y-54.19
X53.61Y-53.19
X53.61Y-54.19
X53.8Y-37.2
X53.8Y-38.7
X53.8Y-40.2
X53.8Y-41.7
X54.71Y-53.19
X54.71Y-54.19
X55.0Y-37.2
X55.0Y-38.7
X55.0Y-40.2
X55.0Y-41.7
X55.81Y-53.19
X55.81Y-54.19
X58.0Y-23.5
X58.0Y-24.5
X58.0Y-25.5
X58.0Y-26.5
X59.0Y-23.5
X59.0Y-24.5
X59.0Y-25.5
X59.0Y-26.5
X59.1Y-37.1
X59.1Y-38.6
X59.1Y-40.1
X59.1Y-41.6
X60.0Y-23.5
X60.0Y-24.5
X60.0Y-25.5
X60.0Y-26.5
X60.3Y-37.1
X60.3Y-38.6
X60.3Y-40.1
X60.3Y-41.6
X61.0Y-23.5
X61.0Y-24.5
X61.0Y-25.5
X61.0Y-26.5
X62.0Y-23.5
X62.0Y-24.5
X62.0Y-25.5
X62.0Y-26.5
X62.2Y-48.7
X62.2Y-49.7
X62.2Y-50.7
X63.0Y-64.4
X63.2Y-48.7
X63.2Y-49.7
X63.2Y-50.7
X64.2Y-48.7
X64.2Y-49.7
X64.2Y-50.7
X65.2Y-48.7
X65.2Y-49.7
X65.2Y-50.7
X65.5Y-36.9
X65.5Y-37.7
X65.5Y-38.5
X65.9Y-52.235
X65.9Y-53.4
X65.9Y-54.535
X66.2Y-48.7
X66.2Y-49.7
X66.2Y-50.7
X66.2Y-57.0
X66.4Y-36.9
X66.4Y-37.7
X66.4Y-38.5
X67.0Y-62.5
X67.0Y-64.0
X67.2Y-48.7
X67.2Y-49.7
X67.2Y-50.7
X67.3Y-36.9
X67.3Y-37.7
X67.3Y-38.5
X68.0Y-23.5
X68.0Y-24.5
X68.0Y-25.5
X68.0Y-26.5
X68.0Y-62.5
X68.0Y-64.0
X68.2Y-36.0
X68.2Y-36.9
X68.2Y-37.7
X68.2Y-38.5
X69.0Y-23.5
X69.0Y-24.5
X69.0Y-25.5
X69.0Y-26.5
X69.1Y-35.2
X69.1Y-36.0
X69.1Y-36.9
X69.1Y-37.7
X69.1Y-38.5
X69.5Y-62.3
X70.0Y-23.5
X70.0Y-24.5
X70.0Y-25.5
X70.0Y-26.5
X70.0Y-34.4
X70.0Y-35.2
X70.0Y-36.0
X70.0Y-36.9
X70.0Y-37.7
X70.0Y-38.5
X70.9Y-34.4
X70.9Y-35.2
X70.9Y-36.0
X70.9Y-36.9
X70.9Y-37.7
X70.9Y-38.5
X71.0Y-23.5
X71.0Y-24.5
X71.0Y-25.5
X71.0Y-26.5
X72.0Y-23.5
X72.0Y-24.5
X72.0Y-25.5
X72.0Y-26.5
X73.5Y-58.0
X73.5Y-59.0
X73.5Y-60.0
X73.5Y-61.0
X74.5Y-46.5
X74.5Y-47.25
X74.5Y-48.0
X75.4Y-46.5
X75.4Y-47.25
X75.4Y-48.0
X76.5Y-57.5
X76.5Y-58.5
X78.51Y-53.19
X78.51Y-54.19
X79.61Y-53.19
X79.61Y-54.19
X79.8Y-37.1
X79.8Y-38.6
X79.8Y-40.1
X79.8Y-41.6
X80.71Y-53.19
X80.71Y-54.19
X81.0Y-37.1
X81.0Y-38.6
X81.0Y-40.1
X81.0Y-41.6
X81.81Y-53.19
X81.81Y-54.19
X85.1Y-37.2
X85.1Y-38.7
X85.1Y-40.2
X85.1Y-41.7
X86.3Y-37.2
X86.3Y-38.7
X86.3Y-40.2
X86.3Y-41.7
X88.0Y-23.5
X88.0Y-24.5
X88.0Y-25.5
X88.0Y-26.5
X88.1Y-48.6
X88.1Y-49.6
X88.1Y-50.6
X89.0Y-23.5
X89.0Y-24.5
X89.0Y-25.5
X89.0Y-26.5
X89.0Y-64.4
X89.1Y-48.6
X89.1Y-49.6
X89.1Y-50.6
X90.0Y-23.5
X90.0Y-24.5
X90.0Y-25.5
X90.0Y-26.5
X90.1Y-48.6
X90.1Y-49.6
X90.1Y-50.6
X91.0Y-23.5
X91.0Y-24.5
X91.0Y-25.5
X91.0Y-26.5
X91.1Y-48.6
X91.1Y-49.6
X91.1Y-50.6
X91.5Y-36.8
X91.5Y-37.6
X91.5Y-38.4
X91.9Y-52.235
X91.9Y-53.4
X91.9Y-54.535
X92.0Y-23.5
X92.0Y-24.5
X92.0Y-25.5
X92.0Y-26.5
X92.1Y-48.6
X92.1Y-49.6
X92.1Y-50.6
X92.2Y-57.0
X92.4Y-36.8
X92.4Y-37.6
X92.4Y-38.4
X93.0Y-23.5
X93.0Y-24.5
X93.0Y-25.5
X93.0Y-26.5
X93.0Y-62.5
X93.0Y-64.0
X93.1Y-48.6
X93.1Y-49.6
X93.1Y-50.6
X93.3Y-36.8
X93.3Y-37.6
X93.3Y-38.4
X94.0Y-23.5
X94.0Y-24.5
X94.0Y-25.5
X94.0Y-26.5
X94.0Y-62.5
X94.0Y-64.0
X94.2Y-36.0
X94.2Y-36.8
X94.2Y-37.6
X94.2Y-38.4
X95.1Y-35.2
X95.1Y-36.0
X95.1Y-36.8
X95.1Y-37.6
X95.1Y-38.4
X95.5Y-62.3
X96.0Y-35.2
X96.0Y-36.0
X96.0Y-36.8
X96.0Y-37.6
X96.0Y-38.4
X96.0Y-68.0
X96.0Y-69.0
X97.0Y-68.0
X97.0Y-69.0
X97.5Y-66.0
X98.0Y-68.0
X98.0Y-69.0
X99.0Y-48.8
X99.0Y-49.8
X99.0Y-50.8
X99.0Y-51.8
X99.0Y-68.0
X99.0Y-69.0
X100.0Y-32.0
X100.0Y-33.0
X100.0Y-34.0
X100.0Y-35.0
X100.0Y-36.0
X100.0Y-37.0
X100.0Y-38.0
X100.0Y-39.0
X100.0Y-40.0
X100.0Y-48.8
X100.0Y-49.8
X100.0Y-50.8
X100.0Y-51.8
X101.0Y-32.0
X101.0Y-33.0
X101.0Y-34.0
X101.0Y-35.0
X101.0Y-36.0
X101.0Y-37.0
X101.0Y-38.0
X101.0Y-39.0
X101.0Y-40.0
X101.0Y-48.8
X101.0Y-49.8
X101.0Y-50.8
X101.0Y-51.8
X102.0Y-32.0
X102.0Y-33.0
X102.0Y-34.0
X102.0Y-35.0
X102.0Y-36.0
X102.0Y-37.0
X102.0Y-38.0
X102.0Y-39.0
X102.0Y-40.0
X102.0Y-48.8
X102.0Y-49.8
X102.0Y-50.8
X102.0Y-51.8
X102.3Y-59.9
X103.0Y-32.0
X103.0Y-33.0
X103.0Y-34.0
X103.0Y-35.0
X103.0Y-36.0
X103.0Y-37.0
X103.0Y-38.0
X103.0Y-39.0
X103.0Y-40.0
X103.0Y-48.8
X103.0Y-49.8
X103.0Y-50.8
X103.0Y-51.8
X104.0Y-32.0
X104.0Y-33.0
X104.0Y-39.0
X104.0Y-40.0
X104.3Y-53.1
X104.3Y-54.1
X104.4Y-45.9
X104.4Y-46.9
X105.0Y-32.0
X105.0Y-33.0
X105.0Y-39.0
X105.0Y-40.0
X105.3Y-53.1
X105.3Y-54.1
X105.4Y-45.9
X105.4Y-46.9
X106.0Y-32.0
X106.0Y-33.0
X106.0Y-39.0
X106.0Y-40.0
X106.3Y-53.1
X106.3Y-54.1
X106.4Y-45.9
X106.4Y-46.9
X106.6Y-62.5
X107.0Y-32.0
X107.0Y-33.0
X107.0Y-39.0
X107.0Y-40.0
X107.3Y-53.1
X107.3Y-54.1
X107.4Y-45.9
X107.4Y-46.9
T2
X26.0Y-50.38
X26.0Y-58.0
X28.54Y-50.38
X28.54Y-58.0
X31.08Y-50.38
X31.08Y-58.0
X33.62Y-50.38
X33.62Y-58.0
X52.0Y-50.38
X52.0Y-58.0
X54.54Y-50.38
X54.54Y-58.0
X57.08Y-50.38
X57.08Y-58.0
X59.62Y-50.38
X59.62Y-58.0
X78.0Y-50.38
X78.0Y-58.0
X80.54Y-50.38
X80.54Y-58.0
X83.08Y-50.38
X83.08Y-58.0
X85.62Y-50.38
X85.62Y-58.0
T3
X25.0Y-34.0
X27.54Y-34.0
X30.08Y-34.0
X37.0Y-34.0
X39.54Y-34.0
X42.08Y-34.0
X51.0Y-34.0
X53.54Y-34.0
X56.08Y-34.0
X63.0Y-34.0
X65.54Y-34.0
X68.08Y-34.0
X77.0Y-34.0
X79.54Y-34.0
X82.08Y-34.0
X89.0Y-34.0
X91.54Y-34.0
X94.08Y-34.0
T4
X35.5Y-77.0
X38.04Y-77.0
X40.58Y-77.0
X61.5Y-77.0
X64.04Y-77.0
X66.58Y-77.0
X87.5Y-77.0
X90.04Y-77.0
X92.58Y-77.0
X104.5Y-68.46
X104.5Y-71.0
T5
X45.0Y-25.0
X65.0Y-25.0
X85.0Y-25.0
X106.0Y-36.0
X106.0Y-50.0
M30
