G04 #@! TF.GenerationSoftware,KiCad,Pcbnew,9.0.1*
G04 #@! TF.CreationDate,2026-04-29T13:57:15+03:00*
G04 #@! TF.ProjectId,BLDC_motor_driver_testing,424c4443-5f6d-46f7-946f-725f64726976,rev?*
G04 #@! TF.SameCoordinates,Original*
G04 #@! TF.FileFunction,Copper,L4,Bot*
G04 #@! TF.FilePolarity,Positive*
%FSLAX46Y46*%
G04 Gerber Fmt 4.6, Leading zero omitted, Abs format (unit mm)*
G04 Created by KiCad (PCBNEW 9.0.1) date 2026-04-29 13:57:15*
%MOMM*%
%LPD*%
G01*
G04 APERTURE LIST*
G04 Aperture macros list*
%AMRoundRect*
0 Rectangle with rounded corners*
0 $1 Rounding radius*
0 $2 $3 $4 $5 $6 $7 $8 $9 X,Y pos of 4 corners*
0 Add a 4 corners polygon primitive as box body*
4,1,4,$2,$3,$4,$5,$6,$7,$8,$9,$2,$3,0*
0 Add four circle primitives for the rounded corners*
1,1,$1+$1,$2,$3*
1,1,$1+$1,$4,$5*
1,1,$1+$1,$6,$7*
1,1,$1+$1,$8,$9*
0 Add four rect primitives between the rounded corners*
20,1,$1+$1,$2,$3,$4,$5,0*
20,1,$1+$1,$4,$5,$6,$7,0*
20,1,$1+$1,$6,$7,$8,$9,0*
20,1,$1+$1,$8,$9,$2,$3,0*%
G04 Aperture macros list end*
G04 #@! TA.AperFunction,ComponentPad*
%ADD10C,2.600000*%
G04 #@! TD*
G04 #@! TA.AperFunction,ConnectorPad*
%ADD11C,4.400000*%
G04 #@! TD*
G04 #@! TA.AperFunction,ComponentPad*
%ADD12RoundRect,0.250000X-0.750000X-0.750000X0.750000X-0.750000X0.750000X0.750000X-0.750000X0.750000X0*%
G04 #@! TD*
G04 #@! TA.AperFunction,ComponentPad*
%ADD13C,2.000000*%
G04 #@! TD*
G04 #@! TA.AperFunction,ComponentPad*
%ADD14R,1.905000X2.000000*%
G04 #@! TD*
G04 #@! TA.AperFunction,ComponentPad*
%ADD15O,1.905000X2.000000*%
G04 #@! TD*
G04 #@! TA.AperFunction,ComponentPad*
%ADD16RoundRect,0.250000X0.550000X-0.950000X0.550000X0.950000X-0.550000X0.950000X-0.550000X-0.950000X0*%
G04 #@! TD*
G04 #@! TA.AperFunction,ComponentPad*
%ADD17O,1.600000X2.400000*%
G04 #@! TD*
G04 #@! TA.AperFunction,ComponentPad*
%ADD18RoundRect,0.250000X0.750000X-0.750000X0.750000X0.750000X-0.750000X0.750000X-0.750000X-0.750000X0*%
G04 #@! TD*
G04 #@! TA.AperFunction,ViaPad*
%ADD19C,0.600000*%
G04 #@! TD*
G04 #@! TA.AperFunction,Conductor*
%ADD20C,0.200000*%
G04 #@! TD*
G04 #@! TA.AperFunction,Conductor*
%ADD21C,2.000000*%
G04 #@! TD*
G04 APERTURE END LIST*
D10*
X65000000Y-25000000D03*
D11*
X65000000Y-25000000D03*
D12*
X87500000Y-77000000D03*
D13*
X90040000Y-77000000D03*
X92580000Y-77000000D03*
D14*
X25000000Y-34000000D03*
D15*
X27540000Y-34000000D03*
X30080000Y-34000000D03*
D16*
X78000000Y-58000000D03*
D17*
X80540000Y-58000000D03*
X83080000Y-58000000D03*
X85620000Y-58000000D03*
X85620000Y-50380000D03*
X83080000Y-50380000D03*
X80540000Y-50380000D03*
X78000000Y-50380000D03*
D18*
X104500000Y-71000000D03*
D13*
X104500000Y-68460000D03*
D14*
X77000000Y-34000000D03*
D15*
X79540000Y-34000000D03*
X82080000Y-34000000D03*
D12*
X61500000Y-77000000D03*
D13*
X64040000Y-77000000D03*
X66580000Y-77000000D03*
D14*
X63000000Y-34000000D03*
D15*
X65540000Y-34000000D03*
X68080000Y-34000000D03*
D14*
X37000000Y-34000000D03*
D15*
X39540000Y-34000000D03*
X42080000Y-34000000D03*
D12*
X35500000Y-77000000D03*
D13*
X38040000Y-77000000D03*
X40580000Y-77000000D03*
D16*
X52000000Y-58000000D03*
D17*
X54540000Y-58000000D03*
X57080000Y-58000000D03*
X59620000Y-58000000D03*
X59620000Y-50380000D03*
X57080000Y-50380000D03*
X54540000Y-50380000D03*
X52000000Y-50380000D03*
D10*
X106000000Y-50000000D03*
D11*
X106000000Y-50000000D03*
D10*
X45000000Y-25000000D03*
D11*
X45000000Y-25000000D03*
D16*
X26000000Y-58000000D03*
D17*
X28540000Y-58000000D03*
X31080000Y-58000000D03*
X33620000Y-58000000D03*
X33620000Y-50380000D03*
X31080000Y-50380000D03*
X28540000Y-50380000D03*
X26000000Y-50380000D03*
D14*
X51000000Y-34000000D03*
D15*
X53540000Y-34000000D03*
X56080000Y-34000000D03*
D14*
X89000000Y-34000000D03*
D15*
X91540000Y-34000000D03*
X94080000Y-34000000D03*
D10*
X85000000Y-25000000D03*
D11*
X85000000Y-25000000D03*
D10*
X106000000Y-36000000D03*
D11*
X106000000Y-36000000D03*
D19*
X67200000Y-50700000D03*
X67200000Y-49700000D03*
X67200000Y-48700000D03*
X93100000Y-50600000D03*
X93100000Y-49600000D03*
X93100000Y-48600000D03*
X43400000Y-48400000D03*
X42600000Y-48400000D03*
X41800000Y-50800000D03*
X41800000Y-50000000D03*
X41800000Y-49200000D03*
X41800000Y-48400000D03*
X41000000Y-50800000D03*
X41000000Y-50000000D03*
X41000000Y-49200000D03*
X41000000Y-48400000D03*
X40200000Y-48400000D03*
X40200000Y-49200000D03*
X102300000Y-59900000D03*
X106600000Y-62500000D03*
X97500000Y-66000000D03*
X66200000Y-57000000D03*
X92200000Y-57000000D03*
X95500000Y-62300000D03*
X89000000Y-64400000D03*
X43500000Y-62300000D03*
X37000000Y-64300000D03*
X69500000Y-62300000D03*
X63000000Y-64400000D03*
X40200000Y-50000000D03*
X40200000Y-50800000D03*
X66200000Y-50700000D03*
X66200000Y-49700000D03*
X64200000Y-48700000D03*
X65200000Y-48700000D03*
X62200000Y-48700000D03*
X66200000Y-48700000D03*
X63200000Y-48700000D03*
X62200000Y-50700000D03*
X63200000Y-50700000D03*
X62200000Y-49700000D03*
X63200000Y-49700000D03*
X64200000Y-49700000D03*
X64200000Y-50700000D03*
X65200000Y-50700000D03*
X65200000Y-49700000D03*
X92100000Y-48600000D03*
X88100000Y-48600000D03*
X89100000Y-48600000D03*
X90100000Y-48600000D03*
X91100000Y-48600000D03*
X92100000Y-50600000D03*
X92100000Y-49600000D03*
X90100000Y-50600000D03*
X91100000Y-50600000D03*
X90100000Y-49600000D03*
X91100000Y-49600000D03*
X106300000Y-53100000D03*
X107300000Y-54100000D03*
X106300000Y-54100000D03*
X107300000Y-53100000D03*
X104300000Y-53100000D03*
X104300000Y-54100000D03*
X105300000Y-53100000D03*
X105300000Y-54100000D03*
X104400000Y-45900000D03*
X105400000Y-46900000D03*
X104400000Y-46900000D03*
X105400000Y-45900000D03*
X106400000Y-45900000D03*
X107400000Y-46900000D03*
X106400000Y-46900000D03*
X107400000Y-45900000D03*
X102000000Y-50800000D03*
X103000000Y-51800000D03*
X102000000Y-51800000D03*
X103000000Y-50800000D03*
X99000000Y-51800000D03*
X99000000Y-50800000D03*
X100000000Y-50800000D03*
X100000000Y-51800000D03*
X101000000Y-50800000D03*
X101000000Y-51800000D03*
X99000000Y-48800000D03*
X99000000Y-49800000D03*
X100000000Y-48800000D03*
X101000000Y-49800000D03*
X100000000Y-49800000D03*
X101000000Y-48800000D03*
X102000000Y-49800000D03*
X103000000Y-49800000D03*
X103000000Y-48800000D03*
X102000000Y-48800000D03*
X89100000Y-50600000D03*
X88100000Y-50600000D03*
X91900000Y-53400000D03*
X91900000Y-52235000D03*
X91900000Y-54535000D03*
X89100000Y-49600000D03*
X88100000Y-49600000D03*
X81810000Y-53190000D03*
X78510000Y-53190000D03*
X80710000Y-53190000D03*
X79610000Y-53190000D03*
X78510000Y-54190000D03*
X80710000Y-54190000D03*
X81810000Y-54190000D03*
X79610000Y-54190000D03*
X65900000Y-53400000D03*
X65900000Y-54535000D03*
X65900000Y-52235000D03*
X55810000Y-54190000D03*
X54710000Y-54190000D03*
X53610000Y-54190000D03*
X52510000Y-54190000D03*
X55810000Y-53190000D03*
X54710000Y-53190000D03*
X53610000Y-53190000D03*
X52510000Y-53190000D03*
X40200000Y-51800000D03*
X40200000Y-52700000D03*
X40200000Y-55100000D03*
X40200000Y-54200000D03*
X27800000Y-38700000D03*
X27800000Y-41700000D03*
X27800000Y-40200000D03*
X29000000Y-40200000D03*
X29000000Y-37200000D03*
X29000000Y-38700000D03*
X29000000Y-41700000D03*
X27800000Y-37200000D03*
X33100000Y-38600000D03*
X33100000Y-41600000D03*
X33100000Y-40100000D03*
X34300000Y-40100000D03*
X34300000Y-37100000D03*
X34300000Y-38600000D03*
X34300000Y-41600000D03*
X33100000Y-37100000D03*
X59100000Y-38600000D03*
X59100000Y-41600000D03*
X59100000Y-40100000D03*
X60300000Y-40100000D03*
X60300000Y-37100000D03*
X60300000Y-38600000D03*
X60300000Y-41600000D03*
X59100000Y-37100000D03*
X53800000Y-38700000D03*
X53800000Y-41700000D03*
X53800000Y-40200000D03*
X55000000Y-40200000D03*
X55000000Y-37200000D03*
X55000000Y-38700000D03*
X55000000Y-41700000D03*
X53800000Y-37200000D03*
X85100000Y-38700000D03*
X85100000Y-41700000D03*
X85100000Y-40200000D03*
X86300000Y-40200000D03*
X86300000Y-37200000D03*
X86300000Y-38700000D03*
X86300000Y-41700000D03*
X85100000Y-37200000D03*
X81000000Y-40100000D03*
X81000000Y-37100000D03*
X81000000Y-38600000D03*
X81000000Y-41600000D03*
X79800000Y-40100000D03*
X79800000Y-37100000D03*
X79800000Y-38600000D03*
X79800000Y-41600000D03*
X103000000Y-39000000D03*
X103000000Y-40000000D03*
X21500000Y-60000000D03*
X47500000Y-60000000D03*
X100000000Y-33000000D03*
X73500000Y-58000000D03*
X100000000Y-39000000D03*
X102000000Y-33000000D03*
X101000000Y-32000000D03*
X101000000Y-37000000D03*
X104000000Y-40000000D03*
X47500000Y-61000000D03*
X101000000Y-39000000D03*
X50500000Y-58500000D03*
X102000000Y-37000000D03*
X23000000Y-39000000D03*
X102000000Y-34000000D03*
X107000000Y-40000000D03*
X101000000Y-40000000D03*
X102000000Y-32000000D03*
X106000000Y-32000000D03*
X107000000Y-39000000D03*
X21500000Y-39000000D03*
X100000000Y-36000000D03*
X47500000Y-58000000D03*
X21500000Y-40500000D03*
X23000000Y-42000000D03*
X100000000Y-40000000D03*
X23000000Y-37500000D03*
X105000000Y-33000000D03*
X100000000Y-38000000D03*
X103000000Y-35000000D03*
X21500000Y-37500000D03*
X103000000Y-37000000D03*
X21500000Y-58000000D03*
X103000000Y-32000000D03*
X100000000Y-35000000D03*
X103000000Y-33000000D03*
X102000000Y-40000000D03*
X101000000Y-38000000D03*
X105000000Y-32000000D03*
X21500000Y-59000000D03*
X100000000Y-37000000D03*
X24500000Y-57500000D03*
X101000000Y-35000000D03*
X50500000Y-57500000D03*
X24500000Y-58500000D03*
X101000000Y-34000000D03*
X106000000Y-40000000D03*
X47500000Y-59000000D03*
X103000000Y-36000000D03*
X104000000Y-33000000D03*
X76500000Y-58500000D03*
X101000000Y-33000000D03*
X105000000Y-40000000D03*
X105000000Y-39000000D03*
X102000000Y-38000000D03*
X73500000Y-61000000D03*
X106000000Y-33000000D03*
X102000000Y-39000000D03*
X76500000Y-57500000D03*
X107000000Y-32000000D03*
X102000000Y-35000000D03*
X104000000Y-32000000D03*
X101000000Y-36000000D03*
X103000000Y-38000000D03*
X73500000Y-60000000D03*
X106000000Y-39000000D03*
X107000000Y-33000000D03*
X104000000Y-39000000D03*
X73500000Y-59000000D03*
X100000000Y-32000000D03*
X100000000Y-34000000D03*
X103000000Y-34000000D03*
X102000000Y-36000000D03*
X23000000Y-40500000D03*
X21500000Y-42000000D03*
X21500000Y-61000000D03*
X60000000Y-23500000D03*
X68000000Y-26500000D03*
X72000000Y-26500000D03*
X48500000Y-47250000D03*
X69000000Y-23500000D03*
X71000000Y-26500000D03*
X48500000Y-48000000D03*
X60000000Y-25500000D03*
X62000000Y-26500000D03*
X70000000Y-25500000D03*
X58000000Y-23500000D03*
X58000000Y-26500000D03*
X72000000Y-24500000D03*
X61000000Y-24500000D03*
X49400000Y-47250000D03*
X72000000Y-25500000D03*
X48500000Y-46500000D03*
X71000000Y-24500000D03*
X61000000Y-26500000D03*
X61000000Y-23500000D03*
X70000000Y-26500000D03*
X68000000Y-23500000D03*
X72000000Y-23500000D03*
X59000000Y-23500000D03*
X71000000Y-25500000D03*
X59000000Y-25500000D03*
X59000000Y-26500000D03*
X69000000Y-24500000D03*
X62000000Y-23500000D03*
X49400000Y-46500000D03*
X58000000Y-25500000D03*
X61000000Y-25500000D03*
X70000000Y-23500000D03*
X69000000Y-26500000D03*
X62000000Y-24500000D03*
X62000000Y-25500000D03*
X68000000Y-24500000D03*
X60000000Y-26500000D03*
X68000000Y-25500000D03*
X59000000Y-24500000D03*
X70000000Y-24500000D03*
X71000000Y-23500000D03*
X49400000Y-48000000D03*
X69000000Y-25500000D03*
X60000000Y-24500000D03*
X58000000Y-24500000D03*
X93000000Y-62500000D03*
X97000000Y-69000000D03*
X98000000Y-69000000D03*
X93000000Y-64000000D03*
X96000000Y-69000000D03*
X68000000Y-64000000D03*
X94000000Y-64000000D03*
X97000000Y-68000000D03*
X99000000Y-68000000D03*
X41000000Y-62500000D03*
X94000000Y-62500000D03*
X68000000Y-62500000D03*
X42000000Y-62500000D03*
X41000000Y-64000000D03*
X67000000Y-64000000D03*
X99000000Y-69000000D03*
X67000000Y-62500000D03*
X96000000Y-68000000D03*
X98000000Y-68000000D03*
X42000000Y-64000000D03*
X93000000Y-24500000D03*
X75400000Y-47250000D03*
X89000000Y-26500000D03*
X88000000Y-26500000D03*
X92000000Y-25500000D03*
X88000000Y-25500000D03*
X92000000Y-23500000D03*
X90000000Y-26500000D03*
X75400000Y-46500000D03*
X89000000Y-23500000D03*
X74500000Y-47250000D03*
X93000000Y-26500000D03*
X90000000Y-25500000D03*
X75400000Y-48000000D03*
X74500000Y-46500000D03*
X92000000Y-24500000D03*
X90000000Y-24500000D03*
X91000000Y-25500000D03*
X89000000Y-25500000D03*
X92000000Y-26500000D03*
X93000000Y-25500000D03*
X91000000Y-26500000D03*
X90000000Y-23500000D03*
X94000000Y-25500000D03*
X88000000Y-24500000D03*
X89000000Y-24500000D03*
X91000000Y-23500000D03*
X88000000Y-23500000D03*
X94000000Y-26500000D03*
X94000000Y-24500000D03*
X94000000Y-23500000D03*
X74500000Y-48000000D03*
X91000000Y-24500000D03*
X93000000Y-23500000D03*
X37000000Y-24500000D03*
X41000000Y-25500000D03*
X39000000Y-25500000D03*
X37000000Y-25500000D03*
X23400000Y-46500000D03*
X39000000Y-23500000D03*
X36000000Y-26500000D03*
X38000000Y-24500000D03*
X42000000Y-25500000D03*
X42000000Y-24500000D03*
X39000000Y-24500000D03*
X38000000Y-25500000D03*
X40000000Y-25500000D03*
X38000000Y-26500000D03*
X42000000Y-26500000D03*
X42000000Y-23500000D03*
X41000000Y-26500000D03*
X36000000Y-25500000D03*
X41000000Y-24500000D03*
X36000000Y-24500000D03*
X40000000Y-23500000D03*
X23400000Y-47250000D03*
X37000000Y-26500000D03*
X39000000Y-26500000D03*
X40000000Y-26500000D03*
X23400000Y-48000000D03*
X22500000Y-48000000D03*
X38000000Y-23500000D03*
X36000000Y-23500000D03*
X22500000Y-47250000D03*
X41000000Y-23500000D03*
X40000000Y-24500000D03*
X37000000Y-23500000D03*
X22500000Y-46500000D03*
X95100000Y-36000000D03*
X95100000Y-35200000D03*
X96000000Y-36000000D03*
X92400000Y-38400000D03*
X94200000Y-36000000D03*
X92400000Y-37600000D03*
X94200000Y-38400000D03*
X94200000Y-36800000D03*
X93300000Y-37600000D03*
X95100000Y-37600000D03*
X94200000Y-37600000D03*
X96000000Y-37600000D03*
X95100000Y-36800000D03*
X96000000Y-36800000D03*
X91500000Y-38400000D03*
X93300000Y-38400000D03*
X96000000Y-35200000D03*
X91500000Y-37600000D03*
X95100000Y-38400000D03*
X91500000Y-36800000D03*
X96000000Y-38400000D03*
X93300000Y-36800000D03*
X92400000Y-36800000D03*
X43100000Y-35900000D03*
X42200000Y-37600000D03*
X44900000Y-38400000D03*
X44000000Y-38400000D03*
X44900000Y-36800000D03*
X43100000Y-37600000D03*
X44900000Y-34300000D03*
X42200000Y-38400000D03*
X41300000Y-37600000D03*
X39500000Y-38400000D03*
X40400000Y-38400000D03*
X39500000Y-37600000D03*
X44000000Y-34300000D03*
X43100000Y-35100000D03*
X44900000Y-35100000D03*
X43100000Y-38400000D03*
X44900000Y-35900000D03*
X44900000Y-37600000D03*
X44000000Y-35100000D03*
X41300000Y-38400000D03*
X39500000Y-36800000D03*
X42200000Y-35900000D03*
X41300000Y-36800000D03*
X44000000Y-36800000D03*
X43100000Y-36800000D03*
X44000000Y-37600000D03*
X40400000Y-36800000D03*
X40400000Y-37600000D03*
X42200000Y-36800000D03*
X44000000Y-35900000D03*
X70900000Y-38500000D03*
X65500000Y-38500000D03*
X70000000Y-36000000D03*
X70000000Y-36900000D03*
X70000000Y-37700000D03*
X68200000Y-38500000D03*
X66400000Y-36900000D03*
X65500000Y-36900000D03*
X70000000Y-35200000D03*
X66400000Y-37700000D03*
X70900000Y-37700000D03*
X66400000Y-38500000D03*
X70900000Y-34400000D03*
X69100000Y-37700000D03*
X68200000Y-36900000D03*
X70000000Y-34400000D03*
X70000000Y-38500000D03*
X70900000Y-36900000D03*
X69100000Y-38500000D03*
X69100000Y-36900000D03*
X65500000Y-37700000D03*
X67300000Y-36900000D03*
X68200000Y-36000000D03*
X70900000Y-36000000D03*
X68200000Y-37700000D03*
X69100000Y-35200000D03*
X67300000Y-38500000D03*
X67300000Y-37700000D03*
X70900000Y-35200000D03*
X69100000Y-36000000D03*
D20*
X79540000Y-36960000D02*
X79500000Y-37000000D01*
D21*
X58050000Y-43600000D02*
X73440000Y-43600000D01*
D20*
X79540000Y-37500000D02*
X79540000Y-37540000D01*
D21*
X53540000Y-39040000D02*
X53540000Y-39090000D01*
X53540000Y-34000000D02*
X53540000Y-39040000D01*
X48980000Y-43600000D02*
X53540000Y-39040000D01*
X79540000Y-37540000D02*
X85600000Y-43600000D01*
X33100000Y-43600000D02*
X48980000Y-43600000D01*
X27540000Y-34000000D02*
X27540000Y-38040000D01*
X85600000Y-43600000D02*
X98400000Y-43600000D01*
X98400000Y-43600000D02*
X106000000Y-36000000D01*
X73440000Y-43600000D02*
X79540000Y-37500000D01*
X79540000Y-34000000D02*
X79540000Y-37500000D01*
X53540000Y-39090000D02*
X58050000Y-43600000D01*
X27540000Y-38040000D02*
X33100000Y-43600000D01*
G04 #@! TA.AperFunction,Conductor*
G36*
X109692539Y-45025185D02*
G01*
X109738294Y-45077989D01*
X109749500Y-45129500D01*
X109749500Y-77997293D01*
X109749382Y-78002702D01*
X109731663Y-78408539D01*
X109730720Y-78419316D01*
X109678051Y-78819370D01*
X109676173Y-78830022D01*
X109588837Y-79223974D01*
X109586037Y-79234424D01*
X109464697Y-79619264D01*
X109460997Y-79629429D01*
X109306579Y-80002226D01*
X109302007Y-80012030D01*
X109115690Y-80369942D01*
X109110282Y-80379310D01*
X108893469Y-80719638D01*
X108887264Y-80728499D01*
X108641621Y-81048627D01*
X108634667Y-81056914D01*
X108362061Y-81354412D01*
X108354412Y-81362061D01*
X108056914Y-81634667D01*
X108048627Y-81641621D01*
X107728499Y-81887264D01*
X107719638Y-81893469D01*
X107379310Y-82110282D01*
X107369942Y-82115690D01*
X107012030Y-82302007D01*
X107002226Y-82306579D01*
X106629429Y-82460997D01*
X106619264Y-82464697D01*
X106234424Y-82586037D01*
X106223974Y-82588837D01*
X105830022Y-82676173D01*
X105819370Y-82678051D01*
X105419316Y-82730720D01*
X105408539Y-82731663D01*
X105002703Y-82749382D01*
X104997294Y-82749500D01*
X25002706Y-82749500D01*
X24997297Y-82749382D01*
X24591460Y-82731663D01*
X24580685Y-82730720D01*
X24380656Y-82704385D01*
X24180629Y-82678051D01*
X24169977Y-82676173D01*
X23915393Y-82619733D01*
X23776022Y-82588836D01*
X23765579Y-82586038D01*
X23380733Y-82464696D01*
X23370570Y-82460997D01*
X22997773Y-82306579D01*
X22987969Y-82302007D01*
X22630057Y-82115690D01*
X22620689Y-82110282D01*
X22280361Y-81893469D01*
X22271500Y-81887264D01*
X21951372Y-81641621D01*
X21943085Y-81634667D01*
X21645587Y-81362061D01*
X21637938Y-81354412D01*
X21365332Y-81056914D01*
X21358378Y-81048627D01*
X21112735Y-80728499D01*
X21106530Y-80719638D01*
X20889717Y-80379310D01*
X20884309Y-80369942D01*
X20697992Y-80012030D01*
X20693420Y-80002226D01*
X20655314Y-79910230D01*
X20538996Y-79629414D01*
X20535307Y-79619279D01*
X20413956Y-79234405D01*
X20411167Y-79223993D01*
X20323823Y-78830010D01*
X20321950Y-78819386D01*
X20269277Y-78419293D01*
X20268337Y-78408558D01*
X20250618Y-78002701D01*
X20250500Y-77997293D01*
X20250500Y-77901577D01*
X23749500Y-77901577D01*
X23749500Y-78098422D01*
X23780290Y-78292826D01*
X23841117Y-78480029D01*
X23851548Y-78500500D01*
X23930476Y-78655405D01*
X24046172Y-78814646D01*
X24185354Y-78953828D01*
X24344595Y-79069524D01*
X24427455Y-79111743D01*
X24519970Y-79158882D01*
X24519972Y-79158882D01*
X24519975Y-79158884D01*
X24620317Y-79191487D01*
X24707173Y-79219709D01*
X24901578Y-79250500D01*
X24901583Y-79250500D01*
X25098422Y-79250500D01*
X25292826Y-79219709D01*
X25480025Y-79158884D01*
X25655405Y-79069524D01*
X25814646Y-78953828D01*
X25953828Y-78814646D01*
X26069524Y-78655405D01*
X26158884Y-78480025D01*
X26219709Y-78292826D01*
X26231456Y-78218657D01*
X26250500Y-78098422D01*
X26250500Y-77901577D01*
X26219709Y-77707173D01*
X26158882Y-77519970D01*
X26069523Y-77344594D01*
X25953828Y-77185354D01*
X25814646Y-77046172D01*
X25655405Y-76930476D01*
X25480029Y-76841117D01*
X25292826Y-76780290D01*
X25098422Y-76749500D01*
X25098417Y-76749500D01*
X24901583Y-76749500D01*
X24901578Y-76749500D01*
X24707173Y-76780290D01*
X24519970Y-76841117D01*
X24344594Y-76930476D01*
X24253741Y-76996485D01*
X24185354Y-77046172D01*
X24185352Y-77046174D01*
X24185351Y-77046174D01*
X24046174Y-77185351D01*
X24046174Y-77185352D01*
X24046172Y-77185354D01*
X23996485Y-77253741D01*
X23930476Y-77344594D01*
X23841117Y-77519970D01*
X23780290Y-77707173D01*
X23749500Y-77901577D01*
X20250500Y-77901577D01*
X20250500Y-76199983D01*
X33999500Y-76199983D01*
X33999500Y-77800001D01*
X33999501Y-77800018D01*
X34010000Y-77902796D01*
X34010001Y-77902799D01*
X34065185Y-78069331D01*
X34065187Y-78069336D01*
X34091746Y-78112395D01*
X34157288Y-78218656D01*
X34281344Y-78342712D01*
X34430666Y-78434814D01*
X34597203Y-78489999D01*
X34699991Y-78500500D01*
X36300008Y-78500499D01*
X36402797Y-78489999D01*
X36569334Y-78434814D01*
X36718656Y-78342712D01*
X36842712Y-78218656D01*
X36872512Y-78170341D01*
X36924458Y-78123618D01*
X36993420Y-78112395D01*
X37057503Y-78140238D01*
X37058758Y-78141385D01*
X37058786Y-78141353D01*
X37062481Y-78144508D01*
X37062490Y-78144517D01*
X37253567Y-78283343D01*
X37352991Y-78334002D01*
X37464003Y-78390566D01*
X37464005Y-78390566D01*
X37464008Y-78390568D01*
X37519314Y-78408538D01*
X37688631Y-78463553D01*
X37921903Y-78500500D01*
X37921908Y-78500500D01*
X38158097Y-78500500D01*
X38391368Y-78463553D01*
X38615992Y-78390568D01*
X38826433Y-78283343D01*
X39017510Y-78144517D01*
X39184517Y-77977510D01*
X39209682Y-77942872D01*
X39265011Y-77900207D01*
X39334625Y-77894228D01*
X39396420Y-77926833D01*
X39410315Y-77942870D01*
X39435483Y-77977510D01*
X39602490Y-78144517D01*
X39793567Y-78283343D01*
X39892991Y-78334002D01*
X40004003Y-78390566D01*
X40004005Y-78390566D01*
X40004008Y-78390568D01*
X40059314Y-78408538D01*
X40228631Y-78463553D01*
X40461903Y-78500500D01*
X40461908Y-78500500D01*
X40698097Y-78500500D01*
X40931368Y-78463553D01*
X41155992Y-78390568D01*
X41366433Y-78283343D01*
X41557510Y-78144517D01*
X41724517Y-77977510D01*
X41863343Y-77786433D01*
X41970568Y-77575992D01*
X42043553Y-77351368D01*
X42069847Y-77185354D01*
X42080500Y-77118097D01*
X42080500Y-76881902D01*
X42043553Y-76648631D01*
X41970566Y-76424003D01*
X41883501Y-76253129D01*
X41883500Y-76253125D01*
X41863346Y-76213571D01*
X41853474Y-76199983D01*
X59999500Y-76199983D01*
X59999500Y-77800001D01*
X59999501Y-77800018D01*
X60010000Y-77902796D01*
X60010001Y-77902799D01*
X60065185Y-78069331D01*
X60065187Y-78069336D01*
X60091746Y-78112395D01*
X60157288Y-78218656D01*
X60281344Y-78342712D01*
X60430666Y-78434814D01*
X60597203Y-78489999D01*
X60699991Y-78500500D01*
X62300008Y-78500499D01*
X62402797Y-78489999D01*
X62569334Y-78434814D01*
X62718656Y-78342712D01*
X62842712Y-78218656D01*
X62872512Y-78170341D01*
X62924458Y-78123618D01*
X62993420Y-78112395D01*
X63057503Y-78140238D01*
X63058758Y-78141385D01*
X63058786Y-78141353D01*
X63062481Y-78144508D01*
X63062490Y-78144517D01*
X63253567Y-78283343D01*
X63352991Y-78334002D01*
X63464003Y-78390566D01*
X63464005Y-78390566D01*
X63464008Y-78390568D01*
X63519314Y-78408538D01*
X63688631Y-78463553D01*
X63921903Y-78500500D01*
X63921908Y-78500500D01*
X64158097Y-78500500D01*
X64391368Y-78463553D01*
X64615992Y-78390568D01*
X64826433Y-78283343D01*
X65017510Y-78144517D01*
X65184517Y-77977510D01*
X65209682Y-77942872D01*
X65265011Y-77900207D01*
X65334625Y-77894228D01*
X65396420Y-77926833D01*
X65410315Y-77942870D01*
X65435483Y-77977510D01*
X65602490Y-78144517D01*
X65793567Y-78283343D01*
X65892991Y-78334002D01*
X66004003Y-78390566D01*
X66004005Y-78390566D01*
X66004008Y-78390568D01*
X66059314Y-78408538D01*
X66228631Y-78463553D01*
X66461903Y-78500500D01*
X66461908Y-78500500D01*
X66698097Y-78500500D01*
X66931368Y-78463553D01*
X67155992Y-78390568D01*
X67366433Y-78283343D01*
X67557510Y-78144517D01*
X67724517Y-77977510D01*
X67863343Y-77786433D01*
X67970568Y-77575992D01*
X68043553Y-77351368D01*
X68069847Y-77185354D01*
X68080500Y-77118097D01*
X68080500Y-76881902D01*
X68043553Y-76648631D01*
X67970566Y-76424003D01*
X67883501Y-76253129D01*
X67883500Y-76253125D01*
X67863346Y-76213571D01*
X67853474Y-76199983D01*
X85999500Y-76199983D01*
X85999500Y-77800001D01*
X85999501Y-77800018D01*
X86010000Y-77902796D01*
X86010001Y-77902799D01*
X86065185Y-78069331D01*
X86065187Y-78069336D01*
X86091746Y-78112395D01*
X86157288Y-78218656D01*
X86281344Y-78342712D01*
X86430666Y-78434814D01*
X86597203Y-78489999D01*
X86699991Y-78500500D01*
X88300008Y-78500499D01*
X88402797Y-78489999D01*
X88569334Y-78434814D01*
X88718656Y-78342712D01*
X88842712Y-78218656D01*
X88872512Y-78170341D01*
X88924458Y-78123618D01*
X88993420Y-78112395D01*
X89057503Y-78140238D01*
X89058758Y-78141385D01*
X89058786Y-78141353D01*
X89062481Y-78144508D01*
X89062490Y-78144517D01*
X89253567Y-78283343D01*
X89352991Y-78334002D01*
X89464003Y-78390566D01*
X89464005Y-78390566D01*
X89464008Y-78390568D01*
X89519314Y-78408538D01*
X89688631Y-78463553D01*
X89921903Y-78500500D01*
X89921908Y-78500500D01*
X90158097Y-78500500D01*
X90391368Y-78463553D01*
X90615992Y-78390568D01*
X90826433Y-78283343D01*
X91017510Y-78144517D01*
X91184517Y-77977510D01*
X91209682Y-77942872D01*
X91265011Y-77900207D01*
X91334625Y-77894228D01*
X91396420Y-77926833D01*
X91410315Y-77942870D01*
X91435483Y-77977510D01*
X91602490Y-78144517D01*
X91793567Y-78283343D01*
X91892991Y-78334002D01*
X92004003Y-78390566D01*
X92004005Y-78390566D01*
X92004008Y-78390568D01*
X92059314Y-78408538D01*
X92228631Y-78463553D01*
X92461903Y-78500500D01*
X92461908Y-78500500D01*
X92698097Y-78500500D01*
X92931368Y-78463553D01*
X93155992Y-78390568D01*
X93366433Y-78283343D01*
X93557510Y-78144517D01*
X93724517Y-77977510D01*
X93779686Y-77901577D01*
X103749500Y-77901577D01*
X103749500Y-78098422D01*
X103780290Y-78292826D01*
X103841117Y-78480029D01*
X103851548Y-78500500D01*
X103930476Y-78655405D01*
X104046172Y-78814646D01*
X104185354Y-78953828D01*
X104344595Y-79069524D01*
X104427455Y-79111743D01*
X104519970Y-79158882D01*
X104519972Y-79158882D01*
X104519975Y-79158884D01*
X104620317Y-79191487D01*
X104707173Y-79219709D01*
X104901578Y-79250500D01*
X104901583Y-79250500D01*
X105098422Y-79250500D01*
X105292826Y-79219709D01*
X105480025Y-79158884D01*
X105655405Y-79069524D01*
X105814646Y-78953828D01*
X105953828Y-78814646D01*
X106069524Y-78655405D01*
X106158884Y-78480025D01*
X106219709Y-78292826D01*
X106231456Y-78218657D01*
X106250500Y-78098422D01*
X106250500Y-77901577D01*
X106219709Y-77707173D01*
X106158882Y-77519970D01*
X106069523Y-77344594D01*
X105953828Y-77185354D01*
X105814646Y-77046172D01*
X105655405Y-76930476D01*
X105480029Y-76841117D01*
X105292826Y-76780290D01*
X105098422Y-76749500D01*
X105098417Y-76749500D01*
X104901583Y-76749500D01*
X104901578Y-76749500D01*
X104707173Y-76780290D01*
X104519970Y-76841117D01*
X104344594Y-76930476D01*
X104253741Y-76996485D01*
X104185354Y-77046172D01*
X104185352Y-77046174D01*
X104185351Y-77046174D01*
X104046174Y-77185351D01*
X104046174Y-77185352D01*
X104046172Y-77185354D01*
X103996485Y-77253741D01*
X103930476Y-77344594D01*
X103841117Y-77519970D01*
X103780290Y-77707173D01*
X103749500Y-77901577D01*
X93779686Y-77901577D01*
X93863343Y-77786433D01*
X93970568Y-77575992D01*
X94043553Y-77351368D01*
X94069847Y-77185354D01*
X94080500Y-77118097D01*
X94080500Y-76881902D01*
X94043553Y-76648631D01*
X93970566Y-76424003D01*
X93863342Y-76213566D01*
X93853479Y-76199991D01*
X93724517Y-76022490D01*
X93557510Y-75855483D01*
X93366433Y-75716657D01*
X93155996Y-75609433D01*
X92931368Y-75536446D01*
X92698097Y-75499500D01*
X92698092Y-75499500D01*
X92461908Y-75499500D01*
X92461903Y-75499500D01*
X92228631Y-75536446D01*
X92004003Y-75609433D01*
X91793566Y-75716657D01*
X91704533Y-75781344D01*
X91602490Y-75855483D01*
X91602488Y-75855485D01*
X91602487Y-75855485D01*
X91435484Y-76022488D01*
X91410318Y-76057127D01*
X91354987Y-76099792D01*
X91285374Y-76105771D01*
X91223579Y-76073165D01*
X91209682Y-76057127D01*
X91184517Y-76022490D01*
X91017510Y-75855483D01*
X90826433Y-75716657D01*
X90615996Y-75609433D01*
X90391368Y-75536446D01*
X90158097Y-75499500D01*
X90158092Y-75499500D01*
X89921908Y-75499500D01*
X89921903Y-75499500D01*
X89688631Y-75536446D01*
X89464003Y-75609433D01*
X89253566Y-75716657D01*
X89164533Y-75781344D01*
X89062490Y-75855483D01*
X89062488Y-75855485D01*
X89058786Y-75858647D01*
X89057305Y-75856913D01*
X89004110Y-75885791D01*
X88934431Y-75880635D01*
X88878601Y-75838626D01*
X88872511Y-75829656D01*
X88868468Y-75823102D01*
X88842712Y-75781344D01*
X88718656Y-75657288D01*
X88569334Y-75565186D01*
X88402797Y-75510001D01*
X88402795Y-75510000D01*
X88300010Y-75499500D01*
X86699998Y-75499500D01*
X86699981Y-75499501D01*
X86597203Y-75510000D01*
X86597200Y-75510001D01*
X86430668Y-75565185D01*
X86430663Y-75565187D01*
X86281342Y-75657289D01*
X86157289Y-75781342D01*
X86065187Y-75930663D01*
X86065186Y-75930666D01*
X86010001Y-76097203D01*
X86010001Y-76097204D01*
X86010000Y-76097204D01*
X85999500Y-76199983D01*
X67853474Y-76199983D01*
X67785024Y-76105771D01*
X67724517Y-76022490D01*
X67557510Y-75855483D01*
X67366433Y-75716657D01*
X67155996Y-75609433D01*
X66931368Y-75536446D01*
X66698097Y-75499500D01*
X66698092Y-75499500D01*
X66461908Y-75499500D01*
X66461903Y-75499500D01*
X66228631Y-75536446D01*
X66004003Y-75609433D01*
X65793566Y-75716657D01*
X65704533Y-75781344D01*
X65602490Y-75855483D01*
X65602488Y-75855485D01*
X65602487Y-75855485D01*
X65435484Y-76022488D01*
X65410318Y-76057127D01*
X65354987Y-76099792D01*
X65285374Y-76105771D01*
X65223579Y-76073165D01*
X65209682Y-76057127D01*
X65184517Y-76022490D01*
X65017510Y-75855483D01*
X64826433Y-75716657D01*
X64615996Y-75609433D01*
X64391368Y-75536446D01*
X64158097Y-75499500D01*
X64158092Y-75499500D01*
X63921908Y-75499500D01*
X63921903Y-75499500D01*
X63688631Y-75536446D01*
X63464003Y-75609433D01*
X63253566Y-75716657D01*
X63164533Y-75781344D01*
X63062490Y-75855483D01*
X63062488Y-75855485D01*
X63058786Y-75858647D01*
X63057305Y-75856913D01*
X63004110Y-75885791D01*
X62934431Y-75880635D01*
X62878601Y-75838626D01*
X62872511Y-75829656D01*
X62868468Y-75823102D01*
X62842712Y-75781344D01*
X62718656Y-75657288D01*
X62569334Y-75565186D01*
X62402797Y-75510001D01*
X62402795Y-75510000D01*
X62300010Y-75499500D01*
X60699998Y-75499500D01*
X60699981Y-75499501D01*
X60597203Y-75510000D01*
X60597200Y-75510001D01*
X60430668Y-75565185D01*
X60430663Y-75565187D01*
X60281342Y-75657289D01*
X60157289Y-75781342D01*
X60065187Y-75930663D01*
X60065186Y-75930666D01*
X60010001Y-76097203D01*
X60010001Y-76097204D01*
X60010000Y-76097204D01*
X59999500Y-76199983D01*
X41853474Y-76199983D01*
X41785024Y-76105771D01*
X41724517Y-76022490D01*
X41557510Y-75855483D01*
X41366433Y-75716657D01*
X41155996Y-75609433D01*
X40931368Y-75536446D01*
X40698097Y-75499500D01*
X40698092Y-75499500D01*
X40461908Y-75499500D01*
X40461903Y-75499500D01*
X40228631Y-75536446D01*
X40004003Y-75609433D01*
X39793566Y-75716657D01*
X39704533Y-75781344D01*
X39602490Y-75855483D01*
X39602488Y-75855485D01*
X39602487Y-75855485D01*
X39435484Y-76022488D01*
X39410318Y-76057127D01*
X39354987Y-76099792D01*
X39285374Y-76105771D01*
X39223579Y-76073165D01*
X39209682Y-76057127D01*
X39184517Y-76022490D01*
X39017510Y-75855483D01*
X38826433Y-75716657D01*
X38615996Y-75609433D01*
X38391368Y-75536446D01*
X38158097Y-75499500D01*
X38158092Y-75499500D01*
X37921908Y-75499500D01*
X37921903Y-75499500D01*
X37688631Y-75536446D01*
X37464003Y-75609433D01*
X37253566Y-75716657D01*
X37164533Y-75781344D01*
X37062490Y-75855483D01*
X37062488Y-75855485D01*
X37058786Y-75858647D01*
X37057305Y-75856913D01*
X37004110Y-75885791D01*
X36934431Y-75880635D01*
X36878601Y-75838626D01*
X36872511Y-75829656D01*
X36868468Y-75823102D01*
X36842712Y-75781344D01*
X36718656Y-75657288D01*
X36569334Y-75565186D01*
X36402797Y-75510001D01*
X36402795Y-75510000D01*
X36300010Y-75499500D01*
X34699998Y-75499500D01*
X34699981Y-75499501D01*
X34597203Y-75510000D01*
X34597200Y-75510001D01*
X34430668Y-75565185D01*
X34430663Y-75565187D01*
X34281342Y-75657289D01*
X34157289Y-75781342D01*
X34065187Y-75930663D01*
X34065186Y-75930666D01*
X34010001Y-76097203D01*
X34010001Y-76097204D01*
X34010000Y-76097204D01*
X33999500Y-76199983D01*
X20250500Y-76199983D01*
X20250500Y-67921153D01*
X95199500Y-67921153D01*
X95199500Y-68078846D01*
X95230261Y-68233489D01*
X95230264Y-68233501D01*
X95290602Y-68379172D01*
X95290609Y-68379185D01*
X95325304Y-68431109D01*
X95346182Y-68497786D01*
X95327698Y-68565167D01*
X95325304Y-68568891D01*
X95290609Y-68620814D01*
X95290602Y-68620827D01*
X95230264Y-68766498D01*
X95230261Y-68766510D01*
X95199500Y-68921153D01*
X95199500Y-69078846D01*
X95230261Y-69233489D01*
X95230264Y-69233501D01*
X95290602Y-69379172D01*
X95290609Y-69379185D01*
X95378210Y-69510288D01*
X95378213Y-69510292D01*
X95489707Y-69621786D01*
X95489711Y-69621789D01*
X95620814Y-69709390D01*
X95620827Y-69709397D01*
X95766498Y-69769735D01*
X95766503Y-69769737D01*
X95921153Y-69800499D01*
X95921156Y-69800500D01*
X95921158Y-69800500D01*
X96078844Y-69800500D01*
X96078845Y-69800499D01*
X96233497Y-69769737D01*
X96379179Y-69709394D01*
X96431110Y-69674694D01*
X96497785Y-69653816D01*
X96565165Y-69672300D01*
X96568863Y-69674676D01*
X96620821Y-69709394D01*
X96620823Y-69709395D01*
X96620825Y-69709396D01*
X96766498Y-69769735D01*
X96766503Y-69769737D01*
X96921153Y-69800499D01*
X96921156Y-69800500D01*
X96921158Y-69800500D01*
X97078844Y-69800500D01*
X97078845Y-69800499D01*
X97233497Y-69769737D01*
X97379179Y-69709394D01*
X97431110Y-69674694D01*
X97497785Y-69653816D01*
X97565165Y-69672300D01*
X97568863Y-69674676D01*
X97620821Y-69709394D01*
X97620823Y-69709395D01*
X97620825Y-69709396D01*
X97766498Y-69769735D01*
X97766503Y-69769737D01*
X97921153Y-69800499D01*
X97921156Y-69800500D01*
X97921158Y-69800500D01*
X98078844Y-69800500D01*
X98078845Y-69800499D01*
X98233497Y-69769737D01*
X98379179Y-69709394D01*
X98431110Y-69674694D01*
X98497785Y-69653816D01*
X98565165Y-69672300D01*
X98568863Y-69674676D01*
X98620821Y-69709394D01*
X98620823Y-69709395D01*
X98620825Y-69709396D01*
X98766498Y-69769735D01*
X98766503Y-69769737D01*
X98921153Y-69800499D01*
X98921156Y-69800500D01*
X98921158Y-69800500D01*
X99078844Y-69800500D01*
X99078845Y-69800499D01*
X99233497Y-69769737D01*
X99379179Y-69709394D01*
X99510289Y-69621789D01*
X99621789Y-69510289D01*
X99709394Y-69379179D01*
X99769737Y-69233497D01*
X99800500Y-69078842D01*
X99800500Y-68921158D01*
X99800500Y-68921155D01*
X99800499Y-68921153D01*
X99769738Y-68766510D01*
X99769737Y-68766503D01*
X99769735Y-68766498D01*
X99709396Y-68620825D01*
X99709394Y-68620822D01*
X99709394Y-68620821D01*
X99674694Y-68568889D01*
X99670845Y-68556599D01*
X99662845Y-68546501D01*
X99660603Y-68523892D01*
X99653816Y-68502215D01*
X99657063Y-68488172D01*
X99655953Y-68476972D01*
X99664477Y-68456110D01*
X99667376Y-68443578D01*
X99670667Y-68437137D01*
X99709394Y-68379179D01*
X99724835Y-68341902D01*
X102999500Y-68341902D01*
X102999500Y-68578097D01*
X103036446Y-68811368D01*
X103109433Y-69035996D01*
X103210062Y-69233489D01*
X103216657Y-69246433D01*
X103355483Y-69437510D01*
X103522490Y-69604517D01*
X103713567Y-69743343D01*
X103812991Y-69794002D01*
X103924003Y-69850566D01*
X103924005Y-69850566D01*
X103924008Y-69850568D01*
X104044412Y-69889689D01*
X104148631Y-69923553D01*
X104381903Y-69960500D01*
X104381908Y-69960500D01*
X104618097Y-69960500D01*
X104851368Y-69923553D01*
X105075992Y-69850568D01*
X105286433Y-69743343D01*
X105477510Y-69604517D01*
X105644517Y-69437510D01*
X105783343Y-69246433D01*
X105890568Y-69035992D01*
X105963553Y-68811368D01*
X105970660Y-68766498D01*
X106000500Y-68578097D01*
X106000500Y-68341902D01*
X105963553Y-68108631D01*
X105890566Y-67884003D01*
X105783342Y-67673566D01*
X105644517Y-67482490D01*
X105477510Y-67315483D01*
X105286433Y-67176657D01*
X105075996Y-67069433D01*
X104851368Y-66996446D01*
X104618097Y-66959500D01*
X104618092Y-66959500D01*
X104381908Y-66959500D01*
X104381903Y-66959500D01*
X104148631Y-66996446D01*
X103924003Y-67069433D01*
X103713566Y-67176657D01*
X103604550Y-67255862D01*
X103522490Y-67315483D01*
X103522488Y-67315485D01*
X103522487Y-67315485D01*
X103355485Y-67482487D01*
X103355485Y-67482488D01*
X103355483Y-67482490D01*
X103350240Y-67489707D01*
X103216657Y-67673566D01*
X103109433Y-67884003D01*
X103036446Y-68108631D01*
X102999500Y-68341902D01*
X99724835Y-68341902D01*
X99769737Y-68233497D01*
X99800500Y-68078842D01*
X99800500Y-67921158D01*
X99800500Y-67921155D01*
X99800499Y-67921153D01*
X99769738Y-67766510D01*
X99769737Y-67766503D01*
X99731242Y-67673566D01*
X99709397Y-67620827D01*
X99709390Y-67620814D01*
X99621789Y-67489711D01*
X99621786Y-67489707D01*
X99510292Y-67378213D01*
X99510288Y-67378210D01*
X99379185Y-67290609D01*
X99379172Y-67290602D01*
X99233501Y-67230264D01*
X99233489Y-67230261D01*
X99078845Y-67199500D01*
X99078842Y-67199500D01*
X98921158Y-67199500D01*
X98921155Y-67199500D01*
X98766510Y-67230261D01*
X98766498Y-67230264D01*
X98620827Y-67290602D01*
X98620814Y-67290609D01*
X98568891Y-67325304D01*
X98502214Y-67346182D01*
X98434833Y-67327698D01*
X98431109Y-67325304D01*
X98379185Y-67290609D01*
X98379172Y-67290602D01*
X98233501Y-67230264D01*
X98233489Y-67230261D01*
X98078845Y-67199500D01*
X98078842Y-67199500D01*
X97921158Y-67199500D01*
X97921155Y-67199500D01*
X97766510Y-67230261D01*
X97766498Y-67230264D01*
X97620827Y-67290602D01*
X97620814Y-67290609D01*
X97568891Y-67325304D01*
X97502214Y-67346182D01*
X97434833Y-67327698D01*
X97431109Y-67325304D01*
X97379185Y-67290609D01*
X97379172Y-67290602D01*
X97233501Y-67230264D01*
X97233489Y-67230261D01*
X97078845Y-67199500D01*
X97078842Y-67199500D01*
X96921158Y-67199500D01*
X96921155Y-67199500D01*
X96766510Y-67230261D01*
X96766498Y-67230264D01*
X96620827Y-67290602D01*
X96620814Y-67290609D01*
X96568891Y-67325304D01*
X96502214Y-67346182D01*
X96434833Y-67327698D01*
X96431109Y-67325304D01*
X96379185Y-67290609D01*
X96379172Y-67290602D01*
X96233501Y-67230264D01*
X96233489Y-67230261D01*
X96078845Y-67199500D01*
X96078842Y-67199500D01*
X95921158Y-67199500D01*
X95921155Y-67199500D01*
X95766510Y-67230261D01*
X95766498Y-67230264D01*
X95620827Y-67290602D01*
X95620814Y-67290609D01*
X95489711Y-67378210D01*
X95489707Y-67378213D01*
X95378213Y-67489707D01*
X95378210Y-67489711D01*
X95290609Y-67620814D01*
X95290602Y-67620827D01*
X95230264Y-67766498D01*
X95230261Y-67766510D01*
X95199500Y-67921153D01*
X20250500Y-67921153D01*
X20250500Y-62629500D01*
X20270185Y-62562461D01*
X20322989Y-62516706D01*
X20374500Y-62505500D01*
X24875990Y-62505500D01*
X24876000Y-62505500D01*
X24983456Y-62493947D01*
X25034967Y-62482741D01*
X25069197Y-62471347D01*
X25137497Y-62448616D01*
X25137501Y-62448613D01*
X25137504Y-62448613D01*
X25180232Y-62421153D01*
X40199500Y-62421153D01*
X40199500Y-62578846D01*
X40230261Y-62733489D01*
X40230264Y-62733501D01*
X40290602Y-62879172D01*
X40290609Y-62879185D01*
X40378210Y-63010288D01*
X40378213Y-63010292D01*
X40489707Y-63121786D01*
X40489710Y-63121788D01*
X40489711Y-63121789D01*
X40499999Y-63128663D01*
X40527289Y-63146898D01*
X40572093Y-63200511D01*
X40580800Y-63269836D01*
X40550645Y-63332863D01*
X40527289Y-63353102D01*
X40489707Y-63378213D01*
X40378213Y-63489707D01*
X40378210Y-63489711D01*
X40290609Y-63620814D01*
X40290602Y-63620827D01*
X40230264Y-63766498D01*
X40230261Y-63766510D01*
X40199500Y-63921153D01*
X40199500Y-64078846D01*
X40230261Y-64233489D01*
X40230264Y-64233501D01*
X40290602Y-64379172D01*
X40290609Y-64379185D01*
X40378210Y-64510288D01*
X40378213Y-64510292D01*
X40489707Y-64621786D01*
X40489711Y-64621789D01*
X40620814Y-64709390D01*
X40620827Y-64709397D01*
X40766498Y-64769735D01*
X40766503Y-64769737D01*
X40921153Y-64800499D01*
X40921156Y-64800500D01*
X40921158Y-64800500D01*
X41078844Y-64800500D01*
X41078845Y-64800499D01*
X41233497Y-64769737D01*
X41379179Y-64709394D01*
X41431110Y-64674694D01*
X41497785Y-64653816D01*
X41565165Y-64672300D01*
X41568863Y-64674676D01*
X41620821Y-64709394D01*
X41620823Y-64709395D01*
X41620825Y-64709396D01*
X41766498Y-64769735D01*
X41766503Y-64769737D01*
X41921153Y-64800499D01*
X41921156Y-64800500D01*
X41921158Y-64800500D01*
X42078844Y-64800500D01*
X42078845Y-64800499D01*
X42233497Y-64769737D01*
X42379179Y-64709394D01*
X42510289Y-64621789D01*
X42621789Y-64510289D01*
X42709394Y-64379179D01*
X42769737Y-64233497D01*
X42800500Y-64078842D01*
X42800500Y-63921158D01*
X42800500Y-63921155D01*
X42800499Y-63921153D01*
X42769738Y-63766510D01*
X42769737Y-63766503D01*
X42769735Y-63766498D01*
X42709397Y-63620827D01*
X42709390Y-63620814D01*
X42621789Y-63489711D01*
X42621786Y-63489707D01*
X42510292Y-63378213D01*
X42510284Y-63378207D01*
X42472712Y-63353102D01*
X42427906Y-63299490D01*
X42419199Y-63230165D01*
X42449353Y-63167138D01*
X42472712Y-63146898D01*
X42500001Y-63128663D01*
X42510289Y-63121789D01*
X42621789Y-63010289D01*
X42709394Y-62879179D01*
X42769737Y-62733497D01*
X42800500Y-62578842D01*
X42800500Y-62421158D01*
X42800500Y-62421155D01*
X42800499Y-62421153D01*
X42797399Y-62405567D01*
X42769737Y-62266503D01*
X42760084Y-62243199D01*
X42709397Y-62120827D01*
X42709390Y-62120814D01*
X42621789Y-61989711D01*
X42621786Y-61989707D01*
X42510292Y-61878213D01*
X42510288Y-61878210D01*
X42379185Y-61790609D01*
X42379172Y-61790602D01*
X42233501Y-61730264D01*
X42233489Y-61730261D01*
X42078845Y-61699500D01*
X42078842Y-61699500D01*
X41921158Y-61699500D01*
X41921155Y-61699500D01*
X41766510Y-61730261D01*
X41766498Y-61730264D01*
X41620827Y-61790602D01*
X41620814Y-61790609D01*
X41568891Y-61825304D01*
X41502214Y-61846182D01*
X41434833Y-61827698D01*
X41431109Y-61825304D01*
X41379185Y-61790609D01*
X41379172Y-61790602D01*
X41233501Y-61730264D01*
X41233489Y-61730261D01*
X41078845Y-61699500D01*
X41078842Y-61699500D01*
X40921158Y-61699500D01*
X40921155Y-61699500D01*
X40766510Y-61730261D01*
X40766498Y-61730264D01*
X40620827Y-61790602D01*
X40620814Y-61790609D01*
X40489711Y-61878210D01*
X40489707Y-61878213D01*
X40378213Y-61989707D01*
X40378210Y-61989711D01*
X40290609Y-62120814D01*
X40290602Y-62120827D01*
X40230264Y-62266498D01*
X40230261Y-62266510D01*
X40199500Y-62421153D01*
X25180232Y-62421153D01*
X25258543Y-62370825D01*
X25311347Y-62325070D01*
X25405567Y-62216336D01*
X25465338Y-62085459D01*
X25485023Y-62018420D01*
X25485024Y-62018416D01*
X25505500Y-61876000D01*
X25505500Y-60129500D01*
X25525185Y-60062461D01*
X25577989Y-60016706D01*
X25629500Y-60005500D01*
X26375990Y-60005500D01*
X26376000Y-60005500D01*
X26483456Y-59993947D01*
X26534967Y-59982741D01*
X26569197Y-59971347D01*
X26637497Y-59948616D01*
X26637501Y-59948613D01*
X26637504Y-59948613D01*
X26758543Y-59870825D01*
X26811347Y-59825070D01*
X26905567Y-59716336D01*
X26955963Y-59605987D01*
X27001718Y-59553183D01*
X27003560Y-59552022D01*
X27018656Y-59542712D01*
X27142712Y-59418656D01*
X27234814Y-59269334D01*
X27261955Y-59187427D01*
X27301726Y-59129984D01*
X27366242Y-59103161D01*
X27435018Y-59115476D01*
X27479977Y-59153547D01*
X27506900Y-59190602D01*
X27548034Y-59247219D01*
X27692786Y-59391971D01*
X27847749Y-59504556D01*
X27858390Y-59512287D01*
X27936249Y-59551958D01*
X28040776Y-59605218D01*
X28040778Y-59605218D01*
X28040781Y-59605220D01*
X28145137Y-59639127D01*
X28235465Y-59668477D01*
X28336557Y-59684488D01*
X28437648Y-59700500D01*
X28437649Y-59700500D01*
X28642351Y-59700500D01*
X28642352Y-59700500D01*
X28844534Y-59668477D01*
X29039219Y-59605220D01*
X29221610Y-59512287D01*
X29314590Y-59444732D01*
X29387213Y-59391971D01*
X29387215Y-59391968D01*
X29387219Y-59391966D01*
X29531966Y-59247219D01*
X29531968Y-59247215D01*
X29531971Y-59247213D01*
X29652284Y-59081614D01*
X29652285Y-59081613D01*
X29652287Y-59081610D01*
X29699516Y-58988917D01*
X29747489Y-58938123D01*
X29815310Y-58921328D01*
X29881445Y-58943865D01*
X29920483Y-58988917D01*
X29964348Y-59075006D01*
X29967715Y-59081614D01*
X30088028Y-59247213D01*
X30232786Y-59391971D01*
X30387749Y-59504556D01*
X30398390Y-59512287D01*
X30476249Y-59551958D01*
X30580776Y-59605218D01*
X30580778Y-59605218D01*
X30580781Y-59605220D01*
X30685137Y-59639127D01*
X30775465Y-59668477D01*
X30876557Y-59684488D01*
X30977648Y-59700500D01*
X30977649Y-59700500D01*
X31182351Y-59700500D01*
X31182352Y-59700500D01*
X31384534Y-59668477D01*
X31579219Y-59605220D01*
X31761610Y-59512287D01*
X31854590Y-59444732D01*
X31927213Y-59391971D01*
X31927215Y-59391968D01*
X31927219Y-59391966D01*
X32071966Y-59247219D01*
X32071968Y-59247215D01*
X32071971Y-59247213D01*
X32156938Y-59130264D01*
X32192287Y-59081610D01*
X32285220Y-58899219D01*
X32348477Y-58704534D01*
X32380500Y-58502352D01*
X32380500Y-57497648D01*
X32348477Y-57295466D01*
X32285220Y-57100781D01*
X32285218Y-57100778D01*
X32285218Y-57100776D01*
X32233865Y-56999992D01*
X32192287Y-56918390D01*
X32140021Y-56846451D01*
X32071971Y-56752786D01*
X31927213Y-56608028D01*
X31761613Y-56487715D01*
X31761612Y-56487714D01*
X31761610Y-56487713D01*
X31689665Y-56451055D01*
X31579223Y-56394781D01*
X31384534Y-56331522D01*
X31209995Y-56303878D01*
X31182352Y-56299500D01*
X30977648Y-56299500D01*
X30953329Y-56303351D01*
X30775465Y-56331522D01*
X30580776Y-56394781D01*
X30398386Y-56487715D01*
X30232786Y-56608028D01*
X30088028Y-56752786D01*
X29967715Y-56918386D01*
X29920485Y-57011080D01*
X29872510Y-57061876D01*
X29804689Y-57078671D01*
X29738554Y-57056134D01*
X29699515Y-57011080D01*
X29693865Y-56999992D01*
X29652287Y-56918390D01*
X29600021Y-56846451D01*
X29531971Y-56752786D01*
X29387213Y-56608028D01*
X29221613Y-56487715D01*
X29221612Y-56487714D01*
X29221610Y-56487713D01*
X29149665Y-56451055D01*
X29039223Y-56394781D01*
X28844534Y-56331522D01*
X28669995Y-56303878D01*
X28642352Y-56299500D01*
X28437648Y-56299500D01*
X28413329Y-56303351D01*
X28235465Y-56331522D01*
X28040776Y-56394781D01*
X27858386Y-56487715D01*
X27692786Y-56608028D01*
X27548032Y-56752782D01*
X27548028Y-56752787D01*
X27479978Y-56846451D01*
X27424648Y-56889117D01*
X27355035Y-56895096D01*
X27293240Y-56862490D01*
X27261954Y-56812570D01*
X27242144Y-56752787D01*
X27234814Y-56730666D01*
X27142712Y-56581344D01*
X27018656Y-56457288D01*
X27018655Y-56457287D01*
X27008551Y-56451055D01*
X26961827Y-56399106D01*
X26955994Y-56384673D01*
X26948613Y-56362497D01*
X26948614Y-56362497D01*
X26870828Y-56241462D01*
X26870825Y-56241457D01*
X26870820Y-56241451D01*
X26825076Y-56188659D01*
X26825072Y-56188656D01*
X26825070Y-56188653D01*
X26716336Y-56094433D01*
X26716333Y-56094431D01*
X26716331Y-56094430D01*
X26585465Y-56034664D01*
X26585460Y-56034662D01*
X26585459Y-56034662D01*
X26518420Y-56014977D01*
X26518422Y-56014977D01*
X26518417Y-56014976D01*
X26470944Y-56008150D01*
X26376000Y-55994500D01*
X26375998Y-55994500D01*
X25129500Y-55994500D01*
X25062461Y-55974815D01*
X25016706Y-55922011D01*
X25005500Y-55870500D01*
X25005500Y-51908324D01*
X25025185Y-51841285D01*
X25077989Y-51795530D01*
X25147147Y-51785586D01*
X25202385Y-51808006D01*
X25248191Y-51841285D01*
X25318390Y-51892287D01*
X25434607Y-51951503D01*
X25500776Y-51985218D01*
X25500778Y-51985218D01*
X25500781Y-51985220D01*
X25605137Y-52019127D01*
X25695465Y-52048477D01*
X25796557Y-52064488D01*
X25897648Y-52080500D01*
X25897649Y-52080500D01*
X26102351Y-52080500D01*
X26102352Y-52080500D01*
X26304534Y-52048477D01*
X26499219Y-51985220D01*
X26681610Y-51892287D01*
X26828473Y-51785586D01*
X26847213Y-51771971D01*
X26847215Y-51771968D01*
X26847219Y-51771966D01*
X26991966Y-51627219D01*
X26991968Y-51627215D01*
X26991971Y-51627213D01*
X27112284Y-51461614D01*
X27112285Y-51461613D01*
X27112287Y-51461610D01*
X27159516Y-51368917D01*
X27207489Y-51318123D01*
X27275310Y-51301328D01*
X27341445Y-51323865D01*
X27380485Y-51368919D01*
X27427715Y-51461614D01*
X27548028Y-51627213D01*
X27692786Y-51771971D01*
X27847749Y-51884556D01*
X27858390Y-51892287D01*
X27974607Y-51951503D01*
X28040776Y-51985218D01*
X28040778Y-51985218D01*
X28040781Y-51985220D01*
X28145137Y-52019127D01*
X28235465Y-52048477D01*
X28336557Y-52064488D01*
X28437648Y-52080500D01*
X28437649Y-52080500D01*
X28642351Y-52080500D01*
X28642352Y-52080500D01*
X28844534Y-52048477D01*
X29039219Y-51985220D01*
X29221610Y-51892287D01*
X29368473Y-51785586D01*
X29387213Y-51771971D01*
X29387215Y-51771968D01*
X29387219Y-51771966D01*
X29531966Y-51627219D01*
X29531968Y-51627215D01*
X29531971Y-51627213D01*
X29652284Y-51461614D01*
X29652285Y-51461613D01*
X29652287Y-51461610D01*
X29699516Y-51368917D01*
X29747489Y-51318123D01*
X29815310Y-51301328D01*
X29881445Y-51323865D01*
X29920485Y-51368919D01*
X29967715Y-51461614D01*
X30088028Y-51627213D01*
X30232786Y-51771971D01*
X30387749Y-51884556D01*
X30398390Y-51892287D01*
X30514607Y-51951503D01*
X30580776Y-51985218D01*
X30580778Y-51985218D01*
X30580781Y-51985220D01*
X30685137Y-52019127D01*
X30775465Y-52048477D01*
X30876557Y-52064488D01*
X30977648Y-52080500D01*
X30977649Y-52080500D01*
X31182351Y-52080500D01*
X31182352Y-52080500D01*
X31384534Y-52048477D01*
X31579219Y-51985220D01*
X31761610Y-51892287D01*
X31908473Y-51785586D01*
X31927213Y-51771971D01*
X31927215Y-51771968D01*
X31927219Y-51771966D01*
X32071966Y-51627219D01*
X32071968Y-51627215D01*
X32071971Y-51627213D01*
X32192284Y-51461614D01*
X32192285Y-51461613D01*
X32192287Y-51461610D01*
X32239516Y-51368917D01*
X32287489Y-51318123D01*
X32355310Y-51301328D01*
X32421445Y-51323865D01*
X32460485Y-51368919D01*
X32507715Y-51461614D01*
X32628028Y-51627213D01*
X32772786Y-51771971D01*
X32927749Y-51884556D01*
X32938390Y-51892287D01*
X33054607Y-51951503D01*
X33120776Y-51985218D01*
X33120778Y-51985218D01*
X33120781Y-51985220D01*
X33225137Y-52019127D01*
X33315465Y-52048477D01*
X33416557Y-52064488D01*
X33517648Y-52080500D01*
X33517649Y-52080500D01*
X33722351Y-52080500D01*
X33722352Y-52080500D01*
X33924534Y-52048477D01*
X34119219Y-51985220D01*
X34301610Y-51892287D01*
X34448473Y-51785586D01*
X34467213Y-51771971D01*
X34467215Y-51771968D01*
X34467219Y-51771966D01*
X34611966Y-51627219D01*
X34611968Y-51627215D01*
X34611971Y-51627213D01*
X34664732Y-51554590D01*
X34732287Y-51461610D01*
X34825220Y-51279219D01*
X34888477Y-51084534D01*
X34920500Y-50882352D01*
X34920500Y-49877648D01*
X34888477Y-49675466D01*
X34825220Y-49480781D01*
X34825218Y-49480778D01*
X34825218Y-49480776D01*
X34779515Y-49391080D01*
X34732287Y-49298390D01*
X34724556Y-49287749D01*
X34611971Y-49132786D01*
X34467213Y-48988028D01*
X34301613Y-48867715D01*
X34301612Y-48867714D01*
X34301610Y-48867713D01*
X34243485Y-48838097D01*
X34119223Y-48774781D01*
X34035047Y-48747431D01*
X33977372Y-48707993D01*
X33950174Y-48643634D01*
X33962089Y-48574788D01*
X34009333Y-48523312D01*
X34073366Y-48505500D01*
X39438246Y-48505500D01*
X39498342Y-48499309D01*
X39541274Y-48494888D01*
X39590765Y-48484584D01*
X39689487Y-48453187D01*
X39811895Y-48377571D01*
X39865507Y-48332765D01*
X39865509Y-48332763D01*
X39961655Y-48225723D01*
X39964076Y-48222098D01*
X39979497Y-48203305D01*
X40003311Y-48179492D01*
X40022094Y-48164077D01*
X40022099Y-48164074D01*
X40036271Y-48154604D01*
X40050109Y-48145358D01*
X40071545Y-48133899D01*
X40102671Y-48121007D01*
X40125918Y-48113955D01*
X40158970Y-48107381D01*
X40183154Y-48105000D01*
X40216842Y-48105000D01*
X40241024Y-48107381D01*
X40274084Y-48113957D01*
X40297332Y-48121009D01*
X40359104Y-48146596D01*
X40410116Y-48164593D01*
X40435550Y-48172062D01*
X40488230Y-48184511D01*
X40632019Y-48189646D01*
X40632019Y-48189645D01*
X40632020Y-48189646D01*
X40632020Y-48189645D01*
X40685349Y-48183912D01*
X40701481Y-48182178D01*
X40701482Y-48182177D01*
X40701489Y-48182177D01*
X40701495Y-48182175D01*
X40701503Y-48182174D01*
X40776688Y-48162983D01*
X40840897Y-48146596D01*
X40902665Y-48121010D01*
X40925925Y-48113953D01*
X40950354Y-48109094D01*
X40958967Y-48107382D01*
X40983156Y-48105000D01*
X41016842Y-48105000D01*
X41041024Y-48107381D01*
X41074084Y-48113957D01*
X41097332Y-48121009D01*
X41159104Y-48146596D01*
X41210116Y-48164593D01*
X41235550Y-48172062D01*
X41288230Y-48184511D01*
X41432019Y-48189646D01*
X41432019Y-48189645D01*
X41432020Y-48189646D01*
X41432020Y-48189645D01*
X41485349Y-48183912D01*
X41501481Y-48182178D01*
X41501482Y-48182177D01*
X41501489Y-48182177D01*
X41501495Y-48182175D01*
X41501503Y-48182174D01*
X41576688Y-48162983D01*
X41640897Y-48146596D01*
X41702665Y-48121010D01*
X41725925Y-48113953D01*
X41750354Y-48109094D01*
X41758967Y-48107382D01*
X41783156Y-48105000D01*
X41816842Y-48105000D01*
X41841024Y-48107381D01*
X41874084Y-48113957D01*
X41897332Y-48121009D01*
X41959104Y-48146596D01*
X42010116Y-48164593D01*
X42035550Y-48172062D01*
X42088230Y-48184511D01*
X42232019Y-48189646D01*
X42232019Y-48189645D01*
X42232020Y-48189646D01*
X42232020Y-48189645D01*
X42285349Y-48183912D01*
X42301481Y-48182178D01*
X42301482Y-48182177D01*
X42301489Y-48182177D01*
X42301495Y-48182175D01*
X42301503Y-48182174D01*
X42376688Y-48162983D01*
X42440897Y-48146596D01*
X42502665Y-48121010D01*
X42525925Y-48113953D01*
X42550354Y-48109094D01*
X42558967Y-48107382D01*
X42583156Y-48105000D01*
X42616842Y-48105000D01*
X42641024Y-48107381D01*
X42674084Y-48113957D01*
X42697332Y-48121009D01*
X42759104Y-48146596D01*
X42810116Y-48164593D01*
X42835550Y-48172062D01*
X42888230Y-48184511D01*
X43032019Y-48189646D01*
X43032019Y-48189645D01*
X43032020Y-48189646D01*
X43032020Y-48189645D01*
X43085349Y-48183912D01*
X43101481Y-48182178D01*
X43101482Y-48182177D01*
X43101489Y-48182177D01*
X43101495Y-48182175D01*
X43101503Y-48182174D01*
X43176688Y-48162983D01*
X43240897Y-48146596D01*
X43302665Y-48121010D01*
X43325925Y-48113953D01*
X43350354Y-48109094D01*
X43358967Y-48107382D01*
X43383156Y-48105000D01*
X43416842Y-48105000D01*
X43441027Y-48107381D01*
X43474079Y-48113956D01*
X43497325Y-48121006D01*
X43528458Y-48133902D01*
X43549890Y-48145359D01*
X43577898Y-48164074D01*
X43596685Y-48179492D01*
X43620501Y-48203307D01*
X43635923Y-48222097D01*
X43638347Y-48225725D01*
X43654641Y-48250111D01*
X43666100Y-48271550D01*
X43678989Y-48302668D01*
X43686043Y-48325922D01*
X43692616Y-48358959D01*
X43695000Y-48383156D01*
X43695000Y-48416839D01*
X43692617Y-48441030D01*
X43687782Y-48465338D01*
X43686044Y-48474074D01*
X43678987Y-48497333D01*
X43666097Y-48528451D01*
X43654640Y-48549886D01*
X43600610Y-48630750D01*
X43598008Y-48634683D01*
X43596816Y-48636501D01*
X43594431Y-48640178D01*
X43594430Y-48640181D01*
X43534664Y-48771047D01*
X43514976Y-48838095D01*
X43494500Y-48980514D01*
X43494500Y-61616561D01*
X43497397Y-61670609D01*
X43497397Y-61670610D01*
X43500229Y-61696943D01*
X43500232Y-61696970D01*
X43508885Y-61750366D01*
X43508885Y-61750368D01*
X43555744Y-61875998D01*
X43559168Y-61885178D01*
X43592653Y-61946501D01*
X43678877Y-62061682D01*
X43678886Y-62061691D01*
X43720498Y-62103303D01*
X43734585Y-62120137D01*
X43735285Y-62121142D01*
X43789084Y-62201657D01*
X43790621Y-62200629D01*
X43820258Y-62243199D01*
X43820654Y-62244386D01*
X43822805Y-62247006D01*
X43830216Y-62258538D01*
X43830225Y-62258549D01*
X43875968Y-62311340D01*
X43875971Y-62311343D01*
X43875975Y-62311347D01*
X43984709Y-62405567D01*
X43984712Y-62405568D01*
X43984713Y-62405569D01*
X44078970Y-62448616D01*
X44115586Y-62465338D01*
X44182625Y-62485023D01*
X44182629Y-62485024D01*
X44325045Y-62505500D01*
X44325048Y-62505500D01*
X50875990Y-62505500D01*
X50876000Y-62505500D01*
X50983456Y-62493947D01*
X51034967Y-62482741D01*
X51069197Y-62471347D01*
X51137497Y-62448616D01*
X51137501Y-62448613D01*
X51137504Y-62448613D01*
X51180232Y-62421153D01*
X66199500Y-62421153D01*
X66199500Y-62578846D01*
X66230261Y-62733489D01*
X66230264Y-62733501D01*
X66290602Y-62879172D01*
X66290609Y-62879185D01*
X66378210Y-63010288D01*
X66378213Y-63010292D01*
X66489707Y-63121786D01*
X66489710Y-63121788D01*
X66489711Y-63121789D01*
X66499999Y-63128663D01*
X66527289Y-63146898D01*
X66572093Y-63200511D01*
X66580800Y-63269836D01*
X66550645Y-63332863D01*
X66527289Y-63353102D01*
X66489707Y-63378213D01*
X66378213Y-63489707D01*
X66378210Y-63489711D01*
X66290609Y-63620814D01*
X66290602Y-63620827D01*
X66230264Y-63766498D01*
X66230261Y-63766510D01*
X66199500Y-63921153D01*
X66199500Y-64078846D01*
X66230261Y-64233489D01*
X66230264Y-64233501D01*
X66290602Y-64379172D01*
X66290609Y-64379185D01*
X66378210Y-64510288D01*
X66378213Y-64510292D01*
X66489707Y-64621786D01*
X66489711Y-64621789D01*
X66620814Y-64709390D01*
X66620827Y-64709397D01*
X66766498Y-64769735D01*
X66766503Y-64769737D01*
X66921153Y-64800499D01*
X66921156Y-64800500D01*
X66921158Y-64800500D01*
X67078844Y-64800500D01*
X67078845Y-64800499D01*
X67233497Y-64769737D01*
X67379179Y-64709394D01*
X67431110Y-64674694D01*
X67497785Y-64653816D01*
X67565165Y-64672300D01*
X67568863Y-64674676D01*
X67620821Y-64709394D01*
X67620823Y-64709395D01*
X67620825Y-64709396D01*
X67766498Y-64769735D01*
X67766503Y-64769737D01*
X67921153Y-64800499D01*
X67921156Y-64800500D01*
X67921158Y-64800500D01*
X68078844Y-64800500D01*
X68078845Y-64800499D01*
X68233497Y-64769737D01*
X68379179Y-64709394D01*
X68510289Y-64621789D01*
X68621789Y-64510289D01*
X68709394Y-64379179D01*
X68769737Y-64233497D01*
X68800500Y-64078842D01*
X68800500Y-63921158D01*
X68800500Y-63921155D01*
X68800499Y-63921153D01*
X68769738Y-63766510D01*
X68769737Y-63766503D01*
X68769735Y-63766498D01*
X68709397Y-63620827D01*
X68709390Y-63620814D01*
X68621789Y-63489711D01*
X68621786Y-63489707D01*
X68510292Y-63378213D01*
X68510284Y-63378207D01*
X68472712Y-63353102D01*
X68427906Y-63299490D01*
X68419199Y-63230165D01*
X68449353Y-63167138D01*
X68472712Y-63146898D01*
X68500001Y-63128663D01*
X68510289Y-63121789D01*
X68621789Y-63010289D01*
X68709394Y-62879179D01*
X68769737Y-62733497D01*
X68800500Y-62578842D01*
X68800500Y-62421158D01*
X68800500Y-62421155D01*
X68800499Y-62421153D01*
X68797399Y-62405567D01*
X68769737Y-62266503D01*
X68760084Y-62243199D01*
X68709397Y-62120827D01*
X68709390Y-62120814D01*
X68621789Y-61989711D01*
X68621786Y-61989707D01*
X68510292Y-61878213D01*
X68510288Y-61878210D01*
X68379185Y-61790609D01*
X68379172Y-61790602D01*
X68233501Y-61730264D01*
X68233489Y-61730261D01*
X68078845Y-61699500D01*
X68078842Y-61699500D01*
X67921158Y-61699500D01*
X67921155Y-61699500D01*
X67766510Y-61730261D01*
X67766498Y-61730264D01*
X67620827Y-61790602D01*
X67620814Y-61790609D01*
X67568891Y-61825304D01*
X67502214Y-61846182D01*
X67434833Y-61827698D01*
X67431109Y-61825304D01*
X67379185Y-61790609D01*
X67379172Y-61790602D01*
X67233501Y-61730264D01*
X67233489Y-61730261D01*
X67078845Y-61699500D01*
X67078842Y-61699500D01*
X66921158Y-61699500D01*
X66921155Y-61699500D01*
X66766510Y-61730261D01*
X66766498Y-61730264D01*
X66620827Y-61790602D01*
X66620814Y-61790609D01*
X66489711Y-61878210D01*
X66489707Y-61878213D01*
X66378213Y-61989707D01*
X66378210Y-61989711D01*
X66290609Y-62120814D01*
X66290602Y-62120827D01*
X66230264Y-62266498D01*
X66230261Y-62266510D01*
X66199500Y-62421153D01*
X51180232Y-62421153D01*
X51258543Y-62370825D01*
X51311347Y-62325070D01*
X51405567Y-62216336D01*
X51465338Y-62085459D01*
X51485023Y-62018420D01*
X51485024Y-62018416D01*
X51505500Y-61876000D01*
X51505500Y-60129500D01*
X51525185Y-60062461D01*
X51577989Y-60016706D01*
X51629500Y-60005500D01*
X52375990Y-60005500D01*
X52376000Y-60005500D01*
X52483456Y-59993947D01*
X52534967Y-59982741D01*
X52569197Y-59971347D01*
X52637497Y-59948616D01*
X52637501Y-59948613D01*
X52637504Y-59948613D01*
X52758543Y-59870825D01*
X52811347Y-59825070D01*
X52905567Y-59716336D01*
X52955963Y-59605987D01*
X53001718Y-59553183D01*
X53003560Y-59552022D01*
X53018656Y-59542712D01*
X53142712Y-59418656D01*
X53234814Y-59269334D01*
X53261955Y-59187427D01*
X53301726Y-59129984D01*
X53366242Y-59103161D01*
X53435018Y-59115476D01*
X53479977Y-59153547D01*
X53506900Y-59190602D01*
X53548034Y-59247219D01*
X53692786Y-59391971D01*
X53847749Y-59504556D01*
X53858390Y-59512287D01*
X53936249Y-59551958D01*
X54040776Y-59605218D01*
X54040778Y-59605218D01*
X54040781Y-59605220D01*
X54145137Y-59639127D01*
X54235465Y-59668477D01*
X54336557Y-59684488D01*
X54437648Y-59700500D01*
X54437649Y-59700500D01*
X54642351Y-59700500D01*
X54642352Y-59700500D01*
X54844534Y-59668477D01*
X55039219Y-59605220D01*
X55221610Y-59512287D01*
X55314590Y-59444732D01*
X55387213Y-59391971D01*
X55387215Y-59391968D01*
X55387219Y-59391966D01*
X55531966Y-59247219D01*
X55531968Y-59247215D01*
X55531971Y-59247213D01*
X55652284Y-59081614D01*
X55652285Y-59081613D01*
X55652287Y-59081610D01*
X55699516Y-58988917D01*
X55747489Y-58938123D01*
X55815310Y-58921328D01*
X55881445Y-58943865D01*
X55920483Y-58988917D01*
X55964348Y-59075006D01*
X55967715Y-59081614D01*
X56088028Y-59247213D01*
X56232786Y-59391971D01*
X56387749Y-59504556D01*
X56398390Y-59512287D01*
X56476249Y-59551958D01*
X56580776Y-59605218D01*
X56580778Y-59605218D01*
X56580781Y-59605220D01*
X56685137Y-59639127D01*
X56775465Y-59668477D01*
X56876557Y-59684488D01*
X56977648Y-59700500D01*
X56977649Y-59700500D01*
X57182351Y-59700500D01*
X57182352Y-59700500D01*
X57384534Y-59668477D01*
X57579219Y-59605220D01*
X57761610Y-59512287D01*
X57854590Y-59444732D01*
X57927213Y-59391971D01*
X57927215Y-59391968D01*
X57927219Y-59391966D01*
X58071966Y-59247219D01*
X58071968Y-59247215D01*
X58071971Y-59247213D01*
X58156938Y-59130264D01*
X58192287Y-59081610D01*
X58285220Y-58899219D01*
X58348477Y-58704534D01*
X58380500Y-58502352D01*
X58380500Y-57497648D01*
X58348477Y-57295466D01*
X58285220Y-57100781D01*
X58285218Y-57100778D01*
X58285218Y-57100776D01*
X58233865Y-56999992D01*
X58192287Y-56918390D01*
X58140021Y-56846451D01*
X58071971Y-56752786D01*
X57927213Y-56608028D01*
X57761613Y-56487715D01*
X57761612Y-56487714D01*
X57761610Y-56487713D01*
X57689665Y-56451055D01*
X57579223Y-56394781D01*
X57384534Y-56331522D01*
X57209995Y-56303878D01*
X57182352Y-56299500D01*
X56977648Y-56299500D01*
X56953329Y-56303351D01*
X56775465Y-56331522D01*
X56580776Y-56394781D01*
X56398386Y-56487715D01*
X56232786Y-56608028D01*
X56088028Y-56752786D01*
X55967715Y-56918386D01*
X55920485Y-57011080D01*
X55872510Y-57061876D01*
X55804689Y-57078671D01*
X55738554Y-57056134D01*
X55699515Y-57011080D01*
X55693865Y-56999992D01*
X55652287Y-56918390D01*
X55600021Y-56846451D01*
X55531971Y-56752786D01*
X55387213Y-56608028D01*
X55221613Y-56487715D01*
X55221612Y-56487714D01*
X55221610Y-56487713D01*
X55149665Y-56451055D01*
X55039223Y-56394781D01*
X54844534Y-56331522D01*
X54669995Y-56303878D01*
X54642352Y-56299500D01*
X54437648Y-56299500D01*
X54413329Y-56303351D01*
X54235465Y-56331522D01*
X54040776Y-56394781D01*
X53858386Y-56487715D01*
X53692786Y-56608028D01*
X53548032Y-56752782D01*
X53548028Y-56752787D01*
X53479978Y-56846451D01*
X53424648Y-56889117D01*
X53355035Y-56895096D01*
X53293240Y-56862490D01*
X53261954Y-56812570D01*
X53242144Y-56752787D01*
X53234814Y-56730666D01*
X53142712Y-56581344D01*
X53018656Y-56457288D01*
X53018655Y-56457287D01*
X53008551Y-56451055D01*
X52961827Y-56399106D01*
X52955994Y-56384673D01*
X52948613Y-56362497D01*
X52948614Y-56362497D01*
X52870828Y-56241462D01*
X52870825Y-56241457D01*
X52870820Y-56241451D01*
X52825076Y-56188659D01*
X52825072Y-56188656D01*
X52825070Y-56188653D01*
X52716336Y-56094433D01*
X52716333Y-56094431D01*
X52716331Y-56094430D01*
X52585465Y-56034664D01*
X52585460Y-56034662D01*
X52585459Y-56034662D01*
X52518420Y-56014977D01*
X52518422Y-56014977D01*
X52518417Y-56014976D01*
X52470944Y-56008150D01*
X52376000Y-55994500D01*
X52375998Y-55994500D01*
X51129500Y-55994500D01*
X51062461Y-55974815D01*
X51016706Y-55922011D01*
X51005500Y-55870500D01*
X51005500Y-51908324D01*
X51025185Y-51841285D01*
X51077989Y-51795530D01*
X51147147Y-51785586D01*
X51202385Y-51808006D01*
X51248191Y-51841285D01*
X51318390Y-51892287D01*
X51434607Y-51951503D01*
X51500776Y-51985218D01*
X51500778Y-51985218D01*
X51500781Y-51985220D01*
X51605137Y-52019127D01*
X51695465Y-52048477D01*
X51796557Y-52064488D01*
X51897648Y-52080500D01*
X51897649Y-52080500D01*
X52102351Y-52080500D01*
X52102352Y-52080500D01*
X52304534Y-52048477D01*
X52499219Y-51985220D01*
X52681610Y-51892287D01*
X52828473Y-51785586D01*
X52847213Y-51771971D01*
X52847215Y-51771968D01*
X52847219Y-51771966D01*
X52991966Y-51627219D01*
X52991968Y-51627215D01*
X52991971Y-51627213D01*
X53112284Y-51461614D01*
X53112285Y-51461613D01*
X53112287Y-51461610D01*
X53159516Y-51368917D01*
X53207489Y-51318123D01*
X53275310Y-51301328D01*
X53341445Y-51323865D01*
X53380485Y-51368919D01*
X53427715Y-51461614D01*
X53548028Y-51627213D01*
X53692786Y-51771971D01*
X53847749Y-51884556D01*
X53858390Y-51892287D01*
X53974607Y-51951503D01*
X54040776Y-51985218D01*
X54040778Y-51985218D01*
X54040781Y-51985220D01*
X54145137Y-52019127D01*
X54235465Y-52048477D01*
X54336557Y-52064488D01*
X54437648Y-52080500D01*
X54437649Y-52080500D01*
X54642351Y-52080500D01*
X54642352Y-52080500D01*
X54844534Y-52048477D01*
X55039219Y-51985220D01*
X55221610Y-51892287D01*
X55368473Y-51785586D01*
X55387213Y-51771971D01*
X55387215Y-51771968D01*
X55387219Y-51771966D01*
X55531966Y-51627219D01*
X55531968Y-51627215D01*
X55531971Y-51627213D01*
X55652284Y-51461614D01*
X55652285Y-51461613D01*
X55652287Y-51461610D01*
X55699516Y-51368917D01*
X55747489Y-51318123D01*
X55815310Y-51301328D01*
X55881445Y-51323865D01*
X55920485Y-51368919D01*
X55967715Y-51461614D01*
X56088028Y-51627213D01*
X56232786Y-51771971D01*
X56387749Y-51884556D01*
X56398390Y-51892287D01*
X56514607Y-51951503D01*
X56580776Y-51985218D01*
X56580778Y-51985218D01*
X56580781Y-51985220D01*
X56685137Y-52019127D01*
X56775465Y-52048477D01*
X56876557Y-52064488D01*
X56977648Y-52080500D01*
X56977649Y-52080500D01*
X57182351Y-52080500D01*
X57182352Y-52080500D01*
X57384534Y-52048477D01*
X57579219Y-51985220D01*
X57761610Y-51892287D01*
X57908473Y-51785586D01*
X57927213Y-51771971D01*
X57927215Y-51771968D01*
X57927219Y-51771966D01*
X58071966Y-51627219D01*
X58071968Y-51627215D01*
X58071971Y-51627213D01*
X58192284Y-51461614D01*
X58192285Y-51461613D01*
X58192287Y-51461610D01*
X58239516Y-51368917D01*
X58287489Y-51318123D01*
X58355310Y-51301328D01*
X58421445Y-51323865D01*
X58460485Y-51368919D01*
X58507715Y-51461614D01*
X58628028Y-51627213D01*
X58772786Y-51771971D01*
X58927749Y-51884556D01*
X58938390Y-51892287D01*
X59054607Y-51951503D01*
X59120776Y-51985218D01*
X59120778Y-51985218D01*
X59120781Y-51985220D01*
X59225137Y-52019127D01*
X59315465Y-52048477D01*
X59416557Y-52064488D01*
X59517648Y-52080500D01*
X59517649Y-52080500D01*
X59722351Y-52080500D01*
X59722352Y-52080500D01*
X59924534Y-52048477D01*
X60119219Y-51985220D01*
X60301610Y-51892287D01*
X60448473Y-51785586D01*
X60467213Y-51771971D01*
X60467215Y-51771968D01*
X60467219Y-51771966D01*
X60611966Y-51627219D01*
X60611968Y-51627215D01*
X60611971Y-51627213D01*
X60664732Y-51554590D01*
X60732287Y-51461610D01*
X60825220Y-51279219D01*
X60888477Y-51084534D01*
X60920500Y-50882352D01*
X60920500Y-49877648D01*
X60888477Y-49675466D01*
X60825220Y-49480781D01*
X60825218Y-49480778D01*
X60825218Y-49480776D01*
X60779515Y-49391080D01*
X60732287Y-49298390D01*
X60724556Y-49287749D01*
X60611971Y-49132786D01*
X60467213Y-48988028D01*
X60301613Y-48867715D01*
X60301612Y-48867714D01*
X60301610Y-48867713D01*
X60243485Y-48838097D01*
X60119223Y-48774781D01*
X60035047Y-48747431D01*
X59977372Y-48707993D01*
X59950174Y-48643634D01*
X59962089Y-48574788D01*
X60009333Y-48523312D01*
X60073366Y-48505500D01*
X61773474Y-48505500D01*
X61773476Y-48505500D01*
X61872096Y-48495787D01*
X61919548Y-48486348D01*
X62014374Y-48457582D01*
X62072094Y-48433673D01*
X62102663Y-48421011D01*
X62125929Y-48413953D01*
X62158968Y-48407382D01*
X62183156Y-48405000D01*
X62216839Y-48405000D01*
X62241027Y-48407382D01*
X62258238Y-48410805D01*
X62274072Y-48413954D01*
X62297329Y-48421008D01*
X62385627Y-48457583D01*
X62480452Y-48486348D01*
X62527904Y-48495787D01*
X62626524Y-48505500D01*
X62626526Y-48505500D01*
X62773476Y-48505500D01*
X62845418Y-48500355D01*
X62880353Y-48495332D01*
X62950894Y-48479981D01*
X62963821Y-48474074D01*
X62971226Y-48470977D01*
X62975216Y-48469458D01*
X63014374Y-48457582D01*
X63104337Y-48420316D01*
X63106011Y-48419680D01*
X63107408Y-48419570D01*
X63125929Y-48413953D01*
X63158968Y-48407382D01*
X63183156Y-48405000D01*
X63216839Y-48405000D01*
X63241027Y-48407382D01*
X63258238Y-48410805D01*
X63274072Y-48413954D01*
X63297329Y-48421008D01*
X63385627Y-48457583D01*
X63480452Y-48486348D01*
X63527904Y-48495787D01*
X63626524Y-48505500D01*
X63626526Y-48505500D01*
X63773476Y-48505500D01*
X63845418Y-48500355D01*
X63880353Y-48495332D01*
X63950894Y-48479981D01*
X63963821Y-48474074D01*
X63971226Y-48470977D01*
X63975216Y-48469458D01*
X64014374Y-48457582D01*
X64104337Y-48420316D01*
X64106011Y-48419680D01*
X64107408Y-48419570D01*
X64125929Y-48413953D01*
X64158968Y-48407382D01*
X64183156Y-48405000D01*
X64216839Y-48405000D01*
X64241027Y-48407382D01*
X64258238Y-48410805D01*
X64274072Y-48413954D01*
X64297329Y-48421008D01*
X64385627Y-48457583D01*
X64480452Y-48486348D01*
X64527904Y-48495787D01*
X64626524Y-48505500D01*
X64626526Y-48505500D01*
X64773476Y-48505500D01*
X64845418Y-48500355D01*
X64880353Y-48495332D01*
X64950894Y-48479981D01*
X64963821Y-48474074D01*
X64971226Y-48470977D01*
X64975216Y-48469458D01*
X65014374Y-48457582D01*
X65104337Y-48420316D01*
X65106011Y-48419680D01*
X65107408Y-48419570D01*
X65125929Y-48413953D01*
X65158968Y-48407382D01*
X65183156Y-48405000D01*
X65216839Y-48405000D01*
X65241027Y-48407382D01*
X65258238Y-48410805D01*
X65274072Y-48413954D01*
X65297329Y-48421008D01*
X65385627Y-48457583D01*
X65480452Y-48486348D01*
X65527904Y-48495787D01*
X65626524Y-48505500D01*
X65626526Y-48505500D01*
X65773476Y-48505500D01*
X65845418Y-48500355D01*
X65880353Y-48495332D01*
X65950894Y-48479981D01*
X65963821Y-48474074D01*
X65971226Y-48470977D01*
X65975216Y-48469458D01*
X66014374Y-48457582D01*
X66104337Y-48420316D01*
X66106011Y-48419680D01*
X66107408Y-48419570D01*
X66125929Y-48413953D01*
X66158968Y-48407382D01*
X66183156Y-48405000D01*
X66216839Y-48405000D01*
X66241027Y-48407382D01*
X66258238Y-48410805D01*
X66274072Y-48413954D01*
X66297329Y-48421008D01*
X66385627Y-48457583D01*
X66480452Y-48486348D01*
X66527904Y-48495787D01*
X66626524Y-48505500D01*
X66626526Y-48505500D01*
X66773476Y-48505500D01*
X66845418Y-48500355D01*
X66880353Y-48495332D01*
X66950894Y-48479981D01*
X66963821Y-48474074D01*
X66971226Y-48470977D01*
X66975216Y-48469458D01*
X67014374Y-48457582D01*
X67104337Y-48420316D01*
X67106011Y-48419680D01*
X67107408Y-48419570D01*
X67125929Y-48413953D01*
X67158968Y-48407382D01*
X67183156Y-48405000D01*
X67216839Y-48405000D01*
X67241027Y-48407382D01*
X67258238Y-48410805D01*
X67274072Y-48413954D01*
X67297329Y-48421008D01*
X67385627Y-48457583D01*
X67480452Y-48486348D01*
X67527904Y-48495787D01*
X67626524Y-48505500D01*
X69370500Y-48505500D01*
X69437539Y-48525185D01*
X69483294Y-48577989D01*
X69494500Y-48629500D01*
X69494500Y-61616561D01*
X69497397Y-61670609D01*
X69497397Y-61670610D01*
X69500229Y-61696943D01*
X69500232Y-61696970D01*
X69508885Y-61750366D01*
X69508885Y-61750368D01*
X69555744Y-61875998D01*
X69559168Y-61885178D01*
X69592653Y-61946501D01*
X69678877Y-62061682D01*
X69678886Y-62061691D01*
X69720498Y-62103303D01*
X69734585Y-62120137D01*
X69735285Y-62121142D01*
X69789084Y-62201657D01*
X69790621Y-62200629D01*
X69820258Y-62243199D01*
X69820654Y-62244386D01*
X69822805Y-62247006D01*
X69830216Y-62258538D01*
X69830225Y-62258549D01*
X69875968Y-62311340D01*
X69875971Y-62311343D01*
X69875975Y-62311347D01*
X69984709Y-62405567D01*
X69984712Y-62405568D01*
X69984713Y-62405569D01*
X70078970Y-62448616D01*
X70115586Y-62465338D01*
X70182625Y-62485023D01*
X70182629Y-62485024D01*
X70325045Y-62505500D01*
X70325048Y-62505500D01*
X76875990Y-62505500D01*
X76876000Y-62505500D01*
X76983456Y-62493947D01*
X77034967Y-62482741D01*
X77069197Y-62471347D01*
X77137497Y-62448616D01*
X77137501Y-62448613D01*
X77137504Y-62448613D01*
X77180232Y-62421153D01*
X92199500Y-62421153D01*
X92199500Y-62578846D01*
X92230261Y-62733489D01*
X92230264Y-62733501D01*
X92290602Y-62879172D01*
X92290609Y-62879185D01*
X92378210Y-63010288D01*
X92378213Y-63010292D01*
X92489707Y-63121786D01*
X92489710Y-63121788D01*
X92489711Y-63121789D01*
X92499999Y-63128663D01*
X92527289Y-63146898D01*
X92572093Y-63200511D01*
X92580800Y-63269836D01*
X92550645Y-63332863D01*
X92527289Y-63353102D01*
X92489707Y-63378213D01*
X92378213Y-63489707D01*
X92378210Y-63489711D01*
X92290609Y-63620814D01*
X92290602Y-63620827D01*
X92230264Y-63766498D01*
X92230261Y-63766510D01*
X92199500Y-63921153D01*
X92199500Y-64078846D01*
X92230261Y-64233489D01*
X92230264Y-64233501D01*
X92290602Y-64379172D01*
X92290609Y-64379185D01*
X92378210Y-64510288D01*
X92378213Y-64510292D01*
X92489707Y-64621786D01*
X92489711Y-64621789D01*
X92620814Y-64709390D01*
X92620827Y-64709397D01*
X92766498Y-64769735D01*
X92766503Y-64769737D01*
X92921153Y-64800499D01*
X92921156Y-64800500D01*
X92921158Y-64800500D01*
X93078844Y-64800500D01*
X93078845Y-64800499D01*
X93233497Y-64769737D01*
X93379179Y-64709394D01*
X93431110Y-64674694D01*
X93497785Y-64653816D01*
X93565165Y-64672300D01*
X93568863Y-64674676D01*
X93620821Y-64709394D01*
X93620823Y-64709395D01*
X93620825Y-64709396D01*
X93766498Y-64769735D01*
X93766503Y-64769737D01*
X93921153Y-64800499D01*
X93921156Y-64800500D01*
X93921158Y-64800500D01*
X94078844Y-64800500D01*
X94078845Y-64800499D01*
X94233497Y-64769737D01*
X94379179Y-64709394D01*
X94510289Y-64621789D01*
X94621789Y-64510289D01*
X94709394Y-64379179D01*
X94769737Y-64233497D01*
X94800500Y-64078842D01*
X94800500Y-63921158D01*
X94800500Y-63921155D01*
X94800499Y-63921153D01*
X94769738Y-63766510D01*
X94769737Y-63766503D01*
X94769735Y-63766498D01*
X94709397Y-63620827D01*
X94709390Y-63620814D01*
X94621789Y-63489711D01*
X94621786Y-63489707D01*
X94510292Y-63378213D01*
X94510284Y-63378207D01*
X94472712Y-63353102D01*
X94427906Y-63299490D01*
X94419199Y-63230165D01*
X94449353Y-63167138D01*
X94472712Y-63146898D01*
X94500001Y-63128663D01*
X94510289Y-63121789D01*
X94621789Y-63010289D01*
X94709394Y-62879179D01*
X94769737Y-62733497D01*
X94800500Y-62578842D01*
X94800500Y-62421158D01*
X94800500Y-62421155D01*
X94800499Y-62421153D01*
X105799500Y-62421153D01*
X105799500Y-62578846D01*
X105830261Y-62733489D01*
X105830264Y-62733501D01*
X105890602Y-62879172D01*
X105890609Y-62879185D01*
X105978210Y-63010288D01*
X105978213Y-63010292D01*
X106089707Y-63121786D01*
X106089711Y-63121789D01*
X106220814Y-63209390D01*
X106220827Y-63209397D01*
X106318853Y-63250000D01*
X106366503Y-63269737D01*
X106521153Y-63300499D01*
X106521156Y-63300500D01*
X106521158Y-63300500D01*
X106678844Y-63300500D01*
X106678845Y-63300499D01*
X106833497Y-63269737D01*
X106979179Y-63209394D01*
X107110289Y-63121789D01*
X107221789Y-63010289D01*
X107309394Y-62879179D01*
X107369737Y-62733497D01*
X107400500Y-62578842D01*
X107400500Y-62421158D01*
X107400500Y-62421155D01*
X107400499Y-62421153D01*
X107397399Y-62405567D01*
X107369737Y-62266503D01*
X107360084Y-62243199D01*
X107309397Y-62120827D01*
X107309390Y-62120814D01*
X107221789Y-61989711D01*
X107221786Y-61989707D01*
X107110292Y-61878213D01*
X107110288Y-61878210D01*
X106979185Y-61790609D01*
X106979172Y-61790602D01*
X106833501Y-61730264D01*
X106833489Y-61730261D01*
X106678845Y-61699500D01*
X106678842Y-61699500D01*
X106521158Y-61699500D01*
X106521155Y-61699500D01*
X106366510Y-61730261D01*
X106366498Y-61730264D01*
X106220827Y-61790602D01*
X106220814Y-61790609D01*
X106089711Y-61878210D01*
X106089707Y-61878213D01*
X105978213Y-61989707D01*
X105978210Y-61989711D01*
X105890609Y-62120814D01*
X105890602Y-62120827D01*
X105830264Y-62266498D01*
X105830261Y-62266510D01*
X105799500Y-62421153D01*
X94800499Y-62421153D01*
X94797399Y-62405567D01*
X94769737Y-62266503D01*
X94760084Y-62243199D01*
X94709397Y-62120827D01*
X94709390Y-62120814D01*
X94621789Y-61989711D01*
X94621786Y-61989707D01*
X94510292Y-61878213D01*
X94510288Y-61878210D01*
X94379185Y-61790609D01*
X94379172Y-61790602D01*
X94233501Y-61730264D01*
X94233489Y-61730261D01*
X94078845Y-61699500D01*
X94078842Y-61699500D01*
X93921158Y-61699500D01*
X93921155Y-61699500D01*
X93766510Y-61730261D01*
X93766498Y-61730264D01*
X93620827Y-61790602D01*
X93620814Y-61790609D01*
X93568891Y-61825304D01*
X93502214Y-61846182D01*
X93434833Y-61827698D01*
X93431109Y-61825304D01*
X93379185Y-61790609D01*
X93379172Y-61790602D01*
X93233501Y-61730264D01*
X93233489Y-61730261D01*
X93078845Y-61699500D01*
X93078842Y-61699500D01*
X92921158Y-61699500D01*
X92921155Y-61699500D01*
X92766510Y-61730261D01*
X92766498Y-61730264D01*
X92620827Y-61790602D01*
X92620814Y-61790609D01*
X92489711Y-61878210D01*
X92489707Y-61878213D01*
X92378213Y-61989707D01*
X92378210Y-61989711D01*
X92290609Y-62120814D01*
X92290602Y-62120827D01*
X92230264Y-62266498D01*
X92230261Y-62266510D01*
X92199500Y-62421153D01*
X77180232Y-62421153D01*
X77258543Y-62370825D01*
X77311347Y-62325070D01*
X77405567Y-62216336D01*
X77465338Y-62085459D01*
X77485023Y-62018420D01*
X77485024Y-62018416D01*
X77505500Y-61876000D01*
X77505500Y-60129500D01*
X77525185Y-60062461D01*
X77577989Y-60016706D01*
X77629500Y-60005500D01*
X78375990Y-60005500D01*
X78376000Y-60005500D01*
X78483456Y-59993947D01*
X78534967Y-59982741D01*
X78569197Y-59971347D01*
X78637497Y-59948616D01*
X78637501Y-59948613D01*
X78637504Y-59948613D01*
X78758543Y-59870825D01*
X78811347Y-59825070D01*
X78814741Y-59821153D01*
X101499500Y-59821153D01*
X101499500Y-59978846D01*
X101530261Y-60133489D01*
X101530264Y-60133501D01*
X101590602Y-60279172D01*
X101590609Y-60279185D01*
X101678210Y-60410288D01*
X101678213Y-60410292D01*
X101789707Y-60521786D01*
X101789711Y-60521789D01*
X101920814Y-60609390D01*
X101920827Y-60609397D01*
X102066498Y-60669735D01*
X102066503Y-60669737D01*
X102221153Y-60700499D01*
X102221156Y-60700500D01*
X102221158Y-60700500D01*
X102378844Y-60700500D01*
X102378845Y-60700499D01*
X102533497Y-60669737D01*
X102679179Y-60609394D01*
X102810289Y-60521789D01*
X102921789Y-60410289D01*
X103009394Y-60279179D01*
X103069737Y-60133497D01*
X103100500Y-59978842D01*
X103100500Y-59821158D01*
X103100500Y-59821155D01*
X103100499Y-59821153D01*
X103076499Y-59700500D01*
X103069737Y-59666503D01*
X103022799Y-59553183D01*
X103009397Y-59520827D01*
X103009390Y-59520814D01*
X102921789Y-59389711D01*
X102921786Y-59389707D01*
X102810292Y-59278213D01*
X102810288Y-59278210D01*
X102679185Y-59190609D01*
X102679172Y-59190602D01*
X102533501Y-59130264D01*
X102533489Y-59130261D01*
X102378845Y-59099500D01*
X102378842Y-59099500D01*
X102221158Y-59099500D01*
X102221155Y-59099500D01*
X102066510Y-59130261D01*
X102066498Y-59130264D01*
X101920827Y-59190602D01*
X101920814Y-59190609D01*
X101789711Y-59278210D01*
X101789707Y-59278213D01*
X101678213Y-59389707D01*
X101678210Y-59389711D01*
X101590609Y-59520814D01*
X101590602Y-59520827D01*
X101530264Y-59666498D01*
X101530261Y-59666510D01*
X101499500Y-59821153D01*
X78814741Y-59821153D01*
X78905567Y-59716336D01*
X78955963Y-59605987D01*
X79001718Y-59553183D01*
X79003560Y-59552022D01*
X79018656Y-59542712D01*
X79142712Y-59418656D01*
X79234814Y-59269334D01*
X79261955Y-59187427D01*
X79301726Y-59129984D01*
X79366242Y-59103161D01*
X79435018Y-59115476D01*
X79479977Y-59153547D01*
X79506900Y-59190602D01*
X79548034Y-59247219D01*
X79692786Y-59391971D01*
X79847749Y-59504556D01*
X79858390Y-59512287D01*
X79936249Y-59551958D01*
X80040776Y-59605218D01*
X80040778Y-59605218D01*
X80040781Y-59605220D01*
X80145137Y-59639127D01*
X80235465Y-59668477D01*
X80336557Y-59684488D01*
X80437648Y-59700500D01*
X80437649Y-59700500D01*
X80642351Y-59700500D01*
X80642352Y-59700500D01*
X80844534Y-59668477D01*
X81039219Y-59605220D01*
X81221610Y-59512287D01*
X81314590Y-59444732D01*
X81387213Y-59391971D01*
X81387215Y-59391968D01*
X81387219Y-59391966D01*
X81531966Y-59247219D01*
X81531968Y-59247215D01*
X81531971Y-59247213D01*
X81652284Y-59081614D01*
X81652285Y-59081613D01*
X81652287Y-59081610D01*
X81699516Y-58988917D01*
X81747489Y-58938123D01*
X81815310Y-58921328D01*
X81881445Y-58943865D01*
X81920483Y-58988917D01*
X81964348Y-59075006D01*
X81967715Y-59081614D01*
X82088028Y-59247213D01*
X82232786Y-59391971D01*
X82387749Y-59504556D01*
X82398390Y-59512287D01*
X82476249Y-59551958D01*
X82580776Y-59605218D01*
X82580778Y-59605218D01*
X82580781Y-59605220D01*
X82685137Y-59639127D01*
X82775465Y-59668477D01*
X82876557Y-59684488D01*
X82977648Y-59700500D01*
X82977649Y-59700500D01*
X83182351Y-59700500D01*
X83182352Y-59700500D01*
X83384534Y-59668477D01*
X83579219Y-59605220D01*
X83761610Y-59512287D01*
X83854590Y-59444732D01*
X83927213Y-59391971D01*
X83927215Y-59391968D01*
X83927219Y-59391966D01*
X84071966Y-59247219D01*
X84071968Y-59247215D01*
X84071971Y-59247213D01*
X84156938Y-59130264D01*
X84192287Y-59081610D01*
X84285220Y-58899219D01*
X84348477Y-58704534D01*
X84380500Y-58502352D01*
X84380500Y-57497648D01*
X84348477Y-57295466D01*
X84285220Y-57100781D01*
X84285218Y-57100778D01*
X84285218Y-57100776D01*
X84233865Y-56999992D01*
X84192287Y-56918390D01*
X84140021Y-56846451D01*
X84071971Y-56752786D01*
X83927213Y-56608028D01*
X83761613Y-56487715D01*
X83761612Y-56487714D01*
X83761610Y-56487713D01*
X83689665Y-56451055D01*
X83579223Y-56394781D01*
X83384534Y-56331522D01*
X83209995Y-56303878D01*
X83182352Y-56299500D01*
X82977648Y-56299500D01*
X82953329Y-56303351D01*
X82775465Y-56331522D01*
X82580776Y-56394781D01*
X82398386Y-56487715D01*
X82232786Y-56608028D01*
X82088028Y-56752786D01*
X81967715Y-56918386D01*
X81920485Y-57011080D01*
X81872510Y-57061876D01*
X81804689Y-57078671D01*
X81738554Y-57056134D01*
X81699515Y-57011080D01*
X81693865Y-56999992D01*
X81652287Y-56918390D01*
X81600021Y-56846451D01*
X81531971Y-56752786D01*
X81387213Y-56608028D01*
X81221613Y-56487715D01*
X81221612Y-56487714D01*
X81221610Y-56487713D01*
X81149665Y-56451055D01*
X81039223Y-56394781D01*
X80844534Y-56331522D01*
X80669995Y-56303878D01*
X80642352Y-56299500D01*
X80437648Y-56299500D01*
X80413329Y-56303351D01*
X80235465Y-56331522D01*
X80040776Y-56394781D01*
X79858386Y-56487715D01*
X79692786Y-56608028D01*
X79548032Y-56752782D01*
X79548028Y-56752787D01*
X79479978Y-56846451D01*
X79424648Y-56889117D01*
X79355035Y-56895096D01*
X79293240Y-56862490D01*
X79261954Y-56812570D01*
X79242144Y-56752787D01*
X79234814Y-56730666D01*
X79142712Y-56581344D01*
X79018656Y-56457288D01*
X79018655Y-56457287D01*
X79008551Y-56451055D01*
X78961827Y-56399106D01*
X78955994Y-56384673D01*
X78948613Y-56362497D01*
X78948614Y-56362497D01*
X78870828Y-56241462D01*
X78870825Y-56241457D01*
X78870820Y-56241451D01*
X78825076Y-56188659D01*
X78825072Y-56188656D01*
X78825070Y-56188653D01*
X78716336Y-56094433D01*
X78716333Y-56094431D01*
X78716331Y-56094430D01*
X78585465Y-56034664D01*
X78585460Y-56034662D01*
X78585459Y-56034662D01*
X78518420Y-56014977D01*
X78518422Y-56014977D01*
X78518417Y-56014976D01*
X78470944Y-56008150D01*
X78376000Y-55994500D01*
X78375998Y-55994500D01*
X77129500Y-55994500D01*
X77062461Y-55974815D01*
X77016706Y-55922011D01*
X77005500Y-55870500D01*
X77005500Y-51908324D01*
X77025185Y-51841285D01*
X77077989Y-51795530D01*
X77147147Y-51785586D01*
X77202385Y-51808006D01*
X77248191Y-51841285D01*
X77318390Y-51892287D01*
X77434607Y-51951503D01*
X77500776Y-51985218D01*
X77500778Y-51985218D01*
X77500781Y-51985220D01*
X77605137Y-52019127D01*
X77695465Y-52048477D01*
X77796557Y-52064488D01*
X77897648Y-52080500D01*
X77897649Y-52080500D01*
X78102351Y-52080500D01*
X78102352Y-52080500D01*
X78304534Y-52048477D01*
X78499219Y-51985220D01*
X78681610Y-51892287D01*
X78828473Y-51785586D01*
X78847213Y-51771971D01*
X78847215Y-51771968D01*
X78847219Y-51771966D01*
X78991966Y-51627219D01*
X78991968Y-51627215D01*
X78991971Y-51627213D01*
X79112284Y-51461614D01*
X79112285Y-51461613D01*
X79112287Y-51461610D01*
X79159516Y-51368917D01*
X79207489Y-51318123D01*
X79275310Y-51301328D01*
X79341445Y-51323865D01*
X79380485Y-51368919D01*
X79427715Y-51461614D01*
X79548028Y-51627213D01*
X79692786Y-51771971D01*
X79847749Y-51884556D01*
X79858390Y-51892287D01*
X79974607Y-51951503D01*
X80040776Y-51985218D01*
X80040778Y-51985218D01*
X80040781Y-51985220D01*
X80145137Y-52019127D01*
X80235465Y-52048477D01*
X80336557Y-52064488D01*
X80437648Y-52080500D01*
X80437649Y-52080500D01*
X80642351Y-52080500D01*
X80642352Y-52080500D01*
X80844534Y-52048477D01*
X81039219Y-51985220D01*
X81221610Y-51892287D01*
X81368473Y-51785586D01*
X81387213Y-51771971D01*
X81387215Y-51771968D01*
X81387219Y-51771966D01*
X81531966Y-51627219D01*
X81531968Y-51627215D01*
X81531971Y-51627213D01*
X81652284Y-51461614D01*
X81652285Y-51461613D01*
X81652287Y-51461610D01*
X81699516Y-51368917D01*
X81747489Y-51318123D01*
X81815310Y-51301328D01*
X81881445Y-51323865D01*
X81920485Y-51368919D01*
X81967715Y-51461614D01*
X82088028Y-51627213D01*
X82232786Y-51771971D01*
X82387749Y-51884556D01*
X82398390Y-51892287D01*
X82514607Y-51951503D01*
X82580776Y-51985218D01*
X82580778Y-51985218D01*
X82580781Y-51985220D01*
X82685137Y-52019127D01*
X82775465Y-52048477D01*
X82876557Y-52064488D01*
X82977648Y-52080500D01*
X82977649Y-52080500D01*
X83182351Y-52080500D01*
X83182352Y-52080500D01*
X83384534Y-52048477D01*
X83579219Y-51985220D01*
X83761610Y-51892287D01*
X83908473Y-51785586D01*
X83927213Y-51771971D01*
X83927215Y-51771968D01*
X83927219Y-51771966D01*
X84071966Y-51627219D01*
X84071968Y-51627215D01*
X84071971Y-51627213D01*
X84192284Y-51461614D01*
X84192285Y-51461613D01*
X84192287Y-51461610D01*
X84239516Y-51368917D01*
X84287489Y-51318123D01*
X84355310Y-51301328D01*
X84421445Y-51323865D01*
X84460485Y-51368919D01*
X84507715Y-51461614D01*
X84628028Y-51627213D01*
X84772786Y-51771971D01*
X84927749Y-51884556D01*
X84938390Y-51892287D01*
X85054607Y-51951503D01*
X85120776Y-51985218D01*
X85120778Y-51985218D01*
X85120781Y-51985220D01*
X85225137Y-52019127D01*
X85315465Y-52048477D01*
X85416557Y-52064488D01*
X85517648Y-52080500D01*
X85517649Y-52080500D01*
X85722351Y-52080500D01*
X85722352Y-52080500D01*
X85924534Y-52048477D01*
X86119219Y-51985220D01*
X86301610Y-51892287D01*
X86448473Y-51785586D01*
X86467213Y-51771971D01*
X86467215Y-51771968D01*
X86467219Y-51771966D01*
X86611966Y-51627219D01*
X86611968Y-51627215D01*
X86611971Y-51627213D01*
X86664732Y-51554590D01*
X86732287Y-51461610D01*
X86825220Y-51279219D01*
X86888477Y-51084534D01*
X86920500Y-50882352D01*
X86920500Y-49877648D01*
X86888477Y-49675466D01*
X86825220Y-49480781D01*
X86825218Y-49480778D01*
X86825218Y-49480776D01*
X86779515Y-49391080D01*
X86732287Y-49298390D01*
X86724556Y-49287749D01*
X86611971Y-49132786D01*
X86467213Y-48988028D01*
X86301613Y-48867715D01*
X86301612Y-48867714D01*
X86301610Y-48867713D01*
X86243485Y-48838097D01*
X86119223Y-48774781D01*
X86035047Y-48747431D01*
X85977372Y-48707993D01*
X85950174Y-48643634D01*
X85962089Y-48574788D01*
X86009333Y-48523312D01*
X86073366Y-48505500D01*
X87519404Y-48505500D01*
X87519486Y-48505500D01*
X87524052Y-48505479D01*
X87526266Y-48505459D01*
X87530724Y-48505399D01*
X87530729Y-48505398D01*
X87530733Y-48505398D01*
X87672746Y-48482385D01*
X87672747Y-48482384D01*
X87672751Y-48482384D01*
X87739428Y-48461506D01*
X87739431Y-48461505D01*
X87869221Y-48399408D01*
X87950116Y-48345354D01*
X87971544Y-48333900D01*
X88002672Y-48321007D01*
X88025918Y-48313955D01*
X88058970Y-48307381D01*
X88083154Y-48305000D01*
X88116842Y-48305000D01*
X88141024Y-48307381D01*
X88174084Y-48313957D01*
X88197331Y-48321009D01*
X88228451Y-48333899D01*
X88249796Y-48345317D01*
X88249803Y-48345307D01*
X88249915Y-48345380D01*
X88249946Y-48345397D01*
X88250218Y-48345579D01*
X88257790Y-48350542D01*
X88261511Y-48352934D01*
X88265775Y-48355620D01*
X88269178Y-48357765D01*
X88269178Y-48357766D01*
X88299448Y-48370941D01*
X88401104Y-48415188D01*
X88468485Y-48433672D01*
X88468486Y-48433672D01*
X88468489Y-48433673D01*
X88611235Y-48451601D01*
X88611237Y-48451601D01*
X88611237Y-48451600D01*
X88611238Y-48451601D01*
X88753265Y-48428586D01*
X88819942Y-48407708D01*
X88819949Y-48407706D01*
X88949738Y-48345608D01*
X88957534Y-48340397D01*
X88965584Y-48336555D01*
X88967010Y-48336325D01*
X88971550Y-48333897D01*
X89002671Y-48321007D01*
X89025918Y-48313955D01*
X89058970Y-48307381D01*
X89083154Y-48305000D01*
X89116842Y-48305000D01*
X89141024Y-48307381D01*
X89174084Y-48313957D01*
X89197331Y-48321009D01*
X89228451Y-48333899D01*
X89249796Y-48345317D01*
X89249803Y-48345307D01*
X89249915Y-48345380D01*
X89249946Y-48345397D01*
X89250218Y-48345579D01*
X89257790Y-48350542D01*
X89261511Y-48352934D01*
X89265775Y-48355620D01*
X89269178Y-48357765D01*
X89269178Y-48357766D01*
X89299448Y-48370941D01*
X89401104Y-48415188D01*
X89468485Y-48433672D01*
X89468486Y-48433672D01*
X89468489Y-48433673D01*
X89611235Y-48451601D01*
X89611237Y-48451601D01*
X89611237Y-48451600D01*
X89611238Y-48451601D01*
X89753265Y-48428586D01*
X89819942Y-48407708D01*
X89819949Y-48407706D01*
X89949738Y-48345608D01*
X89957534Y-48340397D01*
X89965584Y-48336555D01*
X89967010Y-48336325D01*
X89971550Y-48333897D01*
X90002671Y-48321007D01*
X90025918Y-48313955D01*
X90058970Y-48307381D01*
X90083154Y-48305000D01*
X90116842Y-48305000D01*
X90141024Y-48307381D01*
X90174084Y-48313957D01*
X90197331Y-48321009D01*
X90228451Y-48333899D01*
X90249796Y-48345317D01*
X90249803Y-48345307D01*
X90249915Y-48345380D01*
X90249946Y-48345397D01*
X90250218Y-48345579D01*
X90257790Y-48350542D01*
X90261511Y-48352934D01*
X90265775Y-48355620D01*
X90269178Y-48357765D01*
X90269178Y-48357766D01*
X90299448Y-48370941D01*
X90401104Y-48415188D01*
X90468485Y-48433672D01*
X90468486Y-48433672D01*
X90468489Y-48433673D01*
X90611235Y-48451601D01*
X90611237Y-48451601D01*
X90611237Y-48451600D01*
X90611238Y-48451601D01*
X90753265Y-48428586D01*
X90819942Y-48407708D01*
X90819949Y-48407706D01*
X90949738Y-48345608D01*
X90957534Y-48340397D01*
X90965584Y-48336555D01*
X90967010Y-48336325D01*
X90971550Y-48333897D01*
X91002671Y-48321007D01*
X91025918Y-48313955D01*
X91058970Y-48307381D01*
X91083154Y-48305000D01*
X91116842Y-48305000D01*
X91141024Y-48307381D01*
X91174084Y-48313957D01*
X91197331Y-48321009D01*
X91228451Y-48333899D01*
X91249796Y-48345317D01*
X91249803Y-48345307D01*
X91249915Y-48345380D01*
X91249946Y-48345397D01*
X91250218Y-48345579D01*
X91257790Y-48350542D01*
X91261511Y-48352934D01*
X91265775Y-48355620D01*
X91269178Y-48357765D01*
X91269178Y-48357766D01*
X91299448Y-48370941D01*
X91401104Y-48415188D01*
X91468485Y-48433672D01*
X91468486Y-48433672D01*
X91468489Y-48433673D01*
X91611235Y-48451601D01*
X91611237Y-48451601D01*
X91611237Y-48451600D01*
X91611238Y-48451601D01*
X91753265Y-48428586D01*
X91819942Y-48407708D01*
X91819949Y-48407706D01*
X91949738Y-48345608D01*
X91957534Y-48340397D01*
X91965584Y-48336555D01*
X91967010Y-48336325D01*
X91971550Y-48333897D01*
X92002671Y-48321007D01*
X92025918Y-48313955D01*
X92058970Y-48307381D01*
X92083154Y-48305000D01*
X92116842Y-48305000D01*
X92141024Y-48307381D01*
X92174084Y-48313957D01*
X92197331Y-48321009D01*
X92228451Y-48333899D01*
X92249796Y-48345317D01*
X92249803Y-48345307D01*
X92249915Y-48345380D01*
X92249946Y-48345397D01*
X92250218Y-48345579D01*
X92257790Y-48350542D01*
X92261511Y-48352934D01*
X92265775Y-48355620D01*
X92269178Y-48357765D01*
X92269178Y-48357766D01*
X92299448Y-48370941D01*
X92401104Y-48415188D01*
X92468485Y-48433672D01*
X92468486Y-48433672D01*
X92468489Y-48433673D01*
X92611235Y-48451601D01*
X92611237Y-48451601D01*
X92611237Y-48451600D01*
X92611238Y-48451601D01*
X92753265Y-48428586D01*
X92819942Y-48407708D01*
X92819949Y-48407706D01*
X92949738Y-48345608D01*
X92957534Y-48340397D01*
X92965584Y-48336555D01*
X92967010Y-48336325D01*
X92971550Y-48333897D01*
X93002671Y-48321007D01*
X93025918Y-48313955D01*
X93058970Y-48307381D01*
X93083154Y-48305000D01*
X93116842Y-48305000D01*
X93141027Y-48307381D01*
X93174079Y-48313956D01*
X93197325Y-48321006D01*
X93228458Y-48333902D01*
X93249886Y-48345356D01*
X93330781Y-48399409D01*
X93333394Y-48401138D01*
X93334728Y-48402021D01*
X93336502Y-48403183D01*
X93340179Y-48405568D01*
X93340182Y-48405569D01*
X93454067Y-48457580D01*
X93471055Y-48465338D01*
X93538094Y-48485023D01*
X93538098Y-48485024D01*
X93680514Y-48505500D01*
X93680517Y-48505500D01*
X98918647Y-48505500D01*
X98921677Y-48505351D01*
X98921679Y-48505398D01*
X98929810Y-48505000D01*
X99070190Y-48505000D01*
X99078320Y-48505398D01*
X99078323Y-48505351D01*
X99081353Y-48505500D01*
X99081356Y-48505500D01*
X99909978Y-48505500D01*
X99909990Y-48505500D01*
X99927482Y-48505070D01*
X99928848Y-48505037D01*
X99931890Y-48505000D01*
X100068110Y-48505000D01*
X100071152Y-48505037D01*
X100072517Y-48505070D01*
X100090010Y-48505500D01*
X100090022Y-48505500D01*
X100918647Y-48505500D01*
X100921677Y-48505351D01*
X100921679Y-48505398D01*
X100929810Y-48505000D01*
X101070190Y-48505000D01*
X101078320Y-48505398D01*
X101078323Y-48505351D01*
X101081353Y-48505500D01*
X101081356Y-48505500D01*
X101448640Y-48505500D01*
X101458786Y-48504955D01*
X101502678Y-48502603D01*
X101502686Y-48502602D01*
X101502688Y-48502602D01*
X101502689Y-48502602D01*
X101509682Y-48501849D01*
X101529036Y-48499769D01*
X101529046Y-48499767D01*
X101529049Y-48499767D01*
X101544069Y-48497333D01*
X101582448Y-48491114D01*
X101717257Y-48440832D01*
X101778580Y-48407347D01*
X101893761Y-48321123D01*
X103920623Y-46294261D01*
X103956788Y-46254000D01*
X103973422Y-46233358D01*
X104005067Y-46189474D01*
X104064838Y-46058597D01*
X104084523Y-45991558D01*
X104084524Y-45991554D01*
X104093220Y-45931062D01*
X104094339Y-45924532D01*
X104095285Y-45919774D01*
X104095286Y-45919775D01*
X104113956Y-45825915D01*
X104121006Y-45802674D01*
X104133902Y-45771539D01*
X104145351Y-45750119D01*
X104164079Y-45722090D01*
X104179488Y-45703316D01*
X104203314Y-45679489D01*
X104222093Y-45664076D01*
X104250111Y-45645356D01*
X104271545Y-45633900D01*
X104302668Y-45621009D01*
X104325918Y-45613955D01*
X104370293Y-45605128D01*
X104387843Y-45602924D01*
X104403178Y-45602103D01*
X104429536Y-45599269D01*
X104429546Y-45599267D01*
X104429549Y-45599267D01*
X104439148Y-45597711D01*
X104482948Y-45590614D01*
X104617757Y-45540332D01*
X104679080Y-45506847D01*
X104794262Y-45420623D01*
X105173065Y-45041818D01*
X105234388Y-45008334D01*
X105260746Y-45005500D01*
X109625500Y-45005500D01*
X109692539Y-45025185D01*
G37*
G04 #@! TD.AperFunction*
G04 #@! TA.AperFunction,Conductor*
G36*
X99943039Y-20270185D02*
G01*
X99988794Y-20322989D01*
X100000000Y-20374500D01*
X100000000Y-27876000D01*
X99980315Y-27943039D01*
X99927511Y-27988794D01*
X99876000Y-28000000D01*
X97000000Y-28000000D01*
X97000000Y-32376000D01*
X96980315Y-32443039D01*
X96927511Y-32488794D01*
X96876000Y-32500000D01*
X94205583Y-32500000D01*
X94195860Y-32499618D01*
X94194360Y-32499500D01*
X94194354Y-32499500D01*
X93965646Y-32499500D01*
X93965640Y-32499500D01*
X93964140Y-32499618D01*
X93954417Y-32500000D01*
X90011667Y-32500000D01*
X90003688Y-32499572D01*
X90003683Y-32499678D01*
X90000379Y-32499500D01*
X90000373Y-32499500D01*
X90000366Y-32499500D01*
X87999629Y-32499500D01*
X87996304Y-32499679D01*
X87996298Y-32499573D01*
X87988337Y-32500000D01*
X86500000Y-32500000D01*
X86500000Y-34876000D01*
X86480315Y-34943039D01*
X86427511Y-34988794D01*
X86376000Y-35000000D01*
X81164500Y-35000000D01*
X81097461Y-34980315D01*
X81051706Y-34927511D01*
X81040500Y-34876000D01*
X81040500Y-33881902D01*
X81003552Y-33648626D01*
X81003424Y-33648092D01*
X81003295Y-33647002D01*
X81002791Y-33643820D01*
X81002916Y-33643800D01*
X81000000Y-33619155D01*
X81000000Y-32500000D01*
X79669321Y-32500000D01*
X79659598Y-32499618D01*
X79658098Y-32499500D01*
X79658092Y-32499500D01*
X79421908Y-32499500D01*
X79421902Y-32499500D01*
X79420402Y-32499618D01*
X79410679Y-32500000D01*
X78624000Y-32500000D01*
X78556961Y-32480315D01*
X78511206Y-32427511D01*
X78500000Y-32376000D01*
X78500000Y-20374500D01*
X78519685Y-20307461D01*
X78572489Y-20261706D01*
X78624000Y-20250500D01*
X99876000Y-20250500D01*
X99943039Y-20270185D01*
G37*
G04 #@! TD.AperFunction*
G04 #@! TA.AperFunction,Conductor*
G36*
X51443039Y-20270185D02*
G01*
X51488794Y-20322989D01*
X51500000Y-20374500D01*
X51500000Y-30876000D01*
X51480315Y-30943039D01*
X51427511Y-30988794D01*
X51376000Y-31000000D01*
X41812500Y-31000000D01*
X40537051Y-32457655D01*
X40478092Y-32495145D01*
X40443732Y-32500000D01*
X38011667Y-32500000D01*
X38003688Y-32499572D01*
X38003683Y-32499678D01*
X38000379Y-32499500D01*
X38000373Y-32499500D01*
X38000366Y-32499500D01*
X35999629Y-32499500D01*
X35996304Y-32499679D01*
X35996298Y-32499573D01*
X35988337Y-32500000D01*
X34500000Y-32500000D01*
X34500000Y-34376000D01*
X34480315Y-34443039D01*
X34427511Y-34488794D01*
X34376000Y-34500000D01*
X29164500Y-34500000D01*
X29097461Y-34480315D01*
X29051706Y-34427511D01*
X29040500Y-34376000D01*
X29040500Y-33881902D01*
X29003552Y-33648626D01*
X29003424Y-33648092D01*
X29003295Y-33647002D01*
X29002791Y-33643820D01*
X29002916Y-33643800D01*
X29000000Y-33619155D01*
X29000000Y-20374500D01*
X29019685Y-20307461D01*
X29072489Y-20261706D01*
X29124000Y-20250500D01*
X51376000Y-20250500D01*
X51443039Y-20270185D01*
G37*
G04 #@! TD.AperFunction*
G04 #@! TA.AperFunction,Conductor*
G36*
X73699500Y-48078846D02*
G01*
X73730261Y-48233489D01*
X73730264Y-48233501D01*
X73790602Y-48379172D01*
X73790609Y-48379185D01*
X73878210Y-48510288D01*
X73878213Y-48510292D01*
X73989707Y-48621786D01*
X73989711Y-48621789D01*
X74120814Y-48709390D01*
X74120827Y-48709397D01*
X74266498Y-48769735D01*
X74266503Y-48769737D01*
X74421153Y-48800499D01*
X74421156Y-48800500D01*
X74421158Y-48800500D01*
X74578844Y-48800500D01*
X74578845Y-48800499D01*
X74733497Y-48769737D01*
X74879179Y-48709394D01*
X74881110Y-48708103D01*
X74882276Y-48707737D01*
X74884546Y-48706525D01*
X74884776Y-48706955D01*
X74947786Y-48687226D01*
X75015166Y-48705710D01*
X75018850Y-48708077D01*
X75020821Y-48709394D01*
X75020824Y-48709395D01*
X75020827Y-48709397D01*
X75166498Y-48769735D01*
X75166503Y-48769737D01*
X75321153Y-48800499D01*
X75321156Y-48800500D01*
X75321158Y-48800500D01*
X75478844Y-48800500D01*
X75478845Y-48800499D01*
X75633497Y-48769737D01*
X75779179Y-48709394D01*
X75910289Y-48621789D01*
X76021789Y-48510289D01*
X76109394Y-48379179D01*
X76169737Y-48233497D01*
X76200500Y-48078842D01*
X76200500Y-48000000D01*
X76500000Y-48000000D01*
X76500000Y-56500000D01*
X78376000Y-56500000D01*
X78443039Y-56519685D01*
X78488794Y-56572489D01*
X78500000Y-56624000D01*
X78500000Y-59376000D01*
X78480315Y-59443039D01*
X78427511Y-59488794D01*
X78376000Y-59500000D01*
X77000000Y-59500000D01*
X77000000Y-61876000D01*
X76980315Y-61943039D01*
X76927511Y-61988794D01*
X76876000Y-62000000D01*
X70325045Y-62000000D01*
X70258006Y-61980315D01*
X70212251Y-61927511D01*
X70210482Y-61923448D01*
X70209394Y-61920822D01*
X70209390Y-61920814D01*
X70121789Y-61789711D01*
X70121786Y-61789707D01*
X70036319Y-61704240D01*
X70002834Y-61642917D01*
X70000000Y-61616559D01*
X70000000Y-48000000D01*
X73699500Y-48000000D01*
X73699500Y-48078846D01*
G37*
G04 #@! TD.AperFunction*
G04 #@! TA.AperFunction,Conductor*
G36*
X97143039Y-33019685D02*
G01*
X97188794Y-33072489D01*
X97200000Y-33124000D01*
X97200000Y-40626000D01*
X97180315Y-40693039D01*
X97127511Y-40738794D01*
X97076000Y-40750000D01*
X90624000Y-40750000D01*
X90556961Y-40730315D01*
X90511206Y-40677511D01*
X90500000Y-40626000D01*
X90500000Y-36124000D01*
X90519685Y-36056961D01*
X90572489Y-36011206D01*
X90624000Y-36000000D01*
X93000000Y-36000000D01*
X93000000Y-33124000D01*
X93019685Y-33056961D01*
X93072489Y-33011206D01*
X93124000Y-33000000D01*
X97076000Y-33000000D01*
X97143039Y-33019685D01*
G37*
G04 #@! TD.AperFunction*
G04 #@! TA.AperFunction,Conductor*
G36*
X21699500Y-48078846D02*
G01*
X21730261Y-48233489D01*
X21730264Y-48233501D01*
X21790602Y-48379172D01*
X21790609Y-48379185D01*
X21878210Y-48510288D01*
X21878213Y-48510292D01*
X21989707Y-48621786D01*
X21989711Y-48621789D01*
X22120814Y-48709390D01*
X22120827Y-48709397D01*
X22266498Y-48769735D01*
X22266503Y-48769737D01*
X22421153Y-48800499D01*
X22421156Y-48800500D01*
X22421158Y-48800500D01*
X22578844Y-48800500D01*
X22578845Y-48800499D01*
X22733497Y-48769737D01*
X22879179Y-48709394D01*
X22881110Y-48708103D01*
X22882276Y-48707737D01*
X22884546Y-48706525D01*
X22884776Y-48706955D01*
X22947786Y-48687226D01*
X23015166Y-48705710D01*
X23018850Y-48708077D01*
X23020821Y-48709394D01*
X23020824Y-48709395D01*
X23020827Y-48709397D01*
X23166498Y-48769735D01*
X23166503Y-48769737D01*
X23321153Y-48800499D01*
X23321156Y-48800500D01*
X23321158Y-48800500D01*
X23478844Y-48800500D01*
X23478845Y-48800499D01*
X23633497Y-48769737D01*
X23779179Y-48709394D01*
X23910289Y-48621789D01*
X24021789Y-48510289D01*
X24109394Y-48379179D01*
X24169737Y-48233497D01*
X24200500Y-48078842D01*
X24200500Y-48000000D01*
X24500000Y-48000000D01*
X24500000Y-56500000D01*
X26376000Y-56500000D01*
X26443039Y-56519685D01*
X26488794Y-56572489D01*
X26500000Y-56624000D01*
X26500000Y-59376000D01*
X26480315Y-59443039D01*
X26427511Y-59488794D01*
X26376000Y-59500000D01*
X25000000Y-59500000D01*
X25000000Y-61876000D01*
X24980315Y-61943039D01*
X24927511Y-61988794D01*
X24876000Y-62000000D01*
X20374500Y-62000000D01*
X20307461Y-61980315D01*
X20261706Y-61927511D01*
X20250500Y-61876000D01*
X20250500Y-48000000D01*
X21699500Y-48000000D01*
X21699500Y-48078846D01*
G37*
G04 #@! TD.AperFunction*
G04 #@! TA.AperFunction,Conductor*
G36*
X77443039Y-20270185D02*
G01*
X77488794Y-20322989D01*
X77500000Y-20374500D01*
X77500000Y-30376000D01*
X77480315Y-30443039D01*
X77427511Y-30488794D01*
X77376000Y-30500000D01*
X75499999Y-30500000D01*
X74036319Y-31963681D01*
X73974996Y-31997166D01*
X73948638Y-32000000D01*
X60500000Y-32000000D01*
X60500000Y-34876000D01*
X60480315Y-34943039D01*
X60427511Y-34988794D01*
X60376000Y-35000000D01*
X55164500Y-35000000D01*
X55097461Y-34980315D01*
X55051706Y-34927511D01*
X55040500Y-34876000D01*
X55040500Y-33881902D01*
X55003552Y-33648626D01*
X55003424Y-33648092D01*
X55003295Y-33647002D01*
X55002791Y-33643820D01*
X55002916Y-33643800D01*
X55000000Y-33619155D01*
X55000000Y-32000000D01*
X52624000Y-32000000D01*
X52556961Y-31980315D01*
X52511206Y-31927511D01*
X52500000Y-31876000D01*
X52500000Y-20374500D01*
X52519685Y-20307461D01*
X52572489Y-20261706D01*
X52624000Y-20250500D01*
X77376000Y-20250500D01*
X77443039Y-20270185D01*
G37*
G04 #@! TD.AperFunction*
G04 #@! TA.AperFunction,Conductor*
G36*
X46243039Y-33019685D02*
G01*
X46288794Y-33072489D01*
X46300000Y-33124000D01*
X46300000Y-40626000D01*
X46280315Y-40693039D01*
X46227511Y-40738794D01*
X46176000Y-40750000D01*
X38624000Y-40750000D01*
X38556961Y-40730315D01*
X38511206Y-40677511D01*
X38500000Y-40626000D01*
X38500000Y-36124000D01*
X38519685Y-36056961D01*
X38572489Y-36011206D01*
X38624000Y-36000000D01*
X41000000Y-36000000D01*
X41000000Y-33124000D01*
X41019685Y-33056961D01*
X41072489Y-33011206D01*
X41124000Y-33000000D01*
X46176000Y-33000000D01*
X46243039Y-33019685D01*
G37*
G04 #@! TD.AperFunction*
G04 #@! TA.AperFunction,Conductor*
G36*
X109692539Y-29019685D02*
G01*
X109738294Y-29072489D01*
X109749500Y-29124000D01*
X109749500Y-44376000D01*
X109729815Y-44443039D01*
X109677011Y-44488794D01*
X109625500Y-44500000D01*
X104999999Y-44500000D01*
X104436819Y-45063181D01*
X104375496Y-45096666D01*
X104349138Y-45099500D01*
X104321155Y-45099500D01*
X104166510Y-45130261D01*
X104166498Y-45130264D01*
X104020827Y-45190602D01*
X104020814Y-45190609D01*
X103889711Y-45278210D01*
X103889707Y-45278213D01*
X103778213Y-45389707D01*
X103778210Y-45389711D01*
X103690609Y-45520814D01*
X103690602Y-45520827D01*
X103630264Y-45666498D01*
X103630261Y-45666510D01*
X103599500Y-45821153D01*
X103599500Y-45849138D01*
X103579815Y-45916177D01*
X103563181Y-45936819D01*
X101536319Y-47963681D01*
X101474996Y-47997166D01*
X101448638Y-48000000D01*
X101081356Y-48000000D01*
X101078842Y-47999500D01*
X100921158Y-47999500D01*
X100918644Y-48000000D01*
X100090010Y-48000000D01*
X100079832Y-47999500D01*
X100078842Y-47999500D01*
X99921158Y-47999500D01*
X99920168Y-47999500D01*
X99909990Y-48000000D01*
X99081356Y-48000000D01*
X99078842Y-47999500D01*
X98921158Y-47999500D01*
X98918644Y-48000000D01*
X93680514Y-48000000D01*
X93613475Y-47980315D01*
X93611623Y-47979102D01*
X93479185Y-47890609D01*
X93479172Y-47890602D01*
X93333501Y-47830264D01*
X93333489Y-47830261D01*
X93178845Y-47799500D01*
X93178842Y-47799500D01*
X93021158Y-47799500D01*
X93021155Y-47799500D01*
X92866510Y-47830261D01*
X92866498Y-47830264D01*
X92720827Y-47890602D01*
X92720814Y-47890609D01*
X92668891Y-47925304D01*
X92602214Y-47946182D01*
X92534833Y-47927698D01*
X92531109Y-47925304D01*
X92479185Y-47890609D01*
X92479172Y-47890602D01*
X92333501Y-47830264D01*
X92333489Y-47830261D01*
X92178845Y-47799500D01*
X92178842Y-47799500D01*
X92021158Y-47799500D01*
X92021155Y-47799500D01*
X91866510Y-47830261D01*
X91866498Y-47830264D01*
X91720827Y-47890602D01*
X91720814Y-47890609D01*
X91668891Y-47925304D01*
X91602214Y-47946182D01*
X91534833Y-47927698D01*
X91531109Y-47925304D01*
X91479185Y-47890609D01*
X91479172Y-47890602D01*
X91333501Y-47830264D01*
X91333489Y-47830261D01*
X91178845Y-47799500D01*
X91178842Y-47799500D01*
X91021158Y-47799500D01*
X91021155Y-47799500D01*
X90866510Y-47830261D01*
X90866498Y-47830264D01*
X90720827Y-47890602D01*
X90720814Y-47890609D01*
X90668891Y-47925304D01*
X90602214Y-47946182D01*
X90534833Y-47927698D01*
X90531109Y-47925304D01*
X90479185Y-47890609D01*
X90479172Y-47890602D01*
X90333501Y-47830264D01*
X90333489Y-47830261D01*
X90178845Y-47799500D01*
X90178842Y-47799500D01*
X90021158Y-47799500D01*
X90021155Y-47799500D01*
X89866510Y-47830261D01*
X89866498Y-47830264D01*
X89720827Y-47890602D01*
X89720814Y-47890609D01*
X89668891Y-47925304D01*
X89602214Y-47946182D01*
X89534833Y-47927698D01*
X89531109Y-47925304D01*
X89479185Y-47890609D01*
X89479172Y-47890602D01*
X89333501Y-47830264D01*
X89333489Y-47830261D01*
X89178845Y-47799500D01*
X89178842Y-47799500D01*
X89021158Y-47799500D01*
X89021155Y-47799500D01*
X88866510Y-47830261D01*
X88866498Y-47830264D01*
X88720827Y-47890602D01*
X88720814Y-47890609D01*
X88668891Y-47925304D01*
X88602214Y-47946182D01*
X88534833Y-47927698D01*
X88531109Y-47925304D01*
X88479185Y-47890609D01*
X88479172Y-47890602D01*
X88333501Y-47830264D01*
X88333489Y-47830261D01*
X88178845Y-47799500D01*
X88178842Y-47799500D01*
X88021158Y-47799500D01*
X88021155Y-47799500D01*
X87866510Y-47830261D01*
X87866498Y-47830264D01*
X87720827Y-47890602D01*
X87720814Y-47890609D01*
X87588377Y-47979102D01*
X87521700Y-47999980D01*
X87519486Y-48000000D01*
X76200500Y-48000000D01*
X76200500Y-47921155D01*
X76200499Y-47921153D01*
X76182419Y-47830261D01*
X76169737Y-47766503D01*
X76130778Y-47672449D01*
X76123310Y-47602984D01*
X76130775Y-47577556D01*
X76169737Y-47483497D01*
X76200500Y-47328842D01*
X76200500Y-47171158D01*
X76200500Y-47171155D01*
X76200499Y-47171153D01*
X76169738Y-47016510D01*
X76169737Y-47016503D01*
X76130778Y-46922449D01*
X76123310Y-46852984D01*
X76130775Y-46827556D01*
X76169737Y-46733497D01*
X76200500Y-46578842D01*
X76200500Y-46421158D01*
X76200500Y-46421155D01*
X76200499Y-46421153D01*
X76169738Y-46266510D01*
X76169737Y-46266503D01*
X76114645Y-46133497D01*
X76109397Y-46120827D01*
X76109390Y-46120814D01*
X76021789Y-45989711D01*
X76021786Y-45989707D01*
X75910292Y-45878213D01*
X75910288Y-45878210D01*
X75779185Y-45790609D01*
X75779172Y-45790602D01*
X75633501Y-45730264D01*
X75633489Y-45730261D01*
X75478845Y-45699500D01*
X75478842Y-45699500D01*
X75321158Y-45699500D01*
X75321155Y-45699500D01*
X75166510Y-45730261D01*
X75166498Y-45730264D01*
X75020822Y-45790604D01*
X75020820Y-45790605D01*
X75018885Y-45791899D01*
X75017717Y-45792264D01*
X75015451Y-45793476D01*
X75015221Y-45793045D01*
X74952206Y-45812773D01*
X74884827Y-45794285D01*
X74881115Y-45791899D01*
X74879179Y-45790605D01*
X74879177Y-45790604D01*
X74733501Y-45730264D01*
X74733489Y-45730261D01*
X74578845Y-45699500D01*
X74578842Y-45699500D01*
X74421158Y-45699500D01*
X74421155Y-45699500D01*
X74266510Y-45730261D01*
X74266498Y-45730264D01*
X74120827Y-45790602D01*
X74120814Y-45790609D01*
X73989711Y-45878210D01*
X73989707Y-45878213D01*
X73878213Y-45989707D01*
X73878210Y-45989711D01*
X73790609Y-46120814D01*
X73790602Y-46120827D01*
X73730264Y-46266498D01*
X73730261Y-46266510D01*
X73699500Y-46421153D01*
X73699500Y-46578846D01*
X73730261Y-46733489D01*
X73730264Y-46733501D01*
X73769219Y-46827548D01*
X73776688Y-46897018D01*
X73769219Y-46922452D01*
X73730264Y-47016498D01*
X73730261Y-47016510D01*
X73699500Y-47171153D01*
X73699500Y-47328846D01*
X73730261Y-47483489D01*
X73730264Y-47483501D01*
X73769219Y-47577548D01*
X73776688Y-47647018D01*
X73769219Y-47672452D01*
X73730264Y-47766498D01*
X73730261Y-47766510D01*
X73699500Y-47921153D01*
X73699500Y-48000000D01*
X67626524Y-48000000D01*
X67579072Y-47990561D01*
X67433501Y-47930264D01*
X67433489Y-47930261D01*
X67278845Y-47899500D01*
X67278842Y-47899500D01*
X67121158Y-47899500D01*
X67121155Y-47899500D01*
X66966510Y-47930261D01*
X66966498Y-47930264D01*
X66820928Y-47990561D01*
X66812751Y-47992187D01*
X66808411Y-47994977D01*
X66773476Y-48000000D01*
X66626524Y-48000000D01*
X66579072Y-47990561D01*
X66433501Y-47930264D01*
X66433489Y-47930261D01*
X66278845Y-47899500D01*
X66278842Y-47899500D01*
X66121158Y-47899500D01*
X66121155Y-47899500D01*
X65966510Y-47930261D01*
X65966498Y-47930264D01*
X65820928Y-47990561D01*
X65812751Y-47992187D01*
X65808411Y-47994977D01*
X65773476Y-48000000D01*
X65626524Y-48000000D01*
X65579072Y-47990561D01*
X65433501Y-47930264D01*
X65433489Y-47930261D01*
X65278845Y-47899500D01*
X65278842Y-47899500D01*
X65121158Y-47899500D01*
X65121155Y-47899500D01*
X64966510Y-47930261D01*
X64966498Y-47930264D01*
X64820928Y-47990561D01*
X64812751Y-47992187D01*
X64808411Y-47994977D01*
X64773476Y-48000000D01*
X64626524Y-48000000D01*
X64579072Y-47990561D01*
X64433501Y-47930264D01*
X64433489Y-47930261D01*
X64278845Y-47899500D01*
X64278842Y-47899500D01*
X64121158Y-47899500D01*
X64121155Y-47899500D01*
X63966510Y-47930261D01*
X63966498Y-47930264D01*
X63820928Y-47990561D01*
X63812751Y-47992187D01*
X63808411Y-47994977D01*
X63773476Y-48000000D01*
X63626524Y-48000000D01*
X63579072Y-47990561D01*
X63433501Y-47930264D01*
X63433489Y-47930261D01*
X63278845Y-47899500D01*
X63278842Y-47899500D01*
X63121158Y-47899500D01*
X63121155Y-47899500D01*
X62966510Y-47930261D01*
X62966498Y-47930264D01*
X62820928Y-47990561D01*
X62812751Y-47992187D01*
X62808411Y-47994977D01*
X62773476Y-48000000D01*
X62626524Y-48000000D01*
X62579072Y-47990561D01*
X62433501Y-47930264D01*
X62433489Y-47930261D01*
X62278845Y-47899500D01*
X62278842Y-47899500D01*
X62121158Y-47899500D01*
X62121155Y-47899500D01*
X61966510Y-47930261D01*
X61966498Y-47930264D01*
X61820928Y-47990561D01*
X61773476Y-48000000D01*
X50200500Y-48000000D01*
X50200500Y-47921155D01*
X50200499Y-47921153D01*
X50182419Y-47830261D01*
X50169737Y-47766503D01*
X50130778Y-47672449D01*
X50123310Y-47602984D01*
X50130775Y-47577556D01*
X50169737Y-47483497D01*
X50200500Y-47328842D01*
X50200500Y-47171158D01*
X50200500Y-47171155D01*
X50200499Y-47171153D01*
X50169738Y-47016510D01*
X50169737Y-47016503D01*
X50130778Y-46922449D01*
X50123310Y-46852984D01*
X50130775Y-46827556D01*
X50169737Y-46733497D01*
X50200500Y-46578842D01*
X50200500Y-46421158D01*
X50200500Y-46421155D01*
X50200499Y-46421153D01*
X50169738Y-46266510D01*
X50169737Y-46266503D01*
X50114645Y-46133497D01*
X50109397Y-46120827D01*
X50109390Y-46120814D01*
X50021789Y-45989711D01*
X50021786Y-45989707D01*
X49910292Y-45878213D01*
X49910288Y-45878210D01*
X49779185Y-45790609D01*
X49779172Y-45790602D01*
X49633501Y-45730264D01*
X49633489Y-45730261D01*
X49478845Y-45699500D01*
X49478842Y-45699500D01*
X49321158Y-45699500D01*
X49321155Y-45699500D01*
X49166510Y-45730261D01*
X49166498Y-45730264D01*
X49020822Y-45790604D01*
X49020820Y-45790605D01*
X49018885Y-45791899D01*
X49017717Y-45792264D01*
X49015451Y-45793476D01*
X49015221Y-45793045D01*
X48952206Y-45812773D01*
X48884827Y-45794285D01*
X48881115Y-45791899D01*
X48879179Y-45790605D01*
X48879177Y-45790604D01*
X48733501Y-45730264D01*
X48733489Y-45730261D01*
X48578845Y-45699500D01*
X48578842Y-45699500D01*
X48421158Y-45699500D01*
X48421155Y-45699500D01*
X48266510Y-45730261D01*
X48266498Y-45730264D01*
X48120827Y-45790602D01*
X48120814Y-45790609D01*
X47989711Y-45878210D01*
X47989707Y-45878213D01*
X47878213Y-45989707D01*
X47878210Y-45989711D01*
X47790609Y-46120814D01*
X47790602Y-46120827D01*
X47730264Y-46266498D01*
X47730261Y-46266510D01*
X47699500Y-46421153D01*
X47699500Y-46578846D01*
X47730261Y-46733489D01*
X47730264Y-46733501D01*
X47769219Y-46827548D01*
X47776688Y-46897018D01*
X47769219Y-46922452D01*
X47730264Y-47016498D01*
X47730261Y-47016510D01*
X47699500Y-47171153D01*
X47699500Y-47328846D01*
X47730261Y-47483489D01*
X47730264Y-47483501D01*
X47769219Y-47577548D01*
X47776688Y-47647018D01*
X47769219Y-47672452D01*
X47730264Y-47766498D01*
X47730261Y-47766510D01*
X47699500Y-47921153D01*
X47699500Y-48000000D01*
X44095482Y-48000000D01*
X44021789Y-47889711D01*
X44021786Y-47889707D01*
X43910292Y-47778213D01*
X43910288Y-47778210D01*
X43779185Y-47690609D01*
X43779172Y-47690602D01*
X43633501Y-47630264D01*
X43633489Y-47630261D01*
X43478845Y-47599500D01*
X43478842Y-47599500D01*
X43321158Y-47599500D01*
X43321155Y-47599500D01*
X43166510Y-47630261D01*
X43166498Y-47630264D01*
X43047452Y-47679574D01*
X42977982Y-47687043D01*
X42952548Y-47679574D01*
X42833501Y-47630264D01*
X42833489Y-47630261D01*
X42678845Y-47599500D01*
X42678842Y-47599500D01*
X42521158Y-47599500D01*
X42521155Y-47599500D01*
X42366510Y-47630261D01*
X42366498Y-47630264D01*
X42247452Y-47679574D01*
X42177982Y-47687043D01*
X42152548Y-47679574D01*
X42033501Y-47630264D01*
X42033489Y-47630261D01*
X41878845Y-47599500D01*
X41878842Y-47599500D01*
X41721158Y-47599500D01*
X41721155Y-47599500D01*
X41566510Y-47630261D01*
X41566498Y-47630264D01*
X41447452Y-47679574D01*
X41377982Y-47687043D01*
X41352548Y-47679574D01*
X41233501Y-47630264D01*
X41233489Y-47630261D01*
X41078845Y-47599500D01*
X41078842Y-47599500D01*
X40921158Y-47599500D01*
X40921155Y-47599500D01*
X40766510Y-47630261D01*
X40766498Y-47630264D01*
X40647452Y-47679574D01*
X40577982Y-47687043D01*
X40552548Y-47679574D01*
X40433501Y-47630264D01*
X40433489Y-47630261D01*
X40278845Y-47599500D01*
X40278842Y-47599500D01*
X40121158Y-47599500D01*
X40121155Y-47599500D01*
X39966510Y-47630261D01*
X39966498Y-47630264D01*
X39820827Y-47690602D01*
X39820814Y-47690609D01*
X39689711Y-47778210D01*
X39689707Y-47778213D01*
X39578212Y-47889708D01*
X39541342Y-47944890D01*
X39487730Y-47989696D01*
X39438239Y-48000000D01*
X24200500Y-48000000D01*
X24200500Y-47921155D01*
X24200499Y-47921153D01*
X24182419Y-47830261D01*
X24169737Y-47766503D01*
X24130778Y-47672449D01*
X24123310Y-47602984D01*
X24130775Y-47577556D01*
X24169737Y-47483497D01*
X24200500Y-47328842D01*
X24200500Y-47171158D01*
X24200500Y-47171155D01*
X24200499Y-47171153D01*
X24169738Y-47016510D01*
X24169737Y-47016503D01*
X24130778Y-46922449D01*
X24123310Y-46852984D01*
X24130775Y-46827556D01*
X24169737Y-46733497D01*
X24200500Y-46578842D01*
X24200500Y-46421158D01*
X24200500Y-46421155D01*
X24200499Y-46421153D01*
X24169738Y-46266510D01*
X24169737Y-46266503D01*
X24114645Y-46133497D01*
X24109397Y-46120827D01*
X24109390Y-46120814D01*
X24021789Y-45989711D01*
X24021786Y-45989707D01*
X23910292Y-45878213D01*
X23910288Y-45878210D01*
X23779185Y-45790609D01*
X23779172Y-45790602D01*
X23633501Y-45730264D01*
X23633489Y-45730261D01*
X23478845Y-45699500D01*
X23478842Y-45699500D01*
X23321158Y-45699500D01*
X23321155Y-45699500D01*
X23166510Y-45730261D01*
X23166498Y-45730264D01*
X23020822Y-45790604D01*
X23020820Y-45790605D01*
X23018885Y-45791899D01*
X23017717Y-45792264D01*
X23015451Y-45793476D01*
X23015221Y-45793045D01*
X22952206Y-45812773D01*
X22884827Y-45794285D01*
X22881115Y-45791899D01*
X22879179Y-45790605D01*
X22879177Y-45790604D01*
X22733501Y-45730264D01*
X22733489Y-45730261D01*
X22578845Y-45699500D01*
X22578842Y-45699500D01*
X22421158Y-45699500D01*
X22421155Y-45699500D01*
X22266510Y-45730261D01*
X22266498Y-45730264D01*
X22120827Y-45790602D01*
X22120814Y-45790609D01*
X21989711Y-45878210D01*
X21989707Y-45878213D01*
X21878213Y-45989707D01*
X21878210Y-45989711D01*
X21790609Y-46120814D01*
X21790602Y-46120827D01*
X21730264Y-46266498D01*
X21730261Y-46266510D01*
X21699500Y-46421153D01*
X21699500Y-46578846D01*
X21730261Y-46733489D01*
X21730264Y-46733501D01*
X21769219Y-46827548D01*
X21776688Y-46897018D01*
X21769219Y-46922452D01*
X21730264Y-47016498D01*
X21730261Y-47016510D01*
X21699500Y-47171153D01*
X21699500Y-47328846D01*
X21730261Y-47483489D01*
X21730264Y-47483501D01*
X21769219Y-47577548D01*
X21776688Y-47647018D01*
X21769219Y-47672452D01*
X21730264Y-47766498D01*
X21730261Y-47766510D01*
X21699500Y-47921153D01*
X21699500Y-48000000D01*
X20250500Y-48000000D01*
X20250500Y-36124000D01*
X20270185Y-36056961D01*
X20322989Y-36011206D01*
X20374500Y-36000000D01*
X37870500Y-36000000D01*
X37937539Y-36019685D01*
X37983294Y-36072489D01*
X37994500Y-36124000D01*
X37994500Y-40626000D01*
X37994501Y-40626009D01*
X38006052Y-40733450D01*
X38006054Y-40733462D01*
X38017260Y-40784972D01*
X38051383Y-40887497D01*
X38051386Y-40887503D01*
X38129171Y-41008537D01*
X38129179Y-41008548D01*
X38174923Y-41061340D01*
X38174926Y-41061343D01*
X38174930Y-41061347D01*
X38283664Y-41155567D01*
X38283667Y-41155568D01*
X38283668Y-41155569D01*
X38377925Y-41198616D01*
X38414541Y-41215338D01*
X38481580Y-41235023D01*
X38481584Y-41235024D01*
X38624000Y-41255500D01*
X38624003Y-41255500D01*
X46175990Y-41255500D01*
X46176000Y-41255500D01*
X46283456Y-41243947D01*
X46334967Y-41232741D01*
X46369197Y-41221347D01*
X46437497Y-41198616D01*
X46437501Y-41198613D01*
X46437504Y-41198613D01*
X46558543Y-41120825D01*
X46611347Y-41075070D01*
X46705567Y-40966336D01*
X46765338Y-40835459D01*
X46785023Y-40768420D01*
X46785024Y-40768416D01*
X46805500Y-40626000D01*
X46805500Y-36124000D01*
X46825185Y-36056961D01*
X46877989Y-36011206D01*
X46929500Y-36000000D01*
X63870500Y-36000000D01*
X63937539Y-36019685D01*
X63983294Y-36072489D01*
X63994500Y-36124000D01*
X63994500Y-40626000D01*
X63994501Y-40626009D01*
X64006052Y-40733450D01*
X64006054Y-40733462D01*
X64017260Y-40784972D01*
X64051383Y-40887497D01*
X64051386Y-40887503D01*
X64129171Y-41008537D01*
X64129179Y-41008548D01*
X64174923Y-41061340D01*
X64174926Y-41061343D01*
X64174930Y-41061347D01*
X64283664Y-41155567D01*
X64283667Y-41155568D01*
X64283668Y-41155569D01*
X64377925Y-41198616D01*
X64414541Y-41215338D01*
X64481580Y-41235023D01*
X64481584Y-41235024D01*
X64624000Y-41255500D01*
X64624003Y-41255500D01*
X71775990Y-41255500D01*
X71776000Y-41255500D01*
X71883456Y-41243947D01*
X71934967Y-41232741D01*
X71969197Y-41221347D01*
X72037497Y-41198616D01*
X72037501Y-41198613D01*
X72037504Y-41198613D01*
X72158543Y-41120825D01*
X72211347Y-41075070D01*
X72305567Y-40966336D01*
X72365338Y-40835459D01*
X72385023Y-40768420D01*
X72385024Y-40768416D01*
X72405500Y-40626000D01*
X72405500Y-36124000D01*
X72425185Y-36056961D01*
X72477989Y-36011206D01*
X72529500Y-36000000D01*
X89870500Y-36000000D01*
X89937539Y-36019685D01*
X89983294Y-36072489D01*
X89994500Y-36124000D01*
X89994500Y-40626000D01*
X89994501Y-40626009D01*
X90006052Y-40733450D01*
X90006054Y-40733462D01*
X90017260Y-40784972D01*
X90051383Y-40887497D01*
X90051386Y-40887503D01*
X90129171Y-41008537D01*
X90129179Y-41008548D01*
X90174923Y-41061340D01*
X90174926Y-41061343D01*
X90174930Y-41061347D01*
X90283664Y-41155567D01*
X90283667Y-41155568D01*
X90283668Y-41155569D01*
X90377925Y-41198616D01*
X90414541Y-41215338D01*
X90481580Y-41235023D01*
X90481584Y-41235024D01*
X90624000Y-41255500D01*
X90624003Y-41255500D01*
X97075990Y-41255500D01*
X97076000Y-41255500D01*
X97183456Y-41243947D01*
X97234967Y-41232741D01*
X97269197Y-41221347D01*
X97337497Y-41198616D01*
X97337501Y-41198613D01*
X97337504Y-41198613D01*
X97458543Y-41120825D01*
X97511347Y-41075070D01*
X97605567Y-40966336D01*
X97665338Y-40835459D01*
X97685023Y-40768420D01*
X97685024Y-40768416D01*
X97705500Y-40626000D01*
X97705500Y-33911622D01*
X97725185Y-33844583D01*
X97732672Y-33834160D01*
X98000000Y-33500000D01*
X98000000Y-29124000D01*
X98019685Y-29056961D01*
X98072489Y-29011206D01*
X98124000Y-29000000D01*
X109625500Y-29000000D01*
X109692539Y-29019685D01*
G37*
G04 #@! TD.AperFunction*
G04 #@! TA.AperFunction,Conductor*
G36*
X71843039Y-33019685D02*
G01*
X71888794Y-33072489D01*
X71900000Y-33124000D01*
X71900000Y-40626000D01*
X71880315Y-40693039D01*
X71827511Y-40738794D01*
X71776000Y-40750000D01*
X64624000Y-40750000D01*
X64556961Y-40730315D01*
X64511206Y-40677511D01*
X64500000Y-40626000D01*
X64500000Y-36124000D01*
X64519685Y-36056961D01*
X64572489Y-36011206D01*
X64624000Y-36000000D01*
X67000000Y-36000000D01*
X67000000Y-33124000D01*
X67019685Y-33056961D01*
X67072489Y-33011206D01*
X67124000Y-33000000D01*
X71776000Y-33000000D01*
X71843039Y-33019685D01*
G37*
G04 #@! TD.AperFunction*
G04 #@! TA.AperFunction,Conductor*
G36*
X47699500Y-48078846D02*
G01*
X47730261Y-48233489D01*
X47730264Y-48233501D01*
X47790602Y-48379172D01*
X47790609Y-48379185D01*
X47878210Y-48510288D01*
X47878213Y-48510292D01*
X47989707Y-48621786D01*
X47989711Y-48621789D01*
X48120814Y-48709390D01*
X48120827Y-48709397D01*
X48266498Y-48769735D01*
X48266503Y-48769737D01*
X48421153Y-48800499D01*
X48421156Y-48800500D01*
X48421158Y-48800500D01*
X48578844Y-48800500D01*
X48578845Y-48800499D01*
X48733497Y-48769737D01*
X48879179Y-48709394D01*
X48881110Y-48708103D01*
X48882276Y-48707737D01*
X48884546Y-48706525D01*
X48884776Y-48706955D01*
X48947786Y-48687226D01*
X49015166Y-48705710D01*
X49018850Y-48708077D01*
X49020821Y-48709394D01*
X49020824Y-48709395D01*
X49020827Y-48709397D01*
X49166498Y-48769735D01*
X49166503Y-48769737D01*
X49321153Y-48800499D01*
X49321156Y-48800500D01*
X49321158Y-48800500D01*
X49478844Y-48800500D01*
X49478845Y-48800499D01*
X49633497Y-48769737D01*
X49779179Y-48709394D01*
X49910289Y-48621789D01*
X50021789Y-48510289D01*
X50109394Y-48379179D01*
X50169737Y-48233497D01*
X50200500Y-48078842D01*
X50200500Y-48000000D01*
X50500000Y-48000000D01*
X50500000Y-56500000D01*
X52376000Y-56500000D01*
X52443039Y-56519685D01*
X52488794Y-56572489D01*
X52500000Y-56624000D01*
X52500000Y-59376000D01*
X52480315Y-59443039D01*
X52427511Y-59488794D01*
X52376000Y-59500000D01*
X51000000Y-59500000D01*
X51000000Y-61876000D01*
X50980315Y-61943039D01*
X50927511Y-61988794D01*
X50876000Y-62000000D01*
X44325045Y-62000000D01*
X44258006Y-61980315D01*
X44212251Y-61927511D01*
X44210482Y-61923448D01*
X44209394Y-61920822D01*
X44209390Y-61920814D01*
X44121789Y-61789711D01*
X44121786Y-61789707D01*
X44036319Y-61704240D01*
X44002834Y-61642917D01*
X44000000Y-61616559D01*
X44000000Y-48980513D01*
X44019685Y-48913474D01*
X44020898Y-48911622D01*
X44050237Y-48867713D01*
X44109394Y-48779179D01*
X44169737Y-48633497D01*
X44200500Y-48478842D01*
X44200500Y-48321158D01*
X44200500Y-48321155D01*
X44200499Y-48321153D01*
X44169738Y-48166510D01*
X44169737Y-48166503D01*
X44133427Y-48078842D01*
X44109397Y-48020827D01*
X44109390Y-48020814D01*
X44095482Y-48000000D01*
X47699500Y-48000000D01*
X47699500Y-48078846D01*
G37*
G04 #@! TD.AperFunction*
M02*
